<svg width="299" height="299" viewBox="0 0 299 299" fill="none" xmlns="http://www.w3.org/2000/svg">
<circle cx="149.5" cy="149.5" r="149.5" fill="white"/>
<g clip-path="url(#clip0_1156_839)">
<path fill-rule="evenodd" clip-rule="evenodd" d="M189.545 178.603L144.536 179.18L134.536 196.339C134.097 197.093 134.691 197.919 135.445 197.919H198.972C199.726 197.919 200.32 197.093 199.881 196.339L189.545 178.603Z" fill="#003748"/>
<path fill-rule="evenodd" clip-rule="evenodd" d="M189.539 178.603L184.332 178.669L194.629 196.339C195.068 197.093 194.474 197.92 193.72 197.92H198.966C199.719 197.92 200.314 197.093 199.874 196.339L189.539 178.603Z" fill="#00242F"/>
<path fill-rule="evenodd" clip-rule="evenodd" d="M225.232 87.2166C228.952 87.2166 231.996 90.2605 231.996 93.9804V172.78C231.996 176.5 228.952 179.544 225.232 179.544H109.197C105.478 179.544 102.434 176.501 102.434 172.78V93.9804C102.434 90.2602 105.478 87.2166 109.197 87.2166H225.232Z" fill="#E6F8FF"/>
<path fill-rule="evenodd" clip-rule="evenodd" d="M225.224 87.2166C228.944 87.2166 231.988 90.2605 231.988 93.9804V172.78C231.988 176.5 228.943 179.544 225.224 179.544H217.355C221.075 179.544 224.119 176.5 224.119 172.78V93.9804C224.119 90.2605 221.075 87.2166 217.355 87.2166H225.224Z" fill="#D0F1FF"/>
<path fill-rule="evenodd" clip-rule="evenodd" d="M231.996 170.841H102.434V175.403C102.434 179.123 105.478 182.167 109.197 182.167H225.232C228.952 182.167 231.996 179.123 231.996 175.403V170.841Z" fill="#004960"/>
<path fill-rule="evenodd" clip-rule="evenodd" d="M231.988 170.841H224.119V175.403C224.119 179.123 221.075 182.167 217.355 182.167H225.224C228.944 182.167 231.988 179.123 231.988 175.403V170.841Z" fill="#003748"/>
<path fill-rule="evenodd" clip-rule="evenodd" d="M205.253 221.288H75.3711V126.301C75.3711 123.03 78.0386 120.362 81.3097 120.362H199.314C202.585 120.362 205.253 123.03 205.253 126.301V221.288Z" fill="#B4D2D7"/>
<path fill-rule="evenodd" clip-rule="evenodd" d="M205.256 221.288H192.211V120.363H199.318C202.589 120.363 205.256 123.031 205.256 126.301V221.288Z" fill="#9BB9C3"/>
<path fill-rule="evenodd" clip-rule="evenodd" d="M196.802 206.061V129.944C196.802 129.644 196.683 129.357 196.471 129.146C196.259 128.934 195.973 128.815 195.673 128.814H84.9534C84.6541 128.815 84.3673 128.934 84.1556 129.146C83.944 129.357 83.8248 129.644 83.8242 129.944V206.061C83.8248 206.361 83.944 206.647 84.1556 206.859C84.3673 207.071 84.6541 207.19 84.9534 207.19H195.673C195.972 207.19 196.259 207.07 196.471 206.859C196.683 206.647 196.802 206.36 196.802 206.061Z" fill="#E6F8FF"/>
<path fill-rule="evenodd" clip-rule="evenodd" d="M196.805 206.061V129.944C196.804 129.644 196.685 129.357 196.473 129.146C196.262 128.934 195.975 128.815 195.675 128.814H192.211V207.19H195.675C195.975 207.19 196.262 207.07 196.473 206.859C196.685 206.647 196.804 206.36 196.805 206.061Z" fill="#D0F1FF"/>
<path fill-rule="evenodd" clip-rule="evenodd" d="M206.091 215.642H208.907C209.206 215.642 209.493 215.761 209.705 215.973C209.916 216.185 210.036 216.472 210.036 216.771V222.824C210.036 227.519 206.194 231.362 201.498 231.362H79.1193C76.1205 231.362 73.4693 229.794 71.9453 227.439C72.9692 227.861 74.0661 228.077 75.1736 228.077H197.553C202.249 228.077 206.091 224.234 206.091 219.539V215.642Z" fill="#003748"/>
<path fill-rule="evenodd" clip-rule="evenodd" d="M119.023 215.642H161.605V221.631C161.604 221.93 161.485 222.217 161.274 222.428C161.062 222.64 160.775 222.759 160.476 222.76H120.153C119.853 222.759 119.566 222.64 119.355 222.428C119.143 222.217 119.024 221.93 119.023 221.631V215.642Z" fill="#003748"/>
<path fill-rule="evenodd" clip-rule="evenodd" d="M119.023 215.642H121.137V219.649C121.137 219.949 121.256 220.235 121.468 220.447C121.68 220.659 121.966 220.778 122.266 220.779H161.605V221.631C161.604 221.93 161.485 222.217 161.274 222.428C161.062 222.64 160.775 222.759 160.476 222.76H120.153C119.853 222.759 119.566 222.64 119.355 222.428C119.143 222.217 119.024 221.93 119.023 221.631V215.642Z" fill="#00242F"/>
<path d="M138.5 192.994C152.303 192.994 163.492 181.805 163.492 168.002C163.492 154.2 152.303 143.01 138.5 143.01C124.697 143.01 113.508 154.2 113.508 168.002C113.508 181.805 124.697 192.994 138.5 192.994Z" fill="#64B5F6"/>
<path fill-rule="evenodd" clip-rule="evenodd" d="M153.767 148.212C159.685 152.783 163.497 159.947 163.497 168.003C163.497 181.805 152.308 192.995 138.505 192.995C130.819 192.995 123.944 189.523 119.359 184.064C123.581 187.325 128.874 189.266 134.621 189.266C148.424 189.266 159.614 178.077 159.614 164.274C159.613 158.158 157.415 152.556 153.767 148.212Z" fill="#42A5F5"/>
<path fill-rule="evenodd" clip-rule="evenodd" d="M146.316 157.315C148.197 155.424 151.254 155.416 153.145 157.296C155.036 159.177 155.044 162.234 153.164 164.125L138.735 178.689C136.867 180.568 133.838 180.589 131.945 178.746L123.896 170.901C121.984 169.041 121.941 165.983 123.801 164.072C125.661 162.16 128.718 162.118 130.63 163.977L135.252 168.483L146.316 157.315Z" fill="#EFF4F7"/>
<path fill-rule="evenodd" clip-rule="evenodd" d="M146.316 157.315C148.197 155.424 151.255 155.416 153.145 157.296C153.667 157.814 154.063 158.444 154.304 159.138C154.544 159.833 154.623 160.573 154.534 161.302C154.471 161.232 154.406 161.163 154.339 161.096C152.448 159.216 149.39 159.224 147.51 161.115L136.446 172.283L131.823 167.777C129.912 165.917 126.854 165.96 124.994 167.871C124.256 168.628 123.788 169.607 123.662 170.657C121.984 168.783 122.02 165.902 123.801 164.071C125.661 162.16 128.718 162.117 130.63 163.977L135.252 168.483L146.316 157.315Z" fill="#DDDDDD"/>
<path fill-rule="evenodd" clip-rule="evenodd" d="M138.503 74.0013C138.503 70.5011 135.407 67.6382 131.623 67.6382H73.8801C70.0957 67.6382 67 70.5011 67 74.0013V177.944C67 181.444 70.0957 184.307 73.8801 184.307H131.623C135.407 184.307 138.503 181.444 138.503 177.944V74.0013Z" fill="#8D9CA8"/>
<path fill-rule="evenodd" clip-rule="evenodd" d="M138.502 74.0014C138.502 71.1425 136.437 68.7088 133.618 67.9132C133.723 68.3534 133.779 68.81 133.779 69.2779V173.22C133.779 176.72 130.683 179.583 126.899 179.583H69.1557C68.4624 179.583 67.7924 179.487 67.1602 179.308C67.8401 182.158 70.6012 184.307 73.8793 184.307H131.622C135.406 184.307 138.502 181.444 138.502 177.944V74.0014Z" fill="#7A8C98"/>
<path fill-rule="evenodd" clip-rule="evenodd" d="M106.678 170.181H98.8396C96.9943 170.181 95.4844 171.691 95.4844 173.536V173.537C95.4844 175.382 96.9943 176.892 98.8396 176.892H106.678C108.523 176.892 110.033 175.382 110.033 173.537V173.536C110.033 171.691 108.523 170.181 106.678 170.181Z" fill="#E6F8FF"/>
<path fill-rule="evenodd" clip-rule="evenodd" d="M100.422 170.181H98.8321C96.9865 170.181 95.4766 171.691 95.4766 173.536C95.4766 175.382 96.9865 176.892 98.8321 176.892H100.422C98.5763 176.892 97.0663 175.382 97.0663 173.536C97.0663 171.691 98.5763 170.181 100.422 170.181Z" fill="#E2E3E3"/>
<path fill-rule="evenodd" clip-rule="evenodd" d="M67 81.4489H138.503V162.766H67V81.4489Z" fill="#E6F8FF"/>
<path fill-rule="evenodd" clip-rule="evenodd" d="M133.773 81.4489H138.497V162.766H133.773V81.4489Z" fill="#D0F1FF"/>
<path d="M101.494 141.383C111.667 141.383 119.913 133.136 119.913 122.964C119.913 112.791 111.667 104.544 101.494 104.544C91.3209 104.544 83.0742 112.791 83.0742 122.964C83.0742 133.136 91.3209 141.383 101.494 141.383Z" fill="#64B5F6"/>
<path fill-rule="evenodd" clip-rule="evenodd" d="M113.997 107.521C118.36 110.89 121.17 116.17 121.17 122.108C121.17 132.281 112.923 140.527 102.751 140.527C96.8133 140.527 91.5326 137.717 88.1641 133.355C91.3837 135.845 95.3405 137.194 99.411 137.188C109.584 137.188 117.83 128.941 117.83 118.768C117.836 114.698 116.488 110.741 113.997 107.521Z" fill="#42A5F5"/>
<mask id="path-27-inside-1_1156_839" fill="white">
<path fill-rule="evenodd" clip-rule="evenodd" d="M109.136 114.861L100.368 123.711L96.3342 119.777C95.2771 118.748 93.5858 118.768 92.5561 119.827C92.0616 120.334 91.7888 121.017 91.7978 121.725C91.8069 122.434 92.0969 123.11 92.6042 123.604L98.5358 129.385C99.0342 129.873 99.704 130.145 100.401 130.143C101.089 130.143 101.777 129.879 102.299 129.352L112.934 118.621C113.432 118.117 113.71 117.436 113.707 116.727C113.704 116.018 113.419 115.339 112.916 114.84C112.412 114.341 111.73 114.064 111.022 114.067C110.313 114.071 109.635 114.357 109.136 114.861ZM118.499 122.105C118.499 130.788 111.435 137.856 102.752 137.856C94.0678 137.856 87.0037 130.789 87.0037 122.105C87.0037 113.425 94.0674 106.358 102.752 106.358C111.435 106.358 118.499 113.425 118.499 122.105ZM123.843 122.105C123.843 133.738 114.382 143.199 102.752 143.199C91.1217 143.199 81.6599 133.738 81.6599 122.105C81.6599 110.475 91.1214 101.014 102.752 101.014C114.382 101.014 123.843 110.475 123.843 122.105ZM229.316 175.402V173.512H207.924V179.493H225.224C227.481 179.493 229.316 177.656 229.316 175.402ZM202.58 212.969H78.0419V186.978H81.1499V207.187C81.1499 207.896 81.4314 208.576 81.9325 209.077C82.4336 209.578 83.1132 209.859 83.8218 209.859H196.799C197.508 209.859 198.188 209.578 198.689 209.077C199.19 208.576 199.471 207.896 199.471 207.187V128.811C199.471 127.338 198.275 126.139 196.799 126.139H141.175V123.033H199.314C201.115 123.033 202.58 124.499 202.58 126.299L202.58 212.969ZM121.692 220.086H158.93V218.312H121.692V220.086ZM207.367 218.312V222.821C207.367 226.057 204.735 228.689 201.501 228.689H79.1216C75.8867 228.689 73.2555 226.057 73.2555 222.821V218.312H116.348V222.758C116.348 223.466 116.629 224.146 117.13 224.647C117.632 225.148 118.311 225.429 119.02 225.429H161.601C161.952 225.429 162.3 225.36 162.624 225.226C162.948 225.092 163.242 224.895 163.49 224.647C163.738 224.399 163.935 224.104 164.069 223.78C164.204 223.456 164.273 223.108 164.273 222.758V218.312H207.367ZM73.8804 181.634H131.623C133.943 181.634 135.831 179.978 135.831 177.94V165.436H69.6722V177.94C69.6722 179.977 71.5602 181.634 73.8804 181.634ZM69.6722 74.0012V78.7765H135.831V74.0012C135.831 71.9632 133.943 70.311 131.623 70.311H73.8804C71.5602 70.311 69.6722 71.9632 69.6722 74.0012ZM131.623 186.978H126.759C130.251 189.135 134.303 190.321 138.499 190.321C150.807 190.321 160.82 180.308 160.82 168.001C160.82 156.599 152.224 147.174 141.175 145.848V158.706L144.417 155.433C145.832 154.007 147.714 153.222 149.718 153.219C151.724 153.219 153.607 153.987 155.028 155.4C156.448 156.813 157.234 158.693 157.239 160.697C157.245 161.682 157.055 162.659 156.68 163.571C156.306 164.482 155.754 165.311 155.057 166.008L140.818 180.379C139.69 184.179 135.996 186.978 131.623 186.978ZM141.175 172.426L151.264 162.243C151.465 162.043 151.625 161.804 151.733 161.542C151.841 161.279 151.897 160.998 151.895 160.714C151.896 160.43 151.84 160.15 151.73 159.888C151.621 159.627 151.461 159.389 151.259 159.191C151.06 158.99 150.823 158.832 150.561 158.724C150.3 158.616 150.02 158.561 149.738 158.563H149.732C149.449 158.562 149.168 158.618 148.907 158.727C148.645 158.836 148.408 158.996 148.209 159.198L141.175 166.298V172.426H141.175ZM69.6722 160.092V84.1206H135.831V160.092H69.6722ZM86.4937 204.515H194.127V131.483H141.175V140.467C155.178 141.816 166.164 153.649 166.164 168.001C166.164 183.254 153.753 195.665 138.499 195.665C134.73 195.665 131 194.895 127.539 193.401C124.077 191.907 120.958 189.722 118.373 186.978H86.494L86.4937 204.515ZM141.175 89.8855V117.69H199.314C204.061 117.69 207.924 121.551 207.924 126.3V168.168H229.316V93.9765C229.316 91.7217 227.481 89.8852 225.224 89.8852L141.175 89.8855ZM234.66 93.9765V175.402C234.66 180.602 230.428 184.837 225.224 184.837H207.924V212.969H210.039C211.514 212.969 212.711 214.164 212.711 215.641V222.821C212.711 229.003 207.682 234.033 201.501 234.033H79.1216C72.9402 234.033 67.9114 229.003 67.9114 222.821V215.641C67.9114 214.932 68.1929 214.252 68.694 213.751C69.1951 213.25 69.8747 212.969 70.5833 212.969H72.6978V186.905C67.9869 186.35 64.3281 182.546 64.3281 177.94V74.0012C64.3281 69.0181 68.6131 64.9669 73.8801 64.9669H131.623C136.889 64.9669 141.175 69.0178 141.175 74.0012V84.5414H225.224C230.428 84.5414 234.66 88.776 234.66 93.9765ZM98.1487 173.535C98.1487 173.906 98.462 174.216 98.8324 174.216H106.671C107.041 174.216 107.354 173.906 107.354 173.535C107.354 173.164 107.041 172.85 106.671 172.85H98.8324C98.462 172.85 98.1487 173.164 98.1487 173.535ZM92.805 173.535C92.805 176.858 95.5089 179.56 98.8324 179.56H106.671C109.994 179.56 112.698 176.858 112.698 173.535C112.698 170.211 109.994 167.506 106.671 167.506H98.8324C95.5089 167.506 92.805 170.211 92.805 173.535ZM95.0617 74.5416C95.0617 74.1908 95.1309 73.8434 95.2652 73.5193C95.3995 73.1951 95.5963 72.9007 95.8444 72.6526C96.0925 72.4046 96.3871 72.2078 96.7112 72.0736C97.0353 71.9394 97.3827 71.8703 97.7336 71.8704H107.77C109.245 71.8704 110.441 73.0657 110.441 74.5416C110.441 74.8925 110.372 75.2399 110.238 75.5641C110.104 75.8883 109.907 76.1829 109.659 76.4311C109.411 76.6792 109.116 76.8761 108.792 77.0105C108.468 77.1448 108.121 77.214 107.77 77.2141H97.7336C96.258 77.2141 95.0617 76.0171 95.0617 74.5416Z"/>
</mask>
<path fill-rule="evenodd" clip-rule="evenodd" d="M109.136 114.861L100.368 123.711L96.3342 119.777C95.2771 118.748 93.5858 118.768 92.5561 119.827C92.0616 120.334 91.7888 121.017 91.7978 121.725C91.8069 122.434 92.0969 123.11 92.6042 123.604L98.5358 129.385C99.0342 129.873 99.704 130.145 100.401 130.143C101.089 130.143 101.777 129.879 102.299 129.352L112.934 118.621C113.432 118.117 113.71 117.436 113.707 116.727C113.704 116.018 113.419 115.339 112.916 114.84C112.412 114.341 111.73 114.064 111.022 114.067C110.313 114.071 109.635 114.357 109.136 114.861ZM118.499 122.105C118.499 130.788 111.435 137.856 102.752 137.856C94.0678 137.856 87.0037 130.789 87.0037 122.105C87.0037 113.425 94.0674 106.358 102.752 106.358C111.435 106.358 118.499 113.425 118.499 122.105ZM123.843 122.105C123.843 133.738 114.382 143.199 102.752 143.199C91.1217 143.199 81.6599 133.738 81.6599 122.105C81.6599 110.475 91.1214 101.014 102.752 101.014C114.382 101.014 123.843 110.475 123.843 122.105ZM229.316 175.402V173.512H207.924V179.493H225.224C227.481 179.493 229.316 177.656 229.316 175.402ZM202.58 212.969H78.0419V186.978H81.1499V207.187C81.1499 207.896 81.4314 208.576 81.9325 209.077C82.4336 209.578 83.1132 209.859 83.8218 209.859H196.799C197.508 209.859 198.188 209.578 198.689 209.077C199.19 208.576 199.471 207.896 199.471 207.187V128.811C199.471 127.338 198.275 126.139 196.799 126.139H141.175V123.033H199.314C201.115 123.033 202.58 124.499 202.58 126.299L202.58 212.969ZM121.692 220.086H158.93V218.312H121.692V220.086ZM207.367 218.312V222.821C207.367 226.057 204.735 228.689 201.501 228.689H79.1216C75.8867 228.689 73.2555 226.057 73.2555 222.821V218.312H116.348V222.758C116.348 223.466 116.629 224.146 117.13 224.647C117.632 225.148 118.311 225.429 119.02 225.429H161.601C161.952 225.429 162.3 225.36 162.624 225.226C162.948 225.092 163.242 224.895 163.49 224.647C163.738 224.399 163.935 224.104 164.069 223.78C164.204 223.456 164.273 223.108 164.273 222.758V218.312H207.367ZM73.8804 181.634H131.623C133.943 181.634 135.831 179.978 135.831 177.94V165.436H69.6722V177.94C69.6722 179.977 71.5602 181.634 73.8804 181.634ZM69.6722 74.0012V78.7765H135.831V74.0012C135.831 71.9632 133.943 70.311 131.623 70.311H73.8804C71.5602 70.311 69.6722 71.9632 69.6722 74.0012ZM131.623 186.978H126.759C130.251 189.135 134.303 190.321 138.499 190.321C150.807 190.321 160.82 180.308 160.82 168.001C160.82 156.599 152.224 147.174 141.175 145.848V158.706L144.417 155.433C145.832 154.007 147.714 153.222 149.718 153.219C151.724 153.219 153.607 153.987 155.028 155.4C156.448 156.813 157.234 158.693 157.239 160.697C157.245 161.682 157.055 162.659 156.68 163.571C156.306 164.482 155.754 165.311 155.057 166.008L140.818 180.379C139.69 184.179 135.996 186.978 131.623 186.978ZM141.175 172.426L151.264 162.243C151.465 162.043 151.625 161.804 151.733 161.542C151.841 161.279 151.897 160.998 151.895 160.714C151.896 160.43 151.84 160.15 151.73 159.888C151.621 159.627 151.461 159.389 151.259 159.191C151.06 158.99 150.823 158.832 150.561 158.724C150.3 158.616 150.02 158.561 149.738 158.563H149.732C149.449 158.562 149.168 158.618 148.907 158.727C148.645 158.836 148.408 158.996 148.209 159.198L141.175 166.298V172.426H141.175ZM69.6722 160.092V84.1206H135.831V160.092H69.6722ZM86.4937 204.515H194.127V131.483H141.175V140.467C155.178 141.816 166.164 153.649 166.164 168.001C166.164 183.254 153.753 195.665 138.499 195.665C134.73 195.665 131 194.895 127.539 193.401C124.077 191.907 120.958 189.722 118.373 186.978H86.494L86.4937 204.515ZM141.175 89.8855V117.69H199.314C204.061 117.69 207.924 121.551 207.924 126.3V168.168H229.316V93.9765C229.316 91.7217 227.481 89.8852 225.224 89.8852L141.175 89.8855ZM234.66 93.9765V175.402C234.66 180.602 230.428 184.837 225.224 184.837H207.924V212.969H210.039C211.514 212.969 212.711 214.164 212.711 215.641V222.821C212.711 229.003 207.682 234.033 201.501 234.033H79.1216C72.9402 234.033 67.9114 229.003 67.9114 222.821V215.641C67.9114 214.932 68.1929 214.252 68.694 213.751C69.1951 213.25 69.8747 212.969 70.5833 212.969H72.6978V186.905C67.9869 186.35 64.3281 182.546 64.3281 177.94V74.0012C64.3281 69.0181 68.6131 64.9669 73.8801 64.9669H131.623C136.889 64.9669 141.175 69.0178 141.175 74.0012V84.5414H225.224C230.428 84.5414 234.66 88.776 234.66 93.9765ZM98.1487 173.535C98.1487 173.906 98.462 174.216 98.8324 174.216H106.671C107.041 174.216 107.354 173.906 107.354 173.535C107.354 173.164 107.041 172.85 106.671 172.85H98.8324C98.462 172.85 98.1487 173.164 98.1487 173.535ZM92.805 173.535C92.805 176.858 95.5089 179.56 98.8324 179.56H106.671C109.994 179.56 112.698 176.858 112.698 173.535C112.698 170.211 109.994 167.506 106.671 167.506H98.8324C95.5089 167.506 92.805 170.211 92.805 173.535ZM95.0617 74.5416C95.0617 74.1908 95.1309 73.8434 95.2652 73.5193C95.3995 73.1951 95.5963 72.9007 95.8444 72.6526C96.0925 72.4046 96.3871 72.2078 96.7112 72.0736C97.0353 71.9394 97.3827 71.8703 97.7336 71.8704H107.77C109.245 71.8704 110.441 73.0657 110.441 74.5416C110.441 74.8925 110.372 75.2399 110.238 75.5641C110.104 75.8883 109.907 76.1829 109.659 76.4311C109.411 76.6792 109.116 76.8761 108.792 77.0105C108.468 77.1448 108.121 77.214 107.77 77.2141H97.7336C96.258 77.2141 95.0617 76.0171 95.0617 74.5416Z" stroke="#05255C" stroke-width="6" mask="url(#path-27-inside-1_1156_839)"/>
</g>
<defs>
<clipPath id="clip0_1156_839">
<rect width="171" height="171" fill="white" transform="translate(64 64)"/>
</clipPath>
</defs>
</svg>
