<svg width="299" height="299" viewBox="0 0 299 299" fill="none" xmlns="http://www.w3.org/2000/svg">
<circle cx="149.5" cy="149.5" r="149.5" fill="white"/>
<path d="M211.382 72.2267H183.676V226.957H211.382C220.07 226.957 227.111 219.916 227.111 211.195V87.9885C227.111 79.2678 220.07 72.2267 211.382 72.2267Z" fill="black"/>
<path d="M211.383 228.572H183.677C183.249 228.572 182.838 228.402 182.536 228.099C182.233 227.796 182.062 227.386 182.062 226.957V72.2266C182.062 71.7983 182.233 71.3876 182.536 71.0847C182.838 70.7818 183.249 70.6117 183.677 70.6117H211.383C220.944 70.6117 228.728 78.4054 228.728 87.9884V211.195C228.728 220.778 220.944 228.572 211.383 228.572ZM185.292 225.342H211.383C215.13 225.334 218.72 223.84 221.366 221.187C224.012 218.535 225.498 214.942 225.498 211.195V87.9884C225.498 84.2421 224.012 80.6486 221.366 77.9965C218.72 75.3444 215.13 73.8501 211.383 73.8416H185.292V225.342Z" fill="#BCD5FF"/>
<path d="M217.427 87.9885V211.195C217.427 219.916 210.385 226.957 201.697 226.957H87.8438C79.1232 226.957 72.082 219.916 72.082 211.195V87.9885C72.082 79.2678 79.1232 72.2267 87.8438 72.2267H201.697C210.385 72.2267 217.427 79.2678 217.427 87.9885Z" fill="white"/>
<path d="M201.691 228.572H87.8377C83.2307 228.567 78.8138 226.735 75.5561 223.477C72.2985 220.219 70.4661 215.802 70.4609 211.195V87.9884C70.4661 83.3814 72.2985 78.9646 75.5561 75.7069C78.8138 72.4492 83.2307 70.6168 87.8377 70.6117H201.691C211.251 70.6117 219.035 78.4054 219.035 87.9884V211.195C219.035 220.778 211.251 228.572 201.691 228.572ZM87.8377 73.8416C84.087 73.8458 80.4912 75.3377 77.8391 77.9898C75.1869 80.6419 73.6951 84.2378 73.6908 87.9884V211.195C73.6951 214.946 75.1869 218.542 77.8391 221.194C80.4912 223.846 84.087 225.338 87.8377 225.342H201.691C205.437 225.334 209.027 223.84 211.673 221.187C214.319 218.535 215.806 214.942 215.806 211.195V87.9884C215.806 84.2421 214.319 80.6486 211.673 77.9965C209.027 75.3444 205.437 73.8501 201.691 73.8416H87.8377Z" fill="#BCD5FF"/>
<path d="M149.582 116.964V166.026C149.582 169.32 146.901 171.969 143.639 171.969H90.9274C87.6652 171.969 84.9844 169.32 84.9844 166.026V116.964C84.9844 113.669 87.6652 110.988 90.9274 110.988H143.639C146.901 110.988 149.582 113.669 149.582 116.964Z" fill="#BCD5FF"/>
<path d="M143.645 173.58H90.9329C86.7664 173.58 83.375 170.189 83.375 166.022V116.96C83.375 112.778 86.7664 109.37 90.9329 109.37H143.645C147.811 109.37 151.202 112.778 151.202 116.96V166.022C151.202 170.189 147.811 173.58 143.645 173.58ZM90.9329 112.6C88.5428 112.6 86.6049 114.557 86.6049 116.96V166.022C86.6049 168.412 88.5428 170.35 90.9329 170.35H143.645C146.035 170.35 147.973 168.412 147.973 166.022V116.96C147.973 114.557 146.035 112.6 143.645 112.6H90.9329Z" fill="black"/>
<path d="M217.42 100.746H72.0759C71.6476 100.746 71.2368 100.576 70.9339 100.273C70.6311 99.9706 70.4609 99.5598 70.4609 99.1315V87.9884C70.4661 83.3814 72.2985 78.9646 75.5561 75.7069C78.8138 72.4492 83.2307 70.6168 87.8377 70.6117H201.691C211.251 70.6117 219.035 78.4054 219.035 87.9884V99.1315C219.035 99.5598 218.865 99.9706 218.562 100.273C218.26 100.576 217.849 100.746 217.42 100.746ZM73.6908 97.5166H215.806V87.9884C215.806 84.2421 214.319 80.6486 211.673 77.9965C209.027 75.3444 205.437 73.8501 201.691 73.8416H87.8377C84.087 73.8458 80.4912 75.3377 77.8391 77.9898C75.1869 80.6419 73.6951 84.2378 73.6908 87.9884V97.5166Z" fill="black"/>
<path d="M88.4724 89.4483C90.5541 89.4483 92.2417 87.7608 92.2417 85.6791C92.2417 83.5973 90.5541 81.9098 88.4724 81.9098C86.3907 81.9098 84.7031 83.5973 84.7031 85.6791C84.7031 87.7608 86.3907 89.4483 88.4724 89.4483Z" fill="#05255C"/>
<path d="M101.527 89.4483C103.609 89.4483 105.296 87.7608 105.296 85.6791C105.296 83.5973 103.609 81.9098 101.527 81.9098C99.4454 81.9098 97.7578 83.5973 97.7578 85.6791C97.7578 87.7608 99.4454 89.4483 101.527 89.4483Z" fill="#05255C"/>
<path d="M114.582 89.4483C116.663 89.4483 118.351 87.7608 118.351 85.6791C118.351 83.5973 116.663 81.9098 114.582 81.9098C112.5 81.9098 110.812 83.5973 110.812 85.6791C110.812 87.7608 112.5 89.4483 114.582 89.4483Z" fill="#05255C"/>
<path d="M153.549 87.2973H145.603C145.175 87.2973 144.764 87.1271 144.461 86.8243C144.158 86.5214 143.988 86.1106 143.988 85.6823C143.988 85.254 144.158 84.8432 144.461 84.5404C144.764 84.2375 145.175 84.0674 145.603 84.0674H153.549C153.977 84.0674 154.388 84.2375 154.691 84.5404C154.994 84.8432 155.164 85.254 155.164 85.6823C155.164 86.1106 154.994 86.5214 154.691 86.8243C154.388 87.1271 153.977 87.2973 153.549 87.2973ZM204.788 87.2973H162.563C162.135 87.2973 161.724 87.1271 161.421 86.8243C161.119 86.5214 160.948 86.1106 160.948 85.6823C160.948 85.254 161.119 84.8432 161.421 84.5404C161.724 84.2375 162.135 84.0674 162.563 84.0674H204.788C205.216 84.0674 205.627 84.2375 205.929 84.5404C206.232 84.8432 206.402 85.254 206.402 85.6823C206.402 86.1106 206.232 86.5214 205.929 86.8243C205.627 87.1271 205.216 87.2973 204.788 87.2973ZM204.503 112.616H162.515C162.087 112.616 161.676 112.446 161.373 112.143C161.07 111.84 160.9 111.43 160.9 111.001C160.9 110.573 161.07 110.162 161.373 109.859C161.676 109.557 162.087 109.386 162.515 109.386H204.503C204.932 109.386 205.342 109.557 205.645 109.859C205.948 110.162 206.118 110.573 206.118 111.001C206.118 111.43 205.948 111.84 205.645 112.143C205.342 112.446 204.932 112.616 204.503 112.616ZM204.503 127.858H162.515C162.087 127.858 161.676 127.688 161.373 127.385C161.07 127.082 160.9 126.671 160.9 126.243C160.9 125.815 161.07 125.404 161.373 125.101C161.676 124.798 162.087 124.628 162.515 124.628H204.503C204.932 124.628 205.342 124.798 205.645 125.101C205.948 125.404 206.118 125.815 206.118 126.243C206.118 126.671 205.948 127.082 205.645 127.385C205.342 127.688 204.932 127.858 204.503 127.858ZM204.503 143.1H162.515C162.087 143.1 161.676 142.93 161.373 142.627C161.07 142.324 160.9 141.913 160.9 141.485C160.9 141.057 161.07 140.646 161.373 140.343C161.676 140.04 162.087 139.87 162.515 139.87H204.503C204.932 139.87 205.342 140.04 205.645 140.343C205.948 140.646 206.118 141.057 206.118 141.485C206.118 141.913 205.948 142.324 205.645 142.627C205.342 142.93 204.932 143.1 204.503 143.1ZM204.503 158.342H162.515C162.087 158.342 161.676 158.172 161.373 157.869C161.07 157.566 160.9 157.155 160.9 156.727C160.9 156.298 161.07 155.888 161.373 155.585C161.676 155.282 162.087 155.112 162.515 155.112H204.503C204.932 155.112 205.342 155.282 205.645 155.585C205.948 155.888 206.118 156.298 206.118 156.727C206.118 157.155 205.948 157.566 205.645 157.869C205.342 158.172 204.932 158.342 204.503 158.342ZM204.503 173.58H162.515C162.087 173.58 161.676 173.41 161.373 173.107C161.07 172.804 160.9 172.394 160.9 171.965C160.9 171.537 161.07 171.126 161.373 170.823C161.676 170.521 162.087 170.35 162.515 170.35H204.503C204.932 170.35 205.342 170.521 205.645 170.823C205.948 171.126 206.118 171.537 206.118 171.965C206.118 172.394 205.948 172.804 205.645 173.107C205.342 173.41 204.932 173.58 204.503 173.58Z" fill="black"/>
<path d="M104.192 214.038C112.339 214.038 118.943 207.433 118.943 199.287C118.943 191.14 112.339 184.536 104.192 184.536C96.0456 184.536 89.4414 191.14 89.4414 199.287C89.4414 207.433 96.0456 214.038 104.192 214.038Z" fill="#DDDDDD"/>
<path d="M104.198 215.653C95.1735 215.653 87.832 208.311 87.832 199.287C87.832 190.263 95.1735 182.921 104.198 182.921C113.222 182.921 120.567 190.263 120.567 199.287C120.567 208.311 113.222 215.653 104.198 215.653ZM104.198 186.151C96.9532 186.151 91.0619 192.042 91.0619 199.287C91.0619 206.532 96.9532 212.423 104.198 212.423C111.442 212.423 117.337 206.532 117.337 199.287C117.337 192.042 111.446 186.151 104.198 186.151Z" fill="#BCD5FF"/>
<path d="M144.751 214.038C152.898 214.038 159.502 207.433 159.502 199.287C159.502 191.14 152.898 184.536 144.751 184.536C136.604 184.536 130 191.14 130 199.287C130 207.433 136.604 214.038 144.751 214.038Z" fill="#BCD5FF"/>
<path d="M144.745 215.653C135.72 215.653 128.379 208.311 128.379 199.287C128.379 190.263 135.72 182.921 144.745 182.921C153.769 182.921 161.11 190.263 161.11 199.287C161.11 208.311 153.769 215.653 144.745 215.653ZM144.745 186.151C137.5 186.151 131.609 192.042 131.609 199.287C131.609 206.532 137.5 212.423 144.745 212.423C151.989 212.423 157.881 206.532 157.881 199.287C157.881 192.042 151.989 186.151 144.745 186.151Z" fill="#BCD5FF"/>
<path d="M185.302 214.038C193.448 214.038 200.053 207.433 200.053 199.287C200.053 191.14 193.448 184.536 185.302 184.536C177.155 184.536 170.551 191.14 170.551 199.287C170.551 207.433 177.155 214.038 185.302 214.038Z" fill="#DDDDDD"/>
<path d="M185.299 215.653C176.275 215.653 168.934 208.311 168.934 199.287C168.934 190.263 176.275 182.921 185.299 182.921C194.324 182.921 201.665 190.263 201.665 199.287C201.665 208.311 194.324 215.653 185.299 215.653ZM185.299 186.151C178.058 186.151 172.163 192.042 172.163 199.287C172.163 206.532 178.058 212.423 185.299 212.423C192.544 212.423 198.435 206.532 198.435 199.287C198.435 192.042 192.544 186.151 185.299 186.151Z" fill="#BCD5FF"/>
<path d="M138.741 158.232H95.829C92.8155 158.232 91.1683 154.711 93.0933 152.395L107.363 135.419C107.713 135 108.156 134.668 108.655 134.448C109.155 134.228 109.699 134.126 110.244 134.15C110.79 134.174 111.322 134.323 111.8 134.587C112.279 134.85 112.69 135.22 113.002 135.668L119.204 144.466C120.486 146.307 123.138 146.501 124.675 144.854L128.305 141.059C128.668 140.676 129.111 140.379 129.603 140.188C130.094 139.997 130.621 139.918 131.147 139.955C131.673 139.992 132.184 140.145 132.644 140.403C133.103 140.66 133.5 141.017 133.806 141.446L141.651 152.618C142.03 153.151 142.255 153.777 142.301 154.429C142.347 155.081 142.212 155.732 141.912 156.313C141.612 156.893 141.157 157.379 140.598 157.718C140.039 158.056 139.398 158.234 138.744 158.232H138.741Z" fill="white"/>
<path d="M122.478 134.147C125.081 134.147 127.19 132.037 127.19 129.434C127.19 126.832 125.081 124.722 122.478 124.722C119.875 124.722 117.766 126.832 117.766 129.434C117.766 132.037 119.875 134.147 122.478 134.147Z" fill="white"/>
</svg>
