<svg width="299" height="299" viewBox="0 0 299 299" fill="none" xmlns="http://www.w3.org/2000/svg">
<circle cx="149.5" cy="149.5" r="149.5" fill="white"/>
<path fill-rule="evenodd" clip-rule="evenodd" d="M110.422 110.223H188.975V204.474H110.422V110.223Z" fill="#BED6FF"/>
<path fill-rule="evenodd" clip-rule="evenodd" d="M94.1875 142.253H157.478V204.507H94.1875V142.253Z" fill="#FFEFD5"/>
<path fill-rule="evenodd" clip-rule="evenodd" d="M88.8445 74.3536L103.673 100.037H94.1883V204.474H198.625V194.989L224.309 209.818L198.625 224.647V215.161H83.5008V100.037H74.0156L88.8445 74.3536Z" fill="#E6E6E6"/>
<path d="M90.6474 73.4518L105.41 99.035C106.178 100.371 105.209 102.041 103.673 102.041H96.1916V140.249H108.415V110.257C108.415 109.155 109.317 108.253 110.419 108.253H188.972C190.075 108.253 190.976 109.155 190.976 110.257V202.503H196.621V194.989C196.621 193.486 198.257 192.384 199.76 193.319L225.31 208.081C226.612 208.816 226.713 210.786 225.21 211.588L199.627 226.35C198.291 227.118 196.621 226.149 196.621 224.613V217.132H83.5002C82.398 217.132 81.4963 216.23 81.4963 215.128V102.041H74.015C72.5121 102.041 71.4099 100.404 72.3451 98.9014L87.1072 73.3516C87.9088 71.9488 89.9461 72.049 90.6474 73.4518ZM96.1916 144.256V202.503H155.474V144.256H96.1916ZM100.199 98.033L88.8439 78.3613L77.4885 98.033H83.5336C84.6357 98.033 85.5375 98.9348 85.5375 100.037V213.157H198.658C199.76 213.157 200.662 214.059 200.662 215.161V221.206L220.334 209.851L200.662 198.496V204.541C200.662 205.643 199.76 206.545 198.658 206.545H94.1877C93.0855 206.545 92.1838 205.643 92.1838 204.541V100.037C92.1838 98.9348 93.0855 98.033 94.1877 98.033H100.199ZM156.643 140.249L165.761 131.131H164.558C163.456 131.131 162.554 130.229 162.554 129.127C162.554 128.025 163.456 127.123 164.558 127.123H170.57C171.672 127.123 172.574 128.025 172.574 129.127L172.607 134.805C172.607 135.907 171.705 136.809 170.603 136.809C169.501 136.809 168.599 135.907 168.599 134.805V133.936L159.482 143.054V202.47H187.002V112.227H112.423V140.215H156.643V140.249ZM136.971 166.7C136.103 166.032 135.936 164.763 136.604 163.895C137.272 163.026 138.541 162.859 139.409 163.527L150.197 171.777C151.266 172.578 151.232 174.181 150.163 174.983L139.409 183.232C138.541 183.9 137.272 183.733 136.604 182.865C135.936 181.997 136.103 180.728 136.971 180.06L145.688 173.38L136.971 166.7ZM122.109 183.8C121.574 184.769 120.339 185.103 119.403 184.535C118.435 184.001 118.101 182.765 118.669 181.796L129.557 162.926C130.091 161.958 131.327 161.624 132.295 162.191C133.264 162.726 133.598 163.962 133.03 164.93L122.109 183.8ZM112.223 163.527C113.091 162.859 114.36 163.026 115.028 163.895C115.696 164.763 115.529 166.032 114.661 166.7L105.944 173.38L114.661 180.06C115.529 180.728 115.696 181.997 115.028 182.865C114.36 183.733 113.091 183.9 112.223 183.232L101.469 174.983C100.433 174.181 100.366 172.612 101.435 171.777L112.223 163.527Z" fill="#05255C"/>
</svg>
