<svg width="299" height="299" viewBox="0 0 299 299" fill="none" xmlns="http://www.w3.org/2000/svg">
<circle cx="149.5" cy="149.5" r="149.5" fill="white"/>
<path d="M92.6529 116.523C86.6488 116.523 81.1141 116.764 76.6951 113.349C70.5024 108.563 66.5039 101.068 66.5039 92.6539C66.5042 78.2354 78.2344 66.5049 92.6529 66.5049C107.071 66.5049 118.802 78.2354 118.802 92.6539C118.802 101.068 114.803 108.563 108.611 113.349C104.192 116.764 98.6573 116.523 92.6529 116.523Z" fill="#BDC6ED"/>
<path d="M99.429 103.838C97.4628 110.149 86.7543 109.582 85.8789 103.838L86.3031 103.719C86.6987 103.61 87.0475 103.374 87.296 103.048C87.5446 102.721 87.679 102.322 87.6787 101.912V94.8004H97.6295V101.912C97.6292 102.322 97.7637 102.721 98.0122 103.048C98.2607 103.374 98.6096 103.61 99.0052 103.719L99.429 103.838Z" fill="#E2DEE2"/>
<path d="M108.611 111.53V113.349C104.194 116.769 98.6565 118.802 92.6531 118.802C86.6497 118.802 81.1129 116.769 76.6953 113.349V111.53C76.6953 110.624 76.875 109.738 77.2187 108.92C77.5629 108.092 78.0682 107.342 78.7052 106.711C79.5285 105.898 80.547 105.31 81.663 105.003L85.8779 103.838C88.9235 108.958 96.3827 108.958 99.428 103.838L103.643 105.003C104.759 105.31 105.777 105.898 106.601 106.711C107.238 107.341 107.744 108.092 108.089 108.919C108.434 109.746 108.611 110.634 108.611 111.53ZM88.5194 98.1418L89.6756 98.7981C90.5834 99.3134 91.6094 99.5844 92.6533 99.5844C93.6971 99.5844 94.7231 99.3134 95.6309 98.7981L96.7871 98.1418C98.3455 97.2572 99.6416 95.9752 100.543 94.4266C101.445 92.8779 101.92 91.118 101.92 89.326V86.751C101.92 84.9679 101.405 83.2228 100.436 81.7257C99.4678 80.2285 98.0874 79.043 96.4612 78.3118C95.2639 77.7736 93.966 77.4952 92.6533 77.4952C91.3405 77.4952 90.0427 77.7736 88.8453 78.3118C87.2191 79.043 85.8387 80.2285 84.8703 81.7256C83.9019 83.2228 83.3867 84.9679 83.3867 86.751V89.326C83.3867 91.118 83.8617 92.8779 84.7633 94.4265C85.665 95.9752 86.961 97.2571 88.5194 98.1418Z" fill="#F2F0F3"/>
<path d="M190.702 149.501C190.702 156.179 189.113 162.486 186.292 168.065C183.957 169.336 183.739 170.34 183.971 172.076C177.007 182.687 165.274 189.889 151.82 190.635C151.053 190.677 150.28 189.753 149.503 189.753C148.725 189.753 147.952 190.678 147.185 190.635C133.731 189.889 121.999 182.687 115.035 172.075C114.612 171.431 115.326 169.784 114.94 169.115C114.553 168.447 113.064 168.756 112.715 168.064C109.894 162.486 108.305 156.179 108.305 149.501C108.305 142.822 109.894 136.515 112.715 130.936C114.724 129.855 114.942 129.026 115.035 126.925C122 116.314 133.732 109.112 147.186 108.366C147.953 108.324 148.725 109.743 149.503 109.743C150.281 109.743 151.054 108.324 151.821 108.366C165.275 109.112 177.007 116.313 183.972 126.924C183.827 129.026 184.046 130.553 186.292 130.936C189.113 136.514 190.702 142.822 190.702 149.501Z" fill="#FFE177"/>
<path d="M175.418 149.501C175.418 165.204 165.202 176.505 149.499 176.505C140.666 176.505 132.774 173.906 127.559 167.587C123.503 162.672 121.066 156.371 121.066 149.501C121.066 133.798 133.796 121.068 149.499 121.068C154.986 121.068 160.11 122.622 164.454 125.314C171.113 132.763 175.418 139.284 175.418 149.501Z" fill="#FFD15B"/>
<path d="M177.933 149.502C177.933 165.203 165.205 177.934 149.5 177.934C139.658 177.934 130.981 172.931 125.879 165.33C130.221 168.024 135.344 169.578 140.832 169.578C156.536 169.578 169.265 156.85 169.265 141.146C169.265 135.287 167.491 129.842 164.453 125.318C172.547 130.327 177.933 139.285 177.933 149.502Z" fill="#FFC344"/>
<path d="M206.344 232.495C220.785 232.495 232.492 220.788 232.492 206.347C232.492 191.906 220.785 180.199 206.344 180.199C191.902 180.199 180.195 191.906 180.195 206.347C180.195 220.788 191.902 232.495 206.344 232.495Z" fill="#FFE2F2"/>
<path d="M92.6522 232.495C107.094 232.495 118.801 220.788 118.801 206.347C118.801 191.906 107.094 180.199 92.6522 180.199C78.2109 180.199 66.5039 191.906 66.5039 206.347C66.5039 220.788 78.2109 232.495 92.6522 232.495Z" fill="#E2DEE2"/>
<path d="M206.344 118.801C220.785 118.801 232.492 107.095 232.492 92.6532C232.492 78.2119 220.785 66.5049 206.344 66.5049C191.902 66.5049 180.195 78.2119 180.195 92.6532C180.195 107.095 191.902 118.801 206.344 118.801Z" fill="#F0FFD4"/>
<path d="M201.556 219.616C199.2 218.109 197.261 216.033 195.918 213.579C194.575 211.125 193.871 208.373 193.871 205.576V195.537C193.871 195.305 193.951 195.081 194.098 194.902C194.245 194.722 194.45 194.6 194.677 194.554L194.933 194.504C198.72 193.75 202.352 192.359 205.672 190.388L205.834 190.292C205.989 190.2 206.165 190.152 206.345 190.152C206.525 190.152 206.701 190.2 206.856 190.292L207.018 190.388C210.339 192.359 213.97 193.75 217.758 194.504L218.013 194.554C218.24 194.6 218.445 194.722 218.592 194.902C218.739 195.081 218.819 195.305 218.819 195.537V205.608C218.819 208.398 218.119 211.144 216.782 213.593C215.446 216.042 213.515 218.117 211.169 219.626L206.924 222.357C206.762 222.461 206.574 222.516 206.383 222.517C206.191 222.517 206.003 222.462 205.841 222.359L201.556 219.616Z" fill="#F2F0F3"/>
<path d="M218.913 103.417H193.785C193.51 103.417 193.237 103.363 192.982 103.258C192.728 103.152 192.497 102.998 192.302 102.803C192.107 102.608 191.952 102.377 191.847 102.122C191.742 101.868 191.687 101.595 191.688 101.319V97.5588L193.084 95.0539L191.688 92.5491V83.987C191.687 83.7115 191.742 83.4387 191.847 83.1842C191.952 82.9297 192.107 82.6984 192.302 82.5036C192.497 82.3088 192.728 82.1543 192.982 82.0489C193.237 81.9435 193.51 81.8892 193.785 81.8893H218.913C219.189 81.8892 219.462 81.9435 219.716 82.0489C219.971 82.1543 220.202 82.3088 220.397 82.5036C220.591 82.6984 220.746 82.9297 220.851 83.1842C220.957 83.4387 221.011 83.7115 221.011 83.987V92.5491L219.488 95.0539L221.011 97.5588V101.32C221.011 101.876 220.79 102.41 220.396 102.803C220.003 103.196 219.47 103.417 218.913 103.417Z" fill="#A79BA7"/>
<path d="M80.0119 203.386H105.293V215.395H80.0119V203.386ZM77.3594 202.054L83.9586 192.942C84.1444 192.686 84.3883 192.477 84.6704 192.333C84.9525 192.189 85.2647 192.114 85.5814 192.114H99.7226C100.365 192.114 100.969 192.422 101.345 192.942L107.945 202.054H77.3594Z" fill="#CBC4CC"/>
<path d="M154.132 139.431C153.812 139.092 151.366 136.683 147.554 137.831C143.794 138.964 142.63 143.487 145.276 146.536C146.648 148.116 148.951 148.633 151.927 149.684C158.587 152.039 156.125 161.431 149.351 161.476C146.707 161.493 145.471 161.325 143.148 159.806M149.499 161.879V165.769M149.499 133.234V137.124" stroke="#05255C" stroke-width="5.00977" stroke-miterlimit="10" stroke-linecap="round" stroke-linejoin="round"/>
<path d="M149.499 177.933C165.202 177.933 177.932 165.203 177.932 149.5C177.932 133.797 165.202 121.067 149.499 121.067C133.796 121.067 121.066 133.797 121.066 149.5C121.066 165.203 133.796 177.933 149.499 177.933Z" stroke="#05255C" stroke-width="3.01" stroke-miterlimit="10" stroke-linecap="round" stroke-linejoin="round"/>
<path d="M177.211 179.989C185.5 172.451 190.7 161.584 190.7 149.5C190.7 126.746 172.254 108.3 149.5 108.3C126.746 108.3 108.3 126.746 108.3 149.5C108.3 172.254 126.746 190.7 149.5 190.7C155.969 190.7 162.088 189.211 167.535 186.552M149.5 120.129V109.011M124.064 134.814L114.436 129.256M124.064 164.186L114.436 169.744M149.5 178.871V189.989M174.936 164.186L184.564 169.744M174.936 134.814L184.564 129.256M84.0169 167.88C80.288 154.626 80.7686 141.122 84.6943 128.843" stroke="#05255C" stroke-width="3.01" stroke-miterlimit="10" stroke-linecap="round" stroke-linejoin="round"/>
<path d="M89.4216 160.44L84.4539 170.156L75.2383 164.944M167.881 214.983C154.627 218.712 141.122 218.231 128.843 214.306" stroke="#05255C" stroke-width="5.00977" stroke-miterlimit="10" stroke-linecap="round" stroke-linejoin="round"/>
<path d="M160.441 209.579L170.158 214.547L164.946 223.762M214.984 131.12C218.713 144.374 218.233 157.878 214.307 170.157" stroke="#05255C" stroke-width="5.00977" stroke-miterlimit="10" stroke-linecap="round" stroke-linejoin="round"/>
<path d="M209.577 138.56L214.544 128.844L223.76 134.056M131.117 84.0171C144.371 80.2881 157.876 80.7687 170.155 84.6944" stroke="#05255C" stroke-width="5.00977" stroke-miterlimit="10" stroke-linecap="round" stroke-linejoin="round"/>
<path d="M138.559 89.4209L128.843 84.4532L134.055 75.2376M118.532 96.3831C116.725 109.058 105.827 118.8 92.6515 118.8C78.2101 118.8 66.5039 107.094 66.5039 92.6525C66.5039 78.211 78.2101 66.5049 92.6515 66.5049C104.318 66.5049 114.197 74.1431 117.563 84.6937M230.944 215.235C227.307 225.301 217.669 232.495 206.347 232.495C191.905 232.495 180.199 220.789 180.199 206.347C180.199 191.906 191.905 180.2 206.347 180.2C219.843 180.2 230.948 190.423 232.344 203.545M98.4028 231.861C110.079 229.239 118.799 218.812 118.799 206.347C118.799 191.906 107.093 180.2 92.6515 180.2C78.2101 180.2 66.5039 191.906 66.5039 206.347C66.5039 218.745 75.1341 229.129 86.7133 231.82" stroke="#05255C" stroke-width="3.01" stroke-miterlimit="10" stroke-linecap="round" stroke-linejoin="round"/>
<path d="M206.344 118.801C220.785 118.801 232.492 107.095 232.492 92.6532C232.492 78.2119 220.785 66.5049 206.344 66.5049C191.902 66.5049 180.195 78.2119 180.195 92.6532C180.195 107.095 191.902 118.801 206.344 118.801Z" stroke="#05255C" stroke-width="3.01" stroke-miterlimit="10" stroke-linecap="round" stroke-linejoin="round"/>
<path d="M87.7818 96.2335V101.4C87.7818 101.802 87.65 102.192 87.4067 102.512C87.1633 102.832 86.8218 103.063 86.4345 103.17L81.8973 104.424C80.8054 104.725 79.8091 105.302 79.0037 106.098C78.38 106.715 77.8849 107.449 77.547 108.258C77.2091 109.067 77.0351 109.935 77.0352 110.812V112.471M97.5178 96.2335V101.4C97.5177 101.802 97.6495 102.192 97.8928 102.512C98.1362 102.832 98.4777 103.063 98.865 103.17L103.402 104.424C104.494 104.725 105.49 105.302 106.296 106.098C106.919 106.715 107.415 107.449 107.753 108.258C108.09 109.067 108.264 109.935 108.264 110.812V112.471M98.351 103.617C95.924 108.187 89.3759 108.187 86.9488 103.617M193.12 95.0536H219.128M88.4364 215.395V203.386M107.763 216.305H77.5368M96.8631 203.386V215.395M80.0093 215.395V203.386M105.29 203.386V215.395M79.2899 202.054L85.5791 193.371H99.7204L106.01 202.054M77.5368 202.054H107.763M206.343 191.376V220.369M201.554 219.616C196.742 216.538 193.869 211.289 193.869 205.576V194.715L194.93 194.504C198.718 193.75 202.349 192.359 205.67 190.388L206.343 189.989L207.016 190.388C210.337 192.359 213.968 193.75 217.755 194.504L218.817 194.715V205.608C218.817 211.305 215.957 216.545 211.167 219.626L206.381 222.705L201.554 219.616ZM88.6047 96.5902L89.7362 97.2325C90.6245 97.7366 91.6284 98.0017 92.6498 98.0017C93.6711 98.0017 94.675 97.7366 95.5633 97.2325L96.6948 96.5902C98.2196 95.7246 99.4877 94.4703 100.37 92.955C101.252 91.4398 101.717 89.7178 101.717 87.9644V85.4448C101.717 81.8812 99.6262 78.6489 96.3759 77.1877C95.2043 76.661 93.9344 76.3887 92.6499 76.3887C91.3654 76.3887 90.0955 76.661 88.924 77.1877C87.3328 77.9031 85.9822 79.063 85.0346 80.5279C84.0871 81.9927 83.5829 83.7002 83.5829 85.4448V87.9644C83.5829 89.7177 84.0477 91.4397 84.9298 92.9549C85.812 94.4702 87.08 95.7245 88.6047 96.5902ZM218.907 103.417H193.779C193.504 103.417 193.231 103.363 192.976 103.258C192.722 103.152 192.49 102.998 192.296 102.803C192.101 102.608 191.946 102.377 191.841 102.122C191.736 101.868 191.681 101.595 191.681 101.319V83.987C191.681 83.7115 191.736 83.4387 191.841 83.1842C191.946 82.9296 192.101 82.6983 192.296 82.5035C192.49 82.3087 192.722 82.1542 192.976 82.0488C193.231 81.9434 193.504 81.8892 193.779 81.8892H218.907C219.183 81.8892 219.455 81.9434 219.71 82.0488C219.964 82.1542 220.196 82.3087 220.39 82.5035C220.585 82.6983 220.74 82.9296 220.845 83.1842C220.951 83.4387 221.005 83.7115 221.005 83.987V101.32C221.005 101.876 220.784 102.409 220.39 102.803C219.997 103.196 219.463 103.417 218.907 103.417Z" stroke="#05255C" stroke-width="3.01" stroke-miterlimit="10" stroke-linecap="round" stroke-linejoin="round"/>
</svg>
