<svg width="299" height="299" viewBox="0 0 299 299" fill="none" xmlns="http://www.w3.org/2000/svg">
<circle cx="149.5" cy="149.5" r="149.5" fill="white"/>
<path d="M186.095 141.636H180.122C179.375 138.88 178.289 136.231 176.852 133.76L181.082 129.547C181.616 128.996 181.918 128.285 181.918 127.521C181.918 126.758 181.616 126.047 181.082 125.496L173.276 117.69C172.19 116.604 170.397 116.588 169.238 117.69L165.025 121.92C162.518 120.479 159.868 119.377 157.129 118.666V112.693C157.129 111.109 155.847 109.831 154.283 109.831H143.26C141.676 109.831 140.398 111.112 140.398 112.693V118.666C137.642 119.397 135.009 120.479 132.522 121.92L128.289 117.69C127.203 116.604 125.41 116.588 124.251 117.69L116.429 125.529C115.363 126.648 115.363 128.391 116.445 129.547L120.695 133.76C119.238 136.231 118.152 138.88 117.405 141.636H111.448C109.864 141.636 108.586 142.918 108.586 144.498V155.522C108.586 157.085 109.868 158.367 111.448 158.367H117.405C118.135 161.106 119.238 163.756 120.695 166.263L116.429 170.513C115.343 171.615 115.343 173.375 116.445 174.53L124.251 182.317C124.802 182.851 125.513 183.153 126.28 183.153H126.316C127.08 183.137 127.791 182.835 128.289 182.317L132.522 178.086C134.976 179.527 137.625 180.61 140.398 181.357V187.33C140.398 188.894 141.679 190.176 143.26 190.176H154.283C155.884 190.176 157.129 188.931 157.129 187.33V181.357C159.892 180.616 162.547 179.517 165.025 178.086L169.238 182.317C169.789 182.851 170.5 183.153 171.263 183.153H171.3C172.064 183.137 172.774 182.835 173.272 182.317L181.078 174.53C181.613 173.979 181.915 173.269 181.915 172.505C181.915 171.741 181.613 171.031 181.078 170.48L176.848 166.25C178.289 163.759 179.392 161.11 180.119 158.374H186.092C187.656 158.374 188.938 157.092 188.938 155.528V144.505C188.941 142.914 187.663 141.636 186.095 141.636ZM185.385 154.808H178.734C177.897 154.808 177.187 155.376 176.991 156.196C176.261 159.503 174.946 162.65 173.116 165.566C172.671 166.276 172.761 167.183 173.349 167.787L178.077 172.498L171.267 179.292L166.555 174.58C166.268 174.292 165.89 174.112 165.486 174.07C165.081 174.028 164.675 174.126 164.334 174.348C161.467 176.174 158.301 177.48 154.981 178.206C154.583 178.294 154.228 178.514 153.972 178.831C153.717 179.148 153.577 179.542 153.576 179.949V186.616H143.957V179.949C143.956 179.542 143.816 179.148 143.561 178.831C143.306 178.514 142.95 178.294 142.553 178.206C139.209 177.476 136.065 176.181 133.219 174.348C132.525 173.903 131.602 173.993 130.998 174.58L126.27 179.292L119.477 172.498L124.205 167.787C124.792 167.183 124.899 166.276 124.437 165.566C122.588 162.65 121.273 159.503 120.562 156.212C120.475 155.815 120.254 155.459 119.937 155.204C119.621 154.948 119.226 154.809 118.819 154.808H112.152V145.189H118.819C119.226 145.188 119.621 145.048 119.937 144.793C120.254 144.537 120.475 144.182 120.562 143.784C121.293 140.461 122.588 137.33 124.437 134.451C124.659 134.11 124.757 133.704 124.715 133.299C124.673 132.895 124.492 132.517 124.205 132.23L119.457 127.518L126.267 120.708L130.995 125.436C131.599 126.024 132.525 126.11 133.216 125.669C136.115 123.819 139.242 122.504 142.549 121.81C142.947 121.723 143.303 121.503 143.558 121.186C143.813 120.869 143.953 120.474 143.954 120.067V113.384H153.573V120.067C153.574 120.474 153.714 120.869 153.969 121.186C154.224 121.503 154.58 121.723 154.977 121.81C158.268 122.504 161.415 123.803 164.331 125.669C165.041 126.114 165.968 126.024 166.552 125.42L171.247 120.708L178.073 127.518L173.345 132.23C173.058 132.517 172.877 132.895 172.835 133.299C172.793 133.704 172.891 134.11 173.113 134.451C174.946 137.33 176.261 140.477 176.988 143.804C177.184 144.604 177.894 145.192 178.731 145.192H185.381V154.808H185.385Z" fill="#012620"/>
<path d="M178.738 145.192C177.901 145.192 177.191 144.604 176.995 143.804C176.264 140.481 174.949 137.333 173.12 134.451C172.898 134.11 172.8 133.703 172.842 133.299C172.884 132.895 173.065 132.517 173.352 132.23L178.08 127.518L171.254 120.708L166.559 125.42C165.971 126.024 165.048 126.114 164.338 125.669C161.422 123.803 158.275 122.504 154.984 121.81C154.587 121.723 154.231 121.502 153.976 121.186C153.721 120.869 153.581 120.474 153.58 120.067V113.384H143.961V120.067C143.96 120.474 143.82 120.869 143.565 121.186C143.31 121.502 142.954 121.723 142.556 121.81C139.249 122.504 136.122 123.819 133.223 125.669C132.529 126.114 131.606 126.024 131.002 125.436L126.274 120.708L119.457 127.518L124.205 132.23C124.493 132.517 124.673 132.895 124.715 133.299C124.758 133.703 124.66 134.11 124.438 134.451C122.599 137.306 121.287 140.467 120.563 143.784C120.475 144.182 120.255 144.537 119.938 144.793C119.621 145.048 119.226 145.188 118.82 145.189H112.152V154.808H118.82C119.226 154.809 119.621 154.948 119.938 155.204C120.255 155.459 120.475 155.815 120.563 156.212C121.273 159.503 122.588 162.647 124.438 165.566C124.899 166.276 124.793 167.183 124.205 167.787L119.477 172.498L126.27 179.292L130.998 174.58C131.603 173.993 132.529 173.906 133.22 174.348C136.065 176.181 139.213 177.476 142.553 178.206C142.951 178.294 143.306 178.514 143.562 178.831C143.817 179.148 143.957 179.542 143.958 179.949V186.616H153.577V179.949C153.578 179.542 153.717 179.148 153.973 178.831C154.228 178.514 154.584 178.294 154.981 178.206C158.301 177.479 161.467 176.173 164.334 174.348C164.675 174.126 165.082 174.028 165.486 174.07C165.891 174.112 166.268 174.292 166.556 174.58L171.267 179.292L178.077 172.498L173.349 167.787C172.761 167.183 172.675 166.276 173.117 165.566C174.949 162.65 176.264 159.503 176.991 156.196C177.187 155.379 177.898 154.808 178.735 154.808H185.385V145.189H178.738V145.192ZM148.775 173.886C135.6 173.886 124.879 163.165 124.879 150.007C124.879 136.832 135.6 126.11 148.775 126.11C161.95 126.11 172.672 136.832 172.672 150.007C172.672 163.165 161.95 173.886 148.775 173.886Z" fill="#74C4FF"/>
<path d="M148.775 133.259C139.548 133.259 132.027 140.763 132.027 150.007C132.027 159.234 139.548 166.754 148.775 166.754C158.002 166.754 165.523 159.234 165.523 150.007C165.526 140.763 158.005 133.259 148.775 133.259ZM148.775 163.201C141.504 163.201 135.583 157.281 135.583 150.01C135.583 142.738 141.504 136.818 148.775 136.818C156.046 136.818 161.967 142.738 161.967 150.01C161.97 157.281 156.05 163.201 148.775 163.201Z" fill="#012620"/>
<path d="M148.775 126.114C135.6 126.114 124.879 136.835 124.879 150.01C124.879 163.168 135.6 173.89 148.775 173.89C161.95 173.89 172.671 163.168 172.671 150.01C172.671 136.835 161.95 126.114 148.775 126.114ZM148.775 170.33C137.556 170.33 128.435 161.209 128.435 150.007C128.435 138.787 137.556 129.666 148.775 129.666C159.995 129.666 169.115 138.787 169.115 150.007C169.119 161.209 159.995 170.33 148.775 170.33Z" fill="#012620"/>
<path d="M148.774 129.67C137.554 129.67 128.434 138.791 128.434 150.01C128.434 161.213 137.554 170.334 148.774 170.334C159.993 170.334 169.114 161.213 169.114 150.01C169.117 138.791 159.993 129.67 148.774 129.67ZM148.774 166.758C139.547 166.758 132.026 159.237 132.026 150.01C132.026 140.763 139.547 133.262 148.774 133.262C158.001 133.262 165.521 140.766 165.521 150.01C165.525 159.237 158.004 166.758 148.774 166.758Z" fill="#74C4FF"/>
<path d="M229.254 211.439C231.336 211.439 233.022 209.749 233.022 207.67V198.496C233.022 196.415 231.332 194.728 229.254 194.728H183.948C181.87 194.728 180.18 196.418 180.18 198.496V207.67C180.18 209.752 181.87 211.439 183.948 211.439H185.389V214.46H183.948C181.87 214.46 180.18 216.151 180.18 218.229V227.403C180.18 229.485 181.87 231.172 183.948 231.172H229.251C231.332 231.172 233.019 229.482 233.019 227.403V218.229C233.019 216.147 231.329 214.46 229.251 214.46H227.793V211.439H229.254ZM229.254 218.017C229.36 218.017 229.466 218.123 229.466 218.229V227.403C229.466 227.526 229.36 227.616 229.254 227.616H183.948C183.822 227.616 183.736 227.526 183.736 227.403V218.229C183.736 218.123 183.825 218.017 183.948 218.017H229.254ZM188.945 214.46V211.439H224.237V214.46H188.945ZM183.948 207.883C183.822 207.883 183.736 207.793 183.736 207.67V198.496C183.736 198.39 183.825 198.284 183.948 198.284H229.251C229.357 198.284 229.463 198.39 229.463 198.496V207.67C229.463 207.793 229.357 207.883 229.251 207.883H183.948Z" fill="#012620"/>
<path d="M188.945 211.439H224.237V214.461H188.945V211.439Z" fill="#E4ECF4"/>
<path d="M229.253 198.281H183.947C183.821 198.281 183.734 198.387 183.734 198.493V207.667C183.734 207.79 183.824 207.88 183.947 207.88H229.249C229.355 207.88 229.462 207.79 229.462 207.667V198.493C229.465 198.387 229.359 198.281 229.253 198.281ZM210.778 205.144C210.231 205.144 209.707 204.926 209.32 204.54C208.934 204.153 208.716 203.629 208.716 203.082C208.716 202.535 208.934 202.01 209.32 201.624C209.707 201.237 210.231 201.02 210.778 201.02C211.325 201.02 211.85 201.237 212.236 201.624C212.623 202.01 212.84 202.535 212.84 203.082C212.84 203.629 212.623 204.153 212.236 204.54C211.85 204.926 211.325 205.144 210.778 205.144ZM217.552 205.144C217.005 205.144 216.48 204.926 216.094 204.54C215.707 204.153 215.49 203.629 215.49 203.082C215.49 202.535 215.707 202.01 216.094 201.624C216.48 201.237 217.005 201.02 217.552 201.02C218.099 201.02 218.623 201.237 219.01 201.624C219.396 202.01 219.614 202.535 219.614 203.082C219.614 203.629 219.396 204.153 219.01 204.54C218.623 204.926 218.099 205.144 217.552 205.144ZM224.325 205.144C223.778 205.144 223.254 204.926 222.867 204.54C222.481 204.153 222.263 203.629 222.263 203.082C222.263 202.535 222.481 202.01 222.867 201.624C223.254 201.237 223.778 201.02 224.325 201.02C224.872 201.02 225.397 201.237 225.783 201.624C226.17 202.01 226.387 202.535 226.387 203.082C226.39 204.221 225.464 205.144 224.325 205.144ZM229.253 218.017H183.947C183.821 218.017 183.734 218.123 183.734 218.229V227.403C183.734 227.526 183.824 227.616 183.947 227.616H229.249C229.355 227.616 229.462 227.526 229.462 227.403V218.229C229.465 218.123 229.359 218.017 229.253 218.017ZM210.778 224.88C210.231 224.88 209.707 224.662 209.32 224.276C208.934 223.889 208.716 223.365 208.716 222.818C208.716 222.271 208.934 221.746 209.32 221.36C209.707 220.973 210.231 220.756 210.778 220.756C211.325 220.756 211.85 220.973 212.236 221.36C212.623 221.746 212.84 222.271 212.84 222.818C212.84 223.365 212.623 223.889 212.236 224.276C211.85 224.662 211.325 224.88 210.778 224.88ZM217.552 224.88C217.005 224.88 216.48 224.662 216.094 224.276C215.707 223.889 215.49 223.365 215.49 222.818C215.49 222.271 215.707 221.746 216.094 221.36C216.48 220.973 217.005 220.756 217.552 220.756C218.099 220.756 218.623 220.973 219.01 221.36C219.396 221.746 219.614 222.271 219.614 222.818C219.614 223.365 219.396 223.889 219.01 224.276C218.623 224.662 218.099 224.88 217.552 224.88ZM224.325 224.88C223.778 224.88 223.254 224.662 222.867 224.276C222.481 223.889 222.263 223.365 222.263 222.818C222.263 222.271 222.481 221.746 222.867 221.36C223.254 220.973 223.778 220.756 224.325 220.756C224.872 220.756 225.397 220.973 225.783 221.36C226.17 221.746 226.387 222.271 226.387 222.818C226.39 223.957 225.464 224.88 224.325 224.88Z" fill="#FFE8A0"/>
<path d="M212.835 203.082C212.835 203.629 212.618 204.153 212.231 204.54C211.844 204.926 211.32 205.144 210.773 205.144C210.226 205.144 209.702 204.926 209.315 204.54C208.928 204.153 208.711 203.629 208.711 203.082C208.711 202.535 208.928 202.01 209.315 201.624C209.702 201.237 210.226 201.02 210.773 201.02C211.32 201.02 211.844 201.237 212.231 201.624C212.618 202.01 212.835 202.535 212.835 203.082Z" fill="#012620"/>
<path d="M217.546 205.144C218.685 205.144 219.608 204.221 219.608 203.082C219.608 201.943 218.685 201.02 217.546 201.02C216.408 201.02 215.484 201.943 215.484 203.082C215.484 204.221 216.408 205.144 217.546 205.144Z" fill="#012620"/>
<path d="M226.386 203.082C226.386 203.629 226.169 204.153 225.782 204.54C225.395 204.927 224.871 205.144 224.324 205.144C223.777 205.144 223.253 204.927 222.866 204.54C222.479 204.153 222.262 203.629 222.262 203.082C222.262 202.535 222.479 202.011 222.866 201.624C223.253 201.237 223.777 201.02 224.324 201.02C224.871 201.02 225.395 201.237 225.782 201.624C226.169 202.011 226.386 202.535 226.386 203.082ZM212.836 222.818C212.836 223.365 212.618 223.889 212.232 224.276C211.845 224.662 211.32 224.88 210.774 224.88C210.227 224.88 209.702 224.662 209.316 224.276C208.929 223.889 208.712 223.365 208.712 222.818C208.712 222.271 208.929 221.746 209.316 221.36C209.702 220.973 210.227 220.756 210.774 220.756C211.32 220.756 211.845 220.973 212.232 221.36C212.618 221.746 212.836 222.271 212.836 222.818ZM219.609 222.818C219.609 223.365 219.392 223.889 219.005 224.276C218.618 224.662 218.094 224.88 217.547 224.88C217 224.88 216.476 224.662 216.089 224.276C215.702 223.889 215.485 223.365 215.485 222.818C215.485 222.271 215.702 221.746 216.089 221.36C216.476 220.973 217 220.756 217.547 220.756C218.094 220.756 218.618 220.973 219.005 221.36C219.392 221.746 219.609 222.271 219.609 222.818ZM226.386 222.818C226.386 223.365 226.169 223.889 225.782 224.276C225.395 224.662 224.871 224.88 224.324 224.88C223.777 224.88 223.253 224.662 222.866 224.276C222.479 223.889 222.262 223.365 222.262 222.818C222.262 222.271 222.479 221.746 222.866 221.36C223.253 220.973 223.777 220.756 224.324 220.756C224.871 220.756 225.395 220.973 225.782 221.36C226.169 221.746 226.386 222.271 226.386 222.818ZM121.145 85.5395C123.227 85.5395 124.914 83.8494 124.914 81.7709V72.5936C124.914 70.5317 123.224 68.825 121.145 68.825H75.8428C73.7643 68.825 72.0742 70.5317 72.0742 72.5936V81.7676C72.0742 83.8494 73.7643 85.5361 75.8428 85.5361H77.2838V88.5576H75.8428C73.7643 88.5576 72.0742 90.2477 72.0742 92.3262V101.5C72.0742 103.582 73.7643 105.269 75.8428 105.269H121.145C123.227 105.269 124.914 103.579 124.914 101.5V92.3295C124.914 90.2477 123.224 88.5609 121.145 88.5609H119.687V85.5395H121.145ZM121.145 92.117C121.271 92.117 121.358 92.2233 121.358 92.3295V101.504C121.358 101.626 121.268 101.716 121.145 101.716H75.8428C75.8146 101.717 75.7866 101.712 75.7604 101.702C75.7342 101.691 75.7104 101.676 75.6905 101.656C75.6705 101.636 75.6549 101.612 75.6446 101.586C75.6342 101.56 75.6293 101.532 75.6303 101.504V92.3295C75.6303 92.2233 75.7199 92.117 75.8428 92.117H121.145ZM80.8365 88.5609V85.5395H116.131V88.5609H80.8365ZM75.8428 81.9834C75.8146 81.9843 75.7866 81.9795 75.7604 81.9691C75.7342 81.9588 75.7104 81.9431 75.6905 81.9232C75.6705 81.9033 75.6549 81.8795 75.6446 81.8533C75.6342 81.8271 75.6293 81.7991 75.6303 81.7709V72.5936C75.6303 72.4873 75.7199 72.3811 75.8428 72.3811H121.145C121.271 72.3811 121.358 72.4873 121.358 72.5936V81.7676C121.358 81.8904 121.268 81.9801 121.145 81.9801H75.8428V81.9834Z" fill="#012620"/>
<path d="M80.8398 85.5394H116.135V88.5609H80.8398V85.5394Z" fill="#E4ECF4"/>
<path d="M121.148 72.381H75.8453C75.7892 72.3819 75.7357 72.4045 75.696 72.4442C75.6563 72.4839 75.6337 72.5374 75.6328 72.5935V81.7675C75.6328 81.8904 75.7225 81.98 75.8453 81.98H121.148C121.274 81.98 121.36 81.8904 121.36 81.7675V72.5935C121.359 72.5374 121.337 72.4839 121.297 72.4442C121.257 72.4045 121.204 72.3819 121.148 72.381ZM102.673 79.264C101.535 79.264 100.612 78.321 100.612 77.1822C100.612 76.6353 100.829 76.1109 101.215 75.7242C101.602 75.3375 102.127 75.1203 102.673 75.1203C103.22 75.1203 103.745 75.3375 104.131 75.7242C104.518 76.1109 104.735 76.6353 104.735 77.1822C104.735 78.321 103.812 79.264 102.673 79.264ZM109.45 79.264C108.311 79.264 107.388 78.321 107.388 77.1822C107.388 76.6353 107.606 76.1109 107.992 75.7242C108.379 75.3375 108.903 75.1203 109.45 75.1203C109.997 75.1203 110.522 75.3375 110.908 75.7242C111.295 76.1109 111.512 76.6353 111.512 77.1822C111.512 78.321 110.586 79.264 109.45 79.264ZM116.224 79.264C115.085 79.264 114.162 78.321 114.162 77.1822C114.162 76.9114 114.215 76.6433 114.319 76.3931C114.422 76.1429 114.574 75.9156 114.766 75.7242C114.957 75.5327 115.184 75.3808 115.435 75.2772C115.685 75.1736 115.953 75.1203 116.224 75.1203C116.494 75.1203 116.763 75.1736 117.013 75.2772C117.263 75.3808 117.49 75.5327 117.682 75.7242C117.873 75.9156 118.025 76.1429 118.129 76.3931C118.232 76.6433 118.286 76.9114 118.286 77.1822C118.286 78.321 117.359 79.264 116.224 79.264ZM121.148 92.1169H75.8453C75.7892 92.1178 75.7357 92.1405 75.696 92.1801C75.6563 92.2198 75.6337 92.2733 75.6328 92.3294V101.503C75.6328 101.626 75.7225 101.716 75.8453 101.716H121.148C121.274 101.716 121.36 101.626 121.36 101.503V92.3294C121.359 92.2733 121.337 92.2198 121.297 92.1801C121.257 92.1405 121.204 92.1178 121.148 92.1169ZM102.673 98.9999C101.535 98.9999 100.612 98.057 100.612 96.9181C100.612 96.3713 100.829 95.8468 101.215 95.4601C101.602 95.0734 102.127 94.8562 102.673 94.8562C103.22 94.8562 103.745 95.0734 104.131 95.4601C104.518 95.8468 104.735 96.3713 104.735 96.9181C104.735 98.057 103.812 98.9999 102.673 98.9999ZM109.45 98.9999C108.311 98.9999 107.388 98.057 107.388 96.9181C107.388 96.3713 107.606 95.8468 107.992 95.4601C108.379 95.0734 108.903 94.8562 109.45 94.8562C109.997 94.8562 110.522 95.0734 110.908 95.4601C111.295 95.8468 111.512 96.3713 111.512 96.9181C111.512 98.057 110.586 98.9999 109.45 98.9999ZM116.224 98.9999C115.085 98.9999 114.162 98.057 114.162 96.9181C114.162 96.6473 114.215 96.3792 114.319 96.129C114.422 95.8789 114.574 95.6516 114.766 95.4601C114.957 95.2686 115.184 95.1168 115.435 95.0131C115.685 94.9095 115.953 94.8562 116.224 94.8562C116.494 94.8562 116.763 94.9095 117.013 95.0131C117.263 95.1168 117.49 95.2686 117.682 95.4601C117.873 95.6516 118.025 95.8789 118.129 96.129C118.232 96.3792 118.286 96.6473 118.286 96.9181C118.286 98.057 117.359 98.9999 116.224 98.9999Z" fill="#FFE8A0"/>
<path d="M104.735 77.1822C104.735 78.3211 103.812 79.264 102.673 79.264C101.534 79.264 100.611 78.3211 100.611 77.1822C100.611 76.6353 100.828 76.1109 101.215 75.7242C101.602 75.3375 102.126 75.1203 102.673 75.1203C103.22 75.1203 103.744 75.3375 104.131 75.7242C104.518 76.1109 104.735 76.6353 104.735 77.1822ZM111.512 77.1822C111.512 78.3211 110.588 79.264 109.45 79.264C108.311 79.264 107.388 78.3211 107.388 77.1822C107.388 76.6353 107.605 76.1109 107.992 75.7242C108.378 75.3375 108.903 75.1203 109.45 75.1203C109.996 75.1203 110.521 75.3375 110.908 75.7242C111.294 76.1109 111.512 76.6353 111.512 77.1822ZM118.285 77.1822C118.285 78.3211 117.362 79.264 116.223 79.264C115.084 79.264 114.161 78.3211 114.161 77.1822C114.161 76.6353 114.378 76.1109 114.765 75.7242C115.152 75.3375 115.676 75.1203 116.223 75.1203C116.77 75.1203 117.294 75.3375 117.681 75.7242C118.068 76.1109 118.285 76.6353 118.285 77.1822ZM104.735 96.9181C104.735 98.057 103.812 99 102.673 99C101.534 99 100.611 98.057 100.611 96.9181C100.611 96.3713 100.828 95.8468 101.215 95.4601C101.602 95.0734 102.126 94.8562 102.673 94.8562C103.22 94.8562 103.744 95.0734 104.131 95.4601C104.518 95.8468 104.735 96.3713 104.735 96.9181ZM111.512 96.9181C111.512 98.057 110.588 99 109.45 99C108.311 99 107.388 98.057 107.388 96.9181C107.388 96.3713 107.605 95.8468 107.992 95.4601C108.378 95.0734 108.903 94.8562 109.45 94.8562C109.996 94.8562 110.521 95.0734 110.908 95.4601C111.294 95.8468 111.512 96.3713 111.512 96.9181ZM118.285 96.9181C118.285 98.057 117.362 99 116.223 99C115.084 99 114.161 98.057 114.161 96.9181C114.161 96.3713 114.378 95.8468 114.765 95.4601C115.152 95.0734 115.676 94.8562 116.223 94.8562C116.77 94.8562 117.294 95.0734 117.681 95.4601C118.068 95.8468 118.285 96.3713 118.285 96.9181ZM118.036 206.977C117.468 199.439 111.548 193.499 104.326 193.499C98.0145 193.499 92.7352 197.945 91.1148 204.151C89.3916 202.995 87.3795 202.375 85.301 202.375C79.7893 202.375 75.2006 206.694 74.4004 212.332C69.3734 212.558 65.3359 216.967 65.3359 222.356C65.3359 227.904 69.5859 232.4 74.8121 232.4H117.787C124.384 232.4 129.753 226.693 129.753 219.687C129.753 212.754 124.507 207.099 118.036 206.977ZM117.787 228.844H74.8121C71.5416 228.844 68.892 225.929 68.892 222.353C68.892 218.78 71.5416 215.862 74.8121 215.862C75.1309 215.862 75.433 215.898 75.7551 215.951C76.2697 216.058 76.7877 215.845 77.1961 215.506C77.6045 215.168 77.8369 214.617 77.8369 214.085C77.8369 209.586 81.1805 205.924 85.3043 205.924C87.4924 205.924 89.5709 206.973 90.9953 208.806C91.4568 209.41 92.2404 209.643 92.951 209.41C93.6615 209.178 94.1596 208.52 94.1762 207.773C94.3355 201.764 98.818 197.052 104.33 197.052C109.948 197.052 114.516 202.013 114.516 208.129C114.516 208.271 114.5 208.431 114.5 208.574L114.483 208.786C114.467 209.321 114.679 209.835 115.071 210.191C115.479 210.562 116.03 210.725 116.545 210.635C117.027 210.546 117.415 210.513 117.79 210.513C122.432 210.513 126.201 214.636 126.201 219.687C126.197 224.737 122.429 228.844 117.787 228.844Z" fill="#012620"/>
<path d="M117.789 210.513C117.417 210.513 117.025 210.549 116.544 210.636C116.029 210.725 115.478 210.566 115.07 210.191C114.678 209.835 114.465 209.321 114.482 208.786L114.498 208.574C114.498 208.431 114.515 208.272 114.515 208.129C114.515 202.013 109.946 197.052 104.328 197.052C98.8166 197.052 94.3375 201.764 94.1748 207.773C94.1582 208.521 93.6602 209.178 92.9496 209.41C92.2391 209.643 91.4555 209.41 90.9939 208.806C89.5729 206.973 87.491 205.924 85.3029 205.924C81.1791 205.924 77.8355 209.586 77.8355 214.085C77.8355 214.62 77.6031 215.171 77.1947 215.506C76.7863 215.842 76.2717 216.058 75.7537 215.951C75.435 215.898 75.1328 215.862 74.8107 215.862C71.5402 215.862 68.8906 218.777 68.8906 222.353C68.8906 225.926 71.5402 228.844 74.8107 228.844H117.786C122.427 228.844 126.196 224.737 126.196 219.687C126.199 214.64 122.431 210.513 117.789 210.513ZM85.7146 224.594C83.2609 224.594 81.2688 222.602 81.2688 220.168C81.2688 217.714 83.2609 215.722 85.7146 215.722C88.1518 215.722 90.1406 217.714 90.1406 220.168C90.1406 222.605 88.1484 224.594 85.7146 224.594ZM98.4979 224.594C96.0441 224.594 94.052 222.602 94.052 220.168C94.052 217.714 96.0441 215.722 98.4979 215.722C100.935 215.722 102.924 217.714 102.924 220.168C102.924 222.605 100.935 224.594 98.4979 224.594ZM111.281 224.594C108.827 224.594 106.855 222.602 106.855 220.168C106.855 217.714 108.827 215.722 111.281 215.722C113.718 215.722 115.707 217.714 115.707 220.168C115.707 222.605 113.718 224.594 111.281 224.594Z" fill="#94BADD"/>
<path d="M85.7115 215.722C83.2578 215.722 81.2656 217.714 81.2656 220.168C81.2656 222.605 83.2578 224.594 85.7115 224.594C88.1486 224.594 90.1375 222.602 90.1375 220.168C90.1375 217.714 88.1453 215.722 85.7115 215.722ZM85.7115 221.038C85.2301 221.038 84.8217 220.646 84.8217 220.168C84.8217 219.67 85.2301 219.278 85.7115 219.278C86.193 219.278 86.5814 219.67 86.5814 220.168C86.5814 220.65 86.1896 221.038 85.7115 221.038ZM98.4947 215.722C96.041 215.722 94.0488 217.714 94.0488 220.168C94.0488 222.605 96.041 224.594 98.4947 224.594C100.932 224.594 102.921 222.602 102.921 220.168C102.921 217.714 100.932 215.722 98.4947 215.722ZM98.4947 221.038C98.0133 221.038 97.6049 220.646 97.6049 220.168C97.6049 219.67 98.0133 219.278 98.4947 219.278C98.9762 219.278 99.3646 219.67 99.3646 220.168C99.3646 220.65 98.9729 221.038 98.4947 221.038ZM111.278 215.722C108.824 215.722 106.852 217.714 106.852 220.168C106.852 222.605 108.824 224.594 111.278 224.594C113.715 224.594 115.704 222.602 115.704 220.168C115.704 217.714 113.715 215.722 111.278 215.722ZM111.278 221.038C110.796 221.038 110.408 220.646 110.408 220.168C110.408 219.67 110.8 219.278 111.278 219.278C111.759 219.278 112.148 219.67 112.148 220.168C112.148 220.65 111.759 221.038 111.278 221.038ZM222.953 81.0769C222.402 73.5398 216.465 67.5998 209.244 67.5998C202.932 67.5998 197.653 72.0623 196.032 78.2513C194.309 77.1125 192.297 76.4916 190.218 76.4916C184.707 76.4916 180.118 80.8113 179.318 86.4293C174.287 86.6617 170.25 91.0711 170.25 96.4566C170.25 102.005 174.5 106.501 179.726 106.501H222.701C229.298 106.501 234.667 100.793 234.667 93.7871C234.671 86.8543 229.445 81.1998 222.953 81.0769ZM222.704 102.944H179.729C176.459 102.944 173.809 100.046 173.809 96.4533C173.809 92.8806 176.459 89.9621 179.729 89.9621C180.048 89.9621 180.35 90.0152 180.672 90.0683C181.187 90.158 181.722 89.9455 182.113 89.6068C182.522 89.2681 182.754 88.717 182.754 88.1857C182.754 83.6867 186.098 80.041 190.222 80.041C192.41 80.041 194.488 81.0902 195.913 82.9197C196.374 83.5074 197.158 83.7564 197.868 83.5074C198.579 83.275 199.077 82.6175 199.094 81.8705C199.273 75.8607 203.735 71.1492 209.247 71.1492C214.865 71.1492 219.434 76.1097 219.434 82.2257C219.434 82.3685 219.434 82.5113 219.417 82.6541L219.401 82.8865C219.393 83.1514 219.441 83.4151 219.542 83.66C219.643 83.905 219.795 84.1257 219.988 84.3076C220.397 84.6628 220.948 84.8222 221.462 84.7359C221.944 84.6662 222.332 84.6296 222.708 84.6296C227.349 84.6296 231.118 88.7369 231.118 93.7871C231.115 98.8373 227.346 102.944 222.704 102.944Z" fill="#012620"/>
<path d="M222.707 84.633C222.335 84.633 221.943 84.6695 221.462 84.7392C220.947 84.8289 220.396 84.6695 219.987 84.3109C219.795 84.1288 219.643 83.9081 219.542 83.6632C219.44 83.4183 219.392 83.1547 219.4 82.8898L219.416 82.6574C219.433 82.5146 219.433 82.3718 219.433 82.2291C219.433 76.113 214.864 71.1525 209.246 71.1525C203.735 71.1525 199.272 75.864 199.093 81.8738C199.076 82.6209 198.578 83.2783 197.868 83.5107C197.157 83.7597 196.373 83.5107 195.912 82.923C194.491 81.0902 192.409 80.0443 190.221 80.0443C186.097 80.0443 182.754 83.69 182.754 88.189C182.754 88.7236 182.521 89.2748 182.113 89.6101C181.721 89.9488 181.19 90.1613 180.672 90.0716C180.353 90.0185 180.051 89.9654 179.729 89.9654C176.458 89.9654 173.809 92.8806 173.809 96.4566C173.809 100.049 176.458 102.948 179.729 102.948H222.704C227.345 102.948 231.114 98.8406 231.114 93.7904C231.117 88.7402 227.349 84.633 222.707 84.633ZM190.633 98.6945C188.179 98.6945 186.207 96.7023 186.207 94.2685C186.207 91.8148 188.179 89.8226 190.633 89.8226C193.07 89.8226 195.059 91.8148 195.059 94.2685C195.059 96.7056 193.07 98.6945 190.633 98.6945ZM203.416 98.6945C200.962 98.6945 198.99 96.7023 198.99 94.2685C198.99 91.8148 200.962 89.8226 203.416 89.8226C205.853 89.8226 207.842 91.8148 207.842 94.2685C207.842 96.7056 205.853 98.6945 203.416 98.6945ZM216.199 98.6945C213.745 98.6945 211.773 96.7023 211.773 94.2685C211.773 91.8148 213.745 89.8226 216.199 89.8226C218.636 89.8226 220.625 91.8148 220.625 94.2685C220.628 96.7056 218.636 98.6945 216.199 98.6945Z" fill="#94BADD"/>
<path d="M190.633 89.8226C188.18 89.8226 186.207 91.8148 186.207 94.2685C186.207 96.7056 188.18 98.6945 190.633 98.6945C193.07 98.6945 195.059 96.7023 195.059 94.2685C195.059 91.8148 193.07 89.8226 190.633 89.8226ZM190.633 95.1385C190.152 95.1385 189.763 94.7467 189.763 94.2685C189.763 93.7871 190.155 93.3787 190.633 93.3787C191.112 93.3787 191.503 93.7871 191.503 94.2685C191.503 94.75 191.115 95.1385 190.633 95.1385ZM203.417 89.8226C200.963 89.8226 198.991 91.8148 198.991 94.2685C198.991 96.7056 200.963 98.6945 203.417 98.6945C205.854 98.6945 207.843 96.7023 207.843 94.2685C207.843 91.8148 205.854 89.8226 203.417 89.8226ZM203.417 95.1385C202.935 95.1385 202.547 94.7467 202.547 94.2685C202.547 93.7871 202.938 93.3787 203.417 93.3787C203.895 93.3787 204.287 93.7871 204.287 94.2685C204.287 94.75 203.898 95.1385 203.417 95.1385ZM216.2 89.8226C213.746 89.8226 211.774 91.8148 211.774 94.2685C211.774 96.7056 213.746 98.6945 216.2 98.6945C218.637 98.6945 220.626 96.7023 220.626 94.2685C220.629 91.8148 218.637 89.8226 216.2 89.8226ZM216.2 95.1385C215.718 95.1385 215.33 94.7467 215.33 94.2685C215.33 93.7871 215.722 93.3787 216.2 93.3787C216.678 93.3787 217.07 93.7871 217.07 94.2685C217.07 94.3829 217.048 94.4962 217.004 94.602C216.961 94.7077 216.897 94.8038 216.816 94.8846C216.735 94.9655 216.639 95.0296 216.533 95.0731C216.427 95.1167 216.314 95.1389 216.2 95.1385ZM103.15 143.811H93.7201V113.145C93.7201 112.673 93.533 112.222 93.1998 111.888C92.8667 111.555 92.4149 111.368 91.9438 111.368C91.4726 111.368 91.0208 111.555 90.6877 111.888C90.3545 112.222 90.1674 112.673 90.1674 113.145V145.587C90.1674 146.57 90.9643 147.364 91.9438 147.364H103.153C104.136 147.364 104.929 146.567 104.929 145.587C104.928 145.116 104.74 144.664 104.407 144.331C104.073 143.999 103.621 143.811 103.15 143.811ZM103.15 151.401H91.9404C91.7072 151.401 91.4762 151.447 91.2606 151.536C91.0451 151.626 90.8493 151.756 90.6843 151.921C90.5194 152.086 90.3886 152.282 90.2993 152.498C90.21 152.713 90.1641 152.944 90.1641 153.178V185.62C90.1641 186.091 90.3512 186.543 90.6843 186.876C91.0175 187.21 91.4693 187.397 91.9404 187.397C92.4116 187.397 92.8634 187.21 93.1965 186.876C93.5296 186.543 93.7168 186.091 93.7168 185.62V154.954H103.146C104.129 154.954 104.923 154.157 104.923 153.178C104.923 152.198 104.133 151.401 103.15 151.401ZM208.141 113.145C208.141 112.673 207.954 112.222 207.621 111.888C207.288 111.555 206.836 111.368 206.365 111.368C205.894 111.368 205.442 111.555 205.109 111.888C204.776 112.222 204.589 112.673 204.589 113.145V143.811H195.159C194.926 143.811 194.695 143.857 194.479 143.946C194.264 144.035 194.068 144.166 193.903 144.331C193.738 144.496 193.607 144.692 193.518 144.908C193.429 145.123 193.383 145.354 193.383 145.587C193.383 145.821 193.429 146.052 193.518 146.267C193.607 146.483 193.738 146.678 193.903 146.843C194.068 147.008 194.264 147.139 194.479 147.228C194.695 147.318 194.926 147.364 195.159 147.364H206.368C207.351 147.364 208.145 146.567 208.145 145.587V113.145H208.141ZM206.365 187.4C207.348 187.4 208.141 186.603 208.141 185.624V153.181C208.141 152.198 207.345 151.404 206.365 151.404H195.156C194.685 151.404 194.233 151.592 193.9 151.925C193.566 152.258 193.379 152.71 193.379 153.181C193.379 153.652 193.566 154.104 193.9 154.437C194.233 154.77 194.685 154.957 195.156 154.957H204.585V185.624C204.585 186.606 205.382 187.4 206.365 187.4Z" fill="#012620"/>
</svg>
