<svg width="299" height="299" viewBox="0 0 299 299" fill="none" xmlns="http://www.w3.org/2000/svg">
<circle cx="149.5" cy="149.5" r="149.5" fill="white"/>
<path d="M223.38 222.693C220.633 225.441 215.824 225.441 212.732 222.693L157.773 167.735L168.422 157.086L223.38 212.045C226.472 215.137 226.472 219.602 223.38 222.693Z" fill="white" stroke="#05255C" stroke-width="3.43492" stroke-miterlimit="10"/>
<path d="M126.517 182.161C157.439 182.161 182.506 157.094 182.506 126.172C182.506 95.2501 157.439 70.1829 126.517 70.1829C95.5946 70.1829 70.5273 95.2501 70.5273 126.172C70.5273 157.094 95.5946 182.161 126.517 182.161Z" fill="white" stroke="#05255C" stroke-width="3.43492" stroke-miterlimit="10"/>
<path d="M126.519 168.422C149.853 168.422 168.769 149.506 168.769 126.172C168.769 102.838 149.853 83.9225 126.519 83.9225C103.185 83.9225 84.2695 102.838 84.2695 126.172C84.2695 149.506 103.185 168.422 126.519 168.422Z" fill="#8CF2ED" stroke="#05255C" stroke-width="3.43492" stroke-miterlimit="10"/>
<path d="M222.356 141.286H104.882C101.103 141.286 98.0117 138.194 98.0117 134.416V117.585C98.0117 113.806 101.103 110.715 104.882 110.715H222.012C225.791 110.715 228.882 113.806 228.882 117.585V134.416C229.226 138.194 226.134 141.286 222.356 141.286Z" fill="#F4F4F4" stroke="#05255C" stroke-width="3.43492" stroke-miterlimit="10"/>
<path d="M222.35 141.286H201.053C197.275 141.286 194.184 138.194 194.184 134.416V117.585C194.184 113.806 197.275 110.715 201.053 110.715H222.35C226.128 110.715 229.22 113.806 229.22 117.585V134.416C229.22 138.194 226.128 141.286 222.35 141.286Z" fill="#CCCACA" stroke="#05255C" stroke-width="3.43492" stroke-miterlimit="10"/>
<path d="M210.327 130.981C213.742 130.981 216.51 128.213 216.51 124.798C216.51 121.383 213.742 118.615 210.327 118.615C206.913 118.615 204.145 121.383 204.145 124.798C204.145 128.213 206.913 130.981 210.327 130.981Z" fill="white" stroke="#05255C" stroke-width="3.43492" stroke-miterlimit="10" stroke-linecap="round" stroke-linejoin="round"/>
<path d="M221.318 89.7618C220.974 92.1663 219.944 94.2272 218.57 95.9447C216.853 94.5707 214.792 94.2272 213.418 95.6012C212.044 96.9752 212.387 99.0361 213.761 100.754C212.044 102.128 209.639 102.815 207.578 103.502C207.578 101.441 205.861 99.7231 204.143 99.7231C202.426 99.7231 200.708 101.441 200.708 103.502C198.304 103.158 196.243 102.128 194.526 100.754C195.9 99.0361 196.243 96.9752 194.869 95.6012C193.495 94.2272 191.434 94.5707 189.717 95.9447C188.343 93.8838 187.656 91.8228 186.969 89.7618C189.373 89.4184 191.091 88.0444 191.091 86.3269C191.091 84.6095 189.373 83.2355 187.312 82.892C187.656 80.4876 188.686 78.4266 190.06 76.7091C191.778 78.0831 193.839 78.4266 195.213 77.0526C196.587 75.6787 196.243 73.6177 194.869 71.9003C196.587 70.5263 198.991 69.8393 201.052 69.1523C201.052 71.2133 202.769 72.9307 204.487 72.9307C206.204 72.9307 207.578 71.2133 207.922 69.1523C210.326 69.4958 212.387 70.5263 214.105 71.9003C212.731 73.6177 212.387 75.6787 213.761 77.0526C215.135 78.4266 217.196 78.0831 218.914 76.7091C220.287 78.4266 220.974 80.4876 221.661 82.892C219.601 83.2355 217.883 84.6095 217.883 86.3269C217.54 88.0444 219.257 89.4184 221.318 89.7618Z" fill="#559AFF" stroke="#05255C" stroke-width="3.43492" stroke-miterlimit="10" stroke-linecap="round" stroke-linejoin="round"/>
<path d="M204.14 92.1663C207.365 92.1663 209.98 89.5519 209.98 86.3269C209.98 83.1019 207.365 80.4875 204.14 80.4875C200.915 80.4875 198.301 83.1019 198.301 86.3269C198.301 89.5519 200.915 92.1663 204.14 92.1663Z" fill="white" stroke="#05255C" stroke-width="3.43492" stroke-miterlimit="10" stroke-linecap="round" stroke-linejoin="round"/>
<path d="M135.789 154.682H84.2649C80.83 154.682 78.082 157.43 78.082 160.865V224.411C78.082 227.846 80.83 230.594 84.2649 230.594H135.789C139.224 230.594 141.972 227.846 141.972 224.411V160.865C141.972 157.43 139.224 154.682 135.789 154.682Z" fill="#F4F4F4" stroke="#05255C" stroke-width="3.43492" stroke-miterlimit="10" stroke-linecap="round" stroke-linejoin="round"/>
<path d="M85.6406 176.665H93.5409V190.749H85.6406V176.665Z" fill="#EBBAC4" stroke="#05255C" stroke-width="3.43492" stroke-miterlimit="10" stroke-linecap="round" stroke-linejoin="round"/>
<path d="M99.375 171.513H107.275V191.092H99.375V171.513Z" fill="#FFB95C" stroke="#05255C" stroke-width="3.43492" stroke-miterlimit="10" stroke-linecap="round" stroke-linejoin="round"/>
<path d="M113.121 179.413H121.021V190.749H113.121V179.413Z" fill="#6CD8D5" stroke="#05255C" stroke-width="3.43492" stroke-miterlimit="10" stroke-linecap="round" stroke-linejoin="round"/>
<path d="M126.852 166.704H134.752V191.092H126.852V166.704Z" fill="white" stroke="#05255C" stroke-width="3.43492" stroke-miterlimit="10" stroke-linecap="round" stroke-linejoin="round"/>
<path d="M130.976 202.771L115.175 218.571L104.87 207.923L93.1914 219.602L88.0391 214.793" fill="white"/>
<path d="M130.976 202.771L115.175 218.571L104.87 207.923L93.1914 219.602L88.0391 214.793" stroke="#05255C" stroke-width="3.43492" stroke-miterlimit="10" stroke-linecap="round" stroke-linejoin="round"/>
<path d="M104.532 212.045C106.619 212.045 108.311 210.353 108.311 208.267C108.311 206.18 106.619 204.488 104.532 204.488C102.446 204.488 100.754 206.18 100.754 208.267C100.754 210.353 102.446 212.045 104.532 212.045Z" fill="#6E9583" stroke="#05255C" stroke-width="3.43492" stroke-miterlimit="10" stroke-linecap="round" stroke-linejoin="round"/>
<path d="M115.864 221.663C117.951 221.663 119.643 219.971 119.643 217.884C119.643 215.798 117.951 214.106 115.864 214.106C113.778 214.106 112.086 215.798 112.086 217.884C112.086 219.971 113.778 221.663 115.864 221.663Z" fill="#EBBAC4" stroke="#05255C" stroke-width="3.43492" stroke-miterlimit="10" stroke-linecap="round" stroke-linejoin="round"/>
<path d="M93.1964 222.693C95.2831 222.693 96.9748 221.002 96.9748 218.915C96.9748 216.828 95.2831 215.137 93.1964 215.137C91.1096 215.137 89.418 216.828 89.418 218.915C89.418 221.002 91.1096 222.693 93.1964 222.693Z" fill="#ABB734" stroke="#05255C" stroke-width="3.43492" stroke-miterlimit="10" stroke-linecap="round" stroke-linejoin="round"/>
<path d="M206.205 172.543V154.682C195.9 154.682 187.312 163.269 187.312 173.574C187.312 184.222 195.9 192.466 206.205 192.466C211.7 192.466 216.509 190.062 219.944 186.283L206.205 172.543Z" fill="#FECD04" stroke="#05255C" stroke-width="3.43492" stroke-miterlimit="10" stroke-linecap="round" stroke-linejoin="round"/>
<path d="M206.207 154.682V172.543L220.977 161.895C217.542 157.43 212.046 154.682 206.207 154.682Z" fill="#C6CC4A" stroke="#05255C" stroke-width="3.43492" stroke-miterlimit="10" stroke-linecap="round" stroke-linejoin="round"/>
<path d="M206.207 172.543L219.947 186.283C223.038 182.848 225.099 178.383 225.099 173.574C225.099 169.109 223.382 164.987 220.977 161.895L206.207 172.543Z" fill="#EBBAC4" stroke="#05255C" stroke-width="3.43492" stroke-miterlimit="10" stroke-linecap="round" stroke-linejoin="round"/>
<path d="M164.299 196.588L168.078 204.145L176.322 205.519L170.482 211.358L171.856 219.945L164.299 215.824L156.742 219.945L158.116 211.358L151.934 205.519L160.521 204.145L164.299 196.588Z" fill="#FECD04" stroke="#05255C" stroke-width="3.43492" stroke-miterlimit="10" stroke-linecap="round" stroke-linejoin="round"/>
</svg>
