<svg width="49" height="43" viewBox="0 0 49 43" fill="none" xmlns="http://www.w3.org/2000/svg">
<path d="M34.2049 25.4537H20.5239C20.5663 24.3124 20.5464 23.6526 20.4324 21.119C20.286 17.8003 17.9175 16.345 16.232 16.345C16.204 16.345 16.1757 16.3454 16.1479 16.3462C14.8927 16.383 14.0275 17.2078 14.0441 18.3519C14.0726 20.3658 14.0808 20.8424 14.0842 21.0468C14.0859 21.148 14.0881 21.3245 14.0907 21.5763L14.1104 23.423C14.1133 23.7134 14.0865 24.0914 13.9426 24.2439C13.8329 24.3603 13.5906 24.4392 13.2838 24.539C12.3778 24.8338 11.0088 25.2792 9.87402 27.6812L9.85673 27.718C9.78749 27.8659 9.72782 27.9931 9.60654 28.0831V27.5715C9.60654 26.4572 8.76083 25.5507 7.72128 25.5507H1.89716C1.358 25.5507 0.816887 25.8051 0.449699 26.2313C0.0949143 26.6431 -0.0578202 27.1549 0.0197189 27.6737L2.01025 40.8435C2.18622 41.9919 2.94179 42.7635 3.89032 42.7635H7.72148C8.76103 42.7635 9.60673 41.8557 9.60673 40.7398V40.0436C10.209 40.0559 10.5387 40.3526 11.1044 40.9119C11.8547 41.6536 12.8821 42.6693 15.1652 42.6693H25.5238C26.9922 42.6693 28.1869 41.4734 28.1869 40.0035C28.1869 39.4635 28.0252 38.9607 27.7483 38.5403C28.7645 38.1643 29.4908 37.1864 29.4908 36.0422C29.4908 35.3264 29.2066 34.676 28.7459 34.1966C29.3832 33.7095 29.7953 32.9425 29.7953 32.0808C29.7953 31.6097 29.672 31.167 29.4566 30.7825H34.2051C35.7444 30.7825 36.5498 29.4421 36.5498 28.1181C36.5498 26.794 35.7444 25.4537 34.2051 25.4537H34.2049ZM8.23915 40.7397C8.23915 41.0954 8.00204 41.3958 7.72148 41.3958H3.89032C3.60732 41.3958 3.41806 41.0021 3.3622 40.6376L1.37206 27.4703C1.3495 27.3191 1.42148 27.1984 1.48573 27.1238C1.59345 26.9988 1.75497 26.9182 1.89726 26.9182H7.72157C8.00214 26.9182 8.23925 27.2173 8.23925 27.5714L8.23915 40.7397ZM25.5238 41.3017H21.355C20.6392 41.3017 20.0567 40.7192 20.0567 40.0034C20.0567 39.2876 20.6392 38.7052 21.355 38.7052C21.4044 38.7052 21.4524 38.6997 21.4988 38.6897C21.5926 38.6998 21.6877 38.7052 21.7841 38.7052H25.5239C26.2382 38.7052 26.8194 39.2876 26.8194 40.0034C26.8194 40.7192 26.2382 41.3017 25.5238 41.3017ZM26.8249 37.3376H21.784C21.0682 37.3376 20.4857 36.7564 20.4857 36.0421C20.4857 35.3277 21.0682 34.7438 21.784 34.7438C21.8187 34.7438 21.8527 34.7404 21.8861 34.7354C21.953 34.7405 22.0203 34.7438 22.0885 34.7438H26.8249C27.5407 34.7438 28.1231 35.3263 28.1231 36.0421C28.1231 36.7579 27.5407 37.3376 26.8249 37.3376ZM28.4276 32.0808C28.4276 32.7951 27.8452 33.3764 27.1294 33.3764H22.0885C21.3726 33.3764 20.7902 32.7952 20.7902 32.0808C20.7902 31.3663 21.3726 30.7825 22.0885 30.7825H27.1294C27.8452 30.7825 28.4276 31.3649 28.4276 32.0808ZM34.2049 29.4149H22.0885C20.6185 29.4149 19.4226 30.6108 19.4226 32.0808C19.4226 32.7958 19.7067 33.4454 20.1675 33.9243C19.5303 34.4119 19.1182 35.1796 19.1182 36.0421C19.1182 36.7305 19.3809 37.3586 19.8116 37.8318C19.133 38.3155 18.6892 39.1084 18.6892 40.0034C18.6892 40.4745 18.8125 40.9172 19.0278 41.3017H15.1652C13.4439 41.3017 12.7746 40.6399 12.0658 39.9393C11.4727 39.353 10.8006 38.6904 9.60673 38.676V29.5341C10.6128 29.3281 10.9418 28.626 11.0955 28.2975L11.1107 28.2649C11.9932 26.397 12.9036 26.1008 13.7069 25.8394C14.504 25.5801 15.496 25.2572 15.4779 23.4089L15.4582 21.562C15.4555 21.3058 15.4533 21.1262 15.4516 21.0232C15.4481 20.8192 15.4399 20.3435 15.4116 18.3322C15.4045 17.8395 15.8299 17.7235 16.1881 17.713C17.3159 17.6805 18.9584 18.7333 19.0664 21.1798C19.2003 24.1552 19.1996 24.5181 19.1329 25.9891C18.9529 29.8302 17.3079 31.3969 13.4546 31.3969C13.2732 31.3969 13.0993 31.4689 12.9711 31.5972C12.8428 31.7254 12.7708 31.8993 12.7708 32.0807C12.7708 32.262 12.8428 32.4359 12.9711 32.5642C13.0993 32.6924 13.2732 32.7645 13.4546 32.7645C18.9632 32.7645 20.1726 29.5705 20.4439 26.8212H34.2051C34.9765 26.8212 35.1823 27.6364 35.1823 28.118C35.1823 28.5995 34.9766 29.4148 34.2051 29.4148L34.2049 29.4149ZM5.48759 28.8088V31.1701C5.48759 31.3515 5.41555 31.5254 5.28731 31.6536C5.15908 31.7819 4.98515 31.8539 4.8038 31.8539C4.62245 31.8539 4.44852 31.7819 4.32029 31.6536C4.19205 31.5254 4.12001 31.3515 4.12001 31.1701V28.8088C4.12001 28.6274 4.19205 28.4535 4.32029 28.3253C4.44852 28.197 4.62245 28.125 4.8038 28.125C4.98515 28.125 5.15908 28.197 5.28731 28.3253C5.41555 28.4535 5.48759 28.6274 5.48759 28.8088ZM28.7378 9.32881C28.7378 10.4798 29.4585 10.7298 31.2282 11.0625C32.7496 11.3485 34.8334 11.7402 34.8334 14.14C34.8334 15.6501 33.5176 16.9097 31.7855 17.1765V18.3975C31.7855 18.5788 31.7135 18.7527 31.5853 18.881C31.457 19.0092 31.2831 19.0813 31.1017 19.0813C30.9204 19.0813 30.7465 19.0092 30.6182 18.881C30.49 18.7527 30.418 18.5788 30.418 18.3975V17.1764C28.686 16.9096 27.3702 15.65 27.3702 14.1399C27.3702 13.9586 27.4422 13.7847 27.5705 13.6564C27.6987 13.5282 27.8726 13.4562 28.054 13.4562C28.2353 13.4562 28.4093 13.5282 28.5375 13.6564C28.6657 13.7847 28.7378 13.9586 28.7378 14.1399C28.7378 15.0894 29.7982 15.8617 31.1017 15.8617C32.3832 15.8617 33.4658 15.0732 33.4658 14.1399C33.4658 12.9891 32.7451 12.7391 30.9755 12.4063C29.454 12.1202 27.3702 11.7285 27.3702 9.32871C27.3702 7.81865 28.686 6.55908 30.418 6.29229V5.06846C30.418 4.88711 30.49 4.71318 30.6182 4.58495C30.7465 4.45671 30.9204 4.38467 31.1017 4.38467C31.2831 4.38467 31.457 4.45671 31.5853 4.58495C31.7135 4.71318 31.7855 4.88711 31.7855 5.06846V6.29229C33.5176 6.55908 34.8334 7.81865 34.8334 9.32871C34.8334 9.51006 34.7613 9.68399 34.6331 9.81222C34.5049 9.94046 34.331 10.0125 34.1496 10.0125C33.9682 10.0125 33.7943 9.94046 33.6661 9.81222C33.5379 9.68399 33.4658 9.51006 33.4658 9.32871C33.4658 8.39541 32.3832 7.60693 31.1017 7.60693C29.7982 7.60693 28.7378 8.37939 28.7378 9.32881ZM42.7974 12.6771C42.9219 11.1189 42.7343 9.55152 42.2455 8.06678C41.7566 6.58205 40.9764 5.20978 39.9506 4.03037C38.8498 2.76462 37.4903 1.74982 35.9637 1.05452C34.4372 0.359225 32.7792 -0.000378342 31.1017 2.98704e-07C24.6299 2.98704e-07 19.3645 5.26406 19.3645 11.7345C19.3645 18.2049 24.6299 23.4689 31.1017 23.4689C32.8226 23.4689 34.5295 23.0882 36.08 22.3635C37.2087 24.3113 39.3148 25.6253 41.7234 25.6253C45.3182 25.6253 48.2426 22.7009 48.2426 19.1062C48.2426 15.8773 45.8826 13.1908 42.7974 12.6771ZM31.1017 22.1014C25.3839 22.1014 20.732 17.4508 20.732 11.7345C20.732 6.01816 25.3839 1.36758 31.1017 1.36758C32.5836 1.36723 34.0483 1.68489 35.3968 2.2991C36.7454 2.91331 37.9464 3.80977 38.9188 4.92793C39.8282 5.97342 40.5191 7.19035 40.9508 8.50703C41.3825 9.8237 41.5463 11.2135 41.4325 12.5944C37.9724 12.7473 35.2042 15.6091 35.2042 19.1062C35.204 19.7881 35.3113 20.4659 35.5222 21.1145C34.1389 21.7637 32.6298 22.1006 31.1017 22.1013V22.1014ZM41.7234 24.2577C38.8828 24.2577 36.5718 21.9468 36.5718 19.1062C36.5718 16.2655 38.8828 13.9546 41.7234 13.9546C44.5641 13.9546 46.875 16.2655 46.875 19.1062C46.875 21.9468 44.5641 24.2577 41.7234 24.2577ZM45.0258 16.8855C45.0877 16.9505 45.1361 17.0271 45.1684 17.1109C45.2007 17.1947 45.2161 17.284 45.2139 17.3738C45.2116 17.4635 45.1917 17.552 45.1553 17.634C45.1189 17.7161 45.0666 17.7902 45.0016 17.8521L41.3226 21.3511C41.1956 21.4721 41.0269 21.5396 40.8515 21.5395C40.7616 21.5396 40.6727 21.5219 40.5897 21.4875C40.5067 21.4532 40.4313 21.4027 40.3679 21.3392L38.433 19.4042C38.3065 19.2756 38.2359 19.1022 38.2366 18.9218C38.2373 18.7415 38.3093 18.5687 38.4369 18.4411C38.5644 18.3135 38.7372 18.2416 38.9176 18.2408C39.098 18.2401 39.2714 18.3107 39.4 18.4372L40.8634 19.9007L44.0592 16.8612C44.1242 16.7993 44.2008 16.7509 44.2846 16.7186C44.3684 16.6863 44.4577 16.6709 44.5475 16.6731C44.6373 16.6754 44.7257 16.6953 44.8078 16.7317C44.8898 16.7681 44.9639 16.8204 45.0258 16.8855Z" fill="#0B5563"/>
</svg>
