<svg width="648" height="254" viewBox="0 0 648 254" fill="none" xmlns="http://www.w3.org/2000/svg">
<mask id="mask0_1_12553" style="mask-type:alpha" maskUnits="userSpaceOnUse" x="0" y="0" width="648" height="254">
<rect width="648" height="254" rx="10" fill="url(#paint0_linear_1_12553)"/>
</mask>
<g mask="url(#mask0_1_12553)">
<g filter="url(#filter0_i_1_12553)">
<rect x="174" y="57" width="300" height="130" rx="10" fill="white"/>
</g>
<rect x="174.5" y="57.5" width="299" height="129" rx="9.5" stroke="#EEEEEE"/>
<rect x="174.5" y="-45.5" width="299" height="92" rx="9.5" fill="white" stroke="#EEEEEE"/>
<rect x="174.5" y="197.5" width="299" height="92" rx="9.5" fill="white" stroke="#EEEEEE"/>
<path d="M434.119 79.0807L435.793 75H448.663C450.442 75.2441 453.999 76.8206 453.999 81.1733C453.999 85.1377 451.164 86.9148 449.367 87.4375C449.042 87.5321 448.702 87.5559 448.363 87.5559H439.56L441.443 83.2659H447.96C448.149 83.2659 448.338 83.2417 448.509 83.1628C449.095 82.893 449.919 82.2519 449.919 81.1733C449.919 80.0947 449.095 79.4536 448.509 79.1838C448.338 79.1049 448.149 79.0807 447.96 79.0807H434.119Z" fill="url(#paint1_linear_1_12553)"/>
<path d="M441.044 80.2988H436.441L431.209 92.8547H440.103L436.231 102.69L450.147 88.6694H437.592L441.044 80.2988Z" fill="url(#paint2_linear_1_12553)"/>
<path opacity="0.75" d="M196.523 137.69L193.341 126.054H194.773L197.205 135.531H197.318L199.795 126.054H201.386L203.864 135.531H203.977L206.409 126.054H207.841L204.659 137.69H203.205L200.636 128.417H200.545L197.977 137.69H196.523ZM211.988 137.872C211.2 137.872 210.509 137.684 209.914 137.309C209.323 136.934 208.861 136.41 208.528 135.735C208.198 135.061 208.033 134.273 208.033 133.372C208.033 132.463 208.198 131.669 208.528 130.991C208.861 130.313 209.323 129.787 209.914 129.412C210.509 129.037 211.2 128.849 211.988 128.849C212.776 128.849 213.465 129.037 214.056 129.412C214.651 129.787 215.113 130.313 215.442 130.991C215.776 131.669 215.942 132.463 215.942 133.372C215.942 134.273 215.776 135.061 215.442 135.735C215.113 136.41 214.651 136.934 214.056 137.309C213.465 137.684 212.776 137.872 211.988 137.872ZM211.988 136.667C212.586 136.667 213.079 136.514 213.465 136.207C213.851 135.9 214.137 135.497 214.323 134.997C214.509 134.497 214.601 133.955 214.601 133.372C214.601 132.788 214.509 132.245 214.323 131.741C214.137 131.237 213.851 130.83 213.465 130.519C213.079 130.209 212.586 130.054 211.988 130.054C211.389 130.054 210.897 130.209 210.51 130.519C210.124 130.83 209.838 131.237 209.653 131.741C209.467 132.245 209.374 132.788 209.374 133.372C209.374 133.955 209.467 134.497 209.653 134.997C209.838 135.497 210.124 135.9 210.51 136.207C210.897 136.514 211.389 136.667 211.988 136.667ZM217.829 137.69V128.963H219.125V130.281H219.216C219.375 129.849 219.662 129.499 220.079 129.23C220.496 128.961 220.966 128.826 221.488 128.826C221.587 128.826 221.71 128.828 221.858 128.832C222.005 128.836 222.117 128.841 222.193 128.849V130.213C222.147 130.201 222.043 130.184 221.88 130.162C221.721 130.135 221.553 130.122 221.375 130.122C220.95 130.122 220.572 130.211 220.238 130.389C219.909 130.563 219.647 130.805 219.454 131.116C219.265 131.423 219.17 131.773 219.17 132.167V137.69H217.829ZM224.963 126.054V137.69H223.622V126.054H224.963ZM230.555 137.872C229.827 137.872 229.185 137.688 228.628 137.321C228.072 136.949 227.636 136.427 227.322 135.752C227.007 135.074 226.85 134.273 226.85 133.349C226.85 132.432 227.007 131.637 227.322 130.963C227.636 130.288 228.074 129.768 228.634 129.4C229.195 129.033 229.842 128.849 230.577 128.849C231.146 128.849 231.594 128.944 231.924 129.133C232.257 129.319 232.511 129.531 232.685 129.769C232.863 130.004 233.002 130.198 233.1 130.349H233.214V126.054H234.555V137.69H233.259V136.349H233.1C233.002 136.508 232.861 136.709 232.68 136.951C232.498 137.19 232.238 137.404 231.901 137.593C231.564 137.779 231.115 137.872 230.555 137.872ZM230.736 136.667C231.274 136.667 231.729 136.527 232.1 136.247C232.471 135.963 232.753 135.571 232.947 135.071C233.14 134.567 233.236 133.985 233.236 133.326C233.236 132.675 233.142 132.105 232.952 131.616C232.763 131.124 232.483 130.741 232.111 130.468C231.74 130.192 231.282 130.054 230.736 130.054C230.168 130.054 229.695 130.199 229.316 130.491C228.941 130.779 228.659 131.171 228.469 131.667C228.284 132.16 228.191 132.713 228.191 133.326C228.191 133.948 228.286 134.512 228.475 135.019C228.668 135.523 228.952 135.925 229.327 136.224C229.706 136.519 230.176 136.667 230.736 136.667ZM239.014 137.69L236.355 128.963H237.764L239.65 135.644H239.741L241.605 128.963H243.037L244.878 135.622H244.968L246.855 128.963H248.264L245.605 137.69H244.287L242.378 130.985H242.241L240.332 137.69H239.014ZM249.877 137.69V128.963H251.218V137.69H249.877ZM250.558 127.508C250.297 127.508 250.072 127.419 249.882 127.241C249.697 127.063 249.604 126.849 249.604 126.599C249.604 126.349 249.697 126.135 249.882 125.957C250.072 125.779 250.297 125.69 250.558 125.69C250.82 125.69 251.043 125.779 251.229 125.957C251.418 126.135 251.513 126.349 251.513 126.599C251.513 126.849 251.418 127.063 251.229 127.241C251.043 127.419 250.82 127.508 250.558 127.508ZM256.809 137.872C256.082 137.872 255.44 137.688 254.883 137.321C254.326 136.949 253.89 136.427 253.576 135.752C253.262 135.074 253.104 134.273 253.104 133.349C253.104 132.432 253.262 131.637 253.576 130.963C253.89 130.288 254.328 129.768 254.889 129.4C255.449 129.033 256.097 128.849 256.832 128.849C257.4 128.849 257.849 128.944 258.178 129.133C258.512 129.319 258.765 129.531 258.94 129.769C259.118 130.004 259.256 130.198 259.354 130.349H259.468V126.054H260.809V137.69H259.514V136.349H259.354C259.256 136.508 259.116 136.709 258.934 136.951C258.752 137.19 258.493 137.404 258.156 137.593C257.818 137.779 257.37 137.872 256.809 137.872ZM256.991 136.667C257.529 136.667 257.983 136.527 258.354 136.247C258.726 135.963 259.008 135.571 259.201 135.071C259.394 134.567 259.491 133.985 259.491 133.326C259.491 132.675 259.396 132.105 259.207 131.616C259.017 131.124 258.737 130.741 258.366 130.468C257.995 130.192 257.536 130.054 256.991 130.054C256.423 130.054 255.949 130.199 255.57 130.491C255.195 130.779 254.913 131.171 254.724 131.667C254.538 132.16 254.445 132.713 254.445 133.326C254.445 133.948 254.54 134.512 254.729 135.019C254.923 135.523 255.207 135.925 255.582 136.224C255.96 136.519 256.43 136.667 256.991 136.667ZM266.95 137.872C266.109 137.872 265.384 137.686 264.774 137.315C264.168 136.94 263.7 136.417 263.371 135.747C263.045 135.073 262.882 134.288 262.882 133.394C262.882 132.501 263.045 131.713 263.371 131.031C263.7 130.345 264.158 129.811 264.746 129.429C265.336 129.042 266.026 128.849 266.814 128.849C267.268 128.849 267.717 128.925 268.16 129.076C268.604 129.228 269.007 129.474 269.371 129.815C269.734 130.152 270.024 130.599 270.24 131.156C270.456 131.713 270.564 132.398 270.564 133.213V133.781H263.836V132.622H269.2C269.2 132.129 269.102 131.69 268.905 131.304C268.711 130.917 268.435 130.612 268.075 130.389C267.719 130.165 267.299 130.054 266.814 130.054C266.28 130.054 265.818 130.186 265.427 130.451C265.041 130.713 264.744 131.054 264.535 131.474C264.327 131.894 264.223 132.345 264.223 132.826V133.599C264.223 134.258 264.336 134.817 264.564 135.275C264.795 135.73 265.115 136.076 265.524 136.315C265.933 136.55 266.408 136.667 266.95 136.667C267.302 136.667 267.621 136.618 267.905 136.519C268.193 136.417 268.441 136.266 268.649 136.065C268.857 135.86 269.018 135.607 269.132 135.304L270.427 135.667C270.291 136.107 270.062 136.493 269.74 136.826C269.418 137.156 269.02 137.413 268.547 137.599C268.073 137.781 267.541 137.872 266.95 137.872ZM278.374 126.054V137.69H276.965V126.054H278.374ZM281.04 137.69V126.054H284.972C285.884 126.054 286.631 126.218 287.21 126.548C287.794 126.874 288.225 127.315 288.506 127.872C288.786 128.429 288.926 129.05 288.926 129.735C288.926 130.421 288.786 131.044 288.506 131.605C288.229 132.165 287.801 132.612 287.222 132.946C286.642 133.275 285.9 133.44 284.994 133.44H282.176V132.19H284.949C285.574 132.19 286.076 132.082 286.454 131.866C286.833 131.65 287.108 131.359 287.278 130.991C287.453 130.62 287.54 130.201 287.54 129.735C287.54 129.269 287.453 128.853 287.278 128.485C287.108 128.118 286.831 127.83 286.449 127.622C286.066 127.41 285.559 127.304 284.926 127.304H282.449V137.69H281.04ZM297.036 130.917L295.831 131.258C295.756 131.057 295.644 130.862 295.496 130.673C295.352 130.48 295.155 130.321 294.905 130.196C294.655 130.071 294.335 130.008 293.945 130.008C293.411 130.008 292.966 130.131 292.61 130.377C292.258 130.62 292.081 130.929 292.081 131.304C292.081 131.637 292.203 131.9 292.445 132.093C292.687 132.287 293.066 132.448 293.581 132.576L294.877 132.894C295.657 133.084 296.239 133.374 296.621 133.764C297.004 134.15 297.195 134.648 297.195 135.258C297.195 135.758 297.051 136.205 296.763 136.599C296.479 136.993 296.081 137.304 295.57 137.531C295.059 137.758 294.464 137.872 293.786 137.872C292.896 137.872 292.159 137.679 291.576 137.292C290.992 136.906 290.623 136.341 290.468 135.599L291.741 135.281C291.862 135.751 292.091 136.103 292.428 136.338C292.769 136.573 293.214 136.69 293.763 136.69C294.388 136.69 294.884 136.557 295.252 136.292C295.623 136.023 295.809 135.701 295.809 135.326C295.809 135.023 295.703 134.769 295.491 134.565C295.278 134.357 294.953 134.201 294.513 134.099L293.059 133.758C292.259 133.569 291.672 133.275 291.297 132.877C290.926 132.476 290.741 131.974 290.741 131.372C290.741 130.879 290.879 130.444 291.155 130.065C291.436 129.686 291.816 129.389 292.297 129.173C292.782 128.957 293.331 128.849 293.945 128.849C294.809 128.849 295.487 129.038 295.979 129.417C296.475 129.796 296.828 130.296 297.036 130.917Z" fill="#1D2026"/>
<path d="M200.609 147.69V163.69H198.188V150.112H198.094L194.266 152.612V150.299L198.258 147.69H200.609ZM210.068 163.956C208.833 163.95 207.779 163.625 206.904 162.979C206.029 162.333 205.359 161.393 204.896 160.159C204.432 158.924 204.201 157.437 204.201 155.698C204.201 153.963 204.432 152.482 204.896 151.252C205.365 150.023 206.037 149.086 206.912 148.44C207.792 147.794 208.844 147.471 210.068 147.471C211.292 147.471 212.341 147.797 213.216 148.448C214.091 149.094 214.761 150.031 215.224 151.26C215.693 152.484 215.927 153.963 215.927 155.698C215.927 157.443 215.695 158.932 215.232 160.167C214.768 161.396 214.099 162.336 213.224 162.987C212.349 163.633 211.297 163.956 210.068 163.956ZM210.068 161.87C211.151 161.87 211.998 161.341 212.607 160.284C213.221 159.226 213.529 157.698 213.529 155.698C213.529 154.37 213.388 153.247 213.107 152.331C212.831 151.409 212.432 150.711 211.912 150.237C211.396 149.758 210.781 149.518 210.068 149.518C208.99 149.518 208.143 150.049 207.529 151.112C206.914 152.174 206.604 153.703 206.599 155.698C206.599 157.031 206.737 158.159 207.013 159.081C207.294 159.997 207.693 160.693 208.208 161.167C208.724 161.635 209.344 161.87 210.068 161.87ZM220.749 161.502L220.632 162.354C220.554 162.979 220.421 163.63 220.233 164.307C220.051 164.989 219.861 165.622 219.663 166.206C219.47 166.789 219.311 167.252 219.186 167.596H217.53C217.598 167.273 217.692 166.836 217.811 166.284C217.931 165.737 218.048 165.125 218.163 164.448C218.278 163.771 218.363 163.081 218.421 162.377L218.499 161.502H220.749ZM228.6 163.909C227.621 163.909 226.741 163.721 225.959 163.346C225.183 162.966 224.563 162.445 224.1 161.784C223.636 161.122 223.389 160.367 223.358 159.518H225.701C225.759 160.206 226.063 160.771 226.616 161.213C227.168 161.656 227.829 161.877 228.6 161.877C229.215 161.877 229.759 161.737 230.233 161.456C230.712 161.169 231.087 160.776 231.358 160.276C231.634 159.776 231.772 159.206 231.772 158.565C231.772 157.914 231.631 157.333 231.35 156.823C231.069 156.312 230.681 155.911 230.186 155.62C229.696 155.328 229.134 155.18 228.498 155.174C228.014 155.174 227.527 155.258 227.037 155.424C226.548 155.591 226.152 155.81 225.85 156.081L223.639 155.752L224.537 147.69H233.334V149.76H226.545L226.037 154.237H226.131C226.444 153.935 226.858 153.682 227.373 153.479C227.894 153.276 228.451 153.174 229.045 153.174C230.019 153.174 230.886 153.406 231.647 153.87C232.412 154.333 233.014 154.966 233.451 155.768C233.894 156.565 234.113 157.482 234.108 158.518C234.113 159.555 233.879 160.479 233.405 161.292C232.936 162.104 232.285 162.745 231.451 163.213C230.623 163.677 229.673 163.909 228.6 163.909ZM242.592 147.69V163.69H240.17V150.112H240.076L236.248 152.612V150.299L240.24 147.69H242.592ZM252.05 163.956C250.816 163.95 249.761 163.625 248.886 162.979C248.011 162.333 247.342 161.393 246.878 160.159C246.415 158.924 246.183 157.437 246.183 155.698C246.183 153.963 246.415 152.482 246.878 151.252C247.347 150.023 248.019 149.086 248.894 148.44C249.774 147.794 250.826 147.471 252.05 147.471C253.274 147.471 254.323 147.797 255.198 148.448C256.073 149.094 256.743 150.031 257.206 151.26C257.675 152.484 257.909 153.963 257.909 155.698C257.909 157.443 257.678 158.932 257.214 160.167C256.751 161.396 256.081 162.336 255.206 162.987C254.331 163.633 253.279 163.956 252.05 163.956ZM252.05 161.87C253.133 161.87 253.98 161.341 254.589 160.284C255.204 159.226 255.511 157.698 255.511 155.698C255.511 154.37 255.37 153.247 255.089 152.331C254.813 151.409 254.415 150.711 253.894 150.237C253.378 149.758 252.764 149.518 252.05 149.518C250.972 149.518 250.126 150.049 249.511 151.112C248.896 152.174 248.586 153.703 248.581 155.698C248.581 157.031 248.719 158.159 248.995 159.081C249.277 159.997 249.675 160.693 250.191 161.167C250.706 161.635 251.326 161.87 252.05 161.87ZM262.731 161.502L262.614 162.354C262.536 162.979 262.403 163.63 262.215 164.307C262.033 164.989 261.843 165.622 261.645 166.206C261.452 166.789 261.294 167.252 261.169 167.596H259.512C259.58 167.273 259.674 166.836 259.794 166.284C259.913 165.737 260.031 165.125 260.145 164.448C260.26 163.771 260.346 163.081 260.403 162.377L260.481 161.502H262.731ZM265.559 163.69V161.94L270.973 156.331C271.551 155.721 272.027 155.187 272.402 154.729C272.783 154.265 273.066 153.825 273.254 153.409C273.441 152.992 273.535 152.549 273.535 152.081C273.535 151.549 273.41 151.091 273.16 150.706C272.91 150.315 272.569 150.015 272.137 149.807C271.705 149.594 271.218 149.487 270.676 149.487C270.103 149.487 269.603 149.604 269.176 149.838C268.749 150.073 268.421 150.403 268.191 150.831C267.962 151.258 267.848 151.758 267.848 152.331H265.543C265.543 151.357 265.767 150.505 266.215 149.776C266.663 149.047 267.277 148.482 268.059 148.081C268.84 147.674 269.728 147.471 270.723 147.471C271.728 147.471 272.613 147.672 273.379 148.073C274.15 148.469 274.751 149.01 275.184 149.698C275.616 150.38 275.832 151.151 275.832 152.01C275.832 152.604 275.72 153.185 275.496 153.752C275.277 154.32 274.895 154.953 274.348 155.651C273.801 156.344 273.04 157.185 272.066 158.174L268.887 161.502V161.62H276.09V163.69H265.559ZM284.681 147.69V163.69H282.259V150.112H282.166L278.337 152.612V150.299L282.33 147.69H284.681ZM288.233 160.565V158.612L295.147 147.69H296.686V150.565H295.71L290.765 158.393V158.518H300.241V160.565H288.233ZM295.819 163.69V159.971L295.835 159.081V147.69H298.124V163.69H295.819Z" fill="#1D2026"/>
<g filter="url(#filter1_d_1_12553)">
<rect x="331" y="151.69" width="123" height="8" rx="4" fill="#12A250"/>
</g>
<g filter="url(#filter2_i_1_12553)">
<circle cx="122" cy="83" r="35" fill="white"/>
</g>
<circle cx="122" cy="83" r="34.5" stroke="#EEEEEE"/>
<circle cx="121.089" cy="82.9999" r="19.5556" fill="white"/>
<mask id="mask1_1_12553" style="mask-type:alpha" maskUnits="userSpaceOnUse" x="101" y="63" width="40" height="40">
<circle cx="121.089" cy="82.9999" r="19.5556" fill="#FCFCFC"/>
</mask>
<g mask="url(#mask1_1_12553)">
<rect x="107.889" y="98.1553" width="26.8889" height="4.88889" fill="#D90026"/>
<rect x="107.889" y="98.1553" width="26.8889" height="4.88889" fill="#D90026"/>
<rect x="102.021" y="88.3779" width="38.6222" height="4.88889" fill="#D90026"/>
<rect x="102.021" y="88.3779" width="38.6222" height="4.88889" fill="#D90026"/>
<rect x="102.021" y="78.1108" width="38.6222" height="4.88889" fill="#D90026"/>
<rect x="102.021" y="78.1108" width="38.6222" height="4.88889" fill="#D90026"/>
<rect x="102.021" y="68.333" width="38.6222" height="4.88889" fill="#D90026"/>
<rect x="102.021" y="68.333" width="38.6222" height="4.88889" fill="#D90026"/>
<rect x="101.533" y="63.4443" width="20.0444" height="19.5556" fill="#0052B5"/>
<path d="M117.666 79.8223L116.2 80.5556L116.689 79.089L115.711 78.1112H117.178L117.666 76.6445L118.4 78.1112H119.622L118.644 79.089L119.133 80.5556L117.666 79.8223Z" fill="white"/>
<path d="M110.823 79.8223L109.356 80.5556L109.845 79.089L108.867 78.1112H110.334L110.823 76.6445L111.556 78.1112H112.778L111.801 79.089L112.289 80.5556L110.823 79.8223Z" fill="white"/>
<path d="M103.977 79.8223L102.51 80.5556L102.999 79.089L102.021 78.1112H103.488L103.977 76.6445L104.71 78.1112H105.933L104.955 79.089L105.444 80.5556L103.977 79.8223Z" fill="white"/>
<path d="M117.666 74.4444L116.2 75.1777L116.689 73.711L115.711 72.7333H117.178L117.666 71.2666L118.4 72.7333H119.622L118.644 73.711L119.133 75.1777L117.666 74.4444Z" fill="white"/>
<path d="M117.666 69.0664L116.2 69.7998L116.689 68.3331L115.711 67.3553H117.178L117.666 65.8887L118.4 67.3553H119.622L118.644 68.3331L119.133 69.7998L117.666 69.0664Z" fill="white"/>
<path d="M117.666 63.689L116.2 64.4223L116.689 62.9557L115.711 61.9779H117.178L117.666 60.5112L118.4 61.9779H119.622L118.644 62.9557L119.133 64.4223L117.666 63.689Z" fill="white"/>
<path d="M110.823 69.0664L109.356 69.7998L109.845 68.3331L108.867 67.3553H110.334L110.823 65.8887L111.556 67.3553H112.778L111.801 68.3331L112.289 69.7998L110.823 69.0664Z" fill="white"/>
<path d="M110.823 74.4444L109.356 75.1777L109.845 73.711L108.867 72.7333H110.334L110.823 71.2666L111.556 72.7333H112.778L111.801 73.711L112.289 75.1777L110.823 74.4444Z" fill="white"/>
<path d="M103.977 74.4444L102.51 75.1777L102.999 73.711L102.021 72.7333H103.488L103.977 71.2666L104.71 72.7333H105.933L104.955 73.711L105.444 75.1777L103.977 74.4444Z" fill="white"/>
</g>
<g filter="url(#filter3_i_1_12553)">
<circle cx="122" cy="-2" r="35" fill="white"/>
</g>
<circle cx="122" cy="-2" r="34.5" stroke="#EEEEEE"/>
<path d="M121.466 17.5554C110.665 17.5554 101.91 8.80013 101.91 -2.00011C101.91 -12.8003 110.665 -21.5557 121.466 -21.5557C132.266 -21.5557 141.021 -12.8003 141.021 -2.00011C141.021 8.80013 132.266 17.5554 121.466 17.5554Z" fill="#FFDB44"/>
<path d="M139.79 -8.84455C137.016 -16.2691 129.858 -21.5557 121.466 -21.5557C113.073 -21.5557 105.916 -16.2691 103.141 -8.84455L139.79 -8.84455Z" fill="#D90026"/>
<path d="M103.141 4.84433C105.916 12.2689 113.073 17.5554 121.466 17.5554C129.858 17.5554 137.016 12.2689 139.79 4.84433L103.141 4.84433Z" fill="#D90026"/>
<g filter="url(#filter4_i_1_12553)">
<circle cx="122" cy="168" r="35" fill="white"/>
</g>
<circle cx="122" cy="168" r="34.5" stroke="#EEEEEE"/>
<path d="M121.599 187.555C110.799 187.555 102.043 178.8 102.043 168C102.043 157.2 110.799 148.444 121.599 148.444C132.399 148.444 141.154 157.2 141.154 168C141.154 178.8 132.399 187.555 121.599 187.555Z" fill="#0052B5"/>
<path d="M139.924 161.155C137.149 153.731 129.992 148.444 121.6 148.444C113.207 148.444 106.05 153.731 103.275 161.155L139.924 161.155Z" fill="white"/>
<path d="M103.273 174.845C106.048 182.269 113.205 187.556 121.598 187.556C129.99 187.556 137.148 182.269 139.922 174.845L103.273 174.845Z" fill="#D90026"/>
<g filter="url(#filter5_i_1_12553)">
<circle cx="122" cy="253" r="35" fill="white"/>
</g>
<circle cx="122" cy="253" r="34.5" stroke="#EEEEEE"/>
<path d="M121.577 272.723C132.335 272.723 141.056 264.002 141.056 253.244C141.056 242.486 132.335 233.765 121.577 233.765C110.819 233.765 102.098 242.486 102.098 253.244C102.098 264.002 110.819 272.723 121.577 272.723Z" fill="#F5F5F5"/>
<path d="M115.993 254.348C117.811 255.582 120.344 255.062 121.577 253.244C122.811 251.426 125.278 250.907 127.161 252.141C128.915 253.309 129.434 255.582 128.46 257.335C130.603 253.699 129.629 248.959 125.993 246.557C122.292 244.089 117.292 245.063 114.825 248.764C114.76 248.894 114.695 249.024 114.63 249.089C113.721 250.972 114.305 253.179 115.993 254.348Z" fill="#ED4C5C"/>
<path d="M127.16 252.141C125.342 250.907 122.81 251.426 121.576 253.244C120.343 255.062 117.875 255.582 115.992 254.348C114.239 253.18 113.72 250.907 114.694 249.154C112.486 252.79 113.525 257.53 117.161 259.932C120.862 262.4 125.862 261.426 128.329 257.725C128.394 257.595 128.459 257.465 128.524 257.4C129.433 255.517 128.849 253.309 127.16 252.141Z" fill="#428BC1"/>
<path d="M105.864 247.595L110.344 240.908L109.89 240.583L109.435 240.323L104.955 247.011L105.41 247.271L105.864 247.595Z" fill="#3E4347"/>
<path d="M107.097 248.44L107.552 248.699L111.967 242.012L111.577 241.752L111.123 241.427L106.643 248.115L107.097 248.44Z" fill="#3E4347"/>
<path d="M112.747 242.531L108.332 249.219L108.787 249.543L109.241 249.803L113.656 243.115L113.202 242.855L112.747 242.531Z" fill="#3E4347"/>
<path d="M135.343 243.765L135.797 243.44L133.72 240.323L133.265 240.583L132.811 240.908L134.888 244.024L135.343 243.765Z" fill="#3E4347"/>
<path d="M132.03 245.972L132.485 245.647L130.407 242.531L129.953 242.855L129.498 243.115L131.576 246.232L132.03 245.972Z" fill="#3E4347"/>
<path d="M135.213 244.479L137.291 247.596L137.745 247.271L138.2 247.011L136.122 243.895L135.667 244.154L135.213 244.479Z" fill="#3E4347"/>
<path d="M136.057 248.44L136.512 248.115L132.032 241.427L131.577 241.752L131.188 242.012L135.603 248.699L136.057 248.44Z" fill="#3E4347"/>
<path d="M134.368 249.543L134.823 249.219L132.745 246.102L132.29 246.427L131.836 246.686L133.914 249.803L134.368 249.543Z" fill="#3E4347"/>
<g filter="url(#filter6_i_1_12553)">
<circle cx="52" cy="48" r="35" fill="white"/>
</g>
<circle cx="52" cy="48" r="34.5" stroke="#EEEEEE"/>
<path d="M71.3767 47.9999C71.3767 58.8001 62.6214 67.5554 51.8212 67.5554C41.0209 67.5554 32.2656 58.8001 32.2656 47.9999C32.2656 37.1997 41.0209 28.4443 51.8212 28.4443C62.6214 28.4443 71.3767 37.1997 71.3767 47.9999Z" fill="#FCFCFC"/>
<path d="M60.1323 47.9999C60.1323 52.59 56.4113 56.311 51.8212 56.311C47.2311 56.311 43.5101 52.59 43.5101 47.9999C43.5101 43.4098 47.2311 39.6888 51.8212 39.6888C56.4113 39.6888 60.1323 43.4098 60.1323 47.9999Z" fill="#D90026"/>
<g filter="url(#filter7_i_1_12553)">
<circle cx="35" cy="35" r="35" transform="matrix(1 0 0 -1 17 168)" fill="white"/>
</g>
<circle cx="35" cy="35" r="34.5" transform="matrix(1 0 0 -1 17 168)" stroke="#EEEEEE"/>
<path d="M71.156 133C71.156 143.8 62.4007 152.555 51.6005 152.555C40.8002 152.555 32.0449 143.8 32.0449 133C32.0449 122.2 40.8002 113.444 51.6005 113.444C62.4007 113.444 71.156 122.2 71.156 133Z" fill="#0052B5"/>
<path d="M46.7116 124.2V114.06C47.5079 113.855 48.3238 113.699 49.156 113.596C49.9568 113.496 50.7726 113.444 51.6005 113.444C52.4283 113.444 53.2441 113.496 54.0449 113.596C54.8771 113.699 55.6931 113.855 56.4894 114.06V126.889L64.8005 118.571C65.6964 119.391 67.0031 121.027 67.7338 122L61.3783 128.111H70.5399C70.7449 128.907 70.901 129.723 71.0047 130.555C71.1046 131.356 71.156 132.172 71.156 133C71.156 133.828 71.1046 134.644 71.0047 135.444C70.901 136.277 70.7449 137.092 70.5399 137.889H59.9116L67.2464 144.733C66.1952 146.133 64.9606 147.387 63.5783 148.459L56.4894 141.311V151.939C55.6931 152.144 54.8771 152.3 54.0449 152.404C53.2441 152.504 52.4283 152.555 51.6005 152.555C50.7726 152.555 49.9568 152.504 49.156 152.404C48.3238 152.3 47.5079 152.144 46.7116 151.939L46.7116 139.355L38.6449 147.649C37.5509 146.68 36.5662 145.591 35.7116 144.403L42.8005 137.889H32.661C32.4561 137.092 32.3 136.277 32.1962 135.444C32.0964 134.644 32.0449 133.828 32.0449 133C32.0449 132.172 32.0964 131.356 32.1962 130.555C32.3 129.723 32.456 128.907 32.661 128.111H43.0449L35.956 121.265C37.041 119.821 38.3213 118.532 39.7577 117.437L46.7116 124.2Z" fill="white"/>
<path d="M46.7116 128.111L37.7869 119.158C37.315 119.629 36.867 120.124 36.4449 120.641L44.2671 128.111H46.7116Z" fill="#D90026"/>
<path d="M56.4894 128.111L65.4141 119.158C65.886 119.629 66.334 120.124 66.756 120.641L58.9338 128.111H56.4894Z" fill="#D90026"/>
<path d="M56.4894 138.057L65.4141 147.01C65.886 146.539 66.334 146.044 66.756 145.527L58.9338 138.057H56.4894Z" fill="#D90026"/>
<path d="M46.7116 138.057L37.7869 147.01C37.315 146.539 36.867 146.044 36.4449 145.527L44.2671 138.057H46.7116Z" fill="#D90026"/>
<path d="M32.1962 130.555C32.0964 131.356 32.0449 132.172 32.0449 133C32.0449 133.828 32.0964 134.644 32.1962 135.444H49.156V152.404C49.9568 152.504 50.7726 152.555 51.6005 152.555C52.4283 152.555 53.2441 152.504 54.0449 152.404V135.444H71.0047C71.1046 134.644 71.156 133.828 71.156 133C71.156 132.172 71.1046 131.356 71.0047 130.555H54.0449V113.596C53.0881 113.452 52.5974 113.444 51.6005 113.444C50.7726 113.444 49.9568 113.496 49.156 113.596V130.555H32.1962Z" fill="#D90026"/>
<g filter="url(#filter8_i_1_12553)">
<circle cx="52" cy="218" r="35" fill="white"/>
</g>
<circle cx="52" cy="218" r="34.5" stroke="#EEEEEE"/>
<path d="M52.1769 237.555C41.3766 237.555 32.6213 228.8 32.6213 218C32.6213 207.2 41.3766 198.444 52.1769 198.444C62.9771 198.444 71.7324 207.2 71.7324 218C71.7324 228.8 62.9771 237.555 52.1769 237.555Z" fill="#FDFDFD"/>
<path d="M69.2559 208.467C65.9108 202.487 59.5162 198.444 52.1774 198.444C44.8387 198.444 38.4441 202.487 35.099 208.467L69.2559 208.467Z" fill="#338AF3"/>
<path d="M69.2559 208.467C65.9108 202.487 59.5162 198.444 52.1774 198.444C44.8387 198.444 38.4441 202.487 35.099 208.467L69.2559 208.467Z" fill="#338AF3"/>
<path d="M35.0977 227.778C38.4427 233.757 44.8373 237.8 52.1761 237.8C59.5148 237.8 65.9094 233.757 69.2545 227.778L35.0977 227.778Z" fill="#338AF3"/>
<path d="M35.0977 227.778C38.4427 233.757 44.8373 237.8 52.1761 237.8C59.5148 237.8 65.9094 233.757 69.2545 227.778L35.0977 227.778Z" fill="#338AF3"/>
<path d="M51.934 213.844L49.9784 211.889L49.4895 214.578L46.5562 214.333L47.7784 216.778L45.334 218L47.7784 219.222L46.8007 221.666L49.4895 221.422L49.9784 224.355L51.934 222.155L53.8895 224.355L54.3784 221.422L57.0673 221.666L56.0895 219.222L58.534 218L55.8451 216.778L57.0673 214.333L54.3784 214.578L53.8895 211.889L51.934 213.844Z" fill="#FFDA44"/>
<g filter="url(#filter9_i_1_12553)">
<circle cx="35" cy="35" r="35" transform="matrix(-1 0 0 1 561 59)" fill="white"/>
</g>
<circle cx="35" cy="35" r="34.5" transform="matrix(-1 0 0 1 561 59)" stroke="#EEEEEE"/>
<path d="M544.732 93.9999C544.732 104.8 535.977 113.555 525.177 113.555C514.376 113.555 505.621 104.8 505.621 93.9999C505.621 83.1997 514.376 74.4443 525.177 74.4443C535.977 74.4443 544.732 83.1997 544.732 93.9999Z" fill="#6EA644"/>
<path d="M525.666 82.2666L541.799 93.9999L525.666 105.733L509.532 93.9999L525.666 82.2666Z" fill="#FFDB44"/>
<path d="M532.51 93.9999C532.51 97.78 529.446 100.844 525.666 100.844C521.885 100.844 518.821 97.78 518.821 93.9999C518.821 90.2198 521.885 87.1554 525.666 87.1554C529.446 87.1554 532.51 90.2198 532.51 93.9999Z" fill="#0051B5"/>
<path d="M519.48 91.0666C519.057 91.9556 518.821 92.9502 518.821 93.9999C525.861 92.8266 529.943 96.2814 531.105 98.1555C531.799 97.248 532.271 96.1617 532.441 94.9777C528.53 91.0666 522.17 90.7406 519.48 91.0666Z" fill="white"/>
<g filter="url(#filter10_i_1_12553)">
<circle cx="35" cy="35" r="35" transform="matrix(-1 0 0 1 561 -26)" fill="white"/>
</g>
<circle cx="35" cy="35" r="34.5" transform="matrix(-1 0 0 1 561 -26)" stroke="#EEEEEE"/>
<path d="M529.668 -8.9668H522.335C515.185 -7.50013 509.502 -1.87791 508.035 5.3332V12.6665C509.502 19.8776 515.185 25.4999 522.335 26.9665H529.668C536.88 25.4999 542.502 19.8165 543.968 12.6665V5.3332C542.502 -1.87791 536.818 -7.50013 529.668 -8.9668Z" fill="white"/>
<path d="M543.833 13.2776C544.167 11.8763 544.336 10.4405 544.335 8.99984C544.335 7.52706 544.161 6.09462 543.833 4.72206H530.279V-8.83177C528.878 -9.16606 527.442 -9.33446 526.001 -9.33349C524.529 -9.33349 523.096 -9.15994 521.724 -8.83177V4.72206H508.17C507.835 6.1234 507.667 7.55918 507.668 8.99984C507.668 10.4726 507.842 11.9051 508.17 13.2776H521.724V26.8315C523.125 27.1657 524.561 27.3341 526.001 27.3332C527.474 27.3332 528.907 27.1596 530.279 26.8315V13.2776H543.833Z" fill="#CE1124"/>
<g filter="url(#filter11_i_1_12553)">
<circle cx="35" cy="35" r="35" transform="matrix(-1 0 0 1 561 144)" fill="white"/>
</g>
<circle cx="35" cy="35" r="34.5" transform="matrix(-1 0 0 1 561 144)" stroke="#EEEEEE"/>
<path d="M525.733 198.555C514.933 198.555 506.178 189.8 506.178 179C506.178 168.2 514.933 159.444 525.733 159.444C536.534 159.444 545.289 168.2 545.289 179C545.289 189.8 536.534 198.555 525.733 198.555Z" fill="#D90026"/>
<path d="M544.058 172.155C541.283 164.731 534.126 159.444 525.733 159.444C517.341 159.444 510.183 164.731 507.409 172.155L544.058 172.155Z" fill="black"/>
<path d="M507.409 185.844C510.183 193.269 517.341 198.555 525.733 198.555C534.126 198.555 541.283 193.269 544.058 185.844L507.409 185.844Z" fill="#FFDB44"/>
<g filter="url(#filter12_i_1_12553)">
<circle cx="35" cy="35" r="35" transform="matrix(-1 0 0 1 561 229)" fill="white"/>
</g>
<circle cx="35" cy="35" r="34.5" transform="matrix(-1 0 0 1 561 229)" stroke="#EEEEEE"/>
<g filter="url(#filter13_i_1_12553)">
<circle cx="35" cy="35" r="35" transform="matrix(-1 0 0 1 631 24)" fill="white"/>
</g>
<circle cx="35" cy="35" r="34.5" transform="matrix(-1 0 0 1 631 24)" stroke="#EEEEEE"/>
<path d="M605.309 43.4776C602.498 41.7054 599.137 40.6665 595.532 40.6665C591.926 40.6665 588.565 41.7054 585.754 43.4776V74.4609C588.565 76.2332 591.926 77.2721 595.532 77.2721C599.137 77.2721 602.498 76.2332 605.309 74.4609V43.4776Z" fill="#F9F9F9"/>
<path d="M605.311 43.4775V74.4609C610.444 71.2831 613.866 65.4164 613.866 58.9386C613.866 52.4609 610.444 46.7164 605.311 43.4775Z" fill="#D90026"/>
<path d="M585.755 43.4775C580.621 46.7164 577.199 52.5831 577.199 58.9998C577.199 65.4164 580.621 71.2831 585.755 74.522V43.4775Z" fill="#D90026"/>
<path d="M602.194 58.7552C601.949 58.633 601.888 58.3885 601.949 58.2663L602.56 56.0663L600.421 56.4941C600.36 56.4941 600.116 56.4941 600.055 56.0663L599.871 55.333L598.405 57.0441C598.405 57.0441 597.427 58.083 597.733 56.4941L598.344 53.133L597.183 53.7441C597.121 53.7441 596.877 53.8052 596.571 53.1941L595.533 51.0552L594.433 53.0718C594.127 53.683 593.883 53.6218 593.821 53.6218L592.66 53.0107L593.271 56.3718C593.577 57.9607 592.599 56.9218 592.599 56.9218L591.133 55.2107L590.949 55.9441C590.827 56.3718 590.644 56.3718 590.583 56.3718L588.444 55.9441L589.055 58.1441C589.055 58.3274 589.055 58.5107 588.81 58.633L588.199 58.9996C588.199 58.9996 590.644 60.9552 591.438 61.6274C591.621 61.7496 591.988 62.1163 591.866 62.5441L591.56 63.3996L594.921 62.9107C595.105 62.9107 595.471 62.9107 595.41 63.4607L595.227 66.9441H595.838L595.655 63.4607C595.655 62.9107 596.021 62.9107 596.144 62.9107L599.505 63.3996L599.199 62.5441C599.077 62.1163 599.444 61.7496 599.627 61.6274C600.421 60.9552 602.866 58.9996 602.866 58.9996L602.194 58.7552Z" fill="#D90026"/>
<g filter="url(#filter14_i_1_12553)">
<circle cx="35" cy="35" r="35" transform="matrix(-1 0 0 1 631 109)" fill="white"/>
</g>
<circle cx="35" cy="35" r="34.5" transform="matrix(-1 0 0 1 631 109)" stroke="#EEEEEE"/>
<path d="M595.532 163.555C584.732 163.555 575.977 154.8 575.977 144C575.977 133.2 584.732 124.444 595.532 124.444C606.332 124.444 615.088 133.2 615.088 144C615.088 154.8 606.332 163.555 595.532 163.555Z" fill="#D90026"/>
<path d="M598.428 136.665L596.506 136.458L597.925 135.314L597.578 133.721L599.033 134.656L600.453 133.513L600.246 135.435L601.458 136.213L599.865 136.56L599.416 138.327L598.428 136.665Z" fill="#FFDB44"/>
<path d="M586.732 147.483L581.965 149.867L583.554 145.1L580.377 141.922H585.143L586.732 137.155L589.115 141.922H593.088L589.91 145.1L591.499 149.867L586.732 147.483Z" fill="#FFDB44"/>
<path d="M598.428 151.351L596.506 151.558L597.925 152.702L597.578 154.294L599.033 153.36L600.453 154.503L600.246 152.581L601.458 151.803L599.865 151.456L599.416 149.689L598.428 151.351Z" fill="#FFDB44"/>
<path d="M603.068 141.834L601.285 141.086L602.973 140.397L603.096 138.771L604.223 140.083L605.91 139.393L605.162 141.176L606.101 142.269L604.475 142.146L603.539 143.709L603.068 141.834Z" fill="#FFDB44"/>
<path d="M603.068 147.29L601.285 148.039L602.973 148.728L603.096 150.354L604.223 149.042L605.91 149.731L605.162 147.948L606.101 146.855L604.475 146.979L603.539 145.415L603.068 147.29Z" fill="#FFDB44"/>
<g filter="url(#filter15_i_1_12553)">
<circle cx="35" cy="35" r="35" transform="matrix(-1 0 0 1 631 194)" fill="white"/>
</g>
<circle cx="35" cy="35" r="34.5" transform="matrix(-1 0 0 1 631 194)" stroke="#EEEEEE"/>
<path d="M596.243 247.333C606.369 247.333 614.577 239.125 614.577 229C614.577 218.875 606.369 210.667 596.243 210.667C586.118 210.667 577.91 218.875 577.91 229C577.91 239.125 586.118 247.333 596.243 247.333Z" fill="#D90026"/>
<path d="M601.928 233.277L601.989 229.977L598.689 228.999L601.989 228.022L601.928 224.722L603.945 227.349L607.245 226.372L605.228 228.999L607.245 231.627L603.945 230.649L601.928 233.277Z" fill="white"/>
<path d="M596.977 236.333C592.944 236.333 589.705 233.033 589.705 229C589.705 224.966 592.944 221.666 596.977 221.666C598.505 221.666 599.911 222.155 601.133 222.95C599.483 221.055 597.039 219.833 594.289 219.833C589.277 219.833 585.244 223.927 585.244 229C585.244 234.072 589.277 238.166 594.289 238.166C597.039 238.166 599.483 236.944 601.133 235.05C599.972 235.844 598.566 236.333 596.977 236.333Z" fill="white"/>
</g>
<defs>
<filter id="filter0_i_1_12553" x="174" y="55" width="300" height="132" filterUnits="userSpaceOnUse" color-interpolation-filters="sRGB">
<feFlood flood-opacity="0" result="BackgroundImageFix"/>
<feBlend mode="normal" in="SourceGraphic" in2="BackgroundImageFix" result="shape"/>
<feColorMatrix in="SourceAlpha" type="matrix" values="0 0 0 0 0 0 0 0 0 0 0 0 0 0 0 0 0 0 127 0" result="hardAlpha"/>
<feOffset dy="-6"/>
<feGaussianBlur stdDeviation="1"/>
<feComposite in2="hardAlpha" operator="arithmetic" k2="-1" k3="1"/>
<feColorMatrix type="matrix" values="0 0 0 0 0 0 0 0 0 0 0 0 0 0 0 0 0 0 0.1 0"/>
<feBlend mode="normal" in2="shape" result="effect1_innerShadow_1_12553"/>
</filter>
<filter id="filter1_d_1_12553" x="329.4" y="150.09" width="126.2" height="11.2" filterUnits="userSpaceOnUse" color-interpolation-filters="sRGB">
<feFlood flood-opacity="0" result="BackgroundImageFix"/>
<feColorMatrix in="SourceAlpha" type="matrix" values="0 0 0 0 0 0 0 0 0 0 0 0 0 0 0 0 0 0 127 0" result="hardAlpha"/>
<feMorphology radius="1.6" operator="dilate" in="SourceAlpha" result="effect1_dropShadow_1_12553"/>
<feOffset/>
<feComposite in2="hardAlpha" operator="out"/>
<feColorMatrix type="matrix" values="0 0 0 0 0.0705882 0 0 0 0 0.635294 0 0 0 0 0.313726 0 0 0 0.25 0"/>
<feBlend mode="normal" in2="BackgroundImageFix" result="effect1_dropShadow_1_12553"/>
<feBlend mode="normal" in="SourceGraphic" in2="effect1_dropShadow_1_12553" result="shape"/>
</filter>
<filter id="filter2_i_1_12553" x="87" y="48" width="70" height="70" filterUnits="userSpaceOnUse" color-interpolation-filters="sRGB">
<feFlood flood-opacity="0" result="BackgroundImageFix"/>
<feBlend mode="normal" in="SourceGraphic" in2="BackgroundImageFix" result="shape"/>
<feColorMatrix in="SourceAlpha" type="matrix" values="0 0 0 0 0 0 0 0 0 0 0 0 0 0 0 0 0 0 127 0" result="hardAlpha"/>
<feOffset dy="-3"/>
<feComposite in2="hardAlpha" operator="arithmetic" k2="-1" k3="1"/>
<feColorMatrix type="matrix" values="0 0 0 0 0 0 0 0 0 0 0 0 0 0 0 0 0 0 0.1 0"/>
<feBlend mode="normal" in2="shape" result="effect1_innerShadow_1_12553"/>
</filter>
<filter id="filter3_i_1_12553" x="87" y="-37" width="70" height="70" filterUnits="userSpaceOnUse" color-interpolation-filters="sRGB">
<feFlood flood-opacity="0" result="BackgroundImageFix"/>
<feBlend mode="normal" in="SourceGraphic" in2="BackgroundImageFix" result="shape"/>
<feColorMatrix in="SourceAlpha" type="matrix" values="0 0 0 0 0 0 0 0 0 0 0 0 0 0 0 0 0 0 127 0" result="hardAlpha"/>
<feOffset dy="-3"/>
<feComposite in2="hardAlpha" operator="arithmetic" k2="-1" k3="1"/>
<feColorMatrix type="matrix" values="0 0 0 0 0 0 0 0 0 0 0 0 0 0 0 0 0 0 0.1 0"/>
<feBlend mode="normal" in2="shape" result="effect1_innerShadow_1_12553"/>
</filter>
<filter id="filter4_i_1_12553" x="87" y="133" width="70" height="70" filterUnits="userSpaceOnUse" color-interpolation-filters="sRGB">
<feFlood flood-opacity="0" result="BackgroundImageFix"/>
<feBlend mode="normal" in="SourceGraphic" in2="BackgroundImageFix" result="shape"/>
<feColorMatrix in="SourceAlpha" type="matrix" values="0 0 0 0 0 0 0 0 0 0 0 0 0 0 0 0 0 0 127 0" result="hardAlpha"/>
<feOffset dy="-3"/>
<feComposite in2="hardAlpha" operator="arithmetic" k2="-1" k3="1"/>
<feColorMatrix type="matrix" values="0 0 0 0 0 0 0 0 0 0 0 0 0 0 0 0 0 0 0.1 0"/>
<feBlend mode="normal" in2="shape" result="effect1_innerShadow_1_12553"/>
</filter>
<filter id="filter5_i_1_12553" x="87" y="218" width="70" height="70" filterUnits="userSpaceOnUse" color-interpolation-filters="sRGB">
<feFlood flood-opacity="0" result="BackgroundImageFix"/>
<feBlend mode="normal" in="SourceGraphic" in2="BackgroundImageFix" result="shape"/>
<feColorMatrix in="SourceAlpha" type="matrix" values="0 0 0 0 0 0 0 0 0 0 0 0 0 0 0 0 0 0 127 0" result="hardAlpha"/>
<feOffset dy="-3"/>
<feComposite in2="hardAlpha" operator="arithmetic" k2="-1" k3="1"/>
<feColorMatrix type="matrix" values="0 0 0 0 0 0 0 0 0 0 0 0 0 0 0 0 0 0 0.1 0"/>
<feBlend mode="normal" in2="shape" result="effect1_innerShadow_1_12553"/>
</filter>
<filter id="filter6_i_1_12553" x="17" y="13" width="70" height="70" filterUnits="userSpaceOnUse" color-interpolation-filters="sRGB">
<feFlood flood-opacity="0" result="BackgroundImageFix"/>
<feBlend mode="normal" in="SourceGraphic" in2="BackgroundImageFix" result="shape"/>
<feColorMatrix in="SourceAlpha" type="matrix" values="0 0 0 0 0 0 0 0 0 0 0 0 0 0 0 0 0 0 127 0" result="hardAlpha"/>
<feOffset dy="-3"/>
<feComposite in2="hardAlpha" operator="arithmetic" k2="-1" k3="1"/>
<feColorMatrix type="matrix" values="0 0 0 0 0 0 0 0 0 0 0 0 0 0 0 0 0 0 0.1 0"/>
<feBlend mode="normal" in2="shape" result="effect1_innerShadow_1_12553"/>
</filter>
<filter id="filter7_i_1_12553" x="17" y="98" width="70" height="70" filterUnits="userSpaceOnUse" color-interpolation-filters="sRGB">
<feFlood flood-opacity="0" result="BackgroundImageFix"/>
<feBlend mode="normal" in="SourceGraphic" in2="BackgroundImageFix" result="shape"/>
<feColorMatrix in="SourceAlpha" type="matrix" values="0 0 0 0 0 0 0 0 0 0 0 0 0 0 0 0 0 0 127 0" result="hardAlpha"/>
<feOffset dy="-3"/>
<feComposite in2="hardAlpha" operator="arithmetic" k2="-1" k3="1"/>
<feColorMatrix type="matrix" values="0 0 0 0 0 0 0 0 0 0 0 0 0 0 0 0 0 0 0.1 0"/>
<feBlend mode="normal" in2="shape" result="effect1_innerShadow_1_12553"/>
</filter>
<filter id="filter8_i_1_12553" x="17" y="183" width="70" height="70" filterUnits="userSpaceOnUse" color-interpolation-filters="sRGB">
<feFlood flood-opacity="0" result="BackgroundImageFix"/>
<feBlend mode="normal" in="SourceGraphic" in2="BackgroundImageFix" result="shape"/>
<feColorMatrix in="SourceAlpha" type="matrix" values="0 0 0 0 0 0 0 0 0 0 0 0 0 0 0 0 0 0 127 0" result="hardAlpha"/>
<feOffset dy="-3"/>
<feComposite in2="hardAlpha" operator="arithmetic" k2="-1" k3="1"/>
<feColorMatrix type="matrix" values="0 0 0 0 0 0 0 0 0 0 0 0 0 0 0 0 0 0 0.1 0"/>
<feBlend mode="normal" in2="shape" result="effect1_innerShadow_1_12553"/>
</filter>
<filter id="filter9_i_1_12553" x="491" y="59" width="70" height="70" filterUnits="userSpaceOnUse" color-interpolation-filters="sRGB">
<feFlood flood-opacity="0" result="BackgroundImageFix"/>
<feBlend mode="normal" in="SourceGraphic" in2="BackgroundImageFix" result="shape"/>
<feColorMatrix in="SourceAlpha" type="matrix" values="0 0 0 0 0 0 0 0 0 0 0 0 0 0 0 0 0 0 127 0" result="hardAlpha"/>
<feOffset dy="-3"/>
<feComposite in2="hardAlpha" operator="arithmetic" k2="-1" k3="1"/>
<feColorMatrix type="matrix" values="0 0 0 0 0 0 0 0 0 0 0 0 0 0 0 0 0 0 0.1 0"/>
<feBlend mode="normal" in2="shape" result="effect1_innerShadow_1_12553"/>
</filter>
<filter id="filter10_i_1_12553" x="491" y="-26" width="70" height="70" filterUnits="userSpaceOnUse" color-interpolation-filters="sRGB">
<feFlood flood-opacity="0" result="BackgroundImageFix"/>
<feBlend mode="normal" in="SourceGraphic" in2="BackgroundImageFix" result="shape"/>
<feColorMatrix in="SourceAlpha" type="matrix" values="0 0 0 0 0 0 0 0 0 0 0 0 0 0 0 0 0 0 127 0" result="hardAlpha"/>
<feOffset dy="-3"/>
<feComposite in2="hardAlpha" operator="arithmetic" k2="-1" k3="1"/>
<feColorMatrix type="matrix" values="0 0 0 0 0 0 0 0 0 0 0 0 0 0 0 0 0 0 0.1 0"/>
<feBlend mode="normal" in2="shape" result="effect1_innerShadow_1_12553"/>
</filter>
<filter id="filter11_i_1_12553" x="491" y="144" width="70" height="70" filterUnits="userSpaceOnUse" color-interpolation-filters="sRGB">
<feFlood flood-opacity="0" result="BackgroundImageFix"/>
<feBlend mode="normal" in="SourceGraphic" in2="BackgroundImageFix" result="shape"/>
<feColorMatrix in="SourceAlpha" type="matrix" values="0 0 0 0 0 0 0 0 0 0 0 0 0 0 0 0 0 0 127 0" result="hardAlpha"/>
<feOffset dy="-3"/>
<feComposite in2="hardAlpha" operator="arithmetic" k2="-1" k3="1"/>
<feColorMatrix type="matrix" values="0 0 0 0 0 0 0 0 0 0 0 0 0 0 0 0 0 0 0.1 0"/>
<feBlend mode="normal" in2="shape" result="effect1_innerShadow_1_12553"/>
</filter>
<filter id="filter12_i_1_12553" x="491" y="229" width="70" height="70" filterUnits="userSpaceOnUse" color-interpolation-filters="sRGB">
<feFlood flood-opacity="0" result="BackgroundImageFix"/>
<feBlend mode="normal" in="SourceGraphic" in2="BackgroundImageFix" result="shape"/>
<feColorMatrix in="SourceAlpha" type="matrix" values="0 0 0 0 0 0 0 0 0 0 0 0 0 0 0 0 0 0 127 0" result="hardAlpha"/>
<feOffset dy="-3"/>
<feComposite in2="hardAlpha" operator="arithmetic" k2="-1" k3="1"/>
<feColorMatrix type="matrix" values="0 0 0 0 0 0 0 0 0 0 0 0 0 0 0 0 0 0 0.1 0"/>
<feBlend mode="normal" in2="shape" result="effect1_innerShadow_1_12553"/>
</filter>
<filter id="filter13_i_1_12553" x="561" y="24" width="70" height="70" filterUnits="userSpaceOnUse" color-interpolation-filters="sRGB">
<feFlood flood-opacity="0" result="BackgroundImageFix"/>
<feBlend mode="normal" in="SourceGraphic" in2="BackgroundImageFix" result="shape"/>
<feColorMatrix in="SourceAlpha" type="matrix" values="0 0 0 0 0 0 0 0 0 0 0 0 0 0 0 0 0 0 127 0" result="hardAlpha"/>
<feOffset dy="-3"/>
<feComposite in2="hardAlpha" operator="arithmetic" k2="-1" k3="1"/>
<feColorMatrix type="matrix" values="0 0 0 0 0 0 0 0 0 0 0 0 0 0 0 0 0 0 0.1 0"/>
<feBlend mode="normal" in2="shape" result="effect1_innerShadow_1_12553"/>
</filter>
<filter id="filter14_i_1_12553" x="561" y="109" width="70" height="70" filterUnits="userSpaceOnUse" color-interpolation-filters="sRGB">
<feFlood flood-opacity="0" result="BackgroundImageFix"/>
<feBlend mode="normal" in="SourceGraphic" in2="BackgroundImageFix" result="shape"/>
<feColorMatrix in="SourceAlpha" type="matrix" values="0 0 0 0 0 0 0 0 0 0 0 0 0 0 0 0 0 0 127 0" result="hardAlpha"/>
<feOffset dy="-3"/>
<feComposite in2="hardAlpha" operator="arithmetic" k2="-1" k3="1"/>
<feColorMatrix type="matrix" values="0 0 0 0 0 0 0 0 0 0 0 0 0 0 0 0 0 0 0.1 0"/>
<feBlend mode="normal" in2="shape" result="effect1_innerShadow_1_12553"/>
</filter>
<filter id="filter15_i_1_12553" x="561" y="194" width="70" height="70" filterUnits="userSpaceOnUse" color-interpolation-filters="sRGB">
<feFlood flood-opacity="0" result="BackgroundImageFix"/>
<feBlend mode="normal" in="SourceGraphic" in2="BackgroundImageFix" result="shape"/>
<feColorMatrix in="SourceAlpha" type="matrix" values="0 0 0 0 0 0 0 0 0 0 0 0 0 0 0 0 0 0 127 0" result="hardAlpha"/>
<feOffset dy="-3"/>
<feComposite in2="hardAlpha" operator="arithmetic" k2="-1" k3="1"/>
<feColorMatrix type="matrix" values="0 0 0 0 0 0 0 0 0 0 0 0 0 0 0 0 0 0 0.1 0"/>
<feBlend mode="normal" in2="shape" result="effect1_innerShadow_1_12553"/>
</filter>
<linearGradient id="paint0_linear_1_12553" x1="324" y1="0" x2="324" y2="254" gradientUnits="userSpaceOnUse">
<stop stop-color="white" stop-opacity="0"/>
<stop offset="0.25" stop-color="white" stop-opacity="0.75"/>
<stop offset="0.5" stop-color="white"/>
<stop offset="0.75" stop-color="white" stop-opacity="0.75"/>
<stop offset="1" stop-color="white" stop-opacity="0"/>
</linearGradient>
<linearGradient id="paint1_linear_1_12553" x1="442.604" y1="75" x2="442.604" y2="102.69" gradientUnits="userSpaceOnUse">
<stop stop-color="#1675FF"/>
<stop offset="1" stop-color="#0057E1"/>
</linearGradient>
<linearGradient id="paint2_linear_1_12553" x1="442.604" y1="75" x2="442.604" y2="102.69" gradientUnits="userSpaceOnUse">
<stop stop-color="#1675FF"/>
<stop offset="1" stop-color="#0057E1"/>
</linearGradient>
</defs>
</svg>
