<?xml version="1.0" encoding="utf-8"?>
<!-- Generator: Adobe Illustrator 25.4.1, SVG Export Plug-In . SVG Version: 6.00 Build 0)  -->
<svg version="1.1" id="Layer_1" xmlns="http://www.w3.org/2000/svg" xmlns:xlink="http://www.w3.org/1999/xlink" x="0px" y="0px"
	 viewBox="0 0 184.54 166.32" style="enable-background:new 0 0 184.54 166.32;" xml:space="preserve">
<style type="text/css">
	.st0{fill:#3B64C4;}
</style>
<g>
	<path d="M177.48,37.09c-1.06,0-1.88,0-2.69,0c-13.92,0-27.85,0.01-41.77-0.01c-2.8,0-4.17-1.16-4.23-3.45
		c-0.06-1.91,0.94-3.19,2.82-3.51c0.74-0.13,1.52-0.09,2.28-0.09c13.65-0.01,27.29-0.01,40.94-0.01c0.81,0,1.62,0,2.54,0
		c0-5.03,0.32-9.88-0.09-14.67c-0.4-4.67-4.02-7.82-8.67-8.44c-0.96-0.13-1.93-0.13-2.9-0.13c-48.97-0.01-97.94,0-146.92-0.02
		c-2.9,0-5.67,0.35-8,2.29c-2.19,1.82-3.53,4.18-3.63,6.99C6.98,20.59,7.1,25.15,7.1,30.02c0.96,0,1.83,0,2.7,0
		c35.67,0,71.35,0,107.02,0c0.83,0,1.67-0.04,2.49,0.07c1.89,0.27,2.93,1.53,2.93,3.42c-0.01,1.94-1.18,3.32-3.09,3.52
		c-0.83,0.08-1.66,0.05-2.49,0.05c-35.53,0-71.07,0-106.6,0c-0.89,0-1.78,0-2.99,0c0,0.86,0,1.59,0,2.32
		c0,32.29-0.01,64.57,0.01,96.86c0,7.15,4.03,11.18,11.23,11.19c24.17,0.02,48.35,0.01,72.52,0.01c3.6,0,5.08,1.01,5.03,3.44
		c-0.04,2.39-1.52,3.37-5.14,3.37c-24.25,0-48.49,0.01-72.73-0.01c-9.46-0.01-16.35-5.71-17.8-14.7c-0.18-1.09-0.17-2.21-0.17-3.31
		C0,96.81,0,57.39,0,17.97C0,7.22,7.24,0,18,0C67.53,0,117.06,0,166.58,0c10.67,0,17.95,7.21,17.95,17.81
		c0.01,39.56,0.01,79.12,0,118.68c-0.01,9.9-7.23,17.6-16.57,17.74c-2.68,0.04-4.12-1.06-4.22-3.21c-0.1-2.16,1.14-3.32,3.86-3.59
		c6.22-0.63,9.86-4.51,9.86-10.66c0.02-32.63,0.01-65.26,0.01-97.89C177.48,38.4,177.48,37.91,177.48,37.09z"/>
	<path d="M30.5,85.41c-3.27,0-6.17-0.03-9.07,0.01c-1.85,0.03-3.31-0.57-3.91-2.41c-0.58-1.8,0.09-3.19,1.61-4.32
		c11.81-8.83,23.59-17.69,35.39-26.53c2.01-1.5,3.5-1.53,5.49-0.04c11.81,8.83,23.59,17.7,35.4,26.53c1.47,1.1,2.29,2.44,1.69,4.29
		c-0.59,1.83-2.01,2.5-3.87,2.48c-2.96-0.04-5.93-0.01-9.2-0.01c0,1,0,1.8,0,2.6c0,11.5,0.01,22.99,0,34.5
		c0,3.79-1.03,4.81-4.78,4.81c-3.81,0.01-7.62,0.01-11.42,0c-3.94-0.01-4.98-1.05-4.98-5.1c-0.01-7.34,0.02-14.68-0.02-22.02
		c-0.02-2.57-1.44-4.54-3.6-5.31c-2.17-0.77-4.91-0.19-6.15,1.76c-0.8,1.26-1.29,2.93-1.32,4.43c-0.13,7.13-0.05,14.27-0.07,21.4
		c-0.01,3.81-1.03,4.84-4.77,4.84c-3.88,0.01-7.76,0.01-11.64,0c-3.71-0.01-4.77-1.07-4.77-4.87C30.5,111.02,30.5,99.6,30.5,88.17
		C30.5,87.35,30.5,86.53,30.5,85.41z M44.89,120.17c0-1,0-1.75,0-2.51c0-5.96-0.08-11.91,0.03-17.87c0.09-4.81,2.34-8.52,6.58-10.79
		c8.36-4.49,18,1.38,18.22,11.12c0.13,5.95,0.03,11.91,0.03,17.87c0,0.73,0,1.45,0,2.11c2.6,0,4.85,0,7.22,0c0-0.92,0-1.67,0-2.43
		c0-10.73,0-21.47,0-32.2c0-6.07,0-6.07,5.66-7.42c-0.13-0.18-0.21-0.38-0.35-0.49c-7.95-6.01-15.89-12.04-23.9-17.97
		c-0.46-0.34-1.71-0.18-2.24,0.22c-5.76,4.21-11.45,8.5-17.15,12.77c-2.37,1.77-4.73,3.54-7.23,5.42c0.4,0.19,0.57,0.32,0.74,0.33
		c4.6,0.46,5.07,0.98,5.07,5.67c0,11.22,0,22.44,0,33.66c0,0.81,0,1.62,0,2.52C40.12,120.17,42.38,120.17,44.89,120.17z"/>
	<path class="st0" d="M154.05,131.81c0,2.03,0,3.87,0,5.95c0.91,0.58,2.03,1.24,3.11,1.98c2.85,1.94,3.61,4.99,1.88,7.98
		c-1.41,2.45-2.91,4.88-4.48,7.23c-1.86,2.79-4.88,3.47-7.81,1.92c-0.12-0.07-0.24-0.15-0.37-0.2c-1.57-0.58-2.59-2.47-4.94-1.05
		c-2.21,1.34-1.22,3.06-1.55,4.66c-0.24,1.2-0.37,2.51-0.95,3.53c-0.99,1.72-2.7,2.5-4.73,2.5c-2.91-0.01-5.82,0.04-8.72-0.01
		c-3.42-0.06-5.52-2.14-5.68-5.57c-0.03-0.62,0.04-1.25-0.02-1.87c-0.1-1.01,0.46-2.17-1.01-2.83c-1.44-0.64-2.7-1.73-4.24-0.24
		c-0.43,0.42-1.06,0.65-1.6,0.95c-3.04,1.71-6.27,0.98-8.12-1.97c-1.51-2.4-2.93-4.86-4.3-7.34c-1.71-3.1-0.95-5.88,2.06-7.86
		c2.92-1.91,3.8-3.75,2.95-7.11c-0.19-0.77-1.36-1.41-2.22-1.87c-2.01-1.09-3.46-2.5-3.62-4.93c-0.19-2.84,5.37-12.12,7.95-13.34
		c2.59-1.22,4.74-0.12,6.75,1.32c1.42,1.03,2.75,1.29,4.04,0.05c0.6-0.58,1.29-1.45,1.31-2.21c0.26-7.17,1.41-8.32,8.68-8.32
		c1.73,0,3.46-0.02,5.19,0.01c4.12,0.05,6.26,2.19,6.28,6.3c0.01,1.91-0.42,4.01,2.18,4.63c0.69,0.17,1.67,0.32,2.16-0.03
		c5.18-3.67,8.46-3.07,11.86,3.05c0.81,1.45,1.79,2.8,2.66,4.21c2.21,3.61,1.31,7-2.38,9.12
		C155.55,130.95,154.72,131.43,154.05,131.81z M126.71,110.16c0,1.52-0.03,2.83,0.01,4.14c0.05,2.04-0.86,3.32-2.75,4.17
		c-1.75,0.78-3.45,1.75-5,2.86c-1.67,1.2-3.21,1.46-4.97,0.34c-1.19-0.76-2.43-1.47-3.73-2.24c-1.11,1.83-2.11,3.46-3.16,5.19
		c1.25,0.73,2.29,1.42,3.39,1.97c2.02,1.03,2.55,2.53,2.27,4.79c-0.3,2.37-0.23,4.82,0.03,7.2c0.21,1.93-0.29,3.22-1.94,4.15
		c-1.24,0.7-2.44,1.45-3.75,2.22c1.13,1.85,2.13,3.49,3.17,5.19c1.21-0.73,2.29-1.35,3.33-2.03c1.76-1.15,3.35-1.19,5.15,0.13
		c1.6,1.17,3.42,2.09,5.25,2.87c1.84,0.79,2.72,2.02,2.71,3.97c-0.01,1.43,0,2.85,0,4.29c2.19,0,4.07,0,6.14,0
		c0-1.41,0.07-2.65-0.02-3.88c-0.14-2.25,0.82-3.58,2.93-4.43c1.77-0.71,3.49-1.71,5.03-2.84c1.62-1.2,3.11-1.32,4.78-0.3
		c1.16,0.71,2.34,1.41,3.67,2.2c1.08-1.78,2.09-3.45,3.15-5.2c-1.43-0.88-2.58-1.65-3.78-2.32c-1.6-0.89-2.06-2.17-1.93-3.98
		c0.18-2.53,0.17-5.09-0.01-7.61c-0.13-1.89,0.38-3.21,2.04-4.14c1.24-0.69,2.4-1.5,3.66-2.3c-1.14-1.86-2.13-3.48-3.15-5.15
		c-1.45,0.88-2.6,1.63-3.81,2.29c-1.58,0.86-3.08,0.85-4.66-0.23c-1.75-1.21-3.6-2.3-5.51-3.22c-1.56-0.75-2.4-1.78-2.4-3.51
		c0.01-1.5,0-3,0-4.58C130.7,110.16,128.85,110.16,126.71,110.16z"/>
	<path d="M102.8,15.74c11.56,0,23.13,0,34.68,0.01c0.76,0,1.53-0.04,2.28,0.09c1.64,0.28,2.55,1.37,2.74,2.96
		c0.2,1.68-0.47,3.04-2.1,3.65c-0.81,0.3-1.76,0.35-2.65,0.35c-23.33,0.02-46.66,0.02-70,0.01c-0.55,0-1.11,0.02-1.66-0.07
		c-2.03-0.31-3.14-1.73-3.03-3.78c0.11-1.92,1.32-3.16,3.38-3.19c4.64-0.06,9.28-0.03,13.92-0.03
		C87.85,15.74,95.33,15.74,102.8,15.74z"/>
	<path class="st0" d="M24.89,10.28c4.37,0.02,7.9,3.43,7.92,7.65c0.03,4.37-3.7,8.04-8.09,7.98c-4.23-0.06-7.65-3.61-7.64-7.94
		C17.08,13.64,20.51,10.26,24.89,10.28z"/>
	<path class="st0" d="M163.38,10.28c4.2,0.03,7.69,3.47,7.73,7.65c0.05,4.29-3.65,8.03-7.88,7.98c-4.34-0.05-7.86-3.66-7.81-8.03
		C155.46,13.62,158.99,10.25,163.38,10.28z"/>
	<path class="st0" d="M36.04,17.94c0.02-4.39,3.39-7.7,7.78-7.66c4.39,0.04,7.83,3.42,7.84,7.69c0.01,4.35-3.52,7.91-7.87,7.95
		C39.45,25.95,36.02,22.43,36.04,17.94z"/>
	<path class="st0" d="M119.21,134.87c0-5.97,4.7-10.67,10.68-10.65c5.75,0.02,10.52,4.88,10.48,10.69
		c-0.04,5.65-4.89,10.48-10.52,10.48C124.02,145.39,119.21,140.63,119.21,134.87z M133.46,134.89c0-2.04-1.46-3.53-3.49-3.58
		c-2.14-0.05-3.69,1.46-3.7,3.58c0,2.04,1.45,3.55,3.48,3.6C131.87,138.53,133.46,137,133.46,134.89z"/>
</g>
</svg>
