<svg width="210" height="204" viewBox="0 0 210 204" fill="none" xmlns="http://www.w3.org/2000/svg">
<g filter="url(#filter0_d_1_1259)">
<rect x="15" y="11" width="180.539" height="174.419" rx="15.2999" fill="white"/>
<rect x="15.51" y="11.51" width="179.519" height="173.399" rx="14.7899" stroke="#A7CAE5" stroke-width="1.01999"/>
</g>
<path d="M77.7028 116.147C75.5045 116.147 73.8172 114.507 73.8172 111.643C73.8172 108.791 75.5521 107.08 77.7622 107.08C78.8554 107.08 79.7109 107.603 80.2457 108.185L79.4971 109.065C79.0455 108.601 78.4989 108.28 77.786 108.28C76.2769 108.28 75.2312 109.54 75.2312 111.596C75.2312 113.675 76.2056 114.946 77.7503 114.946C78.5583 114.946 79.1643 114.59 79.6872 114.02L80.4239 114.887C79.7228 115.695 78.8316 116.147 77.7028 116.147ZM81.8556 115.992V109.457H82.9725L83.0795 110.633H83.1151C83.5785 109.789 84.2677 109.29 84.9688 109.29C85.2896 109.29 85.5035 109.338 85.7055 109.433L85.456 110.621C85.2302 110.55 85.0639 110.514 84.8024 110.514C84.2677 110.514 83.6261 110.883 83.2221 111.916V115.992H81.8556ZM89.3111 116.147C87.5406 116.147 86.1266 114.887 86.1266 112.724C86.1266 110.609 87.5882 109.29 89.1091 109.29C90.844 109.29 91.7827 110.538 91.7827 112.38C91.7827 112.653 91.747 112.915 91.7114 113.081H87.4693C87.5763 114.329 88.3605 115.077 89.4894 115.077C90.0716 115.077 90.5707 114.899 91.046 114.59L91.5213 115.457C90.9153 115.861 90.1667 116.147 89.3111 116.147ZM87.4574 112.13H90.5944C90.5944 111.013 90.0835 110.36 89.1329 110.36C88.313 110.36 87.5882 110.99 87.4574 112.13ZM94.6794 116.147C93.5506 116.147 92.7545 115.41 92.7545 114.257C92.7545 112.855 93.9427 112.13 96.6638 111.833C96.6519 111.073 96.3786 110.407 95.4162 110.407C94.727 110.407 94.0853 110.716 93.5268 111.073L93.0159 110.146C93.6932 109.718 94.6081 109.29 95.6538 109.29C97.2817 109.29 98.0303 110.324 98.0303 112.059V115.992H96.9134L96.8064 115.243H96.7589C96.1648 115.754 95.4637 116.147 94.6794 116.147ZM95.0953 115.065C95.6657 115.065 96.1291 114.792 96.6638 114.305V112.701C94.727 112.926 94.0734 113.425 94.0734 114.162C94.0734 114.804 94.5131 115.065 95.0953 115.065ZM101.97 116.147C100.497 116.147 99.9861 115.232 99.9861 113.853V110.55H99.0355V109.528L100.057 109.457L100.212 107.651H101.353V109.457H103.052V110.55H101.353V113.865C101.353 114.649 101.626 115.053 102.303 115.053C102.529 115.053 102.814 114.982 103.004 114.899L103.254 115.909C102.885 116.028 102.446 116.147 101.97 116.147ZM107.007 116.147C105.237 116.147 103.823 114.887 103.823 112.724C103.823 110.609 105.284 109.29 106.805 109.29C108.54 109.29 109.479 110.538 109.479 112.38C109.479 112.653 109.443 112.915 109.408 113.081H105.166C105.272 114.329 106.057 115.077 107.186 115.077C107.768 115.077 108.267 114.899 108.742 114.59L109.217 115.457C108.611 115.861 107.863 116.147 107.007 116.147ZM105.154 112.13H108.291C108.291 111.013 107.78 110.36 106.829 110.36C106.009 110.36 105.284 110.99 105.154 112.13ZM115.444 116.147C114.541 116.147 113.626 115.766 112.985 115.243L113.626 114.364C114.209 114.816 114.779 115.113 115.48 115.113C116.264 115.113 116.633 114.733 116.633 114.233C116.633 113.639 115.896 113.378 115.195 113.105C114.316 112.772 113.353 112.309 113.353 111.203C113.353 110.11 114.232 109.29 115.682 109.29C116.549 109.29 117.274 109.647 117.797 110.063L117.155 110.906C116.704 110.574 116.241 110.336 115.706 110.336C114.981 110.336 114.648 110.692 114.648 111.144C114.648 111.702 115.29 111.916 116.003 112.178C116.918 112.522 117.928 112.926 117.928 114.162C117.928 115.255 117.06 116.147 115.444 116.147ZM122.104 116.147C120.334 116.147 118.92 114.887 118.92 112.724C118.92 110.609 120.381 109.29 121.902 109.29C123.637 109.29 124.576 110.538 124.576 112.38C124.576 112.653 124.54 112.915 124.504 113.081H120.262C120.369 114.329 121.154 115.077 122.282 115.077C122.865 115.077 123.364 114.899 123.839 114.59L124.314 115.457C123.708 115.861 122.96 116.147 122.104 116.147ZM120.251 112.13H123.387C123.387 111.013 122.877 110.36 121.926 110.36C121.106 110.36 120.381 110.99 120.251 112.13ZM127.456 116.147C126.47 116.147 126.102 115.517 126.102 114.459V106.522H127.468V114.531C127.468 114.899 127.623 115.03 127.789 115.03C127.849 115.03 127.896 115.03 128.015 115.006L128.193 116.04C128.027 116.099 127.801 116.147 127.456 116.147ZM130.996 116.147C130.009 116.147 129.641 115.517 129.641 114.459V106.522H131.008V114.531C131.008 114.899 131.162 115.03 131.328 115.03C131.388 115.03 131.435 115.03 131.554 115.006L131.732 116.04C131.566 116.099 131.34 116.147 130.996 116.147ZM135.901 116.147C134.131 116.147 132.717 114.887 132.717 112.724C132.717 110.609 134.178 109.29 135.699 109.29C137.434 109.29 138.373 110.538 138.373 112.38C138.373 112.653 138.337 112.915 138.302 113.081H134.06C134.167 114.329 134.951 115.077 136.08 115.077C136.662 115.077 137.161 114.899 137.636 114.59L138.112 115.457C137.506 115.861 136.757 116.147 135.901 116.147ZM134.048 112.13H137.185C137.185 111.013 136.674 110.36 135.723 110.36C134.903 110.36 134.178 110.99 134.048 112.13ZM139.899 115.992V109.457H141.016L141.123 110.633H141.159C141.622 109.789 142.311 109.29 143.012 109.29C143.333 109.29 143.547 109.338 143.749 109.433L143.499 110.621C143.274 110.55 143.107 110.514 142.846 110.514C142.311 110.514 141.67 110.883 141.266 111.916V115.992H139.899Z" fill="black"/>
<path d="M86.9044 85.7738V84.6653C86.9044 81.3665 86.9044 78.0678 86.9044 74.7692C86.9044 73.7877 87.0954 73.5929 88.0587 73.5929H96.7776C96.8845 72.8962 96.7416 72.1841 96.374 71.5826C94.9061 69.3818 93.506 67.1347 92.1039 64.8906C92.0281 64.7392 91.907 64.6152 91.7575 64.5358C91.608 64.4564 91.4374 64.4256 91.2696 64.4476C90.5418 64.4794 89.811 64.4696 89.0819 64.4514C88.1533 64.4242 87.2664 64.0593 86.5877 63.425C85.9089 62.7906 85.4848 61.9305 85.3949 61.0058C85.3181 60.2055 85.6007 59.8902 86.4054 59.8897C88.7997 59.8897 91.194 59.8897 93.5884 59.8897C94.5263 59.8463 95.4466 60.1548 96.1689 60.7548C96.8912 61.3547 97.3633 62.2028 97.4926 63.1328C97.5021 63.2433 97.5365 63.3503 97.5932 63.4456C98.3859 64.431 99.1876 65.4092 99.8963 66.2787C100.875 65.9138 101.764 65.5645 102.668 65.2509C103.56 64.9403 104.467 64.6661 105.427 64.3567C105.482 64.0448 105.566 63.6591 105.61 63.2686C105.612 63.2044 105.6 63.1404 105.574 63.0816C105.548 63.0228 105.509 62.9706 105.46 62.9291C104.792 62.5136 104.221 61.9588 103.786 61.3028C103.351 60.6467 103.063 59.9046 102.941 59.1271C101.863 59.1963 100.829 59.0936 100.626 57.7611C100.423 56.4222 100.746 55.8034 101.81 55.3251C101.515 55.0648 101.24 54.7821 100.989 54.4794C100.79 54.2262 100.664 53.924 100.622 53.6047C100.507 51.3818 101.333 49.6156 103.266 48.4367C104.027 47.9692 104.902 47.7196 105.795 47.7152C107.412 47.7008 109.031 47.6842 110.647 47.7152C112.001 47.7567 113.288 48.3086 114.252 49.2602C115.215 50.2118 115.783 51.4926 115.841 52.8455C115.884 53.721 115.729 54.4361 114.993 54.9653C114.875 55.0685 114.768 55.1831 114.673 55.3073C115.97 55.9626 115.975 56.6619 115.772 57.9041C115.574 59.1114 114.544 59.1963 113.538 59.1174C113.396 59.5681 113.292 59.9967 113.128 60.4011C112.734 61.3978 112.033 62.2426 111.125 62.812C111.064 62.8364 111.009 62.8726 110.962 62.9187C110.915 62.9647 110.878 63.0196 110.853 63.0801C110.828 63.1406 110.815 63.2055 110.815 63.271C110.816 63.3366 110.829 63.4014 110.855 63.4617C110.922 63.7449 110.972 64.0323 111.001 64.3219C112.821 65.0667 114.789 65.2556 116.442 66.3946C117.244 65.4151 118.041 64.4518 118.822 63.4757C118.901 63.3394 118.948 63.1864 118.958 63.0289C119.102 62.1679 119.541 61.384 120.2 60.8121C120.86 60.2403 121.698 59.9163 122.57 59.8961C125.107 59.8685 127.644 59.8842 130.182 59.8893C130.787 59.8893 131.067 60.2051 131.051 60.8204C131.007 61.773 130.607 62.6744 129.93 63.3461C129.253 64.0177 128.348 64.4105 127.396 64.4467C126.604 64.4709 125.81 64.4662 125.019 64.4467C124.896 64.4327 124.772 64.4558 124.663 64.5131C124.554 64.5703 124.464 64.6592 124.406 64.768C122.963 67.0422 121.528 69.3228 120.039 71.5673C119.678 72.1753 119.546 72.8923 119.667 73.589H120.197C122.956 73.589 125.715 73.589 128.473 73.589C129.307 73.589 129.534 73.8199 129.534 74.6687C129.534 78.1734 129.534 81.6782 129.534 85.183V85.7704C129.788 85.7704 130.018 85.7619 130.248 85.7704C130.355 85.7629 130.463 85.7787 130.564 85.8166C130.665 85.8545 130.757 85.9137 130.833 85.9902C130.909 86.0667 130.968 86.1586 131.006 86.2598C131.043 86.361 131.059 86.4691 131.051 86.5767C131.064 87.5598 131.064 88.5431 131.051 89.5265C131.058 89.6343 131.042 89.7425 131.004 89.8437C130.966 89.9448 130.907 90.0367 130.831 90.1131C130.755 90.1895 130.663 90.2487 130.561 90.2866C130.46 90.3245 130.352 90.3403 130.244 90.3328C130.117 90.3392 129.99 90.3328 129.862 90.3328H86.576C85.5715 90.3328 85.3847 90.1465 85.3843 89.1446C85.3843 88.3677 85.3843 87.5907 85.3843 86.8135C85.3843 86.0017 85.6164 85.7708 86.4287 85.7649C86.5666 85.7729 86.7067 85.7738 86.9044 85.7738ZM115.83 85.7631V85.217C115.83 81.6805 115.83 78.144 115.83 74.6076C115.83 73.8339 116.075 73.5937 116.857 73.5912C117.264 73.5912 117.671 73.5912 118.112 73.5912C118.124 73.3856 118.123 73.1796 118.109 72.9741C118.035 72.2118 118.249 71.4494 118.709 70.8374C119.963 68.9124 121.19 66.9705 122.427 65.0349C122.535 64.8651 122.637 64.6954 122.782 64.4552C121.942 64.4552 121.172 64.47 120.403 64.448C120.272 64.4378 120.14 64.4624 120.021 64.5191C119.902 64.5758 119.8 64.6628 119.724 64.7714C117.775 67.1705 115.819 69.5637 113.856 71.951C113.699 72.1419 113.539 72.3308 113.361 72.5451L112.202 71.5843L115.489 67.5561C115.026 67.3282 114.629 67.1389 114.238 66.9382C113.983 66.8067 113.826 66.8686 113.656 67.1105C112.711 68.4605 111.736 69.79 110.801 71.1463C110.651 71.3759 110.586 71.6506 110.617 71.923C111.052 74.6441 111.506 77.362 111.979 80.0769C112.025 80.2688 112.018 80.4694 111.96 80.6577C111.901 80.846 111.793 81.0151 111.646 81.1472C110.729 82.046 109.829 82.9627 108.918 83.8675C108.39 84.392 108.036 84.3878 107.502 83.8564C106.604 82.9614 105.716 82.0554 104.808 81.1701C104.654 81.035 104.539 80.8607 104.477 80.6657C104.414 80.4706 104.406 80.2623 104.453 80.0629C104.925 77.3469 105.375 74.6309 105.821 71.9102C105.868 71.7148 105.847 71.5091 105.76 71.3275C104.71 69.8214 103.638 68.3319 102.53 66.782L100.946 67.5608L104.231 71.5898L103.064 72.5425C102.894 72.3359 102.742 72.1568 102.594 71.976C100.626 69.5712 98.6567 67.1679 96.6867 64.7663C96.584 64.6411 96.4321 64.4751 96.2967 64.4692C95.4331 64.4425 94.5683 64.4556 93.6338 64.4556C93.7611 64.6678 93.846 64.8134 93.9347 64.956C95.1416 66.8546 96.3205 68.7719 97.5707 70.6426C98.1445 71.3652 98.4143 72.283 98.3227 73.2012C98.3191 73.332 98.329 73.4628 98.3524 73.5916C98.7768 73.5916 99.1689 73.5916 99.5627 73.5916C100.367 73.5937 100.602 73.831 100.602 74.6449C100.602 78.165 100.602 81.685 100.602 85.2051V85.7619L115.83 85.7631ZM96.0387 75.138C96.0387 75.876 96.043 76.5576 96.0387 77.2391C96.0332 77.8867 95.7603 78.1558 95.1051 78.1596C94.2173 78.1644 93.3295 78.1644 92.4417 78.1596C91.7338 78.1566 91.4771 77.8952 91.4741 77.1776C91.4711 76.5015 91.4741 75.8255 91.4741 75.1495H88.4525V85.7453H99.0526V75.1359L96.0387 75.138ZM117.375 85.7394H127.984V75.144H124.962C124.962 75.8654 124.967 76.5618 124.962 77.2565C124.956 77.8774 124.68 78.1541 124.059 78.1587C123.171 78.1655 122.283 78.1626 121.395 78.1587C120.65 78.1587 120.4 77.9041 120.397 77.1593C120.395 76.4846 120.397 75.8098 120.397 75.138H117.375V85.7394ZM129.509 87.3278H86.9439V88.7953H129.509V87.3278ZM111.949 54.3762C110.928 54.1758 109.921 53.9136 108.931 53.5911C108.251 53.2977 107.506 53.1901 106.771 53.2796C106.036 53.3691 105.337 53.6524 104.748 54.1004C104.735 54.1097 104.715 54.1127 104.705 54.1246C104.606 54.2791 104.427 54.4327 104.424 54.5914C104.401 55.8751 104.396 57.1597 104.416 58.4439C104.434 59.381 104.797 60.2787 105.435 60.965C106.073 61.6513 106.942 62.0779 107.876 62.1631C109.816 62.3414 111.69 61.0148 111.913 59.0677C112.089 57.5366 111.949 55.9685 111.949 54.3762H111.949ZM102.914 54.173C102.782 53.4969 103.118 53.1876 103.635 52.9491C104.497 52.5514 105.329 52.0888 106.193 51.6971C106.46 51.5773 106.758 51.5424 107.045 51.5974C108.862 52.0218 110.67 52.4886 112.481 52.9363C113.423 53.1702 113.461 53.2075 113.596 54.178C113.922 53.8203 114.339 53.6238 114.32 53.0293C114.311 52.0187 113.902 51.0528 113.184 50.3418C112.466 49.6307 111.496 49.2322 110.485 49.2328C108.98 49.2192 107.475 49.2192 105.969 49.2328C105.04 49.2259 104.141 49.5575 103.439 50.1656C102.737 50.7737 102.28 51.6167 102.154 52.537C102.068 52.8554 102.096 53.1942 102.235 53.4936C102.374 53.793 102.614 54.0337 102.913 54.1734L102.914 54.173ZM106.832 75.127C106.561 76.7528 106.293 78.3417 106.036 79.9318C106.024 79.9914 106.024 80.0529 106.036 80.1126C106.047 80.1723 106.071 80.2292 106.105 80.2798C106.797 80.9898 107.505 81.6857 108.234 82.4131C108.904 81.7379 109.553 81.1115 110.162 80.4487C110.313 80.2642 110.388 80.0301 110.375 79.7926C110.327 79.2409 110.205 78.699 110.114 78.1532C109.944 77.1452 109.773 76.1364 109.599 75.127H106.832ZM112.307 66.4031C111.51 66.0474 111.509 66.0474 110.971 66.5868C110.278 67.282 109.588 67.9805 108.89 68.6714C108.4 69.156 108.033 69.1548 107.544 68.6714C106.847 67.9801 106.157 67.2815 105.465 66.586C104.889 66.0084 104.886 66.0084 104.149 66.4294C105.078 67.7327 106.001 69.0376 106.941 70.3298C107.049 70.4525 107.202 70.5272 107.365 70.5378C107.934 70.5615 108.505 70.5586 109.075 70.5378C109.149 70.536 109.222 70.5197 109.29 70.4897C109.357 70.4597 109.419 70.4166 109.47 70.3629C110.419 69.0592 111.352 67.7428 112.308 66.4035L112.307 66.4031ZM95.8299 62.9143C95.6917 62.4636 95.4077 62.0716 95.0225 61.7999C94.6372 61.5282 94.1726 61.3922 93.7017 61.4133C91.9129 61.4065 90.1242 61.4133 88.3354 61.4133H87.1069C87.2422 61.8681 87.5255 62.2647 87.912 62.5402C88.2984 62.8156 88.7657 62.9542 89.2398 62.9338C91.3137 62.9406 93.3872 62.9363 95.4611 62.9338C95.5834 62.9334 95.7047 62.9215 95.8308 62.9147L95.8299 62.9143ZM120.605 62.9185C122.917 62.9185 125.224 62.9525 127.528 62.9011C127.945 62.8789 128.344 62.7237 128.667 62.4582C128.99 62.1926 129.219 61.8308 129.321 61.4256C127.009 61.4256 124.702 61.392 122.398 61.4425C121.981 61.4653 121.582 61.6208 121.259 61.8865C120.937 62.1521 120.708 62.5139 120.606 62.9189L120.605 62.9185ZM108.228 67.2446C108.704 66.7439 109.124 66.3156 109.523 65.8696C109.609 65.763 109.65 65.6273 109.637 65.4911C109.55 64.8685 109.437 64.2494 109.337 63.6497H107.098C106.998 64.2439 106.882 64.86 106.798 65.4826C106.79 65.6331 106.841 65.7809 106.939 65.8951C107.331 66.3292 107.745 66.7422 108.229 67.245L108.228 67.2446ZM109.089 72.0969H107.34L107.091 73.5628H109.346L109.089 72.0969ZM94.4902 76.6178V75.1431H93.0244V76.6178H94.4902ZM121.926 76.6081H123.406V75.1525H121.926V76.6081ZM102.869 56.8661H102.154V57.5731H102.869V56.8661ZM114.284 56.8686H113.574V57.571H114.284V56.8686Z" fill="#3DC4AB"/>
<path d="M99.0834 51.5631C99.0834 53.0217 99.0873 54.4803 99.0834 55.9389C99.1045 56.2611 99.0569 56.5842 98.9437 56.8867C98.8306 57.1892 98.6544 57.4642 98.427 57.6935C98.1995 57.9228 97.9259 58.1012 97.6244 58.2168C97.3228 58.3324 97.0001 58.3826 96.6776 58.3642C93.7132 58.3693 90.749 58.3693 87.7848 58.3642C87.4665 58.3821 87.148 58.333 86.8499 58.22C86.5518 58.1069 86.2808 57.9325 86.0544 57.708C85.8281 57.4835 85.6514 57.2139 85.5359 56.9167C85.4205 56.6195 85.3688 56.3014 85.3841 55.983C85.3785 53.0022 85.3785 50.0215 85.3841 47.0409C85.3691 46.7266 85.4196 46.4125 85.5325 46.1187C85.6453 45.8249 85.818 45.5578 86.0397 45.3343C86.2613 45.1108 86.5269 44.9359 86.8197 44.8206C87.1126 44.7052 87.4262 44.6521 87.7407 44.6644C90.7365 44.6576 93.7325 44.6576 96.7286 44.6644C97.0431 44.6526 97.3566 44.7064 97.6492 44.8221C97.9418 44.9379 98.2072 45.1133 98.4285 45.337C98.6498 45.5608 98.8222 45.8281 98.9347 46.122C99.0472 46.4159 99.0974 46.73 99.0822 47.0443C99.0885 48.5509 99.0834 50.057 99.0834 51.5631ZM92.2179 56.8436C93.6607 56.8436 95.1036 56.8436 96.5465 56.8436C97.301 56.8436 97.5595 56.5937 97.5599 55.8586C97.5619 52.9562 97.5619 50.0539 97.5599 47.1517C97.5599 46.4451 97.2947 46.1871 96.5754 46.1867C93.6735 46.1847 90.7716 46.1847 87.8697 46.1867C87.1623 46.1867 86.9051 46.4502 86.9047 47.1704C86.903 50.0725 86.903 52.9749 86.9047 55.8773C86.9047 56.5852 87.1686 56.8419 87.8879 56.8432C89.3317 56.8457 90.775 56.8459 92.2179 56.8436Z" fill="#3DC4AB"/>
<path d="M124.19 58.3658C122.386 58.3584 120.658 57.6417 119.379 56.3708C118.1 55.0998 117.372 53.3766 117.352 51.5733C117.345 50.672 117.516 49.7782 117.855 48.943C118.194 48.1079 118.694 47.3477 119.327 46.7059C119.96 46.0642 120.713 45.5534 121.544 45.2029C122.374 44.8524 123.265 44.669 124.166 44.6631C125.068 44.6595 125.961 44.8336 126.795 45.1755C127.629 45.5174 128.387 46.0203 129.026 46.6555C129.666 47.2907 130.174 48.0458 130.521 48.8775C130.868 49.7092 131.048 50.6011 131.05 51.5024C131.051 52.4037 130.874 53.2962 130.529 54.129C130.185 54.9618 129.68 55.7185 129.042 56.3559C128.405 56.9933 127.649 57.4989 126.816 57.8438C125.983 58.1887 125.091 58.3661 124.19 58.3658ZM118.875 51.5117C118.877 52.9135 119.43 54.2583 120.415 55.2557C121.4 56.253 122.738 56.8228 124.14 56.8419C124.842 56.8494 125.539 56.7181 126.191 56.4554C126.842 56.1928 127.435 55.804 127.936 55.3115C128.437 54.8189 128.835 54.2322 129.109 53.5852C129.382 52.9382 129.525 52.2435 129.529 51.541C129.536 50.1307 128.983 48.7753 127.992 47.7716C127.001 46.7678 125.653 46.1975 124.243 46.1854C123.541 46.1821 122.844 46.3174 122.194 46.5834C121.544 46.8495 120.953 47.241 120.455 47.7357C119.956 48.2304 119.56 48.8186 119.289 49.4665C119.018 50.1144 118.877 50.8094 118.875 51.5117Z" fill="#3DC4AB"/>
<path d="M96.0174 50.786V52.251H88.4656V50.786H96.0174Z" fill="#3DC4AB"/>
<path d="M96.0169 53.8318V55.2963H88.4656V53.8318H96.0169Z" fill="#3DC4AB"/>
<path d="M91.4954 47.7274H96.0044V49.2026H91.4954V47.7274Z" fill="#3DC4AB"/>
<path d="M88.4546 47.7318H89.9128V49.1985H88.4546V47.7318Z" fill="#3DC4AB"/>
<path d="M120.659 51.2727L121.72 50.2491L123.373 52.0031L126.678 48.6823L127.742 49.823L124.941 52.6193C124.627 52.9325 124.322 53.2558 123.997 53.5567C123.936 53.6316 123.86 53.6929 123.773 53.7367C123.687 53.7806 123.593 53.806 123.496 53.8114C123.4 53.8168 123.303 53.802 123.213 53.768C123.122 53.7341 123.04 53.6816 122.97 53.614C122.184 52.859 121.436 52.0646 120.659 51.2727Z" fill="#3DC4AB"/>
<path d="M34.1396 135.332C32.2859 135.332 30.8905 133.896 30.8905 131.471C30.8905 129.058 32.3063 127.591 34.2007 127.591C35.1071 127.591 35.8201 128.039 36.2479 128.518L35.7386 129.129C35.3516 128.711 34.8525 128.416 34.2109 128.416C32.7951 128.416 31.8581 129.577 31.8581 131.441C31.8581 133.325 32.7544 134.507 34.1803 134.507C34.8933 134.507 35.4331 134.191 35.9118 133.671L36.4312 134.262C35.8405 134.945 35.1071 135.332 34.1396 135.332ZM37.7318 135.199V129.669H38.4957L38.5771 130.677H38.6077C38.9947 129.974 39.5549 129.526 40.1762 129.526C40.4206 129.526 40.5938 129.557 40.7669 129.648L40.5938 130.463C40.4105 130.392 40.278 130.371 40.054 130.371C39.5956 130.371 39.0253 130.697 38.6586 131.645V135.199H37.7318ZM43.8016 135.332C42.3349 135.332 41.1535 134.262 41.1535 132.439C41.1535 130.646 42.3655 129.526 43.6488 129.526C45.0544 129.526 45.8488 130.545 45.8488 132.123C45.8488 132.327 45.8284 132.521 45.808 132.653H42.0803C42.1414 133.834 42.8646 134.588 43.9136 134.588C44.4534 134.588 44.8914 134.425 45.2988 134.15L45.6349 134.761C45.146 135.077 44.5553 135.332 43.8016 135.332ZM42.0701 131.981H45.034C45.034 130.871 44.5247 130.27 43.659 130.27C42.8748 130.27 42.1822 130.901 42.0701 131.981ZM48.3246 135.332C47.3978 135.332 46.7052 134.761 46.7052 133.763C46.7052 132.561 47.7543 131.96 50.107 131.696C50.107 130.983 49.8728 130.3 48.9663 130.3C48.3246 130.3 47.7441 130.596 47.3061 130.891L46.9395 130.249C47.4487 129.923 48.233 129.526 49.1191 129.526C50.4635 129.526 51.0339 130.433 51.0339 131.797V135.199H50.27L50.1885 134.537H50.1579C49.6283 134.975 49.007 135.332 48.3246 135.332ZM48.5894 134.588C49.1292 134.588 49.5672 134.333 50.107 133.855V132.307C48.2431 132.531 47.6117 132.989 47.6117 133.702C47.6117 134.333 48.0394 134.588 48.5894 134.588ZM54.3929 135.332C53.2115 135.332 52.8142 134.588 52.8142 133.488V130.422H51.9893V129.72L52.855 129.669L52.967 128.11H53.7411V129.669H55.2383V130.422H53.7411V133.508C53.7411 134.191 53.955 134.578 54.5966 134.578C54.7901 134.578 55.0448 134.507 55.2281 134.435L55.4114 135.128C55.0957 135.23 54.729 135.332 54.3929 135.332ZM58.5719 135.332C57.1053 135.332 55.9238 134.262 55.9238 132.439C55.9238 130.646 57.1358 129.526 58.4191 129.526C59.8247 129.526 60.6191 130.545 60.6191 132.123C60.6191 132.327 60.5987 132.521 60.5784 132.653H56.8506C56.9117 133.834 57.6349 134.588 58.6839 134.588C59.2237 134.588 59.6617 134.425 60.0691 134.15L60.4052 134.761C59.9163 135.077 59.3256 135.332 58.5719 135.332ZM56.8404 131.981H59.8043C59.8043 130.871 59.295 130.27 58.4293 130.27C57.6451 130.27 56.9525 130.901 56.8404 131.981ZM65.7049 135.332C64.9207 135.332 64.167 135.006 63.6374 134.568L64.0957 133.957C64.5744 134.344 65.0735 134.608 65.7355 134.608C66.4688 134.608 66.8253 134.221 66.8253 133.743C66.8253 133.172 66.1734 132.928 65.5623 132.694C64.7883 132.408 63.9429 132.032 63.9429 131.095C63.9429 130.219 64.6559 129.526 65.8577 129.526C66.5401 129.526 67.141 129.811 67.5688 130.147L67.1207 130.748C66.7438 130.463 66.3568 130.259 65.8679 130.259C65.1651 130.259 64.8392 130.626 64.8392 131.054C64.8392 131.583 65.4096 131.777 66.0309 132.011C66.8355 132.317 67.7216 132.643 67.7216 133.692C67.7216 134.588 67.0086 135.332 65.7049 135.332ZM71.2535 135.332C69.7868 135.332 68.6054 134.262 68.6054 132.439C68.6054 130.646 69.8174 129.526 71.1007 129.526C72.5062 129.526 73.3007 130.545 73.3007 132.123C73.3007 132.327 73.2803 132.521 73.2599 132.653H69.5322C69.5933 133.834 70.3165 134.588 71.3655 134.588C71.9053 134.588 72.3433 134.425 72.7507 134.15L73.0868 134.761C72.5979 135.077 72.0072 135.332 71.2535 135.332ZM69.522 131.981H72.4859C72.4859 130.871 71.9766 130.27 71.1109 130.27C70.3266 130.27 69.6341 130.901 69.522 131.981ZM75.6403 135.332C74.9477 135.332 74.6625 134.883 74.6625 134.099V127.092H75.5894V134.16C75.5894 134.445 75.7116 134.558 75.8542 134.558C75.9051 134.558 75.9458 134.558 76.0477 134.537L76.1801 135.25C76.0477 135.301 75.8949 135.332 75.6403 135.332ZM78.5446 135.332C77.852 135.332 77.5669 134.883 77.5669 134.099V127.092H78.4937V134.16C78.4937 134.445 78.6159 134.558 78.7585 134.558C78.8094 134.558 78.8502 134.558 78.952 134.537L79.0844 135.25C78.952 135.301 78.7992 135.332 78.5446 135.332ZM82.7017 135.332C81.2351 135.332 80.0536 134.262 80.0536 132.439C80.0536 130.646 81.2656 129.526 82.5489 129.526C83.9545 129.526 84.7489 130.545 84.7489 132.123C84.7489 132.327 84.7285 132.521 84.7082 132.653H80.9804C81.0415 133.834 81.7647 134.588 82.8137 134.588C83.3536 134.588 83.7915 134.425 84.1989 134.15L84.535 134.761C84.0461 135.077 83.4554 135.332 82.7017 135.332ZM80.9703 131.981H83.9341C83.9341 130.871 83.4248 130.27 82.5591 130.27C81.7749 130.27 81.0823 130.901 80.9703 131.981ZM86.1108 135.199V129.669H86.8746L86.9561 130.677H86.9867C87.3737 129.974 87.9339 129.526 88.5552 129.526C88.7996 129.526 88.9728 129.557 89.1459 129.648L88.9728 130.463C88.7894 130.392 88.657 130.371 88.4329 130.371C87.9746 130.371 87.4043 130.697 87.0376 131.645V135.199H86.1108ZM94.0788 135.332C92.8973 135.332 92.5001 134.588 92.5001 133.488V130.422H91.6751V129.72L92.5409 129.669L92.6529 128.11H93.427V129.669H94.9242V130.422H93.427V133.508C93.427 134.191 93.6408 134.578 94.2825 134.578C94.476 134.578 94.7306 134.507 94.914 134.435L95.0973 135.128C94.7816 135.23 94.4149 135.332 94.0788 135.332ZM98.1763 135.332C96.8217 135.332 95.6097 134.272 95.6097 132.439C95.6097 130.596 96.8217 129.526 98.1763 129.526C99.5309 129.526 100.743 130.596 100.743 132.439C100.743 134.272 99.5309 135.332 98.1763 135.332ZM98.1763 134.558C99.1337 134.558 99.7855 133.712 99.7855 132.439C99.7855 131.166 99.1337 130.3 98.1763 130.3C97.2189 130.3 96.5772 131.166 96.5772 132.439C96.5772 133.712 97.2189 134.558 98.1763 134.558ZM104.482 135.199V129.669H105.246L105.327 130.473H105.358C105.836 129.944 106.417 129.526 107.079 129.526C107.924 129.526 108.383 129.934 108.607 130.585C109.177 129.964 109.757 129.526 110.43 129.526C111.57 129.526 112.11 130.28 112.11 131.696V135.199H111.183V131.818C111.183 130.779 110.857 130.341 110.155 130.341C109.727 130.341 109.279 130.616 108.759 131.186V135.199H107.833V131.818C107.833 130.779 107.507 130.341 106.804 130.341C106.386 130.341 105.918 130.616 105.408 131.186V135.199H104.482ZM115.184 135.332C114.257 135.332 113.564 134.761 113.564 133.763C113.564 132.561 114.614 131.96 116.966 131.696C116.966 130.983 116.732 130.3 115.826 130.3C115.184 130.3 114.603 130.596 114.165 130.891L113.799 130.249C114.308 129.923 115.092 129.526 115.978 129.526C117.323 129.526 117.893 130.433 117.893 131.797V135.199H117.129L117.048 134.537H117.017C116.488 134.975 115.866 135.332 115.184 135.332ZM115.449 134.588C115.989 134.588 116.426 134.333 116.966 133.855V132.307C115.102 132.531 114.471 132.989 114.471 133.702C114.471 134.333 114.899 134.588 115.449 134.588ZM119.66 135.199V129.669H120.424L120.505 130.463H120.536C121.065 129.944 121.636 129.526 122.389 129.526C123.55 129.526 124.08 130.28 124.08 131.696V135.199H123.153V131.818C123.153 130.779 122.837 130.341 122.104 130.341C121.534 130.341 121.147 130.626 120.587 131.186V135.199H119.66ZM127.159 135.332C126.232 135.332 125.54 134.761 125.54 133.763C125.54 132.561 126.589 131.96 128.942 131.696C128.942 130.983 128.707 130.3 127.801 130.3C127.159 130.3 126.579 130.596 126.141 130.891L125.774 130.249C126.283 129.923 127.068 129.526 127.954 129.526C129.298 129.526 129.868 130.433 129.868 131.797V135.199H129.105L129.023 134.537H128.993C128.463 134.975 127.842 135.332 127.159 135.332ZM127.424 134.588C127.964 134.588 128.402 134.333 128.942 133.855V132.307C127.078 132.531 126.446 132.989 126.446 133.702C126.446 134.333 126.874 134.588 127.424 134.588ZM133.499 137.745C132.144 137.745 131.218 137.216 131.218 136.258C131.218 135.79 131.513 135.342 132.032 135.006V134.965C131.737 134.792 131.523 134.496 131.523 134.058C131.523 133.6 131.859 133.233 132.144 133.03V132.989C131.778 132.694 131.421 132.164 131.421 131.502C131.421 130.29 132.379 129.526 133.499 129.526C133.805 129.526 134.08 129.597 134.273 129.669H136.198V130.382H135.067C135.332 130.636 135.516 131.044 135.516 131.522C135.516 132.704 134.619 133.447 133.499 133.447C133.224 133.447 132.918 133.376 132.674 133.254C132.47 133.427 132.318 133.61 132.318 133.916C132.318 134.272 132.542 134.517 133.285 134.517H134.365C135.648 134.517 136.3 134.924 136.3 135.831C136.3 136.859 135.21 137.745 133.499 137.745ZM133.499 132.816C134.13 132.816 134.68 132.307 134.68 131.502C134.68 130.697 134.151 130.209 133.499 130.209C132.847 130.209 132.318 130.687 132.318 131.502C132.318 132.307 132.857 132.816 133.499 132.816ZM133.631 137.114C134.691 137.114 135.393 136.554 135.393 135.973C135.393 135.464 134.996 135.291 134.263 135.291H133.305C133.102 135.291 132.837 135.26 132.593 135.199C132.195 135.484 132.032 135.81 132.032 136.136C132.032 136.727 132.633 137.114 133.631 137.114ZM139.455 135.332C137.989 135.332 136.807 134.262 136.807 132.439C136.807 130.646 138.019 129.526 139.303 129.526C140.708 129.526 141.503 130.545 141.503 132.123C141.503 132.327 141.482 132.521 141.462 132.653H137.734C137.795 133.834 138.518 134.588 139.568 134.588C140.107 134.588 140.545 134.425 140.953 134.15L141.289 134.761C140.8 135.077 140.209 135.332 139.455 135.332ZM137.724 131.981H140.688C140.688 130.871 140.179 130.27 139.313 130.27C138.529 130.27 137.836 130.901 137.724 131.981ZM146.884 135.332C145.702 135.332 145.305 134.588 145.305 133.488V130.422H144.48V129.72L145.346 129.669L145.458 128.11H146.232V129.669H147.729V130.422H146.232V133.508C146.232 134.191 146.446 134.578 147.088 134.578C147.281 134.578 147.536 134.507 147.719 134.435L147.902 135.128C147.587 135.23 147.22 135.332 146.884 135.332ZM148.982 135.199V127.092H149.908V129.312L149.878 130.453C150.387 129.944 150.957 129.526 151.711 129.526C152.872 129.526 153.402 130.28 153.402 131.696V135.199H152.475V131.818C152.475 130.779 152.159 130.341 151.426 130.341C150.856 130.341 150.469 130.626 149.908 131.186V135.199H148.982ZM157.399 135.332C155.932 135.332 154.751 134.262 154.751 132.439C154.751 130.646 155.963 129.526 157.246 129.526C158.651 129.526 159.446 130.545 159.446 132.123C159.446 132.327 159.425 132.521 159.405 132.653H155.677C155.739 133.834 156.462 134.588 157.511 134.588C158.051 134.588 158.488 134.425 158.896 134.15L159.232 134.761C158.743 135.077 158.152 135.332 157.399 135.332ZM155.667 131.981H158.631C158.631 130.871 158.122 130.27 157.256 130.27C156.472 130.27 155.779 130.901 155.667 131.981ZM164.532 135.332C163.747 135.332 162.994 135.006 162.464 134.568L162.922 133.957C163.401 134.344 163.9 134.608 164.562 134.608C165.296 134.608 165.652 134.221 165.652 133.743C165.652 133.172 165 132.928 164.389 132.694C163.615 132.408 162.77 132.032 162.77 131.095C162.77 130.219 163.483 129.526 164.684 129.526C165.367 129.526 165.968 129.811 166.396 130.147L165.947 130.748C165.571 130.463 165.184 130.259 164.695 130.259C163.992 130.259 163.666 130.626 163.666 131.054C163.666 131.583 164.236 131.777 164.858 132.011C165.662 132.317 166.548 132.643 166.548 133.692C166.548 134.588 165.835 135.332 164.532 135.332ZM169.363 135.332C168.181 135.332 167.784 134.588 167.784 133.488V130.422H166.959V129.72L167.825 129.669L167.937 128.11H168.711V129.669H170.208V130.422H168.711V133.508C168.711 134.191 168.925 134.578 169.566 134.578C169.76 134.578 170.014 134.507 170.198 134.435L170.381 135.128C170.065 135.23 169.699 135.332 169.363 135.332ZM173.46 135.332C172.105 135.332 170.893 134.272 170.893 132.439C170.893 130.596 172.105 129.526 173.46 129.526C174.815 129.526 176.027 130.596 176.027 132.439C176.027 134.272 174.815 135.332 173.46 135.332ZM173.46 134.558C174.417 134.558 175.069 133.712 175.069 132.439C175.069 131.166 174.417 130.3 173.46 130.3C172.503 130.3 171.861 131.166 171.861 132.439C171.861 133.712 172.503 134.558 173.46 134.558ZM177.488 135.199V129.669H178.252L178.333 130.677H178.364C178.751 129.974 179.311 129.526 179.932 129.526C180.177 129.526 180.35 129.557 180.523 129.648L180.35 130.463C180.166 130.392 180.034 130.371 179.81 130.371C179.352 130.371 178.781 130.697 178.415 131.645V135.199H177.488ZM183.558 135.332C182.091 135.332 180.909 134.262 180.909 132.439C180.909 130.646 182.121 129.526 183.405 129.526C184.81 129.526 185.605 130.545 185.605 132.123C185.605 132.327 185.584 132.521 185.564 132.653H181.836C181.897 133.834 182.621 134.588 183.67 134.588C184.209 134.588 184.647 134.425 185.055 134.15L185.391 134.761C184.902 135.077 184.311 135.332 183.558 135.332ZM181.826 131.981H184.79C184.79 130.871 184.281 130.27 183.415 130.27C182.631 130.27 181.938 130.901 181.826 131.981Z" fill="black"/>
<path d="M93.4118 150.609C91.9451 150.609 90.8146 149.55 90.8146 147.717C90.8146 145.873 92.0674 144.804 93.4831 144.804C94.2062 144.804 94.7053 145.109 95.1025 145.456L94.6238 146.067C94.2979 145.781 93.9618 145.578 93.5238 145.578C92.5155 145.578 91.7822 146.443 91.7822 147.717C91.7822 148.99 92.4748 149.835 93.4933 149.835C94.0025 149.835 94.4507 149.601 94.797 149.285L95.2044 149.906C94.7053 150.355 94.0738 150.609 93.4118 150.609ZM96.4142 150.477V144.946H97.1781L97.2596 145.955H97.2901C97.6772 145.252 98.2374 144.804 98.8586 144.804C99.1031 144.804 99.2762 144.834 99.4494 144.926L99.2762 145.741C99.0929 145.669 98.9605 145.649 98.7364 145.649C98.2781 145.649 97.7077 145.975 97.3411 146.922V150.477H96.4142ZM102.484 150.609C101.017 150.609 99.8359 149.54 99.8359 147.717C99.8359 145.924 101.048 144.804 102.331 144.804C103.737 144.804 104.531 145.822 104.531 147.401C104.531 147.605 104.511 147.798 104.49 147.931H100.763C100.824 149.112 101.547 149.866 102.596 149.866C103.136 149.866 103.574 149.703 103.981 149.428L104.317 150.039C103.828 150.355 103.238 150.609 102.484 150.609ZM100.753 147.258H103.716C103.716 146.148 103.207 145.547 102.341 145.547C101.557 145.547 100.865 146.179 100.753 147.258ZM107.007 150.609C106.08 150.609 105.388 150.039 105.388 149.041C105.388 147.839 106.437 147.238 108.789 146.973C108.789 146.26 108.555 145.578 107.649 145.578C107.007 145.578 106.427 145.873 105.989 146.169L105.622 145.527C106.131 145.201 106.915 144.804 107.802 144.804C109.146 144.804 109.716 145.71 109.716 147.075V150.477H108.952L108.871 149.815H108.84C108.311 150.253 107.689 150.609 107.007 150.609ZM107.272 149.866C107.812 149.866 108.25 149.611 108.789 149.132V147.584C106.926 147.808 106.294 148.267 106.294 148.98C106.294 149.611 106.722 149.866 107.272 149.866ZM113.075 150.609C111.894 150.609 111.497 149.866 111.497 148.766V145.7H110.672V144.997L111.537 144.946L111.649 143.388H112.424V144.946H113.921V145.7H112.424V148.786C112.424 149.468 112.637 149.855 113.279 149.855C113.473 149.855 113.727 149.784 113.911 149.713L114.094 150.405C113.778 150.507 113.411 150.609 113.075 150.609ZM117.254 150.609C115.788 150.609 114.606 149.54 114.606 147.717C114.606 145.924 115.818 144.804 117.102 144.804C118.507 144.804 119.302 145.822 119.302 147.401C119.302 147.605 119.281 147.798 119.261 147.931H115.533C115.594 149.112 116.317 149.866 117.366 149.866C117.906 149.866 118.344 149.703 118.752 149.428L119.088 150.039C118.599 150.355 118.008 150.609 117.254 150.609ZM115.523 147.258H118.487C118.487 146.148 117.977 145.547 117.112 145.547C116.328 145.547 115.635 146.179 115.523 147.258ZM122.548 150.609C121.162 150.609 120.266 149.56 120.266 147.717C120.266 145.924 121.397 144.804 122.66 144.804C123.312 144.804 123.729 145.048 124.218 145.456L124.177 144.498V142.369H125.094V150.477H124.34L124.259 149.825H124.228C123.79 150.253 123.21 150.609 122.548 150.609ZM122.751 149.835C123.261 149.835 123.709 149.58 124.177 149.071V146.169C123.699 145.751 123.281 145.588 122.823 145.588C121.926 145.588 121.224 146.443 121.224 147.706C121.224 149.041 121.774 149.835 122.751 149.835Z" fill="black"/>
<defs>
<filter id="filter0_d_1_1259" x="0.72009" y="0.800065" width="209.099" height="202.979" filterUnits="userSpaceOnUse" color-interpolation-filters="sRGB">
<feFlood flood-opacity="0" result="BackgroundImageFix"/>
<feColorMatrix in="SourceAlpha" type="matrix" values="0 0 0 0 0 0 0 0 0 0 0 0 0 0 0 0 0 0 127 0" result="hardAlpha"/>
<feOffset dy="4.07997"/>
<feGaussianBlur stdDeviation="7.13996"/>
<feComposite in2="hardAlpha" operator="out"/>
<feColorMatrix type="matrix" values="0 0 0 0 0 0 0 0 0 0 0 0 0 0 0 0 0 0 0.15 0"/>
<feBlend mode="normal" in2="BackgroundImageFix" result="effect1_dropShadow_1_1259"/>
<feBlend mode="normal" in="SourceGraphic" in2="effect1_dropShadow_1_1259" result="shape"/>
</filter>
</defs>
</svg>
