<svg width="210" height="204" viewBox="0 0 210 204" fill="none" xmlns="http://www.w3.org/2000/svg">
<g filter="url(#filter0_d_1_1278)">
<rect x="15" y="11" width="180.539" height="174.419" rx="15.2999" fill="white"/>
<rect x="15.51" y="11.51" width="179.519" height="173.399" rx="14.7899" stroke="#A7CAE5" stroke-width="1.01999"/>
</g>
<path d="M71.2668 112.397C69.0109 112.397 67.2793 110.714 67.2793 107.775C67.2793 104.848 69.0596 103.092 71.3277 103.092C72.4496 103.092 73.3276 103.629 73.8763 104.227L73.1081 105.129C72.6447 104.653 72.0838 104.324 71.3521 104.324C69.8035 104.324 68.7304 105.617 68.7304 107.726C68.7304 109.86 69.7303 111.165 71.3155 111.165C72.1447 111.165 72.7666 110.799 73.3032 110.214L74.0592 111.104C73.3398 111.933 72.4252 112.397 71.2668 112.397ZM75.5284 112.238V105.531H76.6746L76.7844 106.739H76.821C77.2965 105.873 78.0038 105.361 78.7232 105.361C79.0525 105.361 79.272 105.409 79.4793 105.507L79.2232 106.726C78.9915 106.653 78.8208 106.617 78.5525 106.617C78.0038 106.617 77.3453 106.995 76.9307 108.055V112.238H75.5284ZM83.1794 112.397C81.3625 112.397 79.9114 111.104 79.9114 108.885C79.9114 106.714 81.4113 105.361 82.9721 105.361C84.7525 105.361 85.7158 106.641 85.7158 108.531C85.7158 108.811 85.6792 109.08 85.6426 109.25H81.2893C81.3991 110.531 82.2039 111.299 83.3623 111.299C83.9598 111.299 84.472 111.116 84.9598 110.799L85.4475 111.689C84.8256 112.104 84.0574 112.397 83.1794 112.397ZM81.2771 108.275H84.4964C84.4964 107.129 83.972 106.458 82.9965 106.458C82.1551 106.458 81.4113 107.104 81.2771 108.275ZM88.6885 112.397C87.53 112.397 86.713 111.641 86.713 110.458C86.713 109.019 87.9324 108.275 90.7249 107.97C90.7127 107.19 90.4322 106.507 89.4445 106.507C88.7373 106.507 88.0788 106.824 87.5057 107.19L86.9813 106.239C87.6764 105.8 88.6153 105.361 89.6884 105.361C91.359 105.361 92.1272 106.421 92.1272 108.202V112.238H90.981L90.8712 111.47H90.8224C90.2127 111.994 89.4933 112.397 88.6885 112.397ZM89.1153 111.287C89.7006 111.287 90.1762 111.006 90.7249 110.506V108.86C88.7373 109.092 88.0666 109.604 88.0666 110.36C88.0666 111.019 88.5178 111.287 89.1153 111.287ZM96.1707 112.397C94.6586 112.397 94.1343 111.458 94.1343 110.043V106.653H93.1588V105.604L94.2074 105.531L94.366 103.678H95.5366V105.531H97.2804V106.653H95.5366V110.055C95.5366 110.86 95.8171 111.275 96.5121 111.275C96.7438 111.275 97.0365 111.202 97.2316 111.116L97.4877 112.153C97.1096 112.275 96.6585 112.397 96.1707 112.397ZM101.34 112.397C99.5226 112.397 98.0715 111.104 98.0715 108.885C98.0715 106.714 99.5714 105.361 101.132 105.361C102.913 105.361 103.876 106.641 103.876 108.531C103.876 108.811 103.839 109.08 103.803 109.25H99.4495C99.5592 110.531 100.364 111.299 101.522 111.299C102.12 111.299 102.632 111.116 103.12 110.799L103.608 111.689C102.986 112.104 102.218 112.397 101.34 112.397ZM99.4373 108.275H102.657C102.657 107.129 102.132 106.458 101.157 106.458C100.315 106.458 99.5714 107.104 99.4373 108.275ZM110.864 112.397C109.632 112.397 108.486 111.909 107.669 111.08L108.498 110.104C109.144 110.75 110.022 111.165 110.888 111.165C111.973 111.165 112.583 110.653 112.583 109.897C112.583 109.08 111.973 108.824 111.144 108.458L109.9 107.921C109.034 107.556 108.071 106.873 108.071 105.568C108.071 104.153 109.315 103.092 111.022 103.092C112.071 103.092 113.059 103.531 113.741 104.227L112.998 105.129C112.437 104.629 111.815 104.324 111.022 104.324C110.108 104.324 109.51 104.763 109.51 105.47C109.51 106.251 110.23 106.543 110.961 106.836L112.193 107.36C113.254 107.812 114.022 108.47 114.022 109.787C114.022 111.226 112.827 112.397 110.864 112.397ZM117.51 112.397C115.998 112.397 115.474 111.458 115.474 110.043V106.653H114.498V105.604L115.547 105.531L115.706 103.678H116.876V105.531H118.62V106.653H116.876V110.055C116.876 110.86 117.157 111.275 117.852 111.275C118.083 111.275 118.376 111.202 118.571 111.116L118.827 112.153C118.449 112.275 117.998 112.397 117.51 112.397ZM122.569 112.397C120.911 112.397 119.411 111.116 119.411 108.885C119.411 106.653 120.911 105.361 122.569 105.361C124.228 105.361 125.728 106.653 125.728 108.885C125.728 111.116 124.228 112.397 122.569 112.397ZM122.569 111.25C123.63 111.25 124.289 110.311 124.289 108.885C124.289 107.47 123.63 106.519 122.569 106.519C121.521 106.519 120.862 107.47 120.862 108.885C120.862 110.311 121.521 111.25 122.569 111.25ZM127.377 112.238V105.531H128.523L128.633 106.739H128.67C129.145 105.873 129.852 105.361 130.572 105.361C130.901 105.361 131.121 105.409 131.328 105.507L131.072 106.726C130.84 106.653 130.669 106.617 130.401 106.617C129.852 106.617 129.194 106.995 128.779 108.055V112.238H127.377ZM135.028 112.397C133.211 112.397 131.76 111.104 131.76 108.885C131.76 106.714 133.26 105.361 134.821 105.361C136.601 105.361 137.564 106.641 137.564 108.531C137.564 108.811 137.528 109.08 137.491 109.25H133.138C133.248 110.531 134.053 111.299 135.211 111.299C135.809 111.299 136.321 111.116 136.808 110.799L137.296 111.689C136.674 112.104 135.906 112.397 135.028 112.397ZM133.126 108.275H136.345C136.345 107.129 135.821 106.458 134.845 106.458C134.004 106.458 133.26 107.104 133.126 108.275Z" fill="black"/>
<path d="M83.4434 59.4832C84.4131 57.112 85.3829 54.741 86.3529 52.3701C87.0824 50.5911 88.2439 49.8094 90.1606 49.8085C94.0827 49.8067 98.0048 49.8067 101.927 49.8085C102.083 49.8033 102.239 49.8113 102.394 49.8324C102.479 49.8409 102.562 49.8662 102.637 49.9067C102.712 49.9473 102.779 50.0024 102.833 50.0689C102.887 50.1353 102.927 50.2118 102.951 50.2938C102.976 50.3759 102.984 50.462 102.974 50.5471C102.973 50.6295 102.955 50.7108 102.922 50.7863C102.889 50.8617 102.842 50.9299 102.782 50.9866C102.722 51.0434 102.652 51.0877 102.575 51.1169C102.498 51.1462 102.416 51.1597 102.333 51.1568C101.837 51.1768 101.338 51.1794 100.842 51.162C100.559 51.1524 100.44 51.2287 100.425 51.5335C100.294 54.2105 100.143 56.8867 100.014 59.5642C99.9794 60.0516 100.132 60.5339 100.44 60.9129C100.749 61.2919 101.19 61.5392 101.674 61.6045C101.916 61.6315 102.16 61.6094 102.393 61.5394C102.625 61.4694 102.841 61.3531 103.028 61.1974C103.214 61.0417 103.367 60.8499 103.477 60.6335C103.587 60.4171 103.653 60.1806 103.669 59.9383C103.705 59.1747 103.687 58.4095 103.616 57.6484C103.586 56.9542 103.529 56.2613 103.496 55.5671C103.469 55.0284 103.706 54.7109 104.135 54.6892C104.57 54.667 104.827 54.9505 104.857 55.4922C104.936 56.8941 105.01 58.296 105.095 59.6974C105.089 59.9434 105.132 60.1881 105.221 60.4175C105.31 60.6469 105.443 60.8566 105.613 61.0345C105.783 61.2125 105.986 61.3552 106.211 61.4546C106.436 61.5539 106.678 61.608 106.924 61.6137C107.017 61.6137 107.109 61.6325 107.194 61.669C107.279 61.7055 107.356 61.7589 107.42 61.8259C107.483 61.893 107.533 61.9724 107.565 62.0592C107.597 62.146 107.612 62.2384 107.607 62.3309C107.605 62.4236 107.583 62.5147 107.544 62.5985C107.504 62.6824 107.448 62.757 107.378 62.8177C107.308 62.8784 107.226 62.9239 107.137 62.9511C107.049 62.9783 106.955 62.9868 106.863 62.9759C106.465 62.9712 106.072 62.888 105.705 62.731C105.339 62.5741 105.008 62.3465 104.729 62.0614C104.624 61.9454 104.526 61.823 104.437 61.6947C102.883 63.4802 100.652 63.3104 99.3257 61.7256C99.0243 62.112 98.6397 62.4255 98.2004 62.6428C97.7611 62.8601 97.2785 62.9756 96.7885 62.9807C96.2983 62.9763 95.8155 62.8607 95.3765 62.6425C94.9375 62.4243 94.5538 62.1093 94.2543 61.7212C93.9524 62.1093 93.5667 62.424 93.1261 62.642C92.6854 62.8599 92.2012 62.9754 91.7096 62.9798C91.2423 62.9805 90.7805 62.8774 90.3579 62.6778C89.9352 62.4783 89.5621 62.1874 89.2656 61.8262C88.7243 62.2143 88.1471 62.5497 87.5419 62.8278C86.7529 63.0745 85.8984 63.0001 85.164 62.6206C84.4296 62.2411 83.8745 61.5873 83.6193 60.801C83.5644 60.6442 83.5021 60.4901 83.4451 60.335L83.4434 59.4832ZM95.1074 51.1699C94.28 51.1699 93.5157 51.1855 92.7527 51.162C92.6921 51.1508 92.6299 51.1522 92.5699 51.1662C92.5099 51.1802 92.4534 51.2064 92.404 51.2432C92.3547 51.28 92.3134 51.3266 92.2829 51.38C92.2523 51.4335 92.2332 51.4927 92.2266 51.554C91.4745 54.1788 90.7049 56.7987 89.948 59.4218C89.8936 59.5955 89.8756 59.7786 89.8953 59.9596C89.9421 60.4088 90.152 60.8253 90.4851 61.1302C90.8182 61.4352 91.2515 61.6075 91.7031 61.6145C92.1543 61.6108 92.5886 61.4427 92.9249 61.1419C93.2611 60.8411 93.4763 60.4281 93.53 59.9801C93.7687 58.6141 94.0101 57.2485 94.2543 55.8833C94.5308 54.3377 94.813 52.7939 95.1074 51.1699ZM96.501 51.1964C96.4697 51.3271 96.4331 51.4468 96.4105 51.5705C95.9459 54.1342 95.4814 56.698 95.0169 59.2619C94.9523 59.5162 94.9411 59.7811 94.9841 60.0399C95.027 60.2987 95.1231 60.5457 95.2664 60.7655C95.4096 60.9853 95.5968 61.173 95.8162 61.3168C96.0356 61.4606 96.2824 61.5574 96.5411 61.601C96.8029 61.6322 97.0683 61.6076 97.3199 61.5287C97.5714 61.4499 97.8034 61.3186 98.0005 61.1435C98.1976 60.9685 98.3554 60.7536 98.4634 60.5132C98.5714 60.2727 98.6272 60.012 98.6272 59.7484C98.7378 57.9659 98.8358 56.1825 98.9342 54.3991C98.9926 53.3413 99.0409 52.283 99.0953 51.1964H96.501ZM90.931 51.1699C90.5765 51.1699 90.2834 51.1699 89.9903 51.1699C89.4887 51.1403 88.9912 51.2762 88.5742 51.5567C88.1573 51.8372 87.8439 52.2467 87.6821 52.7224C86.7641 54.9474 85.8404 57.1702 84.9411 59.4022C84.8403 59.6619 84.8183 59.9457 84.8779 60.2179C84.9745 60.6448 85.2238 61.0217 85.5789 61.2777C85.9339 61.5337 86.3703 61.6512 86.8059 61.608C87.2391 61.5547 87.641 61.3545 87.9446 61.0409C88.2482 60.7272 88.4351 60.319 88.4743 59.8843C88.5056 59.6035 88.5598 59.3257 88.6363 59.0538C89.1615 57.2312 89.6967 55.4117 90.2276 53.5908C90.4576 52.8069 90.6836 52.0226 90.9305 51.1703L90.931 51.1699Z" fill="#6458D8"/>
<path d="M127.103 50.1203C126.996 50.8324 126.845 51.5372 126.651 52.2307C126.376 53.0933 126.015 53.9261 125.574 54.7166C122.782 59.4888 119.952 64.2384 117.135 68.9941C117.091 69.0672 117.052 69.1426 117.004 69.2118C116.951 69.3345 116.863 69.4389 116.752 69.5122C116.64 69.5856 116.509 69.6247 116.375 69.6247C116.242 69.6247 116.111 69.5856 115.999 69.5122C115.888 69.4389 115.8 69.3345 115.747 69.2118C115.492 68.8029 115.252 68.3844 115.006 67.9698L107.186 54.7579C106.302 53.2861 105.786 51.6235 105.679 49.9103C105.573 48.197 105.88 46.4833 106.575 44.9135C107.269 43.3438 108.331 41.964 109.671 40.8905C111.01 39.8171 112.588 39.0813 114.271 38.7454C115.72 38.4579 117.212 38.4721 118.654 38.7871C120.097 39.1021 121.459 39.7111 122.656 40.5762C123.852 41.4413 124.858 42.5438 125.609 43.8148C126.36 45.0859 126.842 46.4982 127.023 47.9637C127.043 48.0879 127.07 48.2111 127.103 48.3325V50.1203ZM116.385 67.5935C116.507 67.3923 116.603 67.2364 116.697 67.0783C119.258 62.7488 121.82 58.4192 124.381 54.0894C125.463 52.3049 125.916 50.2098 125.668 48.1379C125.515 46.8925 125.113 45.6907 124.486 44.6034C123.86 43.5162 123.022 42.5656 122.022 41.8078C121.021 41.0501 119.879 40.5006 118.663 40.1919C117.447 39.8832 116.181 39.8215 114.941 40.0105C113.428 40.2462 111.996 40.8495 110.771 41.7675C109.546 42.6854 108.565 43.8901 107.914 45.2757C107.262 46.6613 106.961 48.1855 107.037 49.7146C107.112 51.2437 107.561 52.731 108.345 54.0459C110.942 58.4369 113.543 62.8258 116.147 67.2124C116.217 67.3309 116.293 67.4463 116.385 67.5935Z" fill="#6458D8"/>
<path d="M87.1098 82.1245C86.9543 82.0276 86.8295 81.8885 86.75 81.7234C86.6706 81.5583 86.6396 81.374 86.6608 81.1921C86.6707 75.6176 86.673 70.0432 86.6678 64.4687C86.6646 64.3695 86.6672 64.2702 86.6756 64.1713C86.6802 64.0125 86.7458 63.8617 86.8588 63.75C86.9718 63.6384 87.1234 63.5747 87.2823 63.572C87.4395 63.5468 87.6005 63.5834 87.7314 63.6742C87.8623 63.7649 87.9531 63.9028 87.9847 64.0589C88.0227 64.2386 88.0374 64.4225 88.0283 64.6059C88.0306 69.8116 88.0306 75.0175 88.0283 80.2235V80.7422H115.697V80.2392C115.697 77.4308 115.697 74.6222 115.697 71.8135C115.69 71.6576 115.696 71.5015 115.715 71.3466C115.724 71.2613 115.751 71.1786 115.792 71.1034C115.833 71.0282 115.889 70.9618 115.956 70.9082C116.023 70.8546 116.1 70.8147 116.183 70.7908C116.265 70.767 116.352 70.7596 116.437 70.7692C116.603 70.7721 116.761 70.8408 116.877 70.9602C116.992 71.0795 117.056 71.2398 117.054 71.4059C117.06 71.4904 117.059 71.5762 117.059 71.6611C117.059 74.8402 117.054 78.0159 117.066 81.1934C117.087 81.3755 117.056 81.5599 116.976 81.7248C116.895 81.8897 116.77 82.0283 116.613 82.124L87.1098 82.1245Z" fill="#6458D8"/>
<path d="M92.0299 75.0292C92.0299 73.569 91.965 72.1053 92.0443 70.6494C92.1148 69.4525 92.6463 68.3294 93.527 67.5159C94.4078 66.7023 95.5694 66.2616 96.7682 66.2861C97.9683 66.287 99.1214 66.7527 99.9856 67.5855C100.85 68.4182 101.358 69.5533 101.403 70.7526C101.476 73.7001 101.429 76.6506 101.425 79.5998C101.436 79.6961 101.425 79.7935 101.394 79.8853C101.364 79.9771 101.313 80.0613 101.247 80.132C101.181 80.2028 101.101 80.2586 101.011 80.2955C100.922 80.3325 100.825 80.3498 100.729 80.3463C100.323 80.3415 100.067 80.0567 100.067 79.5759C100.063 76.7399 100.071 73.9039 100.062 71.0683C100.078 70.2654 99.8059 69.4832 99.2953 68.8633C98.7848 68.2434 98.0693 67.8266 97.2781 67.6884C96.8401 67.6148 96.3918 67.6291 95.9594 67.7306C95.527 67.8321 95.1191 68.0187 94.7596 68.2796C94.4 68.5404 94.0961 68.8703 93.8654 69.2498C93.6348 69.6294 93.482 70.0512 93.4161 70.4904C93.3824 70.7719 93.366 71.0552 93.3669 71.3388C93.3634 73.9904 93.3625 76.642 93.3643 79.2937C93.3701 79.4495 93.3647 79.6055 93.3481 79.7605C93.3384 79.9191 93.2682 80.0679 93.1518 80.1761C93.0355 80.2843 92.8821 80.3437 92.7232 80.3419C92.6414 80.3523 92.5584 80.3462 92.479 80.324C92.3996 80.3017 92.3255 80.2639 92.261 80.2126C92.1965 80.1613 92.1429 80.0976 92.1033 80.0253C92.0638 79.953 92.0391 79.8734 92.0308 79.7914C92.0067 79.6375 91.9978 79.4816 92.0042 79.3259C92.0024 77.8937 92.0024 76.4614 92.0042 75.0292H92.0299Z" fill="#6458D8"/>
<path d="M108.935 75.5915C107.727 75.5915 106.52 75.5942 105.313 75.5915C104.671 75.5915 104.445 75.3642 104.444 74.7166C104.441 72.8169 104.441 70.9173 104.444 69.0176C104.444 68.3517 104.672 68.1218 105.345 68.1205C107.745 68.1158 110.145 68.1158 112.545 68.1205C113.239 68.1205 113.453 68.3487 113.454 69.0499C113.454 70.9353 113.454 72.8207 113.454 74.7062C113.454 75.3729 113.233 75.5907 112.557 75.592C111.349 75.5937 110.142 75.5915 108.935 75.5915ZM105.826 74.2101H112.059V69.5137H105.827L105.826 74.2101Z" fill="#6458D8"/>
<path d="M108.934 77.8897C107.386 77.8897 105.837 77.8866 104.289 77.8923C104.141 77.9141 103.989 77.8925 103.853 77.8301C103.717 77.7677 103.602 77.6672 103.522 77.5408C103.475 77.4567 103.448 77.3636 103.441 77.2678C103.434 77.1721 103.448 77.0759 103.482 76.986C103.516 76.8962 103.568 76.8147 103.637 76.7473C103.705 76.6798 103.787 76.628 103.878 76.5953C104.026 76.5487 104.182 76.5269 104.338 76.5309C107.406 76.5274 110.474 76.5265 113.542 76.5283C113.585 76.5283 113.629 76.5283 113.67 76.5283C114.158 76.5527 114.47 76.8366 114.454 77.2421C114.438 77.6475 114.154 77.8853 113.663 77.887C112.087 77.8927 110.51 77.8897 108.934 77.8897Z" fill="#6458D8"/>
<path d="M98.5311 75.3367C98.5304 75.4252 98.5121 75.5126 98.4775 75.5941C98.4428 75.6755 98.3925 75.7492 98.3293 75.8112C98.2661 75.8731 98.1913 75.922 98.1093 75.955C98.0272 75.988 97.9394 76.0044 97.8509 76.0035C97.7624 76.0043 97.6747 75.9876 97.5927 75.9543C97.5108 75.921 97.4362 75.8719 97.3733 75.8096C97.3105 75.7474 97.2605 75.6734 97.2264 75.5917C97.1923 75.5101 97.1747 75.4226 97.1746 75.3341C97.1798 75.1557 97.253 74.986 97.3792 74.8598C97.5054 74.7336 97.6751 74.6604 97.8535 74.6552C98.0318 74.6617 98.201 74.7357 98.3268 74.8622C98.4526 74.9888 98.5256 75.1584 98.5311 75.3367Z" fill="#6458D8"/>
<path d="M122.888 49.2545C122.882 50.9768 122.194 52.6267 120.975 53.8429C119.755 55.0592 118.104 55.7426 116.381 55.7435C115.525 55.7454 114.676 55.5778 113.884 55.2505C113.093 54.9231 112.374 54.4425 111.769 53.8361C111.164 53.2298 110.684 52.5097 110.359 51.7174C110.033 50.9251 109.867 50.0763 109.871 49.2196C109.874 48.3665 110.045 47.5223 110.374 46.7353C110.704 45.9483 111.185 45.234 111.791 44.6332C112.397 44.0324 113.115 43.5569 113.905 43.2339C114.694 42.9109 115.54 42.7467 116.393 42.7507C118.117 42.7525 119.769 43.4386 120.987 44.6582C122.204 45.8778 122.888 47.531 122.888 49.2545ZM111.234 49.2475C111.234 49.923 111.368 50.5919 111.627 51.2157C111.886 51.8395 112.266 52.4059 112.745 52.8826C113.223 53.3593 113.791 53.7368 114.416 53.9934C115.041 54.2501 115.711 54.3808 116.386 54.3782C117.743 54.3766 119.045 53.8389 120.007 52.8822C120.97 51.9255 121.515 50.6272 121.525 49.2702C121.523 47.9058 120.982 46.5975 120.019 45.6306C119.056 44.6637 117.75 44.1166 116.386 44.1086C115.022 44.1083 113.714 44.6491 112.748 45.6123C111.782 46.5754 111.238 47.8823 111.234 49.2462L111.234 49.2475Z" fill="#6458D8"/>
<path d="M116.37 52.3526C115.961 52.3549 115.556 52.2759 115.178 52.1202C114.8 51.9645 114.456 51.7352 114.168 51.4456C113.879 51.1561 113.651 50.812 113.496 50.4334C113.342 50.0548 113.264 49.6493 113.268 49.2405C113.269 48.4149 113.598 47.6236 114.182 47.04C114.766 46.4564 115.557 46.1281 116.383 46.1271C117.208 46.1348 117.998 46.467 118.581 47.0517C119.164 47.6365 119.493 48.4271 119.498 49.2527C119.494 50.0785 119.162 50.8688 118.575 51.4501C117.989 52.0313 117.196 52.3559 116.37 52.3526ZM116.379 50.9912C116.61 50.9925 116.839 50.9479 117.053 50.86C117.267 50.7722 117.461 50.6428 117.624 50.4794C117.787 50.316 117.916 50.1218 118.004 49.9081C118.092 49.6944 118.136 49.4654 118.134 49.2344C118.127 48.7752 117.942 48.3368 117.617 48.0117C117.293 47.6867 116.855 47.5005 116.395 47.4924C116.165 47.4899 115.935 47.5332 115.721 47.6199C115.507 47.7066 115.313 47.8348 115.148 47.9972C114.984 48.1596 114.854 48.353 114.765 48.5661C114.676 48.7792 114.63 49.0078 114.63 49.2387C114.626 49.4698 114.668 49.6993 114.755 49.9136C114.841 50.128 114.97 50.3227 115.133 50.4863C115.296 50.6498 115.491 50.7788 115.705 50.8656C115.919 50.9523 116.148 50.995 116.379 50.9912Z" fill="#6458D8"/>
<path d="M32.2004 131.671C30.2982 131.671 28.8662 130.197 28.8662 127.71C28.8662 125.232 30.3191 123.727 32.2632 123.727C33.1934 123.727 33.925 124.187 34.364 124.678L33.8414 125.306C33.4442 124.877 32.9321 124.574 32.2736 124.574C30.8208 124.574 29.8592 125.765 29.8592 127.678C29.8592 129.612 30.779 130.824 32.2422 130.824C32.9739 130.824 33.5279 130.5 34.0191 129.967L34.5522 130.573C33.9459 131.274 33.1934 131.671 32.2004 131.671ZM35.8868 131.535V125.86H36.6707L36.7544 126.894H36.7857C37.1829 126.173 37.7578 125.713 38.3953 125.713C38.6462 125.713 38.8239 125.745 39.0016 125.839L38.8239 126.675C38.6357 126.602 38.4999 126.581 38.2699 126.581C37.7996 126.581 37.2142 126.915 36.838 127.887V131.535H35.8868ZM42.1158 131.671C40.6107 131.671 39.3982 130.573 39.3982 128.703C39.3982 126.863 40.642 125.713 41.959 125.713C43.4014 125.713 44.2166 126.758 44.2166 128.379C44.2166 128.588 44.1957 128.786 44.1748 128.922H40.3494C40.4121 130.134 41.1542 130.908 42.2308 130.908C42.7847 130.908 43.2342 130.741 43.6522 130.458L43.9972 131.086C43.4955 131.41 42.8892 131.671 42.1158 131.671ZM40.3389 128.232H43.3805C43.3805 127.093 42.8579 126.476 41.9695 126.476C41.1646 126.476 40.4539 127.124 40.3389 128.232ZM46.7574 131.671C45.8063 131.671 45.0955 131.086 45.0955 130.061C45.0955 128.828 46.1721 128.211 48.5865 127.94C48.5865 127.208 48.3461 126.508 47.4159 126.508C46.7574 126.508 46.1616 126.811 45.7122 127.114L45.3359 126.455C45.8585 126.121 46.6633 125.713 47.5727 125.713C48.9523 125.713 49.5376 126.643 49.5376 128.044V131.535H48.7537L48.6701 130.856H48.6388C48.0953 131.305 47.4577 131.671 46.7574 131.671ZM47.0292 130.908C47.5831 130.908 48.0325 130.647 48.5865 130.155V128.567C46.6738 128.797 46.0258 129.267 46.0258 129.999C46.0258 130.647 46.4647 130.908 47.0292 130.908ZM52.9848 131.671C51.7723 131.671 51.3647 130.908 51.3647 129.779V126.633H50.5181V125.912L51.4065 125.86L51.5215 124.26H52.3159V125.86H53.8523V126.633H52.3159V129.8C52.3159 130.5 52.5354 130.897 53.1938 130.897C53.3924 130.897 53.6537 130.824 53.8419 130.751L54.03 131.462C53.706 131.566 53.3297 131.671 52.9848 131.671ZM57.2733 131.671C55.7682 131.671 54.5558 130.573 54.5558 128.703C54.5558 126.863 55.7996 125.713 57.1165 125.713C58.5589 125.713 59.3742 126.758 59.3742 128.379C59.3742 128.588 59.3533 128.786 59.3324 128.922H55.5069C55.5696 130.134 56.3117 130.908 57.3883 130.908C57.9423 130.908 58.3917 130.741 58.8098 130.458L59.1547 131.086C58.653 131.41 58.0468 131.671 57.2733 131.671ZM55.4965 128.232H58.538C58.538 127.093 58.0154 126.476 57.127 126.476C56.3222 126.476 55.6114 127.124 55.4965 128.232ZM63.2032 133.981C62.9315 133.981 62.712 133.939 62.5343 133.866L62.7224 133.103C62.8374 133.145 63.0047 133.197 63.151 133.197C63.799 133.197 64.2066 132.674 64.4366 131.974L64.562 131.545L62.2835 125.86H63.2764L64.4366 129.016C64.6038 129.507 64.8024 130.093 64.9801 130.605H65.0324C65.1891 130.093 65.3564 129.518 65.5131 129.016L66.527 125.86H67.4572L65.3146 132.005C64.9278 133.124 64.3321 133.981 63.2032 133.981ZM70.7243 131.671C69.3342 131.671 68.0904 130.584 68.0904 128.703C68.0904 126.811 69.3342 125.713 70.7243 125.713C72.1144 125.713 73.3582 126.811 73.3582 128.703C73.3582 130.584 72.1144 131.671 70.7243 131.671ZM70.7243 130.877C71.7068 130.877 72.3757 130.009 72.3757 128.703C72.3757 127.396 71.7068 126.508 70.7243 126.508C69.7418 126.508 69.0833 127.396 69.0833 128.703C69.0833 130.009 69.7418 130.877 70.7243 130.877ZM76.509 131.671C75.3174 131.671 74.7844 130.897 74.7844 129.455V125.86H75.7355V129.34C75.7355 130.396 76.0491 130.845 76.8016 130.845C77.3869 130.845 77.7946 130.563 78.3381 129.884V125.86H79.2892V131.535H78.4949L78.4217 130.647H78.3903C77.8573 131.263 77.2929 131.671 76.509 131.671ZM81.2064 131.535V125.86H81.9903L82.0739 126.894H82.1052C82.5024 126.173 83.0773 125.713 83.7149 125.713C83.9657 125.713 84.1434 125.745 84.3211 125.839L84.1434 126.675C83.9553 126.602 83.8194 126.581 83.5894 126.581C83.1191 126.581 82.5338 126.915 82.1575 127.887V131.535H81.2064ZM87.7528 131.535V126.633H86.9793V125.912L87.7528 125.86V124.95C87.7528 123.801 88.2754 123.079 89.4042 123.079C89.7491 123.079 90.0941 123.152 90.3554 123.267L90.1463 123.989C89.9373 123.895 89.7073 123.842 89.5087 123.842C88.9652 123.842 88.7039 124.229 88.7039 124.961V125.86H89.9059V126.633H88.7039V131.535H87.7528ZM90.9929 131.535V125.86H91.9545V131.535H90.9929ZM91.4737 124.689C91.1079 124.689 90.8466 124.438 90.8466 124.051C90.8466 123.686 91.1079 123.435 91.4737 123.435C91.85 123.435 92.1218 123.686 92.1218 124.051C92.1218 124.438 91.85 124.689 91.4737 124.689ZM93.8632 131.535V125.86H94.6471L94.7307 126.894H94.762C95.1592 126.173 95.7341 125.713 96.3717 125.713C96.6225 125.713 96.8002 125.745 96.9779 125.839L96.8002 126.675C96.6121 126.602 96.4762 126.581 96.2462 126.581C95.7759 126.581 95.1906 126.915 94.8143 127.887V131.535H93.8632ZM99.3587 131.671C98.5539 131.671 97.7805 131.336 97.237 130.887L97.7073 130.26C98.1986 130.657 98.7107 130.929 99.3901 130.929C100.143 130.929 100.508 130.532 100.508 130.04C100.508 129.455 99.8395 129.204 99.2124 128.964C98.4181 128.671 97.5505 128.284 97.5505 127.323C97.5505 126.424 98.2822 125.713 99.5155 125.713C100.216 125.713 100.832 126.006 101.271 126.351L100.812 126.967C100.425 126.675 100.028 126.466 99.526 126.466C98.8048 126.466 98.4703 126.842 98.4703 127.281C98.4703 127.825 99.0556 128.023 99.6932 128.264C100.519 128.577 101.428 128.912 101.428 129.988C101.428 130.908 100.697 131.671 99.3587 131.671ZM104.316 131.671C103.104 131.671 102.696 130.908 102.696 129.779V126.633H101.85V125.912L102.738 125.86L102.853 124.26H103.647V125.86H105.184V126.633H103.647V129.8C103.647 130.5 103.867 130.897 104.525 130.897C104.724 130.897 104.985 130.824 105.173 130.751L105.361 131.462C105.037 131.566 104.661 131.671 104.316 131.671ZM110.291 131.671C109.486 131.671 108.712 131.336 108.169 130.887L108.639 130.26C109.13 130.657 109.643 130.929 110.322 130.929C111.074 130.929 111.44 130.532 111.44 130.04C111.44 129.455 110.771 129.204 110.144 128.964C109.35 128.671 108.482 128.284 108.482 127.323C108.482 126.424 109.214 125.713 110.447 125.713C111.148 125.713 111.764 126.006 112.203 126.351L111.743 126.967C111.357 126.675 110.959 126.466 110.458 126.466C109.737 126.466 109.402 126.842 109.402 127.281C109.402 127.825 109.987 128.023 110.625 128.264C111.451 128.577 112.36 128.912 112.36 129.988C112.36 130.908 111.628 131.671 110.291 131.671ZM115.248 131.671C114.036 131.671 113.628 130.908 113.628 129.779V126.633H112.781V125.912L113.67 125.86L113.785 124.26H114.579V125.86H116.116V126.633H114.579V129.8C114.579 130.5 114.799 130.897 115.457 130.897C115.656 130.897 115.917 130.824 116.105 130.751L116.293 131.462C115.969 131.566 115.593 131.671 115.248 131.671ZM119.453 131.671C118.063 131.671 116.819 130.584 116.819 128.703C116.819 126.811 118.063 125.713 119.453 125.713C120.843 125.713 122.087 126.811 122.087 128.703C122.087 130.584 120.843 131.671 119.453 131.671ZM119.453 130.877C120.436 130.877 121.104 130.009 121.104 128.703C121.104 127.396 120.436 126.508 119.453 126.508C118.471 126.508 117.812 127.396 117.812 128.703C117.812 130.009 118.471 130.877 119.453 130.877ZM123.586 131.535V125.86H124.37L124.454 126.894H124.485C124.882 126.173 125.457 125.713 126.095 125.713C126.346 125.713 126.523 125.745 126.701 125.839L126.523 126.675C126.335 126.602 126.199 126.581 125.969 126.581C125.499 126.581 124.914 126.915 124.537 127.887V131.535H123.586ZM129.815 131.671C128.31 131.671 127.098 130.573 127.098 128.703C127.098 126.863 128.341 125.713 129.658 125.713C131.101 125.713 131.916 126.758 131.916 128.379C131.916 128.588 131.895 128.786 131.874 128.922H128.049C128.111 130.134 128.854 130.908 129.93 130.908C130.484 130.908 130.934 130.741 131.352 130.458L131.697 131.086C131.195 131.41 130.589 131.671 129.815 131.671ZM128.038 128.232H131.08C131.08 127.093 130.557 126.476 129.669 126.476C128.864 126.476 128.153 127.124 128.038 128.232ZM138.149 131.671C137.626 131.671 137.031 131.399 136.539 130.95H136.498L136.414 131.535H135.651V123.215H136.602V125.494L136.571 126.518C137.083 126.069 137.721 125.713 138.348 125.713C139.821 125.713 140.616 126.863 140.616 128.598C140.616 130.553 139.456 131.671 138.149 131.671ZM137.992 130.877C138.933 130.877 139.623 130.03 139.623 128.619C139.623 127.365 139.205 126.518 138.128 126.518C137.647 126.518 137.146 126.79 136.602 127.302V130.281C137.104 130.72 137.616 130.877 137.992 130.877ZM142.165 133.981C141.894 133.981 141.674 133.939 141.496 133.866L141.685 133.103C141.8 133.145 141.967 133.197 142.113 133.197C142.761 133.197 143.169 132.674 143.399 131.974L143.524 131.545L141.246 125.86H142.239L143.399 129.016C143.566 129.507 143.765 130.093 143.942 130.605H143.994C144.151 130.093 144.318 129.518 144.475 129.016L145.489 125.86H146.419L144.277 132.005C143.89 133.124 143.294 133.981 142.165 133.981ZM151.166 131.671C150.215 131.671 149.504 131.086 149.504 130.061C149.504 128.828 150.581 128.211 152.995 127.94C152.995 127.208 152.755 126.508 151.824 126.508C151.166 126.508 150.57 126.811 150.121 127.114L149.744 126.455C150.267 126.121 151.072 125.713 151.981 125.713C153.361 125.713 153.946 126.643 153.946 128.044V131.535H153.162L153.079 130.856H153.047C152.504 131.305 151.866 131.671 151.166 131.671ZM151.438 130.908C151.992 130.908 152.441 130.647 152.995 130.155V128.567C151.082 128.797 150.434 129.267 150.434 129.999C150.434 130.647 150.873 130.908 151.438 130.908ZM157.693 131.671C156.271 131.671 155.351 130.594 155.351 128.703C155.351 126.863 156.512 125.713 157.808 125.713C158.477 125.713 158.905 125.964 159.407 126.382L159.365 125.4V123.215H160.306V131.535H159.532L159.449 130.866H159.417C158.968 131.305 158.372 131.671 157.693 131.671ZM157.902 130.877C158.424 130.877 158.884 130.615 159.365 130.093V127.114C158.874 126.685 158.445 126.518 157.975 126.518C157.055 126.518 156.334 127.396 156.334 128.692C156.334 130.061 156.898 130.877 157.902 130.877ZM164.174 131.671C162.753 131.671 161.833 130.594 161.833 128.703C161.833 126.863 162.993 125.713 164.289 125.713C164.958 125.713 165.387 125.964 165.888 126.382L165.846 125.4V123.215H166.787V131.535H166.014L165.93 130.866H165.899C165.449 131.305 164.854 131.671 164.174 131.671ZM164.383 130.877C164.906 130.877 165.366 130.615 165.846 130.093V127.114C165.355 126.685 164.927 126.518 164.456 126.518C163.537 126.518 162.815 127.396 162.815 128.692C162.815 130.061 163.38 130.877 164.383 130.877ZM168.722 131.535V125.86H169.673V131.535H168.722ZM169.203 124.689C168.827 124.689 168.565 124.438 168.565 124.051C168.565 123.686 168.827 123.435 169.203 123.435C169.579 123.435 169.84 123.686 169.84 124.051C169.84 124.438 169.579 124.689 169.203 124.689ZM171.6 131.535V125.86H172.384L172.468 126.675H172.499C173.043 126.142 173.628 125.713 174.402 125.713C175.593 125.713 176.137 126.487 176.137 127.94V131.535H175.185V128.065C175.185 126.999 174.861 126.549 174.109 126.549C173.524 126.549 173.126 126.842 172.552 127.417V131.535H171.6ZM179.903 134.148C178.513 134.148 177.562 133.605 177.562 132.622C177.562 132.141 177.865 131.681 178.398 131.336V131.295C178.095 131.117 177.875 130.814 177.875 130.364C177.875 129.894 178.22 129.518 178.513 129.309V129.267C178.136 128.964 177.771 128.42 177.771 127.741C177.771 126.497 178.753 125.713 179.903 125.713C180.216 125.713 180.499 125.786 180.697 125.86H182.673V126.591H181.512C181.784 126.853 181.972 127.271 181.972 127.762C181.972 128.974 181.053 129.737 179.903 129.737C179.621 129.737 179.307 129.664 179.056 129.539C178.847 129.716 178.69 129.905 178.69 130.218C178.69 130.584 178.92 130.835 179.683 130.835H180.791C182.108 130.835 182.777 131.253 182.777 132.183C182.777 133.239 181.659 134.148 179.903 134.148ZM179.903 129.089C180.551 129.089 181.115 128.567 181.115 127.741C181.115 126.915 180.572 126.414 179.903 126.414C179.234 126.414 178.69 126.905 178.69 127.741C178.69 128.567 179.244 129.089 179.903 129.089ZM180.039 133.5C181.126 133.5 181.847 132.925 181.847 132.329C181.847 131.807 181.439 131.629 180.687 131.629H179.704C179.495 131.629 179.223 131.598 178.973 131.535C178.565 131.828 178.398 132.162 178.398 132.497C178.398 133.103 179.014 133.5 180.039 133.5Z" fill="black"/>
<path d="M37.7448 147.213V141.538H38.6959V147.213H37.7448ZM38.2256 140.367C37.8493 140.367 37.588 140.116 37.588 139.729C37.588 139.364 37.8493 139.113 38.2256 139.113C38.6019 139.113 38.8632 139.364 38.8632 139.729C38.8632 140.116 38.6019 140.367 38.2256 140.367ZM42.4105 147.349C41.1981 147.349 40.7904 146.586 40.7904 145.457V142.311H39.9438V141.59L40.8322 141.538L40.9472 139.938H41.7416V141.538H43.278V142.311H41.7416V145.478C41.7416 146.178 41.9611 146.576 42.6195 146.576C42.8181 146.576 43.0794 146.502 43.2676 146.429L43.4557 147.14C43.1317 147.244 42.7554 147.349 42.4105 147.349ZM45.9351 147.349C45.1302 147.349 44.3568 147.015 43.8133 146.565L44.2836 145.938C44.7749 146.335 45.287 146.607 45.9664 146.607C46.719 146.607 47.0848 146.21 47.0848 145.718C47.0848 145.133 46.4158 144.882 45.7887 144.642C44.9944 144.349 44.1268 143.963 44.1268 143.001C44.1268 142.102 44.8585 141.391 46.0918 141.391C46.7921 141.391 47.4088 141.684 47.8478 142.029L47.3879 142.646C47.0012 142.353 46.604 142.144 46.1023 142.144C45.3811 142.144 45.0466 142.52 45.0466 142.959C45.0466 143.503 45.6319 143.701 46.2695 143.942C47.0952 144.255 48.0046 144.59 48.0046 145.666C48.0046 146.586 47.2729 147.349 45.9351 147.349ZM51.6775 147.213V141.538H52.4614L52.545 142.353H52.5764C53.1199 141.82 53.7052 141.391 54.4786 141.391C55.6702 141.391 56.2137 142.165 56.2137 143.618V147.213H55.2625V143.743C55.2625 142.677 54.9385 142.227 54.186 142.227C53.6007 142.227 53.2035 142.52 52.6286 143.095V147.213H51.6775ZM59.3736 147.349C58.4225 147.349 57.7118 146.764 57.7118 145.739C57.7118 144.506 58.7883 143.889 61.2028 143.618C61.2028 142.886 60.9624 142.186 60.0321 142.186C59.3736 142.186 58.7779 142.489 58.3284 142.792L57.9522 142.133C58.4748 141.799 59.2796 141.391 60.1889 141.391C61.5686 141.391 62.1539 142.322 62.1539 143.722V147.213H61.37L61.2864 146.534H61.255C60.7115 146.983 60.0739 147.349 59.3736 147.349ZM59.6454 146.586C60.1994 146.586 60.6488 146.325 61.2028 145.833V144.245C59.29 144.475 58.642 144.945 58.642 145.677C58.642 146.325 59.081 146.586 59.6454 146.586ZM63.9668 147.213V141.538H64.7507L64.8344 142.363H64.8657C65.357 141.82 65.9527 141.391 66.6321 141.391C67.4996 141.391 67.97 141.809 68.1999 142.478C68.7852 141.841 69.381 141.391 70.0708 141.391C71.2415 141.391 71.7954 142.165 71.7954 143.618V147.213H70.8443V143.743C70.8443 142.677 70.5098 142.227 69.7886 142.227C69.3497 142.227 68.8898 142.51 68.3567 143.095V147.213H67.4056V143.743C67.4056 142.677 67.0711 142.227 66.3499 142.227C65.9214 142.227 65.4406 142.51 64.918 143.095V147.213H63.9668ZM75.9322 147.349C74.4271 147.349 73.2146 146.252 73.2146 144.381C73.2146 142.541 74.4584 141.391 75.7754 141.391C77.2178 141.391 78.033 142.437 78.033 144.057C78.033 144.266 78.0121 144.464 77.9912 144.6H74.1658C74.2285 145.813 74.9706 146.586 76.0471 146.586C76.6011 146.586 77.0505 146.419 77.4686 146.137L77.8135 146.764C77.3118 147.088 76.7056 147.349 75.9322 147.349ZM74.1553 143.91H77.1969C77.1969 142.771 76.6743 142.154 75.7858 142.154C74.981 142.154 74.2703 142.802 74.1553 143.91ZM83.0745 147.349C82.1234 147.349 81.4126 146.764 81.4126 145.739C81.4126 144.506 82.4892 143.889 84.9036 143.618C84.9036 142.886 84.6632 142.186 83.733 142.186C83.0745 142.186 82.4788 142.489 82.0293 142.792L81.653 142.133C82.1756 141.799 82.9805 141.391 83.8898 141.391C85.2695 141.391 85.8548 142.322 85.8548 143.722V147.213H85.0709L84.9873 146.534H84.9559C84.4124 146.983 83.7748 147.349 83.0745 147.349ZM83.3463 146.586C83.9002 146.586 84.3497 146.325 84.9036 145.833V144.245C82.9909 144.475 82.3429 144.945 82.3429 145.677C82.3429 146.325 82.7819 146.586 83.3463 146.586ZM87.6677 147.213V141.538H88.4516L88.5352 142.353H88.5666C89.1101 141.82 89.6954 141.391 90.4689 141.391C91.6604 141.391 92.2039 142.165 92.2039 143.618V147.213H91.2528V143.743C91.2528 142.677 90.9288 142.227 90.1762 142.227C89.5909 142.227 89.1937 142.52 88.6189 143.095V147.213H87.6677ZM95.991 147.349C94.5695 147.349 93.6497 146.272 93.6497 144.381C93.6497 142.541 94.8099 141.391 96.106 141.391C96.7749 141.391 97.2034 141.642 97.7051 142.06L97.6633 141.078V138.893H98.604V147.213H97.8306L97.7469 146.544H97.7156C97.2661 146.983 96.6704 147.349 95.991 147.349ZM96.2 146.555C96.7226 146.555 97.1825 146.293 97.6633 145.771V142.792C97.1721 142.363 96.7435 142.196 96.2732 142.196C95.3534 142.196 94.6322 143.074 94.6322 144.37C94.6322 145.739 95.1966 146.555 96.2 146.555ZM104.81 147.349C103.388 147.349 102.469 146.272 102.469 144.381C102.469 142.541 103.629 141.391 104.925 141.391C105.594 141.391 106.022 141.642 106.524 142.06L106.482 141.078V138.893H107.423V147.213H106.649L106.566 146.544H106.535C106.085 146.983 105.489 147.349 104.81 147.349ZM105.019 146.555C105.542 146.555 106.001 146.293 106.482 145.771V142.792C105.991 142.363 105.562 142.196 105.092 142.196C104.172 142.196 103.451 143.074 103.451 144.37C103.451 145.739 104.016 146.555 105.019 146.555ZM111.563 147.349C110.173 147.349 108.929 146.262 108.929 144.381C108.929 142.489 110.173 141.391 111.563 141.391C112.953 141.391 114.197 142.489 114.197 144.381C114.197 146.262 112.953 147.349 111.563 147.349ZM111.563 146.555C112.546 146.555 113.215 145.687 113.215 144.381C113.215 143.074 112.546 142.186 111.563 142.186C110.581 142.186 109.922 143.074 109.922 144.381C109.922 145.687 110.581 146.555 111.563 146.555ZM115.696 147.213V141.538H116.48L116.564 142.363H116.595C117.087 141.82 117.682 141.391 118.362 141.391C119.229 141.391 119.7 141.809 119.93 142.478C120.515 141.841 121.111 141.391 121.8 141.391C122.971 141.391 123.525 142.165 123.525 143.618V147.213H122.574V143.743C122.574 142.677 122.239 142.227 121.518 142.227C121.079 142.227 120.619 142.51 120.086 143.095V147.213H119.135V143.743C119.135 142.677 118.801 142.227 118.079 142.227C117.651 142.227 117.17 142.51 116.648 143.095V147.213H115.696ZM126.679 147.349C125.728 147.349 125.017 146.764 125.017 145.739C125.017 144.506 126.094 143.889 128.508 143.618C128.508 142.886 128.268 142.186 127.338 142.186C126.679 142.186 126.083 142.489 125.634 142.792L125.258 142.133C125.78 141.799 126.585 141.391 127.495 141.391C128.874 141.391 129.46 142.322 129.46 143.722V147.213H128.676L128.592 146.534H128.561C128.017 146.983 127.38 147.349 126.679 147.349ZM126.951 146.586C127.505 146.586 127.954 146.325 128.508 145.833V144.245C126.596 144.475 125.948 144.945 125.948 145.677C125.948 146.325 126.387 146.586 126.951 146.586ZM131.272 147.213V141.538H132.224V147.213H131.272ZM131.753 140.367C131.377 140.367 131.116 140.116 131.116 139.729C131.116 139.364 131.377 139.113 131.753 139.113C132.13 139.113 132.391 139.364 132.391 139.729C132.391 140.116 132.13 140.367 131.753 140.367ZM134.151 147.213V141.538H134.935L135.018 142.353H135.05C135.593 141.82 136.179 141.391 136.952 141.391C138.144 141.391 138.687 142.165 138.687 143.618V147.213H137.736V143.743C137.736 142.677 137.412 142.227 136.659 142.227C136.074 142.227 135.677 142.52 135.102 143.095V147.213H134.151ZM144.812 147.349C143.39 147.349 142.47 146.272 142.47 144.381C142.47 142.541 143.63 141.391 144.927 141.391C145.595 141.391 146.024 141.642 146.526 142.06L146.484 141.078V138.893H147.425V147.213H146.651L146.567 146.544H146.536C146.087 146.983 145.491 147.349 144.812 147.349ZM145.021 146.555C145.543 146.555 146.003 146.293 146.484 145.771V142.792C145.993 142.363 145.564 142.196 145.094 142.196C144.174 142.196 143.453 143.074 143.453 144.37C143.453 145.739 144.017 146.555 145.021 146.555ZM151.648 147.349C150.143 147.349 148.931 146.252 148.931 144.381C148.931 142.541 150.175 141.391 151.492 141.391C152.934 141.391 153.749 142.437 153.749 144.057C153.749 144.266 153.728 144.464 153.707 144.6H149.882C149.945 145.813 150.687 146.586 151.763 146.586C152.317 146.586 152.767 146.419 153.185 146.137L153.53 146.764C153.028 147.088 152.422 147.349 151.648 147.349ZM149.872 143.91H152.913C152.913 142.771 152.391 142.154 151.502 142.154C150.697 142.154 149.987 142.802 149.872 143.91ZM156.822 147.349C155.609 147.349 155.202 146.586 155.202 145.457V142.311H154.355V141.59L155.244 141.538L155.359 139.938H156.153V141.538H157.689V142.311H156.153V145.478C156.153 146.178 156.372 146.576 157.031 146.576C157.23 146.576 157.491 146.502 157.679 146.429L157.867 147.14C157.543 147.244 157.167 147.349 156.822 147.349ZM160.026 147.349C159.075 147.349 158.364 146.764 158.364 145.739C158.364 144.506 159.441 143.889 161.855 143.618C161.855 142.886 161.615 142.186 160.684 142.186C160.026 142.186 159.43 142.489 158.981 142.792L158.604 142.133C159.127 141.799 159.932 141.391 160.841 141.391C162.221 141.391 162.806 142.322 162.806 143.722V147.213H162.022L161.939 146.534H161.907C161.364 146.983 160.726 147.349 160.026 147.349ZM160.298 146.586C160.852 146.586 161.301 146.325 161.855 145.833V144.245C159.942 144.475 159.294 144.945 159.294 145.677C159.294 146.325 159.733 146.586 160.298 146.586ZM164.619 147.213V141.538H165.57V147.213H164.619ZM165.1 140.367C164.724 140.367 164.462 140.116 164.462 139.729C164.462 139.364 164.724 139.113 165.1 139.113C165.476 139.113 165.737 139.364 165.737 139.729C165.737 140.116 165.476 140.367 165.1 140.367ZM168.501 147.349C167.79 147.349 167.497 146.889 167.497 146.084V138.893H168.449V146.147C168.449 146.44 168.574 146.555 168.72 146.555C168.773 146.555 168.814 146.555 168.919 146.534L169.055 147.265C168.919 147.318 168.762 147.349 168.501 147.349ZM171.962 147.349C171.157 147.349 170.384 147.015 169.84 146.565L170.311 145.938C170.802 146.335 171.314 146.607 171.993 146.607C172.746 146.607 173.112 146.21 173.112 145.718C173.112 145.133 172.443 144.882 171.816 144.642C171.021 144.349 170.154 143.963 170.154 143.001C170.154 142.102 170.886 141.391 172.119 141.391C172.819 141.391 173.436 141.684 173.875 142.029L173.415 142.646C173.028 142.353 172.631 142.144 172.129 142.144C171.408 142.144 171.074 142.52 171.074 142.959C171.074 143.503 171.659 143.701 172.297 143.942C173.122 144.255 174.032 144.59 174.032 145.666C174.032 146.586 173.3 147.349 171.962 147.349Z" fill="black"/>
<defs>
<filter id="filter0_d_1_1278" x="0.72009" y="0.800065" width="209.099" height="202.979" filterUnits="userSpaceOnUse" color-interpolation-filters="sRGB">
<feFlood flood-opacity="0" result="BackgroundImageFix"/>
<feColorMatrix in="SourceAlpha" type="matrix" values="0 0 0 0 0 0 0 0 0 0 0 0 0 0 0 0 0 0 127 0" result="hardAlpha"/>
<feOffset dy="4.07997"/>
<feGaussianBlur stdDeviation="7.13996"/>
<feComposite in2="hardAlpha" operator="out"/>
<feColorMatrix type="matrix" values="0 0 0 0 0 0 0 0 0 0 0 0 0 0 0 0 0 0 0.15 0"/>
<feBlend mode="normal" in2="BackgroundImageFix" result="effect1_dropShadow_1_1278"/>
<feBlend mode="normal" in="SourceGraphic" in2="effect1_dropShadow_1_1278" result="shape"/>
</filter>
</defs>
</svg>
