<svg width="210" height="204" viewBox="0 0 210 204" fill="none" xmlns="http://www.w3.org/2000/svg">
<g filter="url(#filter0_d_1_1296)">
<rect x="15" y="11" width="180.539" height="174.419" rx="15.2999" fill="white"/>
<rect x="15.51" y="11.51" width="179.519" height="173.399" rx="14.7899" stroke="#A7CAE6" stroke-width="1.01999"/>
</g>
<path d="M68.9012 115.697L68.5233 116.944H71.0553L70.69 115.697C70.375 114.689 70.0979 113.656 69.8208 112.61H69.7578C69.4932 113.668 69.2035 114.689 68.9012 115.697ZM65.9031 120.735L68.9768 111.451H70.6648L73.7385 120.735H72.189L71.408 118.09H68.1832L67.3895 120.735H65.9031ZM77.2287 120.899C75.4903 120.899 74.3692 119.576 74.3692 117.271C74.3692 115.029 75.7927 113.631 77.3421 113.631C78.1357 113.631 78.6396 113.933 79.2065 114.412L79.1435 113.265V110.696H80.5922V120.735H79.408L79.2947 119.954H79.2443C78.7278 120.483 78.0098 120.899 77.2287 120.899ZM77.5689 119.702C78.1483 119.702 78.6396 119.438 79.1435 118.858V115.47C78.627 115.004 78.1357 114.84 77.6193 114.84C76.6493 114.84 75.8683 115.76 75.8683 117.259C75.8683 118.833 76.4855 119.702 77.5689 119.702ZM85.1634 120.899C83.425 120.899 82.3039 119.576 82.3039 117.271C82.3039 115.029 83.7274 113.631 85.2768 113.631C86.0704 113.631 86.5743 113.933 87.1412 114.412L87.0782 113.265V110.696H88.5269V120.735H87.3427L87.2294 119.954H87.179C86.6625 120.483 85.9445 120.899 85.1634 120.899ZM85.5036 119.702C86.083 119.702 86.5743 119.438 87.0782 118.858V115.47C86.5617 115.004 86.0704 114.84 85.554 114.84C84.584 114.84 83.803 115.76 83.803 117.259C83.803 118.833 84.4202 119.702 85.5036 119.702ZM95.9276 120.899C94.1892 120.899 93.068 119.576 93.068 117.271C93.068 115.029 94.4915 113.631 96.0409 113.631C96.8345 113.631 97.3384 113.933 97.9053 114.412L97.8423 113.265V110.696H99.291V120.735H98.1069L97.9935 119.954H97.9431C97.4266 120.483 96.7086 120.899 95.9276 120.899ZM96.2677 119.702C96.8471 119.702 97.3384 119.438 97.8423 118.858V115.47C97.3258 115.004 96.8345 114.84 96.3181 114.84C95.3481 114.84 94.5671 115.76 94.5671 117.259C94.5671 118.833 95.1843 119.702 96.2677 119.702ZM104.24 120.899C102.527 120.899 100.978 119.576 100.978 117.271C100.978 114.966 102.527 113.631 104.24 113.631C105.953 113.631 107.503 114.966 107.503 117.271C107.503 119.576 105.953 120.899 104.24 120.899ZM104.24 119.715C105.336 119.715 106.016 118.745 106.016 117.271C106.016 115.81 105.336 114.827 104.24 114.827C103.157 114.827 102.477 115.81 102.477 117.271C102.477 118.745 103.157 119.715 104.24 119.715ZM109.207 120.735V113.807H110.391L110.504 114.777H110.542C111.134 114.147 111.827 113.631 112.683 113.631C113.716 113.631 114.296 114.109 114.598 114.903C115.278 114.172 115.984 113.631 116.853 113.631C118.302 113.631 118.982 114.613 118.982 116.377V120.735H117.533V116.553C117.533 115.356 117.155 114.878 116.374 114.878C115.896 114.878 115.392 115.193 114.812 115.823V120.735H113.364V116.553C113.364 115.356 112.998 114.878 112.205 114.878C111.739 114.878 111.222 115.193 110.655 115.823V120.735H109.207ZM122.716 120.899C121.519 120.899 120.675 120.118 120.675 118.896C120.675 117.41 121.935 116.641 124.819 116.326C124.807 115.52 124.517 114.815 123.497 114.815C122.766 114.815 122.086 115.142 121.494 115.52L120.952 114.538C121.67 114.084 122.64 113.631 123.749 113.631C125.474 113.631 126.268 114.727 126.268 116.566V120.735H125.084L124.97 119.942H124.92C124.29 120.483 123.547 120.899 122.716 120.899ZM123.156 119.753C123.761 119.753 124.252 119.463 124.819 118.947V117.246C122.766 117.485 122.073 118.014 122.073 118.795C122.073 119.476 122.539 119.753 123.156 119.753ZM128.324 120.735V113.807H129.772V120.735H128.324ZM129.042 112.51C128.513 112.51 128.147 112.169 128.147 111.64C128.147 111.124 128.513 110.784 129.042 110.784C129.571 110.784 129.949 111.124 129.949 111.64C129.949 112.169 129.571 112.51 129.042 112.51ZM131.94 120.735V113.807H133.125L133.238 114.764H133.276C133.918 114.147 134.624 113.631 135.568 113.631C137.042 113.631 137.697 114.613 137.697 116.377V120.735H136.249V116.553C136.249 115.356 135.896 114.878 135.077 114.878C134.435 114.878 133.994 115.205 133.389 115.823V120.735H131.94Z" fill="black"/>
<path d="M77.2228 52.424C77.4144 51.3661 77.9644 50.4066 78.7804 49.7066C79.5509 49.0849 80.5122 48.7478 81.5023 48.7519C82.8519 48.738 84.2016 48.7425 85.5536 48.7519C86.3099 48.7564 86.8043 49.1937 86.7912 49.8186C86.7782 50.426 86.2963 50.8426 85.5693 50.8475C84.2538 50.8565 82.9383 50.8453 81.6233 50.8516C80.1926 50.8588 79.3315 51.7149 79.3288 53.146C79.324 57.645 79.324 62.144 79.3288 66.6429C79.3037 66.9466 79.3448 67.2522 79.4493 67.5385C79.5538 67.8247 79.7193 68.0849 79.9342 68.3009C80.1492 68.517 80.4085 68.6838 80.6942 68.7898C80.9799 68.8958 81.2852 68.9385 81.5891 68.9149C86.9033 68.9209 92.2174 68.9182 97.5316 68.9068C97.6362 68.9063 97.7396 68.8837 97.8349 68.8405C97.9302 68.7972 98.0153 68.7342 98.0845 68.6558C99.4766 66.3637 101.497 64.5192 103.906 63.3411C103.95 63.3109 103.991 63.277 104.029 63.2399L102.104 59.5247C101.936 59.8567 101.793 60.1298 101.658 60.4069C101.269 61.2091 100.874 62.009 100.499 62.8179C100.431 63.0463 100.296 63.2486 100.11 63.3977C99.9243 63.5468 99.6974 63.6357 99.4599 63.6525C98.8898 63.6655 98.5934 63.2926 98.3549 62.8278C97.5186 61.1929 96.6674 59.5661 95.8216 57.9361C95.7611 57.8297 95.7066 57.7201 95.6582 57.6077C95.5476 57.3668 95.5309 57.0933 95.6115 56.8408C95.6921 56.5883 95.864 56.375 96.0937 56.2427C96.2121 56.1735 96.3433 56.1292 96.4793 56.1124C96.6154 56.0956 96.7534 56.1066 96.8851 56.1448C97.0167 56.183 97.1392 56.2476 97.2451 56.3347C97.351 56.4217 97.4381 56.5294 97.501 56.6512C97.923 57.376 98.2892 58.1331 98.6784 58.8764C98.9033 59.3078 99.1283 59.7402 99.3933 60.2481C99.8346 59.3384 100.245 58.4935 100.653 57.6464C100.783 57.3788 100.91 57.1104 101.037 56.841C101.11 56.6326 101.245 56.4512 101.424 56.3206C101.602 56.19 101.816 56.1163 102.037 56.1091C102.258 56.1082 102.474 56.1739 102.657 56.2978C102.84 56.4217 102.981 56.5978 103.062 56.8033C103.56 57.7663 104.06 58.7285 104.562 59.6898C104.642 59.8445 104.725 59.9975 104.842 60.2171C104.944 60.034 105.027 59.8976 105.097 59.7541C105.577 58.7644 106.046 57.766 106.536 56.779C106.62 56.5536 106.781 56.365 106.99 56.2465C107.199 56.128 107.444 56.0871 107.68 56.1311C107.911 56.1533 108.126 56.2594 108.284 56.4293C108.442 56.5993 108.533 56.8213 108.538 57.0534C108.531 57.3481 108.456 57.6372 108.318 57.8979C107.695 59.2277 107.05 60.5468 106.413 61.8704C106.331 62.0418 106.255 62.2164 106.134 62.4823C107.981 61.9857 109.908 61.8633 111.803 62.1224C111.531 61.5879 111.308 61.1412 111.075 60.6967C110.576 59.7339 110.076 58.772 109.574 57.811C109.44 57.6132 109.373 57.3781 109.382 57.1396C109.391 56.9011 109.476 56.6716 109.623 56.4843C110.115 55.8765 110.984 56.0078 111.4 56.7704C111.919 57.7224 112.402 58.6937 112.902 59.6556C112.988 59.8207 113.082 59.9813 113.223 60.2292C113.737 59.1657 114.216 58.1835 114.686 57.1974C114.938 56.6683 115.164 56.1077 115.881 56.1077C116.567 56.1077 116.806 56.6426 117.065 57.1474C117.581 58.1511 118.104 59.1508 118.676 60.2517C119.206 59.1499 119.686 58.1466 120.173 57.1474C120.273 56.9244 120.395 56.7119 120.537 56.5131C120.674 56.3274 120.87 56.1951 121.094 56.1392C121.317 56.0833 121.553 56.1071 121.761 56.2067C121.979 56.3032 122.157 56.4728 122.264 56.6863C122.37 56.8998 122.399 57.1439 122.346 57.3764C122.302 57.5456 122.239 57.7095 122.159 57.865C121.366 59.5206 120.563 61.1717 119.775 62.8301C119.705 63.0576 119.567 63.2584 119.38 63.4058C119.193 63.5532 118.966 63.6402 118.728 63.6552C118.49 63.6496 118.259 63.5712 118.067 63.4305C117.874 63.2897 117.729 63.0934 117.652 62.8679C117.167 61.9177 116.672 60.9729 116.179 60.0263C116.101 59.8756 116.016 59.7285 115.905 59.5251L114.385 62.6811C115.26 63.1261 116.124 63.5094 116.931 63.9858C118.811 65.0956 120.383 66.6597 121.501 68.5347C121.566 68.6645 121.669 68.7712 121.796 68.8405C121.924 68.9098 122.069 68.9383 122.213 68.9221C123.686 68.9028 125.16 68.9167 126.633 68.9131C128.142 68.9095 128.994 68.0727 128.995 66.5822C128.999 62.1183 128.999 57.6545 128.995 53.1906C128.995 51.6956 128.145 50.8511 126.644 50.8511C116.244 50.849 105.844 50.849 95.4432 50.8511C95.2504 50.8576 95.0575 50.8542 94.8651 50.8408C94.5991 50.8279 94.3478 50.7155 94.1609 50.5259C93.974 50.3363 93.8653 50.0833 93.8564 49.8173C93.8576 49.542 93.9654 49.2779 94.1572 49.0805C94.349 48.883 94.6098 48.7675 94.8849 48.7582C95.0239 48.7447 95.1651 48.751 95.3055 48.751C105.723 48.751 116.142 48.7654 126.559 48.7398C128.891 48.7339 130.694 50.2028 131.034 52.2854C131.05 52.3355 131.073 52.3832 131.101 52.4271V67.3421C131.068 67.4218 131.039 67.5038 131.016 67.5873C130.911 68.239 130.644 68.8538 130.238 69.3748C129.833 69.8959 129.303 70.3065 128.697 70.5687C128.034 70.8318 127.33 70.9775 126.617 70.9993C125.347 71.0659 124.071 71.0182 122.773 71.0182C124.532 77.0417 123.094 82.1314 118.459 86.2872C121.158 88.9866 123.841 91.6675 126.508 94.33C126.545 94.3667 126.585 94.4009 126.627 94.4326C126.823 94.5881 127.056 94.6906 127.304 94.7302C127.551 94.7698 127.804 94.7452 128.039 94.6586C128.274 94.5721 128.483 94.4266 128.645 94.2362C128.808 94.0457 128.918 93.8167 128.967 93.571C129.014 93.3114 128.993 93.0438 128.904 92.7952C128.815 92.5465 128.663 92.3257 128.462 92.1547C127.454 91.1564 126.454 90.1518 125.447 89.1508C125.248 89.0033 125.104 88.7938 125.038 88.5554C124.971 88.3169 124.986 88.0631 125.08 87.8339C125.395 87.1141 126.234 86.9953 126.862 87.6018C127.706 88.4161 128.51 89.2727 129.361 90.0785C130.199 90.7755 130.805 91.7108 131.099 92.7603V93.8108C130.903 94.7046 130.416 95.5083 129.715 96.0967C129.094 96.577 128.331 96.8386 127.546 96.8408C126.761 96.843 125.997 96.5857 125.373 96.1089C125.129 95.9101 124.895 95.6982 124.673 95.4741C122.117 92.9271 119.564 90.3762 117.016 87.8213C116.973 87.7599 116.918 87.7078 116.854 87.6682C116.791 87.6285 116.72 87.6021 116.646 87.5905C116.572 87.5789 116.496 87.5824 116.423 87.6007C116.351 87.619 116.283 87.6518 116.223 87.6972C114.448 88.6333 112.488 89.1674 110.484 89.2616C108.479 89.3559 106.478 89.0079 104.623 88.2424C102.768 87.4769 101.104 86.3126 99.7486 84.8321C98.3937 83.3516 97.381 81.5911 96.7825 79.6755C95.9491 77.0358 95.9536 74.2027 96.7956 71.5657C96.8374 71.4307 96.8747 71.298 96.9094 71.1608C96.9118 71.1123 96.9084 71.0636 96.899 71.0159H96.3313C91.6497 71.0159 86.9667 70.9556 82.2864 71.0402C79.7908 71.0852 77.7911 70.036 77.2192 67.3394L77.2228 52.424ZM109.872 87.1888C112.938 87.1751 115.874 85.9482 118.038 83.7761C120.202 81.6041 121.417 78.6637 121.42 75.5977C121.397 72.5408 120.169 69.6163 118.002 67.4603C115.834 65.3043 112.904 64.091 109.847 64.0844C106.781 64.0913 103.842 65.3115 101.673 67.4785C99.5042 69.6455 98.2813 72.583 98.2717 75.649C98.288 78.7149 99.5173 81.6498 101.691 83.8121C103.865 85.9745 106.806 87.1885 109.872 87.1888Z" fill="#D1B43B"/>
<path d="M88.2739 59.5089C87.7457 60.6017 87.2702 61.5874 86.7933 62.5722C86.7096 62.7454 86.6336 62.9231 86.5355 63.0878C86.4529 63.2599 86.3238 63.4054 86.1628 63.5079C86.0018 63.6103 85.8153 63.6657 85.6245 63.6677C85.4336 63.6696 85.2461 63.6181 85.083 63.519C84.9199 63.4198 84.7878 63.277 84.7017 63.1067C83.7286 61.3071 82.7937 59.4891 81.8674 57.6656C81.7962 57.5437 81.751 57.4083 81.7345 57.2681C81.7181 57.1278 81.7308 56.9857 81.7718 56.8505C81.8128 56.7154 81.8812 56.5902 81.9728 56.4827C82.0645 56.3752 82.1773 56.2878 82.3042 56.226C82.4297 56.1608 82.5672 56.1219 82.7082 56.1118C82.8493 56.1017 82.9909 56.1206 83.1244 56.1672C83.2579 56.2139 83.3804 56.2873 83.4845 56.3831C83.5885 56.4788 83.6719 56.5949 83.7295 56.724C84.2496 57.6746 84.7319 58.6455 85.2312 59.6069C85.3271 59.791 85.4301 59.9714 85.5754 60.2368C86.073 59.2083 86.5404 58.2487 87.0016 57.2855C87.2666 56.733 87.4726 56.105 88.2446 56.1113C88.9825 56.1175 89.1957 56.724 89.4693 57.2513C89.9741 58.2249 90.4829 59.1962 91.0322 60.2489C91.6022 59.0702 92.1259 57.9738 92.6618 56.8837C92.9596 56.2782 93.4 56.0222 93.8962 56.1364C94.6233 56.3043 94.9229 56.9939 94.5711 57.7516C94.0456 58.8763 93.4985 59.9889 92.96 61.1069C92.6644 61.721 92.3653 62.3333 92.0728 62.9488C91.9963 63.1561 91.858 63.335 91.6766 63.4612C91.4951 63.5875 91.2793 63.655 91.0583 63.6547C90.846 63.6511 90.6394 63.5852 90.4643 63.4653C90.2891 63.3453 90.1531 63.1765 90.073 62.9798C89.4963 61.8641 88.9168 60.7501 88.2739 59.5089Z" fill="#D1B43B"/>
<path d="M90.4998 50.8398C90.2261 50.8355 89.9642 50.7274 89.7672 50.5374C89.5702 50.3474 89.4527 50.0896 89.4385 49.8163C89.4433 49.5426 89.5518 49.281 89.7422 49.0843C89.9325 48.8876 90.1904 48.7705 90.4638 48.7568C90.7374 48.7617 90.9991 48.87 91.1961 49.06C91.3932 49.2499 91.511 49.5074 91.526 49.7807C91.5205 50.0543 91.4115 50.3156 91.2211 50.5121C91.0307 50.7085 90.773 50.8256 90.4998 50.8398Z" fill="#D1B43B"/>
<path d="M123.544 84.7085C123.818 84.7184 124.078 84.8326 124.27 85.0278C124.462 85.2229 124.573 85.4842 124.579 85.7581C124.572 86.0319 124.458 86.292 124.262 86.4829C124.065 86.6737 123.802 86.7799 123.528 86.7789C123.255 86.7729 122.994 86.6614 122.801 86.4678C122.609 86.2741 122.498 86.0134 122.493 85.7401C122.506 85.4674 122.622 85.2095 122.816 85.0183C123.011 84.827 123.271 84.7164 123.544 84.7085Z" fill="#D1B43B"/>
<path d="M119.105 75.6241C119.097 78.0793 118.117 80.4316 116.38 82.166C114.642 83.9004 112.287 84.8756 109.832 84.878C107.386 84.8685 105.042 83.8936 103.311 82.1653C101.58 80.4371 100.6 78.0952 100.586 75.6489C100.594 73.1936 101.574 70.8414 103.312 69.1071C105.05 67.3727 107.404 66.3976 109.86 66.395C112.306 66.4045 114.649 67.3795 116.381 69.1077C118.112 70.836 119.091 73.1779 119.105 75.6241ZM109.834 68.496C107.938 68.5038 106.122 69.2621 104.783 70.6051C103.445 71.9481 102.693 73.7664 102.691 75.6624C102.706 77.5492 103.464 79.3541 104.801 80.6859C106.137 82.0178 107.945 82.7693 109.832 82.7775C111.728 82.7767 113.546 82.0251 114.89 80.6871C116.233 79.3491 116.992 77.5336 117 75.6376C116.992 73.7417 116.234 71.926 114.891 70.5877C113.548 69.2493 111.73 68.4973 109.834 68.496Z" fill="#D1B43B"/>
<path d="M114.575 75.5481C114.589 75.8222 114.498 76.0912 114.32 76.3003C114.143 76.5093 113.892 76.6426 113.619 76.6729C113.345 76.6911 113.075 76.603 112.865 76.427C112.655 76.251 112.521 76.0006 112.491 75.7281C112.46 75.4507 112.415 75.1751 112.356 74.9025C112.202 74.3784 111.889 73.9151 111.46 73.5773C111.031 73.2394 110.507 73.0437 109.961 73.0175C109.196 72.9365 108.742 72.4848 108.806 71.8702C108.875 71.2215 109.425 70.8526 110.196 70.9381C111.367 71.0288 112.463 71.5503 113.272 72.4017C114.08 73.2532 114.545 74.3742 114.575 75.5481Z" fill="#D1B43B"/>
<path d="M42.5304 145.108C40.5652 145.108 39.086 143.585 39.086 141.016C39.086 138.457 40.5868 136.902 42.5952 136.902C43.5561 136.902 44.312 137.377 44.7655 137.884L44.2256 138.532C43.8153 138.089 43.2862 137.776 42.606 137.776C41.1051 137.776 40.1117 139.007 40.1117 140.983C40.1117 142.981 41.0619 144.233 42.5736 144.233C43.3294 144.233 43.9017 143.898 44.4091 143.348L44.9598 143.974C44.3336 144.697 43.5561 145.108 42.5304 145.108ZM48.6169 145.108C47.1808 145.108 45.8959 143.985 45.8959 142.041C45.8959 140.087 47.1808 138.953 48.6169 138.953C50.053 138.953 51.3379 140.087 51.3379 142.041C51.3379 143.985 50.053 145.108 48.6169 145.108ZM48.6169 144.287C49.6318 144.287 50.3229 143.391 50.3229 142.041C50.3229 140.692 49.6318 139.774 48.6169 139.774C47.6019 139.774 46.9217 140.692 46.9217 142.041C46.9217 143.391 47.6019 144.287 48.6169 144.287ZM52.8867 144.967V139.104H53.6965L53.7829 139.947H53.8153C54.3768 139.396 54.9814 138.953 55.7804 138.953C57.0114 138.953 57.5728 139.752 57.5728 141.253V144.967H56.5903V141.383C56.5903 140.281 56.2555 139.817 55.4781 139.817C54.8734 139.817 54.4631 140.119 53.8693 140.713V144.967H52.8867ZM59.4875 144.967V139.104H60.2973L60.3837 139.947H60.4161C60.9776 139.396 61.5822 138.953 62.3813 138.953C63.6122 138.953 64.1736 139.752 64.1736 141.253V144.967H63.1911V141.383C63.1911 140.281 62.8563 139.817 62.0789 139.817C61.4743 139.817 61.064 140.119 60.4701 140.713V144.967H59.4875ZM68.453 145.108C66.8982 145.108 65.6456 143.974 65.6456 142.041C65.6456 140.141 66.9306 138.953 68.291 138.953C69.7811 138.953 70.6233 140.033 70.6233 141.707C70.6233 141.923 70.6017 142.128 70.5801 142.268H66.6282C66.693 143.521 67.4596 144.32 68.5718 144.32C69.144 144.32 69.6083 144.147 70.0402 143.855L70.3966 144.503C69.8783 144.838 69.252 145.108 68.453 145.108ZM66.6174 141.555H69.7595C69.7595 140.378 69.2196 139.741 68.3018 139.741C67.4704 139.741 66.7362 140.411 66.6174 141.555ZM74.3777 145.108C72.8229 145.108 71.6243 143.985 71.6243 142.041C71.6243 140.087 72.9524 138.953 74.4533 138.953C75.2199 138.953 75.749 139.277 76.1701 139.644L75.6626 140.292C75.3171 139.99 74.9608 139.774 74.4965 139.774C73.4275 139.774 72.6501 140.692 72.6501 142.041C72.6501 143.391 73.3843 144.287 74.4641 144.287C75.004 144.287 75.4791 144.039 75.8462 143.704L76.2781 144.363C75.749 144.838 75.0795 145.108 74.3777 145.108ZM79.2911 145.108C78.0386 145.108 77.6175 144.32 77.6175 143.153V139.903H76.7429V139.158L77.6607 139.104L77.7794 137.452H78.6V139.104H80.1873V139.903H78.6V143.175C78.6 143.898 78.8268 144.309 79.507 144.309C79.7122 144.309 79.9821 144.233 80.1765 144.158L80.3708 144.892C80.0361 145 79.6474 145.108 79.2911 145.108ZM84.0267 147.494C83.746 147.494 83.5192 147.451 83.3357 147.375L83.53 146.587C83.6488 146.63 83.8216 146.684 83.9727 146.684C84.6422 146.684 85.0633 146.144 85.3008 145.421L85.4304 144.978L83.0765 139.104H84.1023L85.3008 142.365C85.4736 142.873 85.6787 143.477 85.8623 144.006H85.9163C86.0782 143.477 86.251 142.883 86.413 142.365L87.4603 139.104H88.4213L86.2078 145.453C85.8083 146.609 85.1929 147.494 84.0267 147.494ZM91.7964 145.108C90.3603 145.108 89.0754 143.985 89.0754 142.041C89.0754 140.087 90.3603 138.953 91.7964 138.953C93.2324 138.953 94.5173 140.087 94.5173 142.041C94.5173 143.985 93.2324 145.108 91.7964 145.108ZM91.7964 144.287C92.8113 144.287 93.5024 143.391 93.5024 142.041C93.5024 140.692 92.8113 139.774 91.7964 139.774C90.7814 139.774 90.1012 140.692 90.1012 142.041C90.1012 143.391 90.7814 144.287 91.7964 144.287ZM97.7722 145.108C96.5413 145.108 95.9906 144.309 95.9906 142.819V139.104H96.9732V142.7C96.9732 143.79 97.2971 144.255 98.0745 144.255C98.6792 144.255 99.1003 143.963 99.6618 143.261V139.104H100.644V144.967H99.8237L99.7481 144.05H99.7158C99.1651 144.687 98.582 145.108 97.7722 145.108ZM102.625 144.967V139.104H103.435L103.521 140.173H103.553C103.964 139.428 104.558 138.953 105.216 138.953C105.475 138.953 105.659 138.986 105.842 139.083L105.659 139.947C105.465 139.871 105.324 139.849 105.087 139.849C104.601 139.849 103.996 140.195 103.607 141.199V144.967H102.625ZM111.223 145.108C109.755 145.108 108.805 143.996 108.805 142.041C108.805 140.141 110.003 138.953 111.342 138.953C112.033 138.953 112.476 139.212 112.994 139.644L112.951 138.629V136.373H113.923V144.967H113.124L113.037 144.276H113.005C112.54 144.73 111.925 145.108 111.223 145.108ZM111.439 144.287C111.979 144.287 112.454 144.017 112.951 143.477V140.4C112.443 139.957 112.001 139.785 111.515 139.785C110.565 139.785 109.82 140.692 109.82 142.03C109.82 143.445 110.403 144.287 111.439 144.287ZM118.2 145.108C116.764 145.108 115.479 143.985 115.479 142.041C115.479 140.087 116.764 138.953 118.2 138.953C119.636 138.953 120.921 140.087 120.921 142.041C120.921 143.985 119.636 145.108 118.2 145.108ZM118.2 144.287C119.215 144.287 119.906 143.391 119.906 142.041C119.906 140.692 119.215 139.774 118.2 139.774C117.185 139.774 116.504 140.692 116.504 142.041C116.504 143.391 117.185 144.287 118.2 144.287ZM122.469 144.967V139.104H123.279L123.366 139.957H123.398C123.906 139.396 124.521 138.953 125.223 138.953C126.119 138.953 126.605 139.385 126.842 140.076C127.447 139.417 128.063 138.953 128.775 138.953C129.985 138.953 130.557 139.752 130.557 141.253V144.967H129.574V141.383C129.574 140.281 129.229 139.817 128.484 139.817C128.03 139.817 127.555 140.109 127.004 140.713V144.967H126.022V141.383C126.022 140.281 125.676 139.817 124.931 139.817C124.489 139.817 123.992 140.109 123.452 140.713V144.967H122.469ZM133.815 145.108C132.833 145.108 132.098 144.503 132.098 143.445C132.098 142.171 133.211 141.534 135.705 141.253C135.705 140.497 135.457 139.774 134.496 139.774C133.815 139.774 133.2 140.087 132.736 140.4L132.347 139.72C132.887 139.374 133.718 138.953 134.658 138.953C136.083 138.953 136.687 139.914 136.687 141.361V144.967H135.878L135.791 144.266H135.759C135.197 144.73 134.539 145.108 133.815 145.108ZM134.096 144.32C134.668 144.32 135.133 144.05 135.705 143.542V141.901C133.729 142.138 133.059 142.624 133.059 143.38C133.059 144.05 133.513 144.32 134.096 144.32ZM138.56 144.967V139.104H139.543V144.967H138.56ZM139.057 137.895C138.668 137.895 138.398 137.636 138.398 137.236C138.398 136.858 138.668 136.599 139.057 136.599C139.446 136.599 139.716 136.858 139.716 137.236C139.716 137.636 139.446 137.895 139.057 137.895ZM141.534 144.967V139.104H142.344L142.43 139.947H142.462C143.024 139.396 143.629 138.953 144.428 138.953C145.658 138.953 146.22 139.752 146.22 141.253V144.967H145.237V141.383C145.237 140.281 144.903 139.817 144.125 139.817C143.521 139.817 143.11 140.119 142.516 140.713V144.967H141.534ZM151.478 144.967L149.847 139.104H150.852L151.726 142.495C151.845 143.056 151.964 143.585 152.072 144.136H152.126C152.255 143.585 152.374 143.045 152.525 142.495L153.432 139.104H154.393L155.311 142.495C155.451 143.056 155.581 143.585 155.721 144.136H155.765C155.894 143.585 156.002 143.056 156.132 142.495L156.995 139.104H157.924L156.348 144.967H155.16L154.307 141.804C154.156 141.253 154.048 140.713 153.907 140.119H153.853C153.724 140.713 153.605 141.264 153.454 141.825L152.633 144.967H151.478ZM159.206 144.967V139.104H160.189V144.967H159.206ZM159.703 137.895C159.314 137.895 159.044 137.636 159.044 137.236C159.044 136.858 159.314 136.599 159.703 136.599C160.092 136.599 160.362 136.858 160.362 137.236C160.362 137.636 160.092 137.895 159.703 137.895ZM164.026 145.108C162.774 145.108 162.353 144.32 162.353 143.153V139.903H161.478V139.158L162.396 139.104L162.515 137.452H163.335V139.104H164.922V139.903H163.335V143.175C163.335 143.898 163.562 144.309 164.242 144.309C164.447 144.309 164.717 144.233 164.912 144.158L165.106 144.892C164.771 145 164.383 145.108 164.026 145.108ZM166.25 144.967V136.373H167.233V138.726L167.2 139.936C167.74 139.396 168.345 138.953 169.144 138.953C170.375 138.953 170.936 139.752 170.936 141.253V144.967H169.954V141.383C169.954 140.281 169.619 139.817 168.841 139.817C168.237 139.817 167.826 140.119 167.233 140.713V144.967H166.25Z" fill="black"/>
<path d="M44.7595 161.164V160.635L47.8476 156.1H45.0942V155.301H49.0893V155.83L46.0012 160.365H49.1973V161.164H44.7595ZM52.7377 161.304C51.1828 161.304 49.9303 160.17 49.9303 158.238C49.9303 156.337 51.2152 155.149 52.5757 155.149C54.0658 155.149 54.908 156.229 54.908 157.903C54.908 158.119 54.8864 158.324 54.8648 158.464H50.9129C50.9777 159.717 51.7443 160.516 52.8565 160.516C53.4287 160.516 53.893 160.343 54.3249 160.052L54.6812 160.699C54.163 161.034 53.5367 161.304 52.7377 161.304ZM50.9021 157.752H54.0442C54.0442 156.575 53.5043 155.938 52.5865 155.938C51.7551 155.938 51.0209 156.607 50.9021 157.752ZM58.0821 161.304C56.8296 161.304 56.4085 160.516 56.4085 159.35V156.1H55.5339V155.355L56.4517 155.301L56.5705 153.649H57.3911V155.301H58.9783V156.1H57.3911V159.371C57.3911 160.095 57.6178 160.505 58.2981 160.505C58.5032 160.505 58.7732 160.429 58.9675 160.354L59.1619 161.088C58.8271 161.196 58.4384 161.304 58.0821 161.304ZM62.0119 161.304C60.781 161.304 60.2303 160.505 60.2303 159.015V155.301H61.2129V158.896C61.2129 159.987 61.5368 160.451 62.3142 160.451C62.9189 160.451 63.34 160.16 63.9015 159.458V155.301H64.884V161.164H64.0634L63.9878 160.246H63.9554C63.4048 160.883 62.8217 161.304 62.0119 161.304ZM66.8645 163.636V155.301H67.6743L67.7607 155.97H67.7931C68.3222 155.538 68.9808 155.149 69.6611 155.149C71.1727 155.149 71.9934 156.337 71.9934 158.14C71.9934 160.149 70.7948 161.304 69.4451 161.304C68.9161 161.304 68.3546 161.056 67.8255 160.624L67.8471 161.65V163.636H66.8645ZM69.2832 160.483C70.255 160.483 70.9676 159.609 70.9676 158.151C70.9676 156.855 70.5357 155.981 69.4235 155.981C68.9269 155.981 68.4194 156.262 67.8471 156.791V159.868C68.3762 160.321 68.8945 160.483 69.2832 160.483ZM75.0935 161.304C74.2621 161.304 73.4631 160.959 72.9016 160.494L73.3875 159.846C73.895 160.257 74.4241 160.537 75.1259 160.537C75.9033 160.537 76.2812 160.127 76.2812 159.62C76.2812 159.015 75.5902 158.756 74.9423 158.508C74.1217 158.205 73.2255 157.806 73.2255 156.812C73.2255 155.884 73.9814 155.149 75.2555 155.149C75.9789 155.149 76.616 155.452 77.0694 155.808L76.5944 156.445C76.1948 156.143 75.7845 155.927 75.2663 155.927C74.5212 155.927 74.1757 156.316 74.1757 156.769C74.1757 157.331 74.7804 157.536 75.439 157.784C76.292 158.108 77.2314 158.454 77.2314 159.566C77.2314 160.516 76.4756 161.304 75.0935 161.304ZM80.2149 161.304C78.9624 161.304 78.5413 160.516 78.5413 159.35V156.1H77.6667V155.355L78.5845 155.301L78.7032 153.649H79.5239V155.301H81.1111V156.1H79.5239V159.371C79.5239 160.095 79.7506 160.505 80.4308 160.505C80.636 160.505 80.9059 160.429 81.1003 160.354L81.2946 161.088C80.9599 161.196 80.5712 161.304 80.2149 161.304ZM84.5588 161.304C83.1227 161.304 81.8378 160.181 81.8378 158.238C81.8378 156.283 83.1227 155.149 84.5588 155.149C85.9949 155.149 87.2798 156.283 87.2798 158.238C87.2798 160.181 85.9949 161.304 84.5588 161.304ZM84.5588 160.483C85.5738 160.483 86.2648 159.587 86.2648 158.238C86.2648 156.888 85.5738 155.97 84.5588 155.97C83.5438 155.97 82.8636 156.888 82.8636 158.238C82.8636 159.587 83.5438 160.483 84.5588 160.483ZM88.8286 161.164V155.301H89.6384L89.7248 156.37H89.7572C90.1675 155.625 90.7614 155.149 91.42 155.149C91.6791 155.149 91.8627 155.182 92.0463 155.279L91.8627 156.143C91.6684 156.067 91.528 156.046 91.2904 156.046C90.8046 156.046 90.1999 156.391 89.8112 157.395V161.164H88.8286ZM95.2634 161.304C93.7086 161.304 92.4561 160.17 92.4561 158.238C92.4561 156.337 93.741 155.149 95.1015 155.149C96.5915 155.149 97.4337 156.229 97.4337 157.903C97.4337 158.119 97.4121 158.324 97.3905 158.464H93.4386C93.5034 159.717 94.27 160.516 95.3822 160.516C95.9545 160.516 96.4188 160.343 96.8507 160.052L97.207 160.699C96.6887 161.034 96.0624 161.304 95.2634 161.304ZM93.4278 157.752H96.5699C96.5699 156.575 96.03 155.938 95.1123 155.938C94.2808 155.938 93.5466 156.607 93.4278 157.752ZM101.292 161.164V155.301H102.275V161.164H101.292ZM101.789 154.091C101.4 154.091 101.13 153.832 101.13 153.433C101.13 153.055 101.4 152.796 101.789 152.796C102.178 152.796 102.447 153.055 102.447 153.433C102.447 153.832 102.178 154.091 101.789 154.091ZM104.266 161.164V155.301H105.075L105.162 156.143H105.194C105.756 155.592 106.36 155.149 107.159 155.149C108.39 155.149 108.952 155.948 108.952 157.449V161.164H107.969V157.579C107.969 156.478 107.634 156.013 106.857 156.013C106.252 156.013 105.842 156.316 105.248 156.909V161.164H104.266ZM114.814 161.304C113.983 161.304 113.184 160.959 112.623 160.494L113.108 159.846C113.616 160.257 114.145 160.537 114.847 160.537C115.624 160.537 116.002 160.127 116.002 159.62C116.002 159.015 115.311 158.756 114.663 158.508C113.843 158.205 112.946 157.806 112.946 156.812C112.946 155.884 113.702 155.149 114.976 155.149C115.7 155.149 116.337 155.452 116.79 155.808L116.315 156.445C115.916 156.143 115.505 155.927 114.987 155.927C114.242 155.927 113.897 156.316 113.897 156.769C113.897 157.331 114.501 157.536 115.16 157.784C116.013 158.108 116.952 158.454 116.952 159.566C116.952 160.516 116.196 161.304 114.814 161.304ZM118.332 161.164V155.301H119.315V161.164H118.332ZM118.829 154.091C118.44 154.091 118.17 153.832 118.17 153.433C118.17 153.055 118.44 152.796 118.829 152.796C119.217 152.796 119.487 153.055 119.487 153.433C119.487 153.832 119.217 154.091 118.829 154.091ZM121.305 161.164V155.301H122.115L122.202 156.143H122.234C122.796 155.592 123.4 155.149 124.199 155.149C125.43 155.149 125.992 155.948 125.992 157.449V161.164H125.009V157.579C125.009 156.478 124.674 156.013 123.897 156.013C123.292 156.013 122.882 156.316 122.288 156.909V161.164H121.305ZM129.882 163.863C128.446 163.863 127.464 163.302 127.464 162.287C127.464 161.79 127.777 161.315 128.327 160.959V160.915C128.014 160.732 127.788 160.419 127.788 159.954C127.788 159.468 128.144 159.08 128.446 158.864V158.821C128.057 158.508 127.68 157.946 127.68 157.244C127.68 155.959 128.695 155.149 129.882 155.149C130.206 155.149 130.498 155.225 130.703 155.301H132.744V156.056H131.545C131.826 156.326 132.02 156.758 132.02 157.266C132.02 158.518 131.07 159.307 129.882 159.307C129.591 159.307 129.267 159.231 129.008 159.101C128.792 159.285 128.63 159.479 128.63 159.803C128.63 160.181 128.867 160.44 129.656 160.44H130.8C132.161 160.44 132.852 160.872 132.852 161.833C132.852 162.924 131.696 163.863 129.882 163.863ZM129.882 158.637C130.552 158.637 131.135 158.097 131.135 157.244C131.135 156.391 130.573 155.873 129.882 155.873C129.191 155.873 128.63 156.38 128.63 157.244C128.63 158.097 129.202 158.637 129.882 158.637ZM130.023 163.194C131.146 163.194 131.891 162.6 131.891 161.984C131.891 161.444 131.469 161.261 130.692 161.261H129.677C129.461 161.261 129.18 161.228 128.921 161.164C128.5 161.466 128.327 161.812 128.327 162.157C128.327 162.783 128.964 163.194 130.023 163.194ZM135.027 161.304C134.293 161.304 133.99 160.829 133.99 159.998V152.569H134.973V160.062C134.973 160.365 135.103 160.483 135.254 160.483C135.308 160.483 135.351 160.483 135.459 160.462L135.599 161.218C135.459 161.272 135.297 161.304 135.027 161.304ZM139.434 161.304C137.879 161.304 136.627 160.17 136.627 158.238C136.627 156.337 137.912 155.149 139.272 155.149C140.762 155.149 141.604 156.229 141.604 157.903C141.604 158.119 141.583 158.324 141.561 158.464H137.609C137.674 159.717 138.441 160.516 139.553 160.516C140.125 160.516 140.589 160.343 141.021 160.052L141.378 160.699C140.859 161.034 140.233 161.304 139.434 161.304ZM137.599 157.752H140.741C140.741 156.575 140.201 155.938 139.283 155.938C138.452 155.938 137.717 156.607 137.599 157.752ZM146.996 161.304C146.165 161.304 145.366 160.959 144.804 160.494L145.29 159.846C145.798 160.257 146.327 160.537 147.028 160.537C147.806 160.537 148.184 160.127 148.184 159.62C148.184 159.015 147.493 158.756 146.845 158.508C146.024 158.205 145.128 157.806 145.128 156.812C145.128 155.884 145.884 155.149 147.158 155.149C147.881 155.149 148.518 155.452 148.972 155.808L148.497 156.445C148.097 156.143 147.687 155.927 147.169 155.927C146.424 155.927 146.078 156.316 146.078 156.769C146.078 157.331 146.683 157.536 147.342 157.784C148.195 158.108 149.134 158.454 149.134 159.566C149.134 160.516 148.378 161.304 146.996 161.304ZM152.117 161.304C150.865 161.304 150.444 160.516 150.444 159.35V156.1H149.569V155.355L150.487 155.301L150.606 153.649H151.426V155.301H153.014V156.1H151.426V159.371C151.426 160.095 151.653 160.505 152.333 160.505C152.539 160.505 152.808 160.429 153.003 160.354L153.197 161.088C152.862 161.196 152.474 161.304 152.117 161.304ZM156.548 161.304C154.993 161.304 153.74 160.17 153.74 158.238C153.74 156.337 155.025 155.149 156.386 155.149C157.876 155.149 158.718 156.229 158.718 157.903C158.718 158.119 158.696 158.324 158.675 158.464H154.723C154.788 159.717 155.554 160.516 156.666 160.516C157.239 160.516 157.703 160.343 158.135 160.052L158.491 160.699C157.973 161.034 157.347 161.304 156.548 161.304ZM154.712 157.752H157.854C157.854 156.575 157.314 155.938 156.397 155.938C155.565 155.938 154.831 156.607 154.712 157.752ZM160.162 163.636V155.301H160.972L161.058 155.97H161.09C161.619 155.538 162.278 155.149 162.958 155.149C164.47 155.149 165.291 156.337 165.291 158.14C165.291 160.149 164.092 161.304 162.742 161.304C162.213 161.304 161.652 161.056 161.123 160.624L161.144 161.65V163.636H160.162ZM162.58 160.483C163.552 160.483 164.265 159.609 164.265 158.151C164.265 156.855 163.833 155.981 162.721 155.981C162.224 155.981 161.717 156.262 161.144 156.791V159.868C161.673 160.321 162.192 160.483 162.58 160.483Z" fill="black"/>
<defs>
<filter id="filter0_d_1_1296" x="0.72009" y="0.800065" width="209.099" height="202.979" filterUnits="userSpaceOnUse" color-interpolation-filters="sRGB">
<feFlood flood-opacity="0" result="BackgroundImageFix"/>
<feColorMatrix in="SourceAlpha" type="matrix" values="0 0 0 0 0 0 0 0 0 0 0 0 0 0 0 0 0 0 127 0" result="hardAlpha"/>
<feOffset dy="4.07997"/>
<feGaussianBlur stdDeviation="7.13996"/>
<feComposite in2="hardAlpha" operator="out"/>
<feColorMatrix type="matrix" values="0 0 0 0 0 0 0 0 0 0 0 0 0 0 0 0 0 0 0.15 0"/>
<feBlend mode="normal" in2="BackgroundImageFix" result="effect1_dropShadow_1_1296"/>
<feBlend mode="normal" in="SourceGraphic" in2="effect1_dropShadow_1_1296" result="shape"/>
</filter>
</defs>
</svg>
