<svg width="40" height="40" viewBox="0 0 40 40" fill="none" xmlns="http://www.w3.org/2000/svg">
<path d="M7.01613 28.2962C7.06297 28.4179 7.14557 28.5225 7.25305 28.5963C7.36053 28.6701 7.48785 28.7096 7.61823 28.7096H9.80097C9.93134 28.7096 10.0587 28.6701 10.1661 28.5963C10.2736 28.5225 10.3562 28.4179 10.4031 28.2962L10.7989 27.268C11.3458 27.111 11.8732 26.8924 12.3708 26.6163L13.3785 27.0638C13.4976 27.1167 13.63 27.1323 13.7582 27.1085C13.8863 27.0847 14.0043 27.0226 14.0965 26.9304L15.64 25.387C15.7322 25.2948 15.7943 25.1768 15.8181 25.0486C15.842 24.9204 15.8264 24.788 15.7735 24.6689L15.3261 23.6616C15.6023 23.1639 15.821 22.6363 15.978 22.0891L17.0058 21.6935C17.1275 21.6467 17.2321 21.5641 17.3059 21.4566C17.3797 21.3491 17.4192 21.2218 17.4192 21.0914V18.9086C17.4192 18.7783 17.3797 18.651 17.3059 18.5435C17.2321 18.436 17.1275 18.3534 17.0058 18.3066L15.9777 17.9108C15.8207 17.3638 15.602 16.8365 15.3259 16.3389L15.7735 15.3312C15.8264 15.2121 15.842 15.0797 15.8182 14.9515C15.7943 14.8234 15.7323 14.7054 15.6401 14.6132L14.0966 13.0697C14.0044 12.9775 13.8865 12.9154 13.7583 12.8916C13.6301 12.8677 13.4977 12.8833 13.3785 12.9362L12.3713 13.3836C11.8735 13.1074 11.346 12.8887 10.7988 12.7317L10.4031 11.7038C10.3563 11.5821 10.2737 11.4775 10.1662 11.4037C10.0587 11.3299 9.93142 11.2904 9.80105 11.2904H7.61823C7.48784 11.2904 7.36052 11.3299 7.25303 11.4037C7.14555 11.4776 7.06295 11.5822 7.01613 11.7039L6.62048 12.7319C6.0734 12.8888 5.54595 13.1075 5.04831 13.3836L4.04081 12.9362C3.92166 12.8833 3.78926 12.8677 3.66107 12.8915C3.53288 12.9153 3.41491 12.9774 3.32274 13.0696L1.77927 14.6131C1.68709 14.7053 1.625 14.8232 1.60119 14.9514C1.57738 15.0796 1.59296 15.212 1.64589 15.3311L2.09339 16.3388C1.8173 16.8364 1.59867 17.3638 1.44169 17.9107L0.413468 18.3066C0.291767 18.3533 0.187107 18.4359 0.113292 18.5434C0.0394776 18.6509 -2.33305e-05 18.7782 1.0338e-08 18.9086V21.0913C5.15667e-06 21.2217 0.0395162 21.349 0.113326 21.4565C0.187136 21.564 0.29178 21.6466 0.413468 21.6934L1.44161 22.0891C1.59857 22.6361 1.81721 23.1635 2.09331 23.6611L1.64581 24.6687C1.59289 24.7879 1.57731 24.9202 1.60112 25.0484C1.62493 25.1766 1.68702 25.2945 1.77919 25.3867L3.32266 26.9303C3.41485 27.0225 3.5328 27.0846 3.66099 27.1084C3.78917 27.1322 3.92157 27.1166 4.04073 27.0637L5.0479 26.6164C5.54568 26.8926 6.07323 27.1113 6.6204 27.2683L7.01613 28.2962ZM4.82621 25.3031L3.92185 25.7047L3.00492 24.7877L3.40669 23.8829C3.44921 23.7871 3.46776 23.6825 3.46075 23.5779C3.45374 23.4734 3.42138 23.3721 3.36645 23.2828C3.0184 22.7182 2.76273 22.1016 2.60911 21.4563C2.58485 21.3544 2.53613 21.2599 2.46715 21.181C2.39817 21.1021 2.31102 21.0413 2.21323 21.0037L1.29032 20.6483V19.3516L2.21331 18.9962C2.31108 18.9586 2.39821 18.8977 2.46718 18.8188C2.53614 18.74 2.58486 18.6455 2.60911 18.5436C2.76266 17.8983 3.01833 17.2817 3.36645 16.7171C3.42138 16.6279 3.45374 16.5266 3.46075 16.4221C3.46776 16.3175 3.44921 16.2128 3.40669 16.117L3.00492 15.2122L3.92185 14.2953L4.82653 14.697C4.92231 14.7395 5.02699 14.758 5.13155 14.751C5.2361 14.744 5.33737 14.7116 5.42661 14.6567C5.99127 14.3086 6.60791 14.053 7.25323 13.8995C7.35518 13.8752 7.44968 13.8265 7.52857 13.7575C7.60746 13.6885 7.66834 13.6013 7.70597 13.5035L8.06121 12.5806H9.35806L9.71323 13.5033C9.75086 13.6011 9.81175 13.6882 9.89062 13.7572C9.96949 13.8262 10.064 13.8749 10.1659 13.8991C10.8113 14.0526 11.4281 14.3083 11.9929 14.6565C12.0821 14.7114 12.1834 14.7438 12.288 14.7509C12.3925 14.7579 12.4972 14.7393 12.593 14.6968L13.4973 14.2952L14.4144 15.2122L14.0125 16.117C13.97 16.2128 13.9514 16.3175 13.9584 16.4221C13.9655 16.5267 13.9979 16.628 14.0528 16.7172C14.4009 17.2817 14.6565 17.8983 14.81 18.5435C14.8343 18.6454 14.883 18.7399 14.952 18.8188C15.021 18.8977 15.1082 18.9586 15.206 18.9962L16.1289 19.3515V20.6483L15.2062 21.0035C15.1084 21.0411 15.0213 21.102 14.9523 21.1809C14.8833 21.2598 14.8346 21.3543 14.8103 21.4562C14.6569 22.1017 14.4013 22.7184 14.0531 23.2831C13.9981 23.3723 13.9657 23.4736 13.9587 23.5781C13.9517 23.6827 13.9702 23.7874 14.0127 23.8832L14.4144 24.7875L13.4973 25.7045L12.5925 25.3028C12.4967 25.2602 12.392 25.2417 12.2875 25.2487C12.1829 25.2557 12.0817 25.2881 11.9924 25.343C11.4278 25.691 10.8112 25.9467 10.166 26.1003C10.064 26.1246 9.96957 26.1733 9.8907 26.2423C9.81183 26.3112 9.75094 26.3984 9.71331 26.4962L9.35798 27.4193H8.06121L7.70605 26.4966C7.66842 26.3989 7.60754 26.3117 7.52867 26.2427C7.4498 26.1738 7.35531 26.1251 7.25339 26.1008C6.60792 25.9473 5.99114 25.6916 5.42637 25.3434C5.33715 25.2884 5.23586 25.256 5.13128 25.2489C5.0267 25.2419 4.92199 25.2605 4.82621 25.3031ZM13.4944 19.9999C13.4944 17.3616 11.3479 15.2153 8.7096 15.2153C6.07137 15.2153 3.925 17.3616 3.925 19.9999C3.925 22.6382 6.07137 24.7846 8.7096 24.7846C11.3479 24.7846 13.4944 22.6382 13.4944 19.9999ZM5.21532 19.9999C5.21532 18.0731 6.7829 16.5056 8.7096 16.5056C10.6365 16.5056 12.204 18.0732 12.204 19.9999C12.204 21.9267 10.6365 23.4943 8.7096 23.4943C6.78282 23.4943 5.21532 21.9268 5.21532 19.9999ZM22.5806 19.9999C22.5806 24.8025 26.4877 28.7096 31.2903 28.7096C36.0929 28.7096 40 24.8025 40 19.9999C40 15.1974 36.0929 11.2903 31.2903 11.2903C26.4877 11.2903 22.5806 15.1974 22.5806 19.9999ZM38.7097 19.9999C38.7097 24.091 35.3814 27.4193 31.2903 27.4193C27.1993 27.4193 23.871 24.091 23.871 19.9999C23.871 15.9089 27.1993 12.5806 31.2903 12.5806C35.3814 12.5806 38.7097 15.9089 38.7097 19.9999ZM31.2903 15.4579C31.4614 15.4579 31.6255 15.5259 31.7465 15.6469C31.8675 15.7679 31.9355 15.932 31.9355 16.1031V16.4009C32.6556 16.5654 33.3395 17.0254 33.6981 17.8795C33.7643 18.0372 33.7652 18.2148 33.7004 18.3732C33.6357 18.5316 33.5107 18.6578 33.353 18.7241C33.1952 18.7902 33.0176 18.7911 32.8592 18.7264C32.7009 18.6617 32.5747 18.5367 32.5084 18.379C32.2244 17.7028 31.5294 17.5291 30.9662 17.6568C30.8269 17.6884 30.1334 17.8785 30.1645 18.5203C30.1728 18.6906 30.1948 19.1432 31.4004 19.3411C32.9234 19.5913 33.7629 20.2717 33.8955 21.3637C33.9619 21.9103 33.8142 22.4104 33.4685 22.8101C33.1184 23.2149 32.5673 23.4998 31.9354 23.6149V23.8968C31.9354 24.0679 31.8674 24.232 31.7464 24.353C31.6254 24.474 31.4613 24.542 31.2902 24.542C31.1191 24.542 30.955 24.474 30.834 24.353C30.7131 24.232 30.6451 24.0679 30.6451 23.8968V23.6042C29.6673 23.3981 28.9185 22.7341 28.6886 21.8126C28.6473 21.6466 28.6735 21.4709 28.7616 21.3242C28.8498 21.1776 28.9925 21.0719 29.1585 21.0305C29.5041 20.9449 29.8544 21.1548 29.9406 21.5004C30.1078 22.1711 30.8074 22.396 31.3553 22.3808C31.8307 22.3695 32.2877 22.2028 32.4926 21.9659C32.5994 21.8424 32.637 21.7046 32.6146 21.5192C32.5759 21.2004 32.379 20.8094 31.1914 20.6144C29.3443 20.3111 28.9126 19.3422 28.8757 18.5828C28.8252 17.5437 29.5349 16.6733 30.6451 16.4068V16.1031C30.6451 15.932 30.7131 15.7679 30.8341 15.6469C30.9551 15.5259 31.1192 15.4579 31.2903 15.4579ZM24.4871 19.9999C24.4871 23.7513 27.539 26.8032 31.2903 26.8032C35.0416 26.8032 38.0936 23.7512 38.0936 19.9999C38.0936 16.2486 35.0417 13.1966 31.2903 13.1966C27.539 13.1966 24.4871 16.2486 24.4871 19.9999ZM36.8033 19.9999C36.8033 23.0398 34.3302 25.5128 31.2903 25.5128C28.2505 25.5128 25.7774 23.0398 25.7774 19.9999C25.7774 16.9601 28.2505 14.487 31.2903 14.487C34.3302 14.487 36.8033 16.9601 36.8033 19.9999ZM22.7656 34.1168C22.7656 34.2879 22.6976 34.452 22.5766 34.573C22.4556 34.694 22.2915 34.762 22.1204 34.762H8.7096C8.53849 34.762 8.37439 34.694 8.2534 34.573C8.13241 34.452 8.06444 34.2879 8.06444 34.1168V31.6431L7.61427 32.1602C7.50192 32.2892 7.3429 32.3684 7.1722 32.3802C7.00149 32.392 6.83309 32.3355 6.70403 32.2232C6.57497 32.1108 6.49583 31.9518 6.48402 31.7811C6.47221 31.6104 6.52869 31.442 6.64105 31.3129L8.22298 29.4958C8.28356 29.4263 8.35834 29.3706 8.44228 29.3324C8.52622 29.2942 8.61737 29.2744 8.7096 29.2744C8.80182 29.2744 8.89297 29.2942 8.97691 29.3324C9.06085 29.3706 9.13563 29.4263 9.19621 29.4958L10.7781 31.3129C10.8594 31.4063 10.912 31.5211 10.9298 31.6436C10.9476 31.766 10.9298 31.891 10.8786 32.0037C10.8273 32.1163 10.7447 32.2119 10.6407 32.2789C10.5367 32.3459 10.4155 32.3816 10.2918 32.3817C10.1995 32.3818 10.1082 32.3621 10.0242 32.3239C9.94025 32.2857 9.86545 32.2298 9.80492 32.1602L9.35476 31.6431V33.4716H22.1204C22.2915 33.4716 22.4556 33.5396 22.5766 33.6606C22.6976 33.7816 22.7656 33.9457 22.7656 34.1168ZM6.64113 2.03857L8.22306 0.221472C8.28364 0.151928 8.35842 0.096176 8.44236 0.057972C8.5263 0.019768 8.61745 0 8.70968 0C8.8019 0 8.89306 0.019768 8.977 0.057972C9.06094 0.096176 9.13572 0.151928 9.19629 0.221472L10.7782 2.03857C10.8594 2.13196 10.9121 2.24673 10.9299 2.3692C10.9477 2.49167 10.9299 2.61668 10.8786 2.72933C10.8274 2.84197 10.7448 2.9375 10.6408 3.00453C10.5367 3.07155 10.4156 3.10725 10.2919 3.10736C10.1996 3.10749 10.1083 3.08778 10.0243 3.04956C9.94033 3.01133 9.86553 2.95549 9.805 2.88583L9.35484 2.36873V9.50817C9.35484 9.67927 9.28687 9.84337 9.16587 9.96436C9.04488 10.0854 8.88078 10.1533 8.70968 10.1533C8.53857 10.1533 8.37447 10.0854 8.25348 9.96436C8.13249 9.84337 8.06452 9.67927 8.06452 9.50817V2.36873L7.61435 2.88583C7.502 3.01488 7.34298 3.09402 7.17228 3.10584C7.00157 3.11765 6.83317 3.06116 6.70411 2.94881C6.57505 2.83646 6.49592 2.67744 6.4841 2.50673C6.47229 2.33603 6.52878 2.16763 6.64113 2.03857ZM1.80226 3.65155L3.38419 1.83446C3.44478 1.76492 3.51955 1.70918 3.60349 1.67099C3.68743 1.63279 3.77858 1.61303 3.87081 1.61303C3.96303 1.61303 4.05418 1.63279 4.13812 1.67099C4.22206 1.70918 4.29684 1.76492 4.35742 1.83446L5.93935 3.65155C6.02057 3.74494 6.07321 3.85971 6.09102 3.98218C6.10882 4.10466 6.09103 4.22967 6.03977 4.34231C5.98851 4.45496 5.90594 4.55049 5.8019 4.61751C5.69786 4.68454 5.57674 4.72023 5.45298 4.72034C5.3607 4.72048 5.26946 4.70076 5.18546 4.66254C5.10146 4.62432 5.02666 4.56848 4.96613 4.49881L4.51597 3.98171V11.1211C4.51597 11.2922 4.448 11.4563 4.327 11.5773C4.20601 11.6983 4.04191 11.7662 3.87081 11.7662C3.6997 11.7662 3.5356 11.6983 3.41461 11.5773C3.29362 11.4563 3.22565 11.2922 3.22565 11.1211V3.98171L2.77548 4.49881C2.66313 4.62787 2.50411 4.70701 2.33341 4.71882C2.1627 4.73063 1.9943 4.67415 1.86524 4.56179C1.73618 4.44944 1.65704 4.29042 1.64523 4.11972C1.63938 4.03519 1.65024 3.95035 1.67718 3.87002C1.70413 3.78969 1.74663 3.71546 1.80226 3.65155ZM11.48 3.65155L13.0619 1.83446C13.1225 1.76492 13.1973 1.70918 13.2812 1.67099C13.3652 1.63279 13.4563 1.61303 13.5485 1.61303C13.6408 1.61303 13.7319 1.63279 13.8159 1.67099C13.8998 1.70918 13.9746 1.76492 14.0352 1.83446L15.6171 3.65155C15.6983 3.74494 15.751 3.85971 15.7688 3.98218C15.7866 4.10466 15.7688 4.22967 15.7175 4.34231C15.6663 4.45496 15.5837 4.55049 15.4796 4.61751C15.3756 4.68454 15.2545 4.72023 15.1307 4.72034C15.0384 4.72048 14.9472 4.70076 14.8632 4.66254C14.7792 4.62432 14.7044 4.56848 14.6439 4.49881L14.1937 3.98171V11.1211C14.1937 11.2922 14.1257 11.4563 14.0047 11.5773C13.8838 11.6983 13.7197 11.7662 13.5485 11.7662C13.3774 11.7662 13.2133 11.6983 13.0923 11.5773C12.9714 11.4563 12.9034 11.2922 12.9034 11.1211V3.98171L12.4532 4.49881C12.3409 4.62787 12.1819 4.70701 12.0111 4.71882C11.8404 4.73063 11.672 4.67415 11.543 4.56179C11.4139 4.44944 11.3348 4.29042 11.323 4.11972C11.3112 3.94901 11.3676 3.78061 11.48 3.65155ZM33.3588 37.9613L31.7769 39.7784C31.7164 39.848 31.6416 39.9037 31.5576 39.9419C31.4737 39.9801 31.3825 39.9999 31.2903 39.9999C31.1981 39.9999 31.1069 39.9801 31.023 39.9419C30.9391 39.9037 30.8643 39.848 30.8037 39.7784L29.2218 37.9613C29.1095 37.8322 29.053 37.6638 29.0648 37.4931C29.0766 37.3225 29.1557 37.1634 29.2848 37.0511C29.5535 36.8174 29.961 36.8452 30.195 37.1141L30.6452 37.6312V30.4917C30.6452 30.3206 30.7131 30.1565 30.8341 30.0355C30.9551 29.9145 31.1192 29.8466 31.2903 29.8466C31.4614 29.8466 31.6255 29.9145 31.7465 30.0355C31.8675 30.1565 31.9355 30.3206 31.9355 30.4917V37.6312L32.3856 37.1141C32.4982 36.9862 32.6569 36.908 32.827 36.8968C32.9971 36.8855 33.1648 36.942 33.2934 37.0539C33.4219 37.1658 33.501 37.3241 33.5132 37.4941C33.5255 37.6641 33.47 37.8321 33.3588 37.9613ZM28.5199 36.3483L26.938 38.1654C26.8774 38.235 26.8026 38.2907 26.7187 38.3289C26.6347 38.3671 26.5436 38.3869 26.4514 38.3869C26.3591 38.3869 26.268 38.3671 26.1841 38.3289C26.1001 38.2907 26.0253 38.235 25.9648 38.1654L24.3829 36.3483C24.2706 36.2193 24.2141 36.0509 24.2259 35.8802C24.2377 35.7095 24.3169 35.5505 24.4459 35.4381C24.575 35.3258 24.7434 35.2693 24.914 35.2811C25.0847 35.2929 25.2438 35.372 25.3561 35.5011L25.8062 36.0181V28.8787C25.8062 28.7075 25.8742 28.5434 25.9952 28.4225C26.1162 28.3015 26.2803 28.2335 26.4514 28.2335C26.6225 28.2335 26.7866 28.3015 26.9076 28.4225C27.0286 28.5434 27.0965 28.7075 27.0965 28.8787V36.0181L27.5467 35.501C27.6023 35.4371 27.67 35.3847 27.7458 35.347C27.8217 35.3092 27.9042 35.2868 27.9888 35.2809C28.0733 35.2751 28.1581 35.286 28.2385 35.3129C28.3188 35.3398 28.393 35.3824 28.4569 35.438C28.586 35.5504 28.6651 35.7094 28.6769 35.8801C28.6887 36.0508 28.6323 36.2192 28.5199 36.3483ZM38.1977 36.3483L36.6158 38.1654C36.5552 38.235 36.4804 38.2907 36.3965 38.3289C36.3126 38.3671 36.2214 38.3869 36.1292 38.3869C36.037 38.3869 35.9458 38.3671 35.8619 38.3289C35.7779 38.2907 35.7032 38.235 35.6426 38.1654L34.0606 36.3483C33.9483 36.2193 33.8919 36.0509 33.9037 35.8802C33.9155 35.7095 33.9946 35.5505 34.1236 35.4381C34.2527 35.3258 34.4211 35.2693 34.5918 35.2811C34.7625 35.2929 34.9215 35.372 35.0339 35.5011L35.484 36.0182V28.8787C35.484 28.7076 35.552 28.5435 35.673 28.4225C35.794 28.3015 35.9581 28.2336 36.1292 28.2336C36.3003 28.2336 36.4644 28.3015 36.5854 28.4225C36.7064 28.5435 36.7744 28.7076 36.7744 28.8787V36.0182L37.2245 35.5011C37.3369 35.372 37.4959 35.2929 37.6666 35.2811C37.8373 35.2692 38.0057 35.3257 38.1348 35.4381C38.2638 35.5504 38.343 35.7095 38.3548 35.8802C38.3666 36.0509 38.3101 36.2193 38.1977 36.3483ZM17.2344 5.88309C17.2344 5.71198 17.3024 5.54788 17.4234 5.42689C17.5444 5.3059 17.7085 5.23792 17.8796 5.23792H31.2904C31.4615 5.23792 31.6256 5.3059 31.7466 5.42689C31.8676 5.54788 31.9356 5.71198 31.9356 5.88309V8.35671L32.3856 7.8397C32.4413 7.77579 32.5089 7.72348 32.5848 7.68573C32.6607 7.64798 32.7432 7.62554 32.8277 7.61969C32.9122 7.61384 32.9971 7.6247 33.0774 7.65164C33.1577 7.67858 33.232 7.72108 33.2959 7.77671C33.3598 7.83235 33.4121 7.90002 33.4499 7.97587C33.4876 8.05172 33.51 8.13427 33.5159 8.21879C33.5217 8.30331 33.5109 8.38816 33.4839 8.46849C33.457 8.54882 33.4145 8.62305 33.3589 8.68696L31.777 10.5041C31.7164 10.5736 31.6417 10.6293 31.5577 10.6676C31.4738 10.7058 31.3826 10.7255 31.2904 10.7255C31.1982 10.7255 31.107 10.7058 31.0231 10.6676C30.9391 10.6293 30.8644 10.5736 30.8038 10.5041L29.2219 8.68696C29.1095 8.55788 29.0531 8.38949 29.0649 8.21879C29.0767 8.0481 29.1558 7.88909 29.2848 7.77671C29.5535 7.543 29.9611 7.57091 30.1951 7.8397L30.6452 8.35679V6.52825H17.8796C17.7085 6.52825 17.5444 6.46027 17.4234 6.33928C17.3024 6.21829 17.2344 6.05419 17.2344 5.88309Z" fill="white"/>
</svg>
