<svg width="50" height="50" viewBox="0 0 50 50" fill="none" xmlns="http://www.w3.org/2000/svg">
<path d="M34.2022 26.0919C34.0909 25.9886 33.952 25.9201 33.8023 25.8945C33.6527 25.869 33.4988 25.8876 33.3596 25.9482C33.2203 26.0087 33.1018 26.1084 33.0183 26.2352C32.9348 26.362 32.8901 26.5104 32.8896 26.6622V47.9138C32.8898 48.0435 32.9223 48.171 32.9841 48.285C33.0458 48.3989 33.135 48.4957 33.2435 48.5667C33.352 48.6376 33.4765 48.6804 33.6056 48.6912C33.7348 48.7021 33.8647 48.6806 33.9835 48.6287L38.1986 46.7927L39.3706 49.5272C39.4559 49.7145 39.6116 49.8606 39.804 49.9338C39.9964 50.0069 40.2098 50.0012 40.398 49.9179L46.0977 47.4607C46.285 47.3754 46.4311 47.2196 46.5042 47.0273C46.5774 46.8349 46.5717 46.6214 46.4883 46.4332L45.3164 43.6987L49.5315 41.8626C49.6505 41.8107 49.7546 41.73 49.8346 41.6278C49.9145 41.5256 49.9677 41.4051 49.9895 41.2772C50.0112 41.1492 50.0007 41.0179 49.9589 40.895C49.9172 40.7722 49.8455 40.6616 49.7503 40.5734L34.2022 26.0919ZM43.9686 42.5736C43.7813 42.6589 43.6352 42.8146 43.5621 43.007C43.4889 43.1994 43.4946 43.4128 43.578 43.601L44.7499 46.3356L40.484 48.1912L39.312 45.4566C39.2267 45.2693 39.071 45.1232 38.8786 45.0501C38.6862 44.9769 38.4728 44.9826 38.2846 45.066L34.4445 46.738V28.4749L47.8126 40.9211L43.9686 42.5736Z" fill="#0B5563"/>
<path d="M30.471 45.3159C30.6783 45.3159 30.877 45.2336 31.0235 45.0871C31.17 44.9406 31.2524 44.7418 31.2524 44.5346C31.2524 44.3274 31.17 44.1287 31.0235 43.9821C30.877 43.8356 30.6783 43.7533 30.471 43.7533H4.71911C3.88195 43.7533 3.07909 43.4207 2.48713 42.8288C1.89518 42.2368 1.56262 41.434 1.56262 40.5968V14.0636H43.7533V32.4243C43.7533 32.6315 43.8356 32.8303 43.9821 32.9768C44.1287 33.1233 44.3274 33.2056 44.5346 33.2056C44.7418 33.2056 44.9406 33.1233 45.0871 32.9768C45.2336 32.8303 45.3159 32.6315 45.3159 32.4243V4.71911C45.3149 3.46784 44.8174 2.26812 43.9326 1.38334C43.0478 0.498557 41.8481 0.00103453 40.5968 0L4.71911 0C3.46784 0.00103453 2.26812 0.498557 1.38334 1.38334C0.498557 2.26812 0.00103453 3.46784 0 4.71911L0 40.6007C0.00206838 41.8513 0.500047 43.05 1.38472 43.934C2.26938 44.8179 3.46851 45.3149 4.71911 45.3159H30.471ZM4.71911 1.56262H40.6007C41.4372 1.56365 42.2391 1.89667 42.8302 2.48851C43.4213 3.08036 43.7533 3.88263 43.7533 4.71911V12.5009H1.56262V4.71911C1.56262 3.88195 1.89518 3.07909 2.48713 2.48713C3.07909 1.89518 3.88195 1.56262 4.71911 1.56262Z" fill="#0B5563"/>
<path d="M38.2848 9.37572C38.7483 9.37572 39.2015 9.23825 39.587 8.9807C39.9724 8.72314 40.2729 8.35707 40.4503 7.92878C40.6277 7.50048 40.6741 7.02919 40.5837 6.57452C40.4932 6.11984 40.27 5.70219 39.9422 5.37439C39.6144 5.04658 39.1967 4.82335 38.742 4.73291C38.2874 4.64246 37.8161 4.68888 37.3878 4.86629C36.9595 5.04369 36.5934 5.34412 36.3359 5.72958C36.0783 6.11503 35.9408 6.56821 35.9408 7.03179C35.9408 7.65344 36.1878 8.24963 36.6274 8.6892C37.0669 9.12877 37.6631 9.37572 38.2848 9.37572ZM38.2848 6.25049C38.4393 6.25049 38.5903 6.29631 38.7188 6.38216C38.8473 6.46801 38.9475 6.59003 39.0066 6.7328C39.0657 6.87557 39.0812 7.03266 39.0511 7.18422C39.0209 7.33578 38.9465 7.47499 38.8372 7.58426C38.728 7.69353 38.5887 7.76794 38.4372 7.79809C38.2856 7.82824 38.1285 7.81277 37.9858 7.75363C37.843 7.69449 37.721 7.59435 37.6351 7.46587C37.5493 7.33738 37.5035 7.18632 37.5035 7.03179C37.5035 6.82458 37.5858 6.62585 37.7323 6.47933C37.8788 6.3328 38.0775 6.25049 38.2848 6.25049ZM32.0343 9.37572C32.4979 9.37572 32.951 9.23825 33.3365 8.9807C33.722 8.72314 34.0224 8.35707 34.1998 7.92878C34.3772 7.50048 34.4236 7.02919 34.3332 6.57452C34.2427 6.11984 34.0195 5.70219 33.6917 5.37439C33.3639 5.04658 32.9462 4.82335 32.4916 4.73291C32.0369 4.64246 31.5656 4.68888 31.1373 4.86629C30.709 5.04369 30.3429 5.34412 30.0854 5.72958C29.8278 6.11503 29.6904 6.56821 29.6904 7.03179C29.6904 7.65344 29.9373 8.24963 30.3769 8.6892C30.8165 9.12877 31.4126 9.37572 32.0343 9.37572ZM32.0343 6.25049C32.1888 6.25049 32.3399 6.29631 32.4684 6.38216C32.5968 6.46801 32.697 6.59003 32.7561 6.7328C32.8153 6.87557 32.8307 7.03266 32.8006 7.18422C32.7704 7.33578 32.696 7.47499 32.5868 7.58426C32.4775 7.69353 32.3383 7.76794 32.1867 7.79809C32.0352 7.82824 31.8781 7.81277 31.7353 7.75363C31.5925 7.69449 31.4705 7.59435 31.3847 7.46587C31.2988 7.33738 31.253 7.18632 31.253 7.03179C31.253 6.82458 31.3353 6.62585 31.4818 6.47933C31.6283 6.3328 31.8271 6.25049 32.0343 6.25049ZM25.7838 9.37572C26.2474 9.37572 26.7006 9.23825 27.086 8.9807C27.4715 8.72314 27.7719 8.35707 27.9493 7.92878C28.1267 7.50048 28.1731 7.02919 28.0827 6.57452C27.9923 6.11984 27.769 5.70219 27.4412 5.37439C27.1134 5.04658 26.6958 4.82335 26.2411 4.73291C25.7864 4.64246 25.3151 4.68888 24.8868 4.86629C24.4585 5.04369 24.0925 5.34412 23.8349 5.72958C23.5774 6.11503 23.4399 6.56821 23.4399 7.03179C23.4399 7.65344 23.6868 8.24963 24.1264 8.6892C24.566 9.12877 25.1622 9.37572 25.7838 9.37572ZM25.7838 6.25049C25.9383 6.25049 26.0894 6.29631 26.2179 6.38216C26.3464 6.46801 26.4465 6.59003 26.5057 6.7328C26.5648 6.87557 26.5803 7.03266 26.5501 7.18422C26.52 7.33578 26.4456 7.47499 26.3363 7.58426C26.227 7.69353 26.0878 7.76794 25.9362 7.79809C25.7847 7.82824 25.6276 7.81277 25.4848 7.75363C25.3421 7.69449 25.22 7.59435 25.1342 7.46587C25.0483 7.33738 25.0025 7.18632 25.0025 7.03179C25.0025 6.82458 25.0848 6.62585 25.2313 6.47933C25.3779 6.3328 25.5766 6.25049 25.7838 6.25049ZM28.9091 20.314H13.9861C13.8067 19.4309 13.3276 18.637 12.6299 18.0667C11.9322 17.4964 11.0588 17.1849 10.1576 17.1849C9.25651 17.1849 8.38309 17.4964 7.68538 18.0667C6.98766 18.637 6.50855 19.4309 6.32923 20.314H5.46979C5.26257 20.314 5.06384 20.3964 4.91732 20.5429C4.77079 20.6894 4.68848 20.8881 4.68848 21.0954C4.68848 21.3026 4.77079 21.5013 4.91732 21.6478C5.06384 21.7944 5.26257 21.8767 5.46979 21.8767H6.32923C6.50855 22.7598 6.98766 23.5537 7.68538 24.124C8.38309 24.6943 9.25651 25.0058 10.1576 25.0058C11.0588 25.0058 11.9322 24.6943 12.6299 24.124C13.3276 23.5537 13.8067 22.7598 13.9861 21.8767H28.9091C29.1163 21.8767 29.315 21.7944 29.4615 21.6478C29.608 21.5013 29.6904 21.3026 29.6904 21.0954C29.6904 20.8881 29.608 20.6894 29.4615 20.5429C29.315 20.3964 29.1163 20.314 28.9091 20.314ZM10.1576 23.4393C9.69405 23.4393 9.24088 23.3018 8.85542 23.0443C8.46997 22.7867 8.16954 22.4206 7.99213 21.9923C7.81473 21.564 7.76831 21.0928 7.85875 20.6381C7.94919 20.1834 8.17243 19.7658 8.50023 19.4379C8.82804 19.1101 9.24568 18.8869 9.70036 18.7965C10.155 18.706 10.6263 18.7524 11.0546 18.9299C11.4829 19.1073 11.849 19.4077 12.1065 19.7931C12.3641 20.1786 12.5016 20.6318 12.5016 21.0954C12.5016 21.717 12.2546 22.3132 11.815 22.7528C11.3755 23.1923 10.7793 23.4393 10.1576 23.4393ZM21.0178 35.9402C20.8385 35.0571 20.3594 34.2632 19.6617 33.6929C18.964 33.1226 18.0905 32.8111 17.1894 32.8111C16.2883 32.8111 15.4149 33.1226 14.7172 33.6929C14.0194 34.2632 13.5403 35.0571 13.361 35.9402H5.46979C5.26257 35.9402 5.06384 36.0225 4.91732 36.1691C4.77079 36.3156 4.68848 36.5143 4.68848 36.7215C4.68848 36.9288 4.77079 37.1275 4.91732 37.274C5.06384 37.4205 5.26257 37.5028 5.46979 37.5028H13.361C13.5403 38.3859 14.0194 39.1799 14.7172 39.7502C15.4149 40.3205 16.2883 40.632 17.1894 40.632C18.0905 40.632 18.964 40.3205 19.6617 39.7502C20.3594 39.1799 20.8385 38.3859 21.0178 37.5028H28.9091C29.1163 37.5028 29.315 37.4205 29.4615 37.274C29.608 37.1275 29.6904 36.9288 29.6904 36.7215C29.6904 36.5143 29.608 36.3156 29.4615 36.1691C29.315 36.0225 29.1163 35.9402 28.9091 35.9402H21.0178ZM17.1894 39.0655C16.7258 39.0655 16.2727 38.928 15.8872 38.6704C15.5017 38.4129 15.2013 38.0468 15.0239 37.6185C14.8465 37.1902 14.8001 36.7189 14.8905 36.2643C14.981 35.8096 15.2042 35.3919 15.532 35.0641C15.8598 34.7363 16.2775 34.5131 16.7321 34.4226C17.1868 34.3322 17.6581 34.3786 18.0864 34.556C18.5147 34.7334 18.8808 35.0339 19.1383 35.4193C19.3959 35.8048 19.5333 36.258 19.5333 36.7215C19.5333 37.3432 19.2864 37.9394 18.8468 38.3789C18.4073 38.8185 17.8111 39.0655 17.1894 39.0655ZM25.7838 25.0019C24.8832 25.0017 24.0103 25.3127 23.3126 25.8822C22.615 26.4517 22.1355 27.2448 21.9554 28.1271H5.46979C5.26257 28.1271 5.06384 28.2095 4.91732 28.356C4.77079 28.5025 4.68848 28.7012 4.68848 28.9084C4.68848 29.1157 4.77079 29.3144 4.91732 29.4609C5.06384 29.6074 5.26257 29.6898 5.46979 29.6898H21.9554C22.1032 30.414 22.4535 31.0814 22.9655 31.6145C23.4775 32.1476 24.1302 32.5245 24.8479 32.7014C25.5655 32.8783 26.3186 32.8481 27.0198 32.6141C27.7209 32.3801 28.3412 31.952 28.8088 31.3795C29.2763 30.807 29.5718 30.1136 29.661 29.3799C29.7502 28.6461 29.6294 27.9021 29.3127 27.2343C28.9959 26.5665 28.4962 26.0022 27.8715 25.6071C27.2469 25.2119 26.523 25.0021 25.7838 25.0019ZM25.7838 31.2524C25.3202 31.2524 24.8671 31.1149 24.4816 30.8573C24.0961 30.5998 23.7957 30.2337 23.6183 29.8054C23.4409 29.3771 23.3945 28.9058 23.4849 28.4512C23.5754 27.9965 23.7986 27.5788 24.1264 27.251C24.4542 26.9232 24.8719 26.7 25.3265 26.6096C25.7812 26.5191 26.2525 26.5655 26.6808 26.7429C27.1091 26.9203 27.4752 27.2208 27.7327 27.6062C27.9903 27.9917 28.1277 28.4449 28.1277 28.9084C28.1277 29.5301 27.8808 30.1263 27.4412 30.5659C27.0017 31.0054 26.4055 31.2524 25.7838 31.2524Z" fill="#0B5563"/>
</svg>
