<?xml version="1.0" encoding="utf-8"?>
<!-- Generator: Adobe Illustrator 25.4.1, SVG Export Plug-In . SVG Version: 6.00 Build 0)  -->
<svg version="1.1" id="Layer_1" xmlns="http://www.w3.org/2000/svg" xmlns:xlink="http://www.w3.org/1999/xlink" x="0px" y="0px"
	 viewBox="0 0 364.15 384" style="enable-background:new 0 0 364.15 384;" xml:space="preserve">
<style type="text/css">
	.st0{fill:#3B64C4;}
</style>
<path d="M187.33,0c0.19,0.16,0.35,0.4,0.57,0.45c18.25,4.98,26.52,15.78,26.52,34.72c0,3.87,0.03,7.75-0.01,11.62
	c-0.06,5.27-2.22,7.48-7.54,7.61c-3.62,0.09-7.25-0.04-10.87,0.04c-8.31,0.19-13.43,5.09-13.46,13.34c-0.09,29.75-0.1,59.49,0,89.24
	c0.03,8.36,5.31,13.3,13.83,13.32c17,0.04,34,0,50.99,0.02c7,0.01,9.22,2.52,8.29,9.48c-0.34,2.59-0.84,5.17-1.39,7.73
	c-0.54,2.53-1.23,5.03-2,8.1c10.36-3.34,17.86-9.37,22.18-18.73c2.28-4.94,5.34-6.76,10.71-6.68c17.24,0.26,34.49,0.11,51.74,0.09
	c9.34-0.01,14.4-4.98,14.41-14.33c0.04-29,0.04-57.99,0-86.99c-0.01-9.6-4.98-14.57-14.57-14.58c-28.87-0.03-57.74-0.01-86.61-0.01
	c-1.12,0-2.25,0.04-3.37-0.02c-4.55-0.22-7.14-2.62-7.09-6.51c0.05-3.75,2.56-6.04,6.92-6.3c0.75-0.04,1.5-0.02,2.25-0.02
	c29.25,0,58.49-0.03,87.74,0.01c13.44,0.02,23.32,7.01,26.48,18.85c0.76,2.85,1.04,5.92,1.05,8.89c0.07,28.75,0.07,57.49,0.04,86.24
	c-0.02,16.97-10.66,27.54-27.67,27.56c-15.75,0.02-31.5,0.06-47.24-0.05c-2.41-0.02-3.71,0.7-5.03,2.79
	c-9.33,14.86-22.81,23.05-40.34,24.38c-7.21,0.55-10.15-3.79-7.34-10.39c1.66-3.89,3.07-7.9,4.49-11.89
	c0.49-1.38,0.68-2.87,1.12-4.84c-1.62,0-2.93,0-4.25,0c-13.75,0-27.5,0.04-41.24-0.01c-16.26-0.06-26.9-10.69-26.95-27.09
	c-0.08-29-0.07-57.99-0.01-86.99c0.04-16.82,10.59-27.3,27.42-27.47c1.36-0.01,2.72,0,4.23,0c0-4.62,0.58-9.05-0.12-13.26
	c-1.57-9.41-9.58-15.52-19.67-15.53c-38.49-0.03-76.99-0.01-115.48-0.01c-1.59,0-3.19,0-5.62,0c2.8,4.72,5.01,9.03,7.78,12.95
	c2.04,2.89,5.5,3.05,8.85,3.04c19.87-0.04,39.74-0.03,59.62,0c1.61,0,3.29,0.04,4.81,0.49c3.01,0.89,4.48,3.26,4.31,6.27
	c-0.17,3-1.86,5.16-4.97,5.78c-1.33,0.26-2.73,0.25-4.1,0.25c-19.75,0.01-39.5-0.11-59.24,0.06c-10.56,0.09-18.24-4.14-23.1-13.56
	c-2.23-4.33-4.83-8.46-7.04-12.8c-1-1.96-2.24-2.63-4.38-2.53c-3.49,0.16-7,0-10.5,0.05c-10.64,0.15-18.45,7.34-19.51,17.92
	c-0.11,1.12-0.12,2.25-0.12,3.37c-0.01,105.24,0,210.47-0.02,315.71c0,5.28,0.95,10.2,4.43,14.35c3.83,4.57,8.78,7.05,14.72,7.05
	c50.24,0.05,100.49,0.09,150.73-0.03c10.99-0.02,18.92-8.59,18.93-19.97c0.04-42.87,0.02-85.74,0.02-128.61
	c0-1.25-0.07-2.51,0.07-3.75c0.41-3.64,3.03-5.99,6.5-5.93c3.51,0.06,5.92,2.45,6.18,6.19c0.08,1.12,0.04,2.25,0.04,3.37
	c0,42.12,0,84.24,0,126.36c0,18.93-8.24,29.7-26.53,34.71c-0.21,0.06-0.37,0.3-0.56,0.46c-53.25,0-106.5,0-159.75,0
	c-2.82-0.93-5.78-1.58-8.44-2.85C5.87,374.84,0,364.01,0,349.55c0.03-105.03,0.01-210.07,0.02-315.1c0-1-0.01-2,0.04-3
	c0.59-11.37,5.36-20.5,15.16-26.44C18.97,2.74,23.43,1.64,27.58,0C80.83,0,134.08,0,187.33,0z"/>
<path class="st0" d="M107.51,214.07c-23.12-0.04-41.07-17.66-41.01-40.28c0.06-22.68,18.29-40.24,41.64-40.1
	c22.06,0.14,40.07,18.17,40.12,40.16C148.3,196.15,130.1,214.11,107.51,214.07z M107.7,201.24c15.17,0.12,27.54-11.93,27.76-27.02
	c0.22-15.51-12.41-27.7-28.71-27.71c-15-0.01-27.3,12.05-27.47,26.92C79.11,189.32,91.16,201.11,107.7,201.24z"/>
<path class="st0" d="M107.5,225.69c22.07-0.97,40.02,7.06,53.27,24.87c7.29,9.79,10.81,21.01,11.3,33.18
	c0.2,4.78-2.07,7.78-5.93,8.04c-4.09,0.28-6.65-2.32-6.84-7.48c-0.86-23.66-17.78-41.03-36.28-44.48
	c-18.33-3.42-36.49-3.18-51.66,10.32c-10.22,9.09-15.61,20.53-16.05,34.25c-0.14,4.28-2.1,6.93-5.49,7.34
	c-3.26,0.4-5.64-0.98-6.84-4.01c-0.44-1.11-0.43-2.45-0.42-3.68c0.09-30.56,26.1-57.33,56.69-58.34
	C101.99,225.61,104.75,225.69,107.5,225.69z"/>
<path class="st0" d="M282.32,102.43c7.61,0,15.21-0.05,22.82,0.02c4.91,0.04,7.58,2.32,7.61,6.29c0.04,3.99-2.66,6.47-7.47,6.49
	c-15.34,0.06-30.67,0.06-46.01,0c-4.9-0.02-7.57-2.36-7.61-6.35c-0.04-4,2.62-6.38,7.47-6.43
	C266.86,102.37,274.59,102.43,282.32,102.43z"/>
<path class="st0" d="M225.84,102.43c4.91,0.04,7.96,2.58,7.84,6.53c-0.12,3.94-3.21,6.33-8.14,6.29c-4.89-0.04-7.86-2.56-7.77-6.6
	C217.85,104.66,220.8,102.39,225.84,102.43z"/>
</svg>
