<svg width="50" height="50" viewBox="0 0 50 50" fill="none" xmlns="http://www.w3.org/2000/svg">
<path d="M49.558 36.3766L44.435 33.8151L41.1746 25.3341C41.1362 25.2338 41.0776 25.1425 41.0024 25.066C40.9271 24.9894 40.8369 24.9291 40.7373 24.889L20.5071 16.8023C20.3656 16.746 20.2108 16.7323 20.0616 16.7628C19.9125 16.7933 19.7755 16.8668 19.6675 16.9741L16.9694 19.6723C16.8635 19.7803 16.7912 19.9168 16.7614 20.0652C16.7316 20.2135 16.7455 20.3673 16.8015 20.5079L24.8881 40.7381C24.9283 40.8377 24.9885 40.9279 25.0651 41.0032C25.1417 41.0784 25.233 41.1371 25.3333 41.1755L33.8143 44.4359L36.3757 49.5589C36.4297 49.6718 36.51 49.7701 36.6099 49.8456C36.7098 49.921 36.8263 49.9713 36.9497 49.9923C36.9913 49.9961 37.0331 49.9961 37.0747 49.9923C37.2815 49.9914 37.4795 49.9086 37.6253 49.7619L49.7611 37.6261C49.8504 37.5399 49.9179 37.4337 49.9579 37.3162C49.998 37.1987 50.0095 37.0734 49.9914 36.9506C49.9705 36.8272 49.9202 36.7106 49.8447 36.6107C49.7693 36.5108 49.671 36.4305 49.558 36.3766ZM18.4376 20.4064L18.871 19.9769L28.9412 30.0471C28.2775 30.9875 27.9909 32.1427 28.138 33.2843C28.2851 34.4258 28.8552 35.4707 29.7355 36.2121C30.6159 36.9536 31.7424 37.3378 32.8924 37.2886C34.0423 37.2395 35.132 36.7606 35.9459 35.9467C36.7598 35.1328 37.2386 34.0432 37.2878 32.8932C37.3369 31.7433 36.9528 30.6167 36.2113 29.7364C35.4698 28.856 34.425 28.2859 33.2834 28.1388C32.1418 27.9917 30.9866 28.2784 30.0462 28.942L19.976 18.8718L20.4055 18.4384L39.8392 26.2127L42.9044 34.1861L34.1852 42.9052L26.2118 39.8401L18.4376 20.4064ZM32.6936 29.6605C33.3955 29.6615 34.0753 29.9059 34.6172 30.3519C35.1591 30.798 35.5296 31.4181 35.6656 32.1067C35.8015 32.7952 35.6946 33.5096 35.3629 34.1282C35.0312 34.7467 34.4954 35.2312 33.8466 35.4989C33.1978 35.7667 32.4763 35.8012 31.8049 35.5967C31.1335 35.3921 30.5538 34.9611 30.1645 34.3771C29.7753 33.7931 29.6005 33.0921 29.6701 32.3937C29.7397 31.6953 30.0492 31.0426 30.546 30.5469C31.1162 29.9785 31.8886 29.6597 32.6936 29.6605ZM37.2894 47.8915L35.3371 43.9868L43.9782 35.3457L47.8829 37.2981L37.2894 47.8915Z" fill="#0B5563"/>
<path d="M14.947 41.7924C14.7977 41.6513 14.6 41.5726 14.3945 41.5726C14.189 41.5726 13.9913 41.6513 13.842 41.7924L12.8502 42.7842C10.2035 39.1921 8.74343 34.8637 8.67344 30.4024C8.60345 25.9411 9.92703 21.569 12.4597 17.8956C13.2185 18.3132 14.0922 18.4736 14.9498 18.3528C15.8075 18.232 16.6028 17.8365 17.2168 17.2256C17.8307 16.6148 18.2302 15.8214 18.3553 14.9644C18.4804 14.1074 18.3244 13.2329 17.9107 12.472C21.5841 9.93931 25.9561 8.61573 30.4174 8.68572C34.8788 8.75571 39.2071 10.2158 42.7992 12.8625L41.7918 13.8426C41.6466 13.989 41.5652 14.1869 41.5654 14.3931C41.5648 14.4959 41.5845 14.5978 41.6233 14.6929C41.6622 14.7881 41.7195 14.8746 41.7918 14.9476L45.2358 18.3642C45.3821 18.5097 45.58 18.5913 45.7863 18.5913C45.9927 18.5913 46.1906 18.5097 46.3369 18.3642L49.7613 14.9398C49.8339 14.8673 49.8915 14.7811 49.9308 14.6863C49.9701 14.5915 49.9904 14.4899 49.9904 14.3873C49.9904 14.2846 49.9701 14.183 49.9308 14.0882C49.8915 13.9934 49.8339 13.9073 49.7613 13.8348L46.3369 10.4103C46.1906 10.2649 45.9927 10.1832 45.7863 10.1832C45.58 10.1832 45.3821 10.2649 45.2358 10.4103L43.9121 11.7262C40.6497 9.27132 36.7928 7.72896 32.7372 7.25753C28.6817 6.7861 24.5738 7.40259 20.8353 9.04369L25.3374 4.55328C25.8479 4.7972 26.4283 4.85241 26.9756 4.70913C27.5229 4.56584 28.0018 4.23331 28.3272 3.77055C28.6527 3.30778 28.8037 2.74468 28.7535 2.18115C28.7033 1.61763 28.4551 1.0901 28.053 0.692167C27.6508 0.29423 27.1207 0.051607 26.5567 0.00734102C25.9926 -0.036925 25.4312 0.120028 24.9719 0.450355C24.5125 0.780682 24.1851 1.26303 24.0476 1.81182C23.9101 2.36061 23.9714 2.94038 24.2207 3.44825L16.6221 11.0585C15.8506 10.541 14.9234 10.3074 13.9988 10.3976C13.0741 10.4878 12.2095 10.8963 11.5526 11.5532C10.8957 12.2101 10.4873 13.0747 10.397 13.9993C10.3068 14.9239 10.5404 15.8512 11.0579 16.6227L3.44769 24.2213C2.93782 23.9728 2.35639 23.9132 1.8067 24.0529C1.25702 24.1927 0.77468 24.5228 0.445404 24.9846C0.116128 25.4464 -0.0387626 26.01 0.00825586 26.5752C0.0552744 27.1405 0.301157 27.6707 0.702211 28.0718C1.10326 28.4728 1.63351 28.7187 2.19874 28.7657C2.76396 28.8127 3.32755 28.6578 3.78936 28.3286C4.25117 27.9993 4.58128 27.517 4.72104 26.9673C4.86081 26.4176 4.80117 25.8361 4.55272 25.3263L9.05484 20.8359C7.4121 24.5734 6.79367 28.6807 7.26303 32.7362C7.7324 36.7917 9.27265 40.6492 11.7256 43.9127L10.4059 45.2363C10.2604 45.3827 10.1788 45.5806 10.1788 45.7869C10.1788 45.9932 10.2604 46.1911 10.4059 46.3375L13.8303 49.7619C13.9761 49.9085 14.1741 49.9914 14.3808 49.9923C14.4839 49.9923 14.5859 49.972 14.6811 49.9325C14.7763 49.893 14.8627 49.835 14.9353 49.7619L18.3636 46.3375C18.5091 46.1911 18.5907 45.9932 18.5907 45.7869C18.5907 45.5806 18.5091 45.3827 18.3636 45.2363L14.947 41.7924ZM45.7941 12.0581L48.1135 14.3775L45.7941 16.6969L43.4748 14.3775L45.7941 12.0581ZM25.7826 1.81999C25.8986 1.703 26.0468 1.62312 26.2083 1.59048C26.3698 1.55784 26.5374 1.57391 26.6898 1.63666C26.8421 1.69941 26.9724 1.80601 27.0641 1.94293C27.1558 2.07985 27.2048 2.24092 27.2048 2.4057C27.2048 2.57048 27.1558 2.73155 27.0641 2.86847C26.9724 3.00539 26.8421 3.11199 26.6898 3.17474C26.5374 3.23749 26.3698 3.25356 26.2083 3.22092C26.0468 3.18828 25.8986 3.1084 25.7826 2.9914C25.7056 2.91452 25.6445 2.82322 25.6029 2.72272C25.5612 2.62222 25.5397 2.51449 25.5397 2.4057C25.5397 2.2969 25.5612 2.18918 25.6029 2.08868C25.6445 1.98818 25.7056 1.89687 25.7826 1.81999ZM12.6628 12.6633C12.8895 12.4355 13.1591 12.2547 13.4559 12.1313C13.7528 12.0079 14.0711 11.9444 14.3926 11.9444C14.714 11.9444 15.0323 12.0079 15.3292 12.1313C15.626 12.2547 15.8956 12.4355 16.1223 12.6633C16.4651 13.0056 16.6987 13.4418 16.7935 13.9168C16.8883 14.3918 16.84 14.8843 16.6548 15.3319C16.4696 15.7795 16.1558 16.1621 15.7531 16.4313C15.3504 16.7005 14.8769 16.8441 14.3926 16.8441C13.9082 16.8441 13.4347 16.7005 13.032 16.4313C12.6293 16.1621 12.3155 15.7795 12.1303 15.3319C11.9451 14.8843 11.8969 14.3918 11.9916 13.9168C12.0864 13.4418 12.32 13.0056 12.6628 12.6633ZM2.99474 26.9545C2.83531 27.0875 2.63192 27.156 2.42453 27.1467C2.21715 27.1373 2.02077 27.0507 1.87398 26.9039C1.72718 26.7571 1.64059 26.5607 1.63122 26.3533C1.62185 26.146 1.69038 25.9426 1.82333 25.7831C1.9796 25.6296 2.18994 25.5435 2.40904 25.5435C2.62814 25.5435 2.83847 25.6296 2.99474 25.7831C3.07172 25.86 3.13279 25.9513 3.17445 26.0518C3.21612 26.1523 3.23756 26.26 3.23756 26.3688C3.23756 26.4776 3.21612 26.5854 3.17445 26.6859C3.13279 26.7864 3.07172 26.8777 2.99474 26.9545ZM14.3926 48.0907L12.0732 45.7713L14.3926 43.4519L16.712 45.7713L14.3926 48.0907Z" fill="#0B5563"/>
</svg>
