<svg width="50" height="48" viewBox="0 0 50 48" fill="none" xmlns="http://www.w3.org/2000/svg">
<path d="M46.7105 0H3.28947C2.41737 0.00104464 1.58129 0.347949 0.964618 0.964618C0.347949 1.58129 0.00104464 2.41737 0 3.28947V44.079C0.00104464 44.9511 0.347949 45.7871 0.964618 46.4038C1.58129 47.0205 2.41737 47.3674 3.28947 47.3684H46.7105C47.5826 47.3674 48.4187 47.0205 49.0354 46.4038C49.6521 45.7871 49.999 44.9511 50 44.079V3.28947C49.999 2.41737 49.6521 1.58129 49.0354 0.964618C48.4187 0.347949 47.5826 0.00104464 46.7105 0ZM3.28947 1.31579H46.7105C47.2338 1.31631 47.7355 1.52442 48.1056 1.89445C48.4756 2.26447 48.6837 2.76618 48.6842 3.28947V7.89474H1.31579V3.28947C1.31631 2.76618 1.52442 2.26447 1.89445 1.89445C2.26447 1.52442 2.76618 1.31631 3.28947 1.31579ZM46.7105 46.0526H3.28947C2.76618 46.0521 2.26447 45.844 1.89445 45.474C1.52442 45.104 1.31631 44.6022 1.31579 44.079V9.21053H48.6842V44.079C48.6837 44.6022 48.4756 45.104 48.1056 45.474C47.7355 45.844 47.2338 46.0521 46.7105 46.0526Z" fill="#0B5563"/>
<path d="M5.91997 6.57908C6.31033 6.57908 6.69192 6.46333 7.01649 6.24646C7.34106 6.02959 7.59404 5.72134 7.74342 5.3607C7.8928 5.00005 7.93189 4.60321 7.85573 4.22035C7.77958 3.8375 7.5916 3.48582 7.31558 3.20979C7.03955 2.93377 6.68788 2.74579 6.30502 2.66964C5.92216 2.59348 5.52532 2.63257 5.16468 2.78195C4.80403 2.93134 4.49579 3.18431 4.27891 3.50888C4.06204 3.83345 3.94629 4.21504 3.94629 4.6054C3.94681 5.12869 4.15492 5.6304 4.52494 6.00043C4.89497 6.37045 5.39668 6.57856 5.91997 6.57908ZM5.91997 3.9475C6.05009 3.9475 6.17729 3.98609 6.28548 4.05838C6.39367 4.13067 6.47799 4.23342 6.52779 4.35363C6.57758 4.47385 6.59061 4.60613 6.56523 4.73375C6.53984 4.86137 6.47718 4.97859 6.38517 5.0706C6.29317 5.16261 6.17594 5.22527 6.04832 5.25065C5.9207 5.27604 5.78842 5.26301 5.66821 5.21321C5.54799 5.16342 5.44524 5.0791 5.37295 4.97091C5.30066 4.86272 5.26208 4.73552 5.26208 4.6054C5.26208 4.43091 5.33139 4.26358 5.45477 4.1402C5.57815 4.01682 5.74549 3.9475 5.91997 3.9475ZM11.1831 6.57908C11.5735 6.57908 11.9551 6.46333 12.2797 6.24646C12.6042 6.02959 12.8572 5.72134 13.0066 5.3607C13.156 5.00005 13.195 4.60321 13.1189 4.22035C13.0427 3.8375 12.8548 3.48582 12.5787 3.20979C12.3027 2.93377 11.951 2.74579 11.5682 2.66964C11.1853 2.59348 10.7885 2.63257 10.4278 2.78195C10.0672 2.93134 9.75894 3.18431 9.54207 3.50888C9.3252 3.83345 9.20945 4.21504 9.20945 4.6054C9.20997 5.12869 9.41808 5.6304 9.7881 6.00043C10.1581 6.37045 10.6598 6.57856 11.1831 6.57908ZM11.1831 3.9475C11.3133 3.9475 11.4404 3.98609 11.5486 4.05838C11.6568 4.13067 11.7412 4.23342 11.7909 4.35363C11.8407 4.47385 11.8538 4.60613 11.8284 4.73375C11.803 4.86137 11.7403 4.97859 11.6483 5.0706C11.5563 5.16261 11.4391 5.22527 11.3115 5.25065C11.1839 5.27604 11.0516 5.26301 10.9314 5.21321C10.8112 5.16342 10.7084 5.0791 10.6361 4.97091C10.5638 4.86272 10.5252 4.73552 10.5252 4.6054C10.5252 4.43091 10.5945 4.26358 10.7179 4.1402C10.8413 4.01682 11.0086 3.9475 11.1831 3.9475ZM16.4463 6.57908C16.8366 6.57908 17.2182 6.46333 17.5428 6.24646C17.8674 6.02959 18.1204 5.72134 18.2697 5.3607C18.4191 5.00005 18.4582 4.60321 18.382 4.22035C18.3059 3.8375 18.1179 3.48582 17.8419 3.20979C17.5659 2.93377 17.2142 2.74579 16.8313 2.66964C16.4485 2.59348 16.0516 2.63257 15.691 2.78195C15.3303 2.93134 15.0221 3.18431 14.8052 3.50888C14.5884 3.83345 14.4726 4.21504 14.4726 4.6054C14.4731 5.12869 14.6812 5.6304 15.0513 6.00043C15.4213 6.37045 15.923 6.57856 16.4463 6.57908ZM16.4463 3.9475C16.5764 3.9475 16.7036 3.98609 16.8118 4.05838C16.92 4.13067 17.0043 4.23342 17.0541 4.35363C17.1039 4.47385 17.1169 4.60613 17.0915 4.73375C17.0662 4.86137 17.0035 4.97859 16.9115 5.0706C16.8195 5.16261 16.7023 5.22527 16.5746 5.25065C16.447 5.27604 16.3147 5.26301 16.1945 5.21321C16.0743 5.16342 15.9716 5.0791 15.8993 4.97091C15.827 4.86272 15.7884 4.73552 15.7884 4.6054C15.7884 4.43091 15.8577 4.26358 15.9811 4.1402C16.1045 4.01682 16.2718 3.9475 16.4463 3.9475ZM32.2358 5.26329H45.3937C45.5681 5.26329 45.7355 5.19398 45.8589 5.0706C45.9822 4.94722 46.0516 4.77988 46.0516 4.6054C46.0516 4.43091 45.9822 4.26358 45.8589 4.1402C45.7355 4.01682 45.5681 3.9475 45.3937 3.9475H32.2358C32.0613 3.9475 31.8939 4.01682 31.7706 4.1402C31.6472 4.26358 31.5779 4.43091 31.5779 4.6054C31.5779 4.77988 31.6472 4.94722 31.7706 5.0706C31.8939 5.19398 32.0613 5.26329 32.2358 5.26329ZM38.1568 19.737H21.7094C21.535 19.737 21.3676 19.8063 21.2442 19.9297C21.1209 20.053 21.0516 20.2204 21.0516 20.3949C21.0516 20.5694 21.1209 20.7367 21.2442 20.8601C21.3676 20.9835 21.535 21.0528 21.7094 21.0528H37.2772L34.3752 30.9212H22.87L19.0542 16.9324C19.0162 16.7932 18.9336 16.6704 18.819 16.5827C18.7044 16.4951 18.5642 16.4476 18.42 16.4475H13.1568C12.9823 16.4475 12.815 16.5168 12.6916 16.6402C12.5682 16.7636 12.4989 16.9309 12.4989 17.1054C12.4989 17.2799 12.5682 17.4472 12.6916 17.5706C12.815 17.694 12.9823 17.7633 13.1568 17.7633H17.9173L21.5062 30.9212H17.7621C17.2386 30.9212 16.7366 31.1291 16.3665 31.4993C15.9963 31.8694 15.7884 32.3714 15.7884 32.8949C15.7884 33.4183 15.9963 33.9203 16.3665 34.2905C16.7366 34.6606 17.2386 34.8686 17.7621 34.8686H20.7594C20.5225 35.2668 20.3963 35.721 20.3937 36.1843C20.3937 36.8823 20.6709 37.5516 21.1644 38.0452C21.6579 38.5387 22.3273 38.8159 23.0252 38.8159C23.7232 38.8159 24.3925 38.5387 24.886 38.0452C25.3796 37.5516 25.6568 36.8823 25.6568 36.1843C25.6542 35.721 25.5279 35.2668 25.291 34.8686H29.97C29.7331 35.2668 29.6068 35.721 29.6042 36.1843C29.6042 36.8823 29.8814 37.5516 30.375 38.0452C30.8685 38.5387 31.5378 38.8159 32.2358 38.8159C32.9337 38.8159 33.6031 38.5387 34.0966 38.0452C34.5901 37.5516 34.8673 36.8823 34.8673 36.1843C34.8647 35.721 34.7385 35.2668 34.5016 34.8686H37.4989C37.6734 34.8686 37.8407 34.7992 37.9641 34.6759C38.0875 34.5525 38.1568 34.3851 38.1568 34.2107C38.1568 34.0362 38.0875 33.8688 37.9641 33.7455C37.8407 33.6221 37.6734 33.5528 37.4989 33.5528H17.7621C17.5876 33.5528 17.4203 33.4835 17.2969 33.3601C17.1735 33.2367 17.1042 33.0694 17.1042 32.8949C17.1042 32.7204 17.1735 32.553 17.2969 32.4297C17.4203 32.3063 17.5876 32.237 17.7621 32.237H34.8673C35.0094 32.2369 35.1476 32.1909 35.2614 32.1057C35.3751 32.0206 35.4582 31.9009 35.4983 31.7646L38.7877 20.5804C38.8166 20.4823 38.8221 20.3789 38.804 20.2783C38.7859 20.1777 38.7446 20.0827 38.6833 20.0008C38.6221 19.9189 38.5426 19.8525 38.4512 19.8067C38.3599 19.7609 38.259 19.737 38.1568 19.737ZM24.341 36.1843C24.341 36.4446 24.2639 36.699 24.1193 36.9154C23.9747 37.1317 23.7692 37.3004 23.5288 37.4C23.2883 37.4996 23.0238 37.5256 22.7685 37.4748C22.5133 37.4241 22.2788 37.2988 22.0948 37.1147C21.9108 36.9307 21.7855 36.6963 21.7347 36.441C21.684 36.1858 21.71 35.9212 21.8096 35.6808C21.9092 35.4404 22.0778 35.2349 22.2942 35.0903C22.5106 34.9457 22.765 34.8686 23.0252 34.8686C23.3741 34.8689 23.7086 35.0076 23.9553 35.2543C24.2019 35.501 24.3407 35.8355 24.341 36.1843ZM33.5516 36.1843C33.5516 36.4446 33.4744 36.699 33.3298 36.9154C33.1852 37.1317 32.9797 37.3004 32.7393 37.4C32.4989 37.4996 32.2343 37.5256 31.9791 37.4748C31.7238 37.4241 31.4894 37.2988 31.3054 37.1147C31.1213 36.9307 30.996 36.6963 30.9453 36.441C30.8945 36.1858 30.9205 35.9212 31.0201 35.6808C31.1197 35.4404 31.2884 35.2349 31.5047 35.0903C31.7211 34.9457 31.9755 34.8686 32.2358 34.8686C32.5846 34.8689 32.9191 35.0076 33.1658 35.2543C33.4125 35.501 33.5512 35.8355 33.5516 36.1843Z" fill="#0B5563"/>
<path d="M15.132 21.0527C15.132 20.8782 15.0627 20.7108 14.9393 20.5875C14.816 20.4641 14.6486 20.3948 14.4741 20.3948H7.8952C7.72071 20.3948 7.55338 20.4641 7.43 20.5875C7.30662 20.7108 7.2373 20.8782 7.2373 21.0527C7.2373 21.2272 7.30662 21.3945 7.43 21.5179C7.55338 21.6413 7.72071 21.7106 7.8952 21.7106H14.4741C14.6486 21.7106 14.816 21.6413 14.9393 21.5179C15.0627 21.3945 15.132 21.2272 15.132 21.0527ZM17.1057 24.3421C17.1057 24.1677 17.0364 24.0003 16.913 23.8769C16.7897 23.7536 16.6223 23.6842 16.4478 23.6842H10.5268C10.3523 23.6842 10.185 23.7536 10.0616 23.8769C9.9382 24.0003 9.86888 24.1677 9.86888 24.3421C9.86888 24.5166 9.9382 24.684 10.0616 24.8073C10.185 24.9307 10.3523 25 10.5268 25H16.4478C16.6223 25 16.7897 24.9307 16.913 24.8073C17.0364 24.684 17.1057 24.5166 17.1057 24.3421ZM19.0794 27.6316C19.0794 27.4571 19.0101 27.2898 18.8867 27.1664C18.7633 27.043 18.596 26.9737 18.4215 26.9737H13.1584C12.9839 26.9737 12.8165 27.043 12.6932 27.1664C12.5698 27.2898 12.5005 27.4571 12.5005 27.6316C12.5005 27.8061 12.5698 27.9734 12.6932 28.0968C12.8165 28.2202 12.9839 28.2895 13.1584 28.2895H18.4215C18.596 28.2895 18.7633 28.2202 18.8867 28.0968C19.0101 27.9734 19.0794 27.8061 19.0794 27.6316Z" fill="#0B5563"/>
</svg>
