<svg width="50" height="44" viewBox="0 0 50 44" fill="none" xmlns="http://www.w3.org/2000/svg">
<path d="M5.46875 4.6875C5.90022 4.6875 6.25 4.33772 6.25 3.90625C6.25 3.47478 5.90022 3.125 5.46875 3.125C5.03728 3.125 4.6875 3.47478 4.6875 3.90625C4.6875 4.33772 5.03728 4.6875 5.46875 4.6875Z" fill="#0B5563"/>
<path d="M8.59375 4.6875C9.02522 4.6875 9.375 4.33772 9.375 3.90625C9.375 3.47478 9.02522 3.125 8.59375 3.125C8.16228 3.125 7.8125 3.47478 7.8125 3.90625C7.8125 4.33772 8.16228 4.6875 8.59375 4.6875Z" fill="#0B5563"/>
<path d="M11.7188 4.6875C12.1502 4.6875 12.5 4.33772 12.5 3.90625C12.5 3.47478 12.1502 3.125 11.7188 3.125C11.2873 3.125 10.9375 3.47478 10.9375 3.90625C10.9375 4.33772 11.2873 4.6875 11.7188 4.6875Z" fill="#0B5563"/>
<path d="M37.5 3.90625C37.5 3.69905 37.4177 3.50034 37.2712 3.35382C37.1247 3.20731 36.926 3.125 36.7188 3.125H14.8438C14.6365 3.125 14.4378 3.20731 14.2913 3.35382C14.1448 3.50034 14.0625 3.69905 14.0625 3.90625C14.0625 4.11345 14.1448 4.31216 14.2913 4.45868C14.4378 4.60519 14.6365 4.6875 14.8438 4.6875H36.7188C36.926 4.6875 37.1247 4.60519 37.2712 4.45868C37.4177 4.31216 37.5 4.11345 37.5 3.90625ZM49.3719 32.8281L48.9336 32.7406C48.6742 32.6891 48.4672 32.5188 48.3656 32.2734C48.2641 32.0281 48.2898 31.7617 48.4375 31.5406L48.6844 31.1695C48.7846 31.0192 48.8296 30.8389 48.8118 30.6591C48.794 30.4793 48.7145 30.3113 48.5867 30.1836L46.3773 27.9742C46.2499 27.8461 46.0818 27.7662 45.9019 27.7484C45.722 27.7306 45.5416 27.7759 45.3914 27.8766L45.0203 28.1234C44.914 28.196 44.7912 28.2406 44.6631 28.2531C44.535 28.2657 44.4059 28.2458 44.2875 28.1953C44.1684 28.147 44.0633 28.0696 43.9817 27.9703C43.9001 27.8709 43.8446 27.7528 43.8203 27.6266L43.7328 27.1891C43.6974 27.012 43.6018 26.8527 43.4622 26.7382C43.3227 26.6237 43.1477 26.561 42.9672 26.5609H39.8422C39.6616 26.5608 39.4865 26.6233 39.3468 26.7378C39.2072 26.8524 39.1117 27.0119 39.0766 27.1891L38.9891 27.6273C38.9649 27.7535 38.9095 27.8717 38.8279 27.9709C38.7463 28.0701 38.641 28.1473 38.5219 28.1953C38.4035 28.2455 38.2743 28.2653 38.1463 28.2527C38.0183 28.2402 37.8955 28.1957 37.7891 28.1234L37.418 27.8766C37.2677 27.7762 37.0873 27.7311 36.9075 27.7489C36.7277 27.7667 36.5597 27.8463 36.432 27.9742L34.2227 30.1836C34.0949 30.3113 34.0154 30.4793 33.9976 30.6591C33.9797 30.8389 34.0248 31.0192 34.125 31.1695L34.3719 31.5406C34.5187 31.7609 34.5453 32.0281 34.4438 32.2734C34.3422 32.5188 34.1352 32.6883 33.875 32.7406L33.4375 32.8281C33.2605 32.8635 33.1011 32.9591 32.9866 33.0987C32.8721 33.2383 32.8095 33.4132 32.8094 33.5938V36.7188C32.8094 37.0914 33.0719 37.4117 33.4375 37.4844L33.8758 37.5719C34.1352 37.6234 34.3422 37.7937 34.4438 38.0391C34.5453 38.2844 34.5195 38.5508 34.3719 38.7719L34.125 39.143C34.0248 39.2933 33.9797 39.4736 33.9976 39.6534C34.0154 39.8332 34.0949 40.0012 34.2227 40.1289L36.432 42.3383C36.5597 42.466 36.7278 42.5456 36.9075 42.5634C37.0873 42.5812 37.2677 42.5362 37.418 42.4359L37.7891 42.1891C37.8954 42.1167 38.0183 42.0722 38.1463 42.0597C38.2743 42.0471 38.4035 42.0669 38.5219 42.1172C38.7664 42.2187 38.9367 42.4258 38.9891 42.6859L39.0766 43.1234C39.1119 43.3005 39.2076 43.4598 39.3471 43.5743C39.4867 43.6888 39.6616 43.7515 39.8422 43.7516H42.9672C43.1478 43.7517 43.3229 43.6892 43.4625 43.5747C43.6022 43.4601 43.6977 43.3006 43.7328 43.1234L43.8203 42.6852C43.8445 42.559 43.8999 42.4408 43.9815 42.3416C44.0631 42.2424 44.1683 42.1652 44.2875 42.1172C44.4059 42.0668 44.535 42.0469 44.6631 42.0595C44.7911 42.072 44.914 42.1166 45.0203 42.1891L45.3914 42.4359C45.5416 42.5366 45.722 42.5819 45.9019 42.5641C46.0818 42.5463 46.2499 42.4664 46.3773 42.3383L48.5867 40.1289C48.7145 40.0012 48.794 39.8332 48.8118 39.6534C48.8296 39.4736 48.7846 39.2933 48.6844 39.143L48.4375 38.7719C48.2906 38.5516 48.2641 38.2844 48.3656 38.0391C48.4672 37.7937 48.6742 37.6242 48.9344 37.5719L49.3719 37.4844C49.5489 37.449 49.7082 37.3534 49.8227 37.2138C49.9373 37.0742 49.9999 36.8993 50 36.7188V33.5938C50.0002 33.4131 49.9377 33.238 49.8231 33.0984C49.7085 32.9588 49.549 32.8632 49.3719 32.8281ZM48.4375 36.0875C47.7555 36.2836 47.1977 36.7789 46.9234 37.4414C46.6492 38.1039 46.693 38.8492 47.0367 39.4711L45.7211 40.7867C45.4131 40.6168 45.0709 40.5184 44.7197 40.4988C44.3685 40.4792 44.0174 40.5388 43.6924 40.6734C43.3674 40.8079 43.0769 41.0139 42.8423 41.276C42.6078 41.5381 42.4353 41.8496 42.3375 42.1875H40.4758C40.3786 41.8495 40.2064 41.5378 39.972 41.2756C39.7376 41.0135 39.447 40.8076 39.1219 40.6734C38.7968 40.5383 38.4455 40.4784 38.0941 40.498C37.7426 40.5176 37.4002 40.6163 37.0922 40.7867L35.7766 39.4711C35.9466 39.1632 36.0452 38.8209 36.0649 38.4696C36.0846 38.1184 36.0249 37.7673 35.8904 37.4422C35.7558 37.1172 35.5498 36.8266 35.2876 36.5921C35.0254 36.3576 34.7137 36.1851 34.3758 36.0875V34.2258C35.0578 34.0297 35.6156 33.5344 35.8898 32.8719C36.1641 32.2094 36.1203 31.4641 35.7766 30.8422L37.0922 29.5266C37.4002 29.6965 37.7424 29.7949 38.0936 29.8145C38.4448 29.8341 38.7959 29.7745 39.1209 29.6399C39.4459 29.5054 39.7364 29.2994 39.9709 29.0373C40.2055 28.7752 40.378 28.4637 40.4758 28.1258H42.3375C42.5336 28.8078 43.0289 29.3656 43.6914 29.6398C44.3539 29.9141 45.0992 29.8711 45.7211 29.5266L47.0367 30.8422C46.8667 31.1501 46.7681 31.4924 46.7484 31.8436C46.7287 32.1949 46.7884 32.546 46.9229 32.871C47.0575 33.1961 47.2635 33.4866 47.5257 33.7212C47.7879 33.9557 48.0995 34.1282 48.4375 34.2258V36.0875Z" fill="#0B5563"/>
<path d="M41.4062 31.25C39.2523 31.25 37.5 33.0023 37.5 35.1562C37.5 37.3102 39.2523 39.0625 41.4062 39.0625C43.5602 39.0625 45.3125 37.3102 45.3125 35.1562C45.3125 33.0023 43.5602 31.25 41.4062 31.25ZM41.4062 37.5C40.1141 37.5 39.0625 36.4484 39.0625 35.1562C39.0625 33.8641 40.1141 32.8125 41.4062 32.8125C42.6984 32.8125 43.75 33.8641 43.75 35.1562C43.75 36.4484 42.6984 37.5 41.4062 37.5ZM30.4688 34.375H2.34375C2.13655 34.375 1.93784 34.2927 1.79132 34.1462C1.64481 33.9997 1.5625 33.801 1.5625 33.5938V2.34375C1.5625 2.13655 1.64481 1.93784 1.79132 1.79132C1.93784 1.64481 2.13655 1.5625 2.34375 1.5625H39.8438C40.051 1.5625 40.2497 1.64481 40.3962 1.79132C40.5427 1.93784 40.625 2.13655 40.625 2.34375V24.2188C40.625 24.426 40.7073 24.6247 40.8538 24.7712C41.0003 24.9177 41.199 25 41.4062 25C41.6135 25 41.8122 24.9177 41.9587 24.7712C42.1052 24.6247 42.1875 24.426 42.1875 24.2188V2.34375C42.1875 1.05156 41.1359 0 39.8438 0H2.34375C1.05156 0 0 1.05156 0 2.34375V33.5938C0 34.8859 1.05156 35.9375 2.34375 35.9375H30.4688C30.676 35.9375 30.8747 35.8552 31.0212 35.7087C31.1677 35.5622 31.25 35.3635 31.25 35.1562C31.25 34.949 31.1677 34.7503 31.0212 34.6038C30.8747 34.4573 30.676 34.375 30.4688 34.375Z" fill="#0B5563"/>
<path d="M14.8438 26.5625H33.5938C33.801 26.5625 33.9997 26.4802 34.1462 26.3337C34.2927 26.1872 34.375 25.9885 34.375 25.7812V24.2188C34.375 16.8953 28.4172 10.9375 21.0938 10.9375C13.7703 10.9375 7.8125 16.8953 7.8125 24.2188V25.7812C7.8125 25.9885 7.89481 26.1872 8.04132 26.3337C8.18784 26.4802 8.38655 26.5625 8.59375 26.5625H11.7188C11.926 26.5625 12.1247 26.4802 12.2712 26.3337C12.4177 26.1872 12.5 25.9885 12.5 25.7812C12.5 25.574 12.4177 25.3753 12.2712 25.2288C12.1247 25.0823 11.926 25 11.7188 25H9.375V24.2188C9.375 17.757 14.632 12.5 21.0938 12.5C27.5555 12.5 32.8125 17.757 32.8125 24.2188V25H24.9211C24.7791 24.3284 24.4616 23.7065 24.0008 23.1977L26.3336 20.8648C26.4061 20.7923 26.4637 20.7062 26.5029 20.6114C26.5422 20.5167 26.5624 20.4151 26.5624 20.3125C26.5624 20.2099 26.5422 20.1083 26.5029 20.0136C26.4637 19.9188 26.4061 19.8327 26.3336 19.7602C26.2611 19.6876 26.1749 19.6301 26.0802 19.5908C25.9854 19.5516 25.8838 19.5314 25.7812 19.5314C25.6787 19.5314 25.5771 19.5516 25.4823 19.5908C25.3876 19.6301 25.3014 19.6876 25.2289 19.7602L22.7383 22.2508C22.2245 22.0058 21.6629 21.8775 21.0938 21.875C20.1938 21.8765 19.3218 22.188 18.6246 22.7572C17.9275 23.3264 17.4478 24.1185 17.2664 25H14.8438C14.6365 25 14.4378 25.0823 14.2913 25.2288C14.1448 25.3753 14.0625 25.574 14.0625 25.7812C14.0625 25.9885 14.1448 26.1872 14.2913 26.3337C14.4378 26.4802 14.6365 26.5625 14.8438 26.5625ZM21.0938 23.4375C22.1109 23.4375 22.9703 24.093 23.2937 25H18.8945C19.0551 24.5444 19.3528 24.1496 19.7467 23.8698C20.1406 23.5901 20.6106 23.439 21.0938 23.4375Z" fill="#0B5563"/>
<path d="M21.094 15.625C25.3058 15.625 28.869 18.6359 29.5683 22.7859C29.6029 22.9901 29.7171 23.1723 29.8858 23.2924C30.0545 23.4124 30.264 23.4607 30.4683 23.4266C30.6726 23.3921 30.8548 23.278 30.9749 23.1092C31.0951 22.9404 31.1433 22.7309 31.1089 22.5266C30.2823 17.6227 26.0706 14.0625 21.094 14.0625C16.1175 14.0625 11.905 17.6227 11.0792 22.5266C11.0622 22.6277 11.0652 22.7312 11.0882 22.8312C11.1112 22.9312 11.1536 23.0257 11.2131 23.1092C11.2726 23.1928 11.348 23.2639 11.4349 23.3183C11.5219 23.3727 11.6187 23.4095 11.7198 23.4266C11.821 23.4436 11.9245 23.4405 12.0245 23.4176C12.1245 23.3946 12.2189 23.3521 12.3025 23.2926C12.3861 23.2332 12.4571 23.1578 12.5116 23.0709C12.566 22.9839 12.6028 22.8871 12.6198 22.7859C12.9533 20.7811 13.9887 18.9601 15.5411 17.6483C17.0934 16.3365 19.0616 15.6193 21.094 15.625Z" fill="#0B5563"/>
</svg>
