<svg width="44" height="36" viewBox="0 0 44 36" fill="none" xmlns="http://www.w3.org/2000/svg">
<path d="M6.71577 27.7562C6.57918 27.7562 6.4426 27.7367 6.31577 27.6977L1.6426 26.4001C1.25236 26.2928 0.930404 26.0391 0.725527 25.6782C0.530405 25.327 0.481624 24.9074 0.588941 24.5172L4.19869 11.9904C4.42308 11.2001 5.26211 10.7318 6.06211 10.9562L10.7353 12.2538C11.1255 12.3611 11.4572 12.6148 11.6523 12.9757C11.8475 13.3367 11.8963 13.7465 11.7889 14.1367L8.17918 26.6635C7.98406 27.3172 7.36942 27.7562 6.71577 27.7562ZM6.56942 26.7611C6.85235 26.8391 7.14503 26.6733 7.23284 26.3904L10.8426 13.8635C10.8816 13.727 10.8621 13.5806 10.7938 13.4538C10.7255 13.327 10.6084 13.2392 10.4719 13.2001L5.79869 11.8928C5.51577 11.8148 5.22308 11.9806 5.13528 12.2635L1.52553 24.7904C1.4865 24.927 1.50601 25.0733 1.57431 25.2001C1.6426 25.3269 1.75967 25.4148 1.89626 25.4538L6.56942 26.7611Z" fill="white"/>
<path d="M7.33996 16.9757C7.19362 16.9757 7.04728 16.9562 6.90094 16.9172C6.48143 16.8001 6.13021 16.527 5.91557 16.1465C5.70094 15.766 5.6424 15.327 5.75948 14.9074C6.00338 14.0392 6.91069 13.5318 7.77899 13.766C8.64728 14.0001 9.15459 14.9172 8.92045 15.7855C8.80338 16.205 8.5302 16.5562 8.14972 16.7709C7.8863 16.9074 7.61313 16.9757 7.33996 16.9757ZM7.33021 14.6733C7.21313 14.6733 7.10582 14.7026 7.00826 14.7611C6.85216 14.8489 6.74484 14.9855 6.69606 15.1611C6.5985 15.5123 6.80338 15.8733 7.1546 15.9709C7.32045 16.0196 7.50582 16.0001 7.66191 15.9123C7.81801 15.8245 7.92533 15.6879 7.97411 15.5123C8.07167 15.1611 7.86679 14.8001 7.51557 14.7026C7.44728 14.6831 7.38874 14.6733 7.33021 14.6733ZM37.2716 27.7562C36.618 27.7562 36.0034 27.3269 35.818 26.6635L32.2082 14.1367C32.1009 13.7465 32.1399 13.3367 32.3448 12.9757C32.5497 12.6148 32.8716 12.3611 33.2619 12.2538L37.9351 10.9562C38.7351 10.7318 39.5643 11.2001 39.7985 11.9904L43.4082 24.5172C43.5155 24.9074 43.4765 25.3172 43.2716 25.6782C43.0765 26.0294 42.7448 26.2928 42.3546 26.4001L37.6814 27.6977C37.5448 27.7367 37.4082 27.7562 37.2716 27.7562ZM38.3351 11.8733C38.2863 11.8733 38.2375 11.8831 38.1887 11.8928L33.5156 13.1904C33.379 13.2294 33.2619 13.3172 33.1936 13.444C33.1253 13.5709 33.1058 13.7172 33.1448 13.8538L36.7546 26.3806C36.8326 26.6635 37.1351 26.8294 37.418 26.7513L42.0912 25.4538C42.2277 25.4148 42.3448 25.3269 42.4131 25.2001C42.4814 25.0733 42.5009 24.927 42.4619 24.7904L38.8521 12.2635C38.7838 12.0294 38.5594 11.8733 38.3351 11.8733Z" fill="white"/>
<path d="M36.6186 16.9756C35.9064 16.9756 35.243 16.4976 35.0381 15.7756C34.921 15.3561 34.9796 14.9171 35.1844 14.5366C35.3991 14.1561 35.7503 13.883 36.1698 13.7659C37.0381 13.522 37.9454 14.0391 38.1893 14.9073C38.4332 15.7756 37.9161 16.683 37.0479 16.9269C36.9113 16.9561 36.7649 16.9756 36.6186 16.9756ZM36.6186 14.6732C36.5601 14.6732 36.5015 14.683 36.443 14.7025C36.2771 14.7512 36.1308 14.8586 36.043 15.0147C35.9552 15.1708 35.9357 15.3464 35.9844 15.5122C36.0332 15.6781 36.1405 15.8244 36.2966 15.9122C36.4527 16 36.6283 16.0195 36.7942 15.9708C37.1454 15.8732 37.3503 15.5122 37.2527 15.161C37.1747 14.8683 36.9113 14.6732 36.6186 14.6732ZM31.5064 27.8147C31.243 27.8147 31.0283 27.6098 31.0186 27.3464C31.0088 27.0732 31.2137 26.8488 31.4869 26.839C31.5161 26.839 33.9259 26.7317 35.8088 25.4244C36.0332 25.2683 36.3357 25.3268 36.4918 25.5512C36.6479 25.7756 36.5893 26.0781 36.3649 26.2342C34.2381 27.7073 31.6332 27.8147 31.5259 27.8147H31.5064ZM9.49665 27.2488C9.36983 27.2488 9.243 27.2 9.15519 27.1025L7.71129 25.6586C7.52592 25.4634 7.52592 25.161 7.71129 24.9659C7.89666 24.7707 8.20885 24.7707 8.40397 24.9659L9.84787 26.4098C10.0332 26.6049 10.0332 26.9073 9.84787 27.1025C9.75031 27.2 9.62348 27.2488 9.49665 27.2488ZM19.0771 36C18.443 36 17.7991 35.7561 17.321 35.2683L16.4918 34.439C16.3064 34.2439 16.3064 33.9415 16.4918 33.7464C16.6771 33.5512 16.9893 33.5512 17.1845 33.7464L18.0137 34.5756C18.5991 35.161 19.5649 35.161 20.1503 34.5756C20.4332 34.2927 20.5893 33.9122 20.5893 33.5122C20.5893 33.3171 20.5503 33.122 20.482 32.9464C20.404 32.761 20.2966 32.5951 20.1503 32.4488C19.9649 32.2537 19.9649 31.9512 20.1503 31.7561C20.3357 31.561 20.6479 31.561 20.843 31.7561L22.6966 33.6098C23.282 34.1951 24.2479 34.1951 24.8332 33.6098C25.1162 33.3268 25.2723 32.9464 25.2723 32.5366C25.2723 32.1268 25.1162 31.7561 24.8332 31.4634C24.6381 31.2683 24.6381 30.9659 24.8332 30.7707C25.0284 30.5756 25.3308 30.5756 25.5259 30.7707C25.9942 31.239 26.2576 31.8634 26.2576 32.5268C26.2576 33.1903 26.004 33.8146 25.5259 34.2829C24.5601 35.2488 22.9796 35.2488 22.0137 34.2829L21.5552 33.8244C21.4869 34.361 21.243 34.8683 20.843 35.2585C20.3454 35.7561 19.7113 36 19.0771 36Z" fill="white"/>
<path d="M27.3887 33.0049C26.7546 33.0049 26.1204 32.761 25.6326 32.2732L21.0863 27.7269C20.9009 27.5318 20.9009 27.2293 21.0863 27.0342C21.2717 26.8391 21.5839 26.8391 21.779 27.0342L26.3253 31.5805C26.9107 32.1659 27.8765 32.1659 28.4619 31.5805C29.0473 30.9952 29.0473 30.0293 28.4619 29.444L23.9156 24.8976C23.7204 24.7025 23.7204 24.4001 23.9156 24.2049C24.1107 24.0098 24.4131 24.0098 24.6082 24.2049L29.1546 28.7513C30.1204 29.7171 30.1204 31.2976 29.1546 32.2635C28.6668 32.7708 28.0229 33.0049 27.3887 33.0049Z" fill="white"/>
<path d="M29.5355 29.5025C28.872 29.5025 28.2477 29.2489 27.7794 28.7708C27.5842 28.5757 27.5842 28.2733 27.7794 28.0782C27.9745 27.883 28.2769 27.883 28.472 28.0782C28.755 28.3611 29.1355 28.5172 29.5452 28.5172C29.955 28.5172 30.3257 28.3611 30.6184 28.0782C30.8428 27.8538 30.9891 27.5611 31.0379 27.2489C31.0477 27.1708 31.0574 27.0928 31.0574 27.005C31.0574 26.605 30.9013 26.2245 30.6184 25.9318L23.3891 18.7026C22.8623 18.1757 22.0916 17.9806 21.3794 18.1757C21.0086 18.283 20.6867 18.4782 20.4233 18.7611L18.1599 21.2196C18.1501 21.2196 18.1501 21.2294 18.1501 21.2294C17.0867 22.2928 15.3696 22.2928 14.3062 21.2294C13.4574 20.3806 13.2623 19.0928 13.8282 18.0294C14.5501 16.6733 15.7989 14.8001 17.6525 13.6391C17.6623 13.6391 17.6623 13.6294 17.6721 13.6294C19.194 12.6733 20.8623 12.3611 22.6281 12.6733C22.8916 12.7123 26.5696 13.2782 29.4574 15.2489L32.5794 13.9026C32.8233 13.7952 33.1159 13.9123 33.2233 14.1562C33.3306 14.4001 33.2135 14.6928 32.9696 14.8001L29.594 16.2538C29.4379 16.3221 29.2525 16.3026 29.1159 16.205C26.355 14.2148 22.5208 13.6391 22.4818 13.6391H22.4623C20.9306 13.3562 19.4867 13.6391 18.1794 14.4684C18.1696 14.4684 18.1696 14.4782 18.1599 14.4782C16.5013 15.5318 15.3599 17.2391 14.6964 18.4879C14.3355 19.1708 14.4623 19.9904 14.9989 20.5367C15.6721 21.2099 16.7745 21.2196 17.4574 20.5465L19.7013 18.1074C20.0818 17.6977 20.5696 17.3952 21.1062 17.2391C22.1599 16.9465 23.3013 17.2391 24.072 18.0099L31.3013 25.2391C31.7696 25.7074 32.033 26.3318 32.033 26.9952C32.033 27.1318 32.0233 27.2684 32.0037 27.3952C31.9257 27.9123 31.6818 28.3806 31.3111 28.7611C30.8233 29.2391 30.1989 29.5025 29.5355 29.5025Z" fill="white"/>
<path d="M11.1354 15.1707C10.9111 15.1707 10.7159 15.0146 10.6574 14.7902C10.5989 14.5268 10.7647 14.2634 11.0281 14.2049C14.1989 13.4829 17.7696 13.5707 17.9257 13.5805C18.1891 13.5902 18.4037 13.8049 18.4037 14.0683C18.4037 14.3414 18.1793 14.5658 17.9062 14.5561C17.7598 14.5561 14.3062 14.4585 11.2525 15.161C11.2037 15.161 11.1745 15.1707 11.1354 15.1707ZM10.6281 29.1902C10.1501 29.1902 9.7013 29.0048 9.35984 28.6634C9.01837 28.3219 8.83301 27.8731 8.83301 27.3951C8.83301 26.917 9.01837 26.4683 9.35984 26.1268L10.9013 24.5853C11.594 23.8927 12.7354 23.8927 13.4281 24.5853C13.7696 24.9268 13.955 25.3756 13.955 25.8536C13.955 26.3317 13.7696 26.7805 13.4281 27.1219C13.2428 27.317 12.9306 27.317 12.7354 27.1219C12.5501 26.9268 12.5501 26.6244 12.7354 26.4292C12.8915 26.2731 12.9696 26.0683 12.9696 25.8536C12.9696 25.639 12.8818 25.4341 12.7354 25.278C12.4135 24.9561 11.9062 24.9561 11.5842 25.278L10.0428 26.8195C9.88667 26.9756 9.80862 27.1805 9.80862 27.3951C9.80862 27.6097 9.89642 27.8146 10.0428 27.9707C10.1989 28.1268 10.4037 28.2048 10.6184 28.2048C10.833 28.2048 11.0379 28.117 11.194 27.9707C11.3793 27.7756 11.6915 27.7756 11.8867 27.9707C12.072 28.1658 12.072 28.4683 11.8867 28.6634C11.555 29.0048 11.1062 29.1902 10.6281 29.1902Z" fill="white"/>
<path d="M11.926 31.5805C11.4674 31.5805 11.0089 31.4049 10.6577 31.0537C10.3162 30.7122 10.1309 30.2634 10.1309 29.7854C10.1309 29.3073 10.3162 28.8586 10.6577 28.5171L12.7455 26.4293C13.4382 25.7366 14.5796 25.7366 15.2723 26.4293C15.6138 26.7708 15.7991 27.2195 15.7991 27.6976C15.7991 28.1756 15.6138 28.6244 15.2723 28.9659C15.087 29.161 14.7748 29.161 14.5796 28.9659C14.3943 28.7708 14.3943 28.4683 14.5796 28.2732C14.7357 28.1171 14.8138 27.9122 14.8138 27.6976C14.8138 27.483 14.726 27.2781 14.5796 27.122C14.2577 26.8 13.7406 26.8 13.4284 27.122L11.3504 29.2195C11.1943 29.3756 11.1162 29.5805 11.1162 29.7952C11.1162 30.0098 11.204 30.2147 11.3504 30.3708C11.6723 30.6927 12.1796 30.6927 12.5016 30.3708C12.687 30.1756 12.9992 30.1756 13.1943 30.3708C13.3894 30.5659 13.3796 30.8683 13.1943 31.0634C12.8431 31.4049 12.3845 31.5805 11.926 31.5805Z" fill="white"/>
<path d="M13.1545 34.0294C12.6764 34.0294 12.2277 33.844 11.8862 33.5026C11.5447 33.1611 11.3594 32.7123 11.3594 32.2343C11.3594 31.7562 11.5447 31.3074 11.8862 30.966L14.5789 28.2733C15.2716 27.5806 16.413 27.5806 17.1057 28.2733C17.4472 28.6148 17.6325 29.0635 17.6325 29.5416C17.6325 30.0196 17.4472 30.4684 17.1057 30.8099L14.413 33.5026C14.0813 33.844 13.6325 34.0294 13.1545 34.0294ZM15.8569 28.7318C15.6521 28.7318 15.4374 28.8099 15.2813 28.966L12.5789 31.6587C12.4228 31.8148 12.3447 32.0196 12.3447 32.2343C12.3447 32.4489 12.4325 32.6538 12.5789 32.8099C12.735 32.966 12.9399 33.044 13.1545 33.044C13.3691 33.044 13.574 32.9562 13.7301 32.8099L16.4228 30.1172C16.5789 29.9611 16.6569 29.7562 16.6569 29.5416C16.6569 29.327 16.5691 29.1221 16.4228 28.966C16.2667 28.8099 16.0618 28.7318 15.8569 28.7318Z" fill="white"/>
<path d="M15.7785 35.0829C15.3005 35.0829 14.8517 34.8975 14.5102 34.5561C14.1688 34.2146 13.9834 33.7658 13.9834 33.2878C13.9834 32.8097 14.1688 32.3609 14.5102 32.0195C14.6956 31.8244 15.0078 31.8244 15.2029 32.0195C15.3883 32.2146 15.3883 32.517 15.2029 32.7122C15.0468 32.8683 14.9688 33.0731 14.9688 33.2878C14.9688 33.5024 15.0566 33.7073 15.2029 33.8634C15.359 34.0195 15.5639 34.0975 15.7785 34.0975C15.9932 34.0975 16.198 34.0097 16.3541 33.8634L18.2663 31.9512C18.5883 31.6292 18.5883 31.1219 18.2663 30.8C17.9444 30.478 17.4371 30.478 17.1151 30.8C16.9297 30.9951 16.6175 30.9951 16.4224 30.8C16.2371 30.6049 16.2371 30.3024 16.4224 30.1073C17.1151 29.4146 18.2566 29.4146 18.9492 30.1073C19.6419 30.8 19.6419 31.9414 18.9492 32.6341L17.0371 34.5463C16.7053 34.8975 16.2566 35.0829 15.7785 35.0829ZM26.9297 14.9366C26.8322 14.9366 26.7249 14.9073 26.637 14.839C26.4224 14.6732 26.3834 14.3707 26.5395 14.1561C27.9444 12.3122 28.6761 10.0878 28.6761 7.75609V3.60975L21.9931 1.01463L15.3102 3.60975V7.75609C15.3102 9.9317 15.9541 12.0195 17.1834 13.7854C17.3395 14.0097 17.281 14.3122 17.0566 14.4683C16.8322 14.6244 16.5297 14.5658 16.3736 14.3415C15.0371 12.4097 14.3249 10.1268 14.3249 7.75609V3.27805C14.3249 3.07317 14.4517 2.89756 14.6371 2.81951L21.8078 0.0292683C21.9249 -0.00975609 22.0517 -0.00975609 22.159 0.0292683L29.3297 2.81951C29.5151 2.89756 29.6419 3.07317 29.6419 3.27805V7.75609C29.6419 10.3122 28.8322 12.7219 27.3005 14.7512C27.2224 14.878 27.0761 14.9366 26.9297 14.9366Z" fill="white"/>
<path d="M24.4223 14.0683C24.3052 14.0683 24.1881 14.0293 24.0905 13.9415C23.8954 13.7561 23.8759 13.4537 24.0613 13.2488C25.4369 11.7464 26.1979 9.79515 26.1979 7.75613V5.31711L21.993 3.67809L17.7881 5.31711V7.75613C17.7881 9.69759 18.4808 11.5805 19.7491 13.0537C19.9247 13.2586 19.9052 13.5708 19.7003 13.7464C19.4954 13.922 19.1832 13.9025 19.0076 13.6976C17.5915 12.0457 16.8129 9.94172 16.8125 7.76589V4.97565C16.8125 4.77077 16.9393 4.59516 17.1247 4.51711L21.8174 2.69272C21.9344 2.6537 22.0613 2.6537 22.1686 2.69272L26.8613 4.51711C27.0466 4.59516 27.1735 4.77077 27.1735 4.97565V7.75613C27.1735 10.0391 26.3247 12.2244 24.7832 13.9122C24.6759 14.0195 24.5491 14.0683 24.4223 14.0683Z" fill="white"/>
<path d="M21.0368 10.9464C20.9099 10.9464 20.7831 10.8976 20.6953 10.8001L19.3392 9.44397C19.1539 9.25861 19.1539 8.94641 19.3392 8.75129C19.5246 8.56593 19.8368 8.56593 20.0319 8.75129L21.0465 9.76593L23.9734 6.8391C24.1685 6.65373 24.4709 6.65373 24.666 6.8391C24.8612 7.02446 24.8612 7.33666 24.666 7.53178L21.3978 10.8001C21.2904 10.8976 21.1636 10.9464 21.0368 10.9464Z" fill="white"/>
</svg>
