<?xml version="1.0" encoding="utf-8"?>
<!-- Generator: Adobe Illustrator 25.4.1, SVG Export Plug-In . SVG Version: 6.00 Build 0)  -->
<svg version="1.1" id="Layer_1" xmlns="http://www.w3.org/2000/svg" xmlns:xlink="http://www.w3.org/1999/xlink" x="0px" y="0px"
	 viewBox="0 0 408.46 408.68" style="enable-background:new 0 0 408.46 408.68;" xml:space="preserve">
<style type="text/css">
	.st0{fill:#3B64C4;}
</style>
<g>
	<path d="M208.85,408.68c-15.62-6.67-31.23-13.34-46.86-20c-6.23-2.65-12.5-5.23-18.72-7.92c-4.39-1.9-6.01-5.12-4.57-8.78
		c1.26-3.19,4.98-4.28,9.26-2.49c19.84,8.31,39.64,16.73,59.53,24.92c1.65,0.68,4.19,0.61,5.79-0.19
		c39.64-19.66,79.21-39.44,118.76-59.28c1.72-0.86,3.34-2.2,4.6-3.66c16.79-19.42,33.52-38.9,50.25-58.37
		c4.46-5.19,8.49-10.59,8.8-17.85c0.48-11.16-11.35-21.75-22.26-19.29c-3.1,0.7-6.3,3.02-8.45,5.47
		c-19.37,22.12-38.55,44.39-57.66,66.73c-2.69,3.14-5.52,5.01-9.76,5.18c-4.61,0.18-9.2,1-13.99,1.56
		c-0.72,7.34-3.1,13.92-8.04,19.24c-8.56,9.23-19.19,12.94-31.44,9.75c-22.1-5.76-44.08-11.97-66.09-18.06
		c-4.14-1.15-6.01-4.21-5.13-7.71c0.9-3.58,4.48-5.28,9.06-4.05c11.66,3.14,23.29,6.4,34.94,9.6c9.73,2.68,19.42,5.47,29.19,7.98
		c9.39,2.42,17.92-1.05,22.4-8.76c4.34-7.46,3.4-16.72-2.58-22.86c-1.72-1.77-3.86-3.38-6.12-4.33
		c-39.2-16.5-78.83-31.81-120.2-42.11c-35.98-8.96-70.56-4.54-103.21,12.66c-9.04,4.76-16.7,12.12-25.1,18.15
		c-1.72,1.24-3.97,2.72-5.8,2.52c-1.81-0.2-4.35-2.12-4.83-3.79c-0.55-1.87,0.15-5.01,1.52-6.38c4.69-4.68,9.61-9.25,14.99-13.08
		C38.68,248.21,63,240.69,89.1,237.66c26.18-3.03,50.99,2.69,75.7,10.01c34.05,10.09,67.16,22.75,99.75,36.78
		c2.76,1.19,4.06,0.73,5.89-1.41c13.46-15.62,27.37-30.86,40.52-46.73c11.83-14.27,28.96-12.24,40.29-3.95
		c0.95,0.69,1.88,1.4,2.97,2.21c4.54-4.77,9.15-8.98,15.75-10.51c16.2-3.75,35.03,8.65,37.71,25.08c0.17,1.03,0.51,2.03,0.77,3.04
		c0,1.06,0,2.13,0,3.19c-1.28,8.86-4.69,16.71-10.58,23.54c-17.96,20.83-35.8,41.77-53.8,62.57c-1.5,1.73-3.7,3.02-5.79,4.07
		c-40.69,20.41-81.42,40.75-122.13,61.12c-1.15,0.58-2.22,1.33-3.33,1.99C211.51,408.68,210.18,408.68,208.85,408.68z M345.6,243.95
		c-7.09-7.33-17.56-8.13-23.46-1.49c-14.55,16.38-28.87,32.97-43.2,49.55c-0.67,0.77-1.03,2.49-0.64,3.37
		c2.93,6.71,3,6.69,10.25,6.19c1.59-0.11,3.17-0.49,4.75-0.46c2.92,0.04,4.78-1.36,6.59-3.57c7.07-8.63,14.32-17.11,21.57-25.59
		C329.47,262.57,337.56,253.27,345.6,243.95z"/>
	<path d="M293.88,203.47c6.77-0.97,13.21-1.89,19.65-2.8c1.45-0.2,2.9-0.43,4.35-0.53c4.19-0.29,6.97,1.55,7.48,4.89
		c0.53,3.42-1.82,6.25-6.1,6.96c-5.38,0.89-10.79,1.56-16.18,2.32c-8.69,1.22-17.36,2.55-26.07,3.62c-5.79,0.71-8.26-1.56-8.27-7.3
		c-0.05-13.84-0.03-27.67,0-41.51c0.01-4.76,2.16-7.44,5.85-7.51c3.84-0.07,6.08,2.69,6.1,7.68c0.03,9.55,0.01,19.1,0.01,28.64
		c0.34,0.2,0.67,0.4,1.01,0.6c4.42-5.5,9.3-10.7,13.18-16.56c33.45-50.42,20.43-117.01-29.41-151.28
		c-40.83-28.08-97.19-24.27-133.96,9.27c-26.7,24.36-38.54,54.9-35.92,90.79c3.08,42.05,33.32,80.29,73.23,93.54
		c1.64,0.54,3.31,1.02,4.9,1.67c3.64,1.48,5.15,4.3,4.15,7.52c-1.04,3.34-4.3,5.17-7.98,3.69c-8.97-3.61-18.33-6.7-26.58-11.59
		c-32.49-19.29-52.76-47.75-58.5-85.14c-6.45-42.02,5.98-78.53,37.03-107.79c26.64-25.1,48.85-35.67,85.21-31.91
		c33.76,3.5,71.43,19.02,92.42,45.7c20.34,25.86,28.59,55.47,25.12,88.18c-2.57,24.18-11.8,45.63-27.51,64.25
		c-0.94,1.12-1.88,2.24-2.8,3.38C294.15,202.44,294.13,202.73,293.88,203.47z"/>
	<path class="st0" d="M198.42,165.43c-6.05,0-11.61,0.05-17.16-0.03c-1.7-0.02-3.94,0.2-4.98-0.74c-1.58-1.43-3.3-3.86-3.14-5.7
		c0.16-1.81,2.3-4.31,4.11-4.91c2.78-0.93,6.02-0.58,9.06-0.62c5.72-0.07,11.44,0.06,17.15-0.05c8.27-0.16,14.06-5.67,14.02-13.18
		c-0.04-7.29-5.75-12.91-13.75-13.14c-6.26-0.18-12.45-0.03-18.17-3.32c-9.2-5.28-14.34-15.95-12.44-26.39s10.41-18.65,20.96-20.23
		c1.31-0.2,2.61-0.44,4.02-0.68c0.97-4.83-1.82-12.42,6.36-12.29c7.58,0.13,5.36,7.36,6.14,12.46c3.84,0,7.53-0.05,11.22,0.01
		c4.88,0.08,7.77,2.51,7.61,6.27c-0.16,3.64-2.84,5.68-7.66,5.7c-7.98,0.05-15.97-0.18-23.94,0.1c-7.94,0.29-13.25,6.14-13.02,13.71
		c0.23,7.25,5.81,12.35,13.7,12.59c2.92,0.09,5.85,0.11,8.75,0.46c12.09,1.47,20.51,10.18,22.04,22.63
		c1.3,10.59-5.37,21.47-15.89,25.48c-2.4,0.91-3.38,2.02-3.11,4.56c0.18,1.69,0.1,3.48-0.26,5.15c-0.71,3.3-2.88,5.05-6.32,4.74
		c-3.24-0.29-5.02-2.28-5.27-5.47C198.29,170.47,198.42,168.34,198.42,165.43z"/>
	<path class="st0" d="M48.32,345.31c12.76,0,25.52-0.09,38.27,0.07c2.57,0.03,5.27,0.65,7.67,1.59c7.16,2.8,14.23,5.86,21.3,8.88
		c4.44,1.9,6.24,5.01,4.93,8.22c-1.57,3.82-5.04,4.91-9.71,3.06c-0.25-0.1-0.5-0.18-0.73-0.31c-14.57-8.21-30.2-10.21-46.76-9.47
		c-18.04,0.8-36.14,0.19-54.21,0.17c-1.45,0-2.95,0.01-4.35-0.29c-2.97-0.64-4.67-2.71-4.72-5.64c-0.05-2.93,1.57-5.1,4.51-5.81
		c1.65-0.4,3.42-0.45,5.14-0.45C22.54,345.29,35.43,345.31,48.32,345.31z"/>
</g>
</svg>
