<svg width="49" height="49" viewBox="0 0 49 49" fill="none" xmlns="http://www.w3.org/2000/svg">
<path d="M17.4162 27.5727L13.51 31.479C13.3635 31.6255 13.2812 31.8242 13.2812 32.0313C13.2812 32.2385 13.3635 32.4372 13.51 32.5837L15.8537 34.9274C16.0002 35.0739 16.1989 35.1562 16.4061 35.1562C16.6132 35.1562 16.8119 35.0739 16.9584 34.9274L20.8647 31.0212C21.0111 30.8747 21.0934 30.676 21.0934 30.4688C21.0934 30.2617 21.0111 30.063 20.8647 29.9165L18.5209 27.5727C18.3744 27.4263 18.1757 27.344 17.9686 27.344C17.7614 27.344 17.5627 27.4263 17.4162 27.5727ZM16.4061 33.2704L15.167 32.0313L17.9686 29.2298L19.2076 30.4688L16.4061 33.2704ZM30.4686 21.0938C30.6758 21.0938 30.8744 21.0114 31.0209 20.8649L34.9272 16.9587C35.0736 16.8122 35.1559 16.6135 35.1559 16.4063C35.1559 16.1992 35.0736 16.0005 34.9272 15.854L32.5834 13.5102C32.4369 13.3638 32.2382 13.2815 32.0311 13.2815C31.8239 13.2815 31.6252 13.3638 31.4787 13.5102L27.5725 17.4165C27.426 17.563 27.3438 17.7617 27.3438 17.9688C27.3438 18.176 27.426 18.3747 27.5725 18.5212L29.9162 20.8649C30.0627 21.0114 30.2614 21.0938 30.4686 21.0938ZM32.0311 15.1673L33.2701 16.4063L30.4686 19.2079L29.2295 17.9688L32.0311 15.1673Z" fill="#0B5563"/>
<path d="M24.2188 0C19.4287 0 14.7463 1.4204 10.7635 4.0816C6.78079 6.74279 3.67661 10.5252 1.84355 14.9506C0.0104936 19.376 -0.469118 24.2456 0.465367 28.9436C1.39985 33.6416 3.70647 37.9569 7.09352 41.344C10.4806 44.731 14.7959 47.0377 19.4939 47.9721C24.1919 48.9066 29.0615 48.427 33.4869 46.594C37.9123 44.7609 41.6947 41.6567 44.3559 37.674C47.0171 33.6912 48.4375 29.0088 48.4375 24.2188C48.4301 17.7978 45.8761 11.642 41.3358 7.10173C36.7955 2.56144 30.6397 0.0074436 24.2188 0ZM45.8125 17.3641L31.0734 2.625C34.5267 3.72991 37.666 5.64397 40.2298 8.20775C42.7935 10.7715 44.7076 13.9108 45.8125 17.3641ZM42.1875 24.2188C42.2004 27.9068 41.0663 31.5077 38.9422 34.5227L34.4024 29.9836L42.0789 22.307C42.1487 22.9419 42.185 23.58 42.1875 24.2188ZM33.2977 28.8789L32.193 27.7742L41.4453 18.5211C41.5918 18.3746 41.6741 18.1759 41.6741 17.9688C41.6741 17.7616 41.5918 17.5629 41.4453 17.4164L31.0211 6.99219C30.8746 6.84573 30.6759 6.76345 30.4688 6.76345C30.2616 6.76345 30.0629 6.84573 29.9164 6.99219L20.6633 16.2445L19.5586 15.1398L30.4688 4.22969L44.2078 17.9688L33.2977 28.8789ZM24.7891 20.3703C25.6158 20.4924 26.3813 20.8774 26.9723 21.4683C27.5632 22.0593 27.9482 22.8248 28.0703 23.6516L24.7891 20.3703ZM24.2188 18.75C23.8981 18.7534 23.5784 18.7847 23.2633 18.8438L21.7688 17.3492L30.4688 8.64922L39.7883 17.9688L31.0883 26.6688L29.5938 25.1742C29.7423 24.3871 29.7145 23.5768 29.5124 22.8017C29.3102 22.0266 28.9388 21.306 28.4248 20.6916C27.9108 20.0773 27.2669 19.5845 26.5397 19.2488C25.8124 18.913 25.0198 18.7427 24.2188 18.75ZM13.9149 9.49531C16.9299 7.37122 20.5307 6.2371 24.2188 6.25C24.8575 6.25253 25.4956 6.28878 26.1305 6.35859L18.4539 14.0352L13.9149 9.49531ZM2.62501 31.0734L17.3641 45.8125C13.9108 44.7076 10.7715 42.7935 8.20776 40.2297C5.64398 37.666 3.72992 34.5267 2.62501 31.0734ZM6.25001 24.2188C6.23703 20.5306 7.37145 16.9296 9.4961 13.9148L14.0352 18.4539L6.3586 26.1305C6.28879 25.4956 6.25254 24.8575 6.25001 24.2188ZM15.1399 19.5586L16.2445 20.6633L6.9922 29.9164C6.84574 30.0629 6.76346 30.2616 6.76346 30.4688C6.76346 30.6759 6.84574 30.8746 6.9922 31.0211L17.4164 41.4453C17.5629 41.5918 17.7616 41.6741 17.9688 41.6741C18.1759 41.6741 18.3746 41.5918 18.5211 41.4453L27.7742 32.193L28.8789 33.2977L17.9688 44.2078L4.2297 30.4688L15.1399 19.5586ZM23.6484 28.0672C22.8217 27.9451 22.0562 27.5601 21.4652 26.9692C20.8743 26.3782 20.4893 25.6127 20.3672 24.7859L23.6484 28.0672ZM24.2188 29.6875C24.5394 29.6842 24.8591 29.6528 25.1742 29.5938L26.6688 31.0883L17.9688 39.7883L8.64923 30.4688L17.3492 21.7688L18.8438 23.2633C18.6952 24.0504 18.723 24.8607 18.9252 25.6358C19.1273 26.4109 19.4987 27.1315 20.0128 27.7459C20.5268 28.3602 21.1706 28.853 21.8978 29.1887C22.6251 29.5245 23.4178 29.6948 24.2188 29.6875ZM34.5227 38.9422C31.5077 41.0663 27.9068 42.2004 24.2188 42.1875C23.5801 42.185 22.9419 42.1487 22.307 42.0789L29.9836 34.4023L34.5227 38.9422ZM24.2188 46.875C22.1789 46.8745 20.1484 46.5977 18.1828 46.0523C18.3098 46.02 18.4263 45.9554 18.5211 45.8648L20.9195 43.4672C22.0094 43.6538 23.113 43.7484 24.2188 43.75C28.5583 43.7648 32.7768 42.3199 36.1961 39.6477C36.284 39.5796 36.3563 39.4937 36.4084 39.3955C36.4604 39.2973 36.4908 39.1891 36.4977 39.0782C36.5046 38.9672 36.4877 38.8561 36.4482 38.7523C36.4088 38.6484 36.3476 38.5541 36.2688 38.4758L9.95939 12.1688C9.88129 12.0901 9.78726 12.0292 9.68363 11.99C9.58 11.9508 9.46917 11.9342 9.3586 11.9414C9.24794 11.9482 9.14 11.9785 9.04193 12.0302C8.94387 12.0819 8.85794 12.1539 8.78986 12.2414C6.11761 15.6607 4.67274 19.8792 4.68751 24.2188C4.68897 25.3245 4.78384 26.4282 4.9711 27.518L2.57267 29.9164C2.48213 30.0112 2.41755 30.1277 2.38517 30.2547C1.3146 26.3925 1.28829 22.3153 2.30893 18.4396C3.32958 14.5639 5.3606 11.0285 8.19458 8.19456C11.0285 5.36059 14.5639 3.32957 18.4396 2.30892C22.3153 1.28828 26.3925 1.31459 30.2547 2.38516C30.1277 2.41754 30.0112 2.48212 29.9164 2.57266L27.518 4.97031C26.4281 4.7837 25.3245 4.68909 24.2188 4.6875C19.8792 4.67273 15.6607 6.1176 12.2414 8.78984C12.1535 8.85786 12.0812 8.94384 12.0292 9.04204C11.9772 9.14025 11.9467 9.24842 11.9398 9.35933C11.9329 9.47025 11.9498 9.58135 11.9893 9.68523C12.0288 9.78911 12.09 9.88337 12.1688 9.96172L38.4781 36.2687C38.6246 36.4153 38.8233 36.4976 39.0305 36.4977H39.0797C39.1902 36.4908 39.298 36.4604 39.3959 36.4087C39.4939 36.357 39.5797 36.2851 39.6477 36.1977C42.3202 32.778 43.7651 28.5589 43.75 24.2188C43.7484 23.113 43.6538 22.0094 43.4672 20.9195L45.8649 18.5211C45.9554 18.4263 46.02 18.3098 46.0524 18.1828C46.9848 21.5467 47.1268 25.0807 46.4674 28.5086C45.808 31.9366 44.365 35.1656 42.2511 37.9436C40.1372 40.7215 37.4097 42.9731 34.2816 44.5224C31.1535 46.0718 27.7095 46.8769 24.2188 46.875Z" fill="#0B5563"/>
</svg>
