<svg width="50" height="47" viewBox="0 0 50 47" fill="none" xmlns="http://www.w3.org/2000/svg">
<path d="M5.90551 4.92126C5.90551 5.46486 5.46486 5.90551 4.92126 5.90551C4.37766 5.90551 3.93701 5.46486 3.93701 4.92126C3.93701 4.37766 4.37766 3.93701 4.92126 3.93701C5.46486 3.93701 5.90551 4.37766 5.90551 4.92126ZM10.3346 4.92126C10.3346 5.46486 9.894 5.90551 9.35039 5.90551C8.80679 5.90551 8.36614 5.46486 8.36614 4.92126C8.36614 4.37766 8.80679 3.93701 9.35039 3.93701C9.894 3.93701 10.3346 4.37766 10.3346 4.92126ZM14.7638 4.92126C14.7638 5.46486 14.3231 5.90551 13.7795 5.90551C13.2359 5.90551 12.7953 5.46486 12.7953 4.92126C12.7953 4.37766 13.2359 3.93701 13.7795 3.93701C14.3231 3.93701 14.7638 4.37766 14.7638 4.92126ZM21.1614 35.0394C20.618 35.0394 20.1772 35.4813 20.1772 36.0236C20.1772 36.5659 20.618 37.0079 21.1614 37.0079C21.7037 37.0079 22.1457 36.5659 22.1457 36.0236C22.1457 35.4813 21.7037 35.0394 21.1614 35.0394ZM19.685 12.7953V27.2638C19.685 27.8073 19.2443 28.248 18.7008 28.248H4.92126C4.37776 28.248 3.93701 27.8073 3.93701 27.2638V12.7953C3.93701 12.2518 4.37776 11.811 4.92126 11.811H18.7008C19.2443 11.811 19.685 12.2518 19.685 12.7953ZM17.7165 13.7795H5.90551V26.2795H17.7165V13.7795ZM22.6378 14.4685H32.7756C33.3191 14.4685 33.7598 14.0278 33.7598 13.4843C33.7598 12.9407 33.3191 12.5 32.7756 12.5H22.6378C22.0943 12.5 21.6535 12.9407 21.6535 13.4843C21.6535 14.0278 22.0943 14.4685 22.6378 14.4685ZM22.6378 18.4055H30.8071C31.3506 18.4055 31.7913 17.9648 31.7913 17.4213C31.7913 16.8778 31.3506 16.437 30.8071 16.437H22.6378C22.0943 16.437 21.6535 16.8778 21.6535 17.4213C21.6535 17.9648 22.0943 18.4055 22.6378 18.4055ZM4.92126 30.2165C4.37776 30.2165 3.93701 30.6573 3.93701 31.2008C3.93701 31.7443 4.37776 32.185 4.92126 32.185H11.811C12.3545 32.185 12.7953 31.7443 12.7953 31.2008C12.7953 30.6573 12.3545 30.2165 11.811 30.2165H4.92126ZM44.6683 28.3425C44.1988 29.6732 44.2008 31.1467 44.6683 32.4842C44.8533 33.0138 45.4439 33.312 46.0433 33.0472L47.1594 32.5276C48.4793 31.9154 50 32.7913 50 34.2923V38.4843C50 39.5715 49.1187 40.4528 48.0315 40.4528H42.4695L43.0157 41.6211C43.8091 43.3071 42.8773 45.1291 41.311 45.6624C39.5003 46.2789 37.6143 46.2852 35.8541 45.662C34.2952 45.11 33.3566 43.3071 34.1491 41.6215L34.6957 40.4527L29.1339 40.4528C28.0484 40.4528 27.1654 39.5697 27.1654 38.4843V37.0079H25.5906C25.0471 37.0079 24.6063 36.5659 24.6063 36.0236C24.6063 35.4813 25.0471 35.0394 25.5906 35.0394H27.1654V34.2927C27.1654 32.7914 28.6862 31.9152 30.0055 32.5272L31.1219 33.0469C31.7216 33.3122 32.3121 33.0137 32.497 32.4844C32.9645 31.147 32.9661 29.6736 32.497 28.3422C32.3298 27.8675 31.7437 27.4987 31.149 27.7671L29.965 28.3186C28.6862 28.8926 27.1654 28.0417 27.1654 26.4892V22.3425C27.1654 21.2553 28.0467 20.374 29.1339 20.374H34.6957L34.1491 19.2053C33.2836 17.1514 34.6083 15.6191 35.8541 15.1647C37.9286 14.4082 39.7717 14.7634 40.3543 14.8916V9.84252H1.9685V35.0394H16.697C17.2206 35.0394 17.6787 35.4331 17.7143 35.9553C17.7532 36.5283 17.2972 37.0079 16.7324 37.0079H0.984252C0.44065 37.0079 0 36.5672 0 36.0236V2.95276C0 1.32195 1.32195 0 2.95276 0H39.3701C41.0009 0 42.3228 1.32195 42.3228 2.95276V15.7784C43.127 16.5076 43.6407 17.7235 43.0157 19.2057L42.4695 20.374H48.0315C49.1187 20.374 50 21.2553 50 22.3425V26.4892C50 28.0413 48.4793 28.8927 47.2008 28.3189L46.0167 27.7667C45.4213 27.499 44.8356 27.8671 44.6683 28.3425ZM40.3543 7.87402V2.95276C40.3543 2.41004 39.9128 1.9685 39.3701 1.9685H2.95276C2.41004 1.9685 1.9685 2.41004 1.9685 2.95276V7.87402H40.3543ZM42.812 27.686C43.4695 25.8258 45.5266 25.3297 46.8474 25.9823L48.0315 26.5344V22.3425H42.4695C40.9321 22.3425 40.1083 20.7372 40.687 19.5404L41.2333 18.3711C41.4941 17.7421 41.1483 17.2029 40.6575 17.0217C39.3574 16.5418 37.7667 16.5704 36.5076 17.0216C36.0154 17.1979 35.6712 17.742 35.9323 18.3715L36.4788 19.5402C37.0571 20.7376 36.2332 22.3426 34.6957 22.3426H29.1339V26.5342L30.3179 25.9827C31.6389 25.3302 33.6964 25.8256 34.3529 27.6858C34.9738 29.4453 34.9838 31.3852 34.3529 33.1411C33.8487 34.5442 32.1786 35.6618 30.3179 34.8442L29.134 34.2928L29.1339 38.4843H34.6957C36.23 38.4843 37.0619 40.0876 36.4788 41.2866L35.9323 42.4553C35.6522 43.0658 36.0335 43.6615 36.5076 43.8052C37.9445 44.2405 39.0812 44.2977 40.6575 43.8052C41.1307 43.6573 41.5128 43.066 41.2333 42.4558L40.687 41.2865C40.1033 40.0877 40.935 38.4843 42.4695 38.4843H48.0315V34.2924L46.8474 34.8446C44.9862 35.6615 43.3169 34.5444 42.812 33.1408C42.1811 31.3848 42.1919 29.4449 42.812 27.686Z" fill="#0B5563"/>
</svg>
