<?xml version="1.0" encoding="utf-8"?>
<!-- Generator: Adobe Illustrator 25.4.1, SVG Export Plug-In . SVG Version: 6.00 Build 0)  -->
<svg version="1.1" id="Layer_1" xmlns="http://www.w3.org/2000/svg" xmlns:xlink="http://www.w3.org/1999/xlink" x="0px" y="0px"
	 viewBox="0 0 430.1 336.3" style="enable-background:new 0 0 430.1 336.3;" xml:space="preserve">
<style type="text/css">
	.st0{fill:none;stroke:#404A63;stroke-width:3;stroke-miterlimit:10;}
	.st1{fill:#404A63;}
	.st2{fill:none;stroke:#3B64C4;stroke-width:4;stroke-miterlimit:10;}
	.st3{fill:#3B64C4;}
	.st4{fill:#3B64C4;stroke:#3B64C4;stroke-width:2;stroke-miterlimit:10;}
</style>
<desc>Created with Fabric.js 4.2.0</desc>
<g id="a3b9c5fe-1a07-45aa-90b4-c332306b0ce9" transform="matrix(1 0 0 1 540 540)">
</g>
<circle class="st0" cx="48.6" cy="44" r="17.6"/>
<circle class="st0" cx="102.3" cy="44.1" r="17.6"/>
<circle class="st0" cx="156.4" cy="44.1" r="17.6"/>
<path class="st0" d="M395.1,61.7H243.3c-3.9,0-7-3.2-7-7V31.6c0-3.9,3.2-7,7-7h151.8c3.9,0,7,3.2,7,7v23.1
	C402.2,58.5,399,61.7,395.1,61.7z"/>
<path class="st0" d="M420.7,333.7H11.9c-5.2,0-9.4-4.2-9.4-9.4v-312C2.5,7.2,6.7,3,11.9,3h408.8c5.2,0,9.4,4.2,9.4,9.4v312
	C430.1,329.5,425.9,333.7,420.7,333.7z"/>
<rect x="2.6" y="80.9" class="st1" width="427.6" height="3.5"/>
<path class="st2" d="M304.8,260.7l34.3-0.9c4.1-0.1,7.2-3.6,6.9-7.7c-2.4-28.2-19.1-126.7-138-129.7c0,0-77.7-0.8-115.1,73.7
	c-0.1,0.2-0.2,0.3-0.2,0.5c-1.7,4.1-24.2,58.7-8.3,64.2c0.7,0.2,1.4,0.3,2.2,0.3l24.8-0.4c3.3,0,6.2-2.4,6.9-5.6
	c4.6-21.9,27-100.7,110.5-86.8c0,0,67.2,6.6,77.1,92.4"/>
<polyline class="st3" points="100.5,183 136.9,207.5 131.3,214.3 97.9,189.5 "/>
<polyline class="st3" points="322.3,178.2 288.3,207.2 283.4,199.8 316.8,173.9 "/>
<polyline class="st3" points="156.2,133.4 180.1,171.1 172.1,174.9 151.1,138.2 "/>
<polyline class="st3" points="256.5,129.9 241.2,172 233.3,167.9 249.5,128.9 "/>
<path class="st4" d="M242.4,221.8c-3.2-2.2-7.2-2.3-10.4-0.2l-29.8,19.3c-9.2,4-15.7,13.3-15.7,23.9c0,14.4,11.7,26.1,26.1,26.1
	c14.1,0,25.5-11.2,26.1-25.1l7.5-34.4C247,227.8,245.5,224,242.4,221.8z M211.8,288.1c-12.8,0-23.2-10.4-23.2-23.2
	c0-12.8,10.4-23.2,23.2-23.2c12.8,0,23.2,10.4,23.2,23.2C235,277.7,224.6,288.1,211.8,288.1z M238.3,254.9c-1.4-2.6-3.5-5-5.8-7.1
	l0,0.2c-0.3-0.3-0.5-0.6-0.8-0.9c-7.1-6-16.2-9.4-16.2-9.4l20.8-12.9l7,3.3L238.3,254.9z"/>
</svg>
