<?xml version="1.0" encoding="utf-8"?>
<!-- Generator: Adobe Illustrator 25.4.1, SVG Export Plug-In . SVG Version: 6.00 Build 0)  -->
<svg version="1.1" id="Layer_1" xmlns="http://www.w3.org/2000/svg" xmlns:xlink="http://www.w3.org/1999/xlink" x="0px" y="0px"
	 viewBox="0 0 433.3 392.2" style="enable-background:new 0 0 433.3 392.2;" xml:space="preserve">
<style type="text/css">
	.st0{display:none;}
	.st1{fill:#404A63;}
	.st2{fill:#3B64C4;}
</style>
<desc>Created with Fabric.js 4.2.0</desc>
<g id="a3b9c5fe-1a07-45aa-90b4-c332306b0ce9" transform="matrix(1 0 0 1 540 540)" class="st0">
</g>
<g>
	<g transform="matrix(1.14 0 0 1.14 0 -7.85)">
		<path vector-effect="non-scaling-stroke" class="st1" d="M349.2,299.7H31c-17.1,0-31-13.9-31-31V77.3c0-17.1,13.9-31,31-31h135.7
			c2.4,0,4.3,1.9,4.3,4.3c0,2.4-1.9,4.3-4.3,4.3H31C18.6,55,8.6,65,8.6,77.3v191.4c0,12.4,10.1,22.4,22.4,22.4h318.2
			c12.4,0,22.4-10.1,22.4-22.4V77.3c0-12.4-10.1-22.4-22.4-22.4c-2.4,0-4.3-1.9-4.3-4.3c0-2.4,1.9-4.3,4.3-4.3c17.1,0,31,13.9,31,31
			v191.4C380.1,285.7,366.2,299.7,349.2,299.7z"/>
	</g>
	<g transform="matrix(1.14 0 0 1.14 0.06 188.07)">
		<path vector-effect="non-scaling-stroke" class="st1" d="M156.2,179.1c-0.7,0-1.4-0.2-2-0.5c-2.1-1.1-2.9-3.7-1.8-5.8
			c8.3-15.8,8.3-31,0-47.7c-1-2.2-0.2-4.7,1.9-5.8c2.2-1,4.7-0.2,5.8,1.9c9.5,19.1,9.5,37.3,0,55.6
			C159.2,178.2,157.8,179.1,156.2,179.1z M223.8,179.1c-1.5,0-3-0.9-3.8-2.3c-9.6-18.2-9.6-36.4,0-55.6c1-2.2,3.6-3,5.8-1.9
			c2.2,1,3,3.6,1.9,5.8c-8.3,16.7-8.3,31.8,0,47.7c1.1,2.1,0.3,4.7-1.8,5.8C225.2,178.9,224.5,179.1,223.8,179.1z"/>
	</g>
	<g transform="matrix(1.14 0 0 1.14 0 222.26)">
		<path vector-effect="non-scaling-stroke" class="st1" d="M244.3,149.1H135.8c-2.4,0-4.3-1.9-4.3-4.3c0-2.4,1.9-4.3,4.3-4.3h108.5
			c2.4,0,4.3,1.9,4.3,4.3C248.6,147.2,246.7,149.1,244.3,149.1z"/>
	</g>
	<g transform="matrix(1.14 0 0 1.14 89.77 -169.7)">
		<path vector-effect="non-scaling-stroke" class="st1" d="M179,236.9c-53.6,0-95.5-19.4-95.5-44s42-44,95.5-44s95.5,19.3,95.5,43.9
			S232.6,236.9,179,236.9z M179,157.4c-23.7,0-46,4-62.7,11.3c-15.4,6.7-24.2,15.5-24.2,24.2s8.9,17.5,24.2,24.2
			c16.8,7.3,39,11.3,62.7,11.3s46-4,62.7-11.4c15.4-6.7,24.2-15.5,24.2-24.2s-8.9-17.5-24.2-24.2C225,161.4,202.8,157.4,179,157.4z"
			/>
	</g>
	<g transform="matrix(1.14 0 0 1.14 89.77 -79.13)">
		<path vector-effect="non-scaling-stroke" class="st1" d="M179,205.9c-53.6,0-95.5-19.4-95.5-44c0-2.4,1.9-4.3,4.3-4.3
			s4.3,1.9,4.3,4.3c0,17.1,34.9,35.4,86.9,35.4s87-18.3,87-35.4c0-2.4,1.9-4.3,4.3-4.3s4.3,1.9,4.3,4.3
			C274.6,186.6,232.6,205.9,179,205.9z"/>
	</g>
	<g transform="matrix(1.14 0 0 1.14 89.77 -14.73)">
		<path vector-effect="non-scaling-stroke" class="st1" d="M179,198c-53.6,0-95.5-19.4-95.5-44c0-2.4,1.9-4.3,4.3-4.3
			s4.3,1.9,4.3,4.3c0,17.1,34.9,35.4,86.9,35.4s87-18.3,87-35.4c0-2.4,1.9-4.3,4.3-4.3s4.3,1.9,4.3,4.3
			C274.6,178.7,232.6,198,179,198z"/>
	</g>
	<g transform="matrix(1.14 0 0 1.14 -30.95 -105.42)">
		<path vector-effect="non-scaling-stroke" class="st1" d="M193.9,238c-2.4,0-4.3-1.9-4.3-4.3v-97.4c0-2.4,1.9-4.3,4.3-4.3
			c2.4,0,4.3,1.9,4.3,4.3v97.4C198.2,236,196.3,238,193.9,238z"/>
	</g>
	<g transform="matrix(1.14 0 0 1.14 210.49 -105.42)">
		<path vector-effect="non-scaling-stroke" class="st1" d="M164.2,238c-2.4,0-4.3-1.9-4.3-4.3v-97.4c0-2.4,1.9-4.3,4.3-4.3
			s4.3,1.9,4.3,4.3v97.4C168.5,236,166.5,238,164.2,238z"/>
	</g>
	<g>
		<g transform="matrix(1.14 0 0 1.14 -184.18 -31.12)">
			<path vector-effect="non-scaling-stroke" class="st2" d="M227.7,204.7c-0.9,0-1.9-0.3-2.8-0.9l-30-24.5c-1-0.8-1.5-2.1-1.5-3.4
				c0-1.3,0.6-2.5,1.5-3.4l30-24.5c1.8-1.5,4.6-1.2,6,0.6c1.5,1.8,1.2,4.6-0.6,6l-26,21.2l26,21.2c1.8,1.5,2.1,4.2,0.6,6
				C230.2,204.2,228.9,204.7,227.7,204.7z"/>
		</g>
		<g transform="matrix(1.14 0 0 1.14 -72.84 -31.14)">
			<path vector-effect="non-scaling-stroke" class="st2" d="M184.1,204.7c-1.2,0-2.5-0.5-3.4-1.5c-1.5-1.8-1.2-4.6,0.6-6l25.9-21.2
				l-25.9-21.2c-1.8-1.5-2.1-4.2-0.6-6s4.2-2.2,6-0.6l30,24.5c1,0.8,1.5,2.1,1.5,3.4c0,1.3-0.6,2.5-1.5,3.4l-30,24.5
				C186,204.4,185,204.7,184.1,204.7z"/>
		</g>
		<g transform="matrix(1.14 0 0 1.14 -128.46 -31.18)">
			<path vector-effect="non-scaling-stroke" class="st2" d="M198.2,208.8c-0.3,0-0.8-0.1-1.1-0.2c-2.3-0.6-3.7-3-3-5.2l15.3-57.2
				c0.6-2.3,3-3.7,5.2-3c2.3,0.6,3.7,3,3,5.2l-15.3,57.2C201.8,207.5,200.1,208.8,198.2,208.8z"/>
		</g>
	</g>
	<g transform="matrix(1.14 0 0 1.14 -155.19 56.38)">
		<path vector-effect="non-scaling-stroke" class="st1" d="M244.1,169.4h-70c-2.4,0-4.3-1.9-4.3-4.3c0-2.4,1.9-4.3,4.3-4.3h70
			c2.4,0,4.3,1.9,4.3,4.3C248.4,167.5,246.4,169.4,244.1,169.4z"/>
	</g>
	<g transform="matrix(1.14 0 0 1.14 -59.51 56.38)">
		<path vector-effect="non-scaling-stroke" class="st1" d="M210.1,169.4h-25.5c-2.4,0-4.3-1.9-4.3-4.3c0-2.4,1.9-4.3,4.3-4.3h25.5
			c2.4,0,4.3,1.9,4.3,4.3C214.4,167.5,212.5,169.4,210.1,169.4z"/>
	</g>
	<g transform="matrix(1.14 0 0 1.14 36.3 56.38)">
		<path vector-effect="non-scaling-stroke" class="st1" d="M198.3,169.4h-25.5c-2.4,0-4.3-1.9-4.3-4.3c0-2.4,1.9-4.3,4.3-4.3h25.5
			c2.4,0,4.3,1.9,4.3,4.3S200.7,169.4,198.3,169.4z"/>
	</g>
	<g transform="matrix(1.14 0 0 1.14 144.73 56.38)">
		<path vector-effect="non-scaling-stroke" class="st1" d="M216.7,169.4h-89c-2.4,0-4.3-1.9-4.3-4.3c0-2.4,1.9-4.3,4.3-4.3h89.1
			c2.4,0,4.3,1.9,4.3,4.3C221.1,167.5,219.2,169.4,216.7,169.4z"/>
	</g>
	<g transform="matrix(1.14 0 0 1.14 -168.28 98.25)">
		<path vector-effect="non-scaling-stroke" class="st1" d="M235.8,164.3h-50.2c-2.4,0-4.3-1.9-4.3-4.3c0-2.4,1.9-4.3,4.3-4.3h50.2
			c2.4,0,4.3,1.9,4.3,4.3C240.1,162.4,238.2,164.3,235.8,164.3z"/>
	</g>
	<g transform="matrix(1.14 0 0 1.14 -18.55 98.25)">
		<path vector-effect="non-scaling-stroke" class="st1" d="M253.7,164.3H130.9c-2.4,0-4.3-1.9-4.3-4.3c0-2.4,1.9-4.3,4.3-4.3h122.8
			c2.4,0,4.3,1.9,4.3,4.3C258,162.4,256.2,164.3,253.7,164.3z"/>
	</g>
	<g transform="matrix(1.14 0 0 1.14 119.92 98.25)">
		<path vector-effect="non-scaling-stroke" class="st2" d="M186.4,164.3h-22.2c-2.4,0-4.3-1.9-4.3-4.3c0-2.4,1.9-4.3,4.3-4.3h22.2
			c2.4,0,4.3,1.9,4.3,4.3C190.7,162.4,188.7,164.3,186.4,164.3z"/>
	</g>
	<g transform="matrix(1.14 0 0 1.14 189.33 98.25)">
		<path vector-effect="non-scaling-stroke" class="st2" d="M177.9,164.3h-22.2c-2.4,0-4.3-1.9-4.3-4.3c0-2.4,1.9-4.3,4.3-4.3h22.2
			c2.4,0,4.3,1.9,4.3,4.3C182.2,162.4,180.2,164.3,177.9,164.3z"/>
	</g>
	<g transform="matrix(1.14 0 0 1.14 -99.5 -114.06)">
		<path vector-effect="non-scaling-stroke" class="st1" d="M226.8,190.4h-49.1c-2.4,0-4.3-1.9-4.3-4.3c0-2.4,1.9-4.3,4.3-4.3h49.1
			c2.4,0,4.3,1.9,4.3,4.3C231.1,188.5,229.2,190.4,226.8,190.4z"/>
	</g>
	<g transform="matrix(1.14 0 0 1.14 -184.38 -114.06)">
		<path vector-effect="non-scaling-stroke" class="st1" d="M225.6,190.4h-25.8c-2.4,0-4.3-1.9-4.3-4.3c0-2.4,1.9-4.3,4.3-4.3h25.9
			c2.4,0,4.3,1.9,4.3,4.3C229.9,188.5,228,190.4,225.6,190.4z"/>
	</g>
</g>
</svg>
