<svg width="40" height="40" viewBox="0 0 40 40" fill="none" xmlns="http://www.w3.org/2000/svg">
<path d="M37.2977 38.9189H10.308C9.87793 38.9189 9.46546 38.7481 9.16135 38.444C8.85723 38.1399 8.68639 37.7274 8.68639 37.2973V28.027C7.97116 28.4733 7.15423 28.7304 6.31236 28.7742C5.47048 28.818 4.63129 28.647 3.87362 28.2774C3.11595 27.9078 2.46469 27.3516 1.981 26.6612C1.49732 25.9707 1.1971 25.1686 1.10855 24.3303C1.03393 23.636 1.10639 22.9337 1.32119 22.2692C1.536 21.6048 1.88834 20.993 2.35528 20.4737C2.82222 19.9545 3.39328 19.5394 4.03129 19.2555C4.6693 18.9716 5.35995 18.8252 6.05828 18.826C6.98732 18.8274 7.89752 19.0882 8.68639 19.5789V10.3076C8.68639 9.8775 8.85723 9.46504 9.16135 9.16092C9.46546 8.85681 9.87793 8.68596 10.308 8.68596H19.5783C19.132 7.9707 18.8749 7.15373 18.8312 6.31181C18.7874 5.46989 18.9584 4.63067 19.3281 3.87299C19.6978 3.11531 20.254 2.46405 20.9445 1.9804C21.635 1.49675 22.4372 1.19659 23.2756 1.10812C23.9699 1.03359 24.6721 1.1061 25.3365 1.32095C26.0009 1.53579 26.6126 1.88815 27.1318 2.35508C27.651 2.82201 28.066 3.39304 28.3499 4.03101C28.6337 4.66898 28.7801 5.35958 28.7794 6.05785C28.7779 6.9869 28.5171 7.8971 28.0264 8.68596H37.2977C37.7278 8.68596 38.1403 8.85681 38.4444 9.16092C38.7485 9.46504 38.9194 9.8775 38.9194 10.3076V20.7027C38.9198 20.8105 38.888 20.916 38.828 21.0056C38.768 21.0952 38.6826 21.1648 38.5828 21.2054C38.483 21.2461 38.3732 21.256 38.2677 21.2339C38.1622 21.2117 38.0657 21.1585 37.9907 21.0811C37.4494 20.527 36.7553 20.1468 35.997 19.989C35.2386 19.8312 34.4504 19.903 33.7331 20.1953C33.0157 20.4875 32.4018 20.9869 31.9695 21.6297C31.5373 22.2725 31.3065 23.0295 31.3065 23.8041C31.3065 24.5787 31.5373 25.3357 31.9695 25.9785C32.4018 26.6213 33.0157 27.1206 33.7331 27.4129C34.4504 27.7051 35.2386 27.7769 35.997 27.6191C36.7553 27.4613 37.4494 27.0811 37.9907 26.527C38.0657 26.4496 38.1622 26.3964 38.2677 26.3743C38.3732 26.3521 38.483 26.362 38.5828 26.4027C38.6826 26.4434 38.768 26.513 38.828 26.6026C38.888 26.6921 38.9198 26.7976 38.9194 26.9054V37.2973C38.9194 37.7274 38.7485 38.1399 38.4444 38.444C38.1403 38.7481 37.7278 38.9189 37.2977 38.9189ZM9.22693 26.3611C9.37029 26.3611 9.50777 26.418 9.60915 26.5194C9.71052 26.6208 9.76747 26.7583 9.76747 26.9016V37.2973C9.76747 37.4407 9.82442 37.5782 9.92579 37.6795C10.0272 37.7809 10.1646 37.8379 10.308 37.8379H37.2977C37.4411 37.8379 37.5786 37.7809 37.68 37.6795C37.7813 37.5782 37.8383 37.4407 37.8383 37.2973V28.027C37.1231 28.4733 36.3061 28.7304 35.4643 28.7742C34.6224 28.818 33.7832 28.647 33.0255 28.2774C32.2678 27.9078 31.6166 27.3516 31.1329 26.6612C30.6492 25.9707 30.349 25.1686 30.2604 24.3303C30.1858 23.636 30.2583 22.9337 30.4731 22.2692C30.6879 21.6048 31.0402 20.993 31.5072 20.4737C31.9741 19.9545 32.5452 19.5394 33.1832 19.2555C33.8212 18.9716 34.5118 18.8252 35.2102 18.826C36.1392 18.8275 37.0494 19.0883 37.8383 19.5789V10.3076C37.8383 10.1642 37.7813 10.0267 37.68 9.92536C37.5786 9.82399 37.4411 9.76704 37.2977 9.76704H26.9021C26.7943 9.76747 26.6888 9.73565 26.5992 9.67568C26.5096 9.6157 26.44 9.53031 26.3993 9.43047C26.3587 9.33063 26.3488 9.22091 26.3709 9.11541C26.3931 9.0099 26.4463 8.91343 26.5237 8.83839C27.0778 8.29712 27.458 7.603 27.6158 6.84465C27.7736 6.0863 27.7017 5.29813 27.4095 4.58078C27.1173 3.86342 26.6179 3.24944 25.9751 2.81721C25.3323 2.38499 24.5753 2.15414 23.8007 2.15414C23.0261 2.15414 22.2691 2.38499 21.6263 2.81721C20.9835 3.24944 20.4841 3.86342 20.1919 4.58078C19.8997 5.29813 19.8279 6.0863 19.9857 6.84465C20.1434 7.603 20.5236 8.29712 21.0777 8.83839C21.1551 8.91343 21.2083 9.0099 21.2305 9.11541C21.2527 9.22091 21.2428 9.33063 21.2021 9.43047C21.1614 9.53031 21.0918 9.6157 21.0022 9.67568C20.9126 9.73565 20.8072 9.76747 20.6994 9.76704H10.308C10.1646 9.76704 10.0272 9.82399 9.92579 9.92536C9.82442 10.0267 9.76747 10.1642 9.76747 10.3076V20.7027C9.76789 20.8105 9.73608 20.916 9.6761 21.0056C9.61612 21.0952 9.53073 21.1648 9.43089 21.2054C9.33106 21.2461 9.22133 21.256 9.11583 21.2339C9.01032 21.2117 8.91386 21.1585 8.83882 21.0811C8.29755 20.527 7.60343 20.1468 6.84507 19.989C6.08672 19.8312 5.29855 19.903 4.5812 20.1953C3.86385 20.4875 3.24986 20.9869 2.81764 21.6297C2.38541 22.2725 2.15457 23.0295 2.15457 23.8041C2.15457 24.5787 2.38541 25.3357 2.81764 25.9785C3.24986 26.6213 3.86385 27.1206 4.5812 27.4129C5.29855 27.7051 6.08672 27.7769 6.84507 27.6191C7.60343 27.4613 8.29755 27.0811 8.83882 26.527C8.88907 26.4748 8.94933 26.4331 9.016 26.4046C9.08268 26.3761 9.15441 26.3613 9.22693 26.3611Z" fill="white"/>
</svg>
