<svg width="405" height="370" viewBox="0 0 405 370" fill="none" xmlns="http://www.w3.org/2000/svg">
<path d="M55.0986 167.557H48.7031V369.993H55.0986V167.557Z" fill="#263238"/>
<path opacity="0.5" d="M55.0973 167.553H48.707V370H55.0973V167.553Z" fill="white"/>
<path opacity="0.2" d="M55.0973 168.837V216.725L48.707 214.42V168.837H55.0973Z" fill="black"/>
<path d="M85.9177 136.477H17.8848V201.207H85.9177V136.477Z" fill="#5B5B5B"/>
<path d="M82.483 140.098V197.585H21.3183V140.098H82.483ZM83.858 138.723H82.483H21.3183H19.9434V140.098V197.585V198.96H21.3183H82.483H83.858V197.585V140.098V138.723Z" fill="white"/>
<path d="M58.4081 170.186H45.3958V182.623H38.2656L51.9013 194.594L65.5382 182.623H58.4081V170.186Z" fill="white"/>
<path d="M102.223 263.61C97.756 264.073 82.9077 265.197 77.7588 259.393C76.5423 258.021 75.2774 255.813 76.1691 252.246C77.2796 247.805 80.5913 245.608 85.257 245.608C85.2596 245.608 85.2609 245.608 85.2635 245.608C91.3578 245.608 99.4413 249.766 103.621 254.797C106.379 250.007 111.784 242.735 119.902 243.565C125.791 244.155 130.242 248.638 129.823 253.562C129.596 256.219 127.115 264.556 104.974 263.536L103.319 267.892L102.223 263.61ZM85.2661 250.541C85.2661 250.541 85.2635 250.541 85.2609 250.541C82.8449 250.541 81.5171 251.282 80.954 253.533C80.5572 255.119 81.0103 255.627 81.449 256.121C84.1989 259.22 93.9742 259.661 100.702 259.07C98.2431 255.133 90.6546 250.541 85.2661 250.541ZM106.959 258.674C120.646 259.017 124.726 255.319 124.912 253.145C125.077 251.215 122.761 248.807 119.414 248.472C119.156 248.446 118.9 248.434 118.647 248.434C112.761 248.434 108.646 255.267 106.959 258.674Z" fill="#263238"/>
<g opacity="0.7">
<path d="M102.223 263.61C97.756 264.073 82.9077 265.197 77.7588 259.393C76.5423 258.021 75.2774 255.813 76.1691 252.246C77.2796 247.805 80.5913 245.608 85.257 245.608C85.2596 245.608 85.2609 245.608 85.2635 245.608C91.3578 245.608 99.4413 249.766 103.621 254.797C106.379 250.007 111.784 242.735 119.902 243.565C125.791 244.155 130.242 248.638 129.823 253.562C129.596 256.219 127.115 264.556 104.974 263.536L103.319 267.892L102.223 263.61ZM85.2661 250.541C85.2661 250.541 85.2635 250.541 85.2609 250.541C82.8449 250.541 81.5171 251.282 80.954 253.533C80.5572 255.119 81.0103 255.627 81.449 256.121C84.1989 259.22 93.9742 259.661 100.702 259.07C98.2431 255.133 90.6546 250.541 85.2661 250.541ZM106.959 258.674C120.646 259.017 124.726 255.319 124.912 253.145C125.077 251.215 122.761 248.807 119.414 248.472C119.156 248.446 118.9 248.434 118.647 248.434C112.761 248.434 108.646 255.267 106.959 258.674Z" fill="white"/>
</g>
<path d="M55.7531 326.966H151.85V260.951H55.7531L55.7531 326.966Z" fill="#5B5B5B"/>
<path opacity="0.2" d="M55.7531 326.966H151.85V260.951H55.7531L55.7531 326.966Z" fill="white"/>
<path opacity="0.2" d="M55.7531 326.966H151.85V283.76H55.7531V326.966Z" fill="black"/>
<path d="M80.0001 326.966H87.8086L87.8086 260.951H80.0001L80.0001 326.966Z" fill="#263238"/>
<path opacity="0.2" d="M113.666 326.966H151.85V260.951H113.666V326.966Z" fill="black"/>
<path d="M132.621 326.966H138.355V260.951H132.621V326.966Z" fill="#263238"/>
<path opacity="0.8" d="M80.0001 326.966H87.8086L87.8086 260.951H80.0001L80.0001 326.966Z" fill="white"/>
<path opacity="0.7" d="M132.621 326.966H138.355V260.951H132.621V326.966Z" fill="white"/>
<path d="M58.0966 292.604C58.0939 292.602 58.0913 292.601 58.0887 292.601C54.8425 291.428 26.3206 280.858 24.7204 270.753C24.3512 268.424 25.3306 266.338 27.6314 264.551C30.0919 262.637 32.8327 262.034 35.7725 262.74C42.1745 264.29 48.4365 272.026 52.9346 279.014C50.5238 270.577 48.6499 260.282 51.9459 255.514C53.2999 253.558 55.3296 252.632 58.0285 252.687C60.7469 252.772 62.8251 253.883 64.204 255.983C67.7095 261.327 65.6614 272.42 63.2887 280.882C68.4768 272.671 75.8008 262.813 80.8907 263.253C82.1884 263.354 83.9615 264.128 85.0392 267.224C86.0318 270.069 85.8183 272.944 84.408 275.764C79.2709 286.033 59.6967 292.353 58.8652 292.616C58.8626 292.616 58.86 292.619 58.8587 292.619C58.7408 292.656 58.6203 292.672 58.5025 292.672C58.3611 292.671 58.2288 292.653 58.0966 292.604ZM61.0966 289.256C66.7208 287.096 78.6947 281.8 82.2526 274.685C83.3775 272.439 83.5438 270.256 82.7633 268.017C81.975 265.757 81.0151 265.68 80.6996 265.656C80.6433 265.651 80.5856 265.65 80.528 265.65C76.0169 265.648 66.8609 279.09 61.0966 289.256ZM29.1085 266.452C27.5332 267.678 26.8758 268.963 27.0984 270.378C28.1513 277.025 46.2942 285.429 56.0472 289.256C52.7172 282.842 43.7996 267.161 35.2042 265.081C34.5992 264.936 34.0125 264.863 33.4403 264.863C31.9069 264.863 30.4769 265.389 29.1085 266.452ZM53.9259 256.884C50.0786 262.451 55.1541 279.263 58.4711 288.105C61.5248 279.508 66.07 263.218 62.1887 257.304C61.2524 255.877 59.8657 255.154 57.9512 255.095C57.8687 255.093 57.7888 255.09 57.709 255.09C55.9975 255.091 54.7587 255.681 53.9259 256.884Z" fill="#263238"/>
<g opacity="0.3">
<path d="M58.0966 292.604C58.0939 292.602 58.0913 292.601 58.0887 292.601C54.8425 291.428 26.3206 280.858 24.7204 270.753C24.3512 268.424 25.3306 266.338 27.6314 264.551C30.0919 262.637 32.8327 262.034 35.7725 262.74C42.1745 264.29 48.4365 272.026 52.9346 279.014C50.5238 270.577 48.6499 260.282 51.9459 255.514C53.2999 253.558 55.3296 252.632 58.0285 252.687C60.7469 252.772 62.8251 253.883 64.204 255.983C67.7095 261.327 65.6614 272.42 63.2887 280.882C68.4768 272.671 75.8008 262.813 80.8907 263.253C82.1884 263.354 83.9615 264.128 85.0392 267.224C86.0318 270.069 85.8183 272.944 84.408 275.764C79.2709 286.033 59.6967 292.353 58.8652 292.616C58.8626 292.616 58.86 292.619 58.8587 292.619C58.7408 292.656 58.6203 292.672 58.5025 292.672C58.3611 292.671 58.2288 292.653 58.0966 292.604ZM61.0966 289.256C66.7208 287.096 78.6947 281.8 82.2526 274.685C83.3775 272.439 83.5438 270.256 82.7633 268.017C81.975 265.757 81.0151 265.68 80.6996 265.656C80.6433 265.651 80.5856 265.65 80.528 265.65C76.0169 265.648 66.8609 279.09 61.0966 289.256ZM29.1085 266.452C27.5332 267.678 26.8758 268.963 27.0984 270.378C28.1513 277.025 46.2942 285.429 56.0472 289.256C52.7172 282.842 43.7996 267.161 35.2042 265.081C34.5992 264.936 34.0125 264.863 33.4403 264.863C31.9069 264.863 30.4769 265.389 29.1085 266.452ZM53.9259 256.884C50.0786 262.451 55.1541 279.263 58.4711 288.105C61.5248 279.508 66.07 263.218 62.1887 257.304C61.2524 255.877 59.8657 255.154 57.9512 255.095C57.8687 255.093 57.7888 255.09 57.709 255.09C55.9975 255.091 54.7587 255.681 53.9259 256.884Z" fill="black"/>
</g>
<path d="M119.678 287.785H0V370H119.678V287.785Z" fill="#5B5B5B"/>
<path opacity="0.6" d="M119.678 287.785H0V370H119.678V287.785Z" fill="white"/>
<path opacity="0.1" d="M119.678 316.191H0V369.999H119.678V316.191Z" fill="black"/>
<path opacity="0.2" d="M47.5526 287.785H0V370H47.5526V287.785Z" fill="white"/>
<path d="M89.4801 287.785H79.7559V370H89.4801V287.785Z" fill="#263238"/>
<path d="M23.9447 287.785H16.8027V370H23.9447V287.785Z" fill="#263238"/>
<path opacity="0.2" d="M89.4801 287.785H79.7559V370H89.4801V287.785Z" fill="black"/>
<path opacity="0.1" d="M23.9447 287.785H16.8027V370H23.9447V287.785Z" fill="black"/>
<path d="M132.105 306.643C127.639 307.107 112.791 308.23 107.642 302.428C106.425 301.056 105.16 298.848 106.052 295.281C107.162 290.84 110.475 288.643 115.141 288.643C115.144 288.643 115.145 288.643 115.148 288.643C121.242 288.643 129.325 292.801 133.505 297.832C136.263 293.042 141.669 285.769 149.786 286.6C155.675 287.189 160.126 291.673 159.707 296.597C159.48 299.254 156.999 307.593 134.858 306.571L133.203 310.926L132.105 306.643ZM115.148 293.573C115.148 293.573 115.145 293.573 115.142 293.573C112.726 293.573 111.399 294.314 110.835 296.565C110.439 298.151 110.892 298.659 111.33 299.153C114.08 302.252 123.856 302.694 130.584 302.102C128.126 298.167 120.537 293.573 115.148 293.573ZM136.841 301.708C150.527 302.052 154.608 298.353 154.794 296.179C154.959 294.249 152.642 291.841 149.295 291.505C149.037 291.479 148.783 291.468 148.529 291.468C142.643 291.468 138.527 298.3 136.841 301.708Z" fill="#5B5B5B"/>
<path d="M85.6359 370H181.732V303.985H85.6359L85.6359 370Z" fill="#263238"/>
<path opacity="0.5" d="M85.6359 370H181.732V303.985H85.6359L85.6359 370Z" fill="white"/>
<path opacity="0.2" d="M85.6359 370H181.732V326.794H85.6359V370Z" fill="black"/>
<path d="M109.885 370H117.693L117.693 303.985H109.885L109.885 370Z" fill="#5B5B5B"/>
<path d="M162.508 370H168.242V303.985H162.508V370Z" fill="#5B5B5B"/>
<path opacity="0.2" d="M143.549 370H181.732V303.985H143.549V370Z" fill="black"/>
<path opacity="0.2" d="M109.885 370H117.693L117.693 303.985H109.885L109.885 370Z" fill="white"/>
<path d="M34.6803 334.65C34.0936 333.082 34.0387 330.654 37.1094 327.985C38.8392 326.481 40.8257 325.895 43.0034 326.241C48.8005 327.156 54.4561 334.686 56.6849 337.99C59.8721 333.602 68.9298 321.946 74.6641 322.974C76.5929 323.318 77.9208 324.863 78.6083 327.569C79.4175 330.744 78.9369 333.554 77.1796 335.919C72.3149 342.463 59.2292 343.099 58.6753 343.123L58.6229 343.124C48.2989 343.124 36.7598 340.213 34.6803 334.65ZM57.705 340.707C58.0009 340.713 58.2955 340.715 58.5941 340.715C59.2017 340.683 71.1455 339.998 75.2468 334.482C76.5681 332.705 76.9046 330.636 76.2748 328.161C75.84 326.454 75.1551 325.506 74.2411 325.343C74.1115 325.319 73.9766 325.307 73.8378 325.307C69.8452 325.309 61.9503 334.571 57.705 340.707ZM38.6899 329.801C37.0609 331.217 36.4717 332.564 36.9365 333.808C38.0666 336.833 45.3316 340.074 55.5286 340.632C54.7612 339.399 48.4561 329.538 42.6262 328.618C42.3526 328.574 42.0854 328.554 41.8235 328.554C40.683 328.554 39.6511 328.966 38.6899 329.801Z" fill="#E0E0E0"/>
<path d="M7.10468 369.999H103.201V340.135H7.10468V369.999Z" fill="#5B5B5B"/>
<path opacity="0.2" d="M7.10468 369.999H103.201V340.135H7.10468V369.999Z" fill="white"/>
<path opacity="0.2" d="M7.10468 369.999H103.201V350.894H7.10468V369.999Z" fill="black"/>
<path d="M31.3517 369.999H39.1602L39.1602 340.135H31.3517L31.3517 369.999Z" fill="white"/>
<path d="M83.9728 369.999H89.707V340.135H83.9728V369.999Z" fill="white"/>
<path opacity="0.2" d="M65.0179 369.999H103.201V340.135H65.0179V369.999Z" fill="black"/>
<path d="M375.364 370H212.066C205.277 370 200.034 364.48 200.354 357.674L216.594 12.3262C216.913 5.51816 222.676 0 229.465 0H392.763C399.551 0 404.794 5.51816 404.475 12.3262L388.236 357.674C387.914 364.48 382.152 370 375.364 370Z" fill="#5B5B5B"/>
<path opacity="0.4" d="M375.364 370H212.066C205.277 370 200.034 364.48 200.354 357.674L216.594 12.3262C216.913 5.51816 222.676 0 229.465 0H392.763C399.551 0 404.794 5.51816 404.475 12.3262L388.236 357.674C387.914 364.48 382.152 370 375.364 370Z" fill="white"/>
<path opacity="0.2" d="M375.364 370H212.066C205.277 370 200.034 364.48 200.354 357.674L216.594 12.3262C216.913 5.51816 222.676 0 229.465 0H392.763C399.551 0 404.794 5.51816 404.475 12.3262L388.236 357.674C387.914 364.48 382.152 370 375.364 370Z" fill="black"/>
<path d="M362.26 370H198.962C192.174 370 186.931 364.48 187.25 357.674L203.49 12.3262C203.81 5.51816 209.573 0 216.361 0H379.659C386.448 0 391.691 5.51816 391.371 12.3262L375.131 357.674C374.812 364.48 369.048 370 362.26 370Z" fill="#5B5B5B"/>
<path opacity="0.4" d="M362.26 370H198.962C192.174 370 186.931 364.48 187.25 357.674L203.49 12.3262C203.81 5.51816 209.573 0 216.361 0H379.659C386.448 0 391.691 5.51816 391.371 12.3262L375.131 357.674C374.812 364.48 369.048 370 362.26 370Z" fill="white"/>
<path opacity="0.6" d="M297.596 8.20491C297.528 9.65843 296.395 10.837 295.068 10.837C293.74 10.837 292.718 9.65843 292.786 8.20491C292.855 6.75007 293.987 5.57153 295.315 5.57153C296.644 5.57153 297.664 6.75007 297.596 8.20491Z" fill="black"/>
<path opacity="0.6" d="M302.464 8.20494C302.42 9.13598 301.695 9.89155 300.844 9.89155C299.993 9.89155 299.34 9.13598 299.383 8.20494C299.426 7.27259 300.152 6.51831 301.003 6.51831C301.854 6.51831 302.507 7.27259 302.464 8.20494Z" fill="black"/>
<path d="M385.026 12.3941L368.824 356.942C368.69 359.775 366.506 361.977 363.919 361.977H197.559C195.18 361.977 193.483 359.96 193.606 357.355L209.847 11.979C209.953 9.7228 211.559 7.75073 213.62 7.75073H255.209C256.384 7.75073 257.409 8.59011 257.79 9.80008L259.294 14.4435C259.676 15.643 260.701 16.4706 261.876 16.4706H332.682C333.857 16.4706 334.959 15.6744 335.454 14.4762L337.396 9.81185C337.891 8.60188 338.997 7.75203 340.171 7.75203H381.165C383.433 7.75072 385.143 9.90875 385.026 12.3941Z" fill="#263238"/>
<path opacity="0.3" d="M384.233 29.2773L369.663 339.139H194.463L209.034 29.2773H384.233Z" fill="white"/>
<path d="M378.029 69.2781H211.476L198.992 334.752H365.545L378.029 69.2781Z" fill="#5B5B5B"/>
<path opacity="0.8" d="M378.029 69.2781H211.476L198.992 334.752H365.545L378.029 69.2781Z" fill="white"/>
<path d="M282.601 352.969H280.227C278.963 352.969 277.987 351.942 278.048 350.676L278.189 347.655C278.249 346.389 279.32 345.362 280.584 345.362H282.958C284.22 345.362 285.196 346.389 285.137 347.655L284.996 350.676C284.937 351.942 283.864 352.969 282.601 352.969Z" stroke="white" stroke-width="1.13087" stroke-miterlimit="10"/>
<path d="M378.155 66.6027H211.602L213.071 35.3506H379.625L378.155 66.6027Z" fill="#5B5B5B"/>
<path d="M371.1 45.6444C371.063 46.417 370.462 47.0429 369.756 47.0429C369.05 47.0429 368.508 46.417 368.545 45.6444C368.581 44.8718 369.182 44.2458 369.888 44.2458C370.594 44.2458 371.136 44.8718 371.1 45.6444Z" fill="white"/>
<path d="M370.848 50.9766C370.811 51.7492 370.21 52.3752 369.504 52.3752C368.798 52.3752 368.256 51.7492 368.293 50.9766C368.329 50.204 368.93 49.5781 369.636 49.5781C370.342 49.5781 370.883 50.204 370.848 50.9766Z" fill="white"/>
<path d="M370.598 56.3089C370.561 57.0815 369.96 57.7075 369.254 57.7075C368.548 57.7075 368.006 57.0815 368.043 56.3089C368.079 55.5363 368.68 54.9104 369.386 54.9104C370.092 54.9104 370.634 55.5363 370.598 56.3089Z" fill="white"/>
<path d="M255.292 55.6343L259.36 47.4579H260.857L264.167 55.6343H262.577L259.755 48.2639H260.363L256.859 55.6343H255.292ZM257.076 53.7421L257.542 52.5507H261.962L262.315 53.7421H257.076ZM266.457 55.6343L266.782 48.7428H264.069L264.129 47.4579H271.075L271.015 48.7428H268.302L267.978 55.6343H266.457ZM273.606 55.6343L273.93 48.7428H271.217L271.278 47.4579H278.224L278.163 48.7428H275.45L275.126 55.6343H273.606ZM280.608 50.857H284.677L284.618 52.1068H280.549L280.608 50.857ZM280.56 54.3611H285.179L285.119 55.6343H278.98L279.365 47.4579H285.34L285.28 48.7311H280.825L280.56 54.3611ZM286.814 55.6343L287.198 47.4579H288.45L293.287 53.7538H292.667L292.963 47.4579H294.472L294.087 55.6343H292.836L287.999 49.3385H288.618L288.322 55.6343H286.814ZM296.28 55.6343L296.665 47.4579H300.243C301.132 47.4579 301.904 47.6292 302.558 47.9719C303.212 48.3145 303.712 48.7895 304.058 49.3969C304.403 50.0043 304.557 50.7207 304.518 51.5461C304.479 52.3638 304.259 53.0802 303.855 53.6954C303.453 54.3027 302.908 54.7778 302.221 55.1204C301.535 55.463 300.747 55.6343 299.859 55.6343H296.28ZM297.861 54.3495H299.849C300.465 54.3495 301 54.2327 301.456 53.999C301.919 53.7654 302.281 53.4384 302.543 53.0179C302.812 52.5974 302.96 52.1068 302.986 51.5461C303.013 50.9777 302.911 50.4871 302.681 50.0744C302.459 49.6539 302.128 49.3268 301.687 49.0932C301.253 48.8596 300.729 48.7428 300.113 48.7428H298.125L297.861 54.3495ZM304.669 55.6343L308.738 47.4579H310.234L313.545 55.6343H311.954L309.132 48.2639H309.74L306.236 55.6343H304.669ZM306.454 53.7421L306.919 52.5507H311.339L311.693 53.7421H306.454ZM314.586 55.6343L314.97 47.4579H316.222L321.059 53.7538H320.439L320.735 47.4579H322.244L321.859 55.6343H320.608L315.771 49.3385H316.39L316.094 55.6343H314.586ZM327.836 55.7511C327.212 55.7511 326.636 55.6499 326.108 55.4474C325.587 55.2372 325.137 54.9452 324.757 54.5714C324.385 54.1898 324.102 53.7421 323.908 53.2281C323.714 52.7142 323.632 52.1535 323.66 51.5461C323.689 50.9387 323.824 50.3781 324.067 49.8641C324.309 49.3502 324.638 48.9063 325.053 48.5325C325.469 48.151 325.946 47.859 326.486 47.6565C327.026 47.4462 327.612 47.3411 328.243 47.3411C328.913 47.3411 329.52 47.4579 330.062 47.6915C330.605 47.9174 331.057 48.2561 331.418 48.7077L330.392 49.6305C330.111 49.3112 329.791 49.0737 329.432 48.918C329.073 48.7545 328.679 48.6727 328.251 48.6727C327.822 48.6727 327.425 48.7428 327.06 48.883C326.702 49.0231 326.385 49.2217 326.108 49.4787C325.838 49.7356 325.621 50.0393 325.457 50.3897C325.3 50.7402 325.212 51.1256 325.192 51.5461C325.172 51.9666 325.224 52.3521 325.348 52.7025C325.48 53.0529 325.668 53.3566 325.913 53.6136C326.166 53.8706 326.465 54.0691 326.809 54.2093C327.161 54.3495 327.551 54.4195 327.98 54.4195C328.409 54.4195 328.81 54.3417 329.184 54.1859C329.558 54.0224 329.901 53.7771 330.212 53.4501L331.151 54.3845C330.748 54.8284 330.264 55.1671 329.7 55.4007C329.135 55.6343 328.514 55.7511 327.836 55.7511ZM334.176 50.857H338.246L338.187 52.1068H334.118L334.176 50.857ZM334.129 54.3611H338.747L338.688 55.6343H332.548L332.933 47.4579H338.909L338.849 48.7311H334.393L334.129 54.3611Z" fill="white"/>
<path d="M275.914 324.244L282.577 328.221L289.614 324.244" stroke="white" stroke-width="1.13087" stroke-miterlimit="10" stroke-linecap="round" stroke-linejoin="round"/>
<path d="M276.139 319.502L282.801 323.478L289.837 319.502" stroke="white" stroke-width="1.13087" stroke-miterlimit="10" stroke-linecap="round" stroke-linejoin="round"/>
<path opacity="0.6" d="M228.701 21.6367H230.864L231.014 18.4783H228.849L228.701 21.6367Z" fill="white"/>
<path opacity="0.6" d="M225.174 21.6367H227.338L227.536 17.4241H225.373L225.174 21.6367Z" fill="white"/>
<path opacity="0.6" d="M221.646 21.6366H223.811L224.059 16.3699H221.894L221.646 21.6366Z" fill="white"/>
<path opacity="0.6" d="M218.119 21.6368H220.284L220.581 15.3159H218.416L218.119 21.6368Z" fill="white"/>
<path opacity="0.6" d="M364.82 20.4843H363.537L363.686 17.3245H364.968L364.82 20.4843Z" fill="white"/>
<path opacity="0.6" d="M365.646 21.6366H375.866L376.122 16.1721H365.903L365.646 21.6366Z" fill="white"/>
<path d="M325.002 110.66C308.55 108.062 295.07 129.047 291.084 136.013C287.098 129.047 273.618 108.062 257.165 110.66C237.628 113.746 238.058 147.133 291.084 138.419C344.11 147.135 344.54 113.746 325.002 110.66ZM254.575 121.475C262.219 113.948 284.159 135.572 284.159 135.572C284.159 135.572 246.933 129.004 254.575 121.475ZM298.008 135.572C298.008 135.572 319.949 113.948 327.592 121.475C335.236 129.004 298.008 135.572 298.008 135.572Z" fill="#5B5B5B"/>
<path opacity="0.6" d="M324.996 110.657C308.549 108.064 295.074 129.042 291.08 136.008C287.099 129.042 273.612 108.064 257.164 110.657C243.834 112.765 239.801 128.989 255.449 136.309C262.717 139.714 274.253 141.181 291.08 138.418C307.907 141.181 319.43 139.714 326.711 136.309C342.373 129.003 338.339 112.765 324.996 110.657ZM254.572 121.473C262.219 113.943 284.153 135.576 284.153 135.576C284.153 135.576 246.937 129.003 254.572 121.473ZM298.007 135.576C298.007 135.576 319.954 113.943 327.589 121.473C335.236 129.003 298.007 135.576 298.007 135.576Z" fill="white"/>
<path d="M345.541 140.84L344.69 158.832L344.52 162.578L341.22 232.74H230.621L233.921 162.578L234.091 158.832L234.942 140.84H345.541Z" fill="#5B5B5B"/>
<path d="M348.281 138.221L347.313 158.832H231.475L232.444 138.221H348.281Z" fill="#5B5B5B"/>
<path opacity="0.7" d="M298.36 138.221L298.229 140.84L297.391 158.832L293.908 232.74H276.885L280.355 158.832L281.206 140.84L281.324 138.221H298.36Z" fill="white"/>
<path opacity="0.2" d="M344.691 158.832L344.521 162.577H233.922L234.092 158.832H344.691Z" fill="black"/>
<path d="M313.962 285.2H252.852C249.558 285.2 247.002 282.52 247.144 279.213L247.863 262.58C248.006 259.274 250.794 256.593 254.089 256.593H315.198C318.494 256.593 321.049 259.274 320.906 262.58L320.187 279.213C320.045 282.52 317.257 285.2 313.962 285.2Z" fill="#5B5B5B"/>
<path opacity="0.2" d="M313.962 285.2H252.852C249.558 285.2 247.002 282.52 247.144 279.213L247.863 262.58C248.006 259.274 250.794 256.593 254.089 256.593H315.198C318.494 256.593 321.049 259.274 320.906 262.58L320.187 279.213C320.045 282.52 317.257 285.2 313.962 285.2Z" fill="white"/>
<path opacity="0.2" d="M375.791 7.74561L201.512 189.222L209.847 11.9752C209.953 9.72423 211.561 7.74561 213.617 7.74561H255.207C256.387 7.74561 257.407 8.58628 257.795 9.79493L259.297 14.4397C259.674 15.6366 260.706 16.4655 261.875 16.4655H332.687C333.856 16.4655 334.964 15.6719 335.454 14.475L337.394 9.80672C337.894 8.59807 338.996 7.74561 340.176 7.74561H375.791Z" fill="white"/>
<path opacity="0.2" d="M383.668 41.3862L382.968 56.2816L198.744 248.103L199.443 233.219L383.668 41.3862Z" fill="white"/>
<path d="M359.455 35.3508H204.455V66.603H359.455V35.3508Z" fill="white"/>
<g opacity="0.2">
<path d="M378.157 66.603H211.604L213.073 35.3508H379.627L378.157 66.603Z" fill="white"/>
<path d="M371.102 45.6446C371.065 46.4172 370.464 47.0432 369.758 47.0432C369.052 47.0432 368.51 46.4172 368.547 45.6446C368.583 44.872 369.184 44.2461 369.89 44.2461C370.596 44.2461 371.138 44.872 371.102 45.6446Z" fill="white"/>
<path d="M370.851 50.9771C370.815 51.7497 370.214 52.3757 369.508 52.3757C368.802 52.3757 368.26 51.7497 368.297 50.9771C368.333 50.2045 368.934 49.5786 369.64 49.5786C370.346 49.5786 370.887 50.2045 370.851 50.9771Z" fill="white"/>
<path d="M370.6 56.3094C370.563 57.082 369.962 57.7079 369.256 57.7079C368.55 57.7079 368.008 57.082 368.045 56.3094C368.081 55.5368 368.682 54.9109 369.388 54.9109C370.094 54.9109 370.636 55.5368 370.6 56.3094Z" fill="white"/>
</g>
<path d="M225.869 73.4846C229.67 69.684 229.67 63.522 225.869 59.7215C222.069 55.9209 215.907 55.9209 212.106 59.7215C208.306 63.5221 208.306 69.684 212.106 73.4846C215.907 77.2852 222.069 77.2852 225.869 73.4846Z" fill="white"/>
<path d="M267.534 68.1608C268.395 62.8552 264.792 57.8562 259.486 56.9951C254.181 56.1341 249.182 59.7371 248.321 65.0426C247.46 70.3482 251.063 75.3472 256.368 76.2082C261.674 77.0693 266.673 73.4663 267.534 68.1608Z" fill="white"/>
<path d="M306.327 68.8695C307.563 63.6387 304.323 58.397 299.093 57.1618C293.862 55.9267 288.62 59.1658 287.385 64.3966C286.15 69.6275 289.389 74.8692 294.62 76.1044C299.851 77.3395 305.092 74.1003 306.327 68.8695Z" fill="white"/>
<path d="M342.652 73.4856C346.453 69.685 346.453 63.523 342.652 59.7225C338.852 55.9219 332.69 55.9219 328.889 59.7224C325.089 63.523 325.089 69.685 328.889 73.4856C332.69 77.2861 338.852 77.2861 342.652 73.4856Z" fill="white"/>
<path d="M364.969 66.603C364.969 66.603 367.682 41.3535 379.627 35.3508L378.158 66.603H364.969Z" fill="#5B5B5B"/>
<path d="M360.161 35.3508C350.589 40.1606 346.948 57.3213 345.878 63.9526C345.64 64.7959 345.504 65.6824 345.504 66.603C345.504 71.9771 349.861 76.3351 355.236 76.3351C360.611 76.3351 364.968 71.9784 364.968 66.603C364.968 66.603 367.681 41.3535 379.626 35.3508H360.161Z" fill="#5B5B5B"/>
<path d="M306.953 63.9526C306.714 64.7959 306.578 65.6824 306.578 66.603C306.578 71.9771 310.935 76.3351 316.31 76.3351C321.686 76.3351 326.042 71.9784 326.042 66.603C326.042 66.603 328.756 41.3535 340.701 35.3508H321.236C311.663 40.1606 308.022 57.3213 306.953 63.9526Z" fill="#5B5B5B"/>
<path d="M268.025 63.9526C267.787 64.7959 267.65 65.6811 267.65 66.6004V66.6017C267.65 71.9758 272.007 76.3337 277.382 76.3337C282.758 76.3337 287.115 71.9771 287.115 66.6017C287.116 66.5912 289.83 41.3509 301.773 35.3508H282.309C272.734 40.1606 269.093 57.3227 268.025 63.9526Z" fill="#5B5B5B"/>
<path d="M229.099 63.9539C228.861 64.7959 228.725 65.6811 228.725 66.6004V66.603C228.725 71.9771 233.081 76.3351 238.457 76.3351C243.832 76.3351 248.189 71.9784 248.189 66.603C248.191 66.582 250.906 41.3509 262.847 35.3508H243.383C233.809 40.1606 230.169 57.324 229.099 63.9539Z" fill="#5B5B5B"/>
<path d="M190.173 63.9527C189.935 64.796 189.799 65.6826 189.799 66.6031C189.799 71.9773 194.155 76.3352 199.531 76.3352C204.906 76.3352 209.263 71.9786 209.263 66.6031C209.264 66.5927 211.979 41.3524 223.921 35.3523H204.457C194.884 40.1607 191.242 57.3215 190.173 63.9527Z" fill="#5B5B5B"/>
<path opacity="0.2" d="M364.969 66.603C364.969 66.603 367.682 41.3535 379.627 35.3508L378.158 66.603H364.969Z" fill="black"/>
<path d="M148.548 138.238C146.738 139.727 144.998 140.952 143.197 142.247C141.399 143.51 139.551 144.692 137.7 145.867C134.008 148.234 130.152 150.353 126.216 152.332L125.916 152.482C123.801 153.544 121.295 152.98 119.817 151.263C118.983 150.294 118.555 149.337 118.275 148.521C117.992 147.684 117.885 146.996 117.806 146.342C117.671 145.063 117.724 144.004 117.82 143.012C118.027 141.047 118.42 139.346 118.854 137.685C119.734 134.392 120.886 131.358 122.087 128.37C123.316 125.396 124.639 122.5 126.047 119.654C127.487 116.815 128.926 114.027 130.56 111.257C131.361 109.901 133.11 109.45 134.465 110.25C135.64 110.943 136.135 112.348 135.726 113.592L135.711 113.638C134.763 116.534 133.76 119.478 132.86 122.41C131.935 125.338 131.036 128.262 130.236 131.176C129.419 134.076 128.711 136.998 128.215 139.779C127.978 141.158 127.807 142.529 127.799 143.671C127.796 144.233 127.838 144.737 127.898 145.004C127.921 145.283 128.142 145.176 127.538 144.381L121.141 143.312C124.625 141.095 128.042 138.76 131.457 136.424C133.165 135.256 134.832 134.025 136.512 132.824C138.187 131.654 139.889 130.367 141.446 129.24L141.544 129.168C144.108 127.314 147.69 127.889 149.545 130.453C151.33 132.917 150.857 136.329 148.548 138.238Z" fill="#E9B376"/>
<path d="M151.914 123.629C143.731 123.47 131.391 133.227 131.391 133.227C131.391 133.227 133.766 149.032 137.869 150.49C141.973 151.947 151.914 123.629 151.914 123.629Z" fill="#5B5B5B"/>
<path opacity="0.7" d="M151.917 123.636C151.917 123.636 145.264 142.539 140.598 148.649C139.56 150.033 138.609 150.757 137.864 150.49C136.265 149.92 134.92 147.149 133.886 143.997C132.274 139.089 131.393 133.231 131.393 133.231C131.393 133.231 143.729 123.47 151.917 123.636Z" fill="white"/>
<path opacity="0.1" d="M140.597 148.648C139.559 150.033 138.608 150.757 137.863 150.49C136.264 149.92 134.919 147.149 133.885 143.997C136.563 140.612 140.885 138.213 140.885 138.213C141.938 140.919 141.671 145.165 140.597 148.648Z" fill="black"/>
<path d="M132.077 132.336L137.267 149.775L135.002 150.36L130.125 133.732L132.077 132.336Z" fill="#5B5B5B"/>
<path d="M168.786 75.9185C168.786 75.9185 161.81 73.7723 157.389 79.6532C152.969 85.5354 155.522 95.9144 155.522 95.9144C155.522 95.9144 158.826 103.796 153.164 108.843C148.197 113.27 152.328 117.957 160.366 121.44C168.403 124.925 184.432 126.102 189.339 122.094C194.247 118.084 187.95 112.368 190.379 103.474C192.808 94.58 194.567 86.067 185.979 79.5602C178.957 74.2385 172.634 74.2044 168.786 75.9185Z" fill="#263238"/>
<path d="M100.253 369.993C107.383 369.993 108.326 369.883 112.332 369.749C115.762 369.625 116.583 370.055 119.34 369.993C121.643 369.945 121.558 367.74 120.847 365.203C120.492 363.929 119.944 361.237 119.454 359.178L109.008 358.42C107.537 361.226 104.222 365.228 100.203 365.768C96.3676 366.282 97.4099 369.993 100.253 369.993Z" fill="#5B5B5B"/>
<path d="M152.994 369.993C160.124 369.993 161.065 369.883 165.072 369.749C168.503 369.625 169.324 370.055 172.081 369.993C174.384 369.945 174.298 367.74 173.588 365.203C173.233 363.929 172.684 361.237 172.195 359.178L161.749 358.42C160.278 361.226 156.963 365.228 152.944 365.768C149.107 366.282 150.151 369.993 152.994 369.993Z" fill="#5B5B5B"/>
<path d="M135.512 180.075C135.512 180.075 126.218 233.32 124.695 262.004C123.095 292.129 113.438 340.377 108.332 359.228C109.769 360.519 116.522 361.059 119.715 359.464C119.715 359.464 147.584 303.82 143.959 269.033C167.26 203.422 161.624 178.877 161.624 178.877L135.512 180.075Z" fill="#263238"/>
<path opacity="0.2" d="M150.86 248.156C154.174 237.227 156.564 227.763 158.251 219.646C156.576 213.298 154.198 207.862 150.965 204.595C150.965 204.595 146.315 222.282 150.86 248.156Z" fill="black"/>
<path d="M145.426 174.804C145.426 174.804 153.05 233.796 157.418 262.187C162.006 292.003 162.589 339.845 161.442 359.342C163.112 360.312 169.201 361.486 172.49 360.458C172.49 360.458 188.038 300.156 177.711 265.131C188.946 212.178 173.07 184.267 173.07 184.267L145.426 174.804Z" fill="#263238"/>
<path d="M138.45 137.494C137.92 141.177 137.144 143.937 136.666 152.814C136.12 160.312 135.808 167.716 135.514 180.076L173.095 184.291C173.527 173.62 176.113 161.694 185.533 138.631C187.718 133.284 184.824 127.588 179.316 126.398C177.844 126.08 176.279 125.777 174.667 125.517C168.4 124.506 163.256 123.724 157.602 123.603C155.728 123.563 153.78 123.581 151.914 123.63C145.178 123.808 139.396 130.895 138.45 137.494Z" fill="#5B5B5B"/>
<path opacity="0.7" d="M185.539 138.628C185.326 139.163 185.114 139.683 184.902 140.204C182.333 146.573 180.289 152.066 178.686 156.923C174.731 168.86 173.404 176.877 173.097 184.298L135.521 180.076C135.813 167.715 136.12 160.308 136.671 152.811C137.147 143.942 137.927 141.179 138.455 137.498C139.4 130.901 145.175 123.81 151.918 123.635C153.776 123.577 155.729 123.567 157.605 123.599C163.259 123.723 168.395 124.5 174.666 125.513C176.278 125.78 177.837 126.077 179.32 126.403C184.829 127.583 187.721 133.286 185.539 138.628Z" fill="white"/>
<path d="M132.062 102.403L134.413 103.964C135.297 104.551 135.843 105.529 135.878 106.589L136.043 111.546C136.109 113.527 135.212 115.418 133.634 116.619L132.657 117.363C128.582 115.041 125.888 109.528 125.888 109.528L124.947 108.042C124.108 106.718 124.438 105.06 125.707 104.232L128.627 102.327C129.637 101.67 131.003 101.7 132.062 102.403Z" fill="#EBB376"/>
<path d="M139.102 97.1583C141.567 93.8178 145.678 92.6707 148.287 94.5944C150.895 96.518 151.013 100.787 148.549 104.126C146.084 107.467 141.973 108.614 139.364 106.69C136.756 104.766 136.638 100.499 139.102 97.1583Z" fill="#5B5B5B"/>
<path d="M117.873 81.6773L126.39 69.8396C126.39 69.8396 129.908 80.8065 136.36 85.5652L132.043 91.4186L131.363 92.3405L127.039 98.2017C120.587 93.443 109.074 93.3147 109.074 93.3147L117.873 81.6773Z" fill="#5B5B5B"/>
<path opacity="0.8" d="M139.102 97.1583C141.567 93.8178 145.678 92.6707 148.287 94.5944C150.895 96.518 151.013 100.787 148.549 104.126C146.084 107.467 141.973 108.614 139.364 106.69C136.756 104.766 136.638 100.499 139.102 97.1583Z" fill="white"/>
<path opacity="0.8" d="M117.873 81.6773L126.39 69.8396C126.39 69.8396 129.908 80.8065 136.36 85.5652L132.043 91.4186L131.363 92.3405L127.039 98.2017C120.587 93.443 109.074 93.3147 109.074 93.3147L117.873 81.6773Z" fill="white"/>
<path d="M138.631 104.66C138.631 104.66 132.719 111.268 127.717 113.32C127.365 113.464 126.961 113.315 126.762 112.991L123.409 107.55C123.135 107.108 123.351 106.529 123.85 106.381C125.928 105.766 130.793 104.105 133.834 101.316C137.783 97.6912 138.631 104.66 138.631 104.66Z" fill="#5B5B5B"/>
<path opacity="0.3" d="M138.631 104.66C138.631 104.66 132.719 111.268 127.717 113.32C127.365 113.464 126.961 113.315 126.762 112.991L123.409 107.55C123.135 107.108 123.351 106.529 123.85 106.381C125.928 105.766 130.793 104.105 133.834 101.316C137.783 97.6912 138.631 104.66 138.631 104.66Z" fill="black"/>
<path d="M109.095 93.6896C110.574 94.7804 115.725 90.3059 120.6 83.697C125.476 77.0867 128.229 70.8444 126.751 69.7536C125.273 68.6628 120.121 73.1373 115.246 79.7462C110.369 86.3565 107.616 92.5988 109.095 93.6896Z" fill="white"/>
<path opacity="0.4" d="M110.008 91.6729C111.113 92.4887 115.136 88.9662 119.177 83.6785C119.41 83.3813 119.642 83.0683 119.873 82.754C120.152 82.3769 120.423 82.0076 120.679 81.641C124.454 76.2721 126.584 71.4951 125.486 70.6858C124.307 69.8163 119.882 73.8089 115.605 79.606C111.337 85.3952 108.828 90.8034 110.008 91.6729Z" fill="black"/>
<path d="M139.842 108.094C139.842 108.094 141.705 107.096 145.5 101.95C149.608 96.3819 149.727 94.6914 149.727 94.6914L135.327 84.0688C135.327 84.0688 134.866 86.2203 131.015 91.4425C127.19 96.6268 125.441 97.4714 125.441 97.4714L139.842 108.094Z" fill="#5B5B5B"/>
<path d="M119.177 83.6784C119.41 83.3812 119.642 83.0682 119.873 82.7539C120.152 82.3768 120.423 82.0075 120.679 81.6409L119.139 80.9311C118.787 80.7714 118.433 80.9233 118.21 81.2271L118.054 81.4392C117.83 81.743 117.789 82.1267 118.046 82.4148L119.177 83.6784Z" fill="white"/>
<path opacity="0.2" d="M119.177 83.6784C119.41 83.3812 119.642 83.0682 119.873 82.7539C120.152 82.3768 120.423 82.0075 120.679 81.6409L119.139 80.9311C118.787 80.7714 118.433 80.9233 118.21 81.2271L118.054 81.4392C117.83 81.743 117.789 82.1267 118.046 82.4148L119.177 83.6784Z" fill="black"/>
<path d="M175.626 106.168C173.525 111.492 170.572 121.347 173.73 125.412C173.73 125.412 168.617 124.047 156.809 129.638C154.126 124.693 156.665 123.497 156.665 123.497C163.061 122.734 163.751 118.212 163.481 113.861L175.626 106.168Z" fill="#EBB376"/>
<path opacity="0.2" d="M170.674 109.308L163.487 113.858C163.553 114.887 163.563 115.926 163.447 116.921C165.849 116.848 169.542 114.662 170.247 112.262C170.6 111.064 170.767 109.894 170.674 109.308Z" fill="black"/>
<path d="M181.549 95.6735C178.888 104.353 177.948 108.072 172.411 111.757C164.084 117.3 154.009 112.743 154.023 103.592C154.037 95.3553 158.385 82.5459 167.849 80.6432C177.174 78.7707 184.21 86.9942 181.549 95.6735Z" fill="#EBB376"/>
<path d="M170.062 95.8802C169.871 96.6188 169.329 97.1439 168.852 97.0548C168.375 96.9658 168.145 96.2953 168.337 95.5568C168.529 94.8182 169.071 94.2931 169.547 94.3822C170.023 94.4712 170.253 95.143 170.062 95.8802Z" fill="#263238"/>
<path d="M160.842 93.8573C160.651 94.5958 160.109 95.1209 159.632 95.0319C159.155 94.9428 158.925 94.2723 159.116 93.5338C159.307 92.7952 159.849 92.2702 160.326 92.3592C160.803 92.4483 161.033 93.1187 160.842 93.8573Z" fill="#263238"/>
<path d="M160.525 92.439L158.908 91.5996C158.908 91.5996 159.445 93.154 160.525 92.439Z" fill="#263238"/>
<path d="M163.2 94.9009C163.2 94.9009 161.138 97.8459 159.379 99.124C160.104 100.213 161.849 100.105 161.849 100.105L163.2 94.9009Z" fill="#D58745"/>
<path d="M172.632 91.5117C172.516 91.5013 172.409 91.4436 172.338 91.3454C171.24 89.7976 169.612 89.9207 169.592 89.922C169.351 89.9403 169.147 89.7636 169.145 89.5213C169.142 89.2791 169.337 89.0656 169.582 89.0434C169.667 89.0368 171.71 88.881 173.074 90.802C173.211 90.9932 173.156 91.2708 172.953 91.4214C172.856 91.4921 172.74 91.5222 172.632 91.5117Z" fill="#263238"/>
<path d="M158.298 88.2869C158.188 88.2908 158.08 88.2542 157.998 88.1756C157.829 88.0132 157.835 87.7343 158.01 87.5536C159.773 85.736 161.768 86.0202 161.853 86.0346C162.092 86.0712 162.241 86.2965 162.185 86.5374C162.13 86.7784 161.893 86.9421 161.656 86.9067C161.577 86.8949 160.025 86.6959 158.624 88.1415C158.533 88.2332 158.413 88.283 158.298 88.2869Z" fill="#263238"/>
<path d="M169.746 94.4634L168.129 93.624C168.129 93.624 168.667 95.1771 169.746 94.4634Z" fill="#263238"/>
<path d="M160.098 103.602C160.31 104.727 160.212 107.811 160.209 107.813C160.451 107.868 160.696 107.926 160.938 107.968C164.211 108.64 166.12 107.438 167.006 106.568C167.498 106.05 167.716 105.472 167.843 104.921C167.991 104.301 168.002 103.695 168.003 103.691C166.755 102.637 162.929 102.308 161.232 103.085C160.501 103.347 160.098 103.607 160.098 103.602Z" fill="#263238"/>
<path d="M161.232 103.084C161.259 103.521 161.283 103.974 161.307 104.442C164.651 104.122 167.058 104.993 167.843 104.92C167.991 104.3 168.001 103.694 168.002 103.69C166.755 102.636 162.928 102.307 161.232 103.084Z" fill="white"/>
<path d="M160.939 107.967C164.212 108.639 166.121 107.436 167.008 106.567C166.01 106.005 164.56 105.751 163.196 106.238C162.153 106.597 161.442 107.319 160.939 107.967Z" fill="#DE5753"/>
<path d="M178.195 101.993C178.195 101.993 175.711 92.0592 177.387 84.1604C177.387 84.1604 167.261 79.001 160.738 84.8439C160.738 84.8439 163.043 78.8177 172.607 79.0338C182.171 79.2498 191.37 92.3551 178.195 101.993Z" fill="#263238"/>
<path d="M182.719 103.445C181.294 105.042 179.357 105.826 177.719 105.891C175.255 105.99 174.744 103.468 176.034 101.289C177.195 99.327 179.877 96.9123 182.06 97.8499C184.212 98.7718 184.348 101.62 182.719 103.445Z" fill="#EBB376"/>
<path d="M168.551 81.4407C168.551 81.4407 169.376 98.5452 180.089 96.5613C190.803 94.5774 183.66 76.4633 168.551 81.4407Z" fill="#263238"/>
<path opacity="0.1" d="M184.9 140.203C182.331 146.573 180.287 152.066 178.684 156.923C174.017 148.811 178.05 138.036 178.05 138.036C180.53 136.914 182.899 137.986 184.9 140.203Z" fill="black"/>
<path d="M187.506 135.008C188.197 137.077 189.007 139.464 189.881 141.656C190.748 143.89 191.641 146.112 192.635 148.272C193.632 150.431 194.711 152.521 195.825 154.568C196.975 156.589 198.202 158.512 199.518 160.325L198.732 159.561C198.341 159.266 197.922 159.232 197.916 159.259C197.876 159.287 198.105 159.325 198.441 159.292C199.126 159.232 200.14 158.948 201.161 158.545C203.233 157.729 205.469 156.567 207.645 155.283C209.841 154.008 212.026 152.605 214.202 151.163C216.388 149.745 218.564 148.201 220.684 146.728L220.745 146.686C222.04 145.786 223.819 146.106 224.719 147.401C225.478 148.493 225.367 149.932 224.537 150.894C222.7 153.025 220.793 154.947 218.813 156.889C216.819 158.8 214.737 160.636 212.522 162.392C210.281 164.123 207.965 165.816 205.179 167.258C203.772 167.973 202.27 168.656 200.326 169.116C199.35 169.337 198.232 169.5 196.86 169.388C195.524 169.297 193.795 168.804 192.338 167.693C192.106 167.516 191.897 167.319 191.711 167.109L191.554 166.927C189.69 164.791 187.984 162.571 186.494 160.264C185.004 157.963 183.639 155.606 182.447 153.193C181.249 150.782 180.115 148.355 179.129 145.871C178.645 144.626 178.177 143.375 177.737 142.11C177.278 140.827 176.899 139.619 176.493 138.169C175.639 135.123 177.418 131.962 180.464 131.11C183.414 130.283 186.472 131.924 187.435 134.796L187.506 135.008Z" fill="#E9B376"/>
<path d="M181.575 127.211C189.31 129.774 197.378 148.965 197.378 148.965C197.378 148.965 191.282 154.248 184.02 158.019C184.02 158.019 172.821 141.601 174.738 134.175C176.657 126.749 181.575 127.211 181.575 127.211Z" fill="#5B5B5B"/>
<path opacity="0.7" d="M181.575 127.211C189.31 129.774 197.378 148.965 197.378 148.965C197.378 148.965 191.282 154.248 184.02 158.019C184.02 158.019 172.821 141.601 174.738 134.175C176.657 126.749 181.575 127.211 181.575 127.211Z" fill="white"/>
<path d="M221.961 153.326L231.108 148.187L225.396 141.011C225.396 141.011 218.497 143.705 218.504 149.814L221.961 153.326Z" fill="#EBB376"/>
<path d="M235.139 141.902L229.601 137.572L225.396 141.012L231.108 148.188L235.139 141.902Z" fill="#EBB376"/>
<path d="M183.068 157.344L197.377 147.169L198.746 150.471L184.429 159.195L183.068 157.344Z" fill="#5B5B5B"/>
<path d="M155.326 123.582C149.383 132.337 151.568 148.214 151.568 148.214C151.568 148.214 156.358 136.618 171.692 127.646" stroke="#263238" stroke-width="0.654742" stroke-miterlimit="10" stroke-linecap="round" stroke-linejoin="round"/>
<path d="M159.281 128.523C162.86 129.449 163.383 135.069 163.383 135.069C163.383 135.069 172.811 129.87 176.068 125.824C174.847 124.999 173.104 123.441 173.104 123.441C173.104 123.441 161.641 126.662 159.281 128.523Z" fill="#5B5B5B"/>
<path d="M155.891 127.55C155.891 127.55 152.654 128.045 151.021 132.336C151.088 124.234 154.98 123.292 154.98 123.292C154.98 123.292 156.212 122.605 158.322 123.186C155.268 124.384 155.891 127.55 155.891 127.55Z" fill="#5B5B5B"/>
<path d="M153.786 158.498L148.499 158.16C148.061 158.133 147.73 157.756 147.757 157.318L148.357 147.927C148.385 147.489 148.762 147.158 149.199 147.186L154.487 147.524C154.924 147.551 155.256 147.928 155.227 148.366L154.627 157.757C154.6 158.195 154.222 158.526 153.786 158.498Z" fill="white"/>
<path opacity="0.2" d="M153.209 149.431L150.236 149.241L149.986 153.162L152.959 153.352L153.209 149.431Z" fill="black"/>
<path opacity="0.2" d="M153.709 154.48L149.1 154.186L149.064 154.747L153.673 155.041L153.709 154.48Z" fill="black"/>
<path opacity="0.2" d="M153.617 155.823L149.008 155.529L148.972 156.089L153.581 156.384L153.617 155.823Z" fill="black"/>
</svg>
