<svg width="50" height="50" viewBox="0 0 50 50" fill="none" xmlns="http://www.w3.org/2000/svg">
<path d="M48.7743 0C48.464 0.00799239 48.1691 0.136929 47.9524 0.359309L42.8457 5.47497L41.3075 3.93444C40.4518 3.08108 39.466 2.60724 38.4959 2.58029C37.912 2.56457 37.373 2.64766 36.7307 2.73749L28.3993 3.89626C25.3339 4.32294 23.7776 5.63442 21.8014 7.47588L1.30734 26.5754C1.299 26.5828 1.29077 26.5903 1.28264 26.5979C0.395594 27.4737 0.0115817 28.6684 0.00035333 29.8451C-0.0131208 31.0219 0.357417 32.2682 1.34552 33.1126L1.27815 33.0475L16.953 48.7268L16.8901 48.6595C17.7345 49.6476 18.9786 50.0159 20.1576 50.0024C21.3343 49.9911 22.5313 49.6071 23.4049 48.7223C23.4125 48.7135 23.42 48.7045 23.4273 48.6954L24.8354 47.184L30.4406 49.2725C31.0075 49.4893 31.6124 49.5895 32.219 49.5671C32.8255 49.5447 33.4214 49.4002 33.9708 49.1423C35.0375 48.6415 35.965 47.7949 36.3916 46.6271L42.5448 28.1811C44.3773 26.2161 45.682 24.6576 46.1065 21.6035L47.2652 13.272C47.3551 12.6297 47.4382 12.0885 47.4224 11.5069C47.3955 10.5367 46.9239 9.55313 46.0683 8.69528L44.5278 7.15699L49.6389 2.04582C49.8111 1.87869 49.9286 1.66344 49.9763 1.42831C50.0239 1.19317 49.9994 0.949127 49.9059 0.728176C49.8125 0.507224 49.6544 0.31968 49.4525 0.190137C49.2505 0.0605947 49.0142 -0.00489856 48.7743 0.00224579V0ZM38.4307 4.95847C38.8978 4.9697 38.9922 4.98317 39.6232 5.61645L41.1637 7.15475L38.4307 9.88999C37.953 9.65655 37.4286 9.53447 36.8969 9.53292C34.9387 9.53292 33.324 11.1498 33.324 13.1058C33.324 15.064 34.9387 16.6764 36.8947 16.6764C38.8529 16.6764 40.4676 15.064 40.4676 13.1058C40.4676 12.5579 40.3373 12.0391 40.1127 11.572L42.8457 8.83676L44.384 10.3773C45.0173 11.0083 45.0308 11.1027 45.042 11.5675C45.0289 12.0282 44.9838 12.4874 44.9073 12.9419L43.7508 21.2734C43.3914 23.8559 42.6167 24.6104 40.7865 26.5777L21.7094 47.0471C21.4017 47.3592 20.7662 47.613 20.1307 47.6197C19.4951 47.6287 18.9517 47.4019 18.7024 47.1099C18.6816 47.0866 18.6599 47.0642 18.6373 47.0426L2.96241 31.3632C2.94082 31.3406 2.91834 31.3189 2.89504 31.2981C2.6031 31.0511 2.37404 30.5054 2.38302 29.8698C2.38976 29.2365 2.64352 28.5988 2.95567 28.2911L23.4251 9.21628C25.3923 7.38381 26.1468 6.61129 28.7294 6.25198L37.0609 5.09321C37.7031 5.00338 38.1523 4.94949 38.4307 4.95847ZM36.8969 11.9133C37.5684 11.9133 38.0871 12.4343 38.0871 13.1058C38.0871 13.7773 37.5684 14.296 36.8969 14.296C36.2232 14.296 35.7067 13.7773 35.7067 13.1058C35.7067 12.4343 36.2232 11.9133 36.8969 11.9133ZM16.6476 24.9967C16.4107 24.9965 16.1791 25.0669 15.9824 25.1991C15.7858 25.3313 15.6331 25.5191 15.5438 25.7386C15.4546 25.9581 15.4329 26.1992 15.4815 26.4311C15.5301 26.663 15.6468 26.8751 15.8167 27.0403L22.9602 34.1815C24.0831 35.3044 25.7673 33.6201 24.6445 32.4973L17.501 25.356C17.3899 25.2421 17.2572 25.1517 17.1107 25.09C16.9641 25.0283 16.8066 24.9965 16.6476 24.9967ZM13.077 28.5651C12.8396 28.5644 12.6074 28.6347 12.4102 28.767C12.2131 28.8993 12.06 29.0875 11.9707 29.3074C11.8814 29.5274 11.8598 29.769 11.9089 30.0013C11.958 30.2336 12.0754 30.4459 12.2461 30.6109L19.3896 37.7522C20.5124 38.9491 22.2708 37.1885 21.0738 36.0679L13.9326 28.9289C13.8217 28.8139 13.6888 28.7225 13.5418 28.66C13.3948 28.5975 13.2367 28.5652 13.077 28.5651ZM38.6373 32.3715L34.1549 45.8074C34.0022 46.2184 33.5307 46.7169 32.9558 46.9864C32.3809 47.2559 31.8037 47.2492 31.4444 47.1144L26.5892 45.2977L38.6373 32.3715Z" fill="#0B5563"/>
</svg>
