<?xml version="1.0" encoding="utf-8"?>
<!-- Generator: Adobe Illustrator 25.4.1, SVG Export Plug-In . SVG Version: 6.00 Build 0)  -->
<svg version="1.1" id="Layer_1" xmlns="http://www.w3.org/2000/svg" xmlns:xlink="http://www.w3.org/1999/xlink" x="0px" y="0px"
	 viewBox="0 0 431.6 408.1" style="enable-background:new 0 0 431.6 408.1;" xml:space="preserve">
<style type="text/css">
	.st0{display:none;}
	.st1{fill:#404A63;}
	.st2{fill:none;stroke:#3B64C4;stroke-width:3;stroke-miterlimit:10;}
</style>
<desc>Created with Fabric.js 4.2.0</desc>
<g id="a3b9c5fe-1a07-45aa-90b4-c332306b0ce9" transform="matrix(1 0 0 1 540 540)" class="st0">
</g>
<g>
	<g id="XMLID_1325_" transform="matrix(1.03 0 0 1.03 0 73.93)">
		<path vector-effect="non-scaling-stroke" class="st1" d="M349.5,163.5c-2.1-0.5-4.1-0.9-6.2-1.4c0.2,30.6,0.3,61.2,0.5,91.8
			c-91.9-0.2-183.7-0.4-275.6-0.6c-0.8-75.6-1.7-151.3-2.5-226.9c-2.1,0.4-4.3,0.7-6.4,1.1c0.5,75.1,0.9,150.3,1.4,225.4
			c-19.7,0.4-39.5,0.7-59.2,1.1c0,2.5,0,5,0,7.5c19.6-0.7,39.1-1.4,58.7-2c-0.3,21.7-0.6,43.4-0.9,65.1c2,0,3.9,0,5.9,0
			c0.7-21.7,1.4-43.4,2-65.1c92.4,0.6,184.8,1.3,277.2,1.9c-0.4,20.5-0.9,41.1-1.3,61.6c1.6-0.3,3.2-0.5,4.7-0.8
			c0.6-20.5,1.3-41,1.9-61.5c23.1-0.1,46.1-0.3,69.2-0.4c0-2.1,0-4.1,0-6.2c-23.2-0.2-46.4-0.4-69.6-0.6
			C349.5,223.3,349.5,193.4,349.5,163.5z"/>
	</g>
	<g id="XMLID_1895_" transform="matrix(1.03 0 0 1.03 0 -104.83)">
		<path vector-effect="non-scaling-stroke" class="st1" d="M351.5,151.3c-0.2-16.5-0.3-33-0.5-49.5c-2.4,0-4.8,0-7.1,0v47.9
			c-92,0-183.9,0-275.9,0c-0.1-16-0.3-31.9-0.4-47.9c-1.8,0-3.7,0-5.5,0c-0.1,16-0.1,31.9-0.2,47.9c-20.6,0-41.2,0-61.9,0
			c0,2.3,0,4.7,0,7c20.4-0.5,40.7-1,61.1-1.5c-0.3,12-0.6,23.9-0.9,35.9c2.3,0,4.6,0,6.8,0c0.3-11.7,0.6-23.4,0.9-35.1
			c92.1-0.2,184.3-0.4,276.4-0.6c-0.2,50.1-0.5,100.2-0.7,150.3c2.1,0,4.2,0,6.3,0c0.3-50.1,0.7-100.2,1-150.3
			c20.9,0.2,41.7,0.3,62.6,0.5c0-2.1,0-4.1,0-6.2C392.9,150.2,372.2,150.7,351.5,151.3z"/>
	</g>
	<circle class="st2" cx="181" cy="143.4" r="25.5"/>
</g>
<path class="st2" d="M312.9,295.7H135.5c-7,0-12.7-5.7-12.7-12.7V105.6c0-7,5.7-12.7,12.7-12.7h177.4c7,0,12.7,5.7,12.7,12.7V283
	C325.5,290,319.8,295.7,312.9,295.7z"/>
<polyline class="st2" points="122.8,191.9 209.2,237.8 325.5,181.9 "/>
</svg>
