<svg width="40" height="38" viewBox="0 0 40 38" fill="none" xmlns="http://www.w3.org/2000/svg">
<path d="M37.3684 0H2.63158C1.9339 0.000835715 1.26503 0.278359 0.771695 0.771695C0.278359 1.26503 0.000835715 1.9339 0 2.63158V35.2632C0.000835715 35.9608 0.278359 36.6297 0.771695 37.123C1.26503 37.6164 1.9339 37.8939 2.63158 37.8947H37.3684C38.0661 37.8939 38.735 37.6164 39.2283 37.123C39.7216 36.6297 39.9992 35.9608 40 35.2632V2.63158C39.9992 1.9339 39.7216 1.26503 39.2283 0.771695C38.735 0.278359 38.0661 0.000835715 37.3684 0ZM2.63158 1.05263H37.3684C37.7871 1.05305 38.1884 1.21954 38.4844 1.51556C38.7805 1.81158 38.947 2.21294 38.9474 2.63158V6.31579H1.05263V2.63158C1.05305 2.21294 1.21954 1.81158 1.51556 1.51556C1.81158 1.21954 2.21294 1.05305 2.63158 1.05263ZM37.3684 36.8421H2.63158C2.21294 36.8417 1.81158 36.6752 1.51556 36.3792C1.21954 36.0832 1.05305 35.6818 1.05263 35.2632V7.36842H38.9474V35.2632C38.947 35.6818 38.7805 36.0832 38.4844 36.3792C38.1884 36.6752 37.7871 36.8417 37.3684 36.8421Z" fill="white"/>
<path d="M4.73617 5.26324C5.04846 5.26324 5.35373 5.17064 5.61339 4.99714C5.87305 4.82364 6.07542 4.57705 6.19493 4.28853C6.31444 4.00002 6.34571 3.68254 6.28478 3.37626C6.22386 3.06997 6.07348 2.78863 5.85266 2.56781C5.63184 2.34699 5.3505 2.19661 5.04421 2.13569C4.73793 2.07476 4.42045 2.10603 4.13194 2.22554C3.84342 2.34504 3.59682 2.54742 3.42333 2.80708C3.24983 3.06674 3.15723 3.37201 3.15723 3.68429C3.15764 4.10293 3.32413 4.5043 3.62015 4.80032C3.91617 5.09634 4.31754 5.26282 4.73617 5.26324ZM4.73617 3.15798C4.84027 3.15798 4.94203 3.18885 5.02858 3.24668C5.11513 3.30451 5.18259 3.38671 5.22243 3.48288C5.26226 3.57905 5.27268 3.68488 5.25238 3.78697C5.23207 3.88907 5.18194 3.98285 5.10834 4.05646C5.03473 4.13006 4.94095 4.18019 4.83885 4.2005C4.73676 4.22081 4.63093 4.21038 4.53476 4.17055C4.43859 4.13071 4.35639 4.06325 4.29856 3.9767C4.24073 3.89015 4.20986 3.78839 4.20986 3.68429C4.20986 3.54471 4.26531 3.41084 4.36401 3.31213C4.46272 3.21343 4.59659 3.15798 4.73617 3.15798ZM8.9467 5.26324C9.25899 5.26324 9.56426 5.17064 9.82392 4.99714C10.0836 4.82364 10.286 4.57705 10.4055 4.28853C10.525 4.00002 10.5562 3.68254 10.4953 3.37626C10.4344 3.06997 10.284 2.78863 10.0632 2.56781C9.84237 2.34699 9.56102 2.19661 9.25474 2.13569C8.94845 2.07476 8.63098 2.10603 8.34246 2.22554C8.05395 2.34504 7.80735 2.54742 7.63385 2.80708C7.46036 3.06674 7.36775 3.37201 7.36775 3.68429C7.36817 4.10293 7.53466 4.5043 7.83068 4.80032C8.1267 5.09634 8.52807 5.26282 8.9467 5.26324ZM8.9467 3.15798C9.0508 3.15798 9.15255 3.18885 9.23911 3.24668C9.32566 3.30451 9.39312 3.38671 9.43295 3.48288C9.47279 3.57905 9.48321 3.68488 9.4629 3.78697C9.4426 3.88907 9.39247 3.98285 9.31886 4.05646C9.24526 4.13006 9.15148 4.18019 9.04938 4.2005C8.94728 4.22081 8.84146 4.21038 8.74529 4.17055C8.64912 4.13071 8.56692 4.06325 8.50908 3.9767C8.45125 3.89015 8.42038 3.78839 8.42038 3.68429C8.42038 3.54471 8.47584 3.41084 8.57454 3.31213C8.67324 3.21343 8.80711 3.15798 8.9467 3.15798ZM13.1572 5.26324C13.4695 5.26324 13.7748 5.17064 14.0344 4.99714C14.2941 4.82364 14.4965 4.57705 14.616 4.28853C14.7355 4.00002 14.7668 3.68254 14.7058 3.37626C14.6449 3.06997 14.4945 2.78863 14.2737 2.56781C14.0529 2.34699 13.7716 2.19661 13.4653 2.13569C13.159 2.07476 12.8415 2.10603 12.553 2.22554C12.2645 2.34504 12.0179 2.54742 11.8444 2.80708C11.6709 3.06674 11.5783 3.37201 11.5783 3.68429C11.5787 4.10293 11.7452 4.5043 12.0412 4.80032C12.3372 5.09634 12.7386 5.26282 13.1572 5.26324ZM13.1572 3.15798C13.2613 3.15798 13.3631 3.18885 13.4496 3.24668C13.5362 3.30451 13.6036 3.38671 13.6435 3.48288C13.6833 3.57905 13.6937 3.68488 13.6734 3.78697C13.6531 3.88907 13.603 3.98285 13.5294 4.05646C13.4558 4.13006 13.362 4.18019 13.2599 4.2005C13.1578 4.22081 13.052 4.21038 12.9558 4.17055C12.8596 4.13071 12.7774 4.06325 12.7196 3.9767C12.6618 3.89015 12.6309 3.78839 12.6309 3.68429C12.6309 3.54471 12.6864 3.41084 12.7851 3.31213C12.8838 3.21343 13.0176 3.15798 13.1572 3.15798ZM25.7888 4.21061H36.3151C36.4547 4.21061 36.5886 4.15516 36.6873 4.05646C36.786 3.95775 36.8414 3.82388 36.8414 3.68429C36.8414 3.54471 36.786 3.41084 36.6873 3.31213C36.5886 3.21343 36.4547 3.15798 36.3151 3.15798H25.7888C25.6492 3.15798 25.5153 3.21343 25.4166 3.31213C25.3179 3.41084 25.2625 3.54471 25.2625 3.68429C25.2625 3.82388 25.3179 3.95775 25.4166 4.05646C25.5153 4.15516 25.6492 4.21061 25.7888 4.21061ZM30.5256 15.7896H17.3678C17.2282 15.7896 17.0943 15.845 16.9956 15.9437C16.8969 16.0424 16.8414 16.1763 16.8414 16.3159C16.8414 16.4555 16.8969 16.5893 16.9956 16.688C17.0943 16.7867 17.2282 16.8422 17.3678 16.8422H29.822L27.5004 24.7369H18.2962L15.2435 13.5459C15.2132 13.4345 15.1471 13.3363 15.0554 13.2662C14.9637 13.1961 14.8516 13.1581 14.7362 13.158H10.5256C10.3861 13.158 10.2522 13.2134 10.1535 13.3121C10.0548 13.4108 9.99933 13.5447 9.99933 13.6843C9.99933 13.8239 10.0548 13.9578 10.1535 14.0565C10.2522 14.1552 10.3861 14.2106 10.5256 14.2106H14.3341L17.2051 24.7369H14.2099C13.7911 24.7369 13.3895 24.9033 13.0934 25.1994C12.7973 25.4955 12.6309 25.8971 12.6309 26.3159C12.6309 26.7346 12.7973 27.1362 13.0934 27.4324C13.3895 27.7285 13.7911 27.8948 14.2099 27.8948H16.6078C16.4182 28.2134 16.3172 28.5768 16.3151 28.9474C16.3151 29.5058 16.5369 30.0413 16.9317 30.4361C17.3266 30.8309 17.862 31.0527 18.4204 31.0527C18.9787 31.0527 19.5142 30.8309 19.909 30.4361C20.3038 30.0413 20.5256 29.5058 20.5256 28.9474C20.5236 28.5768 20.4225 28.2134 20.233 27.8948H23.9762C23.7866 28.2134 23.6856 28.5768 23.6835 28.9474C23.6835 29.5058 23.9053 30.0413 24.3002 30.4361C24.695 30.8309 25.2305 31.0527 25.7888 31.0527C26.3472 31.0527 26.8826 30.8309 27.2775 30.4361C27.6723 30.0413 27.8941 29.5058 27.8941 28.9474C27.892 28.5768 27.791 28.2134 27.6014 27.8948H29.9993C30.1389 27.8948 30.2728 27.8394 30.3715 27.7407C30.4702 27.642 30.5256 27.5081 30.5256 27.3685C30.5256 27.2289 30.4702 27.095 30.3715 26.9963C30.2728 26.8976 30.1389 26.8422 29.9993 26.8422H14.2099C14.0703 26.8422 13.9364 26.7867 13.8377 26.688C13.739 26.5893 13.6835 26.4555 13.6835 26.3159C13.6835 26.1763 13.739 26.0424 13.8377 25.9437C13.9364 25.845 14.0703 25.7896 14.2099 25.7896H27.8941C28.0077 25.7895 28.1183 25.7527 28.2093 25.6846C28.3003 25.6164 28.3668 25.5207 28.3988 25.4117L31.0304 16.4643C31.0534 16.3858 31.0579 16.3031 31.0434 16.2226C31.0289 16.1421 30.9959 16.0661 30.9469 16.0006C30.8979 15.9351 30.8343 15.882 30.7612 15.8453C30.6881 15.8087 30.6074 15.7896 30.5256 15.7896ZM19.473 28.9474C19.473 29.1556 19.4113 29.3592 19.2956 29.5323C19.18 29.7054 19.0156 29.8403 18.8232 29.92C18.6309 29.9996 18.4192 30.0205 18.215 29.9799C18.0108 29.9392 17.8233 29.839 17.6761 29.6918C17.5288 29.5446 17.4286 29.357 17.388 29.1528C17.3474 28.9486 17.3682 28.737 17.4479 28.5446C17.5276 28.3523 17.6625 28.1879 17.8356 28.0722C18.0087 27.9566 18.2122 27.8948 18.4204 27.8948C18.6995 27.8951 18.9671 28.0061 19.1644 28.2034C19.3617 28.4008 19.4727 28.6684 19.473 28.9474ZM26.8414 28.9474C26.8414 29.1556 26.7797 29.3592 26.664 29.5323C26.5484 29.7054 26.384 29.8403 26.1916 29.92C25.9993 29.9996 25.7876 30.0205 25.5834 29.9799C25.3793 29.9392 25.1917 29.839 25.0445 29.6918C24.8973 29.5446 24.797 29.357 24.7564 29.1528C24.7158 28.9486 24.7366 28.737 24.8163 28.5446C24.896 28.3523 25.0309 28.1879 25.204 28.0722C25.3771 27.9566 25.5806 27.8948 25.7888 27.8948C26.0679 27.8951 26.3355 28.0061 26.5328 28.2034C26.7302 28.4008 26.8412 28.6684 26.8414 28.9474Z" fill="white"/>
<path d="M12.1058 16.8421C12.1058 16.7025 12.0504 16.5687 11.9517 16.4699C11.853 16.3712 11.7191 16.3158 11.5795 16.3158H6.31635C6.17677 16.3158 6.0429 16.3712 5.94419 16.4699C5.84549 16.5687 5.79004 16.7025 5.79004 16.8421C5.79004 16.9817 5.84549 17.1156 5.94419 17.2143C6.0429 17.313 6.17677 17.3684 6.31635 17.3684H11.5795C11.7191 17.3684 11.853 17.313 11.9517 17.2143C12.0504 17.1156 12.1058 16.9817 12.1058 16.8421ZM13.6848 19.4737C13.6848 19.3341 13.6293 19.2002 13.5306 19.1015C13.4319 19.0028 13.298 18.9474 13.1585 18.9474H8.42162C8.28203 18.9474 8.14816 19.0028 8.04946 19.1015C7.95075 19.2002 7.8953 19.3341 7.8953 19.4737C7.8953 19.6133 7.95075 19.7471 8.04946 19.8459C8.14816 19.9446 8.28203 20 8.42162 20H13.1585C13.298 20 13.4319 19.9446 13.5306 19.8459C13.6293 19.7471 13.6848 19.6133 13.6848 19.4737ZM15.2637 22.1053C15.2637 21.9657 15.2083 21.8318 15.1096 21.7331C15.0109 21.6344 14.877 21.579 14.7374 21.579H10.5269C10.3873 21.579 10.2534 21.6344 10.1547 21.7331C10.056 21.8318 10.0006 21.9657 10.0006 22.1053C10.0006 22.2449 10.056 22.3787 10.1547 22.4774C10.2534 22.5761 10.3873 22.6316 10.5269 22.6316H14.7374C14.877 22.6316 15.0109 22.5761 15.1096 22.4774C15.2083 22.3787 15.2637 22.2449 15.2637 22.1053Z" fill="white"/>
</svg>
