<svg width="100" height="96" viewBox="0 0 100 96" fill="none" xmlns="http://www.w3.org/2000/svg">
<path d="M64.4277 82.5628H85.3523C86.9703 82.5628 88.282 81.2511 88.282 79.6331C88.282 78.0151 86.9703 76.7034 85.3523 76.7034H64.4277C62.8098 76.7034 61.498 78.0151 61.498 79.6331C61.498 81.2511 62.8098 82.5628 64.4277 82.5628ZM69.9357 24.6956C71.5537 24.6956 72.8654 23.3839 72.8654 21.7659V12.5522H85.3523C86.9703 12.5522 88.282 11.2405 88.282 9.62256C88.282 8.00459 86.9703 6.69287 85.3523 6.69287H69.9357C68.3178 6.69287 67.0061 8.00459 67.0061 9.62256V21.7659C67.0061 23.3839 68.3178 24.6956 69.9357 24.6956ZM82.3953 47.3835H97.0711C98.6891 47.3835 100.001 46.0718 100.001 44.4538C100.001 42.8358 98.6891 41.5241 97.0711 41.5241H82.3953C80.7773 41.5241 79.4656 42.8358 79.4656 44.4538C79.4656 46.0718 80.7773 47.3835 82.3953 47.3835ZM78.0826 61.2597H90.409C92.027 61.2597 93.3387 59.948 93.3387 58.33C93.3387 56.712 92.027 55.4003 90.409 55.4003H78.0826C76.4646 55.4003 75.1529 56.712 75.1529 58.33C75.1529 59.948 76.4646 61.2597 78.0826 61.2597Z" fill="#CFDBFD"/>
<path d="M91.2113 14.9473C94.152 14.9473 96.5359 12.5634 96.5359 9.62271C96.5359 6.682 94.152 4.2981 91.2113 4.2981C88.2706 4.2981 85.8867 6.682 85.8867 9.62271C85.8867 12.5634 88.2706 14.9473 91.2113 14.9473Z" fill="#FFE370"/>
<path d="M91.2113 84.9578C94.152 84.9578 96.5359 82.5739 96.5359 79.6332C96.5359 76.6925 94.152 74.3086 91.2113 74.3086C88.2706 74.3086 85.8867 76.6925 85.8867 79.6332C85.8867 82.5739 88.2706 84.9578 91.2113 84.9578Z" fill="#FFE370"/>
<path d="M82.4219 9.62256C82.4219 4.77627 86.3646 0.833496 91.2109 0.833496C96.0572 0.833496 100 4.77627 100 9.62256C100 14.4688 96.0572 18.4116 91.2109 18.4116C86.3646 18.4116 82.4219 14.469 82.4219 9.62256ZM88.2812 9.62256C88.2812 11.238 89.5955 12.5522 91.2109 12.5522C92.8264 12.5522 94.1406 11.238 94.1406 9.62256C94.1406 8.00713 92.8264 6.69287 91.2109 6.69287C89.5955 6.69287 88.2812 8.00713 88.2812 9.62256ZM82.4219 79.6331C82.4219 74.7868 86.3646 70.844 91.2109 70.844C96.0572 70.844 100 74.7868 100 79.6331C100 84.4794 96.0572 88.4222 91.2109 88.4222C86.3646 88.4222 82.4219 84.4794 82.4219 79.6331ZM88.2812 79.6331C88.2812 81.2485 89.5955 82.5628 91.2109 82.5628C92.8264 82.5628 94.1406 81.2485 94.1406 79.6331C94.1406 78.0177 92.8264 76.7034 91.2109 76.7034C89.5955 76.7034 88.2812 78.0175 88.2812 79.6331Z" fill="#FFB54C"/>
<path d="M35.573 82.5628H14.6484C13.0305 82.5628 11.7188 81.2511 11.7188 79.6331C11.7188 78.0151 13.0305 76.7034 14.6484 76.7034H35.573C37.191 76.7034 38.5027 78.0151 38.5027 79.6331C38.5027 81.2511 37.191 82.5628 35.573 82.5628ZM30.065 24.6956C28.4471 24.6956 27.1354 23.3839 27.1354 21.7659V12.5522H14.6484C13.0305 12.5522 11.7188 11.2405 11.7188 9.62256C11.7188 8.00459 13.0305 6.69287 14.6484 6.69287H30.065C31.683 6.69287 32.9947 8.00459 32.9947 9.62256V21.7659C32.9947 23.3839 31.683 24.6956 30.065 24.6956ZM17.6055 47.3835H2.92969C1.31172 47.3835 0 46.0718 0 44.4538C0 42.8358 1.31172 41.5241 2.92969 41.5241H17.6055C19.2234 41.5241 20.5352 42.8358 20.5352 44.4538C20.5352 46.0718 19.2234 47.3835 17.6055 47.3835ZM21.9182 61.2597H9.5918C7.97383 61.2597 6.66211 59.948 6.66211 58.33C6.66211 56.712 7.97383 55.4003 9.5918 55.4003H21.9182C23.5361 55.4003 24.8479 56.712 24.8479 58.33C24.8479 59.948 23.5361 61.2597 21.9182 61.2597Z" fill="#E8F1FD"/>
<path d="M8.78945 14.9473C11.7302 14.9473 14.1141 12.5634 14.1141 9.62271C14.1141 6.682 11.7302 4.2981 8.78945 4.2981C5.84875 4.2981 3.46484 6.682 3.46484 9.62271C3.46484 12.5634 5.84875 14.9473 8.78945 14.9473Z" fill="#FFEFB2"/>
<path d="M8.78945 84.9578C11.7302 84.9578 14.1141 82.5739 14.1141 79.6332C14.1141 76.6925 11.7302 74.3086 8.78945 74.3086C5.84875 74.3086 3.46484 76.6925 3.46484 79.6332C3.46484 82.5739 5.84875 84.9578 8.78945 84.9578Z" fill="#FFEFB2"/>
<path d="M8.78906 18.4116C3.94277 18.4116 0 14.4688 0 9.62256C0 4.77627 3.94277 0.833496 8.78906 0.833496C13.6354 0.833496 17.5781 4.77627 17.5781 9.62256C17.5781 14.4688 13.6354 18.4116 8.78906 18.4116ZM8.78906 6.69287C7.17363 6.69287 5.85938 8.00713 5.85938 9.62256C5.85938 11.238 7.17363 12.5522 8.78906 12.5522C10.4045 12.5522 11.7188 11.238 11.7188 9.62256C11.7188 8.00713 10.4045 6.69287 8.78906 6.69287ZM8.78906 88.4222C3.94277 88.4222 0 84.4794 0 79.6331C0 74.7868 3.94277 70.844 8.78906 70.844C13.6354 70.844 17.5781 74.7868 17.5781 79.6331C17.5781 84.4794 13.6354 88.4222 8.78906 88.4222ZM8.78906 76.7034C7.17363 76.7034 5.85938 78.0177 5.85938 79.6331C5.85938 81.2485 7.17363 82.5628 8.78906 82.5628C10.4045 82.5628 11.7188 81.2485 11.7188 79.6331C11.7188 78.0177 10.4045 76.7034 8.78906 76.7034Z" fill="#FFE370"/>
<path d="M81.3288 48.438C77.8913 60.7095 69.6647 78.1645 50.0006 92.5747C34.2545 81.0571 23.7487 66.313 18.7506 48.7114C15.8756 38.5845 15.7213 30.2583 15.8424 26.563C36.0143 20.1353 45.8424 13.27 50.0006 9.62354C54.1588 13.27 63.987 20.1372 84.1627 26.563C84.2877 30.2114 84.1452 38.3794 81.3288 48.438Z" fill="#94E671"/>
<path d="M81.3281 48.438C77.8906 60.7095 69.6641 78.1645 50 92.5747V9.62354C54.1582 13.27 63.9863 20.1372 84.1621 26.563C84.2871 30.2114 84.1445 38.3794 81.3281 48.438Z" fill="#52CC7B"/>
<path d="M51.8118 90.8235L50.0001 88.6372C35.7501 78.2134 26.2403 64.8677 21.7169 48.938C19.1153 39.772 18.9766 32.2368 19.086 28.8931C37.3419 23.0747 46.2364 16.8618 50.0001 13.561L51.8118 11.7601V9.1792L50.0001 6.4458C49.0626 6.4458 48.2208 6.89502 47.67 7.65283C47.3634 8.02393 40.2833 16.2935 15.4298 23.897C14.3165 24.2368 13.5099 25.2056 13.377 26.3638C13.3282 26.7837 12.2364 36.8149 16.004 50.27C18.2055 58.1366 21.6443 65.6029 26.1915 72.3892C31.8692 80.8696 39.3145 88.356 48.3243 94.6392C48.8282 94.9907 49.4141 95.1665 50.0001 95.1665L51.8118 92.8097V90.8235Z" fill="#52CC7B"/>
<path d="M51.6904 28.5276L50 26.1235C43.084 26.1235 37.457 31.7505 37.457 38.6665V43.2036C37.457 44.8208 38.7695 46.1333 40.3867 46.1333C42.0059 46.1333 43.3164 44.8208 43.3164 43.2036V38.6665C43.3164 34.981 46.3145 31.9829 50 31.9829L51.6904 30.1108V28.5276Z" fill="#404A80"/>
<path d="M83.9961 50.27C81.7945 58.1366 78.3557 65.6029 73.8086 72.3892C68.1309 80.8696 60.6855 88.356 51.6758 94.6392C51.1719 94.9907 50.5859 95.1665 50 95.1665V88.6372C67.7969 75.5942 75.2422 59.7974 78.3535 48.6899C80.9023 39.5864 81.0312 32.1938 80.918 28.8931C62.6582 23.0767 53.7637 16.8618 50 13.561V6.4458C50.9375 6.4458 51.7793 6.89502 52.3301 7.65283C52.6367 8.02393 59.7168 16.2935 84.5703 23.897C85.6836 24.2368 86.4902 25.2056 86.623 26.3638C86.6719 26.7837 87.7637 36.8149 83.9961 50.27Z" fill="#3D997A"/>
<path d="M62.543 38.6665V43.2036C62.543 44.8208 61.2305 46.1333 59.6133 46.1333C57.9941 46.1333 56.6836 44.8208 56.6836 43.2036V38.6665C56.6836 34.981 53.6855 31.9829 50 31.9829V26.1235C56.916 26.1235 62.543 31.7505 62.543 38.6665Z" fill="#283366"/>
<path d="M52.6215 46.1325L50 40.2739H39.2187C36.2734 40.2739 33.8789 42.6685 33.8789 45.6138V62.3911C33.8789 65.3364 36.2734 67.731 39.2187 67.731H50L52.6215 60.7388V46.1325Z" fill="#FFE370"/>
<path d="M66.1211 45.6138V62.3911C66.1211 65.3364 63.7266 67.731 60.7813 67.731H50V40.2739H60.7813C63.7266 40.2739 66.1211 42.6685 66.1211 45.6138Z" fill="#FFB54C"/>
<path d="M52.9297 52.5786V55.4263C52.9297 57.0454 51.6172 58.356 50 58.356C48.3828 58.356 47.0703 57.0454 47.0703 55.4263V52.5786C47.0703 50.9595 48.3828 49.6489 50 49.6489C51.6172 49.6489 52.9297 50.9593 52.9297 52.5786Z" fill="#404A80"/>
<path d="M52.9297 52.5786V55.4263C52.9297 57.0454 51.6172 58.356 50 58.356V49.6489C51.6172 49.6489 52.9297 50.9593 52.9297 52.5786Z" fill="#283366"/>
</svg>
