<?xml version="1.0" encoding="utf-8"?>
<!-- Generator: Adobe Illustrator 25.4.1, SVG Export Plug-In . SVG Version: 6.00 Build 0)  -->
<svg version="1.1" id="Layer_1" xmlns="http://www.w3.org/2000/svg" xmlns:xlink="http://www.w3.org/1999/xlink" x="0px" y="0px"
	 viewBox="0 0 432.5 432.4" style="enable-background:new 0 0 432.5 432.4;" xml:space="preserve">
<style type="text/css">
	.st0{display:none;}
	.st1{fill:#404A63;}
	.st2{fill:#3B64C4;}
</style>
<desc>Created with Fabric.js 4.2.0</desc>
<g id="a3b9c5fe-1a07-45aa-90b4-c332306b0ce9" transform="matrix(1 0 0 1 540 540)" class="st0">
</g>
<g transform="matrix(1.05 0 0 1.05 540 540)">
	<g vector-effect="non-scaling-stroke">
		<g transform="matrix(0.13 0 0 0.13 169.11 48.63)">
			<path vector-effect="non-scaling-stroke" class="st1" d="M-2300.2-2540.4h-143.4c-116.7,0-211.6,94.9-211.6,211.6v94.9
				c0,15.4,12.5,27.8,27.8,27.8h510.9c15.4,0,27.8-12.5,27.8-27.8v-94.9C-2088.6-2445.5-2183.5-2540.4-2300.2-2540.4z
				 M-2144.3-2261.8h-455.3v-67c0-86,69.9-155.9,155.9-155.9h143.4c86,0,155.9,69.9,155.9,155.9v67H-2144.3z"/>
		</g>
		<g transform="matrix(0.13 0 0 0.13 169.12 -8.35)">
			<path vector-effect="non-scaling-stroke" class="st1" d="M-2561.5-2373.3c0,104.5,85,189.6,189.6,189.6
				c104.5,0,189.6-85,189.6-189.6s-85-189.6-189.6-189.6C-2476.5-2562.9-2561.5-2477.9-2561.5-2373.3z M-2238-2373.3
				c0,73.9-60.1,133.9-133.9,133.9c-73.9,0-133.9-60.1-133.9-133.9s60.1-133.9,133.9-133.9C-2298.1-2507.3-2238-2447.2-2238-2373.3z
				"/>
		</g>
		<g transform="matrix(0.13 0 0 0.13 0.01 53.76)">
			<path vector-effect="non-scaling-stroke" class="st2" d="M-1763.7-2675h-294.1l-176.1-176.1c-10.9-10.9-28.5-10.9-39.3,0
				c-10.9,10.9-10.9,28.5,0,39.3l136.8,136.8h-443.7l136.9-136.8c10.9-10.9,10.9-28.5,0-39.3c-10.9-10.9-28.5-10.9-39.3,0
				l-176.3,176.1h-321.4c-16,0-31.5,7.3-42.4,20.1c-12.4,14.6-18,35.2-14.7,55l0,0l52.4,322.9c0,0.1,0,0.2,0,0.3l54.7,336.9
				c4.9,30.4,29,52.5,57.1,52.5h298.6l0,0h0.1h432.4h0.1l0,0h271.1c28.2,0,52.2-22.1,57.1-52.5l54.7-337c0-0.1,0-0.1,0-0.2l52.4-323
				c3.2-19.8-2.3-40.3-14.7-55C-1732.2-2667.7-1747.6-2675-1763.7-2675z M-1761.5-2608.8l-48.7,299.9H-2075l30.8-310.4h279.9
				C-1762.9-2618.3-1760.6-2614.3-1761.5-2608.8z M-2549.4-1942.8l-30.8-310.4h443.8l-30.8,310.4L-2549.4-1942.8L-2549.4-1942.8z
				 M-2585.7-2308.9l-30.8-310.4h516.5l-30.8,310.4H-2585.7L-2585.7-2308.9z M-2979.8-2619.3h307.4l30.8,310.4h-292.2l-48.7-299.9
				C-2983.4-2614.3-2981.1-2618.3-2979.8-2619.3z M-2875.4-1948.6l-49.4-304.6h288.7l30.8,310.4h-267.4
				C-2873.3-1943.4-2874.8-1945.1-2875.4-1948.6z M-1868.6-1948.6c-0.6,3.5-2.1,5.3-2.7,5.8h-239.9l30.8-310.4h261.3L-1868.6-1948.6
				z"/>
		</g>
		<g transform="matrix(0.13 0 0 0.13 0.01 160.93)">
			<path vector-effect="non-scaling-stroke" class="st1" d="M-1768.4-2708c-15.4,0-27.8,12.5-27.8,27.8v350.2h-1151.4v-362.7
				c0-15.4-12.5-27.8-27.8-27.8c-15.4,0-27.8,12.5-27.8,27.8v555.6c0,61.2,49.8,111,111,111h1040.6c61.2,0,111-49.8,111-111v-543.1
				C-1740.6-2695.6-1753.1-2708-1768.4-2708z M-1851.6-2081.8h-1040.6c-30.5,0-55.3-24.8-55.3-55.3v-137.2h1151.3v137.2
				C-1796.2-2106.6-1821.1-2081.8-1851.6-2081.8z"/>
		</g>
		<g transform="matrix(0.13 0 0 0.13 0.01 -40.53)">
			<path vector-effect="non-scaling-stroke" class="st1" d="M-1768.4-2006.3c15.4,0,27.8-12.5,27.8-27.8v-595.1
				c0-61.2-49.8-111-111-111h-1040.6c-61.2,0-111,49.8-111,111v595.1c0,15.4,12.5,27.8,27.8,27.8c15.4,0,27.8-12.5,27.8-27.8v-402.3
				h1151.3v402.3C-1796.2-2018.7-1783.8-2006.3-1768.4-2006.3z M-2947.6-2492v-137.2c0-30.5,24.8-55.3,55.3-55.3h1040.6
				c30.5,0,55.3,24.8,55.3,55.3v137.2H-2947.6z"/>
		</g>
		<g transform="matrix(0.13 0 0 0.13 -169.11 48.63)">
			<path vector-effect="non-scaling-stroke" class="st1" d="M-2300.1-2540.4h-143.5c-116.7,0-211.6,94.9-211.6,211.6v94.9
				c0,15.4,12.5,27.8,27.8,27.8h510.9c15.4,0,27.8-12.5,27.8-27.8v-94.9C-2088.6-2445.5-2183.5-2540.4-2300.1-2540.4z
				 M-2144.2-2261.8h-455.3v-67c0-86,69.9-155.9,155.9-155.9h143.4c86,0,155.9,69.9,155.9,155.9L-2144.2-2261.8L-2144.2-2261.8z"/>
		</g>
		<g transform="matrix(0.13 0 0 0.13 -169.11 -8.36)">
			<path vector-effect="non-scaling-stroke" class="st1" d="M-2371.9-2183.7c104.5,0,189.6-85,189.6-189.6s-85-189.6-189.6-189.6
				s-189.6,85-189.6,189.6S-2476.4-2183.7-2371.9-2183.7z M-2371.9-2507.2c73.9,0,133.9,60.1,133.9,133.9
				c0,73.8-60.1,133.9-133.9,133.9c-73.8,0-133.9-60.1-133.9-133.9C-2505.8-2447.1-2445.7-2507.2-2371.9-2507.2z"/>
		</g>
		<g transform="matrix(0.13 0 0 0.13 2.94 -124.13)">
			<path vector-effect="non-scaling-stroke" class="st1" d="M-2627.3-2206.1h510.9c15.4,0,27.8-12.5,27.8-27.8v-94.9
				c0-116.7-94.9-211.6-211.6-211.6h-143.4c-116.7,0-211.6,94.9-211.6,211.6v94.9C-2655.1-2218.5-2642.6-2206.1-2627.3-2206.1z
				 M-2599.5-2328.7c0-86,69.9-155.9,155.9-155.9h143.4c86,0,155.9,69.9,155.9,155.9v67h-455.3L-2599.5-2328.7L-2599.5-2328.7z"/>
		</g>
		<g transform="matrix(0.13 0 0 0.13 2.95 -181.11)">
			<path vector-effect="non-scaling-stroke" class="st1" d="M-2371.9-2183.7c104.5,0,189.6-85,189.6-189.6s-85-189.6-189.6-189.6
				c-104.5,0-189.6,85-189.6,189.6S-2476.4-2183.7-2371.9-2183.7z M-2371.9-2507.2c73.9,0,133.9,60.1,133.9,133.9
				s-60.1,133.9-133.9,133.9c-73.9,0-133.9-60.1-133.9-133.9S-2445.8-2507.2-2371.9-2507.2z"/>
		</g>
		<g transform="matrix(0.13 0 0 0.13 -115.51 -105.56)">
			<path vector-effect="non-scaling-stroke" class="st2" d="M-2065-2522.1c-6.5,13.9-0.4,30.5,13.5,37c3.8,1.8,7.8,2.6,11.7,2.6
				c10.5,0,20.5-6,25.2-16.1l103.1-221.7c0-0.1,0.1-0.1,0.1-0.2c0.1-0.2,0.2-0.4,0.3-0.7c0.1-0.2,0.2-0.4,0.2-0.6
				c0.1-0.2,0.2-0.5,0.3-0.7s0.1-0.4,0.2-0.5c0.1-0.3,0.2-0.6,0.3-0.9c0-0.1,0.1-0.3,0.1-0.4c0.1-0.3,0.2-0.7,0.3-1.1
				c0-0.1,0-0.2,0.1-0.2c0.8-3.4,1-7.1,0.4-10.7c0-0.1,0-0.1,0-0.2c-0.1-0.3-0.1-0.6-0.2-1c0-0.1-0.1-0.3-0.1-0.4
				c-0.1-0.2-0.1-0.5-0.2-0.7s-0.1-0.4-0.2-0.7c-0.1-0.2-0.1-0.4-0.2-0.6c-0.1-0.3-0.2-0.5-0.2-0.8v-0.1c0-0.1-0.1-0.3-0.2-0.4
				c-0.1-0.2-0.1-0.4-0.2-0.6v-0.1c-0.3-0.8-0.6-1.6-1-2.3c0-0.1-0.1-0.1-0.1-0.2c-0.4-0.8-0.8-1.6-1.3-2.3c0,0,0,0,0-0.1
				c-0.5-0.8-1-1.5-1.5-2.2l0,0c-0.6-0.7-1.1-1.4-1.8-2.1l0,0c-0.6-0.7-1.2-1.3-1.9-1.9c0,0,0,0-0.1-0.1c-0.7-0.6-1.3-1.1-2-1.6
				l-0.1-0.1c-0.7-0.5-1.4-1-2.1-1.4c-0.1,0-0.1-0.1-0.2-0.1c-0.8-0.4-1.5-0.8-2.3-1.2c0,0,0,0-0.1,0l-220.1-99.7
				c-14-6.3-30.5-0.1-36.8,13.9s-0.1,30.5,13.9,36.8l157.3,71.3c-76.8,29.4-151.1,65.4-221.8,107.6
				c-89.4,53.3-173.3,116.6-249.4,188.1c-75.9,71.4-144.2,151.1-202.9,236.9c-59.4,86.8-109.2,180.1-148.1,277.5
				c-5.7,14.3,1.2,30.5,15.5,36.2c3.4,1.4,6.9,2,10.3,2c11,0,21.5-6.6,25.8-17.5c144.3-361,430.8-641.9,791.7-779.2L-2065-2522.1z"
				/>
		</g>
		<g transform="matrix(0.13 0 0 0.13 115.67 -100.9)">
			<path vector-effect="non-scaling-stroke" class="st2" d="M-2010.8-1961.3c3.3,0,6.5-0.6,9.7-1.7c7-2.6,12.6-7.8,15.7-14.6
				l99.7-220.1c6.3-14,0.1-30.5-13.9-36.8s-30.5-0.1-36.8,13.9l-74,163.4c-34.4-70.6-74.7-138.5-120.2-202.6
				c-56.4-79.4-121.2-153.5-192.6-220c-71.5-66.7-150-126.2-233.3-176.9c-84.3-51.4-174.2-94.1-267.1-127
				c-14.5-5.1-30.4,2.5-35.5,16.9c-5.1,14.5,2.5,30.4,16.9,35.5c336.7,119.2,615.8,367,775.3,685.5l-153.9-71.6
				c-13.9-6.5-30.5-0.4-37,13.5s-0.4,30.5,13.5,37l221.7,103.1C-2018.8-1962.2-2014.8-1961.3-2010.8-1961.3z"/>
		</g>
	</g>
</g>
</svg>
