<svg width="100" height="100" viewBox="0 0 100 100" fill="none" xmlns="http://www.w3.org/2000/svg">
<g clip-path="url(#clip0_2114_6596)">
<path fill-rule="evenodd" clip-rule="evenodd" d="M50.0225 1.66016C41.341 1.7668 34.3398 8.42012 34.3398 16.6135C34.3398 26.8004 41.7891 29.3707 42.8197 35.9584H57.2252C58.2561 29.3707 65.7051 26.8002 65.7051 16.6135C65.7051 8.42031 58.7041 1.7668 50.0225 1.66016Z" fill="#FFD54F"/>
<path fill-rule="evenodd" clip-rule="evenodd" d="M51.1721 35.9583L48.4891 34.7757L43.8301 15.0076L50.0232 21.2169L56.2164 15.0076L51.1721 35.9583Z" fill="#FFB700"/>
<path fill-rule="evenodd" clip-rule="evenodd" d="M56.7129 42.8452C56.385 46.1601 53.5168 48.7517 50.0264 48.7517C46.518 48.7517 43.6381 46.1329 43.3354 42.7935L42.3691 38.1821H57.6787L56.7129 42.8452Z" fill="#D1D3D3"/>
<path fill-rule="evenodd" clip-rule="evenodd" d="M42.3691 33.5767H57.6787C58.9451 33.5767 59.9814 34.6128 59.9814 35.8792C59.9814 37.1456 58.9453 38.1817 57.6787 38.1817C58.9451 38.1817 59.9814 39.2179 59.9814 40.4845C59.9814 41.7509 58.9453 42.7872 57.6787 42.7872H42.3691C41.1025 42.7872 40.0664 41.7511 40.0664 40.4845C40.0664 39.2181 41.1025 38.1817 42.3691 38.1817C41.1025 38.1817 40.0664 37.1456 40.0664 35.8792C40.0664 34.613 41.1025 33.5767 42.3691 33.5767Z" fill="#E0DFE1"/>
<path fill-rule="evenodd" clip-rule="evenodd" d="M42.3691 38.1819H57.6787C58.9451 38.1819 59.9814 37.1458 59.9814 35.8794C59.9814 34.6108 58.9434 33.5767 57.6787 33.5767H42.3691C41.1047 33.5767 40.0664 34.6108 40.0664 35.8794C40.0666 37.1458 41.1027 38.1819 42.3691 38.1819Z" fill="#F0F0F0"/>
<path fill-rule="evenodd" clip-rule="evenodd" d="M25.9631 5.13565C25.6277 4.94292 25.3826 4.62487 25.2817 4.25144C25.1809 3.87802 25.2325 3.47981 25.4252 3.14444C25.6179 2.80906 25.936 2.56397 26.3094 2.4631C26.6828 2.36222 27.081 2.41382 27.4164 2.60654L31.4986 4.96338C31.834 5.1561 32.0791 5.47416 32.18 5.84759C32.2808 6.22101 32.2292 6.61921 32.0365 6.95459C31.8438 7.28997 31.5257 7.53506 31.1523 7.63593C30.7789 7.7368 30.3807 7.6852 30.0453 7.49248L25.9631 5.13565ZM74.0844 29.5501C74.4198 29.7428 74.6648 30.0609 74.7657 30.4343C74.8666 30.8077 74.815 31.2059 74.6223 31.5413C74.4295 31.8767 74.1115 32.1218 73.7381 32.2226C73.3646 32.3235 72.9664 32.2719 72.6311 32.0792L68.5488 29.7224C68.3828 29.6269 68.2371 29.4997 68.1202 29.348C68.0033 29.1963 67.9174 29.0231 67.8675 28.8382C67.8175 28.6533 67.8045 28.4603 67.8291 28.2704C67.8537 28.0805 67.9155 27.8972 68.0109 27.7312C68.1064 27.5651 68.2336 27.4195 68.3853 27.3025C68.537 27.1856 68.7102 27.0998 68.8951 27.0498C69.08 26.9999 69.273 26.9868 69.4629 27.0114C69.6529 27.0361 69.8361 27.0978 70.0021 27.1933L74.0844 29.5501ZM76.9674 15.878C77.3559 15.878 77.7285 16.0324 78.0032 16.3071C78.2779 16.5818 78.4322 16.9544 78.4322 17.3429C78.4322 17.7314 78.2779 18.104 78.0032 18.3787C77.7285 18.6534 77.3559 18.8077 76.9674 18.8077H72.2537C71.8652 18.8077 71.4926 18.6534 71.2179 18.3787C70.9432 18.104 70.7889 17.7314 70.7889 17.3429C70.7889 16.9544 70.9432 16.5818 71.2179 16.3071C71.4926 16.0324 71.8652 15.878 72.2537 15.878H76.9674ZM72.6311 2.60654C73.3295 2.20518 74.2209 2.446 74.6223 3.14444C75.0236 3.84287 74.7828 4.73428 74.0844 5.13565L70.0021 7.49248C69.8361 7.58792 69.6529 7.64971 69.4629 7.67433C69.273 7.69894 69.08 7.68591 68.8951 7.63596C68.7102 7.58601 68.537 7.50013 68.3853 7.38322C68.2336 7.26631 68.1064 7.12066 68.0109 6.95459C67.9155 6.78853 67.8537 6.6053 67.8291 6.41536C67.8045 6.22541 67.8175 6.03248 67.8675 5.84758C67.9174 5.66267 68.0033 5.48942 68.1202 5.33771C68.2371 5.186 68.3828 5.0588 68.5488 4.96338L72.6311 2.60654ZM27.4166 32.0794C27.2505 32.1748 27.0673 32.2366 26.8774 32.2612C26.6874 32.2859 26.4945 32.2728 26.3096 32.2229C26.1247 32.1729 25.9514 32.087 25.7997 31.9701C25.648 31.8532 25.5208 31.7076 25.4254 31.5415C25.33 31.3754 25.2682 31.1922 25.2435 31.0023C25.2189 30.8123 25.232 30.6194 25.2819 30.4345C25.3319 30.2496 25.4177 30.0763 25.5347 29.9246C25.6516 29.7729 25.7972 29.6457 25.9633 29.5503L30.0453 27.1935C30.2114 27.098 30.3946 27.0362 30.5845 27.0116C30.7745 26.987 30.9674 27 31.1523 27.05C31.3372 27.0999 31.5105 27.1858 31.6622 27.3027C31.8139 27.4196 31.9411 27.5653 32.0365 27.7313C32.132 27.8974 32.1937 28.0806 32.2184 28.2706C32.243 28.4605 32.2299 28.6535 32.18 28.8384C32.13 29.0233 32.0442 29.1965 31.9273 29.3482C31.8104 29.4999 31.6647 29.6271 31.4986 29.7226L27.4166 32.0794ZM23.0801 18.8079C22.6916 18.8079 22.319 18.6536 22.0443 18.3789C21.7696 18.1042 21.6152 17.7316 21.6152 17.3431C21.6152 16.9546 21.7696 16.582 22.0443 16.3073C22.319 16.0326 22.6916 15.8782 23.0801 15.8782H27.7937C28.1822 15.8782 28.5548 16.0326 28.8295 16.3073C29.1043 16.582 29.2586 16.9546 29.2586 17.3431C29.2586 17.7316 29.1043 18.1042 28.8295 18.3789C28.5548 18.6536 28.1822 18.8079 27.7937 18.8079H23.0801Z" fill="#FFD54F"/>
<path fill-rule="evenodd" clip-rule="evenodd" d="M26.8082 60.872C26.6421 60.9674 26.4589 61.0292 26.269 61.0538C26.079 61.0784 25.8861 61.0654 25.7012 61.0155C25.5163 60.9655 25.343 60.8796 25.1913 60.7627C25.0396 60.6458 24.9124 60.5002 24.817 60.3341C24.7216 60.168 24.6598 59.9848 24.6351 59.7949C24.6105 59.6049 24.6236 59.412 24.6735 59.2271C24.7235 59.0422 24.8093 58.8689 24.9263 58.7172C25.0432 58.5655 25.1888 58.4383 25.3549 58.3429L36.8682 51.713L35.4172 51.3241C35.0423 51.224 34.7226 50.979 34.5284 50.6431C34.3341 50.3073 34.2813 49.908 34.3814 49.5331C34.4816 49.1583 34.7266 48.8386 35.0624 48.6443C35.3983 48.4501 35.7976 48.3972 36.1725 48.4974L41.0353 49.8003C41.4102 49.9005 41.7299 50.1455 41.9241 50.4813C42.1183 50.8172 42.1712 51.2165 42.0711 51.5913L40.768 56.4542C40.6638 56.8245 40.4179 57.1389 40.0836 57.3293C39.7494 57.5197 39.3535 57.5708 38.9819 57.4715C38.6102 57.3722 38.2926 57.1305 38.0979 56.7987C37.9031 56.467 37.8468 56.0719 37.9412 55.6989L38.3334 54.2351L26.8082 60.872ZM74.631 58.2917C74.9618 58.4883 75.2017 58.8074 75.2987 59.1797C75.3956 59.552 75.3419 59.9476 75.1491 60.2805C74.9562 60.6135 74.6399 60.857 74.2687 60.9582C73.8975 61.0593 73.5013 61.0101 73.1662 60.821L61.6697 54.1659L62.058 55.615C62.1582 55.9898 62.1053 56.3891 61.9111 56.725C61.7168 57.0609 61.3971 57.3058 61.0223 57.406C60.6474 57.5061 60.2481 57.4533 59.9122 57.259C59.5764 57.0648 59.3314 56.7451 59.2312 56.3702L57.9281 51.5073C57.828 51.1325 57.8809 50.7332 58.0751 50.3973C58.2693 50.0615 58.589 49.8165 58.9639 49.7163L63.8268 48.4134C64.1997 48.319 64.5948 48.3753 64.9265 48.57C65.2583 48.7648 65.5 49.0824 65.5993 49.4541C65.6986 49.8257 65.6475 50.2216 65.4571 50.5558C65.2667 50.8901 64.9523 51.136 64.582 51.2402L63.124 51.6308L74.631 58.2917ZM51.4641 73.3855C51.4641 73.7725 51.3103 74.1436 51.0367 74.4173C50.763 74.6909 50.3919 74.8446 50.0049 74.8446C49.6179 74.8446 49.2467 74.6909 48.9731 74.4173C48.6994 74.1436 48.5457 73.7725 48.5457 73.3855L48.5607 60.0997L47.4996 61.1609C47.2236 61.429 46.8531 61.5778 46.4683 61.5751C46.0835 61.5723 45.7152 61.4182 45.443 61.1461C45.1709 60.874 45.0168 60.5057 45.014 60.1209C45.0112 59.7361 45.16 59.3656 45.4281 59.0896L48.9881 55.5296C49.2628 55.255 49.6354 55.1007 50.0238 55.1007C50.4123 55.1007 50.7848 55.255 51.0596 55.5296L54.6195 59.0896C54.8864 59.3658 55.034 59.7359 55.0307 60.1199C55.0273 60.504 54.8733 60.8714 54.6017 61.143C54.3301 61.4146 53.9627 61.5687 53.5786 61.572C53.1945 61.5753 52.8245 61.4277 52.5482 61.1609L51.4791 60.0917L51.4641 73.3855Z" fill="#C8C9CD"/>
<path d="M28.6802 76.4316C34.0496 71.0622 34.0496 62.3567 28.6802 56.9873C23.3108 51.6179 14.6052 51.6179 9.23584 56.9873C3.86643 62.3567 3.86643 71.0622 9.23584 76.4316C14.6052 81.801 23.3108 81.801 28.6802 76.4316Z" fill="#706C64"/>
<path fill-rule="evenodd" clip-rule="evenodd" d="M21.2854 71.3462H16.6494C13.3713 71.5815 10.6709 73.9925 9.99414 77.1331C12.4021 79.2089 15.5379 80.4638 18.9674 80.4638C22.3967 80.4638 25.5324 79.2089 27.9404 77.1331C27.2639 73.9927 24.5635 71.5815 21.2854 71.3462Z" fill="#43A2FF"/>
<path d="M18.968 71.8509C21.8401 71.8509 24.1684 69.5512 24.1684 66.7144C24.1684 63.8776 21.8401 61.5779 18.968 61.5779C16.0959 61.5779 13.7676 63.8776 13.7676 66.7144C13.7676 69.5512 16.0959 71.8509 18.968 71.8509Z" fill="#FEDFC5"/>
<path d="M94.5851 68.8271C95.7992 61.3313 90.7068 54.2705 83.211 53.0565C75.7152 51.8424 68.6545 56.9348 67.4404 64.4306C66.2264 71.9264 71.3187 78.9871 78.8145 80.2012C86.3103 81.4152 93.3711 76.3229 94.5851 68.8271Z" fill="#706C64"/>
<path fill-rule="evenodd" clip-rule="evenodd" d="M83.3498 71.2659H78.7139C75.4357 71.5012 72.7352 73.9122 72.0586 77.0528C74.4666 79.1286 77.6023 80.3834 81.0318 80.3834C84.4611 80.3834 87.5969 79.1286 90.0051 77.0528C89.3283 73.9122 86.6277 71.5012 83.3498 71.2659Z" fill="#6CE75A"/>
<path d="M81.0324 71.7706C83.9045 71.7706 86.2328 69.4709 86.2328 66.6341C86.2328 63.7973 83.9045 61.4976 81.0324 61.4976C78.1603 61.4976 75.832 63.7973 75.832 66.6341C75.832 69.4709 78.1603 71.7706 81.0324 71.7706Z" fill="#FEDFC5"/>
<path d="M50.0227 98.3397C57.6161 98.3397 63.7719 92.184 63.7719 84.5905C63.7719 76.997 57.6161 70.8413 50.0227 70.8413C42.4292 70.8413 36.2734 76.997 36.2734 84.5905C36.2734 92.184 42.4292 98.3397 50.0227 98.3397Z" fill="#706C64"/>
<path fill-rule="evenodd" clip-rule="evenodd" d="M52.342 89.2224H47.7061C44.4279 89.4578 41.7275 91.8687 41.0508 95.0093C43.4588 97.0851 46.5947 98.34 50.024 98.34C53.4533 98.34 56.5891 97.0851 58.9973 95.0093C58.3205 91.8687 55.6199 89.4578 52.342 89.2224Z" fill="#FF6372"/>
<path d="M50.0227 89.7272C52.8948 89.7272 55.223 87.4275 55.223 84.5906C55.223 81.7538 52.8948 79.4541 50.0227 79.4541C47.1506 79.4541 44.8223 81.7538 44.8223 84.5906C44.8223 87.4275 47.1506 89.7272 50.0227 89.7272Z" fill="#FEDFC5"/>
</g>
<defs>
<clipPath id="clip0_2114_6596">
<rect width="100" height="100" fill="white"/>
</clipPath>
</defs>
</svg>
