<svg width="100" height="100" viewBox="0 0 100 100" fill="none" xmlns="http://www.w3.org/2000/svg">
<path d="M93.0102 56.7945H78.6918C82.4443 56.7945 85.4863 53.7525 85.4863 50C85.4863 46.2475 82.4443 43.2055 78.6918 43.2055H93.0102C96.7627 43.2055 99.8047 40.1635 99.8047 36.4109C99.8047 32.6584 96.7627 29.6164 93.0102 29.6164H51.8316C55.5842 29.6164 58.6262 26.5744 58.6262 22.8219C58.6262 19.0693 55.5842 16.0273 51.8316 16.0273H6.98984C3.2373 16.0275 0.195312 19.0695 0.195312 22.8221C0.195312 26.5746 3.2373 29.6166 6.98984 29.6166H21.3082C17.5557 29.6166 14.5137 32.6586 14.5137 36.4111C14.5137 40.1637 17.5557 43.2057 21.3082 43.2057H6.98984C3.2373 43.2055 0.195312 46.2475 0.195312 50C0.195312 53.7523 3.2373 56.7945 6.98984 56.7945H21.3082C17.5557 56.7945 14.5137 59.8365 14.5137 63.5891C14.5137 67.3416 17.5557 70.3836 21.3082 70.3836H12.4613C8.70879 70.3836 5.6668 73.4256 5.6668 77.1781C5.6668 80.9307 8.70879 83.9727 12.4613 83.9727H84.1633C87.9158 83.9727 90.9578 80.9307 90.9578 77.1781C90.9578 73.4256 87.9158 70.3836 84.1633 70.3836H93.0102C96.7627 70.3836 99.8047 67.3416 99.8047 63.5891C99.8047 59.8365 96.7627 56.7945 93.0102 56.7945Z" fill="url(#paint0_linear_2115_6637)"/>
<path d="M84.676 47.9659V52.0342C84.676 53.4063 83.5879 54.4944 82.216 54.4944H77.6271C77.3197 56.3631 76.8229 58.1846 76.1605 59.9586L80.158 62.253C81.317 62.9153 81.7191 64.4293 81.0568 65.5883L79.0229 69.1127C78.3605 70.2717 76.8465 70.6741 75.6639 70.0116L71.69 67.6936C70.4908 69.1529 69.1519 70.4918 67.6926 71.6911L70.0105 75.6885C70.6729 76.8479 70.2709 78.3618 69.1119 79.0241L65.5639 81.0581C64.4047 81.7442 62.9145 81.3422 62.2285 80.1594L59.9342 76.1618C58.1666 76.8326 56.336 77.3239 54.4701 77.6284V82.2409C54.4706 82.561 54.4079 82.878 54.2856 83.1738C54.1633 83.4697 53.9839 83.7384 53.7575 83.9648C53.5312 84.1911 53.2624 84.3706 52.9666 84.4929C52.6707 84.6151 52.3537 84.6779 52.0336 84.6774H47.9652C46.617 84.6774 45.5051 83.5893 45.5051 82.2409V77.6284C43.6475 77.3211 41.825 76.8298 40.0647 76.1618L37.7467 80.1594C37.0844 81.342 35.5941 81.744 34.4113 81.0581L30.8869 79.0241C29.7279 78.3618 29.3258 76.8477 29.9881 75.6885L32.3063 71.6911C30.8468 70.4919 29.508 69.153 28.3088 67.6936L24.3113 70.0116C23.1521 70.6739 21.6621 70.2717 20.976 69.1127L18.9418 65.5883C18.2795 64.4293 18.6816 62.9155 19.8406 62.253L23.8381 59.9586C23.1758 58.1846 22.6791 56.3631 22.3715 54.4944H17.7588C16.4105 54.4944 15.3223 53.4063 15.3223 52.0342V47.9659C15.3218 47.6458 15.3845 47.3287 15.5068 47.0329C15.6291 46.7371 15.8085 46.4683 16.0349 46.242C16.2612 46.0156 16.53 45.8362 16.8258 45.7139C17.1216 45.5916 17.4387 45.5289 17.7588 45.5293H22.3713C22.6756 43.6634 23.1669 41.8329 23.8379 40.0655L19.8404 37.7711C18.6814 37.1088 18.2791 35.5948 18.9416 34.4358L20.9758 30.8877C21.6619 29.7288 23.152 29.3268 24.3111 29.9889L28.3086 32.3073C29.4912 30.8641 30.8395 29.5161 32.3061 28.3332L29.9879 24.3356C29.3256 23.153 29.7277 21.6629 30.8867 20.977L34.4111 18.9424C35.5938 18.2803 37.084 18.6825 37.7465 19.8416L40.0645 23.8627C41.8148 23.1766 43.6363 22.6801 45.5049 22.3725V17.7833C45.5049 16.4114 46.6166 15.3235 47.965 15.3235H52.0334C53.3816 15.3235 54.4699 16.4116 54.4699 17.7833V22.3723C56.3623 22.6797 58.1834 23.1764 59.934 23.8625L62.2283 19.8415C62.9143 18.6825 64.4045 18.2801 65.5637 18.9422L69.1117 20.9768C70.2707 21.6629 70.6728 23.1528 70.0103 24.3354L67.6924 28.3331C69.159 29.5157 70.4836 30.8639 71.6898 32.3071L75.6637 29.9887C76.8463 29.3266 78.3604 29.7286 79.0227 30.8875L81.0568 34.4356C81.7191 35.5946 81.317 37.1084 80.158 37.7709L76.1605 40.0653C76.8313 41.8328 77.3227 43.6633 77.6271 45.5291H82.216C83.5881 45.5293 84.676 46.6176 84.676 47.9659Z" fill="#E77C6A"/>
<path d="M84.6743 47.9643V52.0401C84.6743 53.3987 83.5944 54.4962 82.2185 54.4962H77.6202C77.3241 56.36 76.8191 58.1887 76.1571 59.9653L80.1634 62.247C81.313 62.9091 81.7136 64.4241 81.0517 65.5913L79.0312 69.1096C78.3692 70.2766 76.854 70.6772 75.6696 70.0151L71.6983 67.6989C70.4792 69.1618 69.1554 70.4854 67.6923 71.6874L70.0089 75.6932C70.6708 76.843 70.2702 78.3583 69.1206 79.0204L65.5675 81.0581C64.4005 81.7374 62.92 81.3366 62.2232 80.1524L59.9415 76.1637C58.1711 76.8303 56.3391 77.3204 54.4724 77.627V82.2427C54.4724 83.5839 53.3751 84.6813 52.0339 84.6813H47.9581C46.6169 84.6813 45.5021 83.5839 45.5021 82.2427V77.627C43.6384 77.3134 41.8095 76.8259 40.0677 76.1637L37.7511 80.1524C37.0892 81.3368 35.5913 81.7376 34.4069 81.0581L30.8886 79.0204C29.7216 78.3583 29.321 76.8432 29.9829 75.6932L31.2718 73.4639C32.7458 73.6388 34.229 73.7261 35.7134 73.7253C56.4753 73.7253 73.3009 56.8997 73.3009 36.1376C73.3009 34.5876 73.2138 33.0546 73.0048 31.5395L75.6698 29.9891C76.8542 29.3274 78.3696 29.728 79.0314 30.8948L81.0519 34.4307C81.7136 35.5977 81.313 37.1132 80.1636 37.7751L76.1573 40.0741C76.8192 41.8159 77.3243 43.6448 77.6204 45.5259H82.2187C83.5944 45.5257 84.6743 46.6231 84.6743 47.9643Z" fill="black" fill-opacity="0.0705882"/>
<path d="M69.2588 50.0016C69.2588 60.6422 60.6393 69.2617 50.0043 69.2617C39.3693 69.2617 30.7441 60.6422 30.7441 50.0016C30.7441 39.3666 39.3691 30.7471 50.0043 30.7471C60.6395 30.7471 69.2588 39.3666 69.2588 50.0016Z" fill="#E8F1F8"/>
<path d="M82.2158 44.7915H78.2471C77.9692 43.2975 77.5745 41.8276 77.0668 40.3954L80.524 38.4118C82.043 37.5442 82.5689 35.5958 81.6963 34.069L79.6629 30.5217C78.7996 29.01 76.8434 28.4819 75.292 29.3516L71.8514 31.359C70.8166 30.1665 69.7416 29.095 68.6441 28.1633L70.6545 24.6959C71.5178 23.1526 71.0055 21.2401 69.4785 20.3366L65.9291 18.3018C64.4268 17.4428 62.4805 17.9645 61.5877 19.4756L59.6047 22.9495C58.1745 22.4292 56.7037 22.0286 55.2072 21.7518V17.7831C55.2072 16.0198 53.7834 14.5852 52.0332 14.5852H47.965C46.2012 14.5852 44.7664 16.0198 44.7664 17.7831V21.7534C43.2773 22.0321 41.8135 22.4324 40.3898 22.9502L38.3867 19.4758C37.5271 17.9698 35.5822 17.4432 34.0418 18.3036L30.5103 20.342C28.9922 21.2413 28.4799 23.1536 29.3496 24.7065L31.3541 28.1629C30.1993 29.1402 29.1249 30.2086 28.1412 31.3579L24.676 29.3483C23.1707 28.4893 21.2273 29.0118 20.3354 30.5213L18.3006 34.07C17.4287 35.5967 17.9555 37.5444 19.4729 38.4114L22.9309 40.3958C22.4232 41.828 22.0286 43.2979 21.7506 44.7918H17.7588C16.0086 44.7918 14.584 46.2157 14.584 47.9659V52.0348C14.584 53.7981 16.0086 55.2327 17.7588 55.2327H21.7521C22.0273 56.7004 22.423 58.1739 22.9332 59.6274L19.4746 61.6125C17.9557 62.4809 17.4289 64.4292 18.3023 65.9575L20.3408 69.4881C21.2277 70.9883 23.1732 71.5108 24.6814 70.6504L28.1422 68.6436C29.1294 69.796 30.204 70.8704 31.3566 71.8573L29.3477 75.3225C28.4801 76.8407 29.0102 78.802 30.5178 79.6631L34.0406 81.6965C35.6027 82.6024 37.5398 82.0375 38.3848 80.5299L40.3922 77.0676C41.8175 77.5738 43.2801 77.9681 44.7666 78.2471V82.2405C44.7666 83.9907 46.2012 85.4153 47.9652 85.4153H52.0334C53.7836 85.4153 55.2074 83.9907 55.2074 82.2405V78.2487C56.7014 77.9707 58.1712 77.576 59.6035 77.0684L61.59 80.5291C62.4953 82.092 64.457 82.5731 65.9299 81.6979L69.4779 79.6645C70.9969 78.7969 71.5229 76.8485 70.6488 75.3182L68.642 71.8575C69.7938 70.8706 70.868 69.7964 71.8549 68.6446L75.3035 70.6557C76.8434 71.5204 78.8004 70.9901 79.6615 69.4819L81.6971 65.9547C82.5689 64.4293 82.043 62.4817 80.5254 61.6133L77.0652 59.6274C77.5754 58.1719 77.9709 56.6983 78.2463 55.2327H82.2158C84.0094 55.2327 85.4137 53.8284 85.4137 52.0348V47.9659C85.4137 46.2153 83.9791 44.7915 82.2158 44.7915ZM83.9381 52.0346C83.9381 53.0002 83.1814 53.7567 82.216 53.7567H77.6268C77.4519 53.7567 77.2826 53.8189 77.1493 53.9321C77.016 54.0453 76.9273 54.2023 76.899 54.3749C76.6072 56.1481 76.1266 57.9395 75.4695 59.7004C75.4083 59.8642 75.4072 60.0443 75.4664 60.2087C75.5257 60.3732 75.6414 60.5112 75.793 60.5983L79.7914 62.8932C80.5904 63.35 80.8766 64.4165 80.4176 65.2192L78.382 68.7463C77.918 69.5569 76.8617 69.8374 76.0359 69.3739L72.0621 67.0559C71.7502 66.8729 71.351 66.9463 71.1203 67.2245C69.9522 68.6477 68.6471 69.9527 67.2236 71.1206C67.0887 71.2319 66.9976 71.3874 66.9666 71.5596C66.9356 71.7318 66.9666 71.9094 67.0543 72.0608L69.3701 76.0542C69.8305 76.8598 69.5445 77.9268 68.7453 78.3836L65.1873 80.4229C64.3875 80.8983 63.3486 80.6204 62.8686 79.7916L60.5736 75.794C60.4864 75.6418 60.3478 75.5258 60.1827 75.4666C60.0176 75.4074 59.8369 75.409 59.6728 75.4711C57.9512 76.1235 56.1685 76.602 54.3516 76.8993C54.1786 76.9274 54.0213 77.0161 53.9078 77.1496C53.7942 77.2831 53.7319 77.4526 53.7318 77.6278V82.2401C53.7318 83.1768 52.9701 83.9391 52.0334 83.9391H47.9652C47.0156 83.9391 46.2424 83.1768 46.2424 82.2401V77.6278C46.2424 77.4529 46.1802 77.2837 46.067 77.1504C45.9537 77.0171 45.7968 76.9284 45.6242 76.9C43.8151 76.5997 42.0401 76.1211 40.3252 75.4711C40.1617 75.4096 39.9816 75.4079 39.817 75.4665C39.6524 75.5251 39.5139 75.64 39.426 75.7911L37.1029 79.7989C36.6393 80.6264 35.6041 80.896 34.7799 80.4186L31.2527 78.3831C30.434 77.9143 30.1768 76.8452 30.6266 76.0586L32.9445 72.061C33.0323 71.9095 33.0633 71.7319 33.0321 71.5596C33.001 71.3874 32.9096 71.2319 32.7744 71.1208C31.3509 69.9531 30.0459 68.6481 28.8783 67.2247C28.767 67.0897 28.6114 66.9986 28.4393 66.9676C28.2671 66.9366 28.0895 66.9677 27.9381 67.0553L23.9447 69.3711C23.1369 69.8309 22.0893 69.5477 21.6145 68.7436L19.5818 65.2223C19.1215 64.4166 19.4074 63.3502 20.208 62.8928L24.2049 60.5985C24.3565 60.5115 24.4722 60.3734 24.5315 60.2089C24.5907 60.0445 24.5896 59.8643 24.5283 59.7006C23.8727 57.9432 23.3912 56.1512 23.0988 54.375C23.0705 54.2025 22.9818 54.0455 22.8485 53.9323C22.7152 53.8191 22.546 53.7569 22.3711 53.7569H17.7588C16.8062 53.7569 16.0598 53.0002 16.0598 52.0348V47.9659C16.0598 47.0291 16.8221 46.2674 17.7588 46.2674H22.3711C22.5463 46.2674 22.7158 46.205 22.8493 46.0915C22.9827 45.978 23.0715 45.8207 23.0996 45.6477C23.397 43.8308 23.8754 42.0481 24.5277 40.3264C24.5898 40.1624 24.5914 39.9816 24.5322 39.8166C24.4731 39.6515 24.357 39.5129 24.2049 39.4256L20.2064 37.1307C19.4074 36.6747 19.1213 35.6083 19.5811 34.8026L21.6102 31.2631C22.0893 30.4532 23.1377 30.1686 23.9404 30.6268L27.9381 32.9456C28.0896 33.0337 28.2676 33.0649 28.44 33.0336C28.6125 33.0023 28.7682 32.9106 28.8791 32.7749C30.05 31.3454 31.3592 30.044 32.7693 28.9077C32.9064 28.797 32.9994 28.6409 33.0315 28.4677C33.0636 28.2944 33.0327 28.1154 32.9443 27.9629L30.6314 23.9747C30.1623 23.1366 30.4391 22.0991 31.2555 21.6155L34.7711 19.5864C35.5998 19.1223 36.6453 19.402 37.107 20.2096L39.425 24.2303C39.5133 24.3833 39.6535 24.4996 39.8202 24.5581C39.9869 24.6165 40.1691 24.6133 40.3336 24.5489C42.0205 23.8881 43.8002 23.4002 45.6238 23.0999C45.7964 23.0716 45.9533 22.9828 46.0666 22.8495C46.1798 22.7162 46.242 22.547 46.242 22.3721V17.7831C46.242 16.8334 47.0152 16.061 47.9648 16.061H52.033C52.9855 16.061 53.7314 16.8176 53.7314 17.7831V22.3723C53.7315 22.5475 53.7939 22.717 53.9074 22.8505C54.0209 22.984 54.1782 23.0727 54.3512 23.1008C56.1842 23.3985 57.9719 23.8862 59.6639 24.5491C59.8288 24.6135 60.0114 24.6166 60.1784 24.5577C60.3454 24.4989 60.4858 24.382 60.5738 24.2284L62.8637 20.217C63.3428 19.4065 64.3877 19.1225 65.1961 19.5823L68.7355 21.6114C69.1292 21.8418 69.4166 22.2178 69.5356 22.6582C69.6546 23.0985 69.5958 23.5681 69.3719 23.9655L67.0539 27.9629C66.9657 28.1154 66.9349 28.2944 66.9669 28.4676C66.999 28.6408 67.0919 28.7969 67.2289 28.9077C68.5662 29.9856 69.8762 31.2891 71.1234 32.7807C71.2351 32.9147 71.3907 33.0047 71.5625 33.0346C71.7343 33.0646 71.9111 33.0325 72.0615 32.9442L76.0238 30.6327C76.8603 30.1635 77.9189 30.4432 78.3822 31.2545L80.4156 34.8018C80.876 35.6075 80.59 36.6745 79.7902 37.1313L75.7926 39.4256C75.6405 39.5129 75.5244 39.6515 75.4652 39.8166C75.4061 39.9816 75.4077 40.1624 75.4697 40.3264C76.1262 42.0608 76.6068 43.8514 76.8979 45.6477C76.926 45.8207 77.0147 45.978 77.1482 46.0915C77.2816 46.205 77.4511 46.2674 77.6264 46.2674H82.2156C83.1812 46.2674 83.9377 47.0131 83.9377 47.9659V52.0346H83.9381Z" fill="black"/>
<path d="M50.0006 37.3864C50.0975 37.3865 50.1935 37.3674 50.283 37.3304C50.3726 37.2933 50.4539 37.2389 50.5225 37.1704C50.591 37.1019 50.6453 37.0205 50.6824 36.931C50.7195 36.8414 50.7385 36.7455 50.7385 36.6485V35.0733C50.7385 34.6655 50.4084 34.3354 50.0006 34.3354C49.5928 34.3354 49.2627 34.6655 49.2627 35.0733V36.6485C49.2626 36.7455 49.2817 36.8414 49.3188 36.931C49.3558 37.0205 49.4102 37.1019 49.4787 37.1704C49.5472 37.2389 49.6286 37.2933 49.7181 37.3304C49.8077 37.3674 49.9037 37.3865 50.0006 37.3864ZM50.0006 62.6224C49.9037 62.6223 49.8077 62.6414 49.7181 62.6784C49.6286 62.7155 49.5472 62.7698 49.4787 62.8384C49.4102 62.9069 49.3558 62.9883 49.3188 63.0778C49.2817 63.1674 49.2626 63.2633 49.2627 63.3603V64.9354C49.2627 65.3433 49.5928 65.6733 50.0006 65.6733C50.4084 65.6733 50.7385 65.3433 50.7385 64.9354V63.3603C50.7385 63.2633 50.7195 63.1674 50.6824 63.0778C50.6453 62.9883 50.591 62.9069 50.5225 62.8384C50.4539 62.7698 50.3726 62.7155 50.283 62.6784C50.1935 62.6414 50.0975 62.6223 50.0006 62.6224ZM43.174 36.7048C43.1256 36.6208 43.0612 36.5472 42.9843 36.4881C42.9074 36.4291 42.8197 36.3858 42.726 36.3607C42.6324 36.3356 42.5348 36.3292 42.4387 36.3419C42.3426 36.3546 42.2499 36.3861 42.166 36.4347C42.0821 36.4831 42.0085 36.5476 41.9494 36.6244C41.8904 36.7013 41.8471 36.7891 41.822 36.8827C41.7969 36.9763 41.7906 37.0739 41.8032 37.17C41.8159 37.2661 41.8474 37.3588 41.8959 37.4427L42.6834 38.8067C42.7813 38.9762 42.9425 39.0998 43.1315 39.1504C43.3205 39.2011 43.5219 39.1746 43.6914 39.0769C43.7754 39.0284 43.849 38.964 43.908 38.8871C43.967 38.8102 44.0103 38.7225 44.0354 38.6288C44.0605 38.5352 44.0669 38.4376 44.0542 38.3415C44.0415 38.2454 44.01 38.1528 43.9615 38.0688L43.174 36.7048ZM57.3178 61.2022C57.1131 60.8485 56.6605 60.728 56.3098 60.9321C56.2258 60.9805 56.1522 61.045 56.0932 61.1219C56.0342 61.1988 55.9909 61.2865 55.9658 61.3801C55.9407 61.4738 55.9343 61.5714 55.947 61.6675C55.9597 61.7636 55.9911 61.8562 56.0396 61.9401L56.8272 63.3042C56.9251 63.4736 57.0862 63.5972 57.2752 63.6479C57.4643 63.6985 57.6656 63.6721 57.8352 63.5743C57.9191 63.5259 57.9927 63.4614 58.0517 63.3845C58.1108 63.3077 58.1541 63.2199 58.1791 63.1263C58.2042 63.0327 58.2106 62.935 58.1979 62.839C58.1853 62.7429 58.1538 62.6502 58.1053 62.5663L57.3178 61.2022ZM38.8033 42.6876L37.4393 41.9001C37.3554 41.8515 37.2627 41.82 37.1666 41.8073C37.0705 41.7946 36.9729 41.801 36.8792 41.8261C36.7856 41.8512 36.6978 41.8945 36.621 41.9535C36.5441 42.0126 36.4796 42.0862 36.4313 42.1702C36.3828 42.2541 36.3513 42.3468 36.3387 42.4429C36.3261 42.5389 36.3325 42.6366 36.3575 42.7302C36.3826 42.8238 36.4259 42.9115 36.4849 42.9884C36.5439 43.0653 36.6174 43.1298 36.7014 43.1782L38.0654 43.9657C38.1494 44.0142 38.242 44.0456 38.3381 44.0583C38.4342 44.0709 38.5318 44.0645 38.6254 44.0394C38.719 44.0143 38.8067 43.9711 38.8836 43.9121C38.9605 43.8531 39.025 43.7795 39.0734 43.6956C39.1219 43.6117 39.1533 43.519 39.166 43.423C39.1786 43.3269 39.1722 43.2293 39.1471 43.1357C39.1221 43.0421 39.0788 42.9543 39.0198 42.8774C38.9608 42.8006 38.8872 42.736 38.8033 42.6876ZM63.2998 56.8306L61.9365 56.0431C61.8526 55.9946 61.76 55.9632 61.6639 55.9505C61.5678 55.9379 61.4702 55.9443 61.3766 55.9694C61.283 55.9944 61.1952 56.0377 61.1184 56.0967C61.0415 56.1557 60.977 56.2293 60.9285 56.3132C60.8801 56.3971 60.8486 56.4898 60.836 56.5858C60.8233 56.6819 60.8297 56.7795 60.8548 56.8731C60.8799 56.9667 60.9232 57.0545 60.9822 57.1314C61.0412 57.2082 61.1147 57.2727 61.1986 57.3212L62.5619 58.1087C62.7314 58.2064 62.9328 58.2329 63.1218 58.1823C63.3108 58.1316 63.472 58.008 63.5699 57.8386C63.6184 57.7547 63.6499 57.662 63.6625 57.5659C63.6752 57.4698 63.6688 57.3722 63.6437 57.2786C63.6186 57.185 63.5753 57.0972 63.5163 57.0204C63.4573 56.9435 63.3837 56.879 63.2998 56.8306ZM37.3822 50.0048C37.3823 49.9079 37.3632 49.8119 37.3262 49.7223C37.2891 49.6328 37.2347 49.5514 37.1662 49.4829C37.0977 49.4144 37.0163 49.36 36.9268 49.323C36.8372 49.2859 36.7413 49.2668 36.6443 49.2669H35.0699C34.6621 49.2669 34.332 49.597 34.332 50.0048C34.332 50.4126 34.6621 50.7427 35.0699 50.7427H36.6443C36.7413 50.7428 36.8372 50.7237 36.9268 50.6867C37.0164 50.6496 37.0977 50.5953 37.1663 50.5267C37.2348 50.4582 37.2892 50.3768 37.3262 50.2873C37.3633 50.1977 37.3823 50.1017 37.3822 50.0048ZM62.6189 50.0048C62.6189 50.1017 62.6379 50.1977 62.675 50.2872C62.7121 50.3768 62.7664 50.4581 62.835 50.5267C62.9035 50.5952 62.9849 50.6495 63.0744 50.6866C63.1639 50.7237 63.2599 50.7427 63.3568 50.7427H64.932C65.3398 50.7427 65.6699 50.4126 65.6699 50.0048C65.6699 49.597 65.3398 49.2669 64.932 49.2669H63.3568C63.2599 49.2668 63.1639 49.2859 63.0744 49.323C62.9849 49.36 62.9035 49.4144 62.835 49.4829C62.7664 49.5514 62.7121 49.6328 62.675 49.7223C62.6379 49.8119 62.6189 49.9079 62.6189 50.0048ZM38.0654 56.0431L36.7014 56.8306C36.6174 56.879 36.5438 56.9435 36.4848 57.0203C36.4258 57.0972 36.3825 57.185 36.3574 57.2786C36.3323 57.3722 36.3259 57.4698 36.3386 57.5659C36.3513 57.662 36.3827 57.7547 36.4313 57.8386C36.5292 58.008 36.6903 58.1316 36.8794 58.1823C37.0684 58.2329 37.2697 58.2064 37.4393 58.1087L38.8033 57.3212C38.8872 57.2727 38.9608 57.2082 39.0198 57.1314C39.0788 57.0545 39.1221 56.9667 39.1471 56.8731C39.1722 56.7795 39.1786 56.6819 39.166 56.5858C39.1533 56.4898 39.1219 56.3971 39.0734 56.3132C39.025 56.2293 38.9605 56.1557 38.8836 56.0967C38.8067 56.0377 38.719 55.9944 38.6254 55.9694C38.5318 55.9443 38.4342 55.9379 38.3381 55.9505C38.242 55.9632 38.1494 55.9946 38.0654 56.0431ZM62.5621 41.8999L61.1988 42.6874C61.1149 42.7358 61.0413 42.8003 60.9823 42.8772C60.9233 42.9541 60.88 43.0418 60.8549 43.1354C60.8298 43.2291 60.8234 43.3267 60.8361 43.4228C60.8488 43.5188 60.8802 43.6115 60.9287 43.6954C61.0266 43.8648 61.1878 43.9884 61.3768 44.0391C61.5658 44.0897 61.7672 44.0633 61.9367 43.9655L63.3 43.178C63.3839 43.1296 63.4575 43.0651 63.5165 42.9882C63.5755 42.9113 63.6188 42.8236 63.6439 42.73C63.669 42.6364 63.6754 42.5387 63.6627 42.4427C63.6501 42.3466 63.6186 42.2539 63.5701 42.17C63.3654 41.8165 62.9129 41.696 62.5621 41.8999ZM43.6914 60.9319C43.6075 60.8834 43.5149 60.8518 43.4188 60.8391C43.3227 60.8264 43.225 60.8328 43.1314 60.8579C43.0377 60.883 42.95 60.9263 42.8731 60.9854C42.7962 61.0444 42.7318 61.1181 42.6834 61.2021L41.8959 62.5661C41.798 62.7356 41.7715 62.937 41.8222 63.1261C41.8728 63.3151 41.9965 63.4763 42.166 63.5741C42.3355 63.672 42.5369 63.6985 42.726 63.6478C42.915 63.5972 43.0762 63.4735 43.174 63.304L43.9615 61.9399C44.01 61.856 44.0415 61.7634 44.0542 61.6673C44.0669 61.5712 44.0605 61.4736 44.0354 61.3799C44.0103 61.2863 43.967 61.1986 43.908 61.1217C43.849 61.0448 43.7754 60.9803 43.6914 60.9319ZM57.8352 36.4347C57.7513 36.3861 57.6586 36.3546 57.5625 36.3419C57.4664 36.3292 57.3688 36.3356 57.2751 36.3607C57.1815 36.3858 57.0938 36.4291 57.0169 36.4881C56.94 36.5472 56.8755 36.6208 56.8272 36.7048L56.0396 38.0688C55.9418 38.2383 55.9153 38.4398 55.9659 38.6288C56.0166 38.8178 56.1403 38.979 56.3098 39.0769C56.4793 39.1747 56.6807 39.2012 56.8697 39.1506C57.0588 39.0999 57.2199 38.9762 57.3178 38.8067L58.1053 37.4427C58.1538 37.3588 58.1853 37.2661 58.1979 37.17C58.2106 37.0739 58.2042 36.9763 58.1791 36.8827C58.1541 36.7891 58.1108 36.7013 58.0517 36.6244C57.9927 36.5476 57.9191 36.4831 57.8352 36.4347ZM54.1633 44.7966L49.4775 49.4831C49.3742 49.5862 49.3038 49.7177 49.2752 49.8609C49.2466 50.0041 49.2612 50.1525 49.3171 50.2874C49.3729 50.4223 49.4676 50.5375 49.589 50.6186C49.7105 50.6996 49.8532 50.7428 49.9992 50.7427C50.1881 50.7427 50.3768 50.6706 50.5209 50.5265L55.2066 45.8399C55.4949 45.5517 55.4949 45.0849 55.2066 44.7966C54.9184 44.5083 54.4516 44.5083 54.1633 44.7966Z" fill="black"/>
<path d="M50.0041 30.0093C38.9768 30.0093 30.0059 38.978 30.0059 50.0019C30.0059 61.0284 38.9768 69.9993 50.0041 69.9993C61.0279 69.9993 69.9967 61.0284 69.9967 50.0019C69.9967 38.978 61.0279 30.0093 50.0041 30.0093ZM50.0041 68.5235C39.791 68.5235 31.4816 60.2147 31.4816 50.0017C31.4816 39.7915 39.791 31.4849 50.0041 31.4849C60.2143 31.4849 68.5209 39.7915 68.5209 50.0017C68.5209 60.2147 60.2143 68.5235 50.0041 68.5235Z" fill="black"/>
<defs>
<linearGradient id="paint0_linear_2115_6637" x1="50" y1="83.9725" x2="50" y2="16.0275" gradientUnits="userSpaceOnUse">
<stop stop-color="#CADFEF"/>
<stop offset="1" stop-color="#EFF4F9"/>
</linearGradient>
</defs>
</svg>
