<svg width="651" height="247" viewBox="0 0 651 247" fill="none" xmlns="http://www.w3.org/2000/svg">
<rect x="13" y="13" width="625" height="221" stroke="#333333" stroke-width="2"/>
<path d="M134.048 63.92L119.712 110H112.96L102.144 76.912C102.016 76.5493 101.888 76.1547 101.76 75.728C101.653 75.3013 101.547 74.8427 101.44 74.352C101.333 74.8427 101.216 75.3013 101.088 75.728C100.981 76.1547 100.864 76.5493 100.736 76.912L89.824 110H83.072L68.736 63.92H75.008C75.648 63.92 76.1813 64.08 76.608 64.4C77.056 64.6987 77.3547 65.1147 77.504 65.648L86.144 95.184C86.3147 95.824 86.4747 96.5173 86.624 97.264C86.7733 98.0107 86.9227 98.7893 87.072 99.6C87.2213 98.7893 87.3813 98.0107 87.552 97.264C87.744 96.496 87.9467 95.8027 88.16 95.184L98.048 65.648C98.1973 65.2213 98.496 64.8267 98.944 64.464C99.392 64.1013 99.9253 63.92 100.544 63.92H102.72C103.381 63.92 103.915 64.0907 104.32 64.432C104.725 64.752 105.035 65.1573 105.248 65.648L115.104 95.184C115.317 95.8027 115.509 96.4747 115.68 97.2C115.872 97.904 116.043 98.6507 116.192 99.44C116.341 98.6507 116.48 97.904 116.608 97.2C116.757 96.4747 116.917 95.8027 117.088 95.184L125.696 65.648C125.824 65.1787 126.112 64.7733 126.56 64.432C127.029 64.0907 127.573 63.92 128.192 63.92H134.048ZM157.302 90C157.302 88.848 157.132 87.7813 156.791 86.8C156.471 85.7973 155.991 84.9333 155.351 84.208C154.711 83.4613 153.911 82.8853 152.951 82.48C152.012 82.0533 150.924 81.84 149.687 81.84C147.191 81.84 145.228 82.5547 143.799 83.984C142.369 85.4133 141.462 87.4187 141.078 90H157.302ZM140.886 94.224C140.972 96.08 141.26 97.6907 141.75 99.056C142.241 100.4 142.892 101.52 143.703 102.416C144.535 103.312 145.516 103.984 146.646 104.432C147.799 104.859 149.079 105.072 150.486 105.072C151.831 105.072 152.993 104.923 153.975 104.624C154.956 104.304 155.809 103.963 156.535 103.6C157.26 103.216 157.879 102.875 158.391 102.576C158.903 102.256 159.372 102.096 159.799 102.096C160.353 102.096 160.78 102.309 161.079 102.736L163.031 105.264C162.22 106.224 161.303 107.035 160.279 107.696C159.255 108.357 158.167 108.901 157.014 109.328C155.863 109.733 154.679 110.021 153.462 110.192C152.247 110.384 151.062 110.48 149.91 110.48C147.649 110.48 145.548 110.107 143.606 109.36C141.686 108.592 140.012 107.472 138.582 106C137.174 104.528 136.065 102.704 135.254 100.528C134.465 98.352 134.07 95.8453 134.07 93.008C134.07 90.7467 134.422 88.6347 135.126 86.672C135.852 84.7093 136.876 83.0027 138.198 81.552C139.542 80.1013 141.164 78.96 143.062 78.128C144.983 77.2747 147.148 76.848 149.559 76.848C151.564 76.848 153.42 77.1787 155.127 77.84C156.833 78.48 158.305 79.4293 159.543 80.688C160.78 81.9467 161.74 83.4933 162.423 85.328C163.127 87.1413 163.479 89.2107 163.479 91.536C163.479 92.6027 163.361 93.3173 163.127 93.68C162.892 94.0427 162.465 94.224 161.847 94.224H140.886ZM210.184 83.76C209.971 84.0373 209.768 84.2507 209.576 84.4C209.384 84.5493 209.107 84.624 208.744 84.624C208.381 84.624 207.997 84.496 207.592 84.24C207.208 83.984 206.739 83.7067 206.184 83.408C205.651 83.088 205 82.8 204.232 82.544C203.464 82.288 202.504 82.16 201.352 82.16C199.859 82.16 198.547 82.4267 197.416 82.96C196.307 83.4933 195.368 84.2613 194.6 85.264C193.853 86.2453 193.288 87.4507 192.904 88.88C192.541 90.288 192.36 91.8773 192.36 93.648C192.36 95.4827 192.563 97.1147 192.968 98.544C193.373 99.9733 193.949 101.179 194.696 102.16C195.464 103.141 196.381 103.888 197.448 104.4C198.536 104.912 199.752 105.168 201.096 105.168C202.419 105.168 203.496 105.008 204.328 104.688C205.16 104.368 205.853 104.016 206.408 103.632C206.963 103.248 207.432 102.896 207.816 102.576C208.221 102.256 208.648 102.096 209.096 102.096C209.651 102.096 210.077 102.309 210.376 102.736L212.328 105.264C211.539 106.224 210.664 107.035 209.704 107.696C208.744 108.357 207.731 108.901 206.664 109.328C205.597 109.733 204.488 110.021 203.336 110.192C202.184 110.384 201.021 110.48 199.848 110.48C197.821 110.48 195.923 110.107 194.152 109.36C192.403 108.592 190.867 107.493 189.544 106.064C188.243 104.613 187.208 102.853 186.44 100.784C185.693 98.6933 185.32 96.3147 185.32 93.648C185.32 91.2373 185.661 89.008 186.344 86.96C187.027 84.8907 188.019 83.1093 189.32 81.616C190.643 80.1227 192.275 78.96 194.216 78.128C196.157 77.2747 198.397 76.848 200.936 76.848C203.304 76.848 205.384 77.232 207.176 78C208.989 78.768 210.6 79.856 212.008 81.264L210.184 83.76ZM224.998 83.408C226.022 81.3387 227.259 79.7173 228.71 78.544C230.161 77.3493 231.899 76.752 233.926 76.752C234.63 76.752 235.291 76.8373 235.91 77.008C236.529 77.1573 237.083 77.392 237.574 77.712L237.094 82.896C237.009 83.2587 236.87 83.5147 236.678 83.664C236.507 83.792 236.273 83.856 235.974 83.856C235.654 83.856 235.195 83.8027 234.598 83.696C234.001 83.568 233.371 83.504 232.71 83.504C231.75 83.504 230.897 83.6427 230.15 83.92C229.425 84.1973 228.763 84.6027 228.166 85.136C227.59 85.6693 227.078 86.32 226.63 87.088C226.182 87.856 225.766 88.7307 225.382 89.712V110H218.502V77.36H222.502C223.227 77.36 223.729 77.4987 224.006 77.776C224.283 78.032 224.475 78.4907 224.582 79.152L224.998 83.408ZM263.05 90C263.05 88.848 262.879 87.7813 262.538 86.8C262.218 85.7973 261.738 84.9333 261.098 84.208C260.458 83.4613 259.658 82.8853 258.698 82.48C257.759 82.0533 256.671 81.84 255.434 81.84C252.938 81.84 250.975 82.5547 249.546 83.984C248.117 85.4133 247.21 87.4187 246.826 90H263.05ZM246.634 94.224C246.719 96.08 247.007 97.6907 247.498 99.056C247.989 100.4 248.639 101.52 249.45 102.416C250.282 103.312 251.263 103.984 252.394 104.432C253.546 104.859 254.826 105.072 256.234 105.072C257.578 105.072 258.741 104.923 259.722 104.624C260.703 104.304 261.557 103.963 262.282 103.6C263.007 103.216 263.626 102.875 264.138 102.576C264.65 102.256 265.119 102.096 265.546 102.096C266.101 102.096 266.527 102.309 266.826 102.736L268.778 105.264C267.967 106.224 267.05 107.035 266.026 107.696C265.002 108.357 263.914 108.901 262.762 109.328C261.61 109.733 260.426 110.021 259.21 110.192C257.994 110.384 256.81 110.48 255.658 110.48C253.397 110.48 251.295 110.107 249.354 109.36C247.434 108.592 245.759 107.472 244.33 106C242.922 104.528 241.813 102.704 241.002 100.528C240.213 98.352 239.818 95.8453 239.818 93.008C239.818 90.7467 240.17 88.6347 240.874 86.672C241.599 84.7093 242.623 83.0027 243.946 81.552C245.29 80.1013 246.911 78.96 248.81 78.128C250.73 77.2747 252.895 76.848 255.306 76.848C257.311 76.848 259.167 77.1787 260.874 77.84C262.581 78.48 264.053 79.4293 265.29 80.688C266.527 81.9467 267.487 83.4933 268.17 85.328C268.874 87.1413 269.226 89.2107 269.226 91.536C269.226 92.6027 269.109 93.3173 268.874 93.68C268.639 94.0427 268.213 94.224 267.594 94.224H246.634ZM293.722 95.728C291.269 95.8133 289.199 96.016 287.514 96.336C285.829 96.6347 284.463 97.0293 283.418 97.52C282.373 97.9893 281.615 98.5547 281.146 99.216C280.698 99.8773 280.474 100.603 280.474 101.392C280.474 102.16 280.591 102.821 280.826 103.376C281.082 103.909 281.423 104.357 281.85 104.72C282.298 105.061 282.81 105.317 283.386 105.488C283.983 105.637 284.634 105.712 285.338 105.712C287.13 105.712 288.666 105.381 289.946 104.72C291.247 104.037 292.506 103.056 293.722 101.776V95.728ZM275.482 81.904C279.173 78.4693 283.567 76.752 288.666 76.752C290.543 76.752 292.207 77.0613 293.658 77.68C295.13 78.2773 296.357 79.1307 297.338 80.24C298.341 81.3493 299.098 82.672 299.61 84.208C300.143 85.7227 300.41 87.408 300.41 89.264V110H297.338C296.677 110 296.175 109.904 295.834 109.712C295.493 109.499 295.205 109.083 294.97 108.464L294.298 105.808C293.466 106.555 292.645 107.227 291.834 107.824C291.023 108.4 290.181 108.891 289.306 109.296C288.453 109.701 287.525 110 286.522 110.192C285.541 110.405 284.453 110.512 283.258 110.512C281.935 110.512 280.698 110.331 279.546 109.968C278.415 109.605 277.434 109.061 276.602 108.336C275.77 107.589 275.109 106.672 274.618 105.584C274.149 104.496 273.914 103.216 273.914 101.744C273.914 100.485 274.245 99.2587 274.906 98.064C275.589 96.8693 276.698 95.8027 278.234 94.864C279.791 93.904 281.829 93.1147 284.346 92.496C286.885 91.8773 290.01 91.5253 293.722 91.44V89.264C293.722 86.9173 293.221 85.168 292.218 84.016C291.215 82.864 289.743 82.288 287.802 82.288C286.479 82.288 285.37 82.4587 284.474 82.8C283.578 83.12 282.799 83.472 282.138 83.856C281.477 84.24 280.89 84.6027 280.378 84.944C279.866 85.264 279.322 85.424 278.746 85.424C278.277 85.424 277.871 85.3067 277.53 85.072C277.21 84.816 276.943 84.5067 276.73 84.144L275.482 81.904ZM319.136 110.512C316.427 110.512 314.336 109.755 312.864 108.24C311.413 106.704 310.688 104.549 310.688 101.776V82.768H307.104C306.72 82.768 306.389 82.6507 306.112 82.416C305.835 82.16 305.696 81.7867 305.696 81.296V78.512L310.976 77.744L312.48 68.304C312.587 67.9413 312.768 67.6533 313.024 67.44C313.28 67.2053 313.621 67.088 314.048 67.088H317.568V77.808H326.624V82.768H317.568V101.296C317.568 102.469 317.856 103.365 318.432 103.984C319.008 104.603 319.776 104.912 320.736 104.912C321.269 104.912 321.728 104.848 322.112 104.72C322.496 104.571 322.827 104.421 323.104 104.272C323.381 104.101 323.616 103.952 323.808 103.824C324.021 103.675 324.224 103.6 324.416 103.6C324.8 103.6 325.109 103.813 325.344 104.24L327.392 107.6C326.325 108.539 325.067 109.264 323.616 109.776C322.165 110.267 320.672 110.512 319.136 110.512ZM353.845 90C353.845 88.848 353.674 87.7813 353.333 86.8C353.013 85.7973 352.533 84.9333 351.893 84.208C351.253 83.4613 350.453 82.8853 349.493 82.48C348.554 82.0533 347.466 81.84 346.229 81.84C343.733 81.84 341.77 82.5547 340.341 83.984C338.912 85.4133 338.005 87.4187 337.621 90H353.845ZM337.429 94.224C337.514 96.08 337.802 97.6907 338.293 99.056C338.784 100.4 339.434 101.52 340.245 102.416C341.077 103.312 342.058 103.984 343.189 104.432C344.341 104.859 345.621 105.072 347.029 105.072C348.373 105.072 349.536 104.923 350.517 104.624C351.498 104.304 352.352 103.963 353.077 103.6C353.802 103.216 354.421 102.875 354.933 102.576C355.445 102.256 355.914 102.096 356.341 102.096C356.896 102.096 357.322 102.309 357.621 102.736L359.573 105.264C358.762 106.224 357.845 107.035 356.821 107.696C355.797 108.357 354.709 108.901 353.557 109.328C352.405 109.733 351.221 110.021 350.005 110.192C348.789 110.384 347.605 110.48 346.453 110.48C344.192 110.48 342.09 110.107 340.149 109.36C338.229 108.592 336.554 107.472 335.125 106C333.717 104.528 332.608 102.704 331.797 100.528C331.008 98.352 330.613 95.8453 330.613 93.008C330.613 90.7467 330.965 88.6347 331.669 86.672C332.394 84.7093 333.418 83.0027 334.741 81.552C336.085 80.1013 337.706 78.96 339.605 78.128C341.525 77.2747 343.69 76.848 346.101 76.848C348.106 76.848 349.962 77.1787 351.669 77.84C353.376 78.48 354.848 79.4293 356.085 80.688C357.322 81.9467 358.282 83.4933 358.965 85.328C359.669 87.1413 360.021 89.2107 360.021 91.536C360.021 92.6027 359.904 93.3173 359.669 93.68C359.434 94.0427 359.008 94.224 358.389 94.224H337.429ZM93.024 162.392C92.064 161.155 91.008 160.291 89.856 159.8C88.704 159.309 87.456 159.064 86.112 159.064C83.424 159.064 81.3227 160.056 79.808 162.04C78.2933 164.003 77.536 166.915 77.536 170.776C77.536 172.781 77.7067 174.499 78.048 175.928C78.3893 177.336 78.88 178.488 79.52 179.384C80.16 180.28 80.9387 180.931 81.856 181.336C82.7733 181.741 83.808 181.944 84.96 181.944C86.7093 181.944 88.2133 181.571 89.472 180.824C90.752 180.056 91.936 178.979 93.024 177.592V162.392ZM99.904 139.64V187H95.744C94.8267 187 94.24 186.563 93.984 185.688L93.376 182.136C92.0107 183.736 90.4533 185.027 88.704 186.008C86.976 186.989 84.96 187.48 82.656 187.48C80.8213 187.48 79.1573 187.117 77.664 186.392C76.1707 185.645 74.8907 184.568 73.824 183.16C72.7573 181.752 71.9253 180.013 71.328 177.944C70.752 175.853 70.464 173.464 70.464 170.776C70.464 168.344 70.784 166.093 71.424 164.024C72.0853 161.955 73.024 160.163 74.24 158.648C75.456 157.112 76.928 155.917 78.656 155.064C80.4053 154.189 82.3573 153.752 84.512 153.752C86.432 153.752 88.064 154.061 89.408 154.68C90.752 155.277 91.9573 156.12 93.024 157.208V139.64H99.904ZM130.365 167C130.365 165.848 130.194 164.781 129.853 163.8C129.533 162.797 129.053 161.933 128.413 161.208C127.773 160.461 126.973 159.885 126.013 159.48C125.074 159.053 123.986 158.84 122.749 158.84C120.253 158.84 118.29 159.555 116.861 160.984C115.432 162.413 114.525 164.419 114.141 167H130.365ZM113.949 171.224C114.034 173.08 114.322 174.691 114.813 176.056C115.304 177.4 115.954 178.52 116.765 179.416C117.597 180.312 118.578 180.984 119.709 181.432C120.861 181.859 122.141 182.072 123.549 182.072C124.893 182.072 126.056 181.923 127.037 181.624C128.018 181.304 128.872 180.963 129.597 180.6C130.322 180.216 130.941 179.875 131.453 179.576C131.965 179.256 132.434 179.096 132.861 179.096C133.416 179.096 133.842 179.309 134.141 179.736L136.093 182.264C135.282 183.224 134.365 184.035 133.341 184.696C132.317 185.357 131.229 185.901 130.077 186.328C128.925 186.733 127.741 187.021 126.525 187.192C125.309 187.384 124.125 187.48 122.973 187.48C120.712 187.48 118.61 187.107 116.669 186.36C114.749 185.592 113.074 184.472 111.645 183C110.237 181.528 109.128 179.704 108.317 177.528C107.528 175.352 107.133 172.845 107.133 170.008C107.133 167.747 107.485 165.635 108.189 163.672C108.914 161.709 109.938 160.003 111.261 158.552C112.605 157.101 114.226 155.96 116.125 155.128C118.045 154.275 120.21 153.848 122.621 153.848C124.626 153.848 126.482 154.179 128.189 154.84C129.896 155.48 131.368 156.429 132.605 157.688C133.842 158.947 134.802 160.493 135.485 162.328C136.189 164.141 136.541 166.211 136.541 168.536C136.541 169.603 136.424 170.317 136.189 170.68C135.954 171.043 135.528 171.224 134.909 171.224H113.949ZM150.605 139.64V187H143.725V139.64H150.605ZM166.905 154.36V187H160.025V154.36H166.905ZM168.057 144.504C168.057 145.123 167.929 145.709 167.673 146.264C167.438 146.819 167.108 147.309 166.681 147.736C166.254 148.141 165.753 148.472 165.177 148.728C164.622 148.963 164.025 149.08 163.385 149.08C162.766 149.08 162.18 148.963 161.625 148.728C161.092 148.472 160.622 148.141 160.217 147.736C159.812 147.309 159.481 146.819 159.225 146.264C158.99 145.709 158.873 145.123 158.873 144.504C158.873 143.864 158.99 143.267 159.225 142.712C159.481 142.157 159.812 141.677 160.217 141.272C160.622 140.845 161.092 140.515 161.625 140.28C162.18 140.024 162.766 139.896 163.385 139.896C164.025 139.896 164.622 140.024 165.177 140.28C165.753 140.515 166.254 140.845 166.681 141.272C167.108 141.677 167.438 142.157 167.673 142.712C167.929 143.267 168.057 143.864 168.057 144.504ZM187.837 170.392C189.971 170.392 191.571 169.848 192.637 168.76C193.704 167.672 194.237 166.253 194.237 164.504C194.237 162.712 193.704 161.293 192.637 160.248C191.571 159.203 189.971 158.68 187.837 158.68C185.725 158.68 184.125 159.203 183.037 160.248C181.971 161.293 181.437 162.712 181.437 164.504C181.437 165.357 181.576 166.147 181.853 166.872C182.131 167.597 182.536 168.227 183.069 168.76C183.603 169.272 184.264 169.677 185.053 169.976C185.864 170.253 186.792 170.392 187.837 170.392ZM197.405 188.6C197.405 187.875 197.192 187.299 196.765 186.872C196.36 186.424 195.805 186.083 195.101 185.848C194.397 185.592 193.576 185.411 192.637 185.304C191.699 185.176 190.696 185.091 189.629 185.048C188.584 184.984 187.507 184.931 186.397 184.888C185.309 184.824 184.253 184.717 183.229 184.568C182.205 185.101 181.363 185.741 180.701 186.488C180.061 187.235 179.741 188.099 179.741 189.08C179.741 189.72 179.901 190.317 180.221 190.872C180.563 191.427 181.075 191.907 181.757 192.312C182.461 192.717 183.347 193.037 184.413 193.272C185.501 193.507 186.803 193.624 188.317 193.624C191.347 193.624 193.619 193.155 195.133 192.216C196.648 191.277 197.405 190.072 197.405 188.6ZM204.317 155.544V158.104C204.317 158.957 203.805 159.48 202.781 159.672L199.517 160.216C200.072 161.453 200.349 162.829 200.349 164.344C200.349 165.944 200.029 167.395 199.389 168.696C198.771 169.997 197.907 171.107 196.797 172.024C195.688 172.941 194.365 173.645 192.829 174.136C191.293 174.627 189.629 174.872 187.837 174.872C187.155 174.872 186.483 174.84 185.821 174.776C185.181 174.691 184.552 174.584 183.933 174.456C183.315 174.819 182.856 175.203 182.557 175.608C182.259 176.013 182.109 176.429 182.109 176.856C182.109 177.56 182.419 178.083 183.037 178.424C183.656 178.765 184.467 179.011 185.469 179.16C186.493 179.309 187.656 179.405 188.957 179.448C190.259 179.491 191.581 179.565 192.925 179.672C194.269 179.779 195.592 179.96 196.893 180.216C198.195 180.451 199.347 180.856 200.349 181.432C201.373 181.987 202.195 182.744 202.813 183.704C203.432 184.664 203.741 185.912 203.741 187.448C203.741 188.856 203.389 190.232 202.685 191.576C201.981 192.92 200.957 194.115 199.613 195.16C198.291 196.205 196.669 197.037 194.749 197.656C192.829 198.296 190.643 198.616 188.189 198.616C185.757 198.616 183.635 198.381 181.821 197.912C180.029 197.443 178.525 196.803 177.309 195.992C176.115 195.203 175.219 194.285 174.621 193.24C174.045 192.195 173.757 191.107 173.757 189.976C173.757 188.44 174.237 187.128 175.197 186.04C176.179 184.952 177.501 184.099 179.165 183.48C178.269 183.053 177.544 182.467 176.989 181.72C176.456 180.973 176.189 179.992 176.189 178.776C176.189 177.816 176.541 176.813 177.245 175.768C177.949 174.723 179.005 173.837 180.413 173.112C178.792 172.216 177.512 171.032 176.573 169.56C175.635 168.067 175.165 166.328 175.165 164.344C175.165 162.723 175.475 161.261 176.093 159.96C176.733 158.659 177.619 157.549 178.749 156.632C179.88 155.715 181.213 155.011 182.749 154.52C184.307 154.029 186.003 153.784 187.837 153.784C190.653 153.784 193.107 154.371 195.197 155.544H204.317ZM217.272 158.232C218.616 156.909 220.088 155.853 221.688 155.064C223.288 154.253 225.155 153.848 227.288 153.848C229.08 153.848 230.648 154.147 231.992 154.744C233.357 155.341 234.499 156.184 235.416 157.272C236.355 158.36 237.059 159.672 237.528 161.208C237.997 162.723 238.232 164.397 238.232 166.232V187H231.384V166.232C231.384 164.035 230.872 162.328 229.848 161.112C228.845 159.896 227.309 159.288 225.24 159.288C223.704 159.288 222.275 159.64 220.952 160.344C219.651 161.048 218.424 162.008 217.272 163.224V187H210.392V139.64H217.272V158.232ZM270.469 187V159.768H255.365V178.296C255.365 179.469 255.653 180.365 256.229 180.984C256.805 181.603 257.573 181.912 258.533 181.912C259.067 181.912 259.525 181.848 259.909 181.72C260.293 181.571 260.624 181.421 260.901 181.272C261.179 181.101 261.413 180.952 261.605 180.824C261.819 180.675 262.021 180.6 262.213 180.6C262.597 180.6 262.907 180.813 263.141 181.24L265.189 184.6C264.123 185.539 262.864 186.264 261.413 186.776C259.963 187.267 258.469 187.512 256.933 187.512C254.224 187.512 252.133 186.755 250.661 185.24C249.211 183.704 248.485 181.549 248.485 178.776V159.768H244.901C244.517 159.768 244.187 159.651 243.909 159.416C243.632 159.16 243.493 158.787 243.493 158.296V155.512L248.773 154.744L250.277 145.304C250.384 144.941 250.565 144.653 250.821 144.44C251.077 144.205 251.419 144.088 251.845 144.088H255.365V154.808H270.469V152.056C270.469 150.2 270.736 148.536 271.269 147.064C271.824 145.592 272.603 144.344 273.605 143.32C274.629 142.296 275.867 141.517 277.317 140.984C278.768 140.429 280.389 140.152 282.181 140.152C283.611 140.152 284.987 140.365 286.309 140.792L286.149 144.248C286.107 144.824 285.819 145.165 285.285 145.272C284.773 145.379 284.123 145.432 283.333 145.432C282.373 145.432 281.509 145.549 280.741 145.784C279.973 145.997 279.312 146.371 278.757 146.904C278.224 147.437 277.808 148.141 277.509 149.016C277.232 149.891 277.093 150.979 277.093 152.28V154.808H286.021V159.768H277.317V187H270.469ZM319.129 154.36V187H314.969C314.052 187 313.465 186.563 313.209 185.688L312.697 182.648C312.015 183.373 311.289 184.035 310.521 184.632C309.775 185.229 308.975 185.741 308.121 186.168C307.268 186.595 306.351 186.925 305.369 187.16C304.409 187.395 303.375 187.512 302.265 187.512C300.473 187.512 298.895 187.213 297.529 186.616C296.164 186.019 295.012 185.176 294.073 184.088C293.156 183 292.463 181.699 291.993 180.184C291.524 178.648 291.289 176.963 291.289 175.128V154.36H298.169V175.128C298.169 177.325 298.671 179.032 299.673 180.248C300.697 181.464 302.244 182.072 304.313 182.072C305.828 182.072 307.236 181.731 308.537 181.048C309.86 180.344 311.097 179.384 312.249 178.168V154.36H319.129ZM335.132 139.64V187H328.252V139.64H335.132ZM381.674 162.392C380.714 161.155 379.658 160.291 378.506 159.8C377.354 159.309 376.106 159.064 374.762 159.064C372.074 159.064 369.973 160.056 368.458 162.04C366.943 164.003 366.186 166.915 366.186 170.776C366.186 172.781 366.357 174.499 366.698 175.928C367.039 177.336 367.53 178.488 368.17 179.384C368.81 180.28 369.589 180.931 370.506 181.336C371.423 181.741 372.458 181.944 373.61 181.944C375.359 181.944 376.863 181.571 378.122 180.824C379.402 180.056 380.586 178.979 381.674 177.592V162.392ZM388.554 139.64V187H384.394C383.477 187 382.89 186.563 382.634 185.688L382.026 182.136C380.661 183.736 379.103 185.027 377.354 186.008C375.626 186.989 373.61 187.48 371.306 187.48C369.471 187.48 367.807 187.117 366.314 186.392C364.821 185.645 363.541 184.568 362.474 183.16C361.407 181.752 360.575 180.013 359.978 177.944C359.402 175.853 359.114 173.464 359.114 170.776C359.114 168.344 359.434 166.093 360.074 164.024C360.735 161.955 361.674 160.163 362.89 158.648C364.106 157.112 365.578 155.917 367.306 155.064C369.055 154.189 371.007 153.752 373.162 153.752C375.082 153.752 376.714 154.061 378.058 154.68C379.402 155.277 380.607 156.12 381.674 157.208V139.64H388.554ZM419.015 167C419.015 165.848 418.844 164.781 418.503 163.8C418.183 162.797 417.703 161.933 417.063 161.208C416.423 160.461 415.623 159.885 414.663 159.48C413.724 159.053 412.636 158.84 411.399 158.84C408.903 158.84 406.94 159.555 405.511 160.984C404.082 162.413 403.175 164.419 402.791 167H419.015ZM402.599 171.224C402.684 173.08 402.972 174.691 403.463 176.056C403.954 177.4 404.604 178.52 405.415 179.416C406.247 180.312 407.228 180.984 408.359 181.432C409.511 181.859 410.791 182.072 412.199 182.072C413.543 182.072 414.706 181.923 415.687 181.624C416.668 181.304 417.522 180.963 418.247 180.6C418.972 180.216 419.591 179.875 420.103 179.576C420.615 179.256 421.084 179.096 421.511 179.096C422.066 179.096 422.492 179.309 422.791 179.736L424.743 182.264C423.932 183.224 423.015 184.035 421.991 184.696C420.967 185.357 419.879 185.901 418.727 186.328C417.575 186.733 416.391 187.021 415.175 187.192C413.959 187.384 412.775 187.48 411.623 187.48C409.362 187.48 407.26 187.107 405.319 186.36C403.399 185.592 401.724 184.472 400.295 183C398.887 181.528 397.778 179.704 396.967 177.528C396.178 175.352 395.783 172.845 395.783 170.008C395.783 167.747 396.135 165.635 396.839 163.672C397.564 161.709 398.588 160.003 399.911 158.552C401.255 157.101 402.876 155.96 404.775 155.128C406.695 154.275 408.86 153.848 411.271 153.848C413.276 153.848 415.132 154.179 416.839 154.84C418.546 155.48 420.018 156.429 421.255 157.688C422.492 158.947 423.452 160.493 424.135 162.328C424.839 164.141 425.191 166.211 425.191 168.536C425.191 169.603 425.074 170.317 424.839 170.68C424.604 171.043 424.178 171.224 423.559 171.224H402.599ZM451.735 160.28C451.564 160.579 451.372 160.792 451.159 160.92C450.946 161.048 450.679 161.112 450.359 161.112C449.996 161.112 449.602 161.005 449.175 160.792C448.748 160.557 448.247 160.301 447.671 160.024C447.095 159.747 446.412 159.501 445.623 159.288C444.855 159.053 443.948 158.936 442.903 158.936C442.05 158.936 441.271 159.043 440.567 159.256C439.884 159.448 439.298 159.736 438.807 160.12C438.338 160.483 437.975 160.92 437.719 161.432C437.463 161.923 437.335 162.456 437.335 163.032C437.335 163.8 437.57 164.44 438.039 164.952C438.508 165.464 439.127 165.912 439.895 166.296C440.663 166.659 441.538 166.989 442.519 167.288C443.5 167.587 444.503 167.907 445.527 168.248C446.551 168.589 447.554 168.984 448.535 169.432C449.516 169.88 450.391 170.435 451.159 171.096C451.927 171.736 452.546 172.525 453.015 173.464C453.484 174.381 453.719 175.501 453.719 176.824C453.719 178.36 453.442 179.779 452.887 181.08C452.332 182.381 451.522 183.512 450.455 184.472C449.388 185.432 448.055 186.179 446.455 186.712C444.876 187.245 443.063 187.512 441.015 187.512C439.884 187.512 438.786 187.405 437.719 187.192C436.674 187 435.671 186.733 434.711 186.392C433.772 186.029 432.887 185.603 432.055 185.112C431.244 184.621 430.519 184.088 429.879 183.512L431.479 180.888C431.671 180.568 431.906 180.323 432.183 180.152C432.482 179.96 432.844 179.864 433.271 179.864C433.719 179.864 434.156 180.013 434.583 180.312C435.031 180.589 435.543 180.899 436.119 181.24C436.716 181.581 437.431 181.901 438.263 182.2C439.095 182.477 440.13 182.616 441.367 182.616C442.391 182.616 443.276 182.499 444.023 182.264C444.77 182.008 445.388 181.667 445.879 181.24C446.37 180.813 446.732 180.333 446.967 179.8C447.202 179.245 447.319 178.659 447.319 178.04C447.319 177.208 447.084 176.525 446.615 175.992C446.146 175.459 445.516 175 444.727 174.616C443.959 174.232 443.074 173.891 442.071 173.592C441.09 173.293 440.087 172.973 439.063 172.632C438.039 172.291 437.026 171.896 436.023 171.448C435.042 171 434.156 170.435 433.367 169.752C432.599 169.048 431.98 168.205 431.511 167.224C431.042 166.221 430.807 165.005 430.807 163.576C430.807 162.275 431.063 161.037 431.575 159.864C432.108 158.691 432.876 157.656 433.879 156.76C434.903 155.864 436.151 155.16 437.623 154.648C439.116 154.115 440.834 153.848 442.775 153.848C444.972 153.848 446.967 154.2 448.759 154.904C450.551 155.608 452.055 156.568 453.271 157.784L451.735 160.28ZM467.993 154.36V187H461.113V154.36H467.993ZM469.145 144.504C469.145 145.123 469.017 145.709 468.761 146.264C468.526 146.819 468.195 147.309 467.769 147.736C467.342 148.141 466.841 148.472 466.265 148.728C465.71 148.963 465.113 149.08 464.473 149.08C463.854 149.08 463.267 148.963 462.713 148.728C462.179 148.472 461.71 148.141 461.305 147.736C460.899 147.309 460.569 146.819 460.313 146.264C460.078 145.709 459.961 145.123 459.961 144.504C459.961 143.864 460.078 143.267 460.313 142.712C460.569 142.157 460.899 141.677 461.305 141.272C461.71 140.845 462.179 140.515 462.713 140.28C463.267 140.024 463.854 139.896 464.473 139.896C465.113 139.896 465.71 140.024 466.265 140.28C466.841 140.515 467.342 140.845 467.769 141.272C468.195 141.677 468.526 142.157 468.761 142.712C469.017 143.267 469.145 143.864 469.145 144.504ZM488.925 170.392C491.058 170.392 492.658 169.848 493.725 168.76C494.792 167.672 495.325 166.253 495.325 164.504C495.325 162.712 494.792 161.293 493.725 160.248C492.658 159.203 491.058 158.68 488.925 158.68C486.813 158.68 485.213 159.203 484.125 160.248C483.058 161.293 482.525 162.712 482.525 164.504C482.525 165.357 482.664 166.147 482.941 166.872C483.218 167.597 483.624 168.227 484.157 168.76C484.69 169.272 485.352 169.677 486.141 169.976C486.952 170.253 487.88 170.392 488.925 170.392ZM498.493 188.6C498.493 187.875 498.28 187.299 497.853 186.872C497.448 186.424 496.893 186.083 496.189 185.848C495.485 185.592 494.664 185.411 493.725 185.304C492.786 185.176 491.784 185.091 490.717 185.048C489.672 184.984 488.594 184.931 487.485 184.888C486.397 184.824 485.341 184.717 484.317 184.568C483.293 185.101 482.45 185.741 481.789 186.488C481.149 187.235 480.829 188.099 480.829 189.08C480.829 189.72 480.989 190.317 481.309 190.872C481.65 191.427 482.162 191.907 482.845 192.312C483.549 192.717 484.434 193.037 485.501 193.272C486.589 193.507 487.89 193.624 489.405 193.624C492.434 193.624 494.706 193.155 496.221 192.216C497.736 191.277 498.493 190.072 498.493 188.6ZM505.405 155.544V158.104C505.405 158.957 504.893 159.48 503.869 159.672L500.605 160.216C501.16 161.453 501.437 162.829 501.437 164.344C501.437 165.944 501.117 167.395 500.477 168.696C499.858 169.997 498.994 171.107 497.885 172.024C496.776 172.941 495.453 173.645 493.917 174.136C492.381 174.627 490.717 174.872 488.925 174.872C488.242 174.872 487.57 174.84 486.909 174.776C486.269 174.691 485.64 174.584 485.021 174.456C484.402 174.819 483.944 175.203 483.645 175.608C483.346 176.013 483.197 176.429 483.197 176.856C483.197 177.56 483.506 178.083 484.125 178.424C484.744 178.765 485.554 179.011 486.557 179.16C487.581 179.309 488.744 179.405 490.045 179.448C491.346 179.491 492.669 179.565 494.013 179.672C495.357 179.779 496.68 179.96 497.981 180.216C499.282 180.451 500.434 180.856 501.437 181.432C502.461 181.987 503.282 182.744 503.901 183.704C504.52 184.664 504.829 185.912 504.829 187.448C504.829 188.856 504.477 190.232 503.773 191.576C503.069 192.92 502.045 194.115 500.701 195.16C499.378 196.205 497.757 197.037 495.837 197.656C493.917 198.296 491.73 198.616 489.277 198.616C486.845 198.616 484.722 198.381 482.909 197.912C481.117 197.443 479.613 196.803 478.397 195.992C477.202 195.203 476.306 194.285 475.709 193.24C475.133 192.195 474.845 191.107 474.845 189.976C474.845 188.44 475.325 187.128 476.285 186.04C477.266 184.952 478.589 184.099 480.253 183.48C479.357 183.053 478.632 182.467 478.077 181.72C477.544 180.973 477.277 179.992 477.277 178.776C477.277 177.816 477.629 176.813 478.333 175.768C479.037 174.723 480.093 173.837 481.501 173.112C479.88 172.216 478.6 171.032 477.661 169.56C476.722 168.067 476.253 166.328 476.253 164.344C476.253 162.723 476.562 161.261 477.181 159.96C477.821 158.659 478.706 157.549 479.837 156.632C480.968 155.715 482.301 155.011 483.837 154.52C485.394 154.029 487.09 153.784 488.925 153.784C491.741 153.784 494.194 154.371 496.285 155.544H505.405ZM517.912 158.68C518.616 157.955 519.341 157.304 520.088 156.728C520.856 156.131 521.666 155.619 522.52 155.192C523.373 154.765 524.28 154.435 525.24 154.2C526.2 153.965 527.245 153.848 528.376 153.848C530.168 153.848 531.736 154.147 533.08 154.744C534.445 155.341 535.586 156.184 536.504 157.272C537.442 158.36 538.146 159.672 538.616 161.208C539.085 162.723 539.32 164.397 539.32 166.232V187H532.472V166.232C532.472 164.035 531.96 162.328 530.936 161.112C529.933 159.896 528.397 159.288 526.328 159.288C524.792 159.288 523.362 159.64 522.04 160.344C520.738 161.048 519.512 162.008 518.36 163.224V187H511.48V154.36H515.64C516.578 154.36 517.176 154.797 517.432 155.672L517.912 158.68ZM567.482 160.28C567.312 160.579 567.12 160.792 566.906 160.92C566.693 161.048 566.426 161.112 566.106 161.112C565.744 161.112 565.349 161.005 564.922 160.792C564.496 160.557 563.994 160.301 563.418 160.024C562.842 159.747 562.16 159.501 561.37 159.288C560.602 159.053 559.696 158.936 558.65 158.936C557.797 158.936 557.018 159.043 556.314 159.256C555.632 159.448 555.045 159.736 554.554 160.12C554.085 160.483 553.722 160.92 553.466 161.432C553.21 161.923 553.082 162.456 553.082 163.032C553.082 163.8 553.317 164.44 553.786 164.952C554.256 165.464 554.874 165.912 555.642 166.296C556.41 166.659 557.285 166.989 558.266 167.288C559.248 167.587 560.25 167.907 561.274 168.248C562.298 168.589 563.301 168.984 564.282 169.432C565.264 169.88 566.138 170.435 566.906 171.096C567.674 171.736 568.293 172.525 568.762 173.464C569.232 174.381 569.466 175.501 569.466 176.824C569.466 178.36 569.189 179.779 568.634 181.08C568.08 182.381 567.269 183.512 566.202 184.472C565.136 185.432 563.802 186.179 562.202 186.712C560.624 187.245 558.81 187.512 556.762 187.512C555.632 187.512 554.533 187.405 553.466 187.192C552.421 187 551.418 186.733 550.458 186.392C549.52 186.029 548.634 185.603 547.802 185.112C546.992 184.621 546.266 184.088 545.626 183.512L547.226 180.888C547.418 180.568 547.653 180.323 547.93 180.152C548.229 179.96 548.592 179.864 549.018 179.864C549.466 179.864 549.904 180.013 550.33 180.312C550.778 180.589 551.29 180.899 551.866 181.24C552.464 181.581 553.178 181.901 554.01 182.2C554.842 182.477 555.877 182.616 557.114 182.616C558.138 182.616 559.024 182.499 559.77 182.264C560.517 182.008 561.136 181.667 561.626 181.24C562.117 180.813 562.48 180.333 562.714 179.8C562.949 179.245 563.066 178.659 563.066 178.04C563.066 177.208 562.832 176.525 562.362 175.992C561.893 175.459 561.264 175 560.474 174.616C559.706 174.232 558.821 173.891 557.818 173.592C556.837 173.293 555.834 172.973 554.81 172.632C553.786 172.291 552.773 171.896 551.77 171.448C550.789 171 549.904 170.435 549.114 169.752C548.346 169.048 547.728 168.205 547.258 167.224C546.789 166.221 546.554 165.005 546.554 163.576C546.554 162.275 546.81 161.037 547.322 159.864C547.856 158.691 548.624 157.656 549.626 156.76C550.65 155.864 551.898 155.16 553.37 154.648C554.864 154.115 556.581 153.848 558.522 153.848C560.72 153.848 562.714 154.2 564.506 154.904C566.298 155.608 567.802 156.568 569.018 157.784L567.482 160.28Z" fill="#333333"/>
<rect x="1" y="1" width="22" height="22" fill="#EFC356" stroke="#333333" stroke-width="2"/>
<rect x="1" y="224" width="22" height="22" fill="#EFC356" stroke="#333333" stroke-width="2"/>
<rect x="628" y="224" width="22" height="22" fill="#EFC356" stroke="#333333" stroke-width="2"/>
<rect x="628" y="1" width="22" height="22" fill="#EFC356" stroke="#333333" stroke-width="2"/>
</svg>
