<?xml version="1.0" encoding="utf-8"?>
<!-- Generator: Adobe Illustrator 25.4.1, SVG Export Plug-In . SVG Version: 6.00 Build 0)  -->
<svg version="1.1" id="Layer_1" xmlns="http://www.w3.org/2000/svg" xmlns:xlink="http://www.w3.org/1999/xlink" x="0px" y="0px"
	 viewBox="0 0 433.4 433.4" style="enable-background:new 0 0 433.4 433.4;" xml:space="preserve">
<style type="text/css">
	.st0{fill:#3B64C4;}
	.st1{fill:#404A63;}
</style>
<desc>Created with Fabric.js 4.2.0</desc>
<g id="a3b9c5fe-1a07-45aa-90b4-c332306b0ce9" transform="matrix(1 0 0 1 540 540)">
</g>
<g transform="matrix(0.92 0 0 0.92 540 540)">
	<g vector-effect="non-scaling-stroke">
		<g transform="matrix(5.12 0 0 5.12 148.48 -209.92)">
			<path vector-effect="non-scaling-stroke" class="st0" d="M-69.6-69.6h2v2h-2V-69.6z"/>
		</g>
		<g transform="matrix(5.12 0 0 5.12 174.08 -209.92)">
			<path vector-effect="non-scaling-stroke" class="st0" d="M-69.6-69.6h2v2h-2V-69.6z"/>
		</g>
		<g transform="matrix(5.12 0 0 5.12 199.68 -209.92)">
			<path vector-effect="non-scaling-stroke" class="st0" d="M-69.6-69.6h2v2h-2V-69.6z"/>
		</g>
		<g transform="matrix(5.12 0 0 5.12 -230.4 -87.04)">
			<path vector-effect="non-scaling-stroke" class="st1" d="M-69.6-69.6h2v2h-2V-69.6z"/>
		</g>
		<g transform="matrix(5.12 0 0 5.12 0 -43.52)">
			<path vector-effect="non-scaling-stroke" class="st1" d="M-114.6-106.1v26h2v-16h88v56c0,3.9-3.1,7-7,7h-31v2h31c5,0,9-4,9-9v-66
				H-114.6z M-112.6-98.1v-6h88v6H-112.6z"/>
		</g>
		<g transform="matrix(5.12 0 0 5.12 -130.56 -148.48)">
			<path vector-effect="non-scaling-stroke" class="st0" d="M-82.1-69.6h27v2h-27V-69.6z"/>
		</g>
		<g transform="matrix(5.12 0 0 5.12 -112.64 -117.76)">
			<path vector-effect="non-scaling-stroke" class="st1" d="M-78.6-69.6h20v2h-20V-69.6z"/>
		</g>
		<g transform="matrix(5.12 0 0 5.12 -186.88 -117.76)">
			<path vector-effect="non-scaling-stroke" class="st1" d="M-71.1-69.6h5v2h-5V-69.6z"/>
		</g>
		<g transform="matrix(5.12 0 0 5.12 -43.66 76.8)">
			<path vector-effect="non-scaling-stroke" class="st1" d="M-56.1-77.6h17c4.2,0,7.7-3.3,7.9-7.5c0.3-4.2-2.8-7.9-6.9-8.4v-2.1
				c0-2.2-1.8-4-4-4h-7v2h7c1.1,0,2,0.9,2,2v6c0,1.1-0.9,2-2,2h-36c-1.1,0-2-0.9-2-2v-6c0-1.1,0.9-2,2-2h27v-2h-27c-2.2,0-4,1.8-4,4
				v6c0,2.2,1.8,4,4,4h36c2.2,0,4-1.8,4-4v-1.9c3.1,0.5,5.2,3.3,4.9,6.4c-0.3,3.1-2.8,5.5-5.9,5.5h-17c-2.8,0-5,2.2-5,5v12h-3v6h-33
				c-3.9,0-7-3.1-7-7v-34h-2v34c0,5,4,9,9,9h33v13c0,2.2,1.8,4,4,4s4-1.8,4-4v-21h-3v-12C-59.1-76.3-57.8-77.6-56.1-77.6z
				 M-58.1-41.6c0,1.1-0.9,2-2,2s-2-0.9-2-2v-19h4V-41.6z"/>
		</g>
		<g transform="matrix(5.12 0 0 5.12 -71.68 33.28)">
			<path vector-effect="non-scaling-stroke" class="st0" d="M-75.6-76.1v7c0,1.7,1.3,3,3,3s3-1.3,3-3v-2c0-0.6,0.4-1,1-1s1,0.4,1,1
				v7c0,1.7,1.3,3,3,3s3-1.3,3-3v-12h-2v12c0,0.6-0.4,1-1,1s-1-0.4-1-1v-7c0-1.7-1.3-3-3-3s-3,1.3-3,3v2c0,0.6-0.4,1-1,1s-1-0.4-1-1
				v-7H-75.6z"/>
		</g>
		<g transform="matrix(5.12 0 0 5.12 -92.16 81.92)">
			<path vector-effect="non-scaling-stroke" class="st1" d="M-71.6-66.6c0,1.7,1.3,3,3,3s3-1.3,3-3v-4c0-1.7-1.3-3-3-3s-3,1.3-3,3
				V-66.6z M-69.6-70.6c0-0.6,0.4-1,1-1s1,0.4,1,1v4c0,0.6-0.4,1-1,1s-1-0.4-1-1V-70.6z"/>
		</g>
	</g>
</g>
</svg>
