<?xml version="1.0" encoding="utf-8"?>
<!-- Generator: Adobe Illustrator 25.4.1, SVG Export Plug-In . SVG Version: 6.00 Build 0)  -->
<svg version="1.1" id="Layer_1" xmlns="http://www.w3.org/2000/svg" xmlns:xlink="http://www.w3.org/1999/xlink" x="0px" y="0px"
	 viewBox="0 0 432.4 432.4" style="enable-background:new 0 0 432.4 432.4;" xml:space="preserve">
<style type="text/css">
	.st0{display:none;}
	.st1{fill:#3B64C4;}
	.st2{fill:#404A63;}
</style>
<desc>Created with Fabric.js 4.2.0</desc>
<g id="a3b9c5fe-1a07-45aa-90b4-c332306b0ce9" transform="matrix(1 0 0 1 540 540)" class="st0">
</g>
<g>
	<g transform="matrix(8 0 0 8 0 0.01)">
		<path vector-effect="non-scaling-stroke" class="st1" d="M37.2,30.2c-0.2,0-0.4,0-0.6,0c-2-3.2-5-5.4-8.6-6.4
			c3-1.6,4.5-5.1,3.6-8.4s-3.8-5.6-7.2-5.6s-6.4,2.3-7.2,5.6c-0.9,3.3,0.6,6.7,3.6,8.4C14.4,25.4,10,31.2,10,37.7
			c0.1,1.5,0.9,2.8,2.1,3.6c2.7,1.9,7.5,2.8,12.2,2.8c3.1,0.1,6.1-0.3,9-1.2c1.2,0.8,2.5,1.2,3.9,1.2c3.9,0,7-3.1,7-7
			S41,30.2,37.2,30.2L37.2,30.2z M18.2,17.3c0-3.3,2.7-6,6.1-6c3.3,0,6,2.7,6,6s-2.7,6-6,6C20.9,23.4,18.2,20.7,18.2,17.3z
			 M12.8,40.2c-0.9-0.5-1.5-1.4-1.5-2.4c0-5.7,3.7-10.8,9.2-12.4c5.5-1.7,11.4,0.4,14.6,5.2c-2.3,0.7-4,2.5-4.6,4.8s0,4.7,1.6,6.5
			C25.7,43.6,16.4,42.8,12.8,40.2z M37.2,42.7c-2.3,0-4.3-1.4-5.2-3.4c-0.9-2.1-0.4-4.5,1.2-6.1c1.6-1.6,4-2.1,6.1-1.2
			c2.1,0.9,3.4,2.9,3.4,5.2c0,1.5-0.6,2.9-1.6,4C40.1,42.2,38.7,42.8,37.2,42.7L37.2,42.7z"/>
	</g>
	<g transform="matrix(8 0 0 8 86.48 86.48)">
		<path vector-effect="non-scaling-stroke" class="st1" d="M29.3,25.7h-2.2v-2.2c0-0.4-0.3-0.7-0.7-0.7c-0.4,0-0.7,0.3-0.7,0.7v2.2
			h-2.2c-0.4,0-0.7,0.3-0.7,0.7c0,0.4,0.3,0.7,0.7,0.7h2.2v2.2c0,0.4,0.3,0.7,0.7,0.7c0.4,0,0.7-0.3,0.7-0.7v-2.2h2.2
			c0.4,0,0.7-0.3,0.7-0.7S29.7,25.7,29.3,25.7z"/>
	</g>
	<g transform="matrix(8 0 0 8 0 0)">
		<path vector-effect="non-scaling-stroke" class="st2" d="M43.4,54H10.6C4.8,54,0,49.3,0,43.4V10.6C0,4.8,4.8,0,10.6,0h32.8
			C49.3,0,54,4.8,54,10.6v32.8C54,49.3,49.3,54,43.4,54z M10.6,1.4c-5.1,0-9.2,4.1-9.2,9.2v32.8c0,5.1,4.1,9.2,9.2,9.2h32.8
			c5.1,0,9.2-4.1,9.2-9.2V10.6c0-5.1-4.1-9.2-9.2-9.2C43.4,1.4,10.6,1.4,10.6,1.4z"/>
	</g>
</g>
</svg>
