<svg width="230" height="101" viewBox="0 0 230 101" fill="none" xmlns="http://www.w3.org/2000/svg">
<g filter="url(#filter0_d_49_80)">
<rect x="10" y="6" width="210" height="81" rx="13" fill="#0C1F36"/>
<path d="M30.528 18.904L28.576 17.064L30.528 15.216H31.384L29.424 17.064L31.384 18.904H30.528ZM32.5442 20V14.24H33.2162V16.712C33.3495 16.4667 33.5389 16.2773 33.7842 16.144C34.0295 16.0053 34.2962 15.936 34.5842 15.936C35.0429 15.936 35.4109 16.08 35.6882 16.368C35.9655 16.6507 36.1042 17.088 36.1042 17.68V20H35.4402V17.752C35.4402 16.9253 35.1069 16.512 34.4402 16.512C34.0935 16.512 33.8029 16.6373 33.5682 16.888C33.3335 17.1333 33.2162 17.4853 33.2162 17.944V20H32.5442ZM38.9063 20.096C38.5276 20.096 38.1916 20.0107 37.8983 19.84C37.605 19.664 37.373 19.4213 37.2023 19.112C37.037 18.8027 36.9543 18.4373 36.9543 18.016C36.9543 17.6 37.037 17.2373 37.2023 16.928C37.3676 16.6133 37.597 16.3707 37.8903 16.2C38.189 16.024 38.533 15.936 38.9223 15.936C39.3063 15.936 39.637 16.024 39.9143 16.2C40.197 16.3707 40.413 16.5973 40.5623 16.88C40.7116 17.1627 40.7863 17.4667 40.7863 17.792C40.7863 17.8507 40.7836 17.9093 40.7783 17.968C40.7783 18.0267 40.7783 18.0933 40.7783 18.168H37.6183C37.6343 18.472 37.7036 18.7253 37.8263 18.928C37.9543 19.1253 38.1116 19.2747 38.2983 19.376C38.4903 19.4773 38.693 19.528 38.9063 19.528C39.1836 19.528 39.4156 19.464 39.6023 19.336C39.789 19.208 39.925 19.0347 40.0103 18.816H40.6743C40.5676 19.184 40.3623 19.4907 40.0583 19.736C39.7596 19.976 39.3756 20.096 38.9063 20.096ZM38.9063 16.504C38.5863 16.504 38.301 16.6027 38.0503 16.8C37.805 16.992 37.6636 17.2747 37.6263 17.648H40.1223C40.1063 17.2907 39.9836 17.0107 39.7543 16.808C39.525 16.6053 39.2423 16.504 38.9063 16.504ZM42.997 20.096C42.6663 20.096 42.3917 20.04 42.173 19.928C41.9543 19.816 41.7917 19.6667 41.685 19.48C41.5783 19.2933 41.525 19.0907 41.525 18.872C41.525 18.4667 41.6797 18.1547 41.989 17.936C42.2983 17.7173 42.7197 17.608 43.253 17.608H44.325V17.56C44.325 17.2133 44.2343 16.952 44.053 16.776C43.8717 16.5947 43.629 16.504 43.325 16.504C43.0637 16.504 42.837 16.5707 42.645 16.704C42.4583 16.832 42.341 17.0213 42.293 17.272H41.605C41.6317 16.984 41.7277 16.7413 41.893 16.544C42.0637 16.3467 42.2743 16.1973 42.525 16.096C42.7757 15.9893 43.0423 15.936 43.325 15.936C43.8797 15.936 44.2957 16.0853 44.573 16.384C44.8557 16.6773 44.997 17.0693 44.997 17.56V20H44.397L44.357 19.288C44.245 19.512 44.0797 19.704 43.861 19.864C43.6477 20.0187 43.3597 20.096 42.997 20.096ZM43.101 19.528C43.357 19.528 43.5757 19.4613 43.757 19.328C43.9437 19.1947 44.085 19.0213 44.181 18.808C44.277 18.5947 44.325 18.3707 44.325 18.136V18.128H43.309C42.9143 18.128 42.6343 18.1973 42.469 18.336C42.309 18.4693 42.229 18.6373 42.229 18.84C42.229 19.048 42.3037 19.216 42.453 19.344C42.6077 19.4667 42.8237 19.528 43.101 19.528ZM47.8051 20.096C47.4105 20.096 47.0638 20.0053 46.7651 19.824C46.4718 19.6427 46.2425 19.3947 46.0771 19.08C45.9171 18.7653 45.8371 18.408 45.8371 18.008C45.8371 17.608 45.9198 17.2533 46.0851 16.944C46.2505 16.6293 46.4798 16.384 46.7731 16.208C47.0665 16.0267 47.4131 15.936 47.8131 15.936C48.1385 15.936 48.4265 16.0027 48.6771 16.136C48.9278 16.2693 49.1225 16.456 49.2611 16.696V14.24H49.9331V20H49.3251L49.2611 19.344C49.1331 19.536 48.9491 19.7093 48.7091 19.864C48.4691 20.0187 48.1678 20.096 47.8051 20.096ZM47.8771 19.512C48.1438 19.512 48.3785 19.4507 48.5811 19.328C48.7891 19.2 48.9491 19.024 49.0611 18.8C49.1785 18.576 49.2371 18.3147 49.2371 18.016C49.2371 17.7173 49.1785 17.456 49.0611 17.232C48.9491 17.008 48.7891 16.8347 48.5811 16.712C48.3785 16.584 48.1438 16.52 47.8771 16.52C47.6158 16.52 47.3811 16.584 47.1731 16.712C46.9705 16.8347 46.8105 17.008 46.6931 17.232C46.5811 17.456 46.5251 17.7173 46.5251 18.016C46.5251 18.3147 46.5811 18.576 46.6931 18.8C46.8105 19.024 46.9705 19.2 47.1731 19.328C47.3811 19.4507 47.6158 19.512 47.8771 19.512ZM52.8126 20.096C52.4339 20.096 52.0979 20.0107 51.8046 19.84C51.5112 19.664 51.2792 19.4213 51.1086 19.112C50.9432 18.8027 50.8606 18.4373 50.8606 18.016C50.8606 17.6 50.9432 17.2373 51.1086 16.928C51.2739 16.6133 51.5032 16.3707 51.7966 16.2C52.0952 16.024 52.4392 15.936 52.8286 15.936C53.2126 15.936 53.5432 16.024 53.8206 16.2C54.1032 16.3707 54.3192 16.5973 54.4686 16.88C54.6179 17.1627 54.6926 17.4667 54.6926 17.792C54.6926 17.8507 54.6899 17.9093 54.6846 17.968C54.6846 18.0267 54.6846 18.0933 54.6846 18.168H51.5246C51.5406 18.472 51.6099 18.7253 51.7326 18.928C51.8606 19.1253 52.0179 19.2747 52.2046 19.376C52.3966 19.4773 52.5992 19.528 52.8126 19.528C53.0899 19.528 53.3219 19.464 53.5086 19.336C53.6952 19.208 53.8312 19.0347 53.9166 18.816H54.5806C54.4739 19.184 54.2686 19.4907 53.9646 19.736C53.6659 19.976 53.2819 20.096 52.8126 20.096ZM52.8126 16.504C52.4926 16.504 52.2072 16.6027 51.9566 16.8C51.7112 16.992 51.5699 17.2747 51.5326 17.648H54.0286C54.0126 17.2907 53.8899 17.0107 53.6606 16.808C53.4312 16.6053 53.1486 16.504 52.8126 16.504ZM55.5833 20V16.032H56.1913L56.2473 16.792C56.3699 16.5307 56.5566 16.3227 56.8073 16.168C57.0579 16.0133 57.3673 15.936 57.7353 15.936V16.64H57.5513C57.3166 16.64 57.1006 16.6827 56.9033 16.768C56.7059 16.848 56.5486 16.9867 56.4313 17.184C56.3139 17.3813 56.2553 17.6533 56.2553 18V20H55.5833ZM58.5455 18.904L60.5055 17.064L58.5455 15.216H59.4015L61.3535 17.064L59.4015 18.904H58.5455ZM30.528 28.904L28.576 27.064L30.528 25.216H31.384L29.424 27.064L31.384 28.904H30.528ZM32.5442 31.76V26.032H33.1522L33.2162 26.688C33.3442 26.496 33.5255 26.3227 33.7602 26.168C34.0002 26.0133 34.3042 25.936 34.6722 25.936C35.0669 25.936 35.4109 26.0267 35.7042 26.208C35.9975 26.3893 36.2242 26.6373 36.3842 26.952C36.5495 27.2667 36.6322 27.624 36.6322 28.024C36.6322 28.424 36.5495 28.7813 36.3842 29.096C36.2242 29.4053 35.9949 29.6507 35.6962 29.832C35.4029 30.008 35.0589 30.096 34.6642 30.096C34.3389 30.096 34.0482 30.0293 33.7922 29.896C33.5415 29.7627 33.3495 29.576 33.2162 29.336V31.76H32.5442ZM34.5922 29.512C34.8589 29.512 35.0935 29.4507 35.2962 29.328C35.4989 29.2 35.6589 29.024 35.7762 28.8C35.8935 28.576 35.9522 28.3147 35.9522 28.016C35.9522 27.7173 35.8935 27.456 35.7762 27.232C35.6589 27.008 35.4989 26.8347 35.2962 26.712C35.0935 26.584 34.8589 26.52 34.5922 26.52C34.3255 26.52 34.0909 26.584 33.8882 26.712C33.6855 26.8347 33.5255 27.008 33.4082 27.232C33.2909 27.456 33.2322 27.7173 33.2322 28.016C33.2322 28.3147 33.2909 28.576 33.4082 28.8C33.5255 29.024 33.6855 29.2 33.8882 29.328C34.0909 29.4507 34.3255 29.512 34.5922 29.512ZM37.6236 28.904L39.5836 27.064L37.6236 25.216H38.4796L40.4316 27.064L38.4796 28.904H37.6236ZM130.403 28.904L128.451 27.064L130.403 25.216H131.259L129.299 27.064L131.259 28.904H130.403ZM132.091 30.76L134.099 23.888H134.763L132.755 30.76H132.091ZM135.544 31.76V26.032H136.152L136.216 26.688C136.344 26.496 136.526 26.3227 136.76 26.168C137 26.0133 137.304 25.936 137.672 25.936C138.067 25.936 138.411 26.0267 138.704 26.208C138.998 26.3893 139.224 26.6373 139.384 26.952C139.55 27.2667 139.632 27.624 139.632 28.024C139.632 28.424 139.55 28.7813 139.384 29.096C139.224 29.4053 138.995 29.6507 138.696 29.832C138.403 30.008 138.059 30.096 137.664 30.096C137.339 30.096 137.048 30.0293 136.792 29.896C136.542 29.7627 136.35 29.576 136.216 29.336V31.76H135.544ZM137.592 29.512C137.859 29.512 138.094 29.4507 138.296 29.328C138.499 29.2 138.659 29.024 138.776 28.8C138.894 28.576 138.952 28.3147 138.952 28.016C138.952 27.7173 138.894 27.456 138.776 27.232C138.659 27.008 138.499 26.8347 138.296 26.712C138.094 26.584 137.859 26.52 137.592 26.52C137.326 26.52 137.091 26.584 136.888 26.712C136.686 26.8347 136.526 27.008 136.408 27.232C136.291 27.456 136.232 27.7173 136.232 28.016C136.232 28.3147 136.291 28.576 136.408 28.8C136.526 29.024 136.686 29.2 136.888 29.328C137.091 29.4507 137.326 29.512 137.592 29.512ZM140.624 28.904L142.584 27.064L140.624 25.216H141.48L143.432 27.064L141.48 28.904H140.624ZM32.6452 38.904L30.6932 37.064L32.6452 35.216H33.5012L31.5412 37.064L33.5012 38.904H32.6452ZM34.3334 40.76L36.3414 33.888H37.0054L34.9974 40.76H34.3334ZM37.7864 40V34.24H38.4584V36.712C38.5917 36.4667 38.781 36.2773 39.0264 36.144C39.2717 36.0053 39.5384 35.936 39.8264 35.936C40.285 35.936 40.653 36.08 40.9304 36.368C41.2077 36.6507 41.3464 37.088 41.3464 37.68V40H40.6824V37.752C40.6824 36.9253 40.349 36.512 39.6824 36.512C39.3357 36.512 39.045 36.6373 38.8104 36.888C38.5757 37.1333 38.4584 37.4853 38.4584 37.944V40H37.7864ZM44.1485 40.096C43.7698 40.096 43.4338 40.0107 43.1405 39.84C42.8472 39.664 42.6152 39.4213 42.4445 39.112C42.2792 38.8027 42.1965 38.4373 42.1965 38.016C42.1965 37.6 42.2792 37.2373 42.4445 36.928C42.6098 36.6133 42.8392 36.3707 43.1325 36.2C43.4312 36.024 43.7752 35.936 44.1645 35.936C44.5485 35.936 44.8792 36.024 45.1565 36.2C45.4392 36.3707 45.6552 36.5973 45.8045 36.88C45.9538 37.1627 46.0285 37.4667 46.0285 37.792C46.0285 37.8507 46.0258 37.9093 46.0205 37.968C46.0205 38.0267 46.0205 38.0933 46.0205 38.168H42.8605C42.8765 38.472 42.9458 38.7253 43.0685 38.928C43.1965 39.1253 43.3538 39.2747 43.5405 39.376C43.7325 39.4773 43.9352 39.528 44.1485 39.528C44.4258 39.528 44.6578 39.464 44.8445 39.336C45.0312 39.208 45.1672 39.0347 45.2525 38.816H45.9165C45.8098 39.184 45.6045 39.4907 45.3005 39.736C45.0018 39.976 44.6178 40.096 44.1485 40.096ZM44.1485 36.504C43.8285 36.504 43.5432 36.6027 43.2925 36.8C43.0472 36.992 42.9058 37.2747 42.8685 37.648H45.3645C45.3485 37.2907 45.2258 37.0107 44.9965 36.808C44.7672 36.6053 44.4845 36.504 44.1485 36.504ZM48.2392 40.096C47.9085 40.096 47.6339 40.04 47.4152 39.928C47.1965 39.816 47.0339 39.6667 46.9272 39.48C46.8205 39.2933 46.7672 39.0907 46.7672 38.872C46.7672 38.4667 46.9219 38.1547 47.2312 37.936C47.5405 37.7173 47.9619 37.608 48.4952 37.608H49.5672V37.56C49.5672 37.2133 49.4765 36.952 49.2952 36.776C49.1139 36.5947 48.8712 36.504 48.5672 36.504C48.3059 36.504 48.0792 36.5707 47.8872 36.704C47.7005 36.832 47.5832 37.0213 47.5352 37.272H46.8472C46.8739 36.984 46.9699 36.7413 47.1352 36.544C47.3059 36.3467 47.5165 36.1973 47.7672 36.096C48.0179 35.9893 48.2845 35.936 48.5672 35.936C49.1219 35.936 49.5379 36.0853 49.8152 36.384C50.0979 36.6773 50.2392 37.0693 50.2392 37.56V40H49.6392L49.5992 39.288C49.4872 39.512 49.3219 39.704 49.1032 39.864C48.8899 40.0187 48.6019 40.096 48.2392 40.096ZM48.3432 39.528C48.5992 39.528 48.8179 39.4613 48.9992 39.328C49.1859 39.1947 49.3272 39.0213 49.4232 38.808C49.5192 38.5947 49.5672 38.3707 49.5672 38.136V38.128H48.5512C48.1565 38.128 47.8765 38.1973 47.7112 38.336C47.5512 38.4693 47.4712 38.6373 47.4712 38.84C47.4712 39.048 47.5459 39.216 47.6952 39.344C47.8499 39.4667 48.0659 39.528 48.3432 39.528ZM53.0473 40.096C52.6526 40.096 52.306 40.0053 52.0073 39.824C51.714 39.6427 51.4846 39.3947 51.3193 39.08C51.1593 38.7653 51.0793 38.408 51.0793 38.008C51.0793 37.608 51.162 37.2533 51.3273 36.944C51.4926 36.6293 51.722 36.384 52.0153 36.208C52.3086 36.0267 52.6553 35.936 53.0553 35.936C53.3806 35.936 53.6686 36.0027 53.9193 36.136C54.17 36.2693 54.3646 36.456 54.5033 36.696V34.24H55.1753V40H54.5673L54.5033 39.344C54.3753 39.536 54.1913 39.7093 53.9513 39.864C53.7113 40.0187 53.41 40.096 53.0473 40.096ZM53.1193 39.512C53.386 39.512 53.6206 39.4507 53.8233 39.328C54.0313 39.2 54.1913 39.024 54.3033 38.8C54.4206 38.576 54.4793 38.3147 54.4793 38.016C54.4793 37.7173 54.4206 37.456 54.3033 37.232C54.1913 37.008 54.0313 36.8347 53.8233 36.712C53.6206 36.584 53.386 36.52 53.1193 36.52C52.858 36.52 52.6233 36.584 52.4153 36.712C52.2126 36.8347 52.0526 37.008 51.9353 37.232C51.8233 37.456 51.7673 37.7173 51.7673 38.016C51.7673 38.3147 51.8233 38.576 51.9353 38.8C52.0526 39.024 52.2126 39.2 52.4153 39.328C52.6233 39.4507 52.858 39.512 53.1193 39.512ZM58.0548 40.096C57.6761 40.096 57.3401 40.0107 57.0468 39.84C56.7534 39.664 56.5214 39.4213 56.3508 39.112C56.1854 38.8027 56.1028 38.4373 56.1028 38.016C56.1028 37.6 56.1854 37.2373 56.3508 36.928C56.5161 36.6133 56.7454 36.3707 57.0388 36.2C57.3374 36.024 57.6814 35.936 58.0707 35.936C58.4548 35.936 58.7854 36.024 59.0628 36.2C59.3454 36.3707 59.5614 36.5973 59.7108 36.88C59.8601 37.1627 59.9348 37.4667 59.9348 37.792C59.9348 37.8507 59.9321 37.9093 59.9268 37.968C59.9268 38.0267 59.9268 38.0933 59.9268 38.168H56.7668C56.7828 38.472 56.8521 38.7253 56.9748 38.928C57.1028 39.1253 57.2601 39.2747 57.4468 39.376C57.6388 39.4773 57.8414 39.528 58.0548 39.528C58.3321 39.528 58.5641 39.464 58.7508 39.336C58.9374 39.208 59.0734 39.0347 59.1588 38.816H59.8228C59.7161 39.184 59.5108 39.4907 59.2068 39.736C58.9081 39.976 58.5241 40.096 58.0548 40.096ZM58.0548 36.504C57.7348 36.504 57.4494 36.6027 57.1988 36.8C56.9534 36.992 56.8121 37.2747 56.7747 37.648H59.2708C59.2548 37.2907 59.1321 37.0107 58.9028 36.808C58.6734 36.6053 58.3908 36.504 58.0548 36.504ZM60.8254 40V36.032H61.4334L61.4894 36.792C61.6121 36.5307 61.7988 36.3227 62.0494 36.168C62.3001 36.0133 62.6094 35.936 62.9774 35.936V36.64H62.7934C62.5588 36.64 62.3428 36.6827 62.1454 36.768C61.9481 36.848 61.7908 36.9867 61.6734 37.184C61.5561 37.3813 61.4974 37.6533 61.4974 38V40H60.8254ZM63.7877 38.904L65.7477 37.064L63.7877 35.216H64.6437L66.5957 37.064L64.6437 38.904H63.7877ZM30.528 48.904L28.576 47.064L30.528 45.216H31.384L29.424 47.064L31.384 48.904H30.528ZM32.5442 50V46.032H33.1522L33.1922 46.744C33.3202 46.4933 33.5042 46.296 33.7442 46.152C33.9842 46.008 34.2562 45.936 34.5602 45.936C35.0295 45.936 35.4029 46.08 35.6802 46.368C35.9629 46.6507 36.1042 47.088 36.1042 47.68V50H35.4322V47.752C35.4322 46.9253 35.0909 46.512 34.4082 46.512C34.0669 46.512 33.7815 46.6373 33.5522 46.888C33.3282 47.1333 33.2162 47.4853 33.2162 47.944V50H32.5442ZM38.4423 50.096C38.1116 50.096 37.837 50.04 37.6183 49.928C37.3996 49.816 37.237 49.6667 37.1303 49.48C37.0236 49.2933 36.9703 49.0907 36.9703 48.872C36.9703 48.4667 37.125 48.1547 37.4343 47.936C37.7436 47.7173 38.165 47.608 38.6983 47.608H39.7703V47.56C39.7703 47.2133 39.6796 46.952 39.4983 46.776C39.317 46.5947 39.0743 46.504 38.7703 46.504C38.509 46.504 38.2823 46.5707 38.0903 46.704C37.9036 46.832 37.7863 47.0213 37.7383 47.272H37.0503C37.077 46.984 37.173 46.7413 37.3383 46.544C37.509 46.3467 37.7196 46.1973 37.9703 46.096C38.221 45.9893 38.4876 45.936 38.7703 45.936C39.325 45.936 39.741 46.0853 40.0183 46.384C40.301 46.6773 40.4423 47.0693 40.4423 47.56V50H39.8423L39.8023 49.288C39.6903 49.512 39.525 49.704 39.3063 49.864C39.093 50.0187 38.805 50.096 38.4423 50.096ZM38.5463 49.528C38.8023 49.528 39.021 49.4613 39.2023 49.328C39.389 49.1947 39.5303 49.0213 39.6263 48.808C39.7223 48.5947 39.7703 48.3707 39.7703 48.136V48.128H38.7543C38.3596 48.128 38.0796 48.1973 37.9143 48.336C37.7543 48.4693 37.6743 48.6373 37.6743 48.84C37.6743 49.048 37.749 49.216 37.8983 49.344C38.053 49.4667 38.269 49.528 38.5463 49.528ZM42.446 50L40.942 46.032H41.646L42.838 49.352L44.038 46.032H44.726L43.222 50H42.446ZM45.5299 48.904L47.4899 47.064L45.5299 45.216H46.3859L48.3379 47.064L46.3859 48.904H45.5299ZM30.528 58.904L28.576 57.064L30.528 55.216H31.384L29.424 57.064L31.384 58.904H30.528ZM32.5442 60V54.24H33.2162V60H32.5442ZM34.7256 55.152C34.5923 55.152 34.4803 55.1093 34.3896 55.024C34.3043 54.9333 34.2616 54.8213 34.2616 54.688C34.2616 54.56 34.3043 54.4533 34.3896 54.368C34.4803 54.2827 34.5923 54.24 34.7256 54.24C34.8536 54.24 34.963 54.2827 35.0536 54.368C35.1443 54.4533 35.1896 54.56 35.1896 54.688C35.1896 54.8213 35.1443 54.9333 35.0536 55.024C34.963 55.1093 34.8536 55.152 34.7256 55.152ZM34.3896 60V56.032H35.0616V60H34.3896ZM36.2877 58.904L38.2477 57.064L36.2877 55.216H37.1437L39.0957 57.064L37.1437 58.904H36.2877ZM30.528 68.904L28.576 67.064L30.528 65.216H31.384L29.424 67.064L31.384 68.904H30.528ZM33.8642 70.096C33.5335 70.096 33.2589 70.04 33.0402 69.928C32.8215 69.816 32.6589 69.6667 32.5522 69.48C32.4455 69.2933 32.3922 69.0907 32.3922 68.872C32.3922 68.4667 32.5469 68.1547 32.8562 67.936C33.1655 67.7173 33.5869 67.608 34.1202 67.608H35.1922V67.56C35.1922 67.2133 35.1015 66.952 34.9202 66.776C34.7389 66.5947 34.4962 66.504 34.1922 66.504C33.9309 66.504 33.7042 66.5707 33.5122 66.704C33.3255 66.832 33.2082 67.0213 33.1602 67.272H32.4722C32.4989 66.984 32.5949 66.7413 32.7602 66.544C32.9309 66.3467 33.1415 66.1973 33.3922 66.096C33.6429 65.9893 33.9095 65.936 34.1922 65.936C34.7469 65.936 35.1629 66.0853 35.4402 66.384C35.7229 66.6773 35.8642 67.0693 35.8642 67.56V70H35.2642L35.2242 69.288C35.1122 69.512 34.9469 69.704 34.7282 69.864C34.5149 70.0187 34.2269 70.096 33.8642 70.096ZM33.9682 69.528C34.2242 69.528 34.4429 69.4613 34.6242 69.328C34.8109 69.1947 34.9522 69.0213 35.0482 68.808C35.1442 68.5947 35.1922 68.3707 35.1922 68.136V68.128H34.1762C33.7815 68.128 33.5015 68.1973 33.3362 68.336C33.1762 68.4693 33.0962 68.6373 33.0962 68.84C33.0962 69.048 33.1709 69.216 33.3202 69.344C33.4749 69.4667 33.6909 69.528 33.9682 69.528ZM38.9895 70V64.24H39.6615V66.712C39.7948 66.4667 39.9842 66.2773 40.2295 66.144C40.4748 66.0053 40.7415 65.936 41.0295 65.936C41.4882 65.936 41.8562 66.08 42.1335 66.368C42.4108 66.6507 42.5495 67.088 42.5495 67.68V70H41.8855V67.752C41.8855 66.9253 41.5522 66.512 40.8855 66.512C40.5388 66.512 40.2482 66.6373 40.0135 66.888C39.7788 67.1333 39.6615 67.4853 39.6615 67.944V70H38.9895ZM43.5676 70V66.032H44.1756L44.2316 66.792C44.3543 66.5307 44.541 66.3227 44.7916 66.168C45.0423 66.0133 45.3516 65.936 45.7196 65.936V66.64H45.5356C45.301 66.64 45.085 66.6827 44.8876 66.768C44.6903 66.848 44.533 66.9867 44.4156 67.184C44.2983 67.3813 44.2396 67.6533 44.2396 68V70H43.5676ZM48.1094 70.096C47.7308 70.096 47.3948 70.0107 47.1014 69.84C46.8081 69.664 46.5761 69.4213 46.4054 69.112C46.2401 68.8027 46.1574 68.4373 46.1574 68.016C46.1574 67.6 46.2401 67.2373 46.4054 66.928C46.5708 66.6133 46.8001 66.3707 47.0934 66.2C47.3921 66.024 47.7361 65.936 48.1254 65.936C48.5094 65.936 48.8401 66.024 49.1174 66.2C49.4001 66.3707 49.6161 66.5973 49.7654 66.88C49.9148 67.1627 49.9894 67.4667 49.9894 67.792C49.9894 67.8507 49.9868 67.9093 49.9814 67.968C49.9814 68.0267 49.9814 68.0933 49.9814 68.168H46.8214C46.8374 68.472 46.9068 68.7253 47.0294 68.928C47.1574 69.1253 47.3148 69.2747 47.5014 69.376C47.6934 69.4773 47.8961 69.528 48.1094 69.528C48.3868 69.528 48.6188 69.464 48.8054 69.336C48.9921 69.208 49.1281 69.0347 49.2134 68.816H49.8774C49.7708 69.184 49.5654 69.4907 49.2614 69.736C48.9628 69.976 48.5788 70.096 48.1094 70.096ZM48.1094 66.504C47.7894 66.504 47.5041 66.6027 47.2534 66.8C47.0081 66.992 46.8668 67.2747 46.8294 67.648H49.3254C49.3094 67.2907 49.1868 67.0107 48.9574 66.808C48.7281 66.6053 48.4454 66.504 48.1094 66.504ZM51.0961 70V66.6H50.4961V66.032H51.0961V65.344C51.0961 64.96 51.1921 64.68 51.3841 64.504C51.5761 64.328 51.8561 64.24 52.2241 64.24H52.6241V64.816H52.3281C52.1255 64.816 51.9815 64.8587 51.8961 64.944C51.8108 65.024 51.7681 65.1627 51.7681 65.36V66.032H52.7441V66.6H51.7681V70H51.0961ZM53.4962 67.128V66.552H56.6882V67.128H53.4962ZM53.4962 68.792V68.216H56.6882V68.792H53.4962ZM58.6193 65.536L58.5313 63.96H59.1633L59.0913 65.536H58.6193ZM57.5793 65.536L57.4913 63.96H58.1233L58.0433 65.536H57.5793ZM59.6928 70.76L61.7008 63.888H62.3648L60.3568 70.76H59.6928ZM64.0178 65.536L63.9298 63.96H64.5618L64.4898 65.536H64.0178ZM62.9778 65.536L62.8898 63.96H63.5218L63.4418 65.536H62.9778ZM65.4752 68.904L67.4352 67.064L65.4752 65.216H66.3312L68.2832 67.064L66.3312 68.904H65.4752ZM93.2624 68.904L91.3104 67.064L93.2624 65.216H94.1184L92.1584 67.064L94.1184 68.904H93.2624ZM94.9506 70.76L96.9586 63.888H97.6226L95.6146 70.76H94.9506ZM99.3173 70.096C98.9866 70.096 98.712 70.04 98.4933 69.928C98.2746 69.816 98.112 69.6667 98.0053 69.48C97.8986 69.2933 97.8453 69.0907 97.8453 68.872C97.8453 68.4667 98 68.1547 98.3093 67.936C98.6186 67.7173 99.04 67.608 99.5733 67.608H100.645V67.56C100.645 67.2133 100.555 66.952 100.373 66.776C100.192 66.5947 99.9493 66.504 99.6453 66.504C99.384 66.504 99.1573 66.5707 98.9653 66.704C98.7786 66.832 98.6613 67.0213 98.6133 67.272H97.9253C97.952 66.984 98.048 66.7413 98.2133 66.544C98.384 66.3467 98.5946 66.1973 98.8453 66.096C99.096 65.9893 99.3626 65.936 99.6453 65.936C100.2 65.936 100.616 66.0853 100.893 66.384C101.176 66.6773 101.317 67.0693 101.317 67.56V70H100.717L100.677 69.288C100.565 69.512 100.4 69.704 100.181 69.864C99.968 70.0187 99.68 70.096 99.3173 70.096ZM99.4213 69.528C99.6773 69.528 99.896 69.4613 100.077 69.328C100.264 69.1947 100.405 69.0213 100.501 68.808C100.597 68.5947 100.645 68.3707 100.645 68.136V68.128H99.6293C99.2346 68.128 98.9546 68.1973 98.7893 68.336C98.6293 68.4693 98.5493 68.6373 98.5493 68.84C98.5493 69.048 98.624 69.216 98.7733 69.344C98.928 69.4667 99.144 69.528 99.4213 69.528ZM102.381 68.904L104.341 67.064L102.381 65.216H103.237L105.189 67.064L103.237 68.904H102.381ZM30.528 78.904L28.576 77.064L30.528 75.216H31.384L29.424 77.064L31.384 78.904H30.528ZM32.2162 80.76L34.2242 73.888H34.8882L32.8802 80.76H32.2162ZM35.6692 80V74.24H36.3412V80H35.6692ZM37.8506 75.152C37.7173 75.152 37.6053 75.1093 37.5146 75.024C37.4293 74.9333 37.3866 74.8213 37.3866 74.688C37.3866 74.56 37.4293 74.4533 37.5146 74.368C37.6053 74.2827 37.7173 74.24 37.8506 74.24C37.9786 74.24 38.088 74.2827 38.1786 74.368C38.2693 74.4533 38.3146 74.56 38.3146 74.688C38.3146 74.8213 38.2693 74.9333 38.1786 75.024C38.088 75.1093 37.9786 75.152 37.8506 75.152ZM37.5146 80V76.032H38.1866V80H37.5146ZM39.4127 78.904L41.3727 77.064L39.4127 75.216H40.2687L42.2207 77.064L40.2687 78.904H39.4127Z" fill="#2E618A"/>
<path d="M42.7518 30.008L41.2158 24.4H41.9358L43.1438 29.208L44.5198 24.4H45.2638L46.5998 29.208L47.8238 24.4H48.5438L46.9758 30H46.2078L44.8718 25.376L43.5038 30L42.7518 30.008ZM50.6719 30.096C50.2933 30.096 49.9573 30.0107 49.6639 29.84C49.3706 29.664 49.1386 29.4213 48.9679 29.112C48.8026 28.8027 48.7199 28.4373 48.7199 28.016C48.7199 27.6 48.8026 27.2373 48.9679 26.928C49.1333 26.6133 49.3626 26.3707 49.6559 26.2C49.9546 26.024 50.2986 25.936 50.6879 25.936C51.0719 25.936 51.4026 26.024 51.6799 26.2C51.9626 26.3707 52.1786 26.5973 52.3279 26.88C52.4773 27.1627 52.5519 27.4667 52.5519 27.792C52.5519 27.8507 52.5493 27.9093 52.5439 27.968C52.5439 28.0267 52.5439 28.0933 52.5439 28.168H49.3839C49.3999 28.472 49.4693 28.7253 49.5919 28.928C49.7199 29.1253 49.8773 29.2747 50.0639 29.376C50.2559 29.4773 50.4586 29.528 50.6719 29.528C50.9493 29.528 51.1813 29.464 51.3679 29.336C51.5546 29.208 51.6906 29.0347 51.7759 28.816H52.4399C52.3333 29.184 52.1279 29.4907 51.8239 29.736C51.5253 29.976 51.1413 30.096 50.6719 30.096ZM50.6719 26.504C50.3519 26.504 50.0666 26.6027 49.8159 26.8C49.5706 26.992 49.4293 27.2747 49.3919 27.648H51.8879C51.8719 27.2907 51.7493 27.0107 51.5199 26.808C51.2906 26.6053 51.0079 26.504 50.6719 26.504ZM53.4426 30V24.24H54.1146V30H53.4426ZM57.0401 30.096C56.6614 30.096 56.3201 30.0107 56.0161 29.84C55.7174 29.664 55.4801 29.4213 55.3041 29.112C55.1334 28.7973 55.0481 28.432 55.0481 28.016C55.0481 27.6 55.1334 27.2373 55.3041 26.928C55.4801 26.6133 55.7174 26.3707 56.0161 26.2C56.3201 26.024 56.6614 25.936 57.0401 25.936C57.5094 25.936 57.9041 26.0587 58.2241 26.304C58.5494 26.5493 58.7547 26.8773 58.8401 27.288H58.1521C58.0987 27.0427 57.9681 26.8533 57.7601 26.72C57.5521 26.5813 57.3094 26.512 57.0321 26.512C56.8081 26.512 56.5974 26.568 56.4001 26.68C56.2027 26.792 56.0427 26.96 55.9201 27.184C55.7974 27.408 55.7361 27.6853 55.7361 28.016C55.7361 28.3467 55.7974 28.624 55.9201 28.848C56.0427 29.072 56.2027 29.2427 56.4001 29.36C56.5974 29.472 56.8081 29.528 57.0321 29.528C57.3094 29.528 57.5521 29.4613 57.7601 29.328C57.9681 29.1893 58.0987 28.9947 58.1521 28.744H58.8401C58.7601 29.144 58.5574 29.4693 58.2321 29.72C57.9067 29.9707 57.5094 30.096 57.0401 30.096ZM61.5866 30.096C61.2132 30.096 60.8772 30.0107 60.5786 29.84C60.2799 29.6693 60.0426 29.4293 59.8666 29.12C59.6959 28.8053 59.6106 28.4373 59.6106 28.016C59.6106 27.5947 59.6986 27.2293 59.8746 26.92C60.0506 26.6053 60.2879 26.3627 60.5866 26.192C60.8906 26.0213 61.2292 25.936 61.6026 25.936C61.9759 25.936 62.3119 26.0213 62.6106 26.192C62.9092 26.3627 63.1439 26.6053 63.3146 26.92C63.4906 27.2293 63.5786 27.5947 63.5786 28.016C63.5786 28.4373 63.4906 28.8053 63.3146 29.12C63.1386 29.4293 62.8986 29.6693 62.5946 29.84C62.2959 30.0107 61.9599 30.096 61.5866 30.096ZM61.5866 29.52C61.8159 29.52 62.0292 29.464 62.2266 29.352C62.4239 29.24 62.5839 29.072 62.7066 28.848C62.8292 28.624 62.8906 28.3467 62.8906 28.016C62.8906 27.6853 62.8292 27.408 62.7066 27.184C62.5892 26.96 62.4319 26.792 62.2346 26.68C62.0372 26.568 61.8266 26.512 61.6026 26.512C61.3732 26.512 61.1599 26.568 60.9626 26.68C60.7652 26.792 60.6052 26.96 60.4826 27.184C60.3599 27.408 60.2986 27.6853 60.2986 28.016C60.2986 28.3467 60.3599 28.624 60.4826 28.848C60.6052 29.072 60.7626 29.24 60.9546 29.352C61.1519 29.464 61.3626 29.52 61.5866 29.52ZM64.5129 30V26.032H65.1209L65.1689 26.608C65.2969 26.3947 65.4676 26.2293 65.6809 26.112C65.8943 25.9947 66.1343 25.936 66.4009 25.936C66.7156 25.936 66.9849 26 67.2089 26.128C67.4383 26.256 67.6143 26.4507 67.7369 26.712C67.8756 26.472 68.0649 26.2827 68.3049 26.144C68.5503 26.0053 68.8143 25.936 69.0969 25.936C69.5716 25.936 69.9503 26.08 70.2329 26.368C70.5156 26.6507 70.6569 27.088 70.6569 27.68V30H69.9929V27.752C69.9929 27.3413 69.9103 27.032 69.7449 26.824C69.5796 26.616 69.3423 26.512 69.0329 26.512C68.7129 26.512 68.4463 26.6373 68.2329 26.888C68.0249 27.1333 67.9209 27.4853 67.9209 27.944V30H67.2489V27.752C67.2489 27.3413 67.1663 27.032 67.0009 26.824C66.8356 26.616 66.5983 26.512 66.2889 26.512C65.9743 26.512 65.7103 26.6373 65.4969 26.888C65.2889 27.1333 65.1849 27.4853 65.1849 27.944V30H64.5129ZM73.4532 30.096C73.0745 30.096 72.7385 30.0107 72.4452 29.84C72.1519 29.664 71.9199 29.4213 71.7492 29.112C71.5839 28.8027 71.5012 28.4373 71.5012 28.016C71.5012 27.6 71.5839 27.2373 71.7492 26.928C71.9145 26.6133 72.1439 26.3707 72.4372 26.2C72.7359 26.024 73.0799 25.936 73.4692 25.936C73.8532 25.936 74.1839 26.024 74.4612 26.2C74.7439 26.3707 74.9599 26.5973 75.1092 26.88C75.2585 27.1627 75.3332 27.4667 75.3332 27.792C75.3332 27.8507 75.3305 27.9093 75.3252 27.968C75.3252 28.0267 75.3252 28.0933 75.3252 28.168H72.1652C72.1812 28.472 72.2505 28.7253 72.3732 28.928C72.5012 29.1253 72.6585 29.2747 72.8452 29.376C73.0372 29.4773 73.2399 29.528 73.4532 29.528C73.7305 29.528 73.9625 29.464 74.1492 29.336C74.3359 29.208 74.4719 29.0347 74.5572 28.816H75.2212C75.1145 29.184 74.9092 29.4907 74.6052 29.736C74.3065 29.976 73.9225 30.096 73.4532 30.096ZM73.4532 26.504C73.1332 26.504 72.8479 26.6027 72.5972 26.8C72.3519 26.992 72.2105 27.2747 72.1732 27.648H74.6692C74.6532 27.2907 74.5305 27.0107 74.3012 26.808C74.0719 26.6053 73.7892 26.504 73.4532 26.504ZM79.9091 30C79.5464 30 79.2611 29.912 79.0531 29.736C78.8451 29.56 78.7411 29.2427 78.7411 28.784V26.6H78.0531V26.032H78.7411L78.8291 25.08H79.4131V26.032H80.5811V26.6H79.4131V28.784C79.4131 29.0347 79.4637 29.2053 79.5651 29.296C79.6664 29.3813 79.8451 29.424 80.1011 29.424H80.5171V30H79.9091ZM83.1334 30.096C82.7601 30.096 82.4241 30.0107 82.1254 29.84C81.8268 29.6693 81.5894 29.4293 81.4134 29.12C81.2428 28.8053 81.1574 28.4373 81.1574 28.016C81.1574 27.5947 81.2454 27.2293 81.4214 26.92C81.5974 26.6053 81.8348 26.3627 82.1334 26.192C82.4374 26.0213 82.7761 25.936 83.1494 25.936C83.5228 25.936 83.8588 26.0213 84.1574 26.192C84.4561 26.3627 84.6908 26.6053 84.8614 26.92C85.0374 27.2293 85.1254 27.5947 85.1254 28.016C85.1254 28.4373 85.0374 28.8053 84.8614 29.12C84.6854 29.4293 84.4454 29.6693 84.1414 29.84C83.8428 30.0107 83.5068 30.096 83.1334 30.096ZM83.1334 29.52C83.3628 29.52 83.5761 29.464 83.7734 29.352C83.9708 29.24 84.1308 29.072 84.2534 28.848C84.3761 28.624 84.4374 28.3467 84.4374 28.016C84.4374 27.6853 84.3761 27.408 84.2534 27.184C84.1361 26.96 83.9788 26.792 83.7814 26.68C83.5841 26.568 83.3734 26.512 83.1494 26.512C82.9201 26.512 82.7068 26.568 82.5094 26.68C82.3121 26.792 82.1521 26.96 82.0294 27.184C81.9068 27.408 81.8454 27.6853 81.8454 28.016C81.8454 28.3467 81.9068 28.624 82.0294 28.848C82.1521 29.072 82.3094 29.24 82.5014 29.352C82.6988 29.464 82.9094 29.52 83.1334 29.52ZM87.977 30V29.472L90.737 24.984H88.017V24.4H91.521V24.928L88.753 29.416H91.553V30H87.977ZM94.2423 30.096C93.8636 30.096 93.5276 30.0107 93.2343 29.84C92.9409 29.664 92.7089 29.4213 92.5383 29.112C92.3729 28.8027 92.2903 28.4373 92.2903 28.016C92.2903 27.6 92.3729 27.2373 92.5383 26.928C92.7036 26.6133 92.9329 26.3707 93.2263 26.2C93.5249 26.024 93.8689 25.936 94.2582 25.936C94.6423 25.936 94.9729 26.024 95.2503 26.2C95.5329 26.3707 95.7489 26.5973 95.8983 26.88C96.0476 27.1627 96.1223 27.4667 96.1223 27.792C96.1223 27.8507 96.1196 27.9093 96.1143 27.968C96.1143 28.0267 96.1143 28.0933 96.1143 28.168H92.9543C92.9703 28.472 93.0396 28.7253 93.1623 28.928C93.2903 29.1253 93.4476 29.2747 93.6343 29.376C93.8263 29.4773 94.0289 29.528 94.2423 29.528C94.5196 29.528 94.7516 29.464 94.9383 29.336C95.1249 29.208 95.2609 29.0347 95.3463 28.816H96.0103C95.9036 29.184 95.6983 29.4907 95.3943 29.736C95.0956 29.976 94.7116 30.096 94.2423 30.096ZM94.2423 26.504C93.9223 26.504 93.6369 26.6027 93.3863 26.8C93.1409 26.992 92.9996 27.2747 92.9622 27.648H95.4583C95.4423 27.2907 95.3196 27.0107 95.0903 26.808C94.8609 26.6053 94.5783 26.504 94.2423 26.504ZM98.4481 30C98.0855 30 97.8001 29.912 97.5921 29.736C97.3841 29.56 97.2801 29.2427 97.2801 28.784V26.6H96.5921V26.032H97.2801L97.3681 25.08H97.9521V26.032H99.1201V26.6H97.9521V28.784C97.9521 29.0347 98.0028 29.2053 98.1041 29.296C98.2055 29.3813 98.3841 29.424 98.6401 29.424H99.0561V30H98.4481ZM101.422 30.096C100.953 30.096 100.579 29.9547 100.302 29.672C100.025 29.384 99.8859 28.944 99.8859 28.352V26.032H100.558V28.28C100.558 29.1067 100.897 29.52 101.574 29.52C101.921 29.52 102.206 29.3973 102.43 29.152C102.659 28.9013 102.774 28.5467 102.774 28.088V26.032H103.446V30H102.838L102.79 29.288C102.667 29.5387 102.483 29.736 102.238 29.88C101.998 30.024 101.726 30.096 101.422 30.096ZM104.552 31.76V26.032H105.16L105.224 26.688C105.352 26.496 105.533 26.3227 105.768 26.168C106.008 26.0133 106.312 25.936 106.68 25.936C107.075 25.936 107.419 26.0267 107.712 26.208C108.005 26.3893 108.232 26.6373 108.392 26.952C108.557 27.2667 108.64 27.624 108.64 28.024C108.64 28.424 108.557 28.7813 108.392 29.096C108.232 29.4053 108.003 29.6507 107.704 29.832C107.411 30.008 107.067 30.096 106.672 30.096C106.347 30.096 106.056 30.0293 105.8 29.896C105.549 29.7627 105.357 29.576 105.224 29.336V31.76H104.552ZM106.6 29.512C106.867 29.512 107.101 29.4507 107.304 29.328C107.507 29.2 107.667 29.024 107.784 28.8C107.901 28.576 107.96 28.3147 107.96 28.016C107.96 27.7173 107.901 27.456 107.784 27.232C107.667 27.008 107.507 26.8347 107.304 26.712C107.101 26.584 106.867 26.52 106.6 26.52C106.333 26.52 106.099 26.584 105.896 26.712C105.693 26.8347 105.533 27.008 105.416 27.232C105.299 27.456 105.24 27.7173 105.24 28.016C105.24 28.3147 105.299 28.576 105.416 28.8C105.533 29.024 105.693 29.2 105.896 29.328C106.099 29.4507 106.333 29.512 106.6 29.512ZM111.095 30.096C110.621 30.096 110.226 29.976 109.911 29.736C109.597 29.496 109.413 29.1707 109.359 28.76H110.047C110.09 28.968 110.199 29.1493 110.375 29.304C110.557 29.4533 110.799 29.528 111.103 29.528C111.386 29.528 111.594 29.4693 111.727 29.352C111.861 29.2293 111.927 29.0853 111.927 28.92C111.927 28.68 111.839 28.52 111.663 28.44C111.493 28.36 111.25 28.288 110.935 28.224C110.722 28.1813 110.509 28.12 110.295 28.04C110.082 27.96 109.903 27.848 109.759 27.704C109.615 27.5547 109.543 27.36 109.543 27.12C109.543 26.7733 109.671 26.4907 109.927 26.272C110.189 26.048 110.541 25.936 110.983 25.936C111.405 25.936 111.749 26.0427 112.015 26.256C112.287 26.464 112.445 26.7627 112.487 27.152H111.823C111.797 26.9493 111.709 26.792 111.559 26.68C111.415 26.5627 111.221 26.504 110.975 26.504C110.735 26.504 110.549 26.5547 110.415 26.656C110.287 26.7573 110.223 26.8907 110.223 27.056C110.223 27.216 110.306 27.3413 110.471 27.432C110.642 27.5227 110.871 27.6 111.159 27.664C111.405 27.7173 111.637 27.784 111.855 27.864C112.079 27.9387 112.261 28.0533 112.399 28.208C112.543 28.3573 112.615 28.576 112.615 28.864C112.621 29.2213 112.485 29.5173 112.207 29.752C111.935 29.9813 111.565 30.096 111.095 30.096ZM114.964 30C114.601 30 114.316 29.912 114.108 29.736C113.9 29.56 113.796 29.2427 113.796 28.784V26.6H113.108V26.032H113.796L113.884 25.08H114.468V26.032H115.636V26.6H114.468V28.784C114.468 29.0347 114.518 29.2053 114.62 29.296C114.721 29.3813 114.9 29.424 115.156 29.424H115.572V30H114.964ZM118.188 30.096C117.815 30.096 117.479 30.0107 117.18 29.84C116.881 29.6693 116.644 29.4293 116.468 29.12C116.297 28.8053 116.212 28.4373 116.212 28.016C116.212 27.5947 116.3 27.2293 116.476 26.92C116.652 26.6053 116.889 26.3627 117.188 26.192C117.492 26.0213 117.831 25.936 118.204 25.936C118.577 25.936 118.913 26.0213 119.212 26.192C119.511 26.3627 119.745 26.6053 119.916 26.92C120.092 27.2293 120.18 27.5947 120.18 28.016C120.18 28.4373 120.092 28.8053 119.916 29.12C119.74 29.4293 119.5 29.6693 119.196 29.84C118.897 30.0107 118.561 30.096 118.188 30.096ZM118.188 29.52C118.417 29.52 118.631 29.464 118.828 29.352C119.025 29.24 119.185 29.072 119.308 28.848C119.431 28.624 119.492 28.3467 119.492 28.016C119.492 27.6853 119.431 27.408 119.308 27.184C119.191 26.96 119.033 26.792 118.836 26.68C118.639 26.568 118.428 26.512 118.204 26.512C117.975 26.512 117.761 26.568 117.564 26.68C117.367 26.792 117.207 26.96 117.084 27.184C116.961 27.408 116.9 27.6853 116.9 28.016C116.9 28.3467 116.961 28.624 117.084 28.848C117.207 29.072 117.364 29.24 117.556 29.352C117.753 29.464 117.964 29.52 118.188 29.52ZM121.115 30V26.032H121.723L121.779 26.792C121.901 26.5307 122.088 26.3227 122.339 26.168C122.589 26.0133 122.899 25.936 123.267 25.936V26.64H123.083C122.848 26.64 122.632 26.6827 122.435 26.768C122.237 26.848 122.08 26.9867 121.963 27.184C121.845 27.3813 121.787 27.6533 121.787 28V30H121.115ZM125.656 30.096C125.278 30.096 124.942 30.0107 124.648 29.84C124.355 29.664 124.123 29.4213 123.952 29.112C123.787 28.8027 123.704 28.4373 123.704 28.016C123.704 27.6 123.787 27.2373 123.952 26.928C124.118 26.6133 124.347 26.3707 124.64 26.2C124.939 26.024 125.283 25.936 125.672 25.936C126.056 25.936 126.387 26.024 126.664 26.2C126.947 26.3707 127.163 26.5973 127.312 26.88C127.462 27.1627 127.536 27.4667 127.536 27.792C127.536 27.8507 127.534 27.9093 127.528 27.968C127.528 28.0267 127.528 28.0933 127.528 28.168H124.368C124.384 28.472 124.454 28.7253 124.576 28.928C124.704 29.1253 124.862 29.2747 125.048 29.376C125.24 29.4773 125.443 29.528 125.656 29.528C125.934 29.528 126.166 29.464 126.352 29.336C126.539 29.208 126.675 29.0347 126.76 28.816H127.424C127.318 29.184 127.112 29.4907 126.808 29.736C126.51 29.976 126.126 30.096 125.656 30.096ZM125.656 26.504C125.336 26.504 125.051 26.6027 124.8 26.8C124.555 26.992 124.414 27.2747 124.376 27.648H126.872C126.856 27.2907 126.734 27.0107 126.504 26.808C126.275 26.6053 125.992 26.504 125.656 26.504ZM69.4514 70V64.4H70.1234V66.872H73.0274V64.4H73.6994V70H73.0274V67.424H70.1234V70H69.4514ZM76.6491 70.096C76.2757 70.096 75.9397 70.0107 75.6411 69.84C75.3424 69.6693 75.1051 69.4293 74.9291 69.12C74.7584 68.8053 74.6731 68.4373 74.6731 68.016C74.6731 67.5947 74.7611 67.2293 74.9371 66.92C75.1131 66.6053 75.3504 66.3627 75.6491 66.192C75.9531 66.0213 76.2917 65.936 76.6651 65.936C77.0384 65.936 77.3744 66.0213 77.6731 66.192C77.9717 66.3627 78.2064 66.6053 78.3771 66.92C78.5531 67.2293 78.6411 67.5947 78.6411 68.016C78.6411 68.4373 78.5531 68.8053 78.3771 69.12C78.2011 69.4293 77.9611 69.6693 77.6571 69.84C77.3584 70.0107 77.0224 70.096 76.6491 70.096ZM76.6491 69.52C76.8784 69.52 77.0917 69.464 77.2891 69.352C77.4864 69.24 77.6464 69.072 77.7691 68.848C77.8917 68.624 77.9531 68.3467 77.9531 68.016C77.9531 67.6853 77.8917 67.408 77.7691 67.184C77.6517 66.96 77.4944 66.792 77.2971 66.68C77.0997 66.568 76.8891 66.512 76.6651 66.512C76.4357 66.512 76.2224 66.568 76.0251 66.68C75.8277 66.792 75.6677 66.96 75.5451 67.184C75.4224 67.408 75.3611 67.6853 75.3611 68.016C75.3611 68.3467 75.4224 68.624 75.5451 68.848C75.6677 69.072 75.8251 69.24 76.0171 69.352C76.2144 69.464 76.4251 69.52 76.6491 69.52ZM79.5754 70V66.032H80.1834L80.2314 66.608C80.3594 66.3947 80.5301 66.2293 80.7434 66.112C80.9568 65.9947 81.1968 65.936 81.4634 65.936C81.7781 65.936 82.0474 66 82.2714 66.128C82.5008 66.256 82.6768 66.4507 82.7994 66.712C82.9381 66.472 83.1274 66.2827 83.3674 66.144C83.6128 66.0053 83.8768 65.936 84.1594 65.936C84.6341 65.936 85.0128 66.08 85.2954 66.368C85.5781 66.6507 85.7194 67.088 85.7194 67.68V70H85.0554V67.752C85.0554 67.3413 84.9728 67.032 84.8074 66.824C84.6421 66.616 84.4048 66.512 84.0954 66.512C83.7754 66.512 83.5088 66.6373 83.2954 66.888C83.0874 67.1333 82.9834 67.4853 82.9834 67.944V70H82.3114V67.752C82.3114 67.3413 82.2288 67.032 82.0634 66.824C81.8981 66.616 81.6608 66.512 81.3514 66.512C81.0368 66.512 80.7728 66.6373 80.5594 66.888C80.3514 67.1333 80.2474 67.4853 80.2474 67.944V70H79.5754ZM88.5157 70.096C88.137 70.096 87.801 70.0107 87.5077 69.84C87.2144 69.664 86.9824 69.4213 86.8117 69.112C86.6464 68.8027 86.5637 68.4373 86.5637 68.016C86.5637 67.6 86.6464 67.2373 86.8117 66.928C86.977 66.6133 87.2064 66.3707 87.4997 66.2C87.7984 66.024 88.1424 65.936 88.5317 65.936C88.9157 65.936 89.2464 66.024 89.5237 66.2C89.8064 66.3707 90.0224 66.5973 90.1717 66.88C90.321 67.1627 90.3957 67.4667 90.3957 67.792C90.3957 67.8507 90.393 67.9093 90.3877 67.968C90.3877 68.0267 90.3877 68.0933 90.3877 68.168H87.2277C87.2437 68.472 87.313 68.7253 87.4357 68.928C87.5637 69.1253 87.721 69.2747 87.9077 69.376C88.0997 69.4773 88.3024 69.528 88.5157 69.528C88.793 69.528 89.025 69.464 89.2117 69.336C89.3984 69.208 89.5344 69.0347 89.6197 68.816H90.2837C90.177 69.184 89.9717 69.4907 89.6677 69.736C89.369 69.976 88.985 70.096 88.5157 70.096ZM88.5157 66.504C88.1957 66.504 87.9104 66.6027 87.6597 66.8C87.4144 66.992 87.273 67.2747 87.2357 67.648H89.7317C89.7157 67.2907 89.593 67.0107 89.3637 66.808C89.1344 66.6053 88.8517 66.504 88.5157 66.504Z" fill="white"/>
</g>
<defs>
<filter id="filter0_d_49_80" x="0" y="0" width="230" height="101" filterUnits="userSpaceOnUse" color-interpolation-filters="sRGB">
<feFlood flood-opacity="0" result="BackgroundImageFix"/>
<feColorMatrix in="SourceAlpha" type="matrix" values="0 0 0 0 0 0 0 0 0 0 0 0 0 0 0 0 0 0 127 0" result="hardAlpha"/>
<feOffset dy="4"/>
<feGaussianBlur stdDeviation="5"/>
<feComposite in2="hardAlpha" operator="out"/>
<feColorMatrix type="matrix" values="0 0 0 0 0 0 0 0 0 0 0 0 0 0 0 0 0 0 0.15 0"/>
<feBlend mode="normal" in2="BackgroundImageFix" result="effect1_dropShadow_49_80"/>
<feBlend mode="normal" in="SourceGraphic" in2="effect1_dropShadow_49_80" result="shape"/>
</filter>
</defs>
</svg>
