<svg width="142" height="71" viewBox="0 0 142 71" fill="none" xmlns="http://www.w3.org/2000/svg">
<g filter="url(#filter0_d_49_196)">
<rect x="10" y="6" width="122" height="51" rx="15" fill="#0C1F36"/>
</g>
<path d="M48.7002 29.007L50.6306 25.8227L48.7002 22.6925H49.5571L51.1087 25.2183L52.5881 22.6925H53.436L51.5056 25.8587L53.445 29.007H52.5881L51.0275 26.4721L49.5571 29.007H48.7002ZM54.1267 29.007L56.0571 25.8227L54.1267 22.6925H54.9836L56.5352 25.2183L58.0146 22.6925H58.8625L56.9321 25.8587L58.8715 29.007H58.0146L56.454 26.4721L54.9836 29.007H54.1267ZM62.6802 23.5404C62.5298 23.5404 62.4035 23.4923 62.3013 23.3961C62.2051 23.2939 62.157 23.1676 62.157 23.0172C62.157 22.8729 62.2051 22.7526 62.3013 22.6564C62.4035 22.5602 62.5298 22.5121 62.6802 22.5121C62.8245 22.5121 62.9478 22.5602 63.05 22.6564C63.1523 22.7526 63.2034 22.8729 63.2034 23.0172C63.2034 23.1676 63.1523 23.2939 63.05 23.3961C62.9478 23.4923 62.8245 23.5404 62.6802 23.5404ZM62.3013 29.007V24.5327H63.059V29.007H62.3013ZM66.1464 29.007C65.7375 29.007 65.4158 28.9077 65.1812 28.7093C64.9467 28.5108 64.8294 28.153 64.8294 27.6358V25.1732H64.0536V24.5327H64.8294L64.9287 23.4592H65.5872V24.5327H66.9042V25.1732H65.5872V27.6358C65.5872 27.9185 65.6443 28.1109 65.7586 28.2131C65.8728 28.3094 66.0743 28.3575 66.3629 28.3575H66.832V29.007H66.1464ZM69.7551 29.1152C69.3282 29.1152 68.9493 29.019 68.6185 28.8265C68.2878 28.6281 68.0262 28.3545 67.8337 28.0057C67.6473 27.6569 67.5541 27.2449 67.5541 26.7698C67.5541 26.3008 67.6473 25.8918 67.8337 25.543C68.0202 25.1882 68.2788 24.9146 68.6095 24.7221C68.9463 24.5237 69.3342 24.4244 69.7732 24.4244C70.2062 24.4244 70.579 24.5237 70.8918 24.7221C71.2105 24.9146 71.454 25.1702 71.6224 25.4889C71.7908 25.8076 71.875 26.1504 71.875 26.5172C71.875 26.5834 71.872 26.6496 71.866 26.7157C71.866 26.7819 71.866 26.857 71.866 26.9412H68.3028C68.3209 27.284 68.399 27.5697 68.5374 27.7982C68.6817 28.0207 68.8591 28.1891 69.0696 28.3033C69.2861 28.4176 69.5146 28.4747 69.7551 28.4747C70.0679 28.4747 70.3295 28.4026 70.5399 28.2582C70.7504 28.1139 70.9038 27.9185 71 27.6719H71.7487C71.6284 28.0868 71.3969 28.4326 71.0541 28.7093C70.7174 28.9799 70.2844 29.1152 69.7551 29.1152ZM69.7551 25.0649C69.3943 25.0649 69.0726 25.1762 68.7899 25.3987C68.5133 25.6152 68.3539 25.9339 68.3118 26.3549H71.1263C71.1082 25.952 70.9699 25.6362 70.7113 25.4077C70.4527 25.1792 70.134 25.0649 69.7551 25.0649ZM72.8793 29.007V24.5327H73.5649L73.619 25.1822C73.7634 24.9416 73.9558 24.7552 74.1964 24.6229C74.4369 24.4906 74.7075 24.4244 75.0082 24.4244C75.363 24.4244 75.6667 24.4966 75.9193 24.6409C76.1779 24.7853 76.3764 25.0048 76.5147 25.2995C76.671 25.0288 76.8845 24.8153 77.1551 24.659C77.4318 24.5026 77.7295 24.4244 78.0482 24.4244C78.5834 24.4244 79.0104 24.5868 79.3291 24.9116C79.6479 25.2303 79.8072 25.7234 79.8072 26.391V29.007H79.0585V26.4721C79.0585 26.0091 78.9653 25.6603 78.7789 25.4257C78.5924 25.1912 78.3248 25.0739 77.976 25.0739C77.6152 25.0739 77.3145 25.2153 77.074 25.4979C76.8394 25.7745 76.7221 26.1715 76.7221 26.6886V29.007H75.9644V26.4721C75.9644 26.0091 75.8712 25.6603 75.6848 25.4257C75.4983 25.1912 75.2307 25.0739 74.8819 25.0739C74.5271 25.0739 74.2294 25.2153 73.9889 25.4979C73.7543 25.7745 73.6371 26.1715 73.6371 26.6886V29.007H72.8793ZM83.3359 29.007V22.5121H84.0937V25.2995C84.244 25.0228 84.4575 24.8093 84.7341 24.659C85.0108 24.5026 85.3115 24.4244 85.6362 24.4244C86.1534 24.4244 86.5683 24.5868 86.8811 24.9116C87.1938 25.2303 87.3501 25.7234 87.3501 26.391V29.007H86.6014V26.4721C86.6014 25.54 86.2256 25.0739 85.4738 25.0739C85.0829 25.0739 84.7552 25.2153 84.4906 25.4979C84.226 25.7745 84.0937 26.1715 84.0937 26.6886V29.007H83.3359ZM89.9866 29.1152C89.6137 29.1152 89.304 29.0521 89.0574 28.9258C88.8109 28.7995 88.6275 28.6311 88.5072 28.4206C88.3869 28.2101 88.3268 27.9816 88.3268 27.735C88.3268 27.278 88.5012 26.9262 88.85 26.6796C89.1988 26.4331 89.6739 26.3098 90.2752 26.3098H91.484V26.2556C91.484 25.8648 91.3818 25.5701 91.1773 25.3716C90.9728 25.1672 90.6992 25.0649 90.3564 25.0649C90.0617 25.0649 89.8062 25.1401 89.5897 25.2904C89.3792 25.4348 89.2469 25.6483 89.1928 25.9309H88.417C88.447 25.6062 88.5553 25.3325 88.7417 25.11C88.9342 24.8875 89.1717 24.7191 89.4544 24.6049C89.737 24.4846 90.0377 24.4244 90.3564 24.4244C90.9819 24.4244 91.4509 24.5928 91.7637 24.9296C92.0824 25.2604 92.2417 25.7024 92.2417 26.2556V29.007H91.5652L91.5201 28.2041C91.3938 28.4567 91.2074 28.6732 90.9608 28.8536C90.7203 29.028 90.3955 29.1152 89.9866 29.1152ZM90.1038 28.4747C90.3925 28.4747 90.6391 28.3996 90.8435 28.2492C91.054 28.0989 91.2134 27.9034 91.3216 27.6629C91.4299 27.4223 91.484 27.1697 91.484 26.9051V26.8961H90.3384C89.8934 26.8961 89.5776 26.9743 89.3912 27.1307C89.2108 27.281 89.1206 27.4704 89.1206 27.699C89.1206 27.9335 89.2048 28.1229 89.3732 28.2673C89.5476 28.4056 89.7911 28.4747 90.1038 28.4747ZM95.0924 29.1152C94.5572 29.1152 94.1122 28.9799 93.7574 28.7093C93.4026 28.4387 93.1951 28.0718 93.1349 27.6088H93.9107C93.9588 27.8433 94.0821 28.0478 94.2806 28.2222C94.485 28.3905 94.7587 28.4747 95.1014 28.4747C95.4202 28.4747 95.6547 28.4086 95.8051 28.2763C95.9554 28.138 96.0306 27.9756 96.0306 27.7892C96.0306 27.5185 95.9314 27.3381 95.7329 27.2479C95.5405 27.1577 95.2668 27.0765 94.912 27.0044C94.6715 26.9563 94.4309 26.8871 94.1904 26.7969C93.9498 26.7067 93.7483 26.5804 93.586 26.418C93.4236 26.2496 93.3424 26.0301 93.3424 25.7595C93.3424 25.3686 93.4867 25.0499 93.7754 24.8033C94.0701 24.5507 94.467 24.4244 94.9661 24.4244C95.4412 24.4244 95.8291 24.5447 96.1298 24.7853C96.4365 25.0198 96.6139 25.3566 96.662 25.7956H95.9133C95.8832 25.5671 95.784 25.3897 95.6156 25.2634C95.4533 25.1311 95.2338 25.0649 94.9571 25.0649C94.6865 25.0649 94.476 25.122 94.3257 25.2363C94.1813 25.3506 94.1092 25.5009 94.1092 25.6873C94.1092 25.8678 94.2024 26.0091 94.3888 26.1113C94.5813 26.2136 94.8398 26.3008 95.1646 26.3729C95.4412 26.4331 95.7028 26.5082 95.9494 26.5984C96.202 26.6826 96.4064 26.8119 96.5628 26.9863C96.7252 27.1547 96.8064 27.4013 96.8064 27.726C96.8124 28.1289 96.659 28.4627 96.3463 28.7273C96.0396 28.9859 95.6216 29.1152 95.0924 29.1152ZM102.667 29.1152C102.3 29.1152 101.972 29.04 101.683 28.8897C101.401 28.7393 101.184 28.5289 101.034 28.2582L100.962 29.007H100.276V22.5121H101.034V25.2724C101.178 25.0559 101.383 24.8604 101.647 24.686C101.918 24.5116 102.261 24.4244 102.676 24.4244C103.121 24.4244 103.509 24.5267 103.839 24.7312C104.17 24.9356 104.426 25.2153 104.606 25.5701C104.793 25.9249 104.886 26.3278 104.886 26.7788C104.886 27.2299 104.793 27.6328 104.606 27.9876C104.426 28.3364 104.167 28.6131 103.83 28.8175C103.5 29.016 103.112 29.1152 102.667 29.1152ZM102.585 28.4567C102.886 28.4567 103.151 28.3875 103.379 28.2492C103.608 28.1049 103.788 27.9064 103.921 27.6539C104.053 27.4013 104.119 27.1066 104.119 26.7698C104.119 26.4331 104.053 26.1384 103.921 25.8858C103.788 25.6332 103.608 25.4378 103.379 25.2995C103.151 25.1551 102.886 25.083 102.585 25.083C102.285 25.083 102.02 25.1551 101.792 25.2995C101.563 25.4378 101.383 25.6332 101.25 25.8858C101.118 26.1384 101.052 26.4331 101.052 26.7698C101.052 27.1066 101.118 27.4013 101.25 27.6539C101.383 27.9064 101.563 28.1049 101.792 28.2492C102.02 28.3875 102.285 28.4567 102.585 28.4567ZM107.952 29.1152C107.525 29.1152 107.146 29.019 106.816 28.8265C106.485 28.6281 106.223 28.3545 106.031 28.0057C105.844 27.6569 105.751 27.2449 105.751 26.7698C105.751 26.3008 105.844 25.8918 106.031 25.543C106.217 25.1882 106.476 24.9146 106.806 24.7221C107.143 24.5237 107.531 24.4244 107.97 24.4244C108.403 24.4244 108.776 24.5237 109.089 24.7221C109.407 24.9146 109.651 25.1702 109.819 25.4889C109.988 25.8076 110.072 26.1504 110.072 26.5172C110.072 26.5834 110.069 26.6496 110.063 26.7157C110.063 26.7819 110.063 26.857 110.063 26.9412H106.5C106.518 27.284 106.596 27.5697 106.734 27.7982C106.879 28.0207 107.056 28.1891 107.267 28.3033C107.483 28.4176 107.712 28.4747 107.952 28.4747C108.265 28.4747 108.526 28.4026 108.737 28.2582C108.947 28.1139 109.101 27.9185 109.197 27.6719H109.946C109.825 28.0868 109.594 28.4326 109.251 28.7093C108.914 28.9799 108.481 29.1152 107.952 29.1152ZM107.952 25.0649C107.591 25.0649 107.27 25.1762 106.987 25.3987C106.71 25.6152 106.551 25.9339 106.509 26.3549H109.323C109.305 25.952 109.167 25.6362 108.908 25.4077C108.65 25.1792 108.331 25.0649 107.952 25.0649ZM113.088 29.1152C112.661 29.1152 112.282 29.019 111.951 28.8265C111.621 28.6281 111.359 28.3545 111.167 28.0057C110.98 27.6569 110.887 27.2449 110.887 26.7698C110.887 26.3008 110.98 25.8918 111.167 25.543C111.353 25.1882 111.612 24.9146 111.942 24.7221C112.279 24.5237 112.667 24.4244 113.106 24.4244C113.539 24.4244 113.912 24.5237 114.225 24.7221C114.543 24.9146 114.787 25.1702 114.955 25.4889C115.124 25.8076 115.208 26.1504 115.208 26.5172C115.208 26.5834 115.205 26.6496 115.199 26.7157C115.199 26.7819 115.199 26.857 115.199 26.9412H111.636C111.654 27.284 111.732 27.5697 111.87 27.7982C112.014 28.0207 112.192 28.1891 112.402 28.3033C112.619 28.4176 112.847 28.4747 113.088 28.4747C113.401 28.4747 113.662 28.4026 113.873 28.2582C114.083 28.1139 114.237 27.9185 114.333 27.6719H115.082C114.961 28.0868 114.73 28.4326 114.387 28.7093C114.05 28.9799 113.617 29.1152 113.088 29.1152ZM113.088 25.0649C112.727 25.0649 112.405 25.1762 112.123 25.3987C111.846 25.6152 111.687 25.9339 111.645 26.3549H114.459C114.441 25.952 114.303 25.6362 114.044 25.4077C113.786 25.1792 113.467 25.0649 113.088 25.0649ZM116.212 29.007V24.5327H116.898L116.943 25.3355C117.087 25.0529 117.295 24.8304 117.565 24.668C117.836 24.5056 118.143 24.4244 118.485 24.4244C119.015 24.4244 119.436 24.5868 119.748 24.9116C120.067 25.2303 120.226 25.7234 120.226 26.391V29.007H119.469V26.4721C119.469 25.54 119.084 25.0739 118.314 25.0739C117.929 25.0739 117.607 25.2153 117.349 25.4979C117.096 25.7745 116.97 26.1715 116.97 26.6886V29.007H116.212ZM55.0226 41.1152C54.6497 41.1152 54.34 41.0521 54.0935 40.9258C53.8469 40.7995 53.6635 40.6311 53.5432 40.4206C53.4229 40.2101 53.3628 39.9816 53.3628 39.735C53.3628 39.278 53.5372 38.9262 53.886 38.6796C54.2348 38.4331 54.7099 38.3098 55.3113 38.3098H56.52V38.2556C56.52 37.8648 56.4178 37.5701 56.2133 37.3716C56.0089 37.1672 55.7352 37.0649 55.3924 37.0649C55.0978 37.0649 54.8422 37.1401 54.6257 37.2904C54.4152 37.4348 54.2829 37.6483 54.2288 37.9309H53.453C53.4831 37.6062 53.5913 37.3325 53.7777 37.11C53.9702 36.8875 54.2077 36.7191 54.4904 36.6049C54.773 36.4846 55.0737 36.4244 55.3924 36.4244C56.0179 36.4244 56.487 36.5928 56.7997 36.9296C57.1184 37.2604 57.2778 37.7024 57.2778 38.2556V41.007H56.6012L56.5561 40.2041C56.4298 40.4567 56.2434 40.6732 55.9968 40.8536C55.7563 41.028 55.4315 41.1152 55.0226 41.1152ZM55.1399 40.4747C55.4285 40.4747 55.6751 40.3996 55.8796 40.2492C56.09 40.0989 56.2494 39.9034 56.3577 39.6629C56.4659 39.4223 56.52 39.1697 56.52 38.9051V38.8961H55.3744C54.9294 38.8961 54.6137 38.9743 54.4272 39.1307C54.2468 39.281 54.1566 39.4704 54.1566 39.699C54.1566 39.9335 54.2408 40.1229 54.4092 40.2673C54.5836 40.4056 54.8271 40.4747 55.1399 40.4747ZM60.4442 41.1152C59.9992 41.1152 59.6083 41.013 59.2715 40.8085C58.9407 40.604 58.6821 40.3244 58.4957 39.9696C58.3153 39.6148 58.2251 39.2118 58.2251 38.7608C58.2251 38.3098 58.3183 37.9099 58.5047 37.5611C58.6912 37.2062 58.9497 36.9296 59.2805 36.7312C59.6113 36.5267 60.0022 36.4244 60.4532 36.4244C60.82 36.4244 61.1448 36.4996 61.4274 36.65C61.7101 36.8003 61.9296 37.0108 62.0859 37.2814V34.5121H62.8437V41.007H62.1581L62.0859 40.2673C61.9416 40.4838 61.7341 40.6792 61.4635 40.8536C61.1929 41.028 60.8531 41.1152 60.4442 41.1152ZM60.5254 40.4567C60.826 40.4567 61.0907 40.3875 61.3192 40.2492C61.5537 40.1049 61.7341 39.9064 61.8604 39.6539C61.9927 39.4013 62.0589 39.1066 62.0589 38.7698C62.0589 38.4331 61.9927 38.1384 61.8604 37.8858C61.7341 37.6332 61.5537 37.4378 61.3192 37.2995C61.0907 37.1551 60.826 37.083 60.5254 37.083C60.2307 37.083 59.9661 37.1551 59.7315 37.2995C59.503 37.4378 59.3226 37.6332 59.1903 37.8858C59.064 38.1384 59.0009 38.4331 59.0009 38.7698C59.0009 39.1066 59.064 39.4013 59.1903 39.6539C59.3226 39.9064 59.503 40.1049 59.7315 40.2492C59.9661 40.3875 60.2307 40.4567 60.5254 40.4567ZM66.1085 41.1152C65.6635 41.1152 65.2726 41.013 64.9358 40.8085C64.6051 40.604 64.3465 40.3244 64.1601 39.9696C63.9796 39.6148 63.8894 39.2118 63.8894 38.7608C63.8894 38.3098 63.9827 37.9099 64.1691 37.5611C64.3555 37.2062 64.6141 36.9296 64.9449 36.7312C65.2756 36.5267 65.6665 36.4244 66.1176 36.4244C66.4844 36.4244 66.8091 36.4996 67.0918 36.65C67.3744 36.8003 67.5939 37.0108 67.7503 37.2814V34.5121H68.508V41.007H67.8225L67.7503 40.2673C67.606 40.4838 67.3985 40.6792 67.1279 40.8536C66.8572 41.028 66.5175 41.1152 66.1085 41.1152ZM66.1897 40.4567C66.4904 40.4567 66.755 40.3875 66.9835 40.2492C67.2181 40.1049 67.3985 39.9064 67.5248 39.6539C67.6571 39.4013 67.7232 39.1066 67.7232 38.7698C67.7232 38.4331 67.6571 38.1384 67.5248 37.8858C67.3985 37.6332 67.2181 37.4378 66.9835 37.2995C66.755 37.1551 66.4904 37.083 66.1897 37.083C65.895 37.083 65.6304 37.1551 65.3959 37.2995C65.1674 37.4378 64.987 37.6332 64.8547 37.8858C64.7284 38.1384 64.6652 38.4331 64.6652 38.7698C64.6652 39.1066 64.7284 39.4013 64.8547 39.6539C64.987 39.9064 65.1674 40.1049 65.3959 40.2492C65.6304 40.3875 65.895 40.4567 66.1897 40.4567ZM71.7548 41.1152C71.3279 41.1152 70.949 41.019 70.6182 40.8265C70.2875 40.6281 70.0259 40.3545 69.8334 40.0057C69.647 39.6569 69.5538 39.2449 69.5538 38.7698C69.5538 38.3008 69.647 37.8918 69.8334 37.543C70.0199 37.1882 70.2785 36.9146 70.6092 36.7221C70.946 36.5237 71.3339 36.4244 71.7729 36.4244C72.2059 36.4244 72.5787 36.5237 72.8915 36.7221C73.2102 36.9146 73.4537 37.1702 73.6221 37.4889C73.7905 37.8076 73.8747 38.1504 73.8747 38.5172C73.8747 38.5834 73.8717 38.6496 73.8657 38.7157C73.8657 38.7819 73.8657 38.857 73.8657 38.9412H70.3025C70.3206 39.284 70.3987 39.5697 70.5371 39.7982C70.6814 40.0207 70.8588 40.1891 71.0693 40.3033C71.2858 40.4176 71.5143 40.4747 71.7548 40.4747C72.0676 40.4747 72.3292 40.4026 72.5396 40.2582C72.7501 40.1139 72.9035 39.9185 72.9997 39.6719H73.7484C73.6281 40.0868 73.3966 40.4326 73.0538 40.7093C72.7171 40.9799 72.2841 41.1152 71.7548 41.1152ZM71.7548 37.0649C71.394 37.0649 71.0723 37.1762 70.7896 37.3987C70.513 37.6152 70.3536 37.9339 70.3115 38.3549H73.126C73.108 37.952 72.9696 37.6362 72.711 37.4077C72.4524 37.1792 72.1337 37.0649 71.7548 37.0649ZM76.9087 41.1152C76.4637 41.1152 76.0728 41.013 75.736 40.8085C75.4052 40.604 75.1466 40.3244 74.9602 39.9696C74.7798 39.6148 74.6896 39.2118 74.6896 38.7608C74.6896 38.3098 74.7828 37.9099 74.9692 37.5611C75.1557 37.2062 75.4143 36.9296 75.745 36.7312C76.0758 36.5267 76.4667 36.4244 76.9177 36.4244C77.2846 36.4244 77.6093 36.4996 77.8919 36.65C78.1746 36.8003 78.3941 37.0108 78.5505 37.2814V34.5121H79.3082V41.007H78.6226L78.5505 40.2673C78.4061 40.4838 78.1986 40.6792 77.928 40.8536C77.6574 41.028 77.3176 41.1152 76.9087 41.1152ZM76.9899 40.4567C77.2906 40.4567 77.5552 40.3875 77.7837 40.2492C78.0182 40.1049 78.1986 39.9064 78.3249 39.6539C78.4572 39.4013 78.5234 39.1066 78.5234 38.7698C78.5234 38.4331 78.4572 38.1384 78.3249 37.8858C78.1986 37.6332 78.0182 37.4378 77.7837 37.2995C77.5552 37.1551 77.2906 37.083 76.9899 37.083C76.6952 37.083 76.4306 37.1551 76.1961 37.2995C75.9675 37.4378 75.7871 37.6332 75.6548 37.8858C75.5285 38.1384 75.4654 38.4331 75.4654 38.7698C75.4654 39.1066 75.5285 39.4013 75.6548 39.6539C75.7871 39.9064 75.9675 40.1049 76.1961 40.2492C76.4306 40.3875 76.6952 40.4567 76.9899 40.4567ZM84.6988 41.007C84.2898 41.007 83.9681 40.9077 83.7335 40.7093C83.499 40.5108 83.3817 40.153 83.3817 39.6358V37.1732H82.606V36.5327H83.3817L83.481 35.4592H84.1395V36.5327H85.4565V37.1732H84.1395V39.6358C84.1395 39.9185 84.1966 40.1109 84.3109 40.2131C84.4251 40.3094 84.6266 40.3575 84.9153 40.3575H85.3843V41.007H84.6988ZM88.3345 41.1152C87.9136 41.1152 87.5347 41.019 87.1979 40.8265C86.8611 40.6341 86.5935 40.3635 86.3951 40.0147C86.2026 39.6599 86.1064 39.2449 86.1064 38.7698C86.1064 38.2947 86.2056 37.8828 86.4041 37.534C86.6025 37.1792 86.8702 36.9056 87.2069 36.7131C87.5497 36.5207 87.9316 36.4244 88.3526 36.4244C88.7735 36.4244 89.1524 36.5207 89.4892 36.7131C89.8259 36.9056 90.0905 37.1792 90.283 37.534C90.4814 37.8828 90.5807 38.2947 90.5807 38.7698C90.5807 39.2449 90.4814 39.6599 90.283 40.0147C90.0845 40.3635 89.8139 40.6341 89.4711 40.8265C89.1344 41.019 88.7555 41.1152 88.3345 41.1152ZM88.3345 40.4657C88.5931 40.4657 88.8337 40.4026 89.0562 40.2763C89.2787 40.15 89.4591 39.9606 89.5974 39.708C89.7357 39.4554 89.8049 39.1427 89.8049 38.7698C89.8049 38.397 89.7357 38.0843 89.5974 37.8317C89.4651 37.5791 89.2877 37.3897 89.0652 37.2634C88.8427 37.1371 88.6051 37.0739 88.3526 37.0739C88.094 37.0739 87.8534 37.1371 87.6309 37.2634C87.4084 37.3897 87.228 37.5791 87.0897 37.8317C86.9513 38.0843 86.8822 38.397 86.8822 38.7698C86.8822 39.1427 86.9513 39.4554 87.0897 39.708C87.228 39.9606 87.4054 40.15 87.6219 40.2763C87.8444 40.4026 88.0819 40.4657 88.3345 40.4657ZM95.51 41.1152C95.1371 41.1152 94.8274 41.0521 94.5809 40.9258C94.3343 40.7995 94.1509 40.6311 94.0306 40.4206C93.9103 40.2101 93.8502 39.9816 93.8502 39.735C93.8502 39.278 94.0246 38.9262 94.3734 38.6796C94.7222 38.4331 95.1973 38.3098 95.7986 38.3098H97.0074V38.2556C97.0074 37.8648 96.9052 37.5701 96.7007 37.3716C96.4962 37.1672 96.2226 37.0649 95.8798 37.0649C95.5852 37.0649 95.3296 37.1401 95.1131 37.2904C94.9026 37.4348 94.7703 37.6483 94.7162 37.9309H93.9404C93.9705 37.6062 94.0787 37.3325 94.2651 37.11C94.4576 36.8875 94.6951 36.7191 94.9778 36.6049C95.2604 36.4846 95.5611 36.4244 95.8798 36.4244C96.5053 36.4244 96.9743 36.5928 97.2871 36.9296C97.6058 37.2604 97.7652 37.7024 97.7652 38.2556V41.007H97.0886L97.0435 40.2041C96.9172 40.4567 96.7308 40.6732 96.4842 40.8536C96.2437 41.028 95.9189 41.1152 95.51 41.1152ZM95.6273 40.4747C95.9159 40.4747 96.1625 40.3996 96.367 40.2492C96.5774 40.0989 96.7368 39.9034 96.845 39.6629C96.9533 39.4223 97.0074 39.1697 97.0074 38.9051V38.8961H95.8618C95.4168 38.8961 95.101 38.9743 94.9146 39.1307C94.7342 39.281 94.644 39.4704 94.644 39.699C94.644 39.9335 94.7282 40.1229 94.8966 40.2673C95.071 40.4056 95.3145 40.4747 95.6273 40.4747ZM103.346 41.1152C102.919 41.1152 102.534 41.019 102.191 40.8265C101.855 40.6281 101.587 40.3545 101.388 40.0057C101.196 39.6508 101.1 39.2389 101.1 38.7698C101.1 38.3008 101.196 37.8918 101.388 37.543C101.587 37.1882 101.855 36.9146 102.191 36.7221C102.534 36.5237 102.919 36.4244 103.346 36.4244C103.875 36.4244 104.32 36.5628 104.681 36.8394C105.048 37.116 105.279 37.4859 105.376 37.9489H104.6C104.54 37.6723 104.392 37.4588 104.158 37.3085C103.923 37.1521 103.65 37.0739 103.337 37.0739C103.084 37.0739 102.847 37.1371 102.624 37.2634C102.402 37.3897 102.221 37.5791 102.083 37.8317C101.945 38.0843 101.876 38.397 101.876 38.7698C101.876 39.1427 101.945 39.4554 102.083 39.708C102.221 39.9606 102.402 40.153 102.624 40.2853C102.847 40.4116 103.084 40.4747 103.337 40.4747C103.65 40.4747 103.923 40.3996 104.158 40.2492C104.392 40.0929 104.54 39.8734 104.6 39.5907H105.376C105.285 40.0417 105.057 40.4086 104.69 40.6912C104.323 40.9739 103.875 41.1152 103.346 41.1152ZM107.922 41.1152C107.549 41.1152 107.24 41.0521 106.993 40.9258C106.747 40.7995 106.563 40.6311 106.443 40.4206C106.323 40.2101 106.262 39.9816 106.262 39.735C106.262 39.278 106.437 38.9262 106.786 38.6796C107.134 38.4331 107.61 38.3098 108.211 38.3098H109.42V38.2556C109.42 37.8648 109.317 37.5701 109.113 37.3716C108.909 37.1672 108.635 37.0649 108.292 37.0649C107.997 37.0649 107.742 37.1401 107.525 37.2904C107.315 37.4348 107.183 37.6483 107.128 37.9309H106.353C106.383 37.6062 106.491 37.3325 106.677 37.11C106.87 36.8875 107.107 36.7191 107.39 36.6049C107.673 36.4846 107.973 36.4244 108.292 36.4244C108.918 36.4244 109.387 36.5928 109.699 36.9296C110.018 37.2604 110.177 37.7024 110.177 38.2556V41.007H109.501L109.456 40.2041C109.329 40.4567 109.143 40.6732 108.896 40.8536C108.656 41.028 108.331 41.1152 107.922 41.1152ZM108.04 40.4747C108.328 40.4747 108.575 40.3996 108.779 40.2492C108.99 40.0989 109.149 39.9034 109.257 39.6629C109.366 39.4223 109.42 39.1697 109.42 38.9051V38.8961H108.274C107.829 38.8961 107.513 38.9743 107.327 39.1307C107.146 39.281 107.056 39.4704 107.056 39.699C107.056 39.9335 107.14 40.1229 107.309 40.2673C107.483 40.4056 107.727 40.4747 108.04 40.4747ZM111.314 41.007V36.5327H112L112.063 37.3897C112.201 37.095 112.412 36.8604 112.694 36.686C112.977 36.5116 113.326 36.4244 113.741 36.4244V37.2183H113.533C113.269 37.2183 113.025 37.2664 112.803 37.3626C112.58 37.4528 112.403 37.6092 112.27 37.8317C112.138 38.0542 112.072 38.3609 112.072 38.7518V41.007H111.314ZM116.359 41.007C115.95 41.007 115.629 40.9077 115.394 40.7093C115.16 40.5108 115.042 40.153 115.042 39.6358V37.1732H114.266V36.5327H115.042L115.141 35.4592H115.8V36.5327H117.117V37.1732H115.8V39.6358C115.8 39.9185 115.857 40.1109 115.971 40.2131C116.086 40.3094 116.287 40.3575 116.576 40.3575H117.045V41.007H116.359ZM118.341 41.0521C118.191 41.0521 118.065 41.004 117.962 40.9077C117.866 40.8055 117.818 40.6822 117.818 40.5379C117.818 40.3936 117.866 40.2733 117.962 40.1771C118.065 40.0748 118.191 40.0237 118.341 40.0237C118.486 40.0237 118.606 40.0748 118.702 40.1771C118.804 40.2733 118.855 40.3936 118.855 40.5379C118.855 40.6822 118.804 40.8055 118.702 40.9077C118.606 41.004 118.486 41.0521 118.341 41.0521Z" fill="white"/>
<path d="M36.794 34.2631C37.6523 34.2541 38.4028 33.6744 38.623 32.8431L40.7395 24.9611C40.8069 24.7049 40.6586 24.4443 40.4025 24.3724C40.3621 24.3634 40.3216 24.3544 40.2812 24.3544H24.3599L23.2769 20.355C23.2229 20.1483 23.0342 20 22.8185 20H20.1133V20.9572H22.441L23.4881 24.8667C23.4836 24.8982 23.4836 24.9296 23.4881 24.9611L25.6451 32.8701C25.6586 32.933 25.681 33.0004 25.7035 33.0633L26.4315 35.7146C25.7305 36.0876 25.2541 36.8245 25.2541 37.6739C25.2541 38.9006 26.2472 39.8938 27.474 39.8938C28.7008 39.8938 29.6939 38.9006 29.6939 37.6739C29.6939 37.2919 29.5951 36.9279 29.4243 36.6133C29.3839 36.5414 29.3434 36.4695 29.294 36.3976H34.9426C34.691 36.7571 34.5382 37.1975 34.5382 37.6739C34.5382 38.9006 35.5313 39.8938 36.7581 39.8938C37.9849 39.8938 38.978 38.9006 38.978 37.6739C38.978 37.0942 38.7578 36.5684 38.3938 36.1729C38.0028 35.7281 37.4276 35.445 36.785 35.4405H27.3886L27.0516 34.2047C27.1954 34.2406 27.3437 34.2631 27.492 34.2631H36.794ZM36.7626 36.3976C37.4681 36.3976 38.0388 36.9683 38.0388 37.6739C38.0388 38.3794 37.4681 38.9501 36.7626 38.9501C36.0571 38.9501 35.4863 38.3794 35.4863 37.6739C35.4863 36.9683 36.0571 36.3976 36.7626 36.3976ZM27.474 36.3976C28.1795 36.3976 28.7457 36.9728 28.7457 37.6739C28.7457 38.3794 28.175 38.9501 27.4695 38.9501C26.764 38.9501 26.1978 38.3794 26.1978 37.6739C26.1978 36.9683 26.7685 36.3976 27.474 36.3976ZM26.6202 32.6993L25.5462 28.7718L24.589 25.3206H39.6386L37.6928 32.6274C37.5849 33.0453 37.2119 33.3374 36.7805 33.3464H27.483C27.0921 33.3239 26.7505 33.0723 26.6202 32.6993Z" fill="#75AEFE"/>
<defs>
<filter id="filter0_d_49_196" x="0" y="0" width="142" height="71" filterUnits="userSpaceOnUse" color-interpolation-filters="sRGB">
<feFlood flood-opacity="0" result="BackgroundImageFix"/>
<feColorMatrix in="SourceAlpha" type="matrix" values="0 0 0 0 0 0 0 0 0 0 0 0 0 0 0 0 0 0 127 0" result="hardAlpha"/>
<feOffset dy="4"/>
<feGaussianBlur stdDeviation="5"/>
<feComposite in2="hardAlpha" operator="out"/>
<feColorMatrix type="matrix" values="0 0 0 0 0 0 0 0 0 0 0 0 0 0 0 0 0 0 0.15 0"/>
<feBlend mode="normal" in2="BackgroundImageFix" result="effect1_dropShadow_49_196"/>
<feBlend mode="normal" in="SourceGraphic" in2="effect1_dropShadow_49_196" result="shape"/>
</filter>
</defs>
</svg>
