<svg width="130" height="81" viewBox="0 0 130 81" fill="none" xmlns="http://www.w3.org/2000/svg">
<g filter="url(#filter0_d_49_205)">
<rect x="10" y="6" width="110" height="61" rx="15" fill="white"/>
</g>
<path d="M49.6941 22V15.6855H50.4518V22H49.6941ZM51.7456 22V17.5257H52.4311L52.4762 18.3286C52.6206 18.0459 52.828 17.8234 53.0987 17.661C53.3693 17.4987 53.676 17.4175 54.0188 17.4175C54.548 17.4175 54.9689 17.5799 55.2817 17.9046C55.6004 18.2233 55.7598 18.7165 55.7598 19.384V22H55.002V19.4652C55.002 18.533 54.6171 18.067 53.8474 18.067C53.4625 18.067 53.1408 18.2083 52.8822 18.491C52.6296 18.7676 52.5033 19.1645 52.5033 19.6817V22H51.7456ZM58.9645 22.1082C58.5375 22.1082 58.1526 22.012 57.8099 21.8196C57.4731 21.6211 57.2055 21.3475 57.007 20.9987C56.8146 20.6439 56.7184 20.2319 56.7184 19.7629C56.7184 19.2938 56.8146 18.8849 57.007 18.5361C57.2055 18.1812 57.4731 17.9076 57.8099 17.7152C58.1526 17.5167 58.5375 17.4175 58.9645 17.4175C59.4937 17.4175 59.9387 17.5558 60.2996 17.8324C60.6664 18.1091 60.8979 18.4789 60.9942 18.942H60.2184C60.1582 18.6654 60.0109 18.4519 59.7764 18.3015C59.5418 18.1452 59.2682 18.067 58.9555 18.067C58.7029 18.067 58.4654 18.1301 58.2428 18.2564C58.0203 18.3827 57.8399 18.5721 57.7016 18.8247C57.5633 19.0773 57.4941 19.39 57.4941 19.7629C57.4941 20.1357 57.5633 20.4484 57.7016 20.701C57.8399 20.9536 58.0203 21.146 58.2428 21.2783C58.4654 21.4046 58.7029 21.4678 58.9555 21.4678C59.2682 21.4678 59.5418 21.3926 59.7764 21.2423C60.0109 21.0859 60.1582 20.8664 60.2184 20.5838H60.9942C60.904 21.0348 60.6754 21.4016 60.3086 21.6843C59.9417 21.9669 59.4937 22.1082 58.9645 22.1082ZM64.0911 22.1082C63.6701 22.1082 63.2912 22.012 62.9545 21.8196C62.6177 21.6271 62.3501 21.3565 62.1516 21.0077C61.9592 20.6529 61.863 20.238 61.863 19.7629C61.863 19.2878 61.9622 18.8758 62.1606 18.527C62.3591 18.1722 62.6267 17.8986 62.9635 17.7062C63.3063 17.5137 63.6882 17.4175 64.1091 17.4175C64.5301 17.4175 64.9089 17.5137 65.2457 17.7062C65.5825 17.8986 65.8471 18.1722 66.0395 18.527C66.238 18.8758 66.3372 19.2878 66.3372 19.7629C66.3372 20.238 66.238 20.6529 66.0395 21.0077C65.8411 21.3565 65.5705 21.6271 65.2277 21.8196C64.8909 22.012 64.512 22.1082 64.0911 22.1082ZM64.0911 21.4588C64.3497 21.4588 64.5902 21.3956 64.8127 21.2693C65.0352 21.143 65.2157 20.9536 65.354 20.701C65.4923 20.4484 65.5614 20.1357 65.5614 19.7629C65.5614 19.39 65.4923 19.0773 65.354 18.8247C65.2217 18.5721 65.0443 18.3827 64.8217 18.2564C64.5992 18.1301 64.3617 18.067 64.1091 18.067C63.8505 18.067 63.61 18.1301 63.3875 18.2564C63.1649 18.3827 62.9845 18.5721 62.8462 18.8247C62.7079 19.0773 62.6387 19.39 62.6387 19.7629C62.6387 20.1357 62.7079 20.4484 62.8462 20.701C62.9845 20.9536 63.1619 21.143 63.3784 21.2693C63.601 21.3956 63.8385 21.4588 64.0911 21.4588ZM67.3908 22V17.5257H68.0764L68.1305 18.1752C68.2748 17.9347 68.4673 17.7482 68.7078 17.6159C68.9484 17.4836 69.219 17.4175 69.5197 17.4175C69.8745 17.4175 70.1782 17.4897 70.4308 17.634C70.6894 17.7783 70.8878 17.9978 71.0262 18.2925C71.1825 18.0219 71.396 17.8084 71.6666 17.652C71.9433 17.4957 72.2409 17.4175 72.5597 17.4175C73.0949 17.4175 73.5219 17.5799 73.8406 17.9046C74.1593 18.2233 74.3187 18.7165 74.3187 19.384V22H73.57V19.4652C73.57 19.0021 73.4768 18.6533 73.2903 18.4188C73.1039 18.1842 72.8363 18.067 72.4875 18.067C72.1267 18.067 71.826 18.2083 71.5854 18.491C71.3509 18.7676 71.2336 19.1645 71.2336 19.6817V22H70.4759V19.4652C70.4759 19.0021 70.3827 18.6533 70.1962 18.4188C70.0098 18.1842 69.7422 18.067 69.3934 18.067C69.0386 18.067 68.7409 18.2083 68.5004 18.491C68.2658 18.7676 68.1486 19.1645 68.1486 19.6817V22H67.3908ZM77.4717 22.1082C77.0447 22.1082 76.6659 22.012 76.3351 21.8196C76.0044 21.6211 75.7428 21.3475 75.5503 20.9987C75.3639 20.6499 75.2707 20.238 75.2707 19.7629C75.2707 19.2938 75.3639 18.8849 75.5503 18.5361C75.7367 18.1812 75.9953 17.9076 76.3261 17.7152C76.6629 17.5167 77.0508 17.4175 77.4898 17.4175C77.9228 17.4175 78.2956 17.5167 78.6083 17.7152C78.9271 17.9076 79.1706 18.1632 79.339 18.4819C79.5074 18.8007 79.5916 19.1434 79.5916 19.5103C79.5916 19.5764 79.5886 19.6426 79.5826 19.7087C79.5826 19.7749 79.5826 19.8501 79.5826 19.9343H76.0194C76.0374 20.277 76.1156 20.5627 76.2539 20.7912C76.3983 21.0137 76.5757 21.1821 76.7861 21.2964C77.0026 21.4106 77.2312 21.4678 77.4717 21.4678C77.7844 21.4678 78.046 21.3956 78.2565 21.2513C78.467 21.107 78.6204 20.9115 78.7166 20.6649H79.4653C79.345 21.0799 79.1135 21.4257 78.7707 21.7023C78.4339 21.9729 78.0009 22.1082 77.4717 22.1082ZM77.4717 18.058C77.1109 18.058 76.7892 18.1692 76.5065 18.3917C76.2299 18.6082 76.0705 18.927 76.0284 19.3479H78.8429C78.8248 18.945 78.6865 18.6293 78.4279 18.4007C78.1693 18.1722 77.8506 18.058 77.4717 18.058Z" fill="black"/>
<line x1="10" y1="29.5" x2="120" y2="29.5" stroke="#F0F0F0"/>
<rect x="21" y="37" width="91" height="12" fill="#F1F6FB"/>
<defs>
<filter id="filter0_d_49_205" x="0" y="0" width="130" height="81" filterUnits="userSpaceOnUse" color-interpolation-filters="sRGB">
<feFlood flood-opacity="0" result="BackgroundImageFix"/>
<feColorMatrix in="SourceAlpha" type="matrix" values="0 0 0 0 0 0 0 0 0 0 0 0 0 0 0 0 0 0 127 0" result="hardAlpha"/>
<feOffset dy="4"/>
<feGaussianBlur stdDeviation="5"/>
<feComposite in2="hardAlpha" operator="out"/>
<feColorMatrix type="matrix" values="0 0 0 0 0 0 0 0 0 0 0 0 0 0 0 0 0 0 0.15 0"/>
<feBlend mode="normal" in2="BackgroundImageFix" result="effect1_dropShadow_49_205"/>
<feBlend mode="normal" in="SourceGraphic" in2="effect1_dropShadow_49_205" result="shape"/>
</filter>
</defs>
</svg>
