<svg width="402" height="392" viewBox="0 0 402 392" fill="none" xmlns="http://www.w3.org/2000/svg">
<path d="M333.5 196C333.5 267.51 274.189 325.5 201 325.5C127.811 325.5 68.5 267.51 68.5 196C68.5 124.49 127.811 66.5 201 66.5C274.189 66.5 333.5 124.49 333.5 196Z" stroke="#D1D3FF"/>
<path d="M359.5 196C359.5 281.316 288.549 350.5 201 350.5C113.451 350.5 42.5 281.316 42.5 196C42.5 110.684 113.451 41.5 201 41.5C288.549 41.5 359.5 110.684 359.5 196Z" stroke="#D1D3FF"/>
<path d="M401.5 196C401.5 303.96 311.745 391.5 201 391.5C90.255 391.5 0.5 303.96 0.5 196C0.5 88.0401 90.255 0.5 201 0.5C311.745 0.5 401.5 88.0401 401.5 196Z" stroke="#D1D3FF"/>
<g filter="url(#filter0_d_51_225)">
<rect x="99" y="93" width="216" height="210" rx="15" fill="white"/>
</g>
<rect x="112" y="112" width="189" height="9" rx="4.5" fill="#F2F6FB"/>
<rect x="112" y="130" width="189" height="19" rx="5" fill="#F2F6FB"/>
<rect x="112" y="158" width="57" height="19" rx="5" fill="#F2F6FB"/>
<rect x="112" y="186" width="57" height="36" rx="5" fill="#F2F6FB"/>
<rect x="112" y="231" width="57" height="36" rx="5" fill="#F2F6FB"/>
<rect x="180" y="231" width="57" height="50" rx="5" fill="#F2F6FB"/>
<rect x="180" y="154" width="121" height="72" rx="5" fill="#F2F6FB"/>
<rect x="244" y="231" width="57" height="50" rx="5" fill="#F2F6FB"/>
<path d="M187 219L202 201.5L209.5 204.5L223 195L240 197.5L246.5 174.5L268 169.5L277 160L291.5 169.5" stroke="#777474"/>
<g filter="url(#filter1_d_51_225)">
<rect x="70" y="226" width="110" height="61" rx="15" fill="white"/>
</g>
<path d="M91.3063 242L93.6337 235.686H94.4365L96.7548 242H95.952L95.3747 240.376H92.6865L92.1002 242H91.3063ZM92.912 239.763H95.1492L94.0306 236.642L92.912 239.763ZM99.4585 242.108C99.0315 242.108 98.6466 242.012 98.3039 241.82C97.9671 241.621 97.6995 241.348 97.501 240.999C97.3086 240.644 97.2124 240.232 97.2124 239.763C97.2124 239.294 97.3086 238.885 97.501 238.536C97.6995 238.181 97.9671 237.908 98.3039 237.715C98.6466 237.517 99.0315 237.417 99.4585 237.417C99.9877 237.417 100.433 237.556 100.794 237.832C101.16 238.109 101.392 238.479 101.488 238.942H100.712C100.652 238.665 100.505 238.452 100.27 238.302C100.036 238.145 99.7622 238.067 99.4495 238.067C99.1969 238.067 98.9594 238.13 98.7369 238.256C98.5143 238.383 98.3339 238.572 98.1956 238.825C98.0573 239.077 97.9881 239.39 97.9881 239.763C97.9881 240.136 98.0573 240.448 98.1956 240.701C98.3339 240.954 98.5143 241.146 98.7369 241.278C98.9594 241.405 99.1969 241.468 99.4495 241.468C99.7622 241.468 100.036 241.393 100.27 241.242C100.505 241.086 100.652 240.866 100.712 240.584H101.488C101.398 241.035 101.169 241.402 100.803 241.684C100.436 241.967 99.9877 242.108 99.4585 242.108ZM104.191 242C103.782 242 103.46 241.901 103.226 241.702C102.991 241.504 102.874 241.146 102.874 240.629V238.166H102.098V237.526H102.874L102.973 236.452H103.632V237.526H104.949V238.166H103.632V240.629C103.632 240.912 103.689 241.104 103.803 241.206C103.918 241.302 104.119 241.351 104.408 241.351H104.877V242H104.191ZM106.372 236.533C106.221 236.533 106.095 236.485 105.993 236.389C105.897 236.287 105.848 236.161 105.848 236.01C105.848 235.866 105.897 235.746 105.993 235.649C106.095 235.553 106.221 235.505 106.372 235.505C106.516 235.505 106.639 235.553 106.741 235.649C106.844 235.746 106.895 235.866 106.895 236.01C106.895 236.161 106.844 236.287 106.741 236.389C106.639 236.485 106.516 236.533 106.372 236.533ZM105.993 242V237.526H106.75V242H105.993ZM109.36 242L107.664 237.526H108.458L109.802 241.269L111.155 237.526H111.931L110.235 242H109.36ZM114.557 242.108C114.13 242.108 113.751 242.012 113.42 241.82C113.089 241.621 112.828 241.348 112.635 240.999C112.449 240.65 112.355 240.238 112.355 239.763C112.355 239.294 112.449 238.885 112.635 238.536C112.822 238.181 113.08 237.908 113.411 237.715C113.748 237.517 114.136 237.417 114.575 237.417C115.008 237.417 115.38 237.517 115.693 237.715C116.012 237.908 116.255 238.163 116.424 238.482C116.592 238.801 116.676 239.143 116.676 239.51C116.676 239.576 116.673 239.643 116.667 239.709C116.667 239.775 116.667 239.85 116.667 239.934H113.104C113.122 240.277 113.2 240.563 113.339 240.791C113.483 241.014 113.66 241.182 113.871 241.296C114.087 241.411 114.316 241.468 114.557 241.468C114.869 241.468 115.131 241.396 115.341 241.251C115.552 241.107 115.705 240.912 115.801 240.665H116.55C116.43 241.08 116.198 241.426 115.856 241.702C115.519 241.973 115.086 242.108 114.557 242.108ZM114.557 238.058C114.196 238.058 113.874 238.169 113.591 238.392C113.315 238.608 113.155 238.927 113.113 239.348H115.928C115.91 238.945 115.771 238.629 115.513 238.401C115.254 238.172 114.935 238.058 114.557 238.058ZM120.113 242V235.686H122.188C122.681 235.686 123.087 235.767 123.406 235.929C123.724 236.091 123.959 236.311 124.109 236.588C124.266 236.864 124.344 237.177 124.344 237.526C124.344 237.869 124.269 238.178 124.118 238.455C123.968 238.732 123.733 238.954 123.415 239.122C123.096 239.285 122.687 239.366 122.188 239.366H120.871V242H120.113ZM120.871 238.725H122.17C122.675 238.725 123.033 238.62 123.243 238.41C123.46 238.193 123.568 237.899 123.568 237.526C123.568 237.147 123.46 236.852 123.243 236.642C123.033 236.425 122.675 236.317 122.17 236.317H120.871V238.725ZM125.292 242V237.526H125.978L126.041 238.383C126.179 238.088 126.389 237.853 126.672 237.679C126.955 237.505 127.304 237.417 127.718 237.417V238.211H127.511C127.246 238.211 127.003 238.259 126.78 238.356C126.558 238.446 126.38 238.602 126.248 238.825C126.116 239.047 126.05 239.354 126.05 239.745V242H125.292ZM130.44 242.108C130.019 242.108 129.64 242.012 129.304 241.82C128.967 241.627 128.699 241.357 128.501 241.008C128.308 240.653 128.212 240.238 128.212 239.763C128.212 239.288 128.311 238.876 128.51 238.527C128.708 238.172 128.976 237.899 129.313 237.706C129.655 237.514 130.037 237.417 130.458 237.417C130.879 237.417 131.258 237.514 131.595 237.706C131.932 237.899 132.196 238.172 132.389 238.527C132.587 238.876 132.686 239.288 132.686 239.763C132.686 240.238 132.587 240.653 132.389 241.008C132.19 241.357 131.92 241.627 131.577 241.82C131.24 242.012 130.861 242.108 130.44 242.108ZM130.44 241.459C130.699 241.459 130.939 241.396 131.162 241.269C131.384 241.143 131.565 240.954 131.703 240.701C131.841 240.448 131.911 240.136 131.911 239.763C131.911 239.39 131.841 239.077 131.703 238.825C131.571 238.572 131.393 238.383 131.171 238.256C130.948 238.13 130.711 238.067 130.458 238.067C130.2 238.067 129.959 238.13 129.737 238.256C129.514 238.383 129.334 238.572 129.195 238.825C129.057 239.077 128.988 239.39 128.988 239.763C128.988 240.136 129.057 240.448 129.195 240.701C129.334 240.954 129.511 241.143 129.728 241.269C129.95 241.396 130.188 241.459 130.44 241.459ZM135.77 242.108C135.325 242.108 134.934 242.006 134.597 241.802C134.266 241.597 134.008 241.317 133.821 240.963C133.641 240.608 133.551 240.205 133.551 239.754C133.551 239.303 133.644 238.903 133.83 238.554C134.017 238.199 134.275 237.923 134.606 237.724C134.937 237.52 135.328 237.417 135.779 237.417C136.146 237.417 136.47 237.493 136.753 237.643C137.036 237.793 137.255 238.004 137.411 238.274V235.505H138.169V242H137.484L137.411 241.26C137.267 241.477 137.06 241.672 136.789 241.847C136.518 242.021 136.179 242.108 135.77 242.108ZM135.851 241.45C136.152 241.45 136.416 241.381 136.645 241.242C136.879 241.098 137.06 240.899 137.186 240.647C137.318 240.394 137.384 240.1 137.384 239.763C137.384 239.426 137.318 239.131 137.186 238.879C137.06 238.626 136.879 238.431 136.645 238.292C136.416 238.148 136.152 238.076 135.851 238.076C135.556 238.076 135.292 238.148 135.057 238.292C134.829 238.431 134.648 238.626 134.516 238.879C134.39 239.131 134.326 239.426 134.326 239.763C134.326 240.1 134.39 240.394 134.516 240.647C134.648 240.899 134.829 241.098 135.057 241.242C135.292 241.381 135.556 241.45 135.851 241.45ZM141.037 242.108C140.508 242.108 140.087 241.949 139.774 241.63C139.462 241.305 139.305 240.809 139.305 240.142V237.526H140.063V240.061C140.063 240.993 140.445 241.459 141.209 241.459C141.599 241.459 141.921 241.32 142.174 241.044C142.432 240.761 142.562 240.361 142.562 239.844V237.526H143.319V242H142.634L142.58 241.197C142.441 241.48 142.234 241.702 141.957 241.865C141.687 242.027 141.38 242.108 141.037 242.108ZM146.335 242C145.926 242 145.604 241.901 145.369 241.702C145.135 241.504 145.018 241.146 145.018 240.629V238.166H144.242V237.526H145.018L145.117 236.452H145.775V237.526H147.092V238.166H145.775V240.629C145.775 240.912 145.833 241.104 145.947 241.206C146.061 241.302 146.262 241.351 146.551 241.351H147.02V242H146.335ZM149.988 242.108C149.561 242.108 149.177 242.012 148.834 241.82C148.497 241.621 148.229 241.348 148.031 240.999C147.839 240.644 147.742 240.232 147.742 239.763C147.742 239.294 147.839 238.885 148.031 238.536C148.229 238.181 148.497 237.908 148.834 237.715C149.177 237.517 149.561 237.417 149.988 237.417C150.518 237.417 150.963 237.556 151.324 237.832C151.69 238.109 151.922 238.479 152.018 238.942H151.242C151.182 238.665 151.035 238.452 150.8 238.302C150.566 238.145 150.292 238.067 149.979 238.067C149.727 238.067 149.489 238.13 149.267 238.256C149.044 238.383 148.864 238.572 148.726 238.825C148.587 239.077 148.518 239.39 148.518 239.763C148.518 240.136 148.587 240.448 148.726 240.701C148.864 240.954 149.044 241.146 149.267 241.278C149.489 241.405 149.727 241.468 149.979 241.468C150.292 241.468 150.566 241.393 150.8 241.242C151.035 241.086 151.182 240.866 151.242 240.584H152.018C151.928 241.035 151.699 241.402 151.333 241.684C150.966 241.967 150.518 242.108 149.988 242.108ZM154.79 242.108C154.255 242.108 153.81 241.973 153.455 241.702C153.1 241.432 152.893 241.065 152.833 240.602H153.609C153.657 240.836 153.78 241.041 153.978 241.215C154.183 241.384 154.457 241.468 154.799 241.468C155.118 241.468 155.353 241.402 155.503 241.269C155.653 241.131 155.728 240.969 155.728 240.782C155.728 240.512 155.629 240.331 155.431 240.241C155.238 240.151 154.965 240.07 154.61 239.997C154.369 239.949 154.129 239.88 153.888 239.79C153.648 239.7 153.446 239.573 153.284 239.411C153.121 239.243 153.04 239.023 153.04 238.753C153.04 238.362 153.185 238.043 153.473 237.796C153.768 237.544 154.165 237.417 154.664 237.417C155.139 237.417 155.527 237.538 155.828 237.778C156.134 238.013 156.312 238.35 156.36 238.789H155.611C155.581 238.56 155.482 238.383 155.313 238.256C155.151 238.124 154.932 238.058 154.655 238.058C154.384 238.058 154.174 238.115 154.024 238.229C153.879 238.344 153.807 238.494 153.807 238.68C153.807 238.861 153.9 239.002 154.087 239.104C154.279 239.207 154.538 239.294 154.862 239.366C155.139 239.426 155.401 239.501 155.647 239.591C155.9 239.676 156.104 239.805 156.261 239.979C156.423 240.148 156.504 240.394 156.504 240.719C156.51 241.122 156.357 241.456 156.044 241.72C155.737 241.979 155.32 242.108 154.79 242.108Z" fill="black"/>
<line x1="70" y1="249.5" x2="180" y2="249.5" stroke="#F0F0F0"/>
<rect x="81" y="257" width="91" height="12" fill="#F1F6FB"/>
<defs>
<filter id="filter0_d_51_225" x="89" y="87" width="236" height="230" filterUnits="userSpaceOnUse" color-interpolation-filters="sRGB">
<feFlood flood-opacity="0" result="BackgroundImageFix"/>
<feColorMatrix in="SourceAlpha" type="matrix" values="0 0 0 0 0 0 0 0 0 0 0 0 0 0 0 0 0 0 127 0" result="hardAlpha"/>
<feOffset dy="4"/>
<feGaussianBlur stdDeviation="5"/>
<feComposite in2="hardAlpha" operator="out"/>
<feColorMatrix type="matrix" values="0 0 0 0 0 0 0 0 0 0 0 0 0 0 0 0 0 0 0.15 0"/>
<feBlend mode="normal" in2="BackgroundImageFix" result="effect1_dropShadow_51_225"/>
<feBlend mode="normal" in="SourceGraphic" in2="effect1_dropShadow_51_225" result="shape"/>
</filter>
<filter id="filter1_d_51_225" x="60" y="220" width="130" height="81" filterUnits="userSpaceOnUse" color-interpolation-filters="sRGB">
<feFlood flood-opacity="0" result="BackgroundImageFix"/>
<feColorMatrix in="SourceAlpha" type="matrix" values="0 0 0 0 0 0 0 0 0 0 0 0 0 0 0 0 0 0 127 0" result="hardAlpha"/>
<feOffset dy="4"/>
<feGaussianBlur stdDeviation="5"/>
<feComposite in2="hardAlpha" operator="out"/>
<feColorMatrix type="matrix" values="0 0 0 0 0 0 0 0 0 0 0 0 0 0 0 0 0 0 0.15 0"/>
<feBlend mode="normal" in2="BackgroundImageFix" result="effect1_dropShadow_51_225"/>
<feBlend mode="normal" in="SourceGraphic" in2="effect1_dropShadow_51_225" result="shape"/>
</filter>
</defs>
</svg>
