<svg width="446" height="392" viewBox="0 0 446 392" fill="none" xmlns="http://www.w3.org/2000/svg">
<path d="M333.5 196C333.5 267.51 274.189 325.5 201 325.5C127.811 325.5 68.5 267.51 68.5 196C68.5 124.49 127.811 66.5 201 66.5C274.189 66.5 333.5 124.49 333.5 196Z" stroke="#D1D3FF"/>
<path d="M359.5 196C359.5 281.316 288.549 350.5 201 350.5C113.451 350.5 42.5 281.316 42.5 196C42.5 110.684 113.451 41.5 201 41.5C288.549 41.5 359.5 110.684 359.5 196Z" stroke="#D1D3FF"/>
<path d="M401.5 196C401.5 303.96 311.745 391.5 201 391.5C90.255 391.5 0.5 303.96 0.5 196C0.5 88.0401 90.255 0.5 201 0.5C311.745 0.5 401.5 88.0401 401.5 196Z" stroke="#D1D3FF"/>
<g filter="url(#filter0_d_49_181)">
<rect x="75" y="94" width="361" height="204" rx="20" fill="white"/>
</g>
<path d="M232 114V278" stroke="#F2F2F2"/>
<path d="M198.604 114V278" stroke="#F2F2F2"/>
<path d="M167.204 114V278" stroke="#F2F2F2"/>
<path d="M135.804 114V278" stroke="#F2F2F2"/>
<path d="M115 114V278" stroke="#F2F2F2"/>
<path d="M375 114V278" stroke="#F2F2F2"/>
<path d="M341.604 114V278" stroke="#F2F2F2"/>
<path d="M310.204 114V278" stroke="#F2F2F2"/>
<path d="M278.804 114V278" stroke="#F2F2F2"/>
<path d="M258 114V278" stroke="#F2F2F2"/>
<path d="M422 233L103 233" stroke="#F2F2F2"/>
<path d="M422 199.604L103 199.604" stroke="#F2F2F2"/>
<path d="M422 168.203L103 168.203" stroke="#F2F2F2"/>
<path d="M422 136.803L103 136.803" stroke="#F2F2F2"/>
<path d="M422 116L103 116" stroke="#F2F2F2"/>
<path d="M132.579 244.737C118.986 241.815 104.261 245.955 98.5977 248.39V268.359H306.632V181.658L289.874 188.334C284.221 190.586 278.075 191.317 272.051 190.454L262.66 189.108C258.105 188.455 253.466 188.712 249.01 189.863L215.711 198.469C205.193 206.992 181.972 226.108 173.234 234.388C162.312 247.173 149.569 248.39 132.579 244.737Z" fill="url(#paint0_linear_49_181)"/>
<path d="M98 248.978C103.682 246.543 118.456 242.403 132.093 245.325C149.139 248.978 161.924 247.76 172.883 234.975C179.678 228.557 195.206 215.626 206.76 206.167C212.506 201.462 219.22 198.097 226.413 196.245L245.64 191.292C252.268 189.585 259.167 189.205 265.943 190.173L266.829 190.299C276.261 191.647 285.881 190.374 294.637 186.621L342.559 166.083C347.119 164.129 351.376 161.531 355.2 158.37L373.185 143.497C378.406 139.179 384.421 135.925 390.892 133.917L416.403 126" stroke="#359AE1" stroke-linecap="round"/>
<circle cx="307.245" cy="181.03" r="6.69325" fill="#2690DC"/>
<g filter="url(#filter1_d_49_181)">
<rect x="361" y="70" width="61" height="57" rx="15" fill="white"/>
</g>
<path d="M390.606 108.904C390.287 108.838 388.789 109.096 387.363 108.327C387.295 108.29 387.221 108.267 387.144 108.259C387.067 108.252 386.99 108.259 386.916 108.281C386.843 108.303 386.774 108.34 386.714 108.388C386.655 108.437 386.605 108.497 386.569 108.564C386.532 108.632 386.509 108.706 386.501 108.783C386.494 108.86 386.501 108.937 386.523 109.011C386.545 109.084 386.582 109.153 386.63 109.213C386.679 109.272 386.739 109.322 386.806 109.358C386.928 109.424 387.05 109.483 387.172 109.538C385.976 110.063 385.01 111.011 384.446 112.412C383.911 111.101 382.993 110.104 381.719 109.536C383.018 108.956 383.922 107.942 384.446 106.66C384.558 106.937 384.661 107.13 384.665 107.138C384.736 107.274 384.859 107.377 385.006 107.424C385.153 107.471 385.313 107.458 385.45 107.388C385.588 107.318 385.692 107.196 385.74 107.049C385.789 106.903 385.777 106.743 385.708 106.605C385.707 106.597 384.997 105.302 385.081 103.579C385.129 103.256 384.903 102.934 384.557 102.871C384.243 102.809 383.895 103.008 383.814 103.361C383.772 103.544 384.075 106.709 381.779 108.177C380.284 109.131 378.586 108.834 378.27 108.906C377.602 109.058 377.602 110.014 378.27 110.166C378.582 110.236 380.313 109.941 381.809 110.914C384.03 112.361 383.785 115.442 383.799 115.58C383.799 116.302 384.832 116.465 385.06 115.76C385.137 115.52 384.813 112.465 387.006 110.963C388.45 109.973 390.241 110.212 390.552 110.177C391.265 110.097 391.329 109.057 390.606 108.904ZM410.372 97.471C409.301 97.352 401.664 98.4247 398.327 91.4172C396.572 87.7313 397.022 84.3898 396.926 83.9706C396.84 83.5937 396.484 83.3679 396.143 83.4114C395.755 83.4554 395.497 83.7771 395.497 84.1011V85.6217C395.232 90.8492 392.853 95.2992 387.858 96.8655C384.973 97.7704 382.469 97.3796 382.001 97.4818C381.251 97.652 381.246 98.7289 382.009 98.8986C382.663 99.0365 387.581 98.2396 391.401 101.412C391.521 101.508 391.674 101.553 391.827 101.537C391.98 101.522 392.12 101.447 392.218 101.329C392.317 101.211 392.364 101.059 392.352 100.905C392.339 100.752 392.266 100.61 392.15 100.51C390.839 99.4216 389.268 98.6438 387.471 98.1919C392.203 97 395.108 93.622 396.22 88.8903C397.322 93.593 400.203 97.0009 404.986 98.1869C400.251 99.3718 397.306 102.747 396.213 107.466C395.806 105.736 395.127 104.081 394.107 102.635C394.016 102.51 393.88 102.426 393.728 102.401C393.576 102.376 393.421 102.412 393.295 102.501C393.169 102.589 393.083 102.724 393.056 102.876C393.028 103.028 393.062 103.184 393.149 103.311C393.509 103.821 393.833 104.376 394.112 104.961C395.767 108.439 395.475 111.977 395.499 112.319C395.56 113.191 396.983 113.234 396.938 112.156C396.858 110.213 397.009 103.631 402.326 100.507C405.913 98.4015 409.904 99.0166 410.437 98.8968C411.24 98.7145 411.153 97.5586 410.372 97.471ZM383.837 87.8314C383.44 87.7492 380.311 88.303 378.914 85.4836C378.257 84.161 378.303 82.6903 378.312 82.506C378.359 82.1868 378.137 81.8624 377.787 81.7986C377.475 81.7368 377.125 81.9349 377.044 82.29C377.003 82.472 377.306 85.6366 375.009 87.1049C373.567 88.0252 371.883 87.7875 371.566 87.8228C370.852 87.9039 370.795 88.9328 371.501 89.0935C371.841 89.1702 373.535 88.8628 375.039 89.8418C376.642 90.8858 376.975 92.8033 377.03 93.8636C377.037 94.4695 377.011 94.54 377.058 94.6876C377.146 94.9586 377.393 95.1406 377.674 95.1406C377.996 95.1407 378.258 94.9024 378.309 94.6103C378.345 94.41 378.189 92.8862 378.931 91.4114C378.998 91.2729 379.009 91.1133 378.959 90.9673C378.91 90.8213 378.805 90.7006 378.668 90.6313C378.53 90.562 378.37 90.5497 378.224 90.5971C378.077 90.6445 377.955 90.7477 377.884 90.8845C377.809 91.0341 377.74 91.1867 377.678 91.342C377.142 90.0303 376.225 89.033 374.95 88.4638C376.249 87.8837 377.153 86.8699 377.677 85.5881C378.2 86.8793 379.097 87.8887 380.401 88.4658C380.271 88.5232 380.144 88.5857 380.019 88.6532C379.951 88.6898 379.891 88.7394 379.843 88.7991C379.794 88.8588 379.758 88.9275 379.736 89.0013C379.714 89.0751 379.707 89.1524 379.715 89.229C379.723 89.3055 379.745 89.3798 379.782 89.4475C379.856 89.5842 379.981 89.6859 380.13 89.7303C380.279 89.7746 380.44 89.758 380.576 89.6841C381.96 88.9358 383.471 89.1393 383.783 89.1046C384.5 89.0224 384.554 87.9832 383.837 87.8314Z" fill="#75AEFE"/>
<g filter="url(#filter2_d_49_181)">
<rect x="295" y="70" width="61" height="57" rx="15" fill="white"/>
</g>
<path d="M338.28 82H313.722L306 92.53L326.083 118.999L346 92.527L338.28 82ZM316.979 93.6868L322.637 110.591L309.812 93.6868H316.979ZM319.444 93.6868H332.565L326.05 113.422L319.444 93.6868ZM335.027 93.6868H342.202L329.416 110.682L335.027 93.6868ZM337.096 84.3374L342.238 91.3495H335.028L332.728 84.3374H337.096ZM330.268 84.3374L332.568 91.3495H319.434L321.735 84.3374H330.268ZM314.906 84.3374H319.275L316.974 91.3495H309.764L314.906 84.3374Z" fill="#75AEFE"/>
<defs>
<filter id="filter0_d_49_181" x="65" y="88" width="381" height="224" filterUnits="userSpaceOnUse" color-interpolation-filters="sRGB">
<feFlood flood-opacity="0" result="BackgroundImageFix"/>
<feColorMatrix in="SourceAlpha" type="matrix" values="0 0 0 0 0 0 0 0 0 0 0 0 0 0 0 0 0 0 127 0" result="hardAlpha"/>
<feOffset dy="4"/>
<feGaussianBlur stdDeviation="5"/>
<feComposite in2="hardAlpha" operator="out"/>
<feColorMatrix type="matrix" values="0 0 0 0 0 0 0 0 0 0 0 0 0 0 0 0 0 0 0.15 0"/>
<feBlend mode="normal" in2="BackgroundImageFix" result="effect1_dropShadow_49_181"/>
<feBlend mode="normal" in="SourceGraphic" in2="effect1_dropShadow_49_181" result="shape"/>
</filter>
<filter id="filter1_d_49_181" x="351" y="64" width="81" height="77" filterUnits="userSpaceOnUse" color-interpolation-filters="sRGB">
<feFlood flood-opacity="0" result="BackgroundImageFix"/>
<feColorMatrix in="SourceAlpha" type="matrix" values="0 0 0 0 0 0 0 0 0 0 0 0 0 0 0 0 0 0 127 0" result="hardAlpha"/>
<feOffset dy="4"/>
<feGaussianBlur stdDeviation="5"/>
<feComposite in2="hardAlpha" operator="out"/>
<feColorMatrix type="matrix" values="0 0 0 0 0 0 0 0 0 0 0 0 0 0 0 0 0 0 0.15 0"/>
<feBlend mode="normal" in2="BackgroundImageFix" result="effect1_dropShadow_49_181"/>
<feBlend mode="normal" in="SourceGraphic" in2="effect1_dropShadow_49_181" result="shape"/>
</filter>
<filter id="filter2_d_49_181" x="285" y="64" width="81" height="77" filterUnits="userSpaceOnUse" color-interpolation-filters="sRGB">
<feFlood flood-opacity="0" result="BackgroundImageFix"/>
<feColorMatrix in="SourceAlpha" type="matrix" values="0 0 0 0 0 0 0 0 0 0 0 0 0 0 0 0 0 0 127 0" result="hardAlpha"/>
<feOffset dy="4"/>
<feGaussianBlur stdDeviation="5"/>
<feComposite in2="hardAlpha" operator="out"/>
<feColorMatrix type="matrix" values="0 0 0 0 0 0 0 0 0 0 0 0 0 0 0 0 0 0 0.15 0"/>
<feBlend mode="normal" in2="BackgroundImageFix" result="effect1_dropShadow_49_181"/>
<feBlend mode="normal" in="SourceGraphic" in2="effect1_dropShadow_49_181" result="shape"/>
</filter>
<linearGradient id="paint0_linear_49_181" x1="190.402" y1="185.096" x2="202.694" y2="268.348" gradientUnits="userSpaceOnUse">
<stop stop-color="#71C3FD"/>
<stop offset="1" stop-color="#D9D9D9" stop-opacity="0"/>
</linearGradient>
</defs>
</svg>
