<svg width="179" height="94" viewBox="0 0 179 94" fill="none" xmlns="http://www.w3.org/2000/svg">
<g filter="url(#filter0_d_49_130)">
<rect x="10" y="6" width="159" height="74" rx="15" fill="#0C1F36"/>
</g>
<path d="M91.9083 42.192C91.0869 42.192 90.3723 42.0427 89.7643 41.744C89.1563 41.4453 88.6869 41.0293 88.3563 40.496C88.0256 39.9627 87.8603 39.344 87.8603 38.64H89.2682C89.2682 39.0773 89.3696 39.4827 89.5723 39.856C89.7749 40.2187 90.0683 40.512 90.4523 40.736C90.8469 40.9493 91.3323 41.056 91.9083 41.056C92.6656 41.056 93.2523 40.8747 93.6683 40.512C94.0843 40.1493 94.2923 39.696 94.2923 39.152C94.2923 38.704 94.1963 38.3467 94.0043 38.08C93.8123 37.8027 93.5509 37.5787 93.2203 37.408C92.9003 37.2373 92.5269 37.088 92.1003 36.96C91.6843 36.832 91.2469 36.688 90.7883 36.528C89.9243 36.2293 89.2843 35.8613 88.8683 35.424C88.4523 34.976 88.2443 34.3947 88.2443 33.68C88.2336 33.0827 88.3723 32.5547 88.6603 32.096C88.9483 31.6267 89.3536 31.264 89.8763 31.008C90.4096 30.7413 91.0389 30.608 91.7643 30.608C92.4789 30.608 93.0976 30.7413 93.6203 31.008C94.1536 31.2747 94.5643 31.6427 94.8523 32.112C95.1509 32.5813 95.3056 33.1147 95.3163 33.712H93.9083C93.9083 33.4027 93.8283 33.0987 93.6683 32.8C93.5083 32.4907 93.2629 32.24 92.9323 32.048C92.6123 31.856 92.2069 31.76 91.7163 31.76C91.1083 31.7493 90.6069 31.904 90.2123 32.224C89.8283 32.544 89.6363 32.9867 89.6363 33.552C89.6363 34.032 89.7696 34.4 90.0363 34.656C90.3136 34.912 90.6976 35.1253 91.1883 35.296C91.6789 35.456 92.2443 35.6427 92.8843 35.856C93.4176 36.048 93.8976 36.272 94.3243 36.528C94.7509 36.784 95.0816 37.1147 95.3163 37.52C95.5616 37.9253 95.6843 38.4427 95.6843 39.072C95.6843 39.6053 95.5456 40.112 95.2683 40.592C94.9909 41.0613 94.5696 41.4453 94.0043 41.744C93.4496 42.0427 92.7509 42.192 91.9083 42.192ZM100.15 42.192C99.4889 42.192 98.9396 42.08 98.5023 41.856C98.0649 41.632 97.7396 41.3333 97.5263 40.96C97.3129 40.5867 97.2063 40.1813 97.2063 39.744C97.2063 38.9333 97.5156 38.3093 98.1343 37.872C98.7529 37.4347 99.5956 37.216 100.662 37.216H102.806V37.12C102.806 36.4267 102.625 35.904 102.262 35.552C101.9 35.1893 101.414 35.008 100.806 35.008C100.284 35.008 99.8303 35.1413 99.4463 35.408C99.0729 35.664 98.8383 36.0427 98.7423 36.544H97.3663C97.4196 35.968 97.6116 35.4827 97.9423 35.088C98.2836 34.6933 98.7049 34.3947 99.2063 34.192C99.7076 33.9787 100.241 33.872 100.806 33.872C101.916 33.872 102.748 34.1707 103.302 34.768C103.868 35.3547 104.15 36.1387 104.15 37.12V42H102.95L102.87 40.576C102.646 41.024 102.316 41.408 101.878 41.728C101.452 42.0373 100.876 42.192 100.15 42.192ZM100.358 41.056C100.87 41.056 101.308 40.9227 101.67 40.656C102.044 40.3893 102.326 40.0427 102.518 39.616C102.71 39.1893 102.806 38.7413 102.806 38.272V38.256H100.774C99.9849 38.256 99.4249 38.3947 99.0943 38.672C98.7743 38.9387 98.6143 39.2747 98.6143 39.68C98.6143 40.096 98.7636 40.432 99.0623 40.688C99.3716 40.9333 99.8036 41.056 100.358 41.056ZM106.167 42V30.48H107.511V42H106.167ZM113.281 42.192C112.524 42.192 111.852 42.0213 111.265 41.68C110.679 41.328 110.215 40.8427 109.873 40.224C109.543 39.6053 109.377 38.8747 109.377 38.032C109.377 37.2 109.543 36.4747 109.873 35.856C110.204 35.2267 110.663 34.7413 111.249 34.4C111.847 34.048 112.535 33.872 113.313 33.872C114.081 33.872 114.743 34.048 115.297 34.4C115.863 34.7413 116.295 35.1947 116.593 35.76C116.892 36.3253 117.041 36.9333 117.041 37.584C117.041 37.7013 117.036 37.8187 117.025 37.936C117.025 38.0533 117.025 38.1867 117.025 38.336H110.705C110.737 38.944 110.876 39.4507 111.121 39.856C111.377 40.2507 111.692 40.5493 112.065 40.752C112.449 40.9547 112.855 41.056 113.281 41.056C113.836 41.056 114.3 40.928 114.673 40.672C115.047 40.416 115.319 40.0693 115.489 39.632H116.817C116.604 40.368 116.193 40.9813 115.585 41.472C114.988 41.952 114.22 42.192 113.281 42.192ZM113.281 35.008C112.641 35.008 112.071 35.2053 111.569 35.6C111.079 35.984 110.796 36.5493 110.721 37.296H115.713C115.681 36.5813 115.436 36.0213 114.977 35.616C114.519 35.2107 113.953 35.008 113.281 35.008ZM126.945 42.192C126.177 42.192 125.51 42.0533 124.945 41.776C124.38 41.4987 123.926 41.12 123.585 40.64C123.254 40.1493 123.052 39.5947 122.977 38.976H124.289C124.417 39.5947 124.716 40.096 125.185 40.48C125.654 40.8533 126.246 41.04 126.961 41.04C127.494 41.04 127.953 40.9173 128.337 40.672C128.721 40.416 129.014 40.0747 129.217 39.648C129.43 39.2213 129.537 38.7467 129.537 38.224C129.537 37.392 129.302 36.72 128.833 36.208C128.364 35.696 127.756 35.44 127.009 35.44C126.39 35.44 125.862 35.5787 125.425 35.856C124.988 36.1333 124.668 36.496 124.465 36.944H123.185L124.145 30.8H130.017V31.968H125.185L124.529 35.376C124.785 35.0667 125.137 34.8107 125.585 34.608C126.044 34.4053 126.566 34.304 127.153 34.304C127.889 34.304 128.529 34.4747 129.073 34.816C129.628 35.1573 130.06 35.6213 130.369 36.208C130.678 36.7947 130.833 37.4613 130.833 38.208C130.833 38.9227 130.678 39.584 130.369 40.192C130.07 40.8 129.628 41.2853 129.041 41.648C128.465 42.0107 127.766 42.192 126.945 42.192ZM137.302 42.192C136.31 42.192 135.451 41.952 134.726 41.472C134.011 40.9813 133.462 40.304 133.078 39.44C132.694 38.5653 132.502 37.552 132.502 36.4C132.502 35.248 132.694 34.24 133.078 33.376C133.462 32.5013 134.011 31.824 134.726 31.344C135.451 30.8533 136.31 30.608 137.302 30.608C138.294 30.608 139.147 30.8533 139.862 31.344C140.577 31.824 141.126 32.5013 141.51 33.376C141.894 34.24 142.086 35.248 142.086 36.4C142.086 37.552 141.894 38.5653 141.51 39.44C141.126 40.304 140.577 40.9813 139.862 41.472C139.147 41.952 138.294 42.192 137.302 42.192ZM137.302 41.008C137.953 41.008 138.534 40.8267 139.046 40.464C139.569 40.0907 139.974 39.5627 140.262 38.88C140.561 38.1867 140.71 37.36 140.71 36.4C140.71 35.44 140.561 34.6187 140.262 33.936C139.974 33.2533 139.569 32.7307 139.046 32.368C138.534 31.9947 137.953 31.808 137.302 31.808C136.641 31.808 136.054 31.9947 135.542 32.368C135.03 32.7307 134.625 33.2533 134.326 33.936C134.027 34.6187 133.878 35.44 133.878 36.4C133.878 37.36 134.027 38.1867 134.326 38.88C134.625 39.5627 135.03 40.0907 135.542 40.464C136.054 40.8267 136.641 41.008 137.302 41.008ZM106.452 63.192C105.353 63.192 104.388 62.952 103.556 62.472C102.734 61.9813 102.089 61.2987 101.62 60.424C101.161 59.5493 100.932 58.5413 100.932 57.4C100.932 56.2587 101.161 55.256 101.62 54.392C102.089 53.5173 102.734 52.8347 103.556 52.344C104.388 51.8533 105.353 51.608 106.452 51.608C107.561 51.608 108.526 51.8533 109.348 52.344C110.18 52.8347 110.825 53.5173 111.284 54.392C111.742 55.256 111.972 56.2587 111.972 57.4C111.972 58.5413 111.742 59.5493 111.284 60.424C110.825 61.2987 110.18 61.9813 109.348 62.472C108.526 62.952 107.561 63.192 106.452 63.192ZM106.452 62.008C107.273 62.008 107.993 61.8267 108.612 61.464C109.241 61.0907 109.726 60.5627 110.068 59.88C110.42 59.1867 110.596 58.36 110.596 57.4C110.596 56.44 110.42 55.6187 110.068 54.936C109.726 54.2533 109.241 53.7307 108.612 53.368C107.993 52.9947 107.273 52.808 106.452 52.808C105.63 52.808 104.905 52.9947 104.276 53.368C103.657 53.7307 103.172 54.2533 102.82 54.936C102.478 55.6187 102.308 56.44 102.308 57.4C102.308 58.36 102.478 59.1867 102.82 59.88C103.172 60.5627 103.657 61.0907 104.276 61.464C104.905 61.8267 105.63 62.008 106.452 62.008ZM113.911 63V51.8H120.727V52.904H115.255V56.84H119.911V57.928H115.255V63H113.911ZM122.457 63V51.8H129.273V52.904H123.801V56.84H128.457V57.928H123.801V63H122.457Z" fill="white"/>
<path d="M40.8405 54.897C41.2887 54.6385 41.4421 54.0645 41.1836 53.6163C40.9246 53.1685 40.3512 53.0146 39.903 53.2732C39.4547 53.5321 39.3009 54.106 39.5598 54.5538C39.8183 55.002 40.3922 55.1559 40.8405 54.897Z" fill="#75AEFE"/>
<path d="M36.9985 61.3676L41.7198 69.5454C42.7386 71.312 45.0303 71.966 46.8426 70.9184C48.6361 69.882 49.2523 67.5906 48.2149 65.7959L45.4024 60.9237L47.838 59.5175C48.2863 59.2582 48.4401 58.6851 48.1811 58.2368L46.9621 56.1253C47.1074 56.0972 48.0633 55.9097 64.9189 52.6031C67.0026 52.4899 68.251 50.211 67.1985 48.389L64.0828 42.9926L66.0739 39.9769C66.1698 39.8315 66.2234 39.6624 66.2287 39.4883C66.2339 39.3143 66.1906 39.1422 66.1036 38.9914L64.2286 35.7439C64.1413 35.5932 64.0139 35.4698 63.8606 35.3874C63.7073 35.3049 63.5341 35.2667 63.3603 35.277L59.7534 35.4934L56.2946 29.5021C55.7936 28.6342 54.8961 28.1087 53.8941 28.0962C53.882 28.0958 53.8702 28.0958 53.8581 28.0958C52.8899 28.0958 52.011 28.5778 51.4903 29.3926L39.2435 44.994L31.2816 49.5905C28.1502 51.3979 27.0653 55.4153 28.8797 58.5552C30.5372 61.4263 34.0315 62.5557 36.9985 61.3677V61.3676ZM46.5915 66.7337C47.1093 67.6294 46.8028 68.7756 45.9044 69.2946C45.0032 69.8157 43.8555 69.4956 43.3435 68.6084L38.656 60.4883L41.9035 58.6133C47.3286 68.011 46.5043 66.5832 46.5915 66.7337ZM44.4649 59.2996L43.5274 57.6758L45.1511 56.7383L46.0886 58.3621L44.4649 59.2996ZM62.8944 37.183L64.1901 39.4272L63.0347 41.1769L60.8016 37.3086L62.8944 37.183ZM53.0584 30.4205C53.31 30.009 53.7091 29.9665 53.871 29.9708C54.031 29.9727 54.4298 30.0225 54.6704 30.4393L65.5747 49.3265C65.93 49.9415 65.4981 50.7145 64.7859 50.7321C64.6581 50.7349 64.5992 50.7581 64.2717 50.8193L52.7372 30.8405C52.9792 30.5293 53.0104 30.4993 53.0584 30.4205ZM51.4896 32.43L62.3268 51.2009L45.9711 54.4088L40.998 45.7952L51.4896 32.43ZM30.5034 57.6176C30.0922 56.9066 29.8752 56.0999 29.8744 55.2785C29.8744 53.6065 30.773 52.0493 32.2191 51.2145L39.5261 46.9957L44.2136 55.1145L36.9066 59.3337C34.668 60.6256 31.7958 59.8559 30.5035 57.6176H30.5034Z" fill="#75AEFE"/>
<path d="M37.9359 55.4913C37.6771 55.0431 37.1035 54.8892 36.6553 55.1481L35.0316 56.0856C34.584 56.3442 34.0095 56.19 33.7509 55.7425C33.492 55.2943 32.9184 55.1405 32.4703 55.3994C32.0222 55.6583 31.8683 56.2318 32.1272 56.68C32.8988 58.0167 34.62 58.488 35.9691 57.7094L37.5928 56.7719C38.041 56.5131 38.1949 55.9399 37.9359 55.4913ZM74.6065 30.1011L69.3825 33.0081C68.9303 33.2601 68.7673 33.831 69.0192 34.2832C69.2705 34.7351 69.841 34.8989 70.2944 34.6465L75.518 31.7396C75.9707 31.4876 76.1333 30.9167 75.8813 30.4644C75.6297 30.0118 75.0588 29.8492 74.6065 30.1011ZM74.0587 39.8108L70.4364 38.8404C69.9362 38.7064 69.4221 39.003 69.288 39.5032C69.1539 40.0035 69.451 40.5173 69.9512 40.6513L73.5738 41.6218C74.0769 41.7569 74.5885 41.4555 74.7219 40.959C74.8559 40.4587 74.5589 39.9446 74.0587 39.8108ZM64.9562 26.695L63.9846 30.3175C63.8505 30.8179 64.1471 31.3316 64.6474 31.466C65.1473 31.5996 65.6615 31.3038 65.7958 30.8031L66.7671 27.1806C66.9011 26.6804 66.6044 26.1663 66.1043 26.0322C65.6043 25.8981 65.0902 26.1948 64.9561 26.695H64.9562Z" fill="#75AEFE"/>
<defs>
<filter id="filter0_d_49_130" x="0" y="0" width="179" height="94" filterUnits="userSpaceOnUse" color-interpolation-filters="sRGB">
<feFlood flood-opacity="0" result="BackgroundImageFix"/>
<feColorMatrix in="SourceAlpha" type="matrix" values="0 0 0 0 0 0 0 0 0 0 0 0 0 0 0 0 0 0 127 0" result="hardAlpha"/>
<feOffset dy="4"/>
<feGaussianBlur stdDeviation="5"/>
<feComposite in2="hardAlpha" operator="out"/>
<feColorMatrix type="matrix" values="0 0 0 0 0 0 0 0 0 0 0 0 0 0 0 0 0 0 0.15 0"/>
<feBlend mode="normal" in2="BackgroundImageFix" result="effect1_dropShadow_49_130"/>
<feBlend mode="normal" in="SourceGraphic" in2="effect1_dropShadow_49_130" result="shape"/>
</filter>
</defs>
</svg>
