<svg width="50" height="50" viewBox="0 0 50 50" fill="none" xmlns="http://www.w3.org/2000/svg">
<g clip-path="url(#clip0_31_61)">
<path d="M1.06401 50C0.900343 50 0.738888 49.9622 0.592202 49.8896C0.445516 49.817 0.317553 49.7116 0.218267 49.5815C0.11898 49.4514 0.0510478 49.3001 0.0197535 49.1395C-0.0115409 48.9788 -0.00535343 48.8131 0.0378345 48.6553L3.28832 36.7855C1.26459 33.126 0.1976 28.9863 0.199163 24.7841C0.204924 11.118 11.3262 0 24.9913 0C31.6193 0.00263672 37.8472 2.58447 42.5282 7.26895C47.2084 11.9537 49.7849 18.1813 49.7831 24.8039C49.7769 38.4704 38.6555 49.5892 24.9913 49.5892H24.9805C20.9893 49.5876 17.0323 48.6148 13.509 46.7724L1.33364 49.9653C1.24438 49.9886 1.15365 50 1.06401 50Z" fill="#E5E5E5"/>
<path d="M1.06409 48.936L4.4301 36.644C2.35383 33.0464 1.26165 28.9653 1.26311 24.7845C1.26858 11.705 11.9122 1.06396 24.9913 1.06396C31.3382 1.0666 37.2956 3.53701 41.7756 8.0208C46.2552 12.5046 48.7214 18.4646 48.7192 24.8035C48.7134 37.8826 38.0681 48.5252 24.9913 48.5252C24.9917 48.5252 24.9906 48.5252 24.9913 48.5252H24.9811C21.01 48.5237 17.1082 47.5277 13.6426 45.6375L1.06409 48.936ZM14.2252 41.3433L14.9457 41.7702C17.9731 43.5669 21.4441 44.5171 24.9837 44.519H24.9913C35.861 44.519 44.708 35.6735 44.7125 24.8021C44.7145 19.5335 42.6653 14.5794 38.9417 10.8528C35.2178 7.12627 30.2667 5.07275 24.9986 5.07051C14.1202 5.07051 5.27356 13.9148 5.26936 24.786C5.2678 28.5114 6.30999 32.1392 8.2845 35.2787L8.75374 36.0248L6.76086 43.3002L14.2252 41.3433Z" fill="white"/>
<path d="M1.88916 48.1076L5.13887 36.2404C3.13389 32.7676 2.07988 28.8273 2.08105 24.7918C2.08594 12.1651 12.3616 1.89258 24.9871 1.89258C31.115 1.89521 36.8665 4.28018 41.1904 8.60869C45.5156 12.9372 47.8959 18.6909 47.8936 24.8098C47.8883 37.4367 37.6123 47.7105 24.9883 47.7105C24.9887 47.7105 24.9871 47.7105 24.9883 47.7105H24.9779C21.1446 47.709 17.3775 46.7469 14.0321 44.9234L1.88916 48.1076Z" fill="#64B161"/>
<path d="M1.06409 48.936L4.4301 36.644C2.35383 33.0464 1.26165 28.9653 1.26311 24.7845C1.26858 11.705 11.9122 1.06396 24.9913 1.06396C31.3382 1.0666 37.2956 3.53701 41.7756 8.0208C46.2552 12.5046 48.7214 18.4646 48.7192 24.8035C48.7134 37.8826 38.0681 48.5252 24.9913 48.5252C24.9917 48.5252 24.9906 48.5252 24.9913 48.5252H24.9811C21.01 48.5237 17.1082 47.5277 13.6426 45.6375L1.06409 48.936ZM14.2252 41.3433L14.9457 41.7702C17.9731 43.5669 21.4441 44.5171 24.9837 44.519H24.9913C35.861 44.519 44.708 35.6735 44.7125 24.8021C44.7145 19.5335 42.6653 14.5794 38.9417 10.8528C35.2178 7.12627 30.2667 5.07275 24.9986 5.07051C14.1202 5.07051 5.27356 13.9148 5.26936 24.786C5.2678 28.5114 6.30999 32.1392 8.2845 35.2787L8.75374 36.0248L6.76086 43.3002L14.2252 41.3433Z" fill="white"/>
<path fill-rule="evenodd" clip-rule="evenodd" d="M19.0611 14.8675C18.617 13.8802 18.1493 13.8605 17.7267 13.8433C17.381 13.8283 16.9855 13.8291 16.5906 13.8291C16.1954 13.8291 15.5531 13.9779 15.0098 14.5711C14.4662 15.1643 12.9342 16.5986 12.9342 19.5157C12.9342 22.4332 15.059 25.2519 15.3554 25.6479C15.6518 26.0434 19.457 32.2209 25.483 34.5975C30.4913 36.5728 31.5104 36.1798 32.5975 36.0811C33.6847 35.9822 36.1051 34.6467 36.599 33.2623C37.0935 31.878 37.0935 30.6916 36.945 30.4433C36.7966 30.1965 36.4015 30.0481 35.8087 29.7517C35.2159 29.4553 32.3011 28.0206 31.7574 27.823C31.2139 27.625 30.8187 27.5266 30.4235 28.1201C30.028 28.7129 28.8926 30.0481 28.5466 30.4434C28.2006 30.8397 27.8546 30.8893 27.2618 30.5925C26.6691 30.2953 24.7594 29.6696 22.4943 27.6498C20.7319 26.0785 19.5416 24.1376 19.1957 23.544C18.85 22.9513 19.1899 22.6583 19.4562 22.3344C19.9357 21.7511 20.7403 20.7025 20.9378 20.3072C21.1355 19.9113 21.0366 19.5653 20.8886 19.2685C20.7402 18.9721 19.5878 16.0401 19.0611 14.8675Z" fill="white"/>
</g>
<defs>
<clipPath id="clip0_31_61">
<rect width="50" height="50" fill="white"/>
</clipPath>
</defs>
</svg>
