<svg width="388" height="372" viewBox="0 0 388 372" fill="none" xmlns="http://www.w3.org/2000/svg">
<path d="M254.706 337.718L133.963 338.671C131.386 338.692 129.561 337.153 129.882 335.252L137.551 289.985C137.793 288.554 139.776 287.396 141.981 287.387L245.427 286.913C247.602 286.903 249.588 288.034 249.864 289.452L258.628 334.264C258.997 336.144 257.242 337.698 254.706 337.718Z" fill="black" stroke="#263238" stroke-width="1.10134" stroke-miterlimit="10" stroke-linecap="round" stroke-linejoin="round"/>
<path d="M197.463 295.041H235.332" stroke="#263238" stroke-width="1.10134" stroke-miterlimit="10" stroke-linecap="round" stroke-linejoin="round"/>
<path d="M177.914 298.242H235.33" stroke="#263238" stroke-width="1.10134" stroke-miterlimit="10" stroke-linecap="round" stroke-linejoin="round"/>
<path d="M176.359 325.912C153.375 333.223 138.661 334.517 130.077 334.086L129.8 335.724C129.521 337.366 131.096 338.693 133.317 338.676L255.337 337.712C257.523 337.694 259.034 336.354 258.717 334.731L253.439 307.742C221.581 306.932 212.38 314.454 176.359 325.912Z" fill="#263238" stroke="#263238" stroke-width="1.10134" stroke-miterlimit="10" stroke-linecap="round" stroke-linejoin="round"/>
<path d="M156.622 306.564L147.088 306.619C146.203 306.625 145.552 306.141 145.634 305.541L146.459 299.488C146.537 298.913 147.299 298.444 148.161 298.439L157.454 298.39C158.316 298.386 158.968 298.846 158.913 299.421L158.326 305.468C158.268 306.067 157.505 306.559 156.622 306.564Z" fill="white" stroke="#263238" stroke-width="1.10134" stroke-miterlimit="10" stroke-linecap="round" stroke-linejoin="round"/>
<path d="M153.369 303.716L151.009 303.729C150.581 303.731 150.262 303.499 150.298 303.21L150.482 301.716C150.517 301.431 150.889 301.197 151.315 301.195L153.657 301.182C154.082 301.179 154.401 301.409 154.369 301.694L154.204 303.188C154.171 303.477 153.798 303.714 153.369 303.716Z" fill="white" stroke="#263238" stroke-width="1.10134" stroke-miterlimit="10" stroke-linecap="round" stroke-linejoin="round"/>
<path d="M146.479 299.344L150.127 299.324C150.839 299.319 151.367 299.702 151.31 300.176L151.187 301.195" stroke="#263238" stroke-width="1.10134" stroke-miterlimit="10" stroke-linecap="round" stroke-linejoin="round"/>
<path d="M158.926 299.278L155.326 299.297C154.616 299.302 153.997 299.688 153.943 300.163L153.828 301.182" stroke="#263238" stroke-width="1.10134" stroke-miterlimit="10" stroke-linecap="round" stroke-linejoin="round"/>
<path d="M145.604 305.762L149.327 305.74C150.053 305.736 150.688 305.334 150.748 304.843L150.873 303.8" stroke="#263238" stroke-width="1.10134" stroke-miterlimit="10" stroke-linecap="round" stroke-linejoin="round"/>
<path d="M158.303 305.69L154.63 305.711C153.906 305.715 153.363 305.32 153.418 304.828L153.535 303.787" stroke="#263238" stroke-width="1.10134" stroke-miterlimit="10" stroke-linecap="round" stroke-linejoin="round"/>
<path d="M146.045 302.684L150.364 302.66" stroke="#263238" stroke-width="1.10134" stroke-miterlimit="10" stroke-linecap="round" stroke-linejoin="round"/>
<path d="M154.158 302.639L158.473 302.615" stroke="#263238" stroke-width="1.10134" stroke-miterlimit="10" stroke-linecap="round" stroke-linejoin="round"/>
<path d="M144.612 319.33C144.395 319.258 144.224 319.162 144.101 319.042C143.976 318.922 143.88 318.776 143.814 318.602C143.748 318.429 143.71 318.251 143.7 318.07C143.689 317.888 143.699 317.69 143.728 317.474C143.908 316.169 144.628 315.516 145.891 315.508C147.151 315.5 147.7 316.144 147.536 317.45C147.509 317.663 147.466 317.861 147.409 318.043C147.352 318.225 147.268 318.403 147.157 318.577C147.044 318.751 146.91 318.899 146.754 319.021C146.597 319.143 146.402 319.241 146.167 319.317C145.931 319.392 145.667 319.431 145.376 319.433C145.082 319.435 144.827 319.4 144.612 319.33ZM145.816 318.942C145.934 318.907 146.035 318.859 146.12 318.803C146.205 318.746 146.281 318.675 146.348 318.591C146.417 318.506 146.473 318.421 146.516 318.335C146.559 318.249 146.598 318.152 146.631 318.044C146.664 317.936 146.689 317.837 146.707 317.747C146.725 317.657 146.74 317.56 146.754 317.455C146.768 317.345 146.778 317.244 146.783 317.15C146.789 317.057 146.789 316.957 146.782 316.849C146.776 316.742 146.763 316.647 146.74 316.562C146.718 316.477 146.684 316.394 146.638 316.314C146.592 316.234 146.535 316.165 146.464 316.111C146.395 316.057 146.307 316.014 146.2 315.983C146.094 315.951 145.971 315.935 145.834 315.936C145.695 315.937 145.569 315.954 145.454 315.988C145.34 316.021 145.24 316.065 145.158 316.119C145.075 316.173 144.999 316.241 144.931 316.323C144.862 316.404 144.807 316.488 144.764 316.573C144.721 316.658 144.682 316.755 144.648 316.863C144.613 316.97 144.586 317.072 144.566 317.164C144.548 317.258 144.531 317.359 144.516 317.469C144.501 317.574 144.492 317.672 144.486 317.762C144.479 317.853 144.479 317.952 144.484 318.06C144.488 318.168 144.501 318.265 144.522 318.349C144.543 318.435 144.577 318.52 144.624 318.604C144.669 318.687 144.726 318.757 144.794 318.812C144.863 318.867 144.952 318.912 145.06 318.946C145.168 318.98 145.292 318.997 145.432 318.996C145.57 318.996 145.7 318.977 145.816 318.942Z" fill="white"/>
<path d="M149.905 319.294C149.687 319.223 149.516 319.127 149.39 319.007C149.263 318.887 149.165 318.741 149.097 318.568C149.029 318.395 148.988 318.217 148.974 318.036C148.96 317.854 148.966 317.656 148.992 317.441C149.151 316.137 149.86 315.484 151.122 315.476C152.381 315.468 152.94 316.112 152.795 317.417C152.772 317.63 152.733 317.828 152.679 318.009C152.625 318.191 152.543 318.369 152.434 318.543C152.325 318.717 152.193 318.866 152.039 318.987C151.885 319.109 151.691 319.207 151.456 319.283C151.222 319.358 150.958 319.397 150.668 319.399C150.377 319.4 150.122 319.366 149.905 319.294ZM151.104 318.907C151.222 318.872 151.321 318.824 151.405 318.768C151.489 318.711 151.564 318.64 151.63 318.556C151.697 318.471 151.751 318.386 151.794 318.3C151.836 318.214 151.875 318.117 151.905 318.009C151.936 317.901 151.959 317.802 151.976 317.713C151.992 317.623 152.006 317.526 152.018 317.421C152.03 317.311 152.039 317.209 152.043 317.116C152.046 317.022 152.045 316.923 152.038 316.816C152.03 316.71 152.013 316.614 151.991 316.529C151.968 316.444 151.933 316.362 151.886 316.281C151.838 316.201 151.78 316.133 151.708 316.079C151.638 316.025 151.55 315.982 151.443 315.95C151.337 315.918 151.214 315.902 151.076 315.903C150.937 315.905 150.812 315.921 150.697 315.955C150.584 315.988 150.485 316.032 150.403 316.086C150.322 316.14 150.247 316.209 150.18 316.29C150.112 316.372 150.057 316.455 150.017 316.54C149.975 316.625 149.937 316.722 149.905 316.83C149.872 316.938 149.847 317.039 149.829 317.131C149.812 317.225 149.796 317.326 149.784 317.437C149.772 317.541 149.763 317.639 149.759 317.73C149.755 317.82 149.756 317.919 149.761 318.027C149.768 318.135 149.782 318.232 149.805 318.317C149.828 318.402 149.862 318.487 149.91 318.571C149.957 318.655 150.016 318.724 150.084 318.779C150.153 318.834 150.242 318.879 150.351 318.913C150.461 318.948 150.584 318.964 150.724 318.963C150.858 318.961 150.987 318.943 151.104 318.907Z" fill="white"/>
<path d="M155.198 319.259C154.98 319.187 154.806 319.091 154.678 318.971C154.551 318.851 154.45 318.705 154.379 318.532C154.307 318.359 154.263 318.182 154.247 318C154.23 317.818 154.233 317.62 154.257 317.405C154.394 316.101 155.094 315.449 156.355 315.44C157.612 315.433 158.181 316.076 158.057 317.38C158.037 317.592 158.002 317.791 157.95 317.972C157.899 318.155 157.821 318.333 157.715 318.507C157.608 318.681 157.479 318.828 157.327 318.95C157.175 319.073 156.982 319.171 156.749 319.246C156.515 319.322 156.253 319.359 155.963 319.361C155.671 319.365 155.415 319.33 155.198 319.259ZM156.389 318.871C156.505 318.836 156.605 318.789 156.688 318.732C156.771 318.675 156.845 318.605 156.91 318.52C156.975 318.435 157.028 318.35 157.068 318.264C157.109 318.178 157.145 318.081 157.175 317.974C157.205 317.866 157.226 317.767 157.241 317.676C157.256 317.587 157.269 317.489 157.279 317.384C157.289 317.274 157.296 317.173 157.298 317.08C157.301 316.987 157.297 316.888 157.287 316.78C157.278 316.673 157.26 316.577 157.236 316.493C157.211 316.409 157.174 316.326 157.127 316.246C157.078 316.164 157.018 316.097 156.946 316.043C156.876 315.989 156.786 315.946 156.678 315.914C156.572 315.882 156.448 315.867 156.312 315.868C156.173 315.869 156.047 315.885 155.934 315.92C155.82 315.953 155.724 315.997 155.643 316.051C155.563 316.105 155.488 316.173 155.422 316.254C155.356 316.336 155.303 316.42 155.262 316.504C155.222 316.589 155.186 316.686 155.155 316.794C155.123 316.902 155.1 317.003 155.084 317.096C155.068 317.189 155.054 317.29 155.043 317.4C155.032 317.504 155.025 317.602 155.022 317.694C155.019 317.784 155.021 317.883 155.029 317.991C155.036 318.099 155.053 318.196 155.077 318.281C155.101 318.367 155.138 318.452 155.186 318.535C155.235 318.619 155.294 318.688 155.365 318.743C155.434 318.798 155.524 318.844 155.633 318.878C155.742 318.912 155.867 318.928 156.007 318.927C156.145 318.925 156.273 318.907 156.389 318.871Z" fill="white"/>
<path d="M160.486 319.224C160.267 319.152 160.092 319.058 159.962 318.937C159.832 318.817 159.73 318.671 159.656 318.498C159.581 318.325 159.535 318.148 159.516 317.967C159.497 317.785 159.497 317.587 159.517 317.372C159.635 316.068 160.323 315.418 161.583 315.409C162.84 315.401 163.418 316.044 163.315 317.347C163.299 317.56 163.266 317.758 163.217 317.94C163.169 318.121 163.093 318.3 162.989 318.474C162.886 318.648 162.758 318.795 162.608 318.918C162.458 319.039 162.268 319.138 162.036 319.213C161.804 319.288 161.542 319.326 161.25 319.328C160.96 319.33 160.705 319.295 160.486 319.224ZM161.671 318.837C161.787 318.802 161.885 318.756 161.967 318.698C162.049 318.641 162.122 318.571 162.186 318.487C162.249 318.402 162.301 318.317 162.341 318.232C162.38 318.146 162.415 318.049 162.442 317.941C162.47 317.833 162.489 317.735 162.504 317.645C162.517 317.555 162.528 317.457 162.537 317.353C162.546 317.243 162.551 317.141 162.552 317.049C162.553 316.955 162.548 316.856 162.537 316.749C162.526 316.642 162.507 316.546 162.481 316.462C162.455 316.377 162.417 316.294 162.367 316.214C162.318 316.133 162.256 316.066 162.184 316.011C162.113 315.957 162.023 315.914 161.916 315.882C161.808 315.85 161.686 315.835 161.548 315.835C161.41 315.835 161.285 315.853 161.171 315.887C161.058 315.92 160.961 315.964 160.882 316.018C160.801 316.072 160.728 316.14 160.665 316.222C160.6 316.303 160.548 316.386 160.509 316.472C160.471 316.556 160.437 316.653 160.407 316.761C160.377 316.869 160.355 316.969 160.341 317.063C160.326 317.155 160.314 317.257 160.306 317.367C160.297 317.472 160.291 317.57 160.289 317.66C160.287 317.75 160.291 317.849 160.3 317.957C160.31 318.065 160.328 318.162 160.353 318.247C160.378 318.332 160.416 318.417 160.466 318.5C160.515 318.584 160.575 318.653 160.647 318.708C160.717 318.763 160.809 318.807 160.918 318.842C161.027 318.876 161.152 318.892 161.291 318.891C161.428 318.89 161.556 318.872 161.671 318.837Z" fill="white"/>
<path d="M171.74 319.149C171.518 319.079 171.34 318.983 171.207 318.863C171.074 318.743 170.966 318.596 170.886 318.424C170.807 318.251 170.754 318.075 170.729 317.894C170.703 317.712 170.697 317.515 170.709 317.3C170.783 315.997 171.449 315.346 172.708 315.338C173.963 315.331 174.561 315.974 174.502 317.275C174.492 317.487 174.467 317.685 174.424 317.867C174.382 318.049 174.311 318.227 174.215 318.4C174.117 318.574 173.994 318.722 173.849 318.844C173.702 318.965 173.516 319.064 173.287 319.139C173.058 319.214 172.798 319.253 172.507 319.255C172.217 319.255 171.961 319.22 171.74 319.149ZM172.909 318.763C173.024 318.726 173.121 318.68 173.201 318.624C173.281 318.566 173.351 318.497 173.412 318.412C173.473 318.327 173.522 318.243 173.558 318.157C173.595 318.071 173.626 317.974 173.651 317.867C173.675 317.759 173.691 317.66 173.702 317.571C173.712 317.481 173.72 317.384 173.726 317.279C173.73 317.169 173.732 317.068 173.731 316.975C173.729 316.881 173.721 316.782 173.706 316.675C173.69 316.569 173.668 316.473 173.641 316.389C173.612 316.304 173.571 316.222 173.519 316.141C173.467 316.061 173.403 315.994 173.329 315.939C173.256 315.885 173.165 315.842 173.056 315.81C172.948 315.778 172.824 315.762 172.687 315.764C172.548 315.765 172.425 315.781 172.311 315.815C172.2 315.848 172.104 315.892 172.027 315.946C171.95 316 171.88 316.069 171.817 316.15C171.754 316.232 171.706 316.314 171.67 316.4C171.634 316.485 171.603 316.581 171.578 316.69C171.552 316.798 171.533 316.898 171.522 316.99C171.511 317.084 171.502 317.185 171.496 317.296C171.491 317.4 171.489 317.498 171.49 317.588C171.491 317.679 171.499 317.778 171.511 317.886C171.524 317.994 171.545 318.09 171.574 318.176C171.602 318.26 171.642 318.345 171.695 318.429C171.746 318.513 171.809 318.582 171.882 318.637C171.955 318.692 172.047 318.736 172.157 318.77C172.269 318.804 172.393 318.821 172.533 318.82C172.669 318.816 172.796 318.798 172.909 318.763Z" fill="white"/>
<path d="M177.018 319.114C176.795 319.043 176.616 318.947 176.48 318.827C176.345 318.707 176.236 318.562 176.153 318.389C176.071 318.217 176.015 318.04 175.987 317.858C175.958 317.677 175.95 317.479 175.958 317.264C176.012 315.963 176.667 315.312 177.924 315.304C179.179 315.295 179.788 315.938 179.749 317.24C179.743 317.453 179.719 317.65 179.681 317.832C179.641 318.013 179.574 318.191 179.479 318.365C179.385 318.539 179.265 318.686 179.121 318.807C178.977 318.929 178.792 319.027 178.564 319.103C178.336 319.177 178.077 319.216 177.787 319.218C177.496 319.219 177.239 319.185 177.018 319.114ZM178.181 318.728C178.294 318.692 178.39 318.647 178.469 318.589C178.549 318.532 178.617 318.463 178.678 318.378C178.737 318.293 178.784 318.208 178.82 318.122C178.855 318.036 178.885 317.94 178.907 317.833C178.929 317.725 178.944 317.626 178.954 317.536C178.963 317.446 178.969 317.349 178.973 317.245C178.976 317.134 178.976 317.033 178.973 316.941C178.969 316.848 178.959 316.748 178.943 316.641C178.926 316.534 178.903 316.438 178.874 316.355C178.844 316.27 178.802 316.187 178.748 316.107C178.694 316.026 178.63 315.959 178.554 315.905C178.48 315.851 178.389 315.808 178.28 315.777C178.171 315.745 178.048 315.729 177.91 315.73C177.772 315.731 177.648 315.748 177.537 315.782C177.425 315.815 177.331 315.859 177.254 315.913C177.176 315.967 177.107 316.035 177.046 316.117C176.986 316.198 176.939 316.281 176.903 316.366C176.869 316.451 176.839 316.547 176.815 316.655C176.791 316.763 176.773 316.864 176.763 316.957C176.754 317.05 176.747 317.151 176.742 317.261C176.738 317.366 176.738 317.464 176.74 317.554C176.742 317.644 176.751 317.743 176.767 317.851C176.782 317.959 176.804 318.055 176.834 318.141C176.864 318.226 176.905 318.311 176.958 318.394C177.012 318.478 177.076 318.547 177.149 318.601C177.222 318.657 177.315 318.702 177.426 318.736C177.537 318.77 177.662 318.786 177.802 318.785C177.941 318.781 178.067 318.762 178.181 318.728Z" fill="white"/>
<path d="M182.29 319.079C182.067 319.008 181.886 318.912 181.75 318.792C181.613 318.672 181.501 318.527 181.416 318.354C181.33 318.182 181.273 318.005 181.242 317.823C181.211 317.642 181.199 317.444 181.204 317.229C181.237 315.929 181.882 315.278 183.139 315.27C184.393 315.261 185.012 315.904 184.993 317.205C184.99 317.418 184.97 317.615 184.934 317.797C184.897 317.978 184.833 318.156 184.742 318.33C184.649 318.504 184.532 318.651 184.391 318.772C184.249 318.895 184.065 318.993 183.838 319.068C183.612 319.142 183.353 319.181 183.062 319.183C182.769 319.184 182.513 319.15 182.29 319.079ZM183.447 318.692C183.56 318.657 183.655 318.61 183.734 318.553C183.811 318.497 183.88 318.425 183.938 318.342C183.996 318.258 184.041 318.172 184.076 318.086C184.11 318 184.138 317.903 184.158 317.797C184.179 317.689 184.192 317.591 184.201 317.5C184.209 317.41 184.213 317.313 184.215 317.208C184.217 317.098 184.215 316.997 184.211 316.904C184.206 316.812 184.195 316.712 184.177 316.605C184.158 316.498 184.134 316.402 184.103 316.319C184.072 316.234 184.029 316.151 183.974 316.071C183.919 315.99 183.854 315.923 183.778 315.869C183.703 315.815 183.611 315.772 183.502 315.74C183.393 315.708 183.269 315.693 183.132 315.694C182.994 315.695 182.87 315.712 182.76 315.745C182.648 315.778 182.556 315.822 182.48 315.876C182.404 315.93 182.336 315.997 182.276 316.078C182.217 316.16 182.17 316.243 182.136 316.327C182.103 316.412 182.074 316.509 182.052 316.617C182.03 316.725 182.014 316.825 182.006 316.919C181.998 317.011 181.992 317.113 181.99 317.223C181.987 317.327 181.989 317.425 181.993 317.516C181.997 317.606 182.007 317.705 182.023 317.813C182.039 317.921 182.063 318.017 182.094 318.103C182.125 318.188 182.168 318.272 182.223 318.356C182.277 318.44 182.342 318.509 182.417 318.563C182.491 318.618 182.584 318.662 182.696 318.697C182.807 318.732 182.932 318.748 183.071 318.747C183.208 318.746 183.333 318.728 183.447 318.692Z" fill="white"/>
<path d="M187.56 319.043C187.335 318.973 187.154 318.877 187.015 318.758C186.876 318.638 186.763 318.493 186.675 318.32C186.586 318.148 186.526 317.971 186.493 317.79C186.459 317.609 186.443 317.411 186.446 317.196C186.459 315.896 187.092 315.246 188.349 315.237C189.601 315.229 190.23 315.871 190.232 317.171C190.232 317.384 190.215 317.581 190.181 317.762C190.147 317.944 190.087 318.122 189.997 318.294C189.907 318.468 189.793 318.616 189.653 318.737C189.513 318.858 189.331 318.957 189.105 319.032C188.881 319.107 188.623 319.146 188.332 319.147C188.041 319.149 187.784 319.115 187.56 319.043ZM188.71 318.658C188.822 318.623 188.917 318.576 188.995 318.519C189.072 318.463 189.138 318.392 189.196 318.308C189.253 318.224 189.298 318.138 189.33 318.053C189.363 317.967 189.389 317.87 189.408 317.764C189.427 317.656 189.439 317.558 189.446 317.467C189.452 317.377 189.454 317.28 189.455 317.177C189.455 317.066 189.452 316.965 189.447 316.873C189.44 316.78 189.427 316.68 189.407 316.573C189.387 316.466 189.361 316.37 189.329 316.287C189.297 316.202 189.253 316.12 189.196 316.039C189.139 315.959 189.073 315.891 188.996 315.837C188.92 315.783 188.828 315.74 188.718 315.708C188.607 315.677 188.484 315.661 188.346 315.662C188.209 315.663 188.085 315.68 187.975 315.713C187.865 315.746 187.773 315.79 187.697 315.844C187.622 315.898 187.555 315.965 187.496 316.047C187.438 316.128 187.393 316.211 187.361 316.296C187.329 316.38 187.303 316.477 187.283 316.584C187.262 316.692 187.247 316.792 187.241 316.885C187.234 316.977 187.23 317.079 187.23 317.189C187.229 317.293 187.231 317.39 187.237 317.482C187.243 317.572 187.255 317.671 187.273 317.778C187.29 317.886 187.316 317.982 187.348 318.066C187.379 318.152 187.424 318.236 187.481 318.32C187.537 318.403 187.602 318.472 187.677 318.527C187.752 318.582 187.845 318.626 187.958 318.66C188.069 318.694 188.196 318.711 188.334 318.71C188.472 318.712 188.598 318.693 188.71 318.658Z" fill="white"/>
<path d="M198.773 318.968C198.546 318.898 198.361 318.802 198.219 318.682C198.077 318.563 197.958 318.416 197.864 318.244C197.771 318.073 197.703 317.896 197.665 317.715C197.625 317.534 197.603 317.336 197.599 317.122C197.568 315.823 198.18 315.173 199.435 315.165C200.686 315.157 201.334 315.798 201.38 317.098C201.387 317.311 201.376 317.507 201.349 317.688C201.32 317.87 201.265 318.047 201.183 318.22C201.099 318.393 200.989 318.541 200.853 318.663C200.717 318.784 200.538 318.882 200.316 318.958C200.093 319.033 199.838 319.072 199.547 319.073C199.256 319.074 198.999 319.04 198.773 318.968ZM199.909 318.584C200.021 318.548 200.113 318.502 200.188 318.445C200.263 318.389 200.328 318.318 200.382 318.233C200.436 318.15 200.478 318.064 200.507 317.979C200.537 317.893 200.56 317.797 200.576 317.689C200.591 317.581 200.6 317.483 200.603 317.393C200.607 317.304 200.607 317.207 200.603 317.102C200.599 316.992 200.593 316.892 200.583 316.799C200.573 316.707 200.558 316.608 200.534 316.5C200.511 316.393 200.481 316.298 200.446 316.214C200.41 316.129 200.363 316.047 200.305 315.967C200.246 315.886 200.177 315.819 200.1 315.765C200.023 315.711 199.928 315.668 199.817 315.638C199.706 315.606 199.582 315.59 199.445 315.591C199.307 315.592 199.185 315.609 199.076 315.643C198.967 315.676 198.875 315.719 198.803 315.773C198.729 315.827 198.664 315.895 198.609 315.976C198.554 316.057 198.511 316.14 198.482 316.225C198.453 316.309 198.43 316.405 198.413 316.513C198.395 316.621 198.384 316.721 198.381 316.814C198.377 316.906 198.376 317.008 198.38 317.118C198.382 317.222 198.388 317.319 198.396 317.41C198.404 317.5 198.42 317.599 198.441 317.706C198.463 317.813 198.492 317.91 198.526 317.994C198.561 318.079 198.608 318.164 198.667 318.248C198.725 318.331 198.794 318.4 198.871 318.455C198.947 318.51 199.043 318.554 199.156 318.588C199.268 318.622 199.395 318.639 199.534 318.638C199.673 318.637 199.798 318.619 199.909 318.584Z" fill="white"/>
<path d="M204.032 318.934C203.804 318.864 203.618 318.768 203.473 318.649C203.328 318.529 203.208 318.384 203.112 318.212C203.016 318.04 202.947 317.864 202.905 317.682C202.862 317.502 202.837 317.304 202.829 317.09C202.778 315.791 203.38 315.141 204.633 315.134C205.883 315.126 206.542 315.767 206.607 317.065C206.618 317.278 206.61 317.474 206.585 317.656C206.56 317.837 206.508 318.015 206.427 318.188C206.346 318.361 206.239 318.508 206.105 318.63C205.971 318.752 205.794 318.85 205.573 318.924C205.351 318.999 205.097 319.038 204.807 319.04C204.516 319.04 204.258 319.005 204.032 318.934ZM205.161 318.549C205.271 318.514 205.363 318.467 205.438 318.41C205.512 318.354 205.575 318.283 205.628 318.199C205.681 318.115 205.72 318.03 205.749 317.944C205.777 317.858 205.799 317.763 205.813 317.655C205.826 317.547 205.834 317.449 205.836 317.359C205.838 317.27 205.836 317.173 205.831 317.069C205.826 316.959 205.818 316.858 205.807 316.766C205.796 316.673 205.779 316.574 205.753 316.466C205.728 316.359 205.697 316.265 205.661 316.181C205.624 316.096 205.576 316.014 205.516 315.933C205.457 315.853 205.386 315.786 205.308 315.732C205.23 315.678 205.135 315.635 205.024 315.604C204.913 315.572 204.788 315.557 204.652 315.558C204.515 315.559 204.392 315.575 204.283 315.608C204.175 315.641 204.085 315.685 204.012 315.739C203.939 315.793 203.875 315.862 203.821 315.942C203.767 316.024 203.726 316.106 203.698 316.191C203.671 316.276 203.649 316.372 203.634 316.479C203.619 316.587 203.609 316.688 203.607 316.78C203.604 316.873 203.606 316.974 203.61 317.083C203.614 317.188 203.621 317.285 203.632 317.375C203.642 317.465 203.658 317.564 203.682 317.671C203.705 317.778 203.734 317.875 203.771 317.96C203.807 318.044 203.856 318.129 203.916 318.213C203.976 318.297 204.045 318.365 204.122 318.42C204.2 318.475 204.296 318.519 204.41 318.553C204.523 318.587 204.649 318.604 204.787 318.603C204.926 318.603 205.051 318.584 205.161 318.549Z" fill="white"/>
<path d="M209.286 318.899C209.057 318.829 208.869 318.733 208.723 318.614C208.576 318.494 208.453 318.348 208.355 318.177C208.256 318.005 208.186 317.829 208.139 317.648C208.094 317.467 208.065 317.27 208.054 317.055C207.984 315.757 208.574 315.108 209.827 315.099C211.075 315.092 211.744 315.733 211.829 317.03C211.843 317.243 211.839 317.439 211.817 317.62C211.795 317.802 211.745 317.979 211.667 318.152C211.589 318.325 211.484 318.473 211.352 318.594C211.221 318.715 211.046 318.813 210.824 318.888C210.605 318.963 210.35 319.001 210.061 319.003C209.773 319.005 209.514 318.971 209.286 318.899ZM210.408 318.515C210.518 318.478 210.608 318.433 210.683 318.376C210.756 318.32 210.819 318.249 210.869 318.166C210.921 318.082 210.96 317.997 210.987 317.911C211.014 317.825 211.034 317.729 211.047 317.621C211.059 317.515 211.064 317.416 211.066 317.326C211.066 317.237 211.063 317.14 211.057 317.036C211.049 316.925 211.04 316.825 211.028 316.733C211.016 316.64 210.996 316.541 210.97 316.434C210.943 316.327 210.91 316.233 210.873 316.149C210.835 316.064 210.786 315.983 210.724 315.902C210.662 315.822 210.593 315.755 210.513 315.701C210.433 315.647 210.339 315.604 210.226 315.572C210.115 315.54 209.991 315.525 209.853 315.526C209.716 315.527 209.594 315.543 209.485 315.576C209.377 315.609 209.288 315.653 209.216 315.707C209.145 315.761 209.082 315.83 209.029 315.91C208.976 315.99 208.937 316.074 208.91 316.159C208.885 316.244 208.864 316.34 208.851 316.447C208.836 316.555 208.829 316.656 208.828 316.748C208.828 316.841 208.829 316.942 208.836 317.051C208.842 317.156 208.851 317.253 208.863 317.343C208.874 317.433 208.893 317.532 208.917 317.639C208.942 317.746 208.973 317.843 209.01 317.928C209.048 318.012 209.097 318.097 209.159 318.18C209.221 318.264 209.29 318.333 209.368 318.387C209.447 318.442 209.543 318.486 209.657 318.52C209.771 318.554 209.897 318.571 210.036 318.57C210.175 318.568 210.298 318.55 210.408 318.515Z" fill="white"/>
<path d="M214.537 318.864C214.308 318.793 214.117 318.697 213.97 318.578C213.821 318.459 213.697 318.313 213.595 318.141C213.494 317.969 213.42 317.793 213.372 317.613C213.323 317.432 213.292 317.235 213.277 317.021C213.185 315.724 213.767 315.074 215.018 315.066C216.266 315.059 216.943 315.698 217.049 316.996C217.067 317.208 217.065 317.404 217.046 317.586C217.027 317.767 216.98 317.944 216.905 318.117C216.829 318.29 216.726 318.437 216.596 318.559C216.466 318.68 216.293 318.778 216.074 318.853C215.856 318.928 215.602 318.966 215.313 318.967C215.025 318.969 214.765 318.935 214.537 318.864ZM215.652 318.479C215.763 318.443 215.852 318.398 215.926 318.34C215.997 318.284 216.059 318.214 216.108 318.13C216.159 318.046 216.197 317.962 216.222 317.876C216.247 317.79 216.267 317.694 216.276 317.586C216.286 317.478 216.29 317.38 216.29 317.291C216.289 317.202 216.285 317.105 216.276 317C216.267 316.89 216.256 316.79 216.243 316.697C216.228 316.605 216.209 316.505 216.18 316.399C216.152 316.292 216.118 316.197 216.08 316.112C216.04 316.029 215.989 315.946 215.927 315.866C215.865 315.785 215.793 315.718 215.712 315.664C215.632 315.61 215.536 315.567 215.423 315.535C215.312 315.503 215.187 315.488 215.05 315.489C214.912 315.49 214.791 315.507 214.683 315.54C214.576 315.573 214.487 315.617 214.417 315.671C214.346 315.725 214.285 315.792 214.233 315.874C214.181 315.955 214.143 316.038 214.118 316.122C214.093 316.207 214.074 316.303 214.062 316.411C214.05 316.518 214.043 316.618 214.045 316.711C214.046 316.803 214.049 316.904 214.058 317.013C214.065 317.118 214.075 317.215 214.089 317.305C214.101 317.396 214.122 317.495 214.147 317.602C214.173 317.708 214.206 317.804 214.245 317.89C214.284 317.975 214.334 318.06 214.397 318.142C214.46 318.226 214.53 318.294 214.61 318.349C214.689 318.404 214.787 318.448 214.9 318.483C215.015 318.517 215.141 318.533 215.28 318.532C215.419 318.532 215.543 318.515 215.652 318.479Z" fill="white"/>
<path d="M225.713 318.79C225.482 318.72 225.289 318.624 225.138 318.505C224.986 318.386 224.856 318.241 224.749 318.068C224.642 317.896 224.562 317.72 224.508 317.539C224.454 317.358 224.417 317.161 224.395 316.948C224.26 315.651 224.819 315.003 226.069 314.995C227.315 314.987 228.014 315.627 228.162 316.923C228.186 317.135 228.192 317.332 228.179 317.513C228.165 317.693 228.125 317.871 228.055 318.043C227.985 318.216 227.888 318.363 227.762 318.484C227.637 318.605 227.466 318.703 227.25 318.778C227.034 318.853 226.782 318.891 226.494 318.893C226.204 318.895 225.944 318.861 225.713 318.79ZM226.814 318.406C226.922 318.371 227.011 318.324 227.082 318.268C227.151 318.212 227.211 318.141 227.257 318.058C227.304 317.974 227.34 317.889 227.362 317.803C227.385 317.717 227.4 317.622 227.407 317.515C227.413 317.408 227.414 317.309 227.411 317.22C227.407 317.13 227.399 317.034 227.388 316.93C227.375 316.82 227.362 316.72 227.345 316.627C227.327 316.535 227.304 316.435 227.272 316.329C227.24 316.222 227.203 316.127 227.162 316.043C227.12 315.96 227.067 315.877 227.002 315.797C226.938 315.716 226.864 315.649 226.781 315.595C226.7 315.541 226.602 315.498 226.489 315.467C226.377 315.435 226.251 315.42 226.115 315.421C225.978 315.422 225.857 315.439 225.75 315.472C225.645 315.505 225.558 315.549 225.488 315.602C225.419 315.656 225.36 315.723 225.312 315.804C225.263 315.886 225.227 315.969 225.205 316.052C225.183 316.137 225.168 316.233 225.16 316.341C225.151 316.449 225.149 316.549 225.152 316.641C225.157 316.734 225.163 316.835 225.175 316.944C225.186 317.049 225.2 317.146 225.215 317.236C225.23 317.326 225.254 317.424 225.283 317.532C225.314 317.639 225.349 317.735 225.391 317.821C225.433 317.906 225.487 317.989 225.552 318.073C225.617 318.157 225.69 318.225 225.771 318.28C225.853 318.335 225.951 318.379 226.066 318.413C226.181 318.448 226.309 318.464 226.446 318.463C226.584 318.459 226.706 318.441 226.814 318.406Z" fill="white"/>
<path d="M230.952 318.755C230.72 318.684 230.526 318.588 230.373 318.469C230.219 318.351 230.088 318.205 229.978 318.032C229.868 317.86 229.786 317.685 229.729 317.505C229.672 317.324 229.631 317.127 229.605 316.913C229.451 315.618 230 314.969 231.249 314.962C232.494 314.954 233.201 315.594 233.37 316.889C233.397 317.101 233.406 317.298 233.396 317.478C233.385 317.659 233.348 317.836 233.282 318.009C233.215 318.182 233.12 318.329 232.995 318.45C232.872 318.571 232.703 318.669 232.489 318.744C232.274 318.819 232.023 318.856 231.734 318.858C231.445 318.86 231.185 318.826 230.952 318.755ZM232.047 318.37C232.155 318.335 232.242 318.289 232.313 318.233C232.382 318.177 232.439 318.106 232.484 318.022C232.531 317.939 232.564 317.854 232.586 317.769C232.608 317.683 232.621 317.587 232.626 317.48C232.631 317.374 232.631 317.275 232.626 317.185C232.621 317.096 232.612 316.999 232.599 316.896C232.585 316.787 232.569 316.685 232.55 316.593C232.532 316.5 232.506 316.401 232.473 316.294C232.44 316.189 232.402 316.093 232.359 316.009C232.316 315.925 232.261 315.843 232.195 315.762C232.129 315.682 232.054 315.615 231.971 315.561C231.889 315.507 231.79 315.465 231.677 315.433C231.565 315.401 231.438 315.386 231.303 315.387C231.166 315.388 231.045 315.404 230.939 315.437C230.833 315.471 230.748 315.513 230.679 315.567C230.611 315.621 230.554 315.689 230.506 315.77C230.459 315.85 230.425 315.934 230.404 316.018C230.383 316.103 230.37 316.199 230.363 316.305C230.355 316.413 230.354 316.514 230.36 316.605C230.365 316.697 230.374 316.799 230.387 316.908C230.4 317.011 230.415 317.109 230.433 317.199C230.449 317.289 230.474 317.387 230.505 317.494C230.537 317.602 230.575 317.697 230.616 317.781C230.659 317.866 230.714 317.951 230.782 318.033C230.848 318.117 230.923 318.185 231.004 318.24C231.086 318.295 231.186 318.34 231.301 318.374C231.417 318.408 231.544 318.424 231.683 318.423C231.817 318.424 231.94 318.406 232.047 318.37Z" fill="white"/>
<path d="M236.186 318.719C235.952 318.649 235.757 318.554 235.602 318.434C235.447 318.315 235.312 318.17 235.2 317.998C235.089 317.826 235.002 317.651 234.943 317.471C234.884 317.29 234.84 317.094 234.811 316.88C234.637 315.585 235.175 314.937 236.422 314.93C237.667 314.922 238.384 315.561 238.572 316.856C238.603 317.067 238.615 317.264 238.608 317.445C238.601 317.626 238.566 317.802 238.501 317.975C238.437 318.148 238.343 318.295 238.222 318.415C238.1 318.537 237.934 318.635 237.72 318.71C237.507 318.784 237.256 318.822 236.968 318.824C236.679 318.825 236.418 318.791 236.186 318.719ZM237.274 318.336C237.381 318.301 237.468 318.255 237.537 318.199C237.605 318.142 237.662 318.072 237.706 317.988C237.751 317.904 237.783 317.82 237.802 317.735C237.822 317.649 237.834 317.553 237.839 317.446C237.842 317.339 237.84 317.24 237.833 317.152C237.827 317.063 237.816 316.966 237.801 316.863C237.785 316.754 237.768 316.652 237.749 316.56C237.729 316.467 237.701 316.368 237.667 316.262C237.632 316.156 237.592 316.061 237.548 315.977C237.504 315.893 237.448 315.811 237.38 315.73C237.312 315.65 237.237 315.583 237.153 315.529C237.069 315.476 236.971 315.433 236.856 315.401C236.743 315.369 236.617 315.354 236.481 315.355C236.343 315.356 236.223 315.373 236.119 315.406C236.014 315.439 235.928 315.482 235.861 315.536C235.794 315.589 235.737 315.657 235.691 315.737C235.645 315.817 235.612 315.901 235.593 315.985C235.573 316.07 235.561 316.165 235.557 316.272C235.551 316.38 235.551 316.479 235.558 316.572C235.565 316.664 235.576 316.766 235.591 316.875C235.605 316.978 235.622 317.076 235.641 317.165C235.659 317.256 235.685 317.354 235.719 317.461C235.753 317.567 235.791 317.663 235.835 317.748C235.88 317.833 235.936 317.918 236.004 318C236.072 318.084 236.147 318.152 236.23 318.206C236.312 318.261 236.413 318.305 236.528 318.34C236.645 318.374 236.772 318.39 236.91 318.389C237.045 318.389 237.167 318.371 237.274 318.336Z" fill="white"/>
<path d="M241.422 318.685C241.187 318.615 240.991 318.52 240.834 318.4C240.676 318.281 240.54 318.136 240.426 317.964C240.312 317.792 240.224 317.617 240.161 317.436C240.098 317.256 240.052 317.06 240.02 316.846C239.825 315.552 240.353 314.904 241.6 314.896C242.845 314.888 243.571 315.527 243.78 316.822C243.814 317.033 243.829 317.229 243.824 317.41C243.82 317.591 243.786 317.767 243.726 317.94C243.664 318.113 243.574 318.259 243.454 318.38C243.334 318.501 243.169 318.599 242.957 318.674C242.746 318.749 242.496 318.787 242.207 318.789C241.916 318.791 241.655 318.756 241.422 318.685ZM242.503 318.301C242.61 318.266 242.696 318.219 242.764 318.163C242.832 318.107 242.888 318.037 242.931 317.953C242.974 317.869 243.005 317.784 243.023 317.7C243.042 317.614 243.053 317.518 243.055 317.411C243.057 317.304 243.053 317.206 243.045 317.116C243.038 317.027 243.024 316.93 243.008 316.826C242.99 316.717 242.972 316.616 242.951 316.523C242.93 316.431 242.901 316.332 242.864 316.225C242.827 316.119 242.785 316.023 242.74 315.94C242.695 315.856 242.637 315.773 242.568 315.694C242.5 315.614 242.423 315.546 242.338 315.492C242.255 315.44 242.155 315.397 242.041 315.365C241.927 315.333 241.801 315.317 241.665 315.318C241.529 315.32 241.409 315.336 241.304 315.369C241.201 315.402 241.115 315.445 241.049 315.499C240.982 315.553 240.926 315.62 240.881 315.702C240.837 315.782 240.805 315.866 240.786 315.95C240.768 316.034 240.758 316.13 240.755 316.237C240.751 316.344 240.752 316.444 240.76 316.537C240.769 316.629 240.78 316.73 240.797 316.839C240.813 316.943 240.832 317.041 240.851 317.13C240.871 317.22 240.899 317.319 240.934 317.425C240.969 317.532 241.01 317.628 241.055 317.713C241.1 317.798 241.159 317.882 241.227 317.965C241.296 318.049 241.372 318.117 241.456 318.171C241.539 318.226 241.64 318.27 241.756 318.304C241.872 318.338 242 318.355 242.138 318.354C242.275 318.355 242.398 318.336 242.503 318.301Z" fill="white"/>
<path d="M237.644 328.291C237.998 330.852 235.432 332.976 231.907 333.003C228.38 333.029 225.305 330.945 225.043 328.382C224.785 325.857 227.366 323.816 230.8 323.793C234.233 323.769 237.294 325.768 237.644 328.291Z" fill="white" stroke="#263238" stroke-width="1.10134" stroke-miterlimit="10" stroke-linecap="round" stroke-linejoin="round"/>
<path d="M246.19 328.229C246.608 330.788 244.097 332.911 240.576 332.938C237.053 332.964 233.929 330.881 233.605 328.321C233.286 325.797 235.812 323.758 239.243 323.735C242.672 323.711 245.78 325.707 246.19 328.229Z" fill="white" stroke="#263238" stroke-width="1.10134" stroke-miterlimit="10" stroke-linecap="round" stroke-linejoin="round"/>
<path d="M327.912 176.623H71.5977V9.96049C71.5977 5.01217 75.6098 1 80.5581 1H318.951C323.9 1 327.912 5.01107 327.912 9.96049V176.623Z" fill="#263238" stroke="#263238" stroke-width="1.10134" stroke-miterlimit="10" stroke-linecap="round" stroke-linejoin="round"/>
<path d="M366.361 254.26H33.1523L71.5989 176.623H327.913L366.361 254.26Z" fill="white" stroke="#263238" stroke-width="1.10134" stroke-miterlimit="10" stroke-linecap="round" stroke-linejoin="round"/>
<path d="M312.387 14.9065H87.123V162.717H312.387V14.9065Z" fill="black" stroke="#263238" stroke-width="1.10134" stroke-miterlimit="10" stroke-linecap="round" stroke-linejoin="round"/>
<path d="M149.704 119.471C162.136 107.039 162.136 86.8831 149.704 74.4512C137.272 62.0194 117.116 62.0194 104.684 74.4512C92.2519 86.8831 92.2519 107.039 104.684 119.471C117.116 131.903 137.272 131.903 149.704 119.471Z" fill="#263238"/>
<path d="M223.288 119.472C235.72 107.04 235.72 86.8841 223.288 74.4522C210.856 62.0203 190.7 62.0203 178.268 74.4522C165.836 86.8841 165.836 107.04 178.268 119.472C190.7 131.904 210.856 131.904 223.288 119.472Z" fill="#263238"/>
<path d="M281.577 127.979C298.699 123.99 309.346 106.875 305.357 89.7525C301.367 72.6299 284.253 61.9831 267.13 65.9724C250.008 69.9616 239.361 87.0762 243.35 104.199C247.339 121.321 264.454 131.968 281.577 127.979Z" fill="#263238"/>
<path d="M105.312 88.8404C105.312 88.8404 119.35 50.5149 127.595 50.5149C135.839 50.5149 150.322 88.3943 150.322 88.3943L147.87 88.6168C147.87 88.6168 133.61 55.417 129.377 53.4114C125.143 51.4059 117.345 63.438 107.763 88.8404H105.312Z" fill="white" stroke="#263238" stroke-width="1.10134" stroke-miterlimit="10" stroke-linecap="round" stroke-linejoin="round"/>
<path d="M149.857 117.807H105.782C103.678 117.807 101.973 116.101 101.973 113.997V91.3745C101.973 88.7445 104.105 86.6123 106.735 86.6123H148.905C151.535 86.6123 153.667 88.7445 153.667 91.3745V113.997C153.666 116.101 151.96 117.807 149.857 117.807Z" fill="white" stroke="#263238" stroke-width="1.10134" stroke-miterlimit="10" stroke-linecap="round" stroke-linejoin="round"/>
<path d="M102.418 103.323H149.211" stroke="#263238" stroke-width="1.10134" stroke-miterlimit="10" stroke-linecap="round" stroke-linejoin="round"/>
<path d="M151.217 87.7258C151.217 87.7258 150.102 89.0629 150.102 92.8504C150.102 96.6379 148.765 116.692 148.988 117.584C149.21 118.475 150.547 117.807 150.547 117.807" fill="white"/>
<path d="M151.217 87.7258C151.217 87.7258 150.102 89.0629 150.102 92.8504C150.102 96.6379 148.765 116.692 148.988 117.584C149.21 118.475 150.547 117.807 150.547 117.807" stroke="#263238" stroke-width="1.10134" stroke-miterlimit="10" stroke-linecap="round" stroke-linejoin="round"/>
<path d="M127.596 98.8669H124.031V106.889H127.596V98.8669Z" fill="white" stroke="#263238" stroke-width="1.10134" stroke-miterlimit="10" stroke-linecap="round" stroke-linejoin="round"/>
<path d="M172.914 78.3326C172.914 78.3326 187.795 77.0386 205.266 77.0386C222.736 77.0386 230.931 78.1168 231.147 79.195C231.363 80.2732 228.775 94.2921 228.775 95.5862C228.775 96.8803 228.775 114.997 228.343 116.075C227.912 117.154 225.971 118.016 225.108 118.232C224.245 118.448 178.953 118.878 177.659 118.878C176.365 118.878 175.286 117.584 175.286 116.29C175.286 114.996 175.933 100.761 174.855 95.5851C173.776 90.411 172.914 78.3326 172.914 78.3326Z" fill="white" stroke="#263238" stroke-width="1.10134" stroke-miterlimit="10" stroke-linecap="round" stroke-linejoin="round"/>
<path d="M188.876 85.4505C188.876 85.4505 188.66 68.4117 190.386 62.5889C192.112 56.7662 197.503 53.9622 201.817 53.9622C206.13 53.9622 214.111 57.4126 216.267 65.8247C218.424 74.2367 216.699 84.804 216.483 85.8833C216.267 86.9615 213.895 89.9814 213.463 84.1575C213.031 78.3347 213.895 64.7465 212.169 60.8642C210.443 56.982 205.483 54.178 200.954 55.2562C196.424 56.3344 194.052 58.2761 193.19 63.883C192.327 69.491 194.052 82.4317 192.974 85.2346C191.895 88.0386 189.306 89.3316 188.876 85.4505Z" fill="white" stroke="#263238" stroke-width="1.10134" stroke-miterlimit="10" stroke-linecap="round" stroke-linejoin="round"/>
<path d="M177.015 78.5483C177.015 78.5483 175.937 89.9791 175.937 94.2931C175.937 98.607 175.721 101.41 175.721 101.41" fill="white"/>
<path d="M177.015 78.5483C177.015 78.5483 175.937 89.9791 175.937 94.2931C175.937 98.607 175.721 101.41 175.721 101.41" stroke="#263238" stroke-width="1.10134" stroke-miterlimit="10" stroke-linecap="round" stroke-linejoin="round"/>
<path d="M227.482 78.7644C227.482 78.7644 227.914 90.1952 227.914 96.8814" stroke="#263238" stroke-width="1.10134" stroke-miterlimit="10" stroke-linecap="round" stroke-linejoin="round"/>
<path d="M283.084 76.5805C282.559 76.5595 282.104 76.1708 282.018 75.6311C279.893 62.3346 277.226 47.678 275.858 42.917C273.84 47.4148 269.412 61.7223 265.752 74.7291C265.584 75.3282 264.96 75.6762 264.361 75.5088C263.762 75.3403 263.413 74.7181 263.581 74.1179C263.605 74.0353 265.941 65.7433 268.491 57.4722C273.813 40.2209 274.808 39.8751 275.608 39.5975C276.016 39.4555 276.446 39.5193 276.791 39.7693C277.376 40.1945 278.179 40.7782 281.352 58.3115C282.882 66.7697 284.23 75.1906 284.244 75.2743C284.342 75.8888 283.923 76.467 283.309 76.565C283.233 76.5793 283.158 76.5838 283.084 76.5805Z" fill="white" stroke="#263238" stroke-width="1.10134" stroke-miterlimit="10" stroke-linecap="round" stroke-linejoin="round"/>
<path d="M247.346 72.881C247.346 72.881 269.271 71.5275 276.829 71.8337C284.387 72.1398 297.811 72.9647 297.777 73.805C297.743 74.6443 297.459 102.391 296.672 107.967C295.885 113.544 291.963 120.394 288.547 121.657C285.13 122.92 273.654 122.456 267.776 122.217C261.898 121.978 256.601 121.202 253.949 117.45C251.297 113.698 249.414 97.9199 249.414 97.9199L247.346 72.881Z" fill="white" stroke="#263238" stroke-width="1.10134" stroke-miterlimit="10" stroke-linecap="round" stroke-linejoin="round"/>
<path d="M264.766 78.9141C264.817 77.6773 263.854 76.6344 262.617 76.5837C261.381 76.533 260.338 77.4956 260.287 78.7324C260.236 79.9692 261.199 81.0122 262.436 81.0628C263.673 81.1135 264.717 80.1509 264.766 78.9141Z" fill="white" stroke="#263238" stroke-width="1.10134" stroke-miterlimit="10" stroke-linecap="round" stroke-linejoin="round"/>
<path d="M285.747 80.0452C285.797 78.8084 284.835 77.7655 283.598 77.7148C282.361 77.6641 281.318 78.6267 281.268 79.8635C281.217 81.1003 282.179 82.1433 283.416 82.1939C284.653 82.2446 285.697 81.282 285.747 80.0452Z" fill="white" stroke="#263238" stroke-width="1.10134" stroke-miterlimit="10" stroke-linecap="round" stroke-linejoin="round"/>
<path d="M251.176 109.767C251.176 109.767 266.932 108.443 295.751 109.893Z" fill="white"/>
<path d="M251.176 109.767C251.176 109.767 266.932 108.443 295.751 109.893" stroke="#263238" stroke-width="1.10134" stroke-miterlimit="10" stroke-linecap="round" stroke-linejoin="round"/>
<path d="M308.129 19.2678H90.6074V36.9553H308.129V19.2678Z" fill="#263238"/>
<path d="M196.115 29.3374H217.678" stroke="white" stroke-width="2.20268" stroke-miterlimit="10"/>
<path d="M242.625 29.3374H264.189" stroke="white" stroke-width="2.20268" stroke-miterlimit="10"/>
<path d="M301.32 23.8636C301.233 23.7502 301.098 23.6841 300.955 23.6841H289.129L288.673 22.3151C288.61 22.1279 288.435 22.0012 288.237 22.0012H285.244C284.991 22.0012 284.785 22.2072 284.785 22.4605C284.785 22.7138 284.991 22.9197 285.244 22.9197H287.906L290.794 31.584C290.857 31.7712 291.032 31.8978 291.229 31.8978H291.397C291.239 32.1434 291.144 32.4342 291.144 32.7481C291.144 33.6203 291.854 34.3296 292.726 34.3296C293.598 34.3296 294.307 33.6203 294.307 32.7481C294.307 32.4342 294.213 32.1445 294.055 31.8978H296.26C296.103 32.1434 296.008 32.4342 296.008 32.7481C296.008 33.6203 296.717 34.3296 297.589 34.3296C298.462 34.3296 299.171 33.6203 299.171 32.7481C299.171 32.4342 299.076 32.1445 298.919 31.8978H299.273C299.527 31.8978 299.733 31.6919 299.733 31.4386C299.733 31.1853 299.527 30.9793 299.273 30.9793H291.562L291.057 29.4661H299.648C299.855 29.4661 300.036 29.3273 300.09 29.1258L301.4 24.2634C301.436 24.1246 301.407 23.977 301.32 23.8636ZM292.726 33.41C292.36 33.41 292.063 33.1126 292.063 32.747C292.063 32.3813 292.36 32.084 292.726 32.084C293.091 32.084 293.389 32.3813 293.389 32.747C293.389 33.1115 293.091 33.41 292.726 33.41ZM297.589 33.41C297.224 33.41 296.926 33.1126 296.926 32.747C296.926 32.3813 297.224 32.084 297.589 32.084C297.955 32.084 298.252 32.3813 298.252 32.747C298.252 33.1115 297.955 33.41 297.589 33.41ZM298.813 28.5465H297.112V24.6015H298.813V28.5465ZM294.495 24.6015H296.195V28.5465H294.495V24.6015ZM293.576 28.5465H291.876V24.6015H293.576V28.5465ZM289.435 24.6015H290.957V28.5465H290.75L289.435 24.6015ZM299.731 26.9242V24.6026H300.357L299.731 26.9242Z" fill="white"/>
<path d="M304.878 23.5827C304.878 21.727 303.374 20.2236 301.519 20.2236C299.664 20.2236 298.16 21.7281 298.16 23.5827C298.16 25.4385 299.665 26.9418 301.519 26.9418C303.374 26.9418 304.878 25.4385 304.878 23.5827Z" fill="white"/>
<path d="M300.172 25.6544C300.093 25.5828 300.044 25.4958 300.023 25.3934C300.002 25.291 300.006 25.1841 300.036 25.0707C300.066 24.9573 300.12 24.8615 300.198 24.7811L301.742 23.27C301.946 23.0861 302.048 22.9 302.048 22.7116C302.048 22.5696 301.99 22.4517 301.874 22.3592C301.758 22.2667 301.619 22.2193 301.457 22.2193C301.381 22.2193 301.31 22.2248 301.244 22.2359C301.178 22.2469 301.113 22.2656 301.048 22.2909C300.983 22.3174 300.932 22.3394 300.895 22.3581C300.858 22.3768 300.804 22.4077 300.732 22.4495C300.66 22.4914 300.61 22.52 300.582 22.5332C300.528 22.5553 300.467 22.5564 300.396 22.5365C300.326 22.5167 300.266 22.4738 300.214 22.4088C300.164 22.3438 300.123 22.2744 300.094 22.2017C300.066 22.129 300.063 22.0519 300.09 21.9726C300.116 21.8922 300.173 21.8273 300.261 21.7744C300.721 21.5101 301.178 21.3867 301.634 21.4022C302.048 21.4165 302.384 21.5442 302.642 21.7876C302.899 22.031 303.028 22.3273 303.028 22.6764C303.028 22.9 302.968 23.128 302.849 23.3592C302.729 23.5905 302.548 23.8042 302.306 24.0024L301.124 24.9408H302.663C302.753 24.9408 302.822 24.9804 302.873 25.0586C302.924 25.1368 302.948 25.2326 302.948 25.3416C302.948 25.454 302.923 25.5509 302.873 25.6346C302.823 25.7172 302.753 25.759 302.663 25.759H300.47C300.351 25.7624 300.252 25.726 300.172 25.6544Z" fill="#263238"/>
<path d="M178.343 33.4177H98.7262C95.7955 33.4177 93.4199 31.0421 93.4199 28.1114C93.4199 25.1808 95.7955 22.8052 98.7262 22.8052H178.343C181.274 22.8052 183.649 25.1808 183.649 28.1114C183.649 31.0421 181.274 33.4177 178.343 33.4177Z" fill="white"/>
<path d="M110.844 138.708H143.443" stroke="#263238" stroke-width="2.20268" stroke-miterlimit="10" stroke-linecap="round" stroke-linejoin="round"/>
<path d="M110.844 144.891H143.443" stroke="#263238" stroke-width="2.20268" stroke-miterlimit="10" stroke-linecap="round" stroke-linejoin="round"/>
<path d="M184.475 138.708H217.075" stroke="#263238" stroke-width="2.20268" stroke-miterlimit="10" stroke-linecap="round" stroke-linejoin="round"/>
<path d="M184.475 144.891H217.075" stroke="#263238" stroke-width="2.20268" stroke-miterlimit="10" stroke-linecap="round" stroke-linejoin="round"/>
<path d="M258.107 138.708H290.708" stroke="#263238" stroke-width="2.20268" stroke-miterlimit="10" stroke-linecap="round" stroke-linejoin="round"/>
<path d="M258.107 144.891H290.708" stroke="#263238" stroke-width="2.20268" stroke-miterlimit="10" stroke-linecap="round" stroke-linejoin="round"/>
<path d="M189.066 201.199L189.51 191.739H175.967L175.07 201.199H189.066Z" fill="#263238" stroke="white" stroke-width="1.10134" stroke-miterlimit="10" stroke-linecap="round" stroke-linejoin="round"/>
<path d="M217.058 201.199L216.596 191.739H203.053L203.063 201.199H217.058Z" fill="#263238" stroke="white" stroke-width="1.10134" stroke-miterlimit="10" stroke-linecap="round" stroke-linejoin="round"/>
<path d="M289.951 211.314H304.432L301.033 201.199H287.037L289.951 211.314Z" fill="#263238" stroke="white" stroke-width="1.10134" stroke-miterlimit="10" stroke-linecap="round" stroke-linejoin="round"/>
<path d="M175.068 201.199L175.965 191.739H162.421L161.072 201.199H175.068Z" fill="#263238" stroke="white" stroke-width="1.10134" stroke-miterlimit="10" stroke-linecap="round" stroke-linejoin="round"/>
<path d="M147.079 201.199L148.882 191.739H135.338L133.082 201.199H147.079Z" fill="#263238" stroke="white" stroke-width="1.10134" stroke-miterlimit="10" stroke-linecap="round" stroke-linejoin="round"/>
<path d="M273.04 201.199L270.767 191.739H257.225L259.044 201.199H273.04Z" fill="#263238" stroke="white" stroke-width="1.10134" stroke-miterlimit="10" stroke-linecap="round" stroke-linejoin="round"/>
<path d="M287.04 201.199L284.313 191.739H270.77L273.043 201.199H287.04Z" fill="#263238" stroke="white" stroke-width="1.10134" stroke-miterlimit="10" stroke-linecap="round" stroke-linejoin="round"/>
<path d="M133.08 201.199L135.335 191.739H121.793L119.084 201.199H133.08Z" fill="#263238" stroke="white" stroke-width="1.10134" stroke-miterlimit="10" stroke-linecap="round" stroke-linejoin="round"/>
<path d="M231.054 201.199L230.139 191.739H216.596L217.058 201.199H231.054Z" fill="#263238" stroke="white" stroke-width="1.10134" stroke-miterlimit="10" stroke-linecap="round" stroke-linejoin="round"/>
<path d="M301.033 201.199L297.854 191.739H284.311L287.037 201.199H301.033Z" fill="#263238" stroke="white" stroke-width="1.10134" stroke-miterlimit="10" stroke-linecap="round" stroke-linejoin="round"/>
<path d="M259.044 201.199L257.225 191.739H243.682L245.048 201.199H259.044Z" fill="#263238" stroke="white" stroke-width="1.10134" stroke-miterlimit="10" stroke-linecap="round" stroke-linejoin="round"/>
<path d="M245.05 201.199L243.683 191.739H230.139L231.054 201.199H245.05Z" fill="#263238" stroke="white" stroke-width="1.10134" stroke-miterlimit="10" stroke-linecap="round" stroke-linejoin="round"/>
<path d="M203.061 201.199L203.051 191.739H189.508L189.064 201.199H203.061Z" fill="#263238" stroke="white" stroke-width="1.10134" stroke-miterlimit="10" stroke-linecap="round" stroke-linejoin="round"/>
<path d="M105.089 201.199H91.0931L87.2285 211.314H101.709L105.089 201.199Z" fill="#263238" stroke="white" stroke-width="1.10134" stroke-miterlimit="10" stroke-linecap="round" stroke-linejoin="round"/>
<path d="M108.25 191.739H94.7064L91.0918 201.199H105.088L108.25 191.739Z" fill="#263238" stroke="white" stroke-width="1.10134" stroke-miterlimit="10" stroke-linecap="round" stroke-linejoin="round"/>
<path d="M119.086 201.199L121.795 191.739H108.252L105.09 201.199H119.086Z" fill="#263238" stroke="white" stroke-width="1.10134" stroke-miterlimit="10" stroke-linecap="round" stroke-linejoin="round"/>
<path d="M83.0861 222.154L78.6367 233.799H94.1942L98.0852 222.154H83.0861Z" fill="#263238" stroke="white" stroke-width="1.10134" stroke-miterlimit="10" stroke-linecap="round" stroke-linejoin="round"/>
<path d="M101.71 211.313H87.23L83.0879 222.154H98.087L101.71 211.313Z" fill="#263238" stroke="white" stroke-width="1.10134" stroke-miterlimit="10" stroke-linecap="round" stroke-linejoin="round"/>
<path d="M98.0863 222.154L94.1953 233.799H109.752L113.087 222.154H98.0863Z" fill="#263238" stroke="white" stroke-width="1.10134" stroke-miterlimit="10" stroke-linecap="round" stroke-linejoin="round"/>
<path d="M161.076 201.199L162.425 191.739H148.883L147.08 201.199H161.076Z" fill="#263238" stroke="white" stroke-width="1.10134" stroke-miterlimit="10" stroke-linecap="round" stroke-linejoin="round"/>
<path d="M159.631 211.314L161.075 201.199H147.079L145.15 211.314H159.631Z" fill="#263238" stroke="white" stroke-width="1.10134" stroke-miterlimit="10" stroke-linecap="round" stroke-linejoin="round"/>
<path d="M145.148 211.314L147.077 201.199H133.08L130.668 211.314H145.148Z" fill="#263238" stroke="white" stroke-width="1.10134" stroke-miterlimit="10" stroke-linecap="round" stroke-linejoin="round"/>
<path d="M174.109 211.314L175.069 201.199H161.073L159.629 211.314H174.109Z" fill="#263238" stroke="white" stroke-width="1.10134" stroke-miterlimit="10" stroke-linecap="round" stroke-linejoin="round"/>
<path d="M119.083 201.199H105.087L101.707 211.314H116.187L119.083 201.199Z" fill="#263238" stroke="white" stroke-width="1.10134" stroke-miterlimit="10" stroke-linecap="round" stroke-linejoin="round"/>
<path d="M293.076 222.154H308.075L304.432 211.313H289.951L293.076 222.154Z" fill="#263238" stroke="white" stroke-width="1.10134" stroke-miterlimit="10" stroke-linecap="round" stroke-linejoin="round"/>
<path d="M130.669 211.314L133.081 201.199H119.085L116.189 211.314H130.669Z" fill="#263238" stroke="white" stroke-width="1.10134" stroke-miterlimit="10" stroke-linecap="round" stroke-linejoin="round"/>
<path d="M101.709 211.313L98.0859 222.154H113.086L116.19 211.313H101.709Z" fill="#263238" stroke="white" stroke-width="1.10134" stroke-miterlimit="10" stroke-linecap="round" stroke-linejoin="round"/>
<path d="M260.993 211.314L259.047 201.199H245.051L246.513 211.314H260.993Z" fill="#263238" stroke="white" stroke-width="1.10134" stroke-miterlimit="10" stroke-linecap="round" stroke-linejoin="round"/>
<path d="M246.511 211.314L245.049 201.199H231.053L232.03 211.314H246.511Z" fill="#263238" stroke="white" stroke-width="1.10134" stroke-miterlimit="10" stroke-linecap="round" stroke-linejoin="round"/>
<path d="M289.954 211.314L287.04 201.199H273.043L275.474 211.314H289.954Z" fill="#263238" stroke="white" stroke-width="1.10134" stroke-miterlimit="10" stroke-linecap="round" stroke-linejoin="round"/>
<path d="M203.07 211.314L203.061 201.199H189.065L188.59 211.314H203.07Z" fill="#263238" stroke="white" stroke-width="1.10134" stroke-miterlimit="10" stroke-linecap="round" stroke-linejoin="round"/>
<path d="M232.031 211.314L231.054 201.199H217.059L217.552 211.314H232.031Z" fill="#263238" stroke="white" stroke-width="1.10134" stroke-miterlimit="10" stroke-linecap="round" stroke-linejoin="round"/>
<path d="M217.552 211.314L217.058 201.199H203.062L203.071 211.314H217.552Z" fill="#263238" stroke="white" stroke-width="1.10134" stroke-miterlimit="10" stroke-linecap="round" stroke-linejoin="round"/>
<path d="M188.592 211.314L189.066 201.199H175.071L174.111 211.314H188.592Z" fill="#263238" stroke="white" stroke-width="1.10134" stroke-miterlimit="10" stroke-linecap="round" stroke-linejoin="round"/>
<path d="M232.029 211.313L233.078 222.154H248.077L246.511 211.313H232.029Z" fill="#263238" stroke="white" stroke-width="1.10134" stroke-miterlimit="10" stroke-linecap="round" stroke-linejoin="round"/>
<path d="M246.514 211.313L248.08 222.154H263.079L260.993 211.313H246.514Z" fill="#263238" stroke="white" stroke-width="1.10134" stroke-miterlimit="10" stroke-linecap="round" stroke-linejoin="round"/>
<path d="M116.189 211.313L113.086 222.154H128.084L130.669 211.313H116.189Z" fill="#263238" stroke="white" stroke-width="1.10134" stroke-miterlimit="10" stroke-linecap="round" stroke-linejoin="round"/>
<path d="M260.992 211.313L263.078 222.154H278.077L275.473 211.313H260.992Z" fill="#263238" stroke="white" stroke-width="1.10134" stroke-miterlimit="10" stroke-linecap="round" stroke-linejoin="round"/>
<path d="M203.07 211.313L203.08 222.154H218.079L217.551 211.313H203.07Z" fill="#263238" stroke="white" stroke-width="1.10134" stroke-miterlimit="10" stroke-linecap="round" stroke-linejoin="round"/>
<path d="M275.473 211.313L278.077 222.154H293.078L289.953 211.313H275.473Z" fill="#263238" stroke="white" stroke-width="1.10134" stroke-miterlimit="10" stroke-linecap="round" stroke-linejoin="round"/>
<path d="M217.551 211.313L218.079 222.154H233.079L232.03 211.313H217.551Z" fill="#263238" stroke="white" stroke-width="1.10134" stroke-miterlimit="10" stroke-linecap="round" stroke-linejoin="round"/>
<path d="M145.149 211.313L143.084 222.154H158.083L159.629 211.313H145.149Z" fill="#263238" stroke="white" stroke-width="1.10134" stroke-miterlimit="10" stroke-linecap="round" stroke-linejoin="round"/>
<path d="M130.669 211.313L128.084 222.154H143.084L145.149 211.313H130.669Z" fill="#263238" stroke="white" stroke-width="1.10134" stroke-miterlimit="10" stroke-linecap="round" stroke-linejoin="round"/>
<path d="M188.591 211.313L188.082 222.154H203.081L203.071 211.313H188.591Z" fill="#263238" stroke="white" stroke-width="1.10134" stroke-miterlimit="10" stroke-linecap="round" stroke-linejoin="round"/>
<path d="M174.112 211.313L173.084 222.154H188.083L188.592 211.313H174.112Z" fill="#263238" stroke="white" stroke-width="1.10134" stroke-miterlimit="10" stroke-linecap="round" stroke-linejoin="round"/>
<path d="M159.628 211.313L158.082 222.154H173.081L174.109 211.313H159.628Z" fill="#263238" stroke="white" stroke-width="1.10134" stroke-miterlimit="10" stroke-linecap="round" stroke-linejoin="round"/>
<path d="M275.471 211.314L273.041 201.199H259.045L260.991 211.314H275.471Z" fill="#263238" stroke="white" stroke-width="1.10134" stroke-miterlimit="10" stroke-linecap="round" stroke-linejoin="round"/>
<path d="M108.252 191.739L111.488 182.054H98.4084L94.709 191.739H108.252Z" fill="#263238" stroke="white" stroke-width="1.10134" stroke-miterlimit="10" stroke-linecap="round" stroke-linejoin="round"/>
<path d="M94.7082 191.739H82.2069L78.1738 201.199H91.0936L94.7082 191.739Z" fill="#263238" stroke="white" stroke-width="1.10134" stroke-miterlimit="10" stroke-linecap="round" stroke-linejoin="round"/>
<path d="M98.4077 182.054H86.3338L82.207 191.739H94.7083L98.4077 182.054Z" fill="#263238" stroke="white" stroke-width="1.10134" stroke-miterlimit="10" stroke-linecap="round" stroke-linejoin="round"/>
<path d="M91.0909 201.199H78.1711L73.8594 211.314H87.2263L91.0909 201.199Z" fill="#263238" stroke="white" stroke-width="1.10134" stroke-miterlimit="10" stroke-linecap="round" stroke-linejoin="round"/>
<path d="M87.2292 211.313H73.8623L69.2422 222.154H83.0871L87.2292 211.313Z" fill="#263238" stroke="white" stroke-width="1.10134" stroke-miterlimit="10" stroke-linecap="round" stroke-linejoin="round"/>
<path d="M83.086 222.154H69.2411L64.2773 233.799H78.6366L83.086 222.154Z" fill="#263238" stroke="white" stroke-width="1.10134" stroke-miterlimit="10" stroke-linecap="round" stroke-linejoin="round"/>
<path d="M315.029 201.199L318.913 211.314H331.722L327.411 201.199H315.029Z" fill="#263238" stroke="white" stroke-width="1.10134" stroke-miterlimit="10" stroke-linecap="round" stroke-linejoin="round"/>
<path d="M323.076 222.154H336.344L331.724 211.313H318.914L323.076 222.154Z" fill="#263238" stroke="white" stroke-width="1.10134" stroke-miterlimit="10" stroke-linecap="round" stroke-linejoin="round"/>
<path d="M327.545 233.799H341.307L336.342 222.154H323.074L327.545 233.799Z" fill="#263238" stroke="white" stroke-width="1.10134" stroke-miterlimit="10" stroke-linecap="round" stroke-linejoin="round"/>
<path d="M216.595 191.739L216.124 182.054H203.043L203.052 191.739H216.595Z" fill="#263238" stroke="white" stroke-width="1.10134" stroke-miterlimit="10" stroke-linecap="round" stroke-linejoin="round"/>
<path d="M315.029 201.199H327.41L323.378 191.739H311.396L315.029 201.199Z" fill="#263238" stroke="white" stroke-width="1.10134" stroke-miterlimit="10" stroke-linecap="round" stroke-linejoin="round"/>
<path d="M308.075 222.154H323.074L318.912 211.313H304.432L308.075 222.154Z" fill="#263238" stroke="white" stroke-width="1.10134" stroke-miterlimit="10" stroke-linecap="round" stroke-linejoin="round"/>
<path d="M121.795 191.739L124.567 182.054H111.488L108.252 191.739H121.795Z" fill="#263238" stroke="white" stroke-width="1.10134" stroke-miterlimit="10" stroke-linecap="round" stroke-linejoin="round"/>
<path d="M297.855 191.739L301.035 201.199H315.031L311.399 191.739H297.855Z" fill="#263238" stroke="white" stroke-width="1.10134" stroke-miterlimit="10" stroke-linecap="round" stroke-linejoin="round"/>
<path d="M323.378 191.739L319.25 182.054H307.68L311.397 191.739H323.378Z" fill="#263238" stroke="white" stroke-width="1.10134" stroke-miterlimit="10" stroke-linecap="round" stroke-linejoin="round"/>
<path d="M311.398 191.739L307.681 182.054H294.602L297.855 191.739H311.398Z" fill="#263238" stroke="white" stroke-width="1.10134" stroke-miterlimit="10" stroke-linecap="round" stroke-linejoin="round"/>
<path d="M263.078 222.154L265.319 233.799H280.876L278.077 222.154H263.078Z" fill="#263238" stroke="white" stroke-width="1.10134" stroke-miterlimit="10" stroke-linecap="round" stroke-linejoin="round"/>
<path d="M311.989 233.799H327.546L323.075 222.154H308.076L311.989 233.799Z" fill="#263238" stroke="white" stroke-width="1.10134" stroke-miterlimit="10" stroke-linecap="round" stroke-linejoin="round"/>
<path d="M297.854 191.739L294.601 182.054H281.521L284.311 191.739H297.854Z" fill="#263238" stroke="white" stroke-width="1.10134" stroke-miterlimit="10" stroke-linecap="round" stroke-linejoin="round"/>
<path d="M293.076 222.154L296.431 233.799H311.988L308.075 222.154H293.076Z" fill="#263238" stroke="white" stroke-width="1.10134" stroke-miterlimit="10" stroke-linecap="round" stroke-linejoin="round"/>
<path d="M278.078 222.154L280.877 233.799H296.433L293.078 222.154H278.078Z" fill="#263238" stroke="white" stroke-width="1.10134" stroke-miterlimit="10" stroke-linecap="round" stroke-linejoin="round"/>
<path d="M304.432 211.314H318.912L315.029 201.199H301.033L304.432 211.314Z" fill="#263238" stroke="white" stroke-width="1.10134" stroke-miterlimit="10" stroke-linecap="round" stroke-linejoin="round"/>
<path d="M175.965 191.739L176.884 182.054H163.804L162.422 191.739H175.965Z" fill="#263238" stroke="white" stroke-width="1.10134" stroke-miterlimit="10" stroke-linecap="round" stroke-linejoin="round"/>
<path d="M284.313 191.739L281.523 182.054H268.443L270.769 191.739H284.313Z" fill="#263238" stroke="white" stroke-width="1.10134" stroke-miterlimit="10" stroke-linecap="round" stroke-linejoin="round"/>
<path d="M162.423 191.739L163.805 182.054H150.726L148.881 191.739H162.423Z" fill="#263238" stroke="white" stroke-width="1.10134" stroke-miterlimit="10" stroke-linecap="round" stroke-linejoin="round"/>
<path d="M203.051 191.739L203.042 182.054H189.963L189.508 191.739H203.051Z" fill="#263238" stroke="white" stroke-width="1.10134" stroke-miterlimit="10" stroke-linecap="round" stroke-linejoin="round"/>
<path d="M148.88 191.739L150.725 182.054H137.645L135.336 191.739H148.88Z" fill="#263238" stroke="white" stroke-width="1.10134" stroke-miterlimit="10" stroke-linecap="round" stroke-linejoin="round"/>
<path d="M135.337 191.739L137.646 182.054H124.567L121.795 191.739H135.337Z" fill="#263238" stroke="white" stroke-width="1.10134" stroke-miterlimit="10" stroke-linecap="round" stroke-linejoin="round"/>
<path d="M189.508 191.739L189.963 182.054H176.883L175.965 191.739H189.508Z" fill="#263238" stroke="white" stroke-width="1.10134" stroke-miterlimit="10" stroke-linecap="round" stroke-linejoin="round"/>
<path d="M270.767 191.739L268.441 182.054H255.361L257.225 191.739H270.767Z" fill="#263238" stroke="white" stroke-width="1.10134" stroke-miterlimit="10" stroke-linecap="round" stroke-linejoin="round"/>
<path d="M257.226 191.739L255.363 182.054H242.283L243.683 191.739H257.226Z" fill="#263238" stroke="white" stroke-width="1.10134" stroke-miterlimit="10" stroke-linecap="round" stroke-linejoin="round"/>
<path d="M230.138 191.739L229.203 182.054H216.123L216.594 191.739H230.138Z" fill="#263238" stroke="white" stroke-width="1.10134" stroke-miterlimit="10" stroke-linecap="round" stroke-linejoin="round"/>
<path d="M263.076 222.154H248.077H233.078H218.079H203.08H188.08H173.081H158.082H143.083H128.083H113.085L109.75 233.799H125.306H140.863H156.42H171.977H187.533H203.091H218.647H234.203H249.76H265.317L263.076 222.154Z" fill="#263238" stroke="white" stroke-width="1.10134" stroke-miterlimit="10" stroke-linecap="round" stroke-linejoin="round"/>
<path d="M243.682 191.739L242.283 182.054H229.203L230.138 191.739H243.682Z" fill="#263238" stroke="white" stroke-width="1.10134" stroke-miterlimit="10" stroke-linecap="round" stroke-linejoin="round"/>
<path d="M366.513 254.26H33.1523V258.99H366.513V254.26Z" fill="#263238" stroke="#263238" stroke-width="1.10134" stroke-miterlimit="10" stroke-linecap="round" stroke-linejoin="round"/>
<path d="M62.5802 371C62.5802 371 87.2116 319.368 91.0013 309.421C94.791 299.474 147.844 274.369 150.685 269.632C153.526 264.895 157.316 250.211 160.159 244.053C163.001 237.896 160.632 235.527 162.527 230.316C164.421 225.106 167.737 218.948 163 218.948C158.263 218.948 152.106 224.159 149.737 232.685C147.369 241.212 137.894 248.316 137.894 248.316C137.894 248.316 137.894 248.316 138.368 242.632C138.841 236.948 144.525 219.422 146.894 215.632C149.262 211.842 163.473 196.685 165.368 196.211C167.262 195.738 171.526 200.001 175.789 200.001C180.052 200.001 180.999 196.685 178.631 194.79C176.262 192.896 174.368 186.737 168.684 182.948C163 179.158 156.843 182.948 156.843 182.948C156.843 182.948 154 178.211 151.632 175.368C149.264 172.526 144.526 167.789 138.369 166.368C132.211 164.947 127.948 168.736 127.948 168.736C127.948 168.736 126.054 168.262 121.317 167.789C116.58 167.315 113.264 170.158 108.527 177.736C103.79 185.316 96.2106 200 96.2106 200C96.2106 200 98.1049 186.263 98.1049 180.579C98.1049 174.895 98.5785 168.736 96.2106 166.368C93.8428 164 91.4738 166.842 90.5266 175.368C89.5795 183.895 78.685 213.737 77.2632 221.79C75.8425 229.843 60.6848 274.369 52.6318 285.737C44.5788 297.105 1 346.842 1 346.842M130.792 203.316C130.792 203.316 137.423 184.368 139.318 184.368C141.213 184.368 148.318 189.579 148.318 189.579L130.792 203.316Z" fill="white"/>
<path d="M62.5802 371C62.5802 371 87.2116 319.368 91.0013 309.421C94.791 299.474 147.844 274.369 150.685 269.632C153.526 264.895 157.316 250.211 160.159 244.053C163.001 237.896 160.632 235.527 162.527 230.316C164.421 225.106 167.737 218.948 163 218.948C158.263 218.948 152.106 224.159 149.737 232.685C147.369 241.212 137.894 248.316 137.894 248.316C137.894 248.316 137.894 248.316 138.368 242.632C138.841 236.948 144.525 219.422 146.894 215.632C149.262 211.842 163.473 196.685 165.368 196.211C167.262 195.738 171.526 200.001 175.789 200.001C180.052 200.001 180.999 196.685 178.631 194.79C176.262 192.896 174.368 186.737 168.684 182.948C163 179.158 156.843 182.948 156.843 182.948C156.843 182.948 154 178.211 151.632 175.368C149.264 172.526 144.526 167.789 138.369 166.368C132.211 164.947 127.948 168.736 127.948 168.736C127.948 168.736 126.054 168.262 121.317 167.789C116.58 167.315 113.264 170.158 108.527 177.736C103.79 185.316 96.2106 200 96.2106 200C96.2106 200 98.1049 186.263 98.1049 180.579C98.1049 174.895 98.5785 168.736 96.2106 166.368C93.8428 164 91.4738 166.842 90.5266 175.368C89.5795 183.895 78.685 213.737 77.2632 221.79C75.8425 229.843 60.6848 274.369 52.6318 285.737C44.5788 297.105 1 346.842 1 346.842M130.792 203.316C130.792 203.316 137.423 184.368 139.318 184.368C141.213 184.368 148.318 189.579 148.318 189.579L130.792 203.316Z" stroke="#263238" stroke-width="1.10134" stroke-miterlimit="10" stroke-linecap="round" stroke-linejoin="round"/>
<path d="M73.4488 242.308C73.4488 242.308 81.5271 217.053 82.8752 210.555C83.8256 205.972 87.2255 211.315 87.2255 211.315C87.2255 211.315 93.7894 206.586 93.7894 210.555C93.7894 214.524 96.2696 217.501 96.2696 217.501C96.2696 217.501 94.7806 210.555 101.727 208.57C108.673 206.586 111.65 209.563 110.161 217.501C108.672 225.439 111.153 222.463 112.641 220.478C114.13 218.493 112.144 213.532 121.075 210.059C130.006 206.586 134.967 210.059 133.478 217.501C131.99 224.943 129.509 231.393 129.509 242.309C129.509 253.224 131.494 263.147 133.478 263.147C135.463 263.147 146.378 251.736 148.363 259.178C150.348 266.62 146.378 266.62 135.96 275.55C125.541 284.481 98.2531 291.923 93.7872 300.854C89.3224 309.784 86.3455 315.241 83.3686 315.738C80.3917 316.235 75.4301 298.373 61.0423 300.358C46.6544 302.343 31.7698 316.73 35.2423 310.777C38.7148 304.823 51.6148 295.396 59.0576 278.527C66.5027 261.657 73.4488 242.308 73.4488 242.308Z" fill="black"/>
<path opacity="0.4" d="M73.4488 242.308C73.4488 242.308 81.5271 217.053 82.8752 210.555C83.8256 205.972 87.2255 211.315 87.2255 211.315C87.2255 211.315 93.7894 206.586 93.7894 210.555C93.7894 214.524 96.2696 217.501 96.2696 217.501C96.2696 217.501 94.7806 210.555 101.727 208.57C108.673 206.586 111.65 209.563 110.161 217.501C108.672 225.439 111.153 222.463 112.641 220.478C114.13 218.493 112.144 213.532 121.075 210.059C130.006 206.586 134.967 210.059 133.478 217.501C131.99 224.943 129.509 231.393 129.509 242.309C129.509 253.224 131.494 263.147 133.478 263.147C135.463 263.147 146.378 251.736 148.363 259.178C150.348 266.62 146.378 266.62 135.96 275.55C125.541 284.481 98.2531 291.923 93.7872 300.854C89.3224 309.784 86.3455 315.241 83.3686 315.738C80.3917 316.235 75.4301 298.373 61.0423 300.358C46.6544 302.343 31.7698 316.73 35.2423 310.777C38.7148 304.823 51.6148 295.396 59.0576 278.527C66.5027 261.657 73.4488 242.308 73.4488 242.308Z" fill="white"/>
<path d="M127.948 168.737C127.948 168.737 114.684 191.474 111.843 196.211C109 200.948 106.633 205.211 103.316 207.105C100 209 97.6324 213.263 98.5796 214.685" fill="white"/>
<path d="M127.948 168.737C127.948 168.737 114.684 191.474 111.843 196.211C109 200.948 106.633 205.211 103.316 207.105C100 209 97.6324 213.263 98.5796 214.685" stroke="#263238" stroke-width="1.10134" stroke-miterlimit="10" stroke-linecap="round" stroke-linejoin="round"/>
<path d="M96.2112 200C96.2112 200 94.3169 203.789 90.5272 207.105C86.7375 210.421 82.4742 213.263 81.5271 217.053C80.5799 220.842 78.2109 223.684 78.2109 223.684" fill="white"/>
<path d="M96.2112 200C96.2112 200 94.3169 203.789 90.5272 207.105C86.7375 210.421 82.4742 213.263 81.5271 217.053C80.5799 220.842 78.2109 223.684 78.2109 223.684" stroke="#263238" stroke-width="1.10134" stroke-miterlimit="10" stroke-linecap="round" stroke-linejoin="round"/>
<path d="M130.792 203.316C130.792 203.316 121.319 209.473 118.951 211.369C116.583 213.263 115.635 217.526 115.635 217.526" fill="white"/>
<path d="M130.792 203.316C130.792 203.316 121.319 209.473 118.951 211.369C116.583 213.263 115.635 217.526 115.635 217.526" stroke="#263238" stroke-width="1.10134" stroke-miterlimit="10" stroke-linecap="round" stroke-linejoin="round"/>
<path d="M156.843 182.948L148.316 189.579" stroke="#263238" stroke-width="1.10134" stroke-miterlimit="10" stroke-linecap="round" stroke-linejoin="round"/>
<path d="M387.228 341.31C387.228 341.31 344.123 299.152 340.807 290.625C337.49 282.099 338.438 280.204 335.596 274.047C332.755 267.889 324.228 257.468 323.755 249.889C323.281 242.309 319.491 224.31 319.491 218.152C319.491 211.994 318.071 202.994 316.175 201.573C314.281 200.152 303.859 197.783 303.859 197.783C303.859 197.783 298.175 179.783 293.912 178.836C289.648 177.889 281.122 182.626 281.122 182.626C281.122 182.626 279.227 179.31 276.858 174.099C274.489 168.889 270.227 168.889 265.016 170.783C259.804 172.677 249.385 176.941 249.385 176.941C249.385 176.941 237.543 167.941 233.753 173.625C229.964 179.309 225.227 189.729 224.28 193.519C223.332 197.309 229.893 197.173 231.314 196.226C232.735 195.279 238.058 191.355 238.058 191.355C238.058 191.355 248.437 199.203 250.332 203.466C252.226 207.73 256.016 227.624 256.489 231.414C256.963 235.204 255.069 247.045 255.069 247.045C255.069 247.045 246.068 230.94 241.805 226.203C237.542 221.467 231.384 218.624 226.647 218.624C221.911 218.624 218.594 223.834 222.384 226.203C226.174 228.572 230.437 231.414 231.384 234.73C232.331 238.046 241.805 255.098 242.752 261.256C243.699 267.413 250.332 279.73 256.489 283.519C262.647 287.309 285.384 292.046 289.647 296.309C293.911 300.572 324.226 360.73 324.226 360.73M257.912 185.941H265.492L273.545 201.572L257.912 185.941Z" fill="white"/>
<path d="M387.228 341.31C387.228 341.31 344.123 299.152 340.807 290.625C337.49 282.099 338.438 280.204 335.596 274.047C332.755 267.889 324.228 257.468 323.755 249.889C323.281 242.309 319.491 224.31 319.491 218.152C319.491 211.994 318.071 202.994 316.175 201.573C314.281 200.152 303.859 197.783 303.859 197.783C303.859 197.783 298.175 179.783 293.912 178.836C289.648 177.889 281.122 182.626 281.122 182.626C281.122 182.626 279.227 179.31 276.858 174.099C274.489 168.889 270.227 168.889 265.016 170.783C259.804 172.677 249.385 176.941 249.385 176.941C249.385 176.941 237.543 167.941 233.753 173.625C229.964 179.309 225.227 189.729 224.28 193.519C223.332 197.309 229.893 197.173 231.314 196.226C232.735 195.279 238.058 191.355 238.058 191.355C238.058 191.355 248.437 199.203 250.332 203.466C252.226 207.73 256.016 227.624 256.489 231.414C256.963 235.204 255.069 247.045 255.069 247.045C255.069 247.045 246.068 230.94 241.805 226.203C237.542 221.467 231.384 218.624 226.647 218.624C221.911 218.624 218.594 223.834 222.384 226.203C226.174 228.572 230.437 231.414 231.384 234.73C232.331 238.046 241.805 255.098 242.752 261.256C243.699 267.413 250.332 279.73 256.489 283.519C262.647 287.309 285.384 292.046 289.647 296.309C293.911 300.572 324.226 360.73 324.226 360.73M257.912 185.941H265.492L273.545 201.572L257.912 185.941Z" stroke="#263238" stroke-width="1.10134" stroke-miterlimit="10" stroke-linecap="round" stroke-linejoin="round"/>
<path d="M318.049 224.942C318.049 224.942 312.591 209.561 306.141 212.538C299.691 215.515 298.699 217.003 298.699 217.003C298.699 217.003 295.227 211.546 289.273 213.531C283.319 215.515 281.334 211.546 281.334 211.546C281.334 211.546 273.396 206.585 268.434 210.554C263.473 214.523 267.442 225.438 269.427 234.369C271.411 243.3 266.945 260.665 265.953 262.154C264.961 263.643 251.565 257.689 250.076 263.146C248.588 268.603 254.541 280.511 266.449 284.48C278.356 288.449 287.287 290.434 291.752 294.899C296.218 299.363 307.629 331.613 317.552 334.094C327.475 336.575 338.39 322.186 348.809 323.179C359.228 324.171 372.623 331.613 367.166 325.163C361.709 318.714 338.886 295.395 337.398 286.96C335.91 278.526 330.452 272.572 327.972 268.603C325.49 264.634 321.026 240.818 319.538 234.369C318.049 227.919 318.049 224.942 318.049 224.942Z" fill="black"/>
<path opacity="0.4" d="M318.049 224.942C318.049 224.942 312.591 209.561 306.141 212.538C299.691 215.515 298.699 217.003 298.699 217.003C298.699 217.003 295.227 211.546 289.273 213.531C283.319 215.515 281.334 211.546 281.334 211.546C281.334 211.546 273.396 206.585 268.434 210.554C263.473 214.523 267.442 225.438 269.427 234.369C271.411 243.3 266.945 260.665 265.953 262.154C264.961 263.643 251.565 257.689 250.076 263.146C248.588 268.603 254.541 280.511 266.449 284.48C278.356 288.449 287.287 290.434 291.752 294.899C296.218 299.363 307.629 331.613 317.552 334.094C327.475 336.575 338.39 322.186 348.809 323.179C359.228 324.171 372.623 331.613 367.166 325.163C361.709 318.714 338.886 295.395 337.398 286.96C335.91 278.526 330.452 272.572 327.972 268.603C325.49 264.634 321.026 240.818 319.538 234.369C318.049 227.919 318.049 224.942 318.049 224.942Z" fill="white"/>
<path d="M281.123 182.625L287.754 194.941C287.754 194.941 290.456 201.401 293.18 204.126C295.906 206.852 298.291 208.896 299.313 212.303C300.335 215.709 300.675 217.413 300.675 217.413" fill="white"/>
<path d="M281.123 182.625L287.754 194.941C287.754 194.941 290.456 201.401 293.18 204.126C295.906 206.852 298.291 208.896 299.313 212.303C300.335 215.709 300.675 217.413 300.675 217.413" stroke="#263238" stroke-width="1.10134" stroke-miterlimit="10" stroke-linecap="round" stroke-linejoin="round"/>
<path d="M303.859 197.784L310.491 211.52" stroke="#263238" stroke-width="1.10134" stroke-miterlimit="10" stroke-linecap="round" stroke-linejoin="round"/>
<path d="M249.387 176.941L257.913 185.941" stroke="#263238" stroke-width="1.10134" stroke-miterlimit="10" stroke-linecap="round" stroke-linejoin="round"/>
<path d="M312.26 214.688C312.26 217.754 313.282 223.206 313.282 223.206Z" fill="white"/>
<path d="M312.26 214.688C312.26 217.754 313.282 223.206 313.282 223.206" stroke="#263238" stroke-width="1.10134" stroke-miterlimit="10" stroke-linecap="round" stroke-linejoin="round"/>
<path d="M278.191 206.852C278.191 206.852 282.28 209.918 282.961 214.006Z" fill="white"/>
<path d="M278.191 206.852C278.191 206.852 282.28 209.918 282.961 214.006" stroke="#263238" stroke-width="1.10134" stroke-miterlimit="10" stroke-linecap="round" stroke-linejoin="round"/>
<path d="M238.061 191.356C238.061 191.356 234.314 189.857 234.314 186.86Z" fill="white"/>
<path d="M238.061 191.356C238.061 191.356 234.314 189.857 234.314 186.86" stroke="#263238" stroke-width="1.10134" stroke-miterlimit="10" stroke-linecap="round" stroke-linejoin="round"/>
<path d="M265.493 185.941C265.493 185.941 262.793 183.862 262.793 181.238Z" fill="white"/>
<path d="M265.493 185.941C265.493 185.941 262.793 183.862 262.793 181.238" stroke="#263238" stroke-width="1.10134" stroke-miterlimit="10" stroke-linecap="round" stroke-linejoin="round"/>
</svg>
